# Apple ModelIO OBJ File: sombreroDiablo
mtllib sombreroDiablo.mtl
g diabloCuernos
v -0.021485 3.84114 -0.666967
v -0.021485 4.12043 -0.763921
v 0.029218 4.13193 -0.746343
v 0.079922 3.86412 -0.631812
v 0.121926 3.91962 -0.546939
v 0.05022 4.15968 -0.703907
v 0.029218 4.18742 -0.66147
v 0.079922 3.97512 -0.462066
v -0.021485 3.9981 -0.426911
v -0.021485 4.19892 -0.643893
v -0.072188 4.18742 -0.66147
v -0.122891 3.97512 -0.462066
v -0.164895 3.91962 -0.546939
v -0.09319 4.15968 -0.703907
v -0.072188 4.13193 -0.746343
v -0.079209 4.40489 -0.748174
v -0.101768 4.41 -0.740353
v -0.122891 3.86412 -0.631812
v -0.047304 4.42235 -0.721471
v -0.056649 4.41 -0.740353
v -0.056649 4.43469 -0.70259
v -0.079209 4.43981 -0.694769
v -0.101768 4.43469 -0.70259
v -0.111113 4.42235 -0.721471
v -0.021485 3.84114 0.666967
v 0.079922 3.86412 0.631812
v 0.029218 4.13193 0.746343
v -0.021485 4.12043 0.763921
v 0.121926 3.91962 0.546939
v 0.05022 4.15968 0.703907
v 0.079922 3.97512 0.462066
v 0.029218 4.18742 0.66147
v -0.021485 3.9981 0.426911
v -0.021485 4.19892 0.643893
v -0.122891 3.97512 0.462066
v -0.072188 4.18742 0.66147
v -0.164895 3.91962 0.546939
v -0.09319 4.15968 0.703907
v -0.079209 4.40489 0.748174
v -0.072188 4.13193 0.746343
v -0.101768 4.41 0.740353
v -0.122891 3.86412 0.631812
v -0.056649 4.41 0.740353
v -0.047304 4.42235 0.721471
v -0.111113 4.42235 0.721471
v -0.101768 4.43469 0.70259
v -0.079209 4.43981 0.694769
v -0.056649 4.43469 0.70259
vn 0.3729 -0.3043 -0.8766
vn 0.9002 -0.0157 -0.4352
vn 0.9002 0.3924 0.1889
vn 0.3729 0.681 0.6303
vn -0.3729 0.681 0.6303
vn -0.9002 0.3924 0.1889
vn -0.3305 -0.0148 -0.9437
vn -0.9002 -0.0157 -0.4352
vn -0.3729 -0.3043 -0.8766
vn -0 -0.837 0.5473
vn -0 0.837 -0.5473
vn 0.3023 0.1137 -0.9464
vn 0.9097 0.3524 0.2197
vn -0.8879 -0.0299 0.459
vn 0.3701 0.276 0.887
vn -0.9146 -0.0888 -0.3946
vn 0.7895 0.2558 -0.558
vn -0.3482 0.1131 0.9306
vn 0.3729 -0.3043 0.8766
vn 0.9002 -0.0157 0.4352
vn 0.9002 0.3924 -0.1889
vn 0.3729 0.681 -0.6303
vn -0.3729 0.681 -0.6303
vn -0.9002 0.3924 -0.1889
vn -0.3305 -0.0148 0.9437
vn -0.9002 -0.0157 0.4352
vn -0.3729 -0.3043 0.8766
vn -0 -0.837 -0.5473
vn -0 0.837 0.5473
vn 0.3023 0.1137 0.9464
vn 0.9097 0.3524 -0.2197
vn -0.8879 -0.0299 -0.459
vn 0.3701 0.276 -0.887
vn -0.9146 -0.0888 0.3946
vn 0.7895 0.2558 0.558
vn -0.3482 0.1131 -0.9306
vt 0.505175 0.279504
vt 0.331576 0.372337
vt 0.310622 0.341358
vt 0.463127 0.21702
vt 0.412993 0.165592
vt 0.279935 0.318039
vt 0.243244 0.303196
vt 0.355123 0.123323
vt 0.301716 0.092686
vt 0.200954 0.289478
vt 0.160119 0.268881
vt 0.245686 0.06649
vt 0.18904 0.04519
vt 0.122277 0.245063
vt 0.051548 0.216169
vt 0.087669 0.225777
vt 0.048741 0.418115
vt 0.064653 0.425501
vt 0.120667 0.027512
vt 0.048741 0.021854
vt 0.499778 0.646447
vt 0.499778 0.562587
vt 0.559075 0.50329
vt 0.559075 0.705744
vt 0.642934 0.705744
vt 0.702232 0.646447
vt 0.702232 0.562587
vt 0.642934 0.50329
vt 0.234302 0.549023
vt 0.215646 0.549023
vt 0.202454 0.535831
vt 0.247493 0.535831
vt 0.247493 0.517175
vt 0.234301 0.503983
vt 0.215645 0.503984
vt 0.202454 0.517175
vt 0.162594 0.482129
vt 0.152827 0.468302
vt 0.137339 0.460032
vt 0.120662 0.457026
vt 0.089798 0.447344
vt 0.077307 0.436779
vt 0.10464 0.454086
vt 0.525872 0.277775
vt 0.565849 0.217831
vt 0.717225 0.339641
vt 0.696632 0.370003
vt 0.61815 0.165313
vt 0.746651 0.31739
vt 0.670227 0.126523
vt 0.783961 0.302703
vt 0.726843 0.093967
vt 0.823767 0.287955
vt 0.781534 0.068926
vt 0.863988 0.267743
vt 0.836799 0.048494
vt 0.901167 0.244374
vt 0.970428 0.216081
vt 0.973906 0.413806
vt 0.935083 0.225482
vt 0.958345 0.421099
vt 0.903616 0.03151
vt 0.973906 0.026254
vt 0.387012 0.7503
vt 0.387012 0.834159
vt 0.327715 0.893456
vt 0.327715 0.691003
vt 0.243856 0.691003
vt 0.184559 0.7503
vt 0.184559 0.834159
vt 0.243856 0.893456
vt 0.34913 0.546704
vt 0.34913 0.56536
vt 0.335939 0.578552
vt 0.335938 0.533512
vt 0.317282 0.533513
vt 0.304091 0.546704
vt 0.304091 0.565361
vt 0.317283 0.578552
vt 0.872197 0.463448
vt 0.862671 0.477036
vt 0.903571 0.452258
vt 0.887345 0.455246
vt 0.945988 0.4322
vt 0.93379 0.442612
vt 0.919273 0.449288
usemtl 
f 1/1/1 2/2/1 3/3/1
f 1/1/1 3/3/1 4/4/1
f 4/4/2 3/3/2 5/5/2
f 3/3/2 6/6/2 5/5/2
f 5/5/3 6/6/3 7/7/3
f 5/5/3 7/7/3 8/8/3
f 8/8/4 7/7/4 9/9/4
f 7/7/4 10/10/4 9/9/4
f 9/9/5 10/10/5 11/11/5
f 9/9/5 11/11/5 12/12/5
f 12/12/6 11/11/6 13/13/6
f 11/11/6 14/14/6 13/13/6
f 2/15/7 15/16/7 16/17/7
f 15/16/7 17/18/7 16/17/7
f 13/13/8 14/14/8 15/16/8
f 13/13/8 15/16/8 18/19/8
f 18/19/9 15/16/9 1/20/9
f 15/16/9 2/15/9 1/20/9
f 18/21/10 1/22/10 4/23/10
f 13/24/10 18/21/10 4/23/10
f 12/25/10 13/24/10 4/23/10
f 9/26/10 12/25/10 4/23/10
f 8/27/10 9/26/10 4/23/10
f 5/28/10 8/27/10 4/23/10
f 19/29/11 20/30/11 16/31/11
f 21/32/11 19/29/11 16/31/11
f 22/33/11 21/32/11 16/31/11
f 23/34/11 22/33/11 16/31/11
f 24/35/11 23/34/11 16/31/11
f 17/36/11 24/35/11 16/31/11
f 3/3/12 2/2/12 16/37/12
f 3/3/12 16/37/12 20/38/12
f 7/7/13 6/6/13 19/39/13
f 7/7/13 19/39/13 21/40/13
f 14/14/14 11/11/14 23/41/14
f 14/14/14 23/41/14 24/42/14
f 10/10/15 7/7/15 22/43/15
f 7/7/15 21/40/15 22/43/15
f 15/16/16 14/14/16 24/42/16
f 15/16/16 24/42/16 17/18/16
f 6/6/17 3/3/17 19/39/17
f 3/3/17 20/38/17 19/39/17
f 11/11/18 10/10/18 23/41/18
f 10/10/18 22/43/18 23/41/18
f 25/44/19 26/45/19 27/46/19
f 25/44/19 27/46/19 28/47/19
f 26/45/20 29/48/20 27/46/20
f 29/48/20 30/49/20 27/46/20
f 29/48/21 31/50/21 32/51/21
f 29/48/21 32/51/21 30/49/21
f 31/50/22 33/52/22 32/51/22
f 33/52/22 34/53/22 32/51/22
f 33/52/23 35/54/23 36/55/23
f 33/52/23 36/55/23 34/53/23
f 35/54/24 37/56/24 36/55/24
f 37/56/24 38/57/24 36/55/24
f 28/58/25 39/59/25 40/60/25
f 39/59/25 41/61/25 40/60/25
f 37/56/26 42/62/26 40/60/26
f 37/56/26 40/60/26 38/57/26
f 42/62/27 25/63/27 40/60/27
f 25/63/27 28/58/27 40/60/27
f 26/64/28 25/65/28 42/66/28
f 29/67/28 26/64/28 42/66/28
f 31/68/28 29/67/28 42/66/28
f 33/69/28 31/68/28 42/66/28
f 35/70/28 33/69/28 42/66/28
f 37/71/28 35/70/28 42/66/28
f 39/72/29 43/73/29 44/74/29
f 41/75/29 39/72/29 44/74/29
f 45/76/29 41/75/29 44/74/29
f 46/77/29 45/76/29 44/74/29
f 47/78/29 46/77/29 44/74/29
f 48/79/29 47/78/29 44/74/29
f 27/46/30 43/80/30 39/81/30
f 27/46/30 39/81/30 28/47/30
f 32/51/31 48/82/31 44/83/31
f 32/51/31 44/83/31 30/49/31
f 38/57/32 45/84/32 46/85/32
f 38/57/32 46/85/32 36/55/32
f 34/53/33 47/86/33 32/51/33
f 47/86/33 48/82/33 32/51/33
f 40/60/34 41/61/34 45/84/34
f 40/60/34 45/84/34 38/57/34
f 30/49/35 44/83/35 27/46/35
f 44/83/35 43/80/35 27/46/35
f 36/55/36 46/85/36 34/53/36
f 46/85/36 47/86/36 34/53/36
s off
