<?xml version="1.0" encoding="UTF-8"?>
<svg id="Layer_2" data-name="Layer 2" xmlns="http://www.w3.org/2000/svg" width="269.1" height="228.1" viewBox="0 0 269.1 228.1">
  <defs>
    <style>
      .cls-1 {
        fill: #57595b;
      }

      .cls-2 {
        fill: #3c3f44;
      }

      .cls-3 {
        fill: #ad0038;
      }

      .cls-4 {
        fill: #363738;
      }

      .cls-5 {
        fill: none;
      }

      .cls-6 {
        fill: #f16a95;
      }

      .cls-7 {
        fill: #dc003e;
      }

      .cls-8 {
        fill: #fefefe;
      }
    </style>
  </defs>
  <g id="Middle">
    <g>
      <path class="cls-5" d="m190.8,26.1c0,.2,0,.4,0,.6,0-.2,0-.4,0-.6Z"/>
      <path class="cls-5" d="m190.7,27.3c0,.4-.1.8-.3,1.2.1-.4.2-.8.3-1.2Z"/>
      <path class="cls-5" d="m150.5,34.7c-1.8,2.3-3.5,4.7-5.1,7.4-.9,1.6-1.7,3.3-2.3,4.9.6-1.7,1.4-3.3,2.3-4.9,1.5-2.7,3.2-5.1,5.1-7.4Z"/>
      <path class="cls-5" d="m166,59.8c-.6,0-1.1,0-1.7,0,.5,0,1.1,0,1.7,0Z"/>
      <path class="cls-5" d="m155.2,45.1c.2.2.5.4.7.6h0c-.2-.2-.5-.4-.7-.6Z"/>
      <path class="cls-5" d="m168.2,42c1.6,1.2,3.4,1.4,5.1.9-1.7.5-3.5.2-5.1-.9Z"/>
      <path class="cls-5" d="m164.2,59.8c-2.1-.1-3.8-.7-5.2-1.8,1.3,1.1,3.1,1.7,5.2,1.8Z"/>
      <path class="cls-5" d="m139.7,62.4c-.1.1-.2.2-.3.3.1-.1.2-.2.3-.3h0Z"/>
      <path class="cls-5" d="m165.4,37.6c0-.3,0-.7,0-1,0,.3,0,.7,0,1Z"/>
      <path class="cls-5" d="m174.3,42.5c.3-.2.6-.3,1-.5,1.3-.8,2.5-1.7,3.8-2.6-1.2.9-2.5,1.8-3.8,2.6-.3.2-.6.4-1,.5Z"/>
      <path class="cls-5" d="m156.6,64.1h0c0,.3,0,.5,0,.8,0-.3,0-.6,0-.8Z"/>
      <path class="cls-5" d="m156.2,61.7c-.7-1.6-2.2-2.4-4.5-2.3h0c2.3,0,3.8.7,4.5,2.3Z"/>
      <path class="cls-5" d="m255.9,72.3c.1-.1.3-.3.4-.4,0,.2-.2.3-.4.4h0Z"/>
      <path class="cls-5" d="m179,39.4c3.7-2.7,7.2-5.7,10.3-9.1.5-.6.9-1.1,1.1-1.8-.2.6-.6,1.2-1.1,1.8-3.1,3.4-6.6,6.4-10.3,9.1Z"/>
      <path class="cls-5" d="m190.1,21.7c-.9-2.6-2.9-4.1-5.3-3.6,2.4-.5,4.4.9,5.3,3.6Z"/>
      <path class="cls-5" d="m181.4,19.7c-4.3,2.4-8.4,5.4-11.7,9.2,3.3-3.8,7.3-6.7,11.7-9.2Z"/>
      <path class="cls-5" d="m156.6,64.9c0,.5-.2,1-.4,1.5.2-.5.3-1,.4-1.5Z"/>
      <path class="cls-5" d="m189.9,162.2c1.9-1.7,3.8-3.4,5.7-5.1,3.3-3.1,6.6-6.2,9.8-9.3-3.2,3.2-6.4,6.3-9.8,9.3-1.9,1.7-3.8,3.4-5.7,5.1Z"/>
      <path class="cls-5" d="m150.5,34.7c1.2-1.5,2.5-2.9,3.8-4.3-1.3,1.3-2.6,2.8-3.8,4.3Z"/>
      <path class="cls-5" d="m197.7,14.1c3.2,0,6.4.2,9.5.7-3.1-.5-6.3-.7-9.5-.7Z"/>
      <path class="cls-5" d="m139.6,62.4h0c.3-1.7.6-3.3.9-5-.3,1.7-.6,3.3-.9,5Z"/>
      <path class="cls-5" d="m140.6,57c.4-2.1.8-4.2,1.3-6.2-.5,2-.9,4.1-1.3,6.2Z"/>
      <path class="cls-5" d="m138.7,63.4c-.2.2-.4.4-.6.6.2-.2.4-.4.6-.6h0Z"/>
      <path class="cls-5" d="m242.9,34.4c1.1,1.2,2.2,2.5,3.2,3.8-1-1.3-2.1-2.6-3.2-3.8Z"/>
      <path class="cls-5" d="m141.9,50.8c.3-1.3.7-2.5,1.2-3.8-.5,1.3-.8,2.5-1.2,3.8Z"/>
      <path class="cls-5" d="m134.3,198.8c0,0,.1,0,.2,0,0,0-.1,0-.2,0h0Z"/>
      <polygon class="cls-5" points="137.7 64.4 137.7 64.4 137.7 64.4 137.7 64.4"/>
      <path class="cls-5" d="m144.6,196.6c1-.5,2-1.2,3-1.8,14.8-10,28.9-20.8,42.3-32.6-13.4,11.8-27.5,22.6-42.3,32.6-1,.7-2,1.3-3,1.8Z"/>
      <path class="cls-5" d="m142.8,197.5c-.8.4-1.6.7-2.4.9.8-.2,1.6-.5,2.4-.9Z"/>
      <path class="cls-5" d="m256.6,71c0,0,0,.1,0,.2,0,0,0-.1,0-.2Z"/>
      <path class="cls-5" d="m139.3,198.7c-.8.2-1.6.3-2.4.3.8,0,1.6-.1,2.4-.3Z"/>
      <path class="cls-5" d="m249.6,43.6c1,1.9,2,3.8,2.8,5.8-.8-2-1.7-3.9-2.8-5.8Z"/>
      <path class="cls-5" d="m243.5,103.5c-4.3,5.8-8.8,11.4-13.3,17,4.6-5.5,9-11.2,13.3-17,.4-.6.8-1.1,1.3-1.5-.5.4-.9.9-1.3,1.5Z"/>
      <path class="cls-4" d="m145.5,211.9c16.9-10.7,32.2-23.5,46.9-36.9,12.8-11.7,24.1-25,34.2-39.1,7.7-10.8,15.3-21.8,20-34.4-.8,0-1.3.2-1.8.6-.5.4-.9.9-1.3,1.5-4.3,5.8-8.8,11.4-13.3,17-5,6-10.1,11.9-15.4,17.6-3.1,3.3-6.2,6.5-9.4,9.7-3.2,3.2-6.4,6.3-9.8,9.3-1.9,1.7-3.8,3.4-5.7,5.1-13.4,11.8-27.5,22.6-42.3,32.6-1,.7-2,1.3-3,1.8-.6.3-1.1.6-1.7.9-.8.4-1.6.7-2.4.9s-.8.2-1.2.3c-.8.2-1.6.3-2.4.3-.8,0-1.6,0-2.4-.2,0,0-.1,0-.2,0v16.7c3.7,0,7.4-1.2,11.2-3.6Z"/>
      <path class="cls-1" d="m137.7,64.4s0,0,0,0c0,0,0,0,0,0,0,0,0,0,0,0h0s0,0,0,0h0c-1.3-.3-2.4-.5-3.4-.8v3.5c1.3-.5,2.4-1.4,3.4-2.7Z"/>
      <polygon class="cls-1" points="137.7 64.4 137.7 64.4 137.7 64.4 137.7 64.4"/>
      <path class="cls-1" d="m137.7,64.4s0,0,0,0h0s0,0,0,0Z"/>
      <polygon class="cls-1" points="137.7 64.4 137.7 64.4 137.7 64.4 137.7 64.4"/>
      <path class="cls-2" d="m137.7,64.4h0s0,0,0,0c-.9,1.3-2.1,2.2-3.4,2.7v131.6c0,0,.1,0,.2,0,.8.1,1.6.2,2.4.2.8,0,1.6-.1,2.4-.3.4,0,.8-.2,1.2-.3.8-.2,1.6-.5,2.4-.9.6-.3,1.1-.6,1.7-.9,1-.5,2-1.2,3-1.8,14.8-10,28.9-20.8,42.3-32.6,1.9-1.7,3.8-3.4,5.7-5.1,3.3-3.1,6.6-6.2,9.8-9.3,3.2-3.2,6.4-6.4,9.4-9.7,5.3-5.7,10.4-11.6,15.4-17.6,4.6-5.5,9-11.2,13.3-17,.4-.6.8-1.1,1.3-1.5.5-.4,1-.6,1.8-.6,1.5-2.9,2.9-5.8,4.2-8.7.8-1.8,1.5-3.5,2.1-5.4,1-3,1.9-6.1,2.4-9.3.3-1.9.5-3.8.6-5.8h0c-2.3-20-20.3-39.4-41.7-44.7-1.4-.4-2.9-.8-4.4-1-6.4-.9-6.2-.9-7.3,5.5-1.2,6.9-6.3,11.1-11.4,15.1-5.2,4.1-11,7.4-17,10.4-.7.4-1.5.6-2.3.9-2.1.7-4.1,1.2-5.8,1.3-.6,0-1.1,0-1.7,0,0,0-.1,0-.2,0-2.1-.1-3.8-.7-5.2-1.8-2.8-2.2-3.9-6.4-3.1-12.3-.2-.2-.5-.4-.7-.6-5.8,3.2-8.6,9-12.3,14-.9,1.2-1.1,3.3-3.2,3.3-.1.1-.2.2-.3.3-.2.2-.4.4-.7.7h0c-.2.2-.4.4-.6.6-.1.1-.3.3-.4.4,0,0,0,0,0,0Zm6.2,3.5c.9-3.8,4.9-8.4,7.8-8.5h0c2.3,0,3.8.7,4.5,2.3.2.4.3.8.4,1.3,0,.4,0,.7,0,1.1h0c0,.3,0,.5,0,.8,0,.5-.2,1-.4,1.5-1.3,3.9-5.3,8-8.1,7.9-1.1,0-2-.3-2.7-.8-.5-.3-.8-.8-1.1-1.3-.1-.3-.2-.5-.3-.8-.2-.6-.3-1.2-.3-1.9,0-.5,0-1,.2-1.6Z"/>
      <path class="cls-2" d="m246.6,101.4h0c1.5-2.9,2.9-5.8,4.2-8.7-1.3,2.9-2.7,5.8-4.2,8.7,0,0,0,0,0,0Z"/>
      <path class="cls-2" d="m252.9,87.3c-.6,1.8-1.3,3.6-2.1,5.4.8-1.8,1.5-3.5,2.1-5.4Z"/>
      <path class="cls-2" d="m139.3,62.8c-.2.2-.4.4-.6.6,0,0,0,0,0,0h0c.2-.2.4-.4.7-.6Z"/>
      <path class="cls-2" d="m138.1,64c-.1.1-.3.3-.4.4,0,0,0,0,0,0,0,0,0,0,0,0,.1-.1.3-.3.4-.4Z"/>
      <path class="cls-2" d="m255.3,78.1c.3-1.9.5-3.8.6-5.8h0c0,2-.3,3.9-.6,5.8Z"/>
      <path class="cls-2" d="m205.4,147.7c3.2-3.2,6.4-6.4,9.4-9.7-3.1,3.3-6.2,6.5-9.4,9.7Z"/>
      <path class="cls-2" d="m244.8,102c.5-.4,1-.6,1.8-.6,0,0,0,0,0,0-.8,0-1.3.2-1.8.6Z"/>
      <path class="cls-2" d="m144.6,196.6c-.6.3-1.1.6-1.7.9.6-.3,1.1-.6,1.7-.9Z"/>
      <path class="cls-2" d="m136.9,199c-.8,0-1.6,0-2.4-.2.8.1,1.6.2,2.4.2Z"/>
      <path class="cls-2" d="m230.2,120.5c-5,6-10.1,11.9-15.4,17.6,5.3-5.7,10.4-11.6,15.4-17.6Z"/>
      <path class="cls-2" d="m137.7,64.4c-.9,1.3-2.1,2.2-3.4,2.7h0c1.3-.5,2.4-1.4,3.4-2.7Z"/>
      <polygon class="cls-2" points="137.7 64.4 137.7 64.4 137.7 64.4 137.7 64.4 137.7 64.4 137.7 64.4"/>
      <path class="cls-2" d="m137.7,64.4s0,0,0,0c0,0,0,0,0,0,0,0,0,0,0,0Z"/>
      <path class="cls-2" d="m137.7,64.4h0s0,0,0,0c0,0,0,0,0,0,0,0,0,0,0,0h0Z"/>
      <path class="cls-1" d="m144,71.4c0,.3.2.6.3.8.3.5.6.9,1.1,1.3.7.5,1.6.8,2.7.8,2.9.1,6.9-4,8.1-7.9.2-.5.3-1,.4-1.5,0-.3,0-.6,0-.8,0-.4,0-.8,0-1.1,0-.5-.2-.9-.4-1.3-.7-1.6-2.2-2.4-4.5-2.3-2.8.1-6.8,4.7-7.8,8.5-.1.5-.2,1.1-.2,1.6,0,.7.1,1.4.3,1.9Z"/>
      <path class="cls-1" d="m151.6,59.4h0c-2.8.1-6.8,4.7-7.8,8.5.9-3.8,4.9-8.4,7.8-8.5Z"/>
      <path class="cls-1" d="m156.6,64.1c0-.4,0-.8,0-1.1,0,.4,0,.7,0,1.1h0Z"/>
      <path class="cls-1" d="m143.6,69.5c0-.5,0-1,.2-1.6-.1.5-.2,1.1-.2,1.6,0,.7.1,1.4.3,1.9-.2-.6-.3-1.2-.3-1.9Z"/>
      <path class="cls-1" d="m148.1,74.3c-1.1,0-2-.3-2.7-.8.7.5,1.6.8,2.7.8,2.9.1,6.9-4,8.1-7.9-1.3,3.9-5.3,8-8.1,7.9Z"/>
      <path class="cls-1" d="m144.3,72.2c.3.5.6.9,1.1,1.3-.5-.3-.8-.8-1.1-1.3Z"/>
      <path class="cls-1" d="m156.2,61.7c.2.4.3.8.4,1.3,0-.5-.2-.9-.4-1.3Z"/>
      <path class="cls-8" d="m166.1,39.6c.3.6.8,1.2,1.4,1.8.2.2.5.4.7.6,1.6,1.2,3.4,1.4,5.1.9.3,0,.7-.2,1-.4s.6-.3,1-.5c1.3-.8,2.5-1.7,3.8-2.6,3.7-2.7,7.2-5.7,10.3-9.1.5-.6.9-1.1,1.1-1.8.1-.4.2-.8.3-1.2,0-.2,0-.4,0-.6s0-.4,0-.6c0-.2,0-.4,0-.6,0-.4,0-.7,0-1,0-.7-.2-1.3-.3-1.9,0-.3-.2-.6-.2-.8-.9-2.6-2.9-4.1-5.3-3.6-.5.1-1.1.3-1.7.6-.6.3-1.2.6-1.8,1-4.3,2.4-8.4,5.4-11.7,9.2-1.3,1.5-2.4,3-3.4,4.7-.2.3-.4.7-.5,1-.1.3-.2.7-.3,1,0,.3-.1.7-.1,1,0,.3,0,.7,0,1,0,.7.3,1.3.7,2Z"/>
      <path class="cls-1" d="m139.7,62.4h0s0,0,0,0c2.1,0,2.3-2.1,3.2-3.3,3.8-5,6.6-10.8,12.3-14,.2.2.5.4.7.6h0s0,0,0,0c-.8,5.9.3,10.1,3.1,12.3,1.3,1.1,3.1,1.7,5.2,1.8,0,0,.1,0,.2,0,.5,0,1.1,0,1.7,0,1.8-.1,3.7-.5,5.8-1.3.8-.3,1.6-.5,2.3-.9,6-2.9,11.8-6.2,17-10.4,5.1-4,10.2-8.3,11.4-15.1,1.1-6.4.9-6.4,7.3-5.5,1.5.2,2.9.6,4.4,1,21.4,5.3,39.4,24.7,41.7,44.7.1-.1.3-.3.4-.4.1-.2.2-.4.3-.6,0,0,0-.1,0-.2.1-.7,0-1.4,0-2.1-.2-3.6-.6-7-1.3-10.3-.7-3.3-1.7-6.4-2.9-9.4-.8-2-1.7-3.9-2.8-5.8-1-1.9-2.2-3.6-3.5-5.4-1-1.3-2.1-2.6-3.2-3.8-3.3-3.6-7.1-7-11.6-10-2.9-1.9-5.8-3.6-8.8-4.9-2-.9-4-1.7-6-2.4-3.1-1-6.2-1.7-9.3-2.2-3.1-.5-6.3-.7-9.5-.7-2.1,0-4.3,0-6.4.3-1.1,0-2.2.2-3.2.4-2.2.3-4.3.7-6.5,1.1-10.7,2.3-19.8,7.1-27.2,14.5-1.3,1.3-2.6,2.8-3.8,4.3-1.8,2.3-3.5,4.7-5.1,7.4-.9,1.6-1.7,3.3-2.3,4.9-.5,1.3-.8,2.5-1.2,3.8-.5,2-.9,4.1-1.3,6.2,0,.2,0,.3,0,.5-.3,1.7-.6,3.3-.9,5,0,0,0,0,0,0,0,0,0,0,0,0Zm25.8-26.8c0-.3.2-.7.3-1,.1-.3.3-.7.5-1,1-1.7,2.2-3.3,3.4-4.7,3.3-3.8,7.3-6.7,11.7-9.2.6-.3,1.2-.7,1.8-1,.6-.3,1.2-.5,1.7-.6,2.4-.5,4.4.9,5.3,3.6,0,.3.2.5.2.8.1.6.2,1.2.3,1.9,0,.3,0,.7,0,1,0,.2,0,.4,0,.6,0,.2,0,.4,0,.6,0,.2,0,.4,0,.6,0,.4-.1.8-.3,1.2-.2.6-.6,1.2-1.1,1.8-3.1,3.4-6.6,6.4-10.3,9.1-1.2.9-2.5,1.8-3.8,2.6-.3.2-.6.4-1,.5s-.7.3-1,.4c-1.7.5-3.5.2-5.1-.9-.2-.2-.5-.4-.7-.6-.6-.5-1-1.1-1.4-1.8-.3-.6-.6-1.3-.7-2,0-.3,0-.7,0-1,0-.3,0-.7.1-1Z"/>
      <path class="cls-1" d="m256.5,71.2c0,.2-.1.4-.3.6.1-.2.2-.4.3-.6Z"/>
      <path class="cls-1" d="m256.6,71c.1-.7,0-1.4,0-2.1-.2-3.6-.6-7-1.3-10.3.7,3.3,1.1,6.7,1.3,10.3,0,.7.2,1.4,0,2.1Z"/>
      <path class="cls-1" d="m188,14.8c-2.2.3-4.3.7-6.5,1.1-10.7,2.3-19.8,7.1-27.2,14.5,7.4-7.4,16.5-12.2,27.2-14.5,2.2-.5,4.4-.9,6.5-1.1Z"/>
      <path class="cls-1" d="m242.9,34.4c-3.3-3.6-7.1-7-11.6-10-2.9-1.9-5.8-3.6-8.8-4.9,3,1.4,5.9,3,8.8,4.9,4.5,3,8.3,6.3,11.6,10Z"/>
      <polygon class="cls-1" points="139.7 62.4 139.6 62.4 139.6 62.4 139.7 62.4 139.7 62.4"/>
      <path class="cls-1" d="m140.5,57.4c0-.2,0-.3,0-.5,0,.2,0,.3,0,.5Z"/>
      <polygon class="cls-1" points="139.6 62.4 139.7 62.4 139.7 62.4 139.6 62.4"/>
      <path class="cls-1" d="m191.2,14.4c2.2-.2,4.3-.3,6.4-.3-2.1,0-4.3,0-6.4.3Z"/>
      <path class="cls-1" d="m216.4,17.1c2,.7,4.1,1.5,6,2.4-2-.9-4-1.7-6-2.4Z"/>
      <path class="cls-1" d="m155.9,45.7s0,0,0,0c-.8,5.9.3,10.1,3.1,12.3-2.8-2.2-3.9-6.4-3.1-12.3Z"/>
      <path class="cls-1" d="m139.7,62.4s0,0,0,0h0s0,0,0,0h0c2.2,0,2.3-2.1,3.2-3.3-.9,1.2-1.1,3.3-3.2,3.3Z"/>
      <path class="cls-1" d="m164.3,59.8c0,0-.1,0-.2,0,0,0,.1,0,.2,0Z"/>
      <path class="cls-1" d="m139.7,62.4h0s0,0,0,0c0,0,0,0,0,0Z"/>
      <path class="cls-1" d="m184.8,18.1c-.5.1-1.1.3-1.7.6-.6.3-1.2.6-1.8,1,.6-.3,1.2-.7,1.8-1,.6-.3,1.2-.5,1.7-.6Z"/>
      <path class="cls-1" d="m166.1,39.6c.3.6.8,1.2,1.4,1.8.2.2.5.4.7.6-.2-.2-.5-.4-.7-.6-.6-.5-1-1.1-1.4-1.8Z"/>
      <path class="cls-1" d="m169.7,28.9c-1.3,1.5-2.4,3-3.4,4.7-.2.3-.4.7-.5,1,.1-.3.3-.7.5-1,1-1.7,2.2-3.3,3.4-4.7Z"/>
      <path class="cls-1" d="m165.4,36.6c0-.3,0-.7.1-1,0,.3-.1.7-.1,1Z"/>
      <path class="cls-1" d="m190.4,22.5c.1.6.2,1.2.3,1.9,0-.7-.2-1.3-.3-1.9Z"/>
      <path class="cls-1" d="m190.8,26.7c0,.2,0,.4,0,.6,0-.2,0-.4,0-.6Z"/>
      <path class="cls-2" d="m130.7,67.4c0,0-.1,0-.2,0,0,0,.1,0,.2,0Z"/>
      <path class="cls-2" d="m113.5,42.7c-1.3-1.6-2.7-3.2-4.2-4.6,1.5,1.4,2.9,3,4.2,4.6Z"/>
      <path class="cls-2" d="m28.7,58.9c-.4-.2-.9-.4-1.4-.7.5.3.9.5,1.4.7Z"/>
      <path class="cls-2" d="m131.4,67.5c0,0-.1,0-.2,0,0,0,.1,0,.2,0Z"/>
      <path class="cls-2" d="m132.1,67.5s0,0,0,0c0,0,0,0,0,0Z"/>
      <path class="cls-2" d="m109.2,38c-3-2.9-6.3-5.4-10-7.4,3.7,2.1,7,4.6,10,7.4Z"/>
      <path class="cls-2" d="m31.3,59.4c-.4,0-.9,0-1.3-.1.4,0,.9.1,1.3.1Z"/>
      <path class="cls-2" d="m129.3,66.9c0,0-.2,0-.3-.1,0,0,.2,0,.3.1Z"/>
      <path class="cls-2" d="m132.8,67.5s0,0,0,0c0,0,0,0,0,0Z"/>
      <path class="cls-2" d="m52.2,47.3c-.3.3-.6.5-1,.8.3-.3.6-.5,1-.8Z"/>
      <path class="cls-2" d="m128.7,66.6c0,0-.2-.1-.3-.2,0,0,.2.1.3.2Z"/>
      <path class="cls-2" d="m128,66.1s0,0-.1-.1c0,0,0,0,.1.1Z"/>
      <path class="cls-2" d="m130,67.2c0,0-.2,0-.2,0,0,0,.2,0,.2,0Z"/>
      <path class="cls-2" d="m127.5,195.7c-.5-.3-1-.5-1.6-.7.5.2,1.1.5,1.6.7Z"/>
      <path class="cls-2" d="m14.4,66.4c-.3-.5-.7-.9-1.4-1,0-.3,0-.7,0-1,0,.3,0,.7,0,1,.7.1,1.1.5,1.4,1Z"/>
      <path class="cls-2" d="m126,194.9c-.5-.2-1.1-.4-1.6-.6.6.2,1.1.4,1.6.6Z"/>
      <path class="cls-2" d="m14,59.5h0c1.8-1.9,3.1-4.1,4.8-6.4-1.6,2.3-3,4.5-4.8,6.4Z"/>
      <path class="cls-2" d="m124.3,194.3c-.8-.3-1.7-.6-2.4-1,.8.4,1.6.7,2.4,1Z"/>
      <path class="cls-2" d="m117.4,191c-7.4-3.9-14.4-8.2-21.2-12.9,6.8,4.7,13.8,9,21.2,12.9Z"/>
      <path class="cls-2" d="m58.7,144.8c.2.2.3.3.4.5,0,0,.2.2.3.3,0,0-.2-.2-.3-.3-.2-.2-.3-.3-.4-.5Z"/>
      <path class="cls-2" d="m14.6,66.7c0,.2.2.5.2.7,3.1,11.1,7.2,21.6,12.2,31.7-5-10-9.1-20.5-12.2-31.7,0-.3-.2-.5-.2-.7Z"/>
      <path class="cls-2" d="m128.2,196.1c-.2-.2-.5-.3-.7-.5.2.1.5.3.7.5,2.1,1.5,4.1,2.3,6.1,2.7h0c-2-.4-4-1.2-6.1-2.7Z"/>
      <path class="cls-2" d="m48.1,132.2c-2.3-3-4.6-6-6.7-9.1,2.1,3.1,4.4,6.1,6.7,9.1Z"/>
      <path class="cls-2" d="m52.2,137.3c-1.4-1.7-2.8-3.4-4.1-5.1,1.3,1.7,2.7,3.4,4.1,5.1Z"/>
      <path class="cls-2" d="m55.3,44.6c-.4.4-.9.8-1.4,1.2.5-.4.9-.8,1.4-1.2Z"/>
      <path class="cls-2" d="m24,47c-.3,1.3-.5,2.6-.5,3.7,0-1.1.2-2.3.5-3.7h0Z"/>
      <path class="cls-2" d="m25,56.2c.3.4.6.7,1,1-.4-.3-.7-.7-1-1Z"/>
      <path class="cls-2" d="m23.5,77.3h0c-.8,0-1.5-.2-2.2-.4.6.2,1.4.4,2.2.4Z"/>
      <path class="cls-2" d="m27.7,75c0,.1-.1.2-.2.4,0-.1.1-.2.2-.4Z"/>
      <path class="cls-2" d="m23.5,51.5c0-.3,0-.5,0-.8,0,.3,0,.6,0,.8Z"/>
      <path class="cls-2" d="m25,56.2c-.3-.4-.5-.8-.7-1.2.2.4.5.8.7,1.2Z"/>
      <path class="cls-2" d="m28.4,73c.2-.7.3-1.5.4-2.3,0-.4,0-.8,0-1.2,0,.4,0,.8,0,1.2,0,.8-.2,1.5-.4,2.3Z"/>
      <path class="cls-2" d="m62.5,26c1.6,8.6-2.1,14-7.2,18.6,5-4.6,8.8-10,7.2-18.6,0-.4,0-.7,0-.9,0,.2-.1.5,0,.9Z"/>
      <path class="cls-2" d="m28.8,69.5c-.1-1.6-.8-2.8-1.8-3.6,1.1.8,1.7,2,1.8,3.6Z"/>
      <path class="cls-2" d="m28.3,73.3c0,.3-.1.5-.2.8,0-.3.2-.5.2-.8Z"/>
      <path class="cls-2" d="m23.9,65h0c.5,0,1,0,1.4.2-.5-.1-.9-.2-1.4-.2Z"/>
      <path class="cls-2" d="m23.8,53.7c-.1-.5-.2-.9-.3-1.5,0,.5.1,1,.3,1.5Z"/>
      <path class="cls-2" d="m24.3,55.1c-.2-.4-.4-.9-.5-1.3.1.5.3.9.5,1.3Z"/>
      <path d="m268.4,57.6c-3.8-22.5-17-38.6-37.2-49.2C217.9,1.4,203.8,0,189.1.5c-10.8.4-20.6,3.9-29.7,9-10.3,5.8-18.8,13.8-24.9,24,0,0-.1-.2-.2-.3-4.8-8.2-11-14.8-18.4-20.1C97.4.2,76.6-2.5,55.3,2c-16.3,3.5-30.6,11.8-41.1,25.5C5.2,39.4-.2,52.5,0,67.3c0,7.8,2,15.7,4.4,23.2,9.2,28.9,26.4,53.1,46.5,75.1,11.1,12.2,23.2,23.5,35.8,34.3,10.3,8.8,21.1,16.7,32.8,23.6,4.9,2.9,9.8,4.4,14.8,4.5,4.4,0,8.9-1.1,13.6-3.5,18.9-9.9,34.5-24,50-38.2,12.4-11.4,24-23.5,34.3-36.9,12.9-16.9,24.3-34.6,31.4-54.8,4.2-11.9,7-24.5,4.9-37Zm-11.8,13.4c0,0,0,.1,0,.2,0,.2-.1.4-.3.6,0,.2-.2.3-.4.4,0,2-.3,3.9-.6,5.8-.5,3.2-1.4,6.3-2.4,9.3-.6,1.8-1.3,3.6-2.1,5.4-1.3,2.9-2.7,5.8-4.2,8.7h0c-4.7,12.6-12.3,23.6-20,34.4-10.1,14.2-21.4,27.4-34.2,39.1-14.7,13.4-29.9,26.3-46.9,36.9-3.8,2.4-7.5,3.7-11.2,3.6-3.2,0-6.4-1.1-9.8-3.2-14.2-8.9-27.1-19.3-39.6-30.3-9.7-8.5-19-17.6-27.3-27.4-19.7-23.2-36.7-48.1-44.1-78.3-.9-3.6-.7-7.2-.3-10.9,0-.3,0-.7,0-1,0-.6,0-1.3,0-1.9.2-.3.3-.5.5-.8,0-.1.2-.3.2-.4,0-.6.1-1.2.2-1.8h0s0,0,0,0c.8-6.5,3.1-12.3,6.4-17.6.6-.9,1.2-1.8,1.8-2.6.6-.9,1.3-1.7,2-2.5,9.8-11.9,22.6-20.1,37.7-21.9,26.9-3.2,52,4.9,65,33.7.6,1.4.9,2.7,1,4.2.3,7.5,1.1,9.5,6.5,10.9,1,.3,2.1.5,3.4.7,0,0,0,0,0,0,0,0,0,0,0,0,.1-.1.3-.3.4-.4.2-.2.4-.4.6-.6h0s0,0,0,0c.2-.2.4-.4.6-.6.1-.1.2-.2.3-.3,0,0,0,0,0,0,.3-1.7.6-3.3.9-5,0-.2,0-.3,0-.5.4-2.1.8-4.2,1.3-6.2.3-1.3.7-2.5,1.2-3.8.6-1.7,1.4-3.3,2.3-4.9,1.5-2.7,3.2-5.1,5.1-7.4,1.2-1.5,2.5-2.9,3.8-4.3,7.4-7.4,16.5-12.2,27.2-14.5,2.2-.5,4.4-.9,6.5-1.1,1.1-.1,2.2-.3,3.2-.4,2.2-.2,4.3-.3,6.4-.3,3.2,0,6.4.2,9.5.7s6.2,1.2,9.3,2.2c2,.7,4.1,1.5,6,2.4,3,1.4,5.9,3,8.8,4.9,4.5,3,8.3,6.3,11.6,10,1.1,1.2,2.2,2.5,3.2,3.8,1.3,1.7,2.5,3.5,3.5,5.4,1,1.9,2,3.8,2.8,5.8,1.2,3,2.2,6.1,2.9,9.4.7,3.3,1.1,6.7,1.3,10.3,0,.7.2,1.4,0,2.1Z"/>
      <path class="cls-3" d="m128.2,196.1c-.2-.2-.5-.3-.7-.5-.5-.3-1-.5-1.6-.7s-1.1-.4-1.6-.6c-.8-.3-1.7-.6-2.4-1-1.5-.8-3-1.5-4.4-2.3-7.4-3.9-14.4-8.2-21.2-12.9-5.4-3.7-10.6-7.7-15.7-12-7.5-6.3-14.5-13.1-21.2-20.5,0,0-.2-.2-.3-.3-.2-.2-.3-.3-.4-.5-2.2-2.5-4.3-4.9-6.4-7.5-1.4-1.7-2.8-3.4-4.1-5.1-2.3-3-4.6-6-6.7-9.1-5.4-7.7-10.2-15.7-14.3-24-5-10-9.1-20.5-12.2-31.7,0-.3-.2-.5-.2-.7,0-.1,0-.2-.2-.3-.3-.5-.7-.9-1.4-1-.4,3.6-.6,7.3.3,10.9,7.4,30.2,24.4,55,44.1,78.3,8.4,9.9,17.6,18.9,27.3,27.4,12.5,11,25.4,21.4,39.6,30.3,3.4,2.1,6.6,3.2,9.8,3.2v-16.7c-2-.4-4-1.2-6.1-2.7Z"/>
      <path class="cls-6" d="m24,47h0c-.3,1.3-.5,2.6-.5,3.7,0,.3,0,.6,0,.8s0,.5,0,.8c0,.5.1,1,.3,1.5.1.5.3.9.5,1.3.2.4.5.8.7,1.2s.6.7,1,1c.4.3.8.6,1.3.9.5.3.9.5,1.4.7.4.2.9.3,1.3.4s.9.1,1.3.1c.6,0,1.3,0,1.9-.3,1.5-.4,2.9-1.1,4.4-1.9.4-.2.8-.5,1.2-.7.8-.4,1.6-.9,2.4-1.3.8-.4,1.6-.9,2.4-1.4,1.2-.7,2.3-1.5,3.3-2.3,1.4-1.2,2.8-2.3,4.3-3.4.3-.3.6-.5,1-.8.6-.5,1.2-1,1.8-1.5.5-.4.9-.8,1.4-1.2,5-4.6,8.8-10,7.2-18.6,0-.4,0-.7,0-.9,0-.1.1-.2.2-.3.2-.1.4-.2.6-.3.3,0,.7,0,1.1,0,6.5.2,13-.9,19.4.4,1.1.2,2.3.5,3.4.8s2.2.6,3.2,1c2.1.7,4.1,1.5,6,2.4,1,.5,1.9.9,2.8,1.5,3.7,2.1,7,4.6,10,7.4,1.5,1.4,2.9,3,4.2,4.6,1.3,1.6,2.6,3.4,3.8,5.2,1.8,2.7,3.4,5.7,4.8,8.8.7,1.6,1.4,3.2,2.2,4.7.2.4.4.8.6,1.1.7,1.1,1.5,2.2,2.5,3.1.2.1.3.3.5.4,0,0,0,0,.1.1.1,0,.3.2.4.3,0,0,.2.1.3.2.1,0,.3.1.4.2,0,0,.2,0,.3.1.2,0,.3.1.5.2,0,0,.2,0,.2,0,.2,0,.3.1.5.1,0,0,.1,0,.2,0,.2,0,.4,0,.5,0,0,0,.1,0,.2,0,.2,0,.4,0,.6,0,0,0,0,0,0,0,.2,0,.4,0,.7,0,0,0,0,0,0,0,.5,0,1-.2,1.5-.4v-3.5c-5.4-1.4-6.2-3.4-6.5-10.9,0-1.5-.3-2.8-1-4.2C113.8,19.8,88.7,11.7,61.8,14.8c-15.1,1.8-27.9,10-37.7,21.9-.7.8-1.3,1.7-2,2.5-.6.9-1.2,1.7-1.8,2.6-3.4,5.3-5.7,11.1-6.4,17.6,1.8-1.9,3.1-4.1,4.8-6.4,1.4-2.1,3.1-4.1,5.3-6.1Zm10.4-11.3c2.3-5.1,6.8-8.2,11.8-10.1,4-1.6,6.6,1.1,6.6,5.9,0,5.4-7.1,12.7-12.4,13-4.9.3-8-4.2-5.9-8.8Z"/>
      <path class="cls-2" d="m20.4,41.9c.6-.9,1.2-1.8,1.8-2.6-.6.9-1.2,1.7-1.8,2.6Z"/>
      <path class="cls-2" d="m13.7,61.3c0,.1-.2.3-.2.4-.2.3-.3.5-.5.8,0,.6,0,1.3,0,1.9,0-.6,0-1.3,0-1.9.2-.4.5-.8.7-1.2Z"/>
      <path class="cls-2" d="m14,59.5s0,0,0,0h0c0,.6-.1,1.2-.2,1.8,0,.1-.2.3-.2.4,0-.1.2-.3.2-.4,0-.6.1-1.2.2-1.8Z"/>
      <path class="cls-7" d="m132.8,67.5s0,0,0,0c-.2,0-.4,0-.7,0,0,0,0,0,0,0-.2,0-.4,0-.6,0,0,0-.1,0-.2,0-.2,0-.4,0-.5,0,0,0-.1,0-.2,0-.2,0-.3,0-.5-.1,0,0-.2,0-.2,0-.2,0-.3-.1-.5-.2,0,0-.2,0-.3-.1-.1,0-.3-.1-.4-.2,0,0-.2-.1-.3-.2-.1,0-.3-.2-.4-.3,0,0,0,0-.1-.1-.2-.1-.3-.3-.5-.4-1-.9-1.8-1.9-2.5-3.1-.2-.4-.4-.7-.6-1.1-.8-1.5-1.4-3.2-2.2-4.7-1.4-3.1-3-6.1-4.8-8.8-1.2-1.8-2.4-3.6-3.8-5.2-1.3-1.6-2.7-3.2-4.2-4.6-3-2.9-6.3-5.4-10-7.4-.9-.5-1.9-1-2.8-1.5-1.9-.9-3.9-1.7-6-2.4-1.1-.3-2.1-.7-3.2-1s-2.2-.6-3.4-.8c-6.4-1.3-12.9-.2-19.4-.4-.3,0-.7,0-1.1,0-.2,0-.4.1-.6.3,0,0-.1.2-.2.3,0,.2-.1.5,0,.9,1.6,8.6-2.1,14-7.2,18.6-.4.4-.9.8-1.4,1.2-.6.5-1.2,1-1.8,1.5-.3.3-.6.5-1,.8-1.4,1.1-2.9,2.3-4.3,3.4-1,.9-2.2,1.6-3.3,2.3-.8.5-1.6.9-2.4,1.4-.8.4-1.6.9-2.4,1.3-.4.2-.8.5-1.2.7-1.4.8-2.9,1.6-4.4,1.9-.6.2-1.3.2-1.9.3-.4,0-.9,0-1.3-.1s-.9-.2-1.3-.4c-.4-.2-.9-.4-1.4-.7-.5-.3-.9-.6-1.3-.9-.4-.3-.7-.7-1-1s-.5-.8-.7-1.2-.4-.9-.5-1.3-.2-.9-.3-1.5c0-.3,0-.5,0-.8s0-.5,0-.8c0-1.1.2-2.3.5-3.7-2.3,1.9-3.9,4-5.3,6.1-1.6,2.3-3,4.5-4.8,6.4,0,0,0,0,0,0,0,.6-.1,1.2-.2,1.8-.2.4-.5.8-.7,1.2,0,.6,0,1.3,0,1.9,0,.3,0,.7,0,1,.7.1,1.1.5,1.4,1,0,.1.1.2.2.3,0,.2.2.5.2.7,3.1,11.1,7.2,21.6,12.2,31.7,4.2,8.3,9,16.3,14.3,24,2.1,3.1,4.4,6.1,6.7,9.1,1.3,1.7,2.7,3.4,4.1,5.1,2.1,2.5,4.2,5,6.4,7.5.2.2.3.3.4.5,0,0,.2.2.3.3,6.7,7.4,13.7,14.2,21.2,20.5,5,4.2,10.3,8.2,15.7,12,6.8,4.7,13.8,9,21.2,12.9,1.5.8,3,1.6,4.4,2.3.8.4,1.6.7,2.4,1,.6.2,1.1.4,1.6.6s1.1.5,1.6.7c.2.1.5.3.7.5,2.1,1.5,4.1,2.3,6.1,2.7V67.1c-.5.2-1,.3-1.5.4Zm-104.1,2c0,.4,0,.8,0,1.2,0,.8-.2,1.5-.4,2.3,0,0,0,.2,0,.3,0,.3-.1.5-.2.8-.1.3-.3.7-.4,1,0,.1-.1.2-.2.4-.7,1-1.7,1.7-3.2,1.8-.2,0-.5,0-.7,0-.8,0-1.5-.2-2.2-.4-1.1-.4-1.9-1.1-2.3-2-.1-.3-.2-.5-.2-.8,0-.4,0-.9,0-1.5,0-.3,0-.5,0-.8,0-.8.2-1.5.3-2.2,0-.5.2-.9.3-1.3.1-.4.3-.8.5-1.1.5-.8,1.1-1.5,2.1-1.8s.8-.2,1.2-.3c.2,0,.5,0,.7,0,.5,0,1,0,1.4.2.6.2,1.1.4,1.6.7,1.1.8,1.7,2,1.8,3.6,0,0,0,0,0,0Z"/>
      <path class="cls-6" d="m19,74.8c.4.9,1.2,1.6,2.3,2,.6.2,1.4.4,2.2.4.3,0,.5,0,.7,0,1.6-.1,2.6-.8,3.2-1.8,0-.1.1-.2.2-.4.2-.3.3-.6.4-1,0-.3.2-.5.2-.8,0,0,0-.2,0-.3.2-.7.3-1.5.4-2.3,0-.4,0-.8,0-1.2,0,0,0,0,0,0-.1-1.6-.8-2.8-1.8-3.6-.4-.3-1-.6-1.6-.7-.5-.1-.9-.2-1.4-.2-.3,0-.5,0-.7,0-.5,0-.9.1-1.2.3-.9.4-1.6,1-2.1,1.8-.2.3-.4.7-.5,1.1-.1.4-.2.8-.3,1.3-.1.7-.2,1.4-.3,2.2s0,.5,0,.8c-.1.5-.1,1,0,1.5,0,.3.1.6.2.8Z"/>
      <path class="cls-2" d="m28.8,69.5s0,0,0,0c0,0,0,0,0,0Z"/>
      <path class="cls-8" d="m40.4,44.5c5.3-.3,12.4-7.7,12.4-13,0-4.8-2.6-7.5-6.6-5.9-4.9,2-9.4,5-11.8,10.1-2.1,4.6,1,9.1,5.9,8.8Z"/>
    </g>
  </g>
</svg>