<?xml version="1.0" encoding="UTF-8"?>
<svg id="Layer_2" data-name="Layer 2" xmlns="http://www.w3.org/2000/svg" width="65.1" height="154.7" viewBox="0 0 65.1 154.7">
  <defs>
    <style>
      .cls-1 {
        fill: #fefefe;
      }
    </style>
  </defs>
  <g id="Middle">
    <g>
      <path class="cls-1" d="m49.5,46c-1.1,2.1-3.1,3.6-5.8,4.5-2.8.9-6.5,1.3-11.1,1.3s-8.3-.4-11.1-1.3c-2.8-.9-4.7-2.4-5.8-4.6-1.1-2.2-1.8-4.2-2-5.8-.2-1.7-.3-4.2-.3-7.6s.1-5.9.3-7.6c.2-1.7.8-3.6,1.9-5.6,2.1-4,7.8-6,17.2-6s14.8,2,16.8,6c1.2,2.2,1.9,4.2,2.1,5.8.2,1.7.3,4.2.3,7.6s-.1,5.9-.3,7.6c-.2,1.7-.9,3.6-2,5.7ZM13.2,82.5c0-3.4.1-5.9.3-7.6.2-1.7.8-3.6,1.9-5.8,2.1-3.8,7.8-5.7,17.2-5.7s12.1,1.3,15,3.7c2.5,2.1,3.8,5.2,4,9.5.1,1.5.2,3.6.2,6.4v39.3c0,3.4-.1,5.9-.3,7.6-.2,1.7-.9,3.6-2.1,5.8-1.9,3.8-7.6,5.7-17,5.7s-14.9-2-17-6c-1-2.2-1.7-4.1-1.9-5.7-.2-1.6-.3-4.2-.3-7.7v-39.5Z"/>
      <path d="m32.6,13.2c9.3,0,14.8,2,16.8,6,1.2,2.2,1.9,4.2,2.1,5.8.2,1.7.3,4.2.3,7.6s-.1,5.9-.3,7.6c-.2,1.7-.9,3.6-2,5.7-1.1,2.1-3.1,3.6-5.8,4.5-2.8.9-6.5,1.3-11.1,1.3s-8.3-.4-11.1-1.3c-2.8-.9-4.7-2.4-5.8-4.6-1.1-2.2-1.8-4.2-2-5.8-.2-1.7-.3-4.2-.3-7.6s.1-5.9.3-7.6c.2-1.7.8-3.6,1.9-5.6,2.1-4,7.8-6,17.2-6m0,50.1c7.1,0,12.1,1.3,15,3.7,2.5,2.1,3.8,5.2,4,9.5.1,1.5.2,3.6.2,6.4v39.3c0,3.4-.1,5.9-.3,7.6-.2,1.7-.9,3.6-2.1,5.8-1.9,3.8-7.6,5.7-17,5.7s-14.9-2-17-6c-1-2.2-1.7-4.1-1.9-5.7-.2-1.6-.3-4.2-.3-7.7v-39.5c0-3.4.1-5.9.3-7.6.2-1.7.8-3.6,1.9-5.8,2.1-3.8,7.8-5.7,17.2-5.7m0-63.3C17.9,0,8.2,4.4,3.7,13.1h0c0,0,0,.2,0,.2-1.7,3.4-2.7,6.7-3.2,9.8-.3,2.3-.4,5.3-.4,9.3s.1,7,.4,9.3c.4,3.2,1.5,6.5,3.3,10.1.9,1.8,2.2,3.8,4.1,5.7-1.5,1.5-2.9,3.2-4,5.3l-.2.3-.2.3c-1.6,3.5-2.6,6.7-3,9.7-.3,2.3-.4,5.3-.4,9.3v39.5c0,4.2.1,7.2.5,9.5.4,3,1.4,6.1,3,9.5v.2c.1,0,.2.2.2.2,4.5,8.7,14.2,13.1,28.7,13.1s22.1,0,28.7-12.9c1.9-3.6,3-7,3.5-10.2.3-2.3.4-5.3.4-9.3v-39.3c0-3,0-5.4-.2-7.3-.4-9.1-4.2-14.7-7.8-17.9,2-1.9,3.3-3.9,4.2-5.6,1.8-3.5,2.9-6.8,3.4-10.1.3-2.3.4-5.3.4-9.3s-.1-7-.4-9.3c-.4-3.3-1.5-6.6-3.4-10.2C56.8,4.4,47.2,0,32.6,0h0Z"/>
    </g>
  </g>
</svg>