<?xml version="1.0" encoding="UTF-8"?>
<svg id="Layer_2" data-name="Layer 2" xmlns="http://www.w3.org/2000/svg" width="165.1" height="162.3" viewBox="0 0 165.1 162.3">
  <defs>
    <style>
      .cls-1 {
        fill: #00307d;
      }

      .cls-2 {
        fill: #78b8ef;
      }

      .cls-3 {
        fill: #007ee0;
      }

      .cls-4 {
        fill: #fefefe;
      }
    </style>
  </defs>
  <g id="Middle">
    <g>
      <path class="cls-4" d="m.4,63.9c-1.4-6.5,1-14.3.8-22.2-.1-5.4,4.3-8,7.7-10.9C19.9,21.6,31.4,12.8,42.6,3.7c2-1.6,4.2-2.4,6.6-2.6C65.9-.1,82.5-.2,99.2.3c5.6.2,11.1.8,16.7.7,2.5,0,4.7,1.1,6.2,2.5,12.6,11,26.7,20.2,38.4,32.2,2.2,2.2,3.6,4.7,3.5,7.8-.5,9.4,1.2,18.8,1,28.2-.1,5.6-1.8,10.2-5.8,14.5-16.8,18.3-33.1,37-49.7,55.3-5.9,6.5-12.2,12.6-18.6,18.6-3.5,3.3-13.6,2.8-17.3-.4-15.9-13.9-29.1-30.3-43.1-46.1-6.9-7.8-14-15.3-20.9-23-2.6-2.9-5.3-5.8-7.8-8.9-1.1-1.4-1.8-2.9-1.6-4.9.3-3.8,0-7.6,0-12.8ZM84.9,7.1c-10.6,0-17.9-.2-25.1,0-4.3.2-8.8.2-12.3,3.1-10.5,8.3-20.9,16.8-31.4,25.2-5.7,4.6-9.1,9.9-8,17.8.6,4,0,8.1-.6,12.2-.7,4.6-1.1,9.6,2.8,13.8,8.1,8.7,15.7,18,23.8,26.6,14.4,15.3,27.7,31.6,43,46.1,4.4,4.2,6.9,4.3,11.1.1,7.5-7.3,14.8-14.7,21.7-22.5,12.9-14.8,26.3-29.1,39.5-43.7,5.3-5.8,10.6-11.6,8.8-20.5-1.4-6.5-.8-13.1-1.1-19.6-.1-2.7-1.5-5.3-3.7-7.1-10.6-8.8-21.2-17.6-32.1-26-2.4-1.9-4.5-4.3-8.2-4.7-10.5-1.2-21-.8-28.3-.9Z"/>
      <path d="m84.9,7.1c7.2.1,17.8-.3,28.3.9,3.7.4,5.8,2.9,8.2,4.7,10.9,8.4,21.5,17.2,32.1,26,2.2,1.8,3.5,4.4,3.7,7.1.3,6.5-.3,13.1,1.1,19.6,1.9,8.9-3.5,14.6-8.8,20.5-13.2,14.5-26.6,28.9-39.5,43.7-6.9,7.9-14.2,15.3-21.7,22.5-4.3,4.1-6.7,4.1-11.1-.1-15.3-14.5-28.5-30.8-43-46.1-8.2-8.6-15.7-17.9-23.8-26.6-3.9-4.2-3.5-9.2-2.8-13.8.6-4.1,1.2-8.2.6-12.2-1.1-7.8,2.2-13.2,8-17.8,10.5-8.4,20.9-16.9,31.4-25.2,3.6-2.8,8.1-2.9,12.3-3.1,7.3-.3,14.6,0,25.1,0Zm-41.1,24.8c-4.5,2.8-9.5,4.9-12.9,9.2-.9,1.1-3.8,1.2-1.9,3.7-3.3,1.2-5.2,3.3-5,7-.6.1-1.8-1.3-1.8,0,0,3-1.2,6.1.7,9,0,4.4.8,8.7,3,12.7-3.1.4-.9,1.6-.2,2.2,6.2,6.3,11.8,13.1,17.8,19.5,5.7,6.1,10.6,13,17.3,18.2h0c-.5.6,0,1.3.3,1.3.7,0,.6-.8.5-1.3,6.2,5.3,10.8,12,15.8,18.4,1.5,1.9,2.9,3.5,5.5,3.1.3-.2.6-.3,1-.5,2.3-.4,2-1.9,1.4-3.5,0-.3.1-.6.2-.9,7.9-3.4,13.6-9.4,19.1-15.8,7.2-7.8,14.4-15.5,21.5-23.4,5.1-5.7,10-11.5,15-17.3,1.8-4.1,1-8.5,1.3-12.8,1.3-3.4,1.5-6.7,0-10-1.3-2.6-3.8-4-5.8-5.8,2-3.6-2.2-2.7-3.1-4.2-6-4.9-11.9-9.8-17.9-14.7-1.2-2-3.1-3-5.3-3-3,0-5.9-.1-8.8-.9-1.1,0-2.3,0-3.4-.1-11.3-1.8-22.5-1.3-33.8,0-2.2.3-.3,1.2-.3,1.9-1.9.2-4,0-5.7.6-2.7.9-6.5.9-6.2,5.3-3.4-2.1-5.8-.4-8,2.1Z"/>
      <path class="cls-1" d="m51.8,29.7c-.2-4.5,3.6-4.4,6.2-5.3,1.8-.6,3.8-.4,5.7-.6,1.9,2.2,4.4,2.2,7,2.3.6,1.1,1.4,1.8,2.7,1.8,6.7,0,13.3,0,20,.2,1.4,0,2.1-.6,2.3-2,2.4-.7,4.5-1.7,5.7-4,2.9.8,5.8.9,8.8.9,2.3,0,4.1,1,5.3,3-1.8,2.5-3.3,5.3-5.9,7.2-1.8,1.3-1.8,2.9-1.1,4.6,2.2,5.7,4.5,11.3,6.8,16.9.8,3.8,2.9,1.1,3.9.5,5.8-3.3,11.5-6.8,17.2-10.3,2,1.9,4.5,3.3,5.8,5.8-2.6,4.4-7.9,5.8-11.5,10h11.6c-.3,4.3.5,8.7-1.3,12.8-4.4.4-8.7,1.3-13.2,1.2-11.1-.2-11.1,0-14.3,10.4-3,9.7-6,19.3-9,29-5.5,6.3-11.2,12.4-19.1,15.8,0-3.9,2.3-7.1,3.1-10.8,4.9-11.8,7.7-24.2,13-35.9,2.8-6.3,1.2-7.7-5.6-6.7-1.1.2-2.3.2-3.4.3-10.2-.6-20.4.6-31.6-1.7,8.8,20.1,14.5,40.2,22.1,59.6-2.7.4-4-1.2-5.5-3.1-5-6.3-9.6-13.1-15.8-18.4-.3.1-.5.1-.8,0,0,0,0,0,0,0-3.3-12.5-8.5-24.6-10.9-37.4-6.2-2-12.5-1.5-18.9-1.3-1.7-.4-3.4-.8-5.1-1.3-2.2-3.9-3-8.2-3-12.7,3.8,0,7.6,0,12.4,0-4.5-3.6-7.9-6.3-11.3-9.1-.2-3.7,1.7-5.8,5-7,1,.4,1.9.8,2.9,1.2,4,3.8,9.1,6,13.8,8.8,3,3.1,4.4,2.6,5.5-1.7,1.3-4.9,3.2-9.8,5.3-14.4,1.6-3.4,1-5.1-2.6-5.9,0-1.5-.9-2.4-2.2-3.1Zm22,10c-2.4-.8-6-3.1-6.7.3-1.5,7.2-4.1,14.2-5.8,21.4,1.9.5,3.8,0,5.4,1.1,8.8,0,17.5.1,26.3.1,1.9,0,4,.7,5.6-1h5.8c-1.6-5.3-3.1-10.2-4.5-15.2-.7-2.6-.4-6.3-2-7.7-1.5-1.3-5.1-.1-7.8.1-4.8.4-9.7-1-14.5.8-.6,0-1.2,0-1.8,0Z"/>
      <path class="cls-3" d="m88.5,119.2c-.7,3.7-3.1,6.9-3.1,10.8,0,.3-.2.6-.2.9-2,.5-1.8,2-1.4,3.5-.3.2-.6.3-1,.5-7.6-19.4-13.3-39.5-22.1-59.6,11.2,2.2,21.4,1,31.6,1.7-.3.5-.6,1-.9,1.5-2.5.8-5.7,1.1-5.8,4.5,0,2.1.9,4.4,3.7,4.8,0,5.4-1.8,10.6-2.4,15.9-.6,5.2-2.1,10.7,1.3,15.7Z"/>
      <path class="cls-3" d="m104.5,114.3c3-9.7,6-19.3,9-29,3.2-10.5,3.2-10.6,14.3-10.4,4.5,0,8.8-.8,13.2-1.2-5,5.8-9.9,11.6-15,17.3-7.1,7.9-14.3,15.6-21.5,23.4Z"/>
      <path class="cls-3" d="m25.9,73.5c1.7.4,3.4.8,5.1,1.3-.7,6.4,4.5,6.4,8.4,7.5,3.9,1.1,7.6.5,10.1-3.3.5-.7.3-1.9.4-2.9,2.4,12.8,7.5,24.8,10.9,37.4-6.7-5.2-11.6-12.1-17.3-18.2-6-6.4-11.6-13.2-17.8-19.5-.7-.7-2.9-1.8.2-2.2Z"/>
      <path class="cls-3" d="m136.4,44.9c-5.7,3.5-11.4,7-17.2,10.3-1,.6-3.1,3.3-3.9-.5-.1-4,.6-8.1-.7-12.1-.7-2.3.8-4.6,2.3-6.2,1.5-1.5,3.3,0,5,.6,3.7,1.5,7.1,4,11.4,3.7.9,1.5,5.1.6,3.1,4.2Z"/>
      <path class="cls-2" d="m133.3,40.7c-4.3.3-7.7-2.2-11.4-3.7-1.6-.6-3.5-2.2-5-.6-1.5,1.6-3.1,3.8-2.3,6.2,1.3,4,.6,8.1.7,12.1-2.3-5.6-4.6-11.3-6.8-16.9-.7-1.7-.8-3.3,1.1-4.6,2.5-1.9,4-4.7,5.9-7.2,6,4.9,11.9,9.8,17.9,14.7Z"/>
      <path class="cls-4" d="m101.4,22.1c-1.2,2.4-3.3,3.3-5.7,4-8.3,0-16.6,0-25,0-2.6,0-5.1,0-7-2.3,0-.6-1.9-1.6.3-1.9,11.3-1.4,22.5-1.8,33.8,0,1.1.2,2.3,0,3.4.1Z"/>
      <path class="cls-4" d="m51.8,29.7c1.3.6,2.1,1.5,2.2,3.1.3,5.1-3.7,6.4-7.2,8.2-1.3-.7-2.5-1.5-3.8-2.2-1.7-2.5,0-4.7.8-6.9,2.2-2.5,4.6-4.2,8-2.1Z"/>
      <path class="cls-2" d="m43.8,31.8c-.9,2.2-2.5,4.4-.8,6.9-3.7,2.4-7.4,4.8-11.1,7.2-1-.4-1.9-.8-2.9-1.2-1.9-2.5,1-2.6,1.9-3.7,3.4-4.3,8.4-6.5,12.9-9.2Z"/>
      <path class="cls-3" d="m24,51.8c3.4,2.7,6.8,5.4,11.3,9.1-4.9,0-8.6,0-12.4,0-1.9-2.8-.7-6-.7-9,0-1.4,1.2,0,1.8,0Z"/>
      <path class="cls-3" d="m142.3,60.8h-11.6c3.6-4.3,8.9-5.7,11.5-10,1.6,3.3,1.4,6.7,0,10Z"/>
      <path class="cls-1" d="m83.8,134.4c-.4-1.5-.6-2.9,1.4-3.5.6,1.6.9,3-1.4,3.5Z"/>
      <path class="cls-3" d="m60.7,113.4c.3.1.5.2.8,0,.1.6.3,1.3-.5,1.3-.3,0-.9-.7-.3-1.4Z"/>
      <path class="cls-3" d="m98.6,61.6c-1.6,1.7-3.7,1-5.6,1-8.8,0-17.5,0-26.3-.1.6-4.1,2.8-7.6,5.2-10.9,4.4,1,5.6-3.6,8.7-5,1.6,0,3.3.4,4.9,0,5.9-1.1,8.6,2.5,10.6,7.1,1.1,2.5,1.7,5.2,2.6,7.8Z"/>
      <path class="cls-2" d="m91.5,78.5c.3-.5.6-1,.9-1.5,1.1-.1,2.3-.2,3.4-.3,6.8-1,8.4.5,5.6,6.7-5.3,11.6-8.1,24.1-13,35.9-3.5-5-1.9-10.4-1.3-15.7.6-5.3,2.4-10.5,2.4-15.9,2.6-.4,5.4-.5,6.1-3.9.7-3.3-1.8-4.2-4.1-5.3Z"/>
      <path class="cls-2" d="m98.6,61.6c-.8-2.6-1.5-5.3-2.6-7.8-2-4.6-4.7-8.2-10.6-7.1-1.6.3-3.3,0-4.9,0-1.2-2.6-.6-6.5-4.9-7,4.7-1.9,9.7-.4,14.5-.8,2.7-.2,6.3-1.4,7.8-.1,1.7,1.4,1.3,5.1,2,7.7,1.4,4.9,2.9,9.9,4.5,15.2h-5.8Z"/>
      <path class="cls-2" d="m46.8,41c3.5-1.7,7.4-3.1,7.2-8.2,3.5.8,4.2,2.5,2.6,5.9-2.1,4.6-4,9.5-5.3,14.4-1.1,4.3-2.5,4.8-5.5,1.7-1.7-4.8-.2-9.3,1-13.8Z"/>
      <path class="cls-2" d="m49.9,76.1c-.1,1,0,2.2-.4,2.9-2.4,3.7-6.2,4.3-10.1,3.3-3.9-1.1-9.1-1.1-8.4-7.5,6.3-.2,12.7-.6,18.9,1.3Z"/>
      <path class="cls-3" d="m46.8,41c-1.2,4.5-2.8,9.1-1,13.8-4.7-2.8-9.8-5-13.8-8.8,3.7-2.4,7.4-4.8,11.1-7.2,1.3.7,2.5,1.5,3.8,2.2Z"/>
      <path class="cls-2" d="m71.8,51.6c-2.4,3.3-4.5,6.8-5.2,10.9-1.6-1.1-3.5-.6-5.4-1.1,1.6-7.3,4.2-14.2,5.8-21.4.7-3.4,4.4-1,6.7-.3-6,2.7-6.6,6.7-2,11.9Z"/>
      <path class="cls-4" d="m71.8,51.6c-4.7-5.2-4-9.2,2-11.9.6,0,1.2,0,1.8,0,4.3.4,3.7,4.4,4.9,7-3.1,1.4-4.3,5.9-8.7,5Z"/>
      <path d="m70.8,26.1c8.3,0,16.6,0,25,0-.1,1.3-.9,2-2.3,2-6.7,0-13.3-.1-20-.2-1.3,0-2.1-.7-2.7-1.8Z"/>
      <path class="cls-4" d="m91.5,78.5c2.2,1.1,4.7,2,4.1,5.3-.7,3.4-3.5,3.5-6.1,3.9-2.8-.3-3.8-2.6-3.7-4.8,0-3.4,3.3-3.6,5.8-4.5Z"/>
    </g>
  </g>
</svg>