<?xml version="1.0" encoding="UTF-8"?>
<svg id="Layer_2" data-name="Layer 2" xmlns="http://www.w3.org/2000/svg" width="135.5" height="145.6" viewBox="0 0 135.5 145.6">
  <defs>
    <style>
      .cls-1 {
        fill: #fefefe;
      }
    </style>
  </defs>
  <g id="Middle">
    <g>
      <path d="m71.8,54.6c-13.7,0-25,4-30.6,16.8-8.1,18.6,4.6,39.4,24.8,39.9,13.8.3,26.5-4.1,39.2-8.8,3.9-1.4,8.2-3,11.7.9,3.3,3.7,2.2,7.9.2,11.4-8.9,15.9-22.6,25.3-40.4,29.3-14.1,3.2-27.4,1-40.2-5-17.6-8.3-29.1-22.4-34.1-40.9-6.6-24.5-.2-46.1,17.8-63.9,9.1-9,20.5-14,33-16.4,12.9-2.5,25.4-.7,37.2,5,2.5,1.2,2.7-.8,3-1.9,1.8-5.1,3.2-10.3,5.2-15.3,1.2-2.9,2.7-5.9,7-5.8,4,.2,6.2,2.4,7.7,5.6,8.9,18.2,15.9,37.1,21.8,56.5.7,2.5-.3,4.7-2.5,5.2-8.7,1.8-16.7,6-25.4,7.9-11.6,2.5-23,5.6-34.5,8.1-3,.7-6.3.4-9.4,0-4.5-.6-6.6-6.7-3.7-11.1,3.8-5.8,7.9-11.6,12.1-17.7Zm34.3-33.5c-2.2,5.7-5.2,10.4-8.3,15.2-2.2,3.4-4.8,3.2-7.4,1.3-3.9-2.8-8.4-4.3-12.9-5.4-18.3-4.1-34.6-.5-48.3,12.8-11.2,11-16.1,24.3-15,39.8,1.2,16.2,8.5,29.2,22,38.2,14.9,10,31.1,11.2,47.9,5,5.8-2.1,12.8-6.6,15-10.2-11.2,3.5-22.4,5-33.9,5.4-23.6.8-45-25.4-39.2-48.3,4-15.6,12.7-26.7,28.5-31.7,8.6-2.7,17.1-2,25.5.5,8.4,2.5,9.2,4.8,4.6,12.6-1.1,1.8-2.7,3.4-3.5,5.3-.8,1.9-3.3,3.1-2.6,6,12.8-3.4,25.4-6.9,38.1-9.9,2.8-.7,3.3-1.7,2.4-3.9-4.3-10.8-7.3-22.1-13-32.8Z"/>
      <path class="cls-1" d="m106.2,21.2c5.7,10.7,8.7,22,13,32.8.9,2.2.4,3.2-2.4,3.9-12.7,3-25.3,6.6-38.1,9.9-.7-2.9,1.8-4.1,2.6-6,.8-1.9,2.4-3.5,3.5-5.3,4.5-7.8,3.8-10.2-4.6-12.6-8.4-2.5-16.8-3.2-25.5-.5-15.8,5-24.5,16.1-28.5,31.7-5.8,22.8,15.6,49.1,39.2,48.3,11.5-.4,22.6-1.8,33.9-5.4-2.2,3.6-9.2,8-15,10.2-16.8,6.2-32.9,4.9-47.9-5-13.5-9-20.8-22-22-38.2-1.1-15.5,3.8-28.9,15-39.8,13.7-13.4,30-16.9,48.3-12.8,4.5,1,9,2.5,12.9,5.4,2.5,1.8,5.1,2,7.4-1.3,3.1-4.7,6.2-9.5,8.3-15.2Z"/>
    </g>
  </g>
</svg>