<?xml version="1.0" encoding="UTF-8"?>
<svg id="Layer_2" data-name="Layer 2" xmlns="http://www.w3.org/2000/svg" width="145.5" height="180.4" viewBox="0 0 145.5 180.4">
  <defs>
    <style>
      .cls-1 {
        fill: #fff;
      }

      .cls-2 {
        fill: #9f5f00;
      }

      .cls-3 {
        fill: #c88200;
      }

      .cls-4 {
        fill: #e1b96a;
      }
    </style>
  </defs>
  <g id="Middle">
    <g>
      <g>
        <path class="cls-2" d="m136.5,102c-.4-7.2-.7-14.9-4.2-21.6-2-3.8-2.6-7.6-2.4-11.7.4-9.5-1.6-18.7-5.1-27.3-5.2-12.6-14.3-21.8-26.6-27.5-12.2-5.7-25.3-6.7-38.4-4-13.1,2.8-24.2,9.1-32.3,20.2-8.5,11.7-12.2,24.6-11.8,38.9,0,2.3.7,5.1-.3,6.8-4.8,7.8-6,16.7-6.4,25.4-.7,16.6-1.2,33.4,2.7,49.9,2.6,10.7,7,15.9,18.1,17.6,14,2.1,28.2,3.6,42.8,2.9,14.7.9,29.6-1.2,44.5-3.1,6.9-.9,12.7-4.6,15.1-12.3,2.3-7.1,3.1-14.4,4-21.7,1.3-10.9,1-21.7.3-32.5Zm-39.9-63.9s.2.2.2.2l-.2-.2c-.9-.4-2.1-.2-2.6-1.2.5,1,1.7.9,2.6,1.2Zm-.5,29.6c.5,3.2-1.4,4.2-4.1,3.7-13.1-2.1-26.2-.9-39.3-.7-4.5,0-3.4-1.6-3.2-3.9.5-5.7,2.7-10.6,6.3-15.2,4.6-5.9,10.8-5.1,17.5-4.9,5.6-.4,11.6-.6,16.5,4.8,4.2,4.7,5.4,10.4,6.4,16.2Zm-2.3-31.4l-.2-.2c-7.6-3.4-15.3-4.8-23.3-4.4,8-.4,15.7,1,23.3,4.4,0,0,.2.2.2.2Zm-5.7,58.1c1.3,1.9,3.1,3.4,4.6,5.2-1.4-1.8-3.3-3.3-4.6-5.2,4.4,0,8.9,0,13.3,0-4.4,0-8.9,0-13.3,0Zm33.9,45.5c0,.9-.1,1.9-.3,2.8.1-.9.2-1.9.3-2.8s0-1.9,0-2.8c0-.1.2-.3.3-.4,0,.1-.2.3-.3.4,0,.9,0,1.9,0,2.8Z"/>
        <path class="cls-1" d="m80,180.4c-2.5,0-5,0-7.4-.2-16.2.7-31.3-1.2-44-3-14.1-2.1-21.6-9.3-25.1-24C-.6,136.1-.3,119.4.5,101c.4-8.7,1.5-18.9,6.9-28.3,0-.3,0-.7,0-1,0-.8-.1-1.6-.2-2.3-.5-16.4,4-31.3,13.4-44.2C29.5,12.9,42.1,5,58,1.7c15.4-3.3,30.2-1.7,43.7,4.6,14.4,6.7,25,17.7,30.9,31.9,4.3,10.4,6.2,20.8,5.8,30.9-.1,3,.3,5.2,1.4,7.3,4.3,8.1,4.7,16.7,5.2,24.2v.8c.7,10.8,1,22.4-.3,34v.6c-.9,7.4-1.9,15-4.3,22.7-3.2,10.2-11.3,16.8-22.1,18.2l-3.4.4c-11.4,1.5-23,2.9-34.8,2.9Zm-7.3-17.2h.5c12.8.8,25.7-.8,39.4-2.6l3.4-.4c5.6-.7,7.2-3.8,8.1-6.5,1.1-3.3,1.8-6.8,2.3-10.3l-13.1-1.7c.1-.8.2-1.5.2-2.1,0-.7,0-1.3,0-1.9,0,0,0,0,0,0v-2.5c-.1,0,1.1-2.2,1.1-2.2.3-.5.6-.9.8-1.2l7.4,5.3,4.6-.2c.1-.9.2-1.8.3-2.7v-.6c1.2-9.7,1-19.4.4-31.1v-.8c-.4-6.4-.7-12.5-3.3-17.2-2.6-4.9-3.7-10-3.4-16.1.4-7.6-1.2-15.6-4.5-23.7-4.3-10.4-11.8-18.1-22.3-23-10.2-4.7-21.3-5.8-33.1-3.4-11.8,2.5-20.7,8-27.2,16.9-7.2,9.9-10.6,20.9-10.1,33.6,0,.4,0,.9.1,1.3.2,2.6.6,6.6-1.7,10.3-4,6.4-4.8,14-5.1,21.2-.7,17.2-1.1,32.6,2.5,47.5,1.9,8,4,10.1,11.1,11.1,12,1.8,26.2,3.5,41.2,2.9h.5Zm53.1-23.9l1.1.8c0,0,0-.1,0-.2l-1.1-.6ZM8.1,71.5s0,0,0,0c0,0,0,0,0,0Zm77.9,33.4h0c-.3-.4-.9-1-1.4-1.5-1.1-1.1-2.4-2.5-3.6-4.3l-8.5-13h15.6c1.8-.1,3.5-.1,5.3-.1s4.4,0,6.6,0h0s0,0,0,0c0,0,0,0,0,0s0,0,0,0c0,0,0,0,0,0,0,0,0,0,0,0h0s0,0,0,0,0,0,0,0c0,0,0,0,0,0,0,0,0,0,0,0,0,0,0,0,0,0,0,0,0,0,0,0,0,0,0,0,0,0,0,0,0,0,0,0,0,0,0,0,0,0,0,0,0,0,.1,0h0c0,0,.2,0,.3,0,0,0,0,0,0,0,0,0,0,0,0,0,0,0,0,0,.1,0l.3,17c-2.8,0-5.6,0-8.2,0-1.6,0-3.3,0-4.9,0l-2.5,2Zm7.1-24.9c-.8,0-1.6,0-2.6-.2-9.2-1.5-18.5-1.2-28.5-.8-3,.1-6.2.2-9.3.3-1.8,0-6.5.1-9.7-3.6-3-3.5-2.4-7.6-2.1-9.1,0-.2,0-.3,0-.5.7-7.2,3.3-13.7,8.1-19.7,6.5-8.2,15.1-8.4,21.6-8.2l-.7-15s0,0,0,0c0,0,0,0,0,0,9.5-.4,18.6,1.3,27.1,5.2l6.8,3.1v.3c-.1,0,2.4,1,2.4,1l-1.4,7-8-1.6-.6.5-2.1,5.4c.6.5,1.2,1.1,1.7,1.7,5.8,6.4,7.3,13.6,8.5,20.5h0c.9,5.6-1.5,8.9-3,10.4-1.3,1.3-4,3.3-8.3,3.3Zm-5.4-11s0,0,0,0h0s0,0,0,0Zm-13.3-7.3c3.9,0,7.8.1,11.7.5-.7-2-1.5-3.6-2.8-5-1.9-2.1-4.1-2.4-9.6-2h-.4s-.4,0-.4,0c-.7,0-1.3,0-2,0-6.1-.2-7.4,0-8.7,1.8-1.3,1.7-2.4,3.4-3.1,5.2.8,0,1.5,0,2.2,0,4.2-.1,8.6-.3,12.9-.3Zm19-25.1l-.3.6,8.5-4s0,0,0,0c0,0,0,0,0,0,0,0,0,0,0,0h0s0,0,0,0c0,0,0,0,0,0h0s0,0,0,0c0,0,0,0,0,0-.3-.6-.7-1.1-1-1.5l-7.1,5.1Z"/>
      </g>
      <g>
        <path d="m72.6,171.7c-14.6.7-28.8-.8-42.8-2.9-11.1-1.7-15.6-6.8-18.1-17.6-3.9-16.5-3.4-33.2-2.7-49.9.4-8.6,1.5-17.5,6.4-25.4,1.1-1.7.4-4.5.3-6.8-.5-14.3,3.3-27.2,11.8-38.9,8.1-11.1,19.2-17.5,32.3-20.2,13.1-2.8,26.2-1.7,38.4,4,12.3,5.7,21.5,14.9,26.6,27.5,3.6,8.6,5.6,17.8,5.1,27.3-.2,4.1.4,7.9,2.4,11.7,3.5,6.7,3.8,14.3,4.2,21.6.6,10.8,1,21.7-.3,32.5-.9,7.4-1.7,14.6-4,21.7-2.4,7.7-8.2,11.4-15.1,12.3-14.9,1.9-29.8,4-44.5,3.1Zm24-133.6l.2.2c7.2,7.8,12.7,16.5,12.4,27.6-.1,4.9,1.9,6.7,6.6,5.5.3,0,.6-.3.6-.3-.8-4.4-.3-8.8-1.2-13.2-.9-4.3-1.9-8.5-4.3-12.2-3.1-9-9.7-15-17.9-18.7-9.7-4.4-20.3-5.2-30.8-3.2-12.9,2.5-22.2,9.7-27.7,21.7-4,7.5-5,15.6-5.1,23.9,0,2.9,1.5,1.9,2.5,1.9,3.4.2,4.4-.3,3.9-1.9-1-3.1.2-5.9.8-8.7,2.6-13,10.9-25.4,25.5-28.2,10.9-2,21.4-1.2,31.5,3.4l.2.2c.3,1.6,1.7,1.4,2.8,1.8ZM22.6,116.3c-.7,1.1-1.1,2.4-.9,3.7,1.2,9.4,1,18.9,3.1,28.2,1.1,4.8,4,7.3,8.6,7.7,11.1.8,22.2,1.8,33.4,1.9,11.2.2,22.4-.3,33.6-1,3.9-.3,7.8-.6,11.7-.9,4.6-.3,7.8-2.6,8.8-7.5.7-3.7,1.4-7.4,1.2-11.2.3-.5.9-1.1.9-1.6-.2-14.2.9-28.4-.9-42.5-1-7.8-1-7.8-8.8-7.7-15.1,0-30.1.2-45.2,0-13.7-.2-27.3,1.1-41-.7-2-.3-2.2,1.4-2.4,3-.5,3.7-1.9,7.4-1.7,11,.3,6-2,11.8-.3,17.7Zm50.7-69.6c-6.8-.1-12.9-.9-17.5,4.9-3.6,4.6-5.7,9.5-6.3,15.2-.2,2.4-1.3,4,3.2,3.9,13.1-.2,26.2-1.5,39.3.7,2.8.5,4.7-.6,4.1-3.7-1-5.8-2.1-11.5-6.4-16.2-4.8-5.4-10.8-5.2-16.5-4.8Z"/>
        <path class="cls-3" d="m122,137.1c.2,3.8-.5,7.5-1.2,11.2-.9,4.9-4.1,7.2-8.8,7.5-3.9.3-7.8.7-11.7.9-11.2.8-22.4,1.2-33.6,1-11.1-.2-22.3-1.1-33.4-1.9-4.7-.3-7.6-2.9-8.6-7.7-2-9.3-1.9-18.8-3.1-28.2-.2-1.4.2-2.6.9-3.7,2.6-5.4,5.2-10.8,7.6-16.4,1.3-2.9,3.3-4.5,6.3-4.5,7,0,14-1.8,21-.9-.9,1-1.7,2-2.6,2.9-6.3,6.4-8.1,16.8-1.6,22.4,6.4,5.6,4.3,10.2,2.4,15.9-.5,1.4-.8,2.8-1.1,4.2-.8,4,2.4,9,6.3,10.1,7,1.9,14.1,1.1,21.1.7,6-.3,10.3-5.9,9.1-10.8-1-4.1-2.2-8.1-3.6-12-.6-1.9-.9-2.7,1.2-4.1,7.3-5,9.1-14.1,5.3-22.1-1.4-2.9-4.1-4.6-5.8-7.2,5.9,0,11.9,0,17.8-.2,3.4-.2,5,1.3,6.3,4.2,2.8,6.5,4.2,13.4,5.8,20.2,1.5,6.1,1.5,12.6,4,18.5Z"/>
        <path class="cls-4" d="m122,137.1c-2.5-5.9-2.5-12.3-4-18.5-1.7-6.8-3.1-13.7-5.8-20.2-1.2-2.9-2.9-4.4-6.3-4.2-5.9.3-11.8.2-17.8.2-7.7-6.8-23.2-6.9-30.7,0-7.1-.9-14,.9-21,.9-2.9,0-5,1.6-6.3,4.5-2.4,5.5-5,10.9-7.6,16.4-1.7-5.9.6-11.8.3-17.7-.2-3.6,1.2-7.3,1.7-11,.2-1.6.4-3.2,2.4-3,13.6,1.8,27.3.5,41,.7,15.1.3,30.1.1,45.2,0,7.8,0,7.8-.1,8.8,7.7,1.8,14.1.7,28.3.9,42.5,0,.5-.6,1.1-.9,1.6Z"/>
        <path class="cls-4" d="m34.5,45.5c5.5-12,14.8-19.3,27.7-21.7,10.6-2,21.1-1.2,30.8,3.2,8.2,3.7,14.8,9.7,17.9,18.7-1.3-.9-2.6-2-4-2.7-3.4-1.6-5.7-5.4-10.1-4.7,0,0-.2-.2-.2-.2.1-2.2-1-2.6-2.8-1.8,0,0-.2-.2-.2-.2-3.1-4.5-7.9-5.9-12.9-6.3-4.8-.3-9.6.2-14.3-.1-5.1-.4-9.3,1.3-13.4,4-6.2,4-12.4,7.9-18.5,11.9Z"/>
        <path class="cls-3" d="m34.5,45.5c6.2-4,12.4-7.9,18.5-11.9,4.1-2.6,8.3-4.3,13.4-4,4.7.4,9.6-.2,14.3.1,5.1.3,9.8,1.7,12.9,6.3-10.1-4.6-20.6-5.5-31.5-3.4-14.7,2.7-22.9,15.2-25.5,28.2-.6,2.8-1.7,5.6-.8,8.7.5,1.6-.6,2.1-3.9,1.9-1.1,0-2.6.9-2.5-1.9,0-8.4,1.1-16.5,5.1-23.9Z"/>
        <path class="cls-3" d="m96.8,38.3c4.4-.7,6.7,3.1,10.1,4.7,1.4.7,2.7,1.8,4,2.7,2.4,3.8,3.3,7.9,4.3,12.2,1,4.3.4,8.8,1.2,13.2,0,0-.3.2-.6.3-4.7,1.2-6.7-.6-6.6-5.5.3-11.1-5.2-19.8-12.4-27.6Z"/>
        <path class="cls-3" d="m93.8,36.3c1.8-.8,2.9-.5,2.8,1.8-1-.4-2.5-.2-2.8-1.8Z"/>
        <path d="m57.5,94.4c7.5-6.9,22.9-6.8,30.7,0,1.7,2.6,4.4,4.3,5.8,7.2,3.8,8,2,17.1-5.3,22.1-2.1,1.4-1.9,2.3-1.2,4.1,1.4,4,2.6,8,3.6,12,1.2,4.9-3.1,10.5-9.1,10.8-7,.3-14.1,1.2-21.1-.7-3.9-1.1-7.2-6.1-6.3-10.1.3-1.4.6-2.8,1.1-4.2,1.9-5.7,4-10.3-2.4-15.9-6.5-5.6-4.6-15.9,1.6-22.4.9-.9,1.8-1.9,2.6-2.9Zm19.6,44.1c-.1-.7,0-1-.2-1.3-3-9-5.3-17.7,4.4-24.7,3.7-2.7.6-5.7-1.9-7.4-3.1-2.1-6.9-2.4-10.4-1.4-6.1,1.7-7.5,6.6-2.8,10.7,5.3,4.6,6.7,9.8,4.4,16.3-.9,2.5-1.2,5.2-1.8,7.9,2.9-.6,5.4-.6,8.5,0Z"/>
        <path class="cls-2" d="m77.1,138.5c-3-.7-5.6-.6-8.5,0,.6-2.7.9-5.4,1.8-7.9,2.3-6.5.9-11.7-4.4-16.3-4.7-4.1-3.3-9,2.8-10.7,3.5-1,7.3-.6,10.4,1.4,2.5,1.7,5.6,4.8,1.9,7.4-9.7,7.1-7.3,15.7-4.4,24.7,0,.3,0,.6.2,1.3Z"/>
      </g>
    </g>
  </g>
</svg>