<?xml version="1.0" encoding="UTF-8"?>
<svg id="Layer_2" data-name="Layer 2" xmlns="http://www.w3.org/2000/svg" width="182.5" height="163.6" viewBox="0 0 182.5 163.6">
  <defs>
    <style>
      .cls-1 {
        fill: #ae0038;
      }

      .cls-2 {
        fill: #57595b;
      }

      .cls-3 {
        fill: #3c3f44;
      }

      .cls-4 {
        fill: #363738;
      }

      .cls-5 {
        fill: none;
      }

      .cls-6 {
        fill: #dc003e;
      }

      .cls-7 {
        fill: #f16b95;
      }

      .cls-8 {
        fill: #fefefe;
      }
    </style>
  </defs>
  <g id="Middle">
    <g>
      <path class="cls-5" d="m31.7,40c0,.3,0,.7,0,1,0-.3,0-.7,0-1h0Z"/>
      <path class="cls-5" d="m21.8,63.7c-.6-2.6-.9-5.1-1-7.8,0,2.6.4,5.2,1,7.8Z"/>
      <path class="cls-5" d="m21.8,44.3c0,.2,0,.5,0,.7h0c0-.2,0-.5,0-.7Z"/>
      <path class="cls-6" d="m30.9,76.8c9,11.1,18.5,21.5,30.2,29.7,9,6.3,19,10.7,29.7,13.3V55.7c-1.5.2-2.7-.3-3.9-1.8-2-2.4-4.3-4.6-6-7.2-4.5-6.7-10.9-10.8-18.1-14-2.3-1-3.8-1.4-4.5,2-.6,2.8-3.2,4.6-5.6,6-3.5,2.1-7.3,3.9-11.1,5.5-3.5,1.5-6.8.8-8.6-1.3-.4-.4-.7-.9-.9-1.4-.2-.5-.4-1.1-.5-1.7s0-.6,0-.9c0-.3,0-.7,0-1,0-1,0-1.9-.1-2.9-4.5-.4-5.5,4.6-8.8,5.9.2.9,0,1.5-.8,2h0c-.8,3.7-1.2,7.4-1.1,11,0,2.6.4,5.2,1,7.8.5,2,1.1,4.1,2,6.1,4.1.6,5.1,4.5,7.2,7Z"/>
      <path class="cls-6" d="m21.9,45h0c-.8,3.7-1.2,7.4-1.1,11,0-3.6.3-7.3,1.1-11Z"/>
      <path class="cls-1" d="m61.1,106.6c-11.7-8.2-21.2-18.7-30.2-29.7-2-2.5-3.1-6.4-7.2-7,2.6,9.1,8.1,16.7,13.7,24.1,8.2,10.8,17.9,20.1,27.9,29.1,7.4,6.7,15.2,13,23.2,19,.8.6,1.5.8,2.2.9v-22.9c-10.7-2.7-20.6-7-29.7-13.3Z"/>
      <path class="cls-7" d="m22.7,42.9s0,0,0,0c3.4-1.3,4.3-6.3,8.8-5.9,1.3-7.1,8.3-12.6,15.4-12,5,.4,7.3,4.8,4.1,8.7-3.7,4.5-8.3,8.1-14.6,8.9-2.6.3-3-2.3-4.9-2.7,0,.3,0,.7,0,1,0,.3,0,.6,0,.9,0,.6.3,1.2.5,1.7.2.5.5,1,.9,1.4,1.8,2.1,5.1,2.8,8.6,1.3,3.8-1.6,7.5-3.4,11.1-5.5,2.4-1.4,5-3.2,5.6-6,.7-3.4,2.2-3.1,4.5-2,7.1,3.2,13.6,7.3,18.1,14,1.7,2.6,4,4.8,6,7.2,1.2,1.4,2.4,1.9,3.9,1.8v-8c-1.7-.1-3.3-1.2-4.6-3.2-9.1-14.3-20.9-23.3-39.1-22.7-3.8.1-7.6,1.6-11.1,3.8-.6.4-1.3.8-1.9,1.3-.3.2-.6.5-.9.7-.6.5-1.2,1-1.7,1.5-.3.3-.6.5-.8.8-.5.5-1.1,1.1-1.6,1.6-.3.3-.5.6-.7.8-1.2,1.4-2.3,2.9-3.1,4.4-.5.9-1,1.8-1.4,2.7-.5,1.2-.9,2.3-1.1,3.5,0,0,0,0,0,0Z"/>
      <path class="cls-7" d="m34.1,27c.6-.5,1.2-.9,1.9-1.3-.6.4-1.3.8-1.9,1.3Z"/>
      <path class="cls-7" d="m25.2,36.8c.9-1.5,1.9-3,3.1-4.4-1.2,1.4-2.3,2.9-3.1,4.4Z"/>
      <path class="cls-7" d="m23.8,39.5c-.5,1.2-.9,2.3-1.1,3.5h0c.2-1.1.6-2.3,1.1-3.5Z"/>
      <path class="cls-7" d="m23.8,39.5c.4-.9.8-1.8,1.4-2.7-.5.9-1,1.8-1.4,2.7Z"/>
      <path class="cls-7" d="m31.4,29.1c.6-.5,1.1-1,1.7-1.5-.6.5-1.2,1-1.7,1.5Z"/>
      <path class="cls-7" d="m29,31.6c.5-.6,1-1.1,1.6-1.6-.5.5-1.1,1.1-1.6,1.6Z"/>
      <path class="cls-7" d="m31.7,41.9c0-.3,0-.6,0-.9,0,.3,0,.6,0,.9Z"/>
      <path class="cls-7" d="m33.1,45c-.4-.4-.7-.9-.9-1.4.2.5.5,1,.9,1.4Z"/>
      <path class="cls-7" d="m32.2,43.6c-.2-.5-.4-1.1-.5-1.7,0,.6.3,1.2.5,1.7Z"/>
      <path class="cls-7" d="m22.7,43s0,0,0,0h0s0,0,0,0c-.4.1-.7.3-.8.5-.1.2-.1.5-.1.8,0,.2,0,.5,0,.7.8-.5,1.1-1.1.8-2Z"/>
      <path class="cls-7" d="m21.9,43.5c-.1.2-.1.5-.1.8,0-.3,0-.6.1-.8Z"/>
      <path class="cls-7" d="m22.7,43s0,0,0,0h0s0,0,0,0h0Z"/>
      <path class="cls-7" d="m22.7,42.9s0,0,0,0c0,0,0,0,0,0,0,0,0,0,0,0Z"/>
      <polygon class="cls-7" points="22.7 43 22.7 43 22.7 43 22.7 43"/>
      <path class="cls-7" d="m22.7,43s0,0,0,0c0,0,0,0,0,0h0Z"/>
      <polygon class="cls-7" points="22.7 43 22.7 43 22.7 43 22.7 42.9 22.7 43"/>
      <path class="cls-8" d="m36.6,42.7c6.3-.8,10.8-4.4,14.6-8.9,3.2-3.8.9-8.3-4.1-8.7-7.1-.6-14.2,4.9-15.4,12,0,1,0,1.9.1,2.9h0c1.9.4,2.3,3,4.9,2.7Z"/>
      <path class="cls-8" d="m31.6,37.1c0,1,0,1.9.1,2.9h0c0-1,0-1.9-.1-2.9Z"/>
      <path class="cls-8" d="m182.3,55.3c0-2.9,0-4.4,0-5.8-.6-20.5-10-36-28.4-44.3-18.3-8.3-36.8-6.1-54.1,4.3-3.2,1.9-5.8,6.1-8.9,6.3,0,0,0,0-.1,0-3.4,0-6-4.4-9.2-6.4C67.6.3,52.4-1,36.4,2.1,16.9,6,.3,25.4.2,45.3c0,7.8-.5,15.6.2,23.2,1,11.1,6.4,20.7,12.6,29.6,17,24.1,38.4,43.9,62.1,61.4,2.4,1.8,4.4,4.3,8,4.1,2.6-.1,5.2-.2,7.7-.2,1.9,0,3.8,0,5.7.2,3.4.2,6.2-1.1,8.7-2.8,9.1-6.2,17.7-13.3,25.7-20.9,11.5-10.8,23.1-21.7,32.6-34.5,11.4-15.3,20.2-31.6,18.8-50.2Zm-15.4,30.1c-5.9,11.3-13.7,21-22.4,30.2-13.1,13.8-27,26.7-42.7,37.6-3.4,2.3-7.2,3.4-11.1,3.4-3.5,0-7-1.1-10.2-3.2-8.7-5.7-16.7-12.3-24.1-19.5-8.1-7.8-16.7-15.1-24-23.9-12-14.3-22.7-29.3-25.4-48.2C3.6,37.9,16,14.5,39.8,9c15-3.5,30-.6,42.2,10.3,2.9,2.6,5.7,5.1,8.8,7.8.3.3.7.6,1,.9,6.9-9.2,16.5-16.7,29.1-18.8,18.9-3.2,35.4-.9,47,18.4,11.6,19.4,9.2,38.6-.9,57.8Z"/>
      <path d="m167.9,27.6c-11.7-19.4-28.1-21.6-47-18.4-12.6,2.1-22.2,9.7-29.1,18.8-.3-.3-.7-.6-1-.9-3-2.7-5.9-5.2-8.8-7.8-12.2-10.9-27.2-13.8-42.2-10.3C16,14.5,3.6,37.9,7,61.7c2.7,18.9,13.5,33.9,25.4,48.2,7.3,8.7,15.9,16,24,23.9,7.5,7.2,15.5,13.8,24.1,19.5,3.1,2.1,6.6,3.1,10.2,3.2,3.9,0,7.7-1,11.1-3.4,15.7-10.9,29.6-23.8,42.7-37.6,8.7-9.2,16.5-19,22.4-30.2,10.1-19.2,12.6-38.4.9-57.8Zm-10.5,46.4c-1.3,2.8-2.9,5.5-4.4,8.2-5.4,9.8-12.6,18.5-20.5,26.2-12.2,11.9-24.2,24-38.7,33.4-1.1.7-2.1,1.1-3,1.1-.7,0-1.4-.3-2.2-.9-8-6-15.8-12.3-23.2-19-10-9-19.7-18.4-27.9-29.1-5.6-7.4-11.1-14.9-13.7-24.1-.9-2-1.5-4.1-2-6.1-.6-2.6-.9-5.1-1-7.8,0-3.6.3-7.3,1.1-11,0-.2,0-.5,0-.7,0-.3,0-.6.1-.8.1-.2.4-.4.8-.5.2-1.1.6-2.3,1.1-3.5.4-.9.8-1.8,1.4-2.7.9-1.5,1.9-3,3.1-4.4.2-.3.5-.6.7-.8.5-.6,1-1.1,1.6-1.6.3-.3.5-.5.8-.8.6-.5,1.1-1,1.7-1.5.3-.2.6-.5.9-.7.6-.5,1.2-.9,1.9-1.3,3.5-2.2,7.4-3.7,11.1-3.8,18.3-.6,30.1,8.4,39.1,22.7,1.3,2,2.9,3,4.6,3.2,2.2.2,4.6-1.3,6.4-4.4,5.9-10.2,14.3-17.2,25.8-20.6,16-4.8,34.5,5.7,37.9,21.8.2.8,0,1.6-.1,2.5,0,4,0,7.9,0,11.9.5,5.6-1,10.4-3.3,15.1Z"/>
      <path class="cls-3" d="m147.8,35.2c-4-2.5-8.2-4.1-12.7-4.9-1.9-.4-3.3-.2-2.3,2.5,1.1,3.2-.3,5.7-2.7,7.9-4.3,3.8-9.2,6.5-14.6,8.1-2.8.8-5.6.6-7.5-2.1-2.1-3-4.1-2.4-6,.3-2.5,3.3-4.7,6.6-8.9,8.3-.8.3-1.6.5-2.2.6v64.2c.6.2,1.2.3,1.9.5,2.2.5,4.3,0,6.2-1.2,12.7-8.3,24.9-17.3,35.8-27.8,9.2-8.8,17.1-18.7,23.4-29.8.6-1.1,1-2.5,2.6-2.7h0c0-4,0-7.9,0-11.9-4.9-3.3-7.9-8.6-12.9-11.8Z"/>
      <path class="cls-2" d="m160.7,58.8h0c0-4,0-7.9,0-11.9,0,4,0,7.9,0,11.9h0Z"/>
      <path class="cls-4" d="m93.8,141.8c14.4-9.4,26.5-21.5,38.7-33.4,7.9-7.7,15.1-16.4,20.5-26.2,1.5-2.7,3.1-5.4,4.4-8.2,2.2-4.7,3.8-9.5,3.3-15.1-1.6.2-2,1.6-2.6,2.7-6.3,11.2-14.2,21-23.4,29.8-10.9,10.5-23.2,19.5-35.8,27.8-1.9,1.2-4,1.7-6.2,1.2-.6-.1-1.2-.3-1.9-.5v22.9c.9,0,1.8-.3,3-1.1Z"/>
      <path class="cls-2" d="m157.4,73.9c2.2-4.7,3.8-9.5,3.3-15.1h0c.5,5.6-1,10.4-3.3,15.1Z"/>
      <path class="cls-2" d="m93,55.1c4.2-1.7,6.4-5,8.9-8.3,2-2.6,3.9-3.3,6-.3,1.9,2.8,4.8,2.9,7.5,2.1,5.4-1.6,10.3-4.3,14.6-8.1,2.5-2.2,3.9-4.7,2.7-7.9-1-2.7.4-2.9,2.3-2.5,4.5.9,8.7,2.4,12.7,4.9,5,3.2,8.1,8.5,12.9,11.8,0-.8.3-1.7.1-2.5-3.3-16.1-21.9-26.6-37.9-21.8-11.4,3.4-19.8,10.3-25.8,20.6-1.8,3.1-4.2,4.6-6.4,4.4v8c.7,0,1.4-.3,2.2-.6Zm20.3-24.5c2.5-2.8,6.1-4.3,10-4.6,3.3-.4,5.7,1.1,6.6,4.1.8,2.8,0,5.5-3,7.1-1.9,1-3.9,1.9-5.4,3.3-3.8,3.4-7.1,2.8-10.1-.8-3.1-3.7-.2-6.7,2-9Z"/>
      <path class="cls-8" d="m121.4,40.5c1.6-1.4,3.5-2.3,5.4-3.3,3-1.6,3.8-4.3,3-7.1-.8-2.9-3.3-4.4-6.6-4.1-3.9.3-7.4,1.8-10,4.6-2.2,2.4-5.1,5.3-2,9,3,3.6,6.3,4.2,10.1.8Z"/>
    </g>
  </g>
</svg>