<?xml version="1.0" encoding="UTF-8"?>
<svg id="Layer_2" data-name="Layer 2" xmlns="http://www.w3.org/2000/svg" width="240.2" height="208.1" viewBox="0 0 240.2 208.1">
  <defs>
    <style>
      .cls-1 {
        fill: #7d89a2;
      }

      .cls-2 {
        fill: #b4bbca;
      }

      .cls-3 {
        fill: #696581;
      }
    </style>
  </defs>
  <g id="Middle">
    <g>
      <path d="m182.7,208c-7.7,0-15.3.3-23,0-21.4-1-42.8-1.5-64.2-.8-22.9.8-45.8.6-68.7.9-12.8.2-22.4-7.6-25.5-19.4-3-11.2.1-20.1,7.4-28,4.7-5.1,11.1-6.2,18-5.9,11.3.5,22.6.3,33.9.3,49.6,0,99.2,0,148.8-.1,4.5,0,8.8-.7,13.5.8,7.8,2.5,12.5,7.6,15.1,14.7,4.6,12.3,1.9,23.2-7.7,32.3-4.2,4-9.4,5.1-14.7,5.2-11,.3-22,0-33,0Zm42.6-30c-.1-4.6-2.2-8.3-6.8-8.8-5.7-.6-11.4-1.3-17.2-1.3-30.4.2-60.8,0-91.2,0-27.6,0-55.2,0-82.7.1-5.8,0-10.5,1.9-12.6,7.8,0,1-.2,1.9-.2,2.9-2.2,7,2.9,14.9,9.9,15.1,25.9.4,51.8,0,77.7.8,37.3,1.1,74.7-1.5,112.1-.8.3,0,.7,0,1,0,7.4-.1,12.6-7.7,10.4-15.1,0-.3-.1-.6-.3-.9Z"/>
      <path d="m183,53.2c-8.3,0-16.7.4-25,0-20.7-1.1-41.5-1.5-62.2-.8-22.7.8-45.5.6-68.2.9-15,.2-23.7-7.6-27-21.4C-2.1,20.3,4.2,6.5,14.4,2,18.9,0,23.5,0,28.4,0c19,.3,38,.3,56.9.3,41.5,0,82.9,0,124.4-.2,4.5,0,8.8-.6,13.4.9,7.8,2.5,12.5,7.7,15,14.7,4.4,12.3,1.9,23.2-7.9,32.3-4.2,3.9-9.4,5-14.7,5.1-10.8.2-21.6,0-32.5,0Zm42.4-30c.3-2.1-.7-3.7-1.8-5.4-3.7-5.6-9.9-4.3-14.8-4.3-42-.4-84.1-.2-126.1-.1-.7,0-1.4,0-2,0-17.8,0-35.5,0-53.3,0-5.8,0-10.4,1.9-12.5,7.9.2,2.7-2.7,5.3,0,8,.7,6.8,3.5,9.9,9.8,10,25.8.4,51.5-.4,77.3.9,25.9,1.3,51.8-1.2,77.8-.9,11.8.2,23.6,0,35.5,0,7.9,0,13.3-8.5,10.3-16Z"/>
      <path d="m183,131.1c-8.3,0-16.7.4-25,0-20.6-1.1-41.1-1.5-61.7-.8-22.9.8-45.8.6-68.7.9-14.9.2-23.8-7.7-27.1-21.8-2.6-10.9,4.8-26.5,14-29.7,4.5-1.6,8.9-1.8,13.6-1.8,51.3.2,102.5.3,153.8.2,11.4,0,22.9.3,34.3-.7,10.8-.9,20.2,8.2,23.2,21,3.4,14.8-6.7,33.7-26,32.8-10.1-.5-20.3,0-30.5,0Zm42.5-29c0-.6-.1-1.3-.2-1.9-.7-3.9-2.5-7.5-6.8-7.8-5.7-.5-11.4-1.3-17.3-1.2-30.3.2-60.6,0-90.9,0-27.6,0-55.3,0-82.9.1-5.8,0-10.6,1.8-12.6,7.8,0,1-.2,2-.2,3.1-2.3,6.6,2.7,14.9,9.3,15,26.1.4,52.1,0,78.2.8,37.4,1.1,74.7-1.5,112.1-.8.5,0,1,0,1.5,0,7-.2,12.2-8,9.9-15.1Z"/>
      <path class="cls-1" d="m14.5,178.9c0-1,.2-1.9.2-2.9,1,0,2,0,3,0,25.9-4.1,52.1-5,78.2-5.7,27.5-.7,55,.7,82.5,2.7,15.7,1.1,31.3,2.5,46.8,5.1.2.3.3.6.3.9-1.9,3.2-4.2,6-6.9,8.4-1.2,1.1-2.3,1.8-4,1.6-13.5-1.7-27.1-1.6-40.7-1.7-47.9-.5-95.7-.3-143.6-.1-7.1,0-12-2.8-15.9-8.2Z"/>
      <path class="cls-3" d="m14.5,178.9c4,5.4,8.8,8.2,15.9,8.2,47.9-.2,95.7-.4,143.6.1,13.5.1,27.1,0,40.7,1.7,1.7.2,2.8-.5,4-1.6,2.7-2.5,5-5.3,6.9-8.4,2.2,7.4-3,15-10.4,15.1-.3,0-.7,0-1,0-37.4-.7-74.7,1.8-112.1.8-25.9-.7-51.8-.4-77.7-.8-7-.1-12-8-9.9-15.1Z"/>
      <path class="cls-2" d="m225.3,178c-15.5-2.6-31.1-3.9-46.8-5.1-27.5-2-55-3.4-82.5-2.7-26.1.7-52.3,1.6-78.2,5.7-1,.2-2,0-3,0,2.1-6,6.8-7.8,12.6-7.8,27.6,0,55.2-.1,82.7-.1,30.4,0,60.8.1,91.2,0,5.8,0,11.5.6,17.2,1.3,4.6.5,6.6,4.2,6.8,8.8Z"/>
      <path class="cls-1" d="m14.8,29.2c-2.7-2.6.1-5.3,0-8,7-1,14-2,21-3,13.9-1.9,27.9-2.6,41.9-3,1.3,0,2.8,0,2.9-1.9.7,0,1.4,0,2,0,1.4,1.8,3.4,1,5.1,1,17.5,0,35-.4,52.4.2,18,.7,36.1,2.2,54,3.8,9.9.9,19.8,2.1,29.3,5-2.6,7.3-2.6,7.2-10.3,6-1.3-.2-2.7-.2-4-.1-10.4.3-20.9.1-31.3.7-19.4,1.1-38.8.2-58.2,1-27.7,1.2-55.4.9-83.1,1.3-.7,0-1.4-.1-2,0-7.1,2.1-13.7.9-19.8-3.1Z"/>
      <path class="cls-3" d="m14.8,29.2c6.1,4.1,12.7,5.2,19.8,3.1.6-.2,1.3,0,2,0,27.7-.4,55.4-.1,83.1-1.3,19.4-.8,38.8.1,58.2-1,10.5-.6,20.9-.4,31.3-.7,1.3,0,2.7,0,4,.1,7.7,1.2,7.7,1.2,10.3-6,.6,0,1.2-.1,1.8-.2,3,7.5-2.4,16-10.3,16-11.8,0-23.6.1-35.5,0-25.9-.3-51.9,2.2-77.8.9-25.8-1.3-51.5-.5-77.3-.9-6.2-.1-9.1-3.2-9.8-10Z"/>
      <path class="cls-2" d="m225.4,23.2c-.6,0-1.2.1-1.8.2-9.6-2.9-19.5-4.1-29.3-5-18-1.6-36-3.2-54-3.8-17.5-.7-35-.1-52.4-.2-1.7,0-3.7.8-5.1-1,42,0,84.1-.2,126.1.1,4.9,0,11.1-1.3,14.8,4.3,1.1,1.7,2.2,3.3,1.8,5.4Z"/>
      <path class="cls-2" d="m80.6,13.4c0,1.9-1.5,1.8-2.9,1.9-14,.4-28,1.1-41.9,3-7,1-14,2-21,3,2.1-5.9,6.7-7.9,12.5-7.9,17.8,0,35.5,0,53.3,0Z"/>
      <path class="cls-1" d="m225.3,100.1c0,.6.1,1.3.2,1.9-3.9,6.1-9,9.5-16.6,8.1-5.6-1-11.2-1-16.9-1-52.1,0-104.2-.1-156.4.2-8.2,0-15.4-.7-21.1-7.1,0-1,.2-2,.2-3.1,7.4-1.9,15.1-1.4,22.6-2.5,13.4-1.9,27.1-2.1,40.7-2.3,30.8-.4,61.6-.6,92.3,1.1,6.8.4,13.6.7,20.3,1.2,11.6.8,23,2.8,34.6,3.5Z"/>
      <path class="cls-3" d="m14.6,102.1c5.7,6.4,12.9,7.2,21.1,7.1,52.1-.3,104.2-.1,156.4-.2,5.7,0,11.3,0,16.9,1,7.6,1.4,12.7-2,16.6-8.1,2.3,7-2.8,14.8-9.9,15.1-.5,0-1,0-1.5,0-37.4-.7-74.8,1.8-112.1.8-26.1-.8-52.1-.4-78.2-.8-6.6-.1-11.6-8.3-9.3-15Z"/>
      <path class="cls-2" d="m225.3,100.1c-11.6-.7-23-2.7-34.6-3.5-6.8-.5-13.6-.8-20.3-1.2-30.7-1.7-61.5-1.5-92.3-1.1-13.6.2-27.3.3-40.7,2.3-7.5,1.1-15.2.6-22.6,2.5,2-6.1,6.8-7.8,12.6-7.8,27.6,0,55.3-.1,82.9-.1,30.3,0,60.6.1,90.9,0,5.8,0,11.5.7,17.3,1.2,4.2.4,6.1,3.9,6.8,7.8Z"/>
    </g>
  </g>
</svg>