<?xml version="1.0" encoding="UTF-8"?>
<svg id="Layer_2" data-name="Layer 2" xmlns="http://www.w3.org/2000/svg" width="194" height="197.1" viewBox="0 0 194 197.1">
  <defs>
    <style>
      .cls-1 {
        fill: #007ee1;
      }

      .cls-2 {
        fill: #989ca5;
      }

      .cls-3 {
        fill: #4a515e;
      }

      .cls-4 {
        fill: #78b8ef;
      }

      .cls-5 {
        fill: #fefefe;
      }
    </style>
  </defs>
  <g id="Middle">
    <g>
      <path class="cls-5" d="m118.5,147.6c-9.2.4-17.9,0-26.2-3.7-1.9-.8-3.2-.3-4.6,1.2-9.7,11.1-19.5,22.2-29.3,33.2-4.9,5.5-10.1,10.9-15.2,16.2-.9.9-2.1,1.7-3.3,1.9C18.2,200.6.3,183.4,0,165c0-6.1,1.6-10.6,6-14.8,13-12.2,25.1-25.4,38.6-37,6-5.2,7.1-9,4-16-4.1-9.4-2.5-19.6-2.5-29.6,0-9.4,1.9-18.4,6.4-26.5C65,18.9,82.3,3.3,109.1.6c17.6-1.8,34.1.2,49.3,9.7,16.7,10.5,28.5,24.7,33,44.2,4.9,21.3,3.2,42-9.6,60.3-11.2,16-26.2,27.5-45.6,31.8-5.8,1.3-12,1.6-17.8.9Zm.6-6.7c4.3.5,8.6-.5,12.6-1.4,14.6-3.2,27.4-9.8,37.6-21.2,16.3-18.1,21-39,14.9-62.3-4-15.3-12.6-27.5-25.6-36.6-15.7-11-33.1-14.9-51.7-11.4-16.6,3.2-30,12-40,25.8-16.2,22.4-18.4,47.8-5.6,72,1.1,2.1.7,2.6-.5,3.7-5.8,5.2-11.9,10.2-17.5,15.6-11.4,11.1-22.5,22.4-33.8,33.7-1.7,1.7-2.6,3.7-2.4,6.1,1,10.1,13.2,23.1,23.4,24.5,3,.4,6.3.7,8.8-1.8,5.6-5.8,11.3-11.5,16.4-17.7,2.8-3.5,6.2-6.3,9-9.7,7.1-8.5,14.3-16.8,21.4-25.3,1.7-2.1,3.2-1.9,5.3-.8,8.7,4.6,18.1,6.2,27.8,6.8Z"/>
      <path d="m119.1,141c-9.7-.6-19.1-2.2-27.8-6.8-2.1-1.1-3.6-1.2-5.3.8-7,8.5-14.3,16.9-21.4,25.3-2.8,3.4-6.2,6.3-9,9.7-5.1,6.2-10.8,11.9-16.4,17.7-2.4,2.5-5.8,2.3-8.8,1.8-10.1-1.5-22.3-14.5-23.4-24.5-.2-2.5.7-4.5,2.4-6.1,11.2-11.3,22.4-22.6,33.8-33.7,5.6-5.5,11.7-10.4,17.5-15.6,1.2-1.1,1.6-1.6.5-3.7-12.8-24.2-10.7-49.6,5.6-72,10-13.8,23.4-22.7,40-25.8,18.6-3.5,36,.3,51.7,11.4,13,9.2,21.6,21.4,25.6,36.6,6.1,23.3,1.5,44.2-14.9,62.3-10.2,11.3-23,17.9-37.6,21.2-4,.9-8.3,1.9-12.6,1.4Zm-71.2-2.1c-.5,0-.9.3-.9,1-7.1,6.9-14.2,13.8-21.3,20.8-5.6,5.5-5.6,5.9,0,11.4,1.2,1.1,2.7,1.9,3.9,3,1.7,1.4,2.6,1.2,4.2-.6,13.3-14.2,26.1-29,40.2-42.4,1.8-1.7,3.2-3.8,4.7-5.7.4-.5.6-1.2.6-1.8,0-7.3,2.9-9,9.6-5.7,8,3.9,16.2,7.6,25.1,8.1,19.3.9,36.1-5,47.8-21.2,11.9-16.5,14.9-34.3,6.1-53.3,0-.8.2-1.7-.9-2h0c-1.5-6.1-5.5-10.8-9.7-14.8-10-9.7-22.6-14.6-36.4-14.8-14.7-.2-27.8,5.2-38.4,15.7h0c-.5,0-.9.3-.9.9-9.5,9.9-14.3,21.8-15,35.4-.6,11.9,3.5,22.6,9.1,32.8,2.4,4.4,2.4,8-1.2,11.5-3.3-.4-6.8-.5-8.9,2.6-4.4,6.2-10.4,10.8-15.4,16.3-.5.5-1,1-1.6,1.6-.3.5-.7,1-1,1.5h0Z"/>
      <path class="cls-3" d="m48.8,137.5c.5-.5,1-1,1.6-1.6,1.8.5,3.1-.3,4.5-1.3,4.5-3.4,9.3-6.6,13.7-10.2,2.5-2,5.5-3.7,6.1-7.4,3.7-3.5,3.7-7.1,1.2-11.5-5.6-10.2-9.7-20.9-9.1-32.8.7-13.6,5.5-25.5,15-35.4.6,0,.9-.3.9-1h0c5,.2,8.8-3.2,13.2-4.7,20.9-7.4,40.1-5.3,57.9,8.6,4.4,3.5,8,8.1,13.5,10.1,0,0,0,0,0,0-.4,1,0,1.6.9,2,8.8,19,5.9,36.9-6.1,53.3-11.7,16.2-28.5,22.1-47.8,21.2-8.9-.4-17.1-4.2-25.1-8.1-6.7-3.3-9.6-1.6-9.6,5.7,0,.6-.3,1.3-.6,1.8-1.5,2-2.9,4-4.7,5.7-14.1,13.5-26.9,28.2-40.2,42.4-1.6,1.7-2.5,1.9-4.2.6-1.3-1-2.8-1.8-3.9-3-5.7-5.5-5.7-5.9,0-11.4,7-7,14.2-13.8,21.3-20.8.6,0,.9-.4.9-1,0,0,0,0,0,0,.8-.1,1-.7,1-1.5Zm69-22.4c22.9,1.9,45.2-14.9,45.9-41.4.6-22.3-15.1-43-43-43.7-20.4-.5-38.9,13.9-41.9,36.9-3.5,26.8,15.6,47.1,39,48.3Z"/>
      <path class="cls-2" d="m167.2,50.4c-5.5-2-9.1-6.7-13.5-10.1-17.8-13.8-37-16-57.9-8.6-4.4,1.6-8.2,5-13.2,4.8,10.7-10.5,23.7-15.9,38.4-15.7,13.8.1,26.4,5.1,36.4,14.8,4.2,4,8.3,8.7,9.7,14.8Z"/>
      <path class="cls-2" d="m74.7,117c-.6,3.6-3.6,5.4-6.1,7.4-4.4,3.6-9.2,6.8-13.7,10.2-1.4,1-2.7,1.9-4.5,1.3,5-5.5,11-10.1,15.4-16.3,2.2-3,5.6-3,8.9-2.6Z"/>
      <path class="cls-2" d="m168,52.3c-.9-.4-1.3-1-.9-2,1.1.3.9,1.1.9,2Z"/>
      <path class="cls-2" d="m82.6,36.4c0,.6-.3.9-.9,1,0-.6.3-.9.9-1Z"/>
      <path class="cls-2" d="m48.8,137.5c0,.7-.2,1.3-1,1.5.3-.5.7-1,1-1.5Z"/>
      <path class="cls-2" d="m47.8,138.9c0,.6-.3.9-.9,1,0-.6.3-.9.9-1Z"/>
      <path d="m117.9,115.1c-23.4-1.2-42.5-21.5-39-48.3,3-22.9,21.5-37.4,41.9-36.9,27.9.7,43.6,21.4,43,43.7-.7,26.5-23,43.3-45.9,41.4Zm32.4-42.4c.7-16.1-12.6-30.1-31.7-29.5-12.1.4-26.4,13.2-27.1,27.8-.9,17.4,15.6,31.2,29,31.3,15.9.2,31.3-13.4,29.8-29.7Z"/>
      <path class="cls-1" d="m150.2,72.7c1.5,16.3-13.9,29.9-29.8,29.7-13.3-.2-29.8-14-29-31.3.7-14.7,15-27.4,27.1-27.8,19.1-.6,32.4,13.4,31.7,29.5Zm-14-20.3c-7.7-7.5-11.5-7.6-16.7-2.8-3.4,0-6.4,1-9,3.3-1.8,1.5-2.7,3.2-1.5,5.6,1.3,2.4,3,5.1,5.8,4.4,7.1-1.6,13,0,18.9,4,4.2,2.8,8.2-.1,8.6-5.2.3-4.8-3-6.9-6.1-9.3Zm-34.6,8.9c-2.6.8-4.1,2.8-4.1,5.9,0,2.8,2.1,4,4.1,3.8,2.6-.3,5.8-1.1,5.7-4.8-.1-3.1-2.2-4.5-5.7-4.8Z"/>
      <path class="cls-4" d="m136.3,52.4c3.1,2.4,6.4,4.5,6.1,9.3-.3,5.1-4.3,8-8.6,5.2-5.9-3.9-11.9-5.6-18.9-4-2.8.6-4.6-2-5.8-4.4-1.2-2.4-.3-4.1,1.5-5.6,2.6-2.2,5.6-3.3,9-3.3-.1,4.7,2.9,9,6.9,9.7,3.8.7,8-2.2,9.8-6.9Z"/>
      <path class="cls-5" d="m136.3,52.4c-1.8,4.7-6,7.6-9.8,6.9-4-.8-7-5-6.9-9.7,5.2-4.8,9-4.7,16.7,2.8Z"/>
      <path class="cls-4" d="m101.7,61.3c3.5.3,5.6,1.8,5.7,4.8.1,3.7-3.1,4.5-5.7,4.8-2.1.3-4.2-1-4.1-3.8,0-3.1,1.6-5.1,4.1-5.9Z"/>
    </g>
  </g>
</svg>