<?xml version="1.0" encoding="UTF-8"?>
<svg id="Layer_2" data-name="Layer 2" xmlns="http://www.w3.org/2000/svg" width="151" height="154.7" viewBox="0 0 151 154.7">
  <defs>
    <style>
      .cls-1 {
        fill: #696581;
      }

      .cls-2 {
        fill: #fefefe;
      }
    </style>
  </defs>
  <g id="Middle">
    <g>
      <path d="m130.6,91.9c0,16.2-.4,32.3.1,48.3.4,10.7-3.8,12.6-13.7,13.9-5.1.7-10.4,1-15.6-.7-3.7-1.2-7.4,1-11.1.9-10.9-.1-21.9.5-32.8-.2-7.5-.5-14.9.6-22.4.2-9.3-.5-16.7-4.3-16-15.9.8-13,.2-26.1.2-39.2,0-2.4-.4-4.8,1.3-7.4-7,1.7-13.1,1.1-17.2-4.5-5.1-6.8-4.4-16.5,1.6-22.6,14.3-14.5,28.5-29.1,43.3-43.1,6.1-5.8,12.1-11.6,18.1-17.4,5.7-5.5,12-5.9,17.5-.4,21.4,21.2,42.7,42.5,63.8,64,4.5,4.6,3.6,11,1.5,16.5-1.9,5.2-6.7,7.7-12.1,8.3-2.1.2-4.3.5-6.6-.8Zm0-14.3c1.8.1,3.6,2.8,5.2.3,1.7-2.6-1.3-3.3-2.5-4.5-13.5-13.7-27-27.3-40.6-40.7-6-5.9-10.7-13.1-17.6-18.2-19.8,19.8-39.4,39.4-59,59.1-1,1-3.5,1.6-2,4.2,1.8,3.1,3.3-.5,4.9-.1,2.7.4,5.6.6,8.2,1.4,2.7.9,6,1.9,5.8,5.7-1.2,17.3,2.5,34.5.3,51.8-.2,1.4-.8,4.5,1.8,4.7,3.3.3,6.9,1.1,10.1-.6.7-.4,0-1.1,0-1.7,0-11.7-.3-23.5,0-35.2.2-7.5,3.3-14.1,10.7-16.7,12.5-4.3,25.3-4,37.8,0,6.8,2.1,10.9,8.4,10.9,15.7,0,11.4.3,22.9-.1,34.3-.2,5.6,3,4.5,6.2,4.6,3.3,0,6.2.8,6-4.7-.5-16.4,0-32.8-.2-49.2,0-4.4,1.9-7.3,5.9-8.5,2.6-.8,5.4-1,8.2-1.4Zm-39.8,43.4c0-5.3-.1-10.6,0-15.8.1-3-.6-4.9-3.9-5.5-8.2-1.5-16.3-1.3-24.4.1-2.1.4-2.6,1.7-2.6,3.5,0,11.5.4,23-.9,34.5-.3,2.6.6,3.8,3.5,3.7,8.2-.2,16.5-.2,24.8,0,2.9,0,3.7-1,3.6-3.7-.2-5.6,0-11.2,0-16.8Z"/>
      <path class="cls-1" d="m90.8,120.9c0,5.6-.1,11.2,0,16.8,0,2.7-.7,3.8-3.6,3.7-8.2-.2-16.5-.2-24.8,0-3,0-3.8-1.1-3.5-3.7,1.3-11.5,1-23,.9-34.5,0-1.8.5-3.2,2.6-3.5,8.1-1.5,16.2-1.6,24.4-.1,3.4.6,4,2.5,3.9,5.5-.2,5.3,0,10.6,0,15.8Z"/>
      <path class="cls-2" d="m133.4,73.4c-13.5-13.7-27-27.3-40.6-40.7-6-5.9-10.7-13.1-17.6-18.2-19.8,19.8-39.4,39.4-59,59.1-1,1-3.5,1.6-2,4.2,1.8,3.1,3.3-.5,4.9-.1,2.7.4,5.6.6,8.2,1.4,2.7.9,6,1.9,5.8,5.7-1.2,17.3,2.5,34.5.3,51.8-.2,1.4-.8,4.5,1.8,4.7,3.3.3,6.9,1.1,10.1-.6.7-.4,0-1.1,0-1.7,0-11.7-.3-23.5,0-35.2.2-7.5,3.3-14.1,10.7-16.7,12.5-4.3,25.3-4,37.8,0,6.8,2.1,10.9,8.4,10.9,15.7,0,11.4.3,22.9-.1,34.3-.2,5.6,3,4.5,6.2,4.6,3.3,0,6.2.8,6-4.7-.5-16.4,0-32.8-.2-49.2,0-4.4,1.9-7.3,5.9-8.5,2.6-.8,5.4-1,8.2-1.4,1.8.1,3.6,2.8,5.2.3,1.7-2.6-1.3-3.3-2.5-4.5Z"/>
    </g>
  </g>
</svg>