<?xml version="1.0" encoding="UTF-8"?>
<svg id="Layer_2" data-name="Layer 2" xmlns="http://www.w3.org/2000/svg" width="166.4" height="153" viewBox="0 0 166.4 153">
  <defs>
    <style>
      .cls-1 {
        fill: #b5bcca;
      }

      .cls-2 {
        fill: #fefefe;
      }
    </style>
  </defs>
  <g id="Middle">
    <g>
      <path d="m30.5,31.1c12.1,0,22.9-1.5,33.8-1.2,4.3.1,3.3-3.8,3.5-6.5.7-7.2,2.4-13.8,8.1-19,6.5-5.9,11.6-5.5,17.6-1.8,10.5,6.6,19.9,14.9,29.4,23,6.6,5.6,12.8,11.7,19,17.7,7.1,6.8,14,14.1,19.8,22.2,8.1,11.2,4.4,16.9-1.6,24.5-6,7.5-12.4,14.9-19.4,21.4-13.9,12.9-27.9,25.7-43.4,37-13.7,10-24,1.7-27.9-9.9-1.3-4-1.5-8.2-2.3-12.3-.6-2.9-1.7-2.9-3.8-2.9-9.9,0-19.9-.4-29.8.1-18.9,1-26.6-8.8-30.4-24.4C.9,89.4-.8,79.5.4,69.6c1.3-10.3,2.7-20.8,8.5-29.7,5.3-7.9,13.3-10.8,21.5-8.8Zm100,69.5c.4-.3.8-.7,1.2-1,.3-.3.5-.5.8-.8,4.7-4.6,9.6-9.1,14-14,1.9-2.1,4-4,4.2-7.5.3-4.5-2.4-7-5-9.6-11.7-11.8-23.1-24-35.8-34.8-5.9-5.1-11.9-10.1-18.1-14.7-6.4-4.8-8.5-3.7-10,4.4-.2.8,0,1.6.1,2.5l-.2,4c-1.5.6-.9,1.9-1,3-.3,9-2.9,11.5-11.9,12-13.4.8-26.9,1.1-40.3,1-6.8,0-9.5,2.6-10.2,9.9-2.3,3.5-1.8,7.5-2.4,11.3-1.9,12.4-.6,24.5,2.8,36.3.8,3,3,6.1,6.9,6,11.1-.4,22,1.7,33.1,1.1,3.3-.2,6.7-.4,9.9,0,7.3,1,12,1,12.2,12.1,0,4.8.5,9.7,2.7,14.2,1.2,2.4,2,3.6,4.9,1.5,15.2-10.9,29.4-22.9,42-36.8Z"/>
      <path class="cls-2" d="m145.7,67.8c-11.7-11.8-23.1-24-35.8-34.8-5.9-5.1-11.9-10.1-18.1-14.7-6.4-4.8-8.5-3.7-10,4.4-.2.8,0,1.6.1,2.5,0,1.3-.1,2.6-.2,4-1.5.6-.9,1.9-1,3-.3,9-2.9,11.5-11.9,12-13.4.8-26.9,1.1-40.3,1-6.8,0-9.5,2.6-10.2,9.9-2.3,3.5-1.8,7.5-2.4,11.3-1.9,12.4-.6,24.5,2.8,36.3.8,3,3,6.1,6.9,6,11.1-.4,22,1.7,33.1,1.1,3.3-.2,6.7-.4,9.9,0,7.3,1,12,1,12.2,12.1,0,4.8.5,9.7,2.7,14.2,1.2,2.4,2,3.6,4.9,1.5,15.2-10.9,29.4-22.9,42-36.8.4-.3.8-.7,1.2-1,.3-.3.5-.5.8-.8,4.7-4.6,9.6-9.1,14-14,1.9-2.1,4-4,4.2-7.5.3-4.5-2.4-7-5-9.6Z"/>
      <path class="cls-1" d="m130.5,100.7c.4-.3.8-.7,1.2-1-.4.3-.8.7-1.2,1Z"/>
    </g>
  </g>
</svg>