<?xml version="1.0" encoding="UTF-8"?>
<svg id="Layer_2" data-name="Layer 2" xmlns="http://www.w3.org/2000/svg" width="118.2" height="140.4" viewBox="0 0 118.2 140.4">
  <defs>
    <style>
      .cls-1 {
        fill: #fff;
      }

      .cls-2 {
        fill: #7d89a2;
      }
    </style>
  </defs>
  <g id="Middle">
    <g>
      <path class="cls-1" d="m0,69.2C0,53.6.3,38.1,0,22.5-.3,8.6,10.2-.9,22.5,0c7,.5,14.1-1.1,21,1.3,7.9,2.7,12.5,9.1,13.1,17.5,1.4,20.5.8,41,.9,61.5,0,12.9-.2,25.8-.9,38.6-.7,13.6-9.7,20.1-21.5,21.2-3.9.4-7.9,0-11.9,0C11.7,140.6-.2,132,0,117.4c.2-16.1,0-32.1,0-48.2Zm6.9,0c0,11.8,0,23.5,0,35.3,0,6,.6,11.9,1.9,17.8.7,3.2,2.3,5.5,4.8,7,10,5.6,20.2,5.2,30.2,0,2.6-1.4,4.2-3.8,4.8-6.9,1.1-6.1,2-12.1,2-18.3,0-24.2,0-48.4,0-72.5,0-3.9-.5-7.8-1.1-11.7-.9-5.6-3.8-9.7-9.4-11.7-6.7-2.3-13.7-3.1-20.4-.9-4.4,1.5-9.5,3.4-10.7,8.8-1.2,5.3-2.2,10.7-2.1,16.3.2,12.3,0,24.5,0,36.8Z"/>
      <path class="cls-1" d="m60.6,69.7c0-15.7.2-31.5,0-47.2C60.3,8.6,70.7-.9,83.1,0c6.8.5,13.8-1,20.6,1.2,8.2,2.7,13,9.1,13.5,17.7,1.4,20.3.9,40.7.9,61,0,13,0,26.1-.8,39.1-.9,13.6-9.8,20.1-21.6,21.1-3.9.3-7.9,0-11.9,0-11.5.2-23.4-8.3-23.2-22.9.2-15.9,0-31.8,0-47.7Zm7,.2c0,11.4.1,22.9,0,34.3,0,6.2.7,12.3,2,18.3.7,3.1,2.3,5.4,5,6.8,9.9,5.4,19.9,5.3,29.8,0,2.7-1.4,4.4-3.7,5-6.7,1.2-6.1,2-12.1,2-18.3,0-24.5,0-49,0-73.5,0-3.7-.5-7.5-1.1-11.1-.8-5.2-3.4-9.1-8.7-11.1-7-2.7-14.2-3.6-21.3-1.2-4.3,1.4-9.2,3.3-10.4,8.5-1.1,5-2.3,10.1-2.2,15.3.1,12.9,0,25.8,0,38.7Z"/>
      <path d="m7,69.2c0-12.3.1-24.5,0-36.8,0-5.6,1-11,2.1-16.3,1.2-5.5,6.2-7.3,10.7-8.8,6.7-2.3,13.6-1.4,20.4.9,5.6,1.9,8.5,6,9.4,11.7.6,3.8,1,7.8,1.1,11.7,0,24.2,0,48.4,0,72.5,0,6.2-.8,12.3-2,18.3-.6,3.2-2.2,5.6-4.8,6.9-10,5.2-20.2,5.6-30.2,0-2.6-1.4-4.1-3.8-4.8-7-1.3-5.9-2-11.8-1.9-17.8.1-11.8,0-23.5,0-35.3Zm29.8,25.5c1.4-11-2-23.8-.3-36.9,1.4-10.4.3-21.2.3-31.7,0-1.4.6-3.1-.8-4.2-3.6-2.8-7.8-2.1-11.8-1.4-3.7.6-3.3,3.8-3.3,6.7,0,15.4,1.1,30.7.7,46.1-.3,13.5-.3,27.1-.8,40.6-.1,2.9.7,4.5,3.8,5.2,2.7.6,5.2.7,7.8.2,3-.6,4.8-1.9,4.5-5.6-.4-5.6-.1-11.2-.1-18.8Z"/>
      <path d="m67.6,69.9c0-12.9,0-25.8,0-38.7,0-5.2,1.1-10.3,2.2-15.3,1.2-5.2,6.1-7.1,10.4-8.5,7.1-2.4,14.2-1.5,21.3,1.2,5.3,2,7.8,5.9,8.7,11.1.6,3.7,1.1,7.4,1.1,11.1,0,24.5,0,49,0,73.5,0,6.2-.8,12.3-2,18.3-.6,3.1-2.3,5.3-5,6.7-9.9,5.2-19.9,5.4-29.8,0-2.6-1.4-4.3-3.7-5-6.8-1.3-6.1-2.1-12.1-2-18.3.2-11.4,0-22.8,0-34.3Zm29.8-25.2c0-7.3,0-12.5,0-17.8,0-6.1-.9-6.8-7.9-6.8-7.1,0-8,.8-8,6.7,0,15,.9,30.1.7,45.1-.2,13.9-.4,27.7-.7,41.6,0,1.4-.7,3.3.8,4.2,4,2.4,8.2,2.4,12.7.9,3.6-1.2,2.4-4,2.4-6.1-.4-12.8.6-25.7-.7-38.6-1-10.3,1.8-20.7.8-29.1Z"/>
      <path class="cls-2" d="m36.8,94.7c0,7.6-.3,13.2.1,18.8.3,3.7-1.5,5.1-4.5,5.6-2.6.5-5.1.4-7.8-.2-3.1-.7-3.9-2.3-3.8-5.2.5-13.5.5-27.1.8-40.6.4-15.3-.7-30.7-.7-46.1,0-2.8-.4-6,3.3-6.7,4-.7,8.2-1.4,11.8,1.4,1.4,1.1.8,2.8.8,4.2,0,10.6,1.1,21.3-.3,31.7-1.7,13.1,1.7,25.9.3,36.9Z"/>
      <path class="cls-2" d="m97.3,44.7c.9,8.4-1.9,18.8-.8,29.1,1.3,12.9.4,25.7.7,38.6,0,2.2,1.3,5-2.4,6.1-4.4,1.4-8.7,1.5-12.7-.9-1.4-.9-.8-2.8-.8-4.2.3-13.9.5-27.7.7-41.6.2-15-.7-30-.7-45.1,0-6,.9-6.7,8-6.7,7,0,7.9.7,7.9,6.8,0,5.3,0,10.6,0,17.8Z"/>
    </g>
  </g>
</svg>