<?xml version="1.0" encoding="UTF-8"?>
<svg id="Layer_2" data-name="Layer 2" xmlns="http://www.w3.org/2000/svg" width="101.7" height="147.8" viewBox="0 0 101.7 147.8">
  <defs>
    <style>
      .cls-1 {
        fill: #fefefe;
      }
    </style>
  </defs>
  <g id="Middle">
    <g>
      <path class="cls-1" d="m38,80.5l.2-1.3c0-4.7,1.3-8.4,4-11.2,2.7-2.7,5.6-4.6,8.8-5.4,3.2-.9,6.1-2.4,8.8-4.4,2.7-2.1,4-4.9,4-8.5s-1-6.3-3-8.3c-2-2-5.1-3-9.1-3s-7.1.6-9,1.9c-1.9,1.3-3.1,2.6-3.5,3.9l-.5,2c-1,2.9-2.1,5-3.5,6.5-1.3,1.5-3,2.2-5.1,2.2s-4.8-.7-8.2-2c-6.6-2.5-9.9-5.6-9.9-9.4s.3-3.3,1-5c.7-1.7,1.2-3.1,1.6-4.3.4-1.2,1.6-3.2,3.5-6,1.9-2.9,4.1-5.3,6.6-7.5,2.5-2.1,6-4.1,10.5-5.9,4.5-1.8,9.5-2.7,15-2.7,11.6,0,21.1,3.7,28.5,11.2,7.3,7.5,11,16.1,11,26s-.9,9.1-2.6,13.1c-1.7,4-3.8,7.2-6.2,9.5-4.8,4.6-9.3,7.7-13.5,9.2l-2.6.8c0,1.9,0,3.3-.2,4.3-.2,1-.7,2.1-1.5,3.2-.8,1.2-2.2,2-4.1,2.5-1.9.5-4.5.7-7.7.7s-5.7-.3-7.7-.8c-1.9-.5-3.3-1.5-4-2.8-.8-1.3-1.2-2.5-1.4-3.5-.2-1-.2-2.7-.2-4.9Zm-.7,29.4c.9-1.7,2.4-2.9,4.7-3.7,2.2-.8,5.8-1.2,10.6-1.2s8.3,1.1,10.5,3.2c2.1,2.1,3.2,6.3,3.2,12.4s-.6,7.7-1.6,9.8c-1.1,2.1-2.8,3.6-5,4.3-2.2.7-5.7,1.1-10.5,1.1s-8.3-1.2-10.9-3.5c-1.9-1.9-2.8-5-2.8-9.5v-2.6c0-2.5,0-4.4.2-5.8s.7-2.8,1.6-4.5Z"/>
      <path d="m50.2,12c11.6,0,21.1,3.7,28.5,11.2,7.3,7.5,11,16.1,11,26s-.9,9.1-2.6,13.1c-1.7,4-3.8,7.2-6.2,9.5-4.8,4.6-9.3,7.7-13.5,9.2l-2.6.8c0,1.9,0,3.3-.2,4.3-.2,1-.7,2.1-1.5,3.2-.8,1.2-2.2,2-4.1,2.5-1.9.5-4.5.7-7.7.7s-5.7-.3-7.7-.8c-1.9-.5-3.3-1.5-4-2.8-.8-1.3-1.2-2.5-1.4-3.5-.2-1-.2-2.7-.2-4.9l.2-1.3c0-4.7,1.3-8.4,4-11.2,2.7-2.7,5.6-4.6,8.8-5.4,3.2-.9,6.1-2.4,8.8-4.4,2.7-2.1,4-4.9,4-8.5s-1-6.3-3-8.3c-2-2-5.1-3-9.1-3s-7.1.6-9,1.9c-1.9,1.3-3.1,2.6-3.5,3.9l-.5,2c-1,2.9-2.1,5-3.5,6.5-1.3,1.5-3,2.2-5.1,2.2s-4.8-.7-8.2-2c-6.6-2.5-9.9-5.6-9.9-9.4s.3-3.3,1-5c.7-1.7,1.2-3.1,1.6-4.3.4-1.2,1.6-3.2,3.5-6,1.9-2.9,4.1-5.3,6.6-7.5,2.5-2.1,6-4.1,10.5-5.9,4.5-1.8,9.5-2.7,15-2.7m2.5,93c4.8,0,8.3,1.1,10.5,3.2,2.1,2.1,3.2,6.3,3.2,12.4s-.6,7.7-1.6,9.8c-1.1,2.1-2.8,3.6-5,4.3-2.2.7-5.7,1.1-10.5,1.1s-8.3-1.2-10.9-3.5c-1.9-1.9-2.8-5-2.8-9.5v-2.6c0-2.5,0-4.4.2-5.8.2-1.3.7-2.8,1.6-4.5.9-1.7,2.4-2.9,4.7-3.7,2.2-.8,5.8-1.2,10.6-1.2M50.2,0c-7,0-13.6,1.2-19.5,3.6-5.8,2.3-10.3,4.9-13.8,8-3.3,2.8-6.2,6.1-8.7,9.9-2.6,3.8-4,6.3-4.8,8.5-.4,1.1-1,2.5-1.6,4.2-1.2,3.1-1.8,6.2-1.8,9.4,0,6.3,3.1,15,17.6,20.6,4.2,1.6,7.8,2.5,11.1,2.7-1.4,3.1-2.4,6.9-2.5,11.6v.6c0,0-.2.7-.2.7v.7c0,2.9.1,5,.4,6.7.4,2.6,1.4,5.1,2.9,7.7.6,1,1.4,2.1,2.5,3.3-2.5,2-4.1,4.3-5.1,6.1-1.5,3-2.5,5.8-2.8,8.5-.2,1.9-.3,4.2-.3,7.3v2.6c0,7.8,2.1,13.9,6.3,18.1l.2.2.2.2c4.8,4.4,11.2,6.6,19,6.6s10.6-.5,14.1-1.6c5.3-1.7,9.5-5.2,12.1-10.2,2-3.9,3-8.9,3-15.3,0-9.6-2.2-16.4-6.7-20.9-.3-.3-.6-.6-1-.9.9-.9,1.7-1.7,2.2-2.5,1.4-1.9,2.4-3.9,3-5.9,4.4-2.3,8.8-5.5,13.4-9.9,3.6-3.4,6.6-8,8.9-13.5,2.3-5.5,3.5-11.5,3.5-17.8,0-13.1-4.9-24.7-14.5-34.4C77.6,5,65.1,0,50.2,0h0Z"/>
    </g>
  </g>
</svg>