<?xml version="1.0" encoding="UTF-8"?>
<svg id="Layer_2" data-name="Layer 2" xmlns="http://www.w3.org/2000/svg" width="182.5" height="163.6" viewBox="0 0 182.5 163.6">
  <defs>
    <style>
      .cls-1 {
        fill: #ae0038;
      }

      .cls-2 {
        fill: #dc003e;
      }

      .cls-3 {
        fill: #f16b95;
      }

      .cls-4 {
        fill: #fefefe;
      }
    </style>
  </defs>
  <g id="Middle">
    <g>
      <path class="cls-4" d="m182.3,55.3c1.4,18.6-7.4,34.9-18.8,50.2-9.5,12.7-21.1,23.6-32.6,34.5-8,7.6-16.6,14.6-25.7,20.9-2.5,1.7-5.3,3-8.7,2.8-4.5-.3-8.9-.2-13.4,0-3.6.2-5.6-2.3-8-4.1-23.7-17.4-45-37.3-62.1-61.4C6.8,89.3,1.4,79.6.4,68.6c-.7-7.7-.2-15.5-.2-23.2C.3,25.4,16.9,6,36.4,2.1c16-3.1,31.1-1.9,45.1,7.1,3.3,2.1,5.9,6.6,9.4,6.4,3.1-.2,5.8-4.4,8.9-6.3,17.3-10.4,35.9-12.6,54.1-4.3,18.3,8.4,27.8,23.9,28.4,44.3,0,1.5,0,3,0,5.8Zm-90.5-27.3c-3.4-3-6.6-5.8-9.7-8.7-12.2-10.9-27.2-13.8-42.2-10.3C16,14.5,3.6,37.9,7,61.7c2.7,18.9,13.5,33.9,25.4,48.2,7.3,8.7,15.9,16,24,23.9,7.5,7.2,15.5,13.8,24.1,19.5,6.5,4.3,14.8,4.3,21.2-.2,15.7-10.9,29.6-23.8,42.7-37.6,8.7-9.2,16.5-19,22.4-30.2,10.1-19.2,12.6-38.4.9-57.8-11.7-19.4-28.1-21.6-47-18.4-12.6,2.1-22.2,9.7-29.1,18.8Z"/>
      <path d="m91.8,28c6.9-9.2,16.5-16.7,29.1-18.8,18.9-3.2,35.4-.9,47,18.4,11.6,19.4,9.2,38.6-.9,57.8-5.9,11.3-13.7,21-22.4,30.2-13.1,13.8-27,26.7-42.7,37.6-6.4,4.5-14.7,4.5-21.2.2-8.7-5.7-16.7-12.3-24.1-19.5-8.1-7.8-16.7-15.1-24-23.9-12-14.3-22.7-29.3-25.4-48.2C3.6,37.9,16,14.5,39.8,9c15-3.5,30-.6,42.2,10.3,3.2,2.8,6.4,5.7,9.7,8.7Zm-69,15c-1.2.3-1,1.2-.8,2-1.8,8.5-1.6,16.8,1.8,24.9,2.6,9.1,8.1,16.7,13.7,24.1,8.2,10.8,17.9,20.1,27.9,29.1,7.4,6.7,15.2,13,23.2,19,1.7,1.3,3.1,1.1,5.2-.2,14.4-9.4,26.5-21.5,38.7-33.4,7.9-7.7,15.1-16.4,20.5-26.2,4-7.3,8.5-14.4,7.7-23.3,0-4,0-7.9,0-11.9,0-.8.3-1.7.1-2.5-3.3-16.1-21.9-26.6-37.9-21.8-11.4,3.4-19.8,10.3-25.8,20.6-3.2,5.5-8.1,5.9-11,1.3-9.1-14.3-20.9-23.3-39.1-22.7-11,.4-22.7,12-24.4,21.1h0Z"/>
      <path class="cls-2" d="m160.7,47c0,4,0,7.9,0,11.9-1.6.2-2,1.6-2.6,2.7-6.3,11.2-14.2,21-23.4,29.8-10.9,10.5-23.2,19.5-35.8,27.8-1.9,1.2-4,1.7-6.2,1.2-11.4-2.6-22-7.1-31.5-13.8-11.7-8.2-21.2-18.7-30.2-29.7-2-2.5-3.1-6.4-7.2-7-3.4-8.1-3.6-16.4-1.8-24.9.8-.5,1.1-1.1.8-2,0,0,0,0,0,0,3.4-1.3,4.3-6.3,8.9-5.9,0,1,0,1.9.1,2.9-.6,5.4,4.3,8.7,10,6.3,3.8-1.6,7.5-3.4,11.1-5.5,2.4-1.4,5-3.2,5.6-6,.7-3.4,2.2-3.1,4.5-2,7.1,3.2,13.6,7.3,18.1,14,1.7,2.6,4,4.8,6,7.2,1.7,2.1,3.5,2.2,6.1,1.2,4.2-1.7,6.4-5,8.9-8.3,2-2.6,3.9-3.3,6-.3,1.9,2.8,4.8,2.9,7.5,2.1,5.4-1.6,10.3-4.3,14.6-8.1,2.5-2.2,3.9-4.7,2.7-7.9-1-2.7.4-2.9,2.3-2.5,4.5.9,8.7,2.4,12.7,4.9,5,3.2,8.1,8.5,12.9,11.8Z"/>
      <path class="cls-1" d="m23.8,69.8c4.1.6,5.1,4.5,7.2,7,9,11.1,18.5,21.5,30.2,29.7,9.5,6.7,20.2,11.2,31.5,13.8,2.2.5,4.3,0,6.2-1.2,12.7-8.3,24.9-17.3,35.8-27.8,9.2-8.8,17.1-18.7,23.4-29.8.6-1.1,1-2.5,2.6-2.7.9,8.9-3.7,16.1-7.7,23.3-5.4,9.8-12.6,18.5-20.5,26.2-12.2,11.9-24.2,24-38.7,33.4-2.1,1.3-3.4,1.5-5.2.2-8-6-15.8-12.3-23.2-19-10-9-19.7-18.4-27.9-29.1-5.6-7.4-11.1-14.9-13.7-24.1Z"/>
      <path class="cls-3" d="m160.7,47c-4.9-3.3-7.9-8.6-12.9-11.8-4-2.5-8.2-4.1-12.7-4.9-1.9-.4-3.3-.2-2.3,2.5,1.1,3.2-.3,5.7-2.7,7.9-4.3,3.8-9.2,6.5-14.6,8.1-2.8.8-5.6.6-7.5-2.1-2.1-3-4.1-2.4-6,.3-2.5,3.3-4.7,6.6-8.9,8.3-2.6,1-4.4.9-6.1-1.2-2-2.4-4.3-4.6-6-7.2-4.5-6.7-10.9-10.8-18.1-14-2.3-1-3.8-1.4-4.5,2-.6,2.8-3.2,4.6-5.6,6-3.5,2.1-7.3,3.9-11.1,5.5-5.7,2.4-10.6-.9-10-6.3,1.9.4,2.3,3,4.9,2.7,6.3-.8,10.8-4.4,14.6-8.9,3.2-3.8.9-8.3-4.1-8.7-7.1-.6-14.2,4.9-15.4,12-4.6-.4-5.5,4.6-8.9,5.9,1.7-9.1,13.4-20.8,24.4-21.1,18.3-.6,30.1,8.4,39.1,22.7,2.9,4.6,7.8,4.2,11-1.3,5.9-10.2,14.3-17.2,25.8-20.6,16-4.8,34.5,5.7,37.9,21.8.2.8,0,1.6-.1,2.5Zm-37.4-20.9c-3.9.3-7.4,1.8-10,4.6-2.2,2.4-5.1,5.3-2,9,3,3.6,6.3,4.2,10.1.8,1.6-1.4,3.5-2.3,5.4-3.3,3-1.6,3.8-4.3,3-7.1-.8-2.9-3.3-4.4-6.6-4.1Z"/>
      <path class="cls-3" d="m22.7,42.9c.2.9,0,1.6-.8,2-.1-.8-.3-1.7.8-2Z"/>
      <path class="cls-4" d="m31.6,37.1c1.3-7.1,8.3-12.6,15.4-12,5,.4,7.3,4.8,4.1,8.7-3.7,4.5-8.3,8.1-14.6,8.9-2.6.3-3-2.3-4.9-2.7,0-1,0-1.9-.1-2.9Z"/>
      <path class="cls-4" d="m123.3,26c3.3-.4,5.7,1.1,6.6,4.1.8,2.8,0,5.5-3,7.1-1.9,1-3.9,1.9-5.4,3.3-3.8,3.4-7.1,2.8-10.1-.8-3.1-3.7-.2-6.7,2-9,2.5-2.8,6.1-4.3,10-4.6Z"/>
    </g>
  </g>
</svg>