<?xml version="1.0" encoding="UTF-8"?>
<svg id="Layer_2" data-name="Layer 2" xmlns="http://www.w3.org/2000/svg" width="158.6" height="158.6" viewBox="0 0 158.6 158.6">
  <defs>
    <style>
      .cls-1 {
        fill: #6a3200;
      }

      .cls-2 {
        fill: #d67c07;
      }

      .cls-3 {
        fill: #fba900;
      }

      .cls-4 {
        fill: #fdcf75;
      }

      .cls-5 {
        fill: #fefefe;
      }
    </style>
  </defs>
  <g id="Middle">
    <g>
      <g>
        <path d="m78.9,158.6C35.3,158.9-1.5,122.9,0,76.7,1.5,33.9,34.9,0,79.8,0c43.3,0,79.7,34,78.8,81.6-.8,41.6-34,77.1-79.7,77ZM15.9,66.2c-1.8,3.7-2.1,7.9-2,11.8.3,11.9,2.9,23.3,8.9,33.9,13.2,23.6,40.7,36.6,67.9,31.8,29.6-5.1,51.5-29.7,54-59,.4-4.4,1.3-9.2-.9-13.6,0-2.1,0-4.1-.4-6.3-3.2-13.5-10-24.7-20.3-34-15.4-13.9-33.9-18.7-53.7-16-17.5,2.4-32.2,11.3-42.6,26-5.4,7.6-9.9,15.7-10.8,25.3Z"/>
        <path class="cls-3" d="m143.8,71.2c2.2,4.4,1.3,9.1.9,13.6-2.4,29.3-24.4,53.8-54,59-27.2,4.7-54.7-8.3-67.9-31.8-6-10.6-8.5-22-8.9-33.9-.1-3.9.2-8.1,2-11.8,1.1-.8,1.2-2.6,2.8-3,0,3-2.6,6.7,2,8.4,2.6,1,5.2,1.1,7.2-1.4,2.2-2.9,2.5-6.4,1.2-9.4-1.2-2.8-4.2-1.6-6.6-1-.6.2-1.3.3-1.9.4,1.7-4.6,4.8-8,8.2-11.6,2.4,7.6,4.6,9.1,10.7,7.7-4.2,9.5-7.8,19.2-5.2,29.9-.9.5-1.4,1.1-1.8,2.2-2.5,6.3.3,11.7,3.2,16.8,8.5,14.9,20.3,25.1,38.4,24.5,7.3-.2,14.8-1.2,20-7.7,1-.5,2-1.1,3-1.6,18.1-9,27.6-23.3,26.9-43.9-.8-21.6-18.4-41.8-42.8-43.1-6.9-.4-13.2,1.6-19.8,3.1,1.7-2.4,3.6-4.7,2.9-8-.6-2.8,1.7-3.3,3.6-3.7,8.6-1.8,17.3-1.8,25.9,0,17.6,3.9,30.1,14.4,39.3,29.8,3.3,5.6,4.9,12.4,10.5,16.5Z"/>
        <path class="cls-4" d="m18.7,63.2c-1.6.3-1.7,2.1-2.8,3,.9-9.6,5.4-17.7,10.8-25.3,10.5-14.7,25.2-23.7,42.6-26,19.8-2.7,38.3,2.1,53.7,16,10.3,9.3,17.1,20.5,20.3,34,.5,2.2.5,4.2.4,6.3-5.6-4.2-7.1-11-10.5-16.5-9.2-15.3-21.6-25.8-39.3-29.8-8.6-1.9-17.3-1.9-25.9,0-1.8.4-4.2.9-3.6,3.7.7,3.3-1.2,5.6-2.9,8-9.1,4.7-16.3,11.4-21.9,19.9-6.1,1.3-8.3-.2-10.7-7.7-3.4,3.6-6.6,7-8.2,11.6h0c-1,.3-1.2,1.1-1,2h0c-.3.3-.7.6-1,1h0Zm14.8-23.6c0,5.8,1.9,7.3,7,5.8,7.5-2.2,12.5-8.2,18-13.1,3.1-2.8.3-8.3-4-8.8-6-.8-19.2,7.9-20.8,13.7-.3.9-.2,2-.2,2.4Z"/>
        <path class="cls-2" d="m39.7,56.4c5.6-8.5,12.8-15.2,21.9-19.9,6.5-1.5,12.9-3.5,19.8-3.1,24.5,1.3,42,21.5,42.8,43.1.7,20.6-8.8,34.9-26.9,43.9-1,.5-2,1.1-3,1.6-8.6,2.3-17.4,2.8-26.1.8-17.2-3.9-31.6-19.6-33.6-36.5-2.6-10.7,1-20.3,5.2-29.9Zm69.5,35.6h0c1.7-1.9,1.6-4.4,2.1-6.7,5.2-23.8-17.4-42.4-39.2-37-16.6,4.1-26.4,18.3-24.2,35.5,1.6,13.1,12.7,25.9,26.6,26.9,1,.9,2.2,1.2,3.6,1.2,10.6-.3,23.8-4.6,29.2-17.9,1.5,0,2-.7,1.9-2.1Z"/>
        <path class="cls-4" d="m34.5,86.3c2,16.9,16.4,32.6,33.6,36.5,8.7,2,17.5,1.5,26.1-.8-5.1,6.4-12.7,7.4-20,7.7-18.2.6-30-9.6-38.4-24.5-2.9-5.1-5.7-10.5-3.2-16.8.4-1,.9-1.7,1.8-2.2Z"/>
        <path class="cls-4" d="m20.7,60.3c.6-.1,1.3-.2,1.9-.4,2.4-.7,5.4-1.8,6.6,1,1.3,3,1,6.5-1.2,9.4-2,2.5-4.6,2.4-7.2,1.4-4.6-1.8-2-5.5-2-8.4,0,0,0,0,0,0,.3-.3.7-.7,1-1,0,0,0,0,0,0,.9-.4,1.2-1.1,1-2h0Z"/>
        <path class="cls-5" d="m33.6,39.6c0-.4,0-1.4.2-2.4,1.6-5.9,14.8-14.6,20.8-13.7,4.3.6,7.2,6.1,4,8.8-5.5,4.9-10.5,10.9-18,13.1-5.1,1.5-7,0-7-5.8Z"/>
        <path class="cls-3" d="m20.7,60.2c.2.9,0,1.7-1,2-.1-.9,0-1.7,1-2Z"/>
        <path class="cls-3" d="m19.8,62.2c-.3.3-.7.7-1,1,.3-.3.7-.7,1-1Z"/>
        <path class="cls-3" d="m74.5,110.8c-14-1-25-13.8-26.6-26.9-2.2-17.3,7.6-31.5,24.2-35.5,21.8-5.4,44.3,13.2,39.2,37-.5,2.3-.4,4.8-2.1,6.7-.2-2,.9-4.6-1.8-5.7-2.5-1-4.4.6-6.1,2.2-.5.4-.9.9-1.4,1.4-5.6,5.8-11.3,11.3-19.2,14.1-2.7,1-6.5,2.3-6.1,6.7Z"/>
        <path class="cls-4" d="m74.5,110.8c-.4-4.4,3.4-5.7,6.1-6.7,7.9-2.8,13.6-8.3,19.2-14.1.5-.5.9-1,1.4-1.4,1.8-1.6,3.7-3.2,6.1-2.2,2.6,1,1.5,3.7,1.8,5.7,0,0,0,0,0,0-1,.3-1.7,1-1.9,2.1-5.4,13.2-18.6,17.5-29.2,17.9-1.4,0-2.6-.2-3.6-1.2Z"/>
        <path class="cls-3" d="m107.3,94.1c.2-1.1.8-1.7,1.9-2.1,0,1.3-.4,2.1-1.9,2.1Z"/>
      </g>
      <g>
        <path class="cls-1" d="m100.2,41.2c.5-.7,1.3-1.3,2.2-2,.9-.6,2.2-.9,3.8-.9s4.1,1.2,7.5,3.5c3.4,2.4,5.1,4.8,5.1,7.3s-1,4-3.1,7.1l-18.8,28h1.8c3.7,0,5.9.4,6.7,1.1,1.5,1.3,2.2,3,2.2,5s-.2,3.5-.6,4.4c-.4.9-1.1,1.6-2,1.9-1.4.6-3.4.9-6,.9h-9v8.1h8.7c3.7,0,5.9.4,6.7,1.1,1.5,1.3,2.2,2.9,2.2,4.9s-.2,3.4-.6,4.3c-.4.9-1.1,1.6-2,2-1.4.5-3.4.7-6,.7h-9c0,5-1.7,8-5,9-1.5.4-3.4.6-5.8.6s-4.4-.2-5.9-.7c-1.5-.4-2.6-1.2-3.2-2.1-1.1-1.7-1.6-4-1.6-6.8h-9.2c-1.8,0-3.2,0-4.2-.2-1-.2-1.9-.8-2.9-1.8-.9-1-1.4-2.5-1.4-4.6s.5-3.6,1.6-4.6c1.1-1,2.1-1.6,3.1-1.7s2.4-.2,4.4-.2h8.6v-8.1h-9.2c-1.8,0-3.2,0-4.2-.2-1-.2-1.9-.8-2.9-1.8-.9-1-1.4-2.4-1.4-4.2s.2-3.2.7-4.2c.5-1,1.3-1.6,2.3-2,1.5-.6,3.5-.9,6-.9h1.7l-19.2-28.6c-1.9-2.9-2.8-5-2.8-6.4,0-2.5,1.8-5,5.3-7.4,3.5-2.4,6-3.6,7.6-3.6s2.8.3,3.7.9c.9.6,1.7,1.3,2.2,2,.5.7,1.2,1.7,2.1,3l18.7,30,18.7-30c.9-1.3,1.6-2.3,2.1-3Z"/>
        <path class="cls-1" d="m106.2,38.3c1.6,0,4.1,1.2,7.5,3.5,3.4,2.4,5.1,4.8,5.1,7.3s-1,4-3.1,7.1l-18.8,28h1.8c3.7,0,5.9.4,6.7,1.1,1.5,1.3,2.2,3,2.2,5s-.2,3.5-.6,4.4c-.4.9-1.1,1.6-2,1.9-1.4.6-3.4.9-6,.9h-9v8.1h8.7c3.7,0,5.9.4,6.7,1.1,1.5,1.3,2.2,2.9,2.2,4.9s-.2,3.4-.6,4.3c-.4.9-1.1,1.6-2,2-1.4.5-3.4.7-6,.7h-9c0,5-1.7,8-5,9-1.5.4-3.4.6-5.8.6s-4.4-.2-5.9-.7c-1.5-.4-2.6-1.2-3.2-2.1-1.1-1.7-1.6-4-1.6-6.8h-9.2c-1.8,0-3.2,0-4.2-.2-1-.2-1.9-.8-2.9-1.8-.9-1-1.4-2.5-1.4-4.6s.5-3.6,1.6-4.6c1.1-1,2.1-1.6,3.1-1.7s2.4-.2,4.4-.2h8.6v-8.1h-9.2c-1.8,0-3.2,0-4.2-.2-1-.2-1.9-.8-2.9-1.8-.9-1-1.4-2.4-1.4-4.2s.2-3.2.7-4.2c.5-1,1.3-1.6,2.3-2,1.5-.6,3.5-.9,6-.9h1.7l-19.2-28.6c-1.9-2.9-2.8-5-2.8-6.4,0-2.5,1.8-5,5.3-7.4,3.5-2.4,6-3.6,7.6-3.6s2.8.3,3.7.9c.9.6,1.7,1.3,2.2,2,.5.7,1.2,1.7,2.1,3l18.7,30,18.7-30c.9-1.3,1.6-2.3,2.1-3,.5-.7,1.3-1.3,2.2-2,.9-.6,2.2-.9,3.8-.9"/>
      </g>
    </g>
  </g>
</svg>