<?xml version="1.0" encoding="UTF-8"?>
<svg id="Layer_2" data-name="Layer 2" xmlns="http://www.w3.org/2000/svg" width="127.5" height="141.8" viewBox="0 0 127.5 141.8">
  <defs>
    <style>
      .cls-1 {
        fill: #fefefe;
      }
    </style>
  </defs>
  <g id="Middle">
    <g>
      <path class="cls-1" d="m91.1,15.8c.7-.9,1.7-1.8,2.9-2.6,1.2-.8,2.9-1.2,5-1.2s5.4,1.5,9.8,4.6c4.5,3.1,6.7,6.3,6.7,9.6s-1.3,5.2-4,9.3l-24.6,36.6h2.4c4.8,0,7.7.5,8.8,1.4,1.9,1.7,2.9,3.9,2.9,6.5s-.3,4.5-.8,5.8c-.5,1.2-1.4,2.1-2.6,2.5-1.8.7-4.4,1.1-7.8,1.1h-11.8v10.6h11.4c4.8,0,7.7.5,8.8,1.4,1.9,1.7,2.9,3.8,2.9,6.4s-.3,4.5-.8,5.7c-.5,1.2-1.4,2.1-2.6,2.6-1.8.6-4.4,1-7.8,1h-11.8c0,6.5-2.2,10.5-6.6,11.8-1.9.5-4.5.8-7.6.8s-5.7-.3-7.7-.9c-2-.6-3.4-1.5-4.2-2.8-1.4-2.2-2.1-5.2-2.1-9h-12c-2.3,0-4.2-.1-5.4-.3-1.3-.2-2.5-1-3.8-2.3-1.2-1.3-1.8-3.3-1.8-6s.7-4.7,2.1-6c1.4-1.3,2.7-2.1,4-2.2s3.2-.2,5.8-.2h11.2v-10.6h-12c-2.3,0-4.2-.1-5.4-.3-1.3-.2-2.5-1-3.8-2.3-1.2-1.3-1.8-3.2-1.8-5.5s.3-4.2,1-5.4c.6-1.3,1.7-2.1,3-2.6,2-.7,4.6-1.1,7.8-1.1h2.2L15.7,34.7c-2.5-3.7-3.7-6.5-3.7-8.3,0-3.3,2.3-6.5,6.9-9.7,4.6-3.1,7.9-4.7,9.9-4.7s3.7.4,4.9,1.2c1.2.8,2.2,1.7,2.9,2.6.7.9,1.6,2.2,2.8,3.9l24.5,39.2,24.5-39.2c1.2-1.7,2.1-3,2.8-3.9Z"/>
      <path d="m99,12c2.1,0,5.4,1.5,9.8,4.6,4.5,3.1,6.7,6.3,6.7,9.6s-1.3,5.2-4,9.3l-24.6,36.6h2.4c4.8,0,7.7.5,8.8,1.4,1.9,1.7,2.9,3.9,2.9,6.5s-.3,4.5-.8,5.8c-.5,1.2-1.4,2.1-2.6,2.5-1.8.7-4.4,1.1-7.8,1.1h-11.8v10.6h11.4c4.8,0,7.7.5,8.8,1.4,1.9,1.7,2.9,3.8,2.9,6.4s-.3,4.5-.8,5.7c-.5,1.2-1.4,2.1-2.6,2.6-1.8.6-4.4,1-7.8,1h-11.8c0,6.5-2.2,10.5-6.6,11.8-1.9.5-4.5.8-7.6.8s-5.7-.3-7.7-.9c-2-.6-3.4-1.5-4.2-2.8-1.4-2.2-2.1-5.2-2.1-9h-12c-2.3,0-4.2-.1-5.4-.3-1.3-.2-2.5-1-3.8-2.3-1.2-1.3-1.8-3.3-1.8-6s.7-4.7,2.1-6c1.4-1.3,2.7-2.1,4-2.2s3.2-.2,5.8-.2h11.2v-10.6h-12c-2.3,0-4.2-.1-5.4-.3-1.3-.2-2.5-1-3.8-2.3-1.2-1.3-1.8-3.2-1.8-5.5s.3-4.2,1-5.4c.6-1.3,1.7-2.1,3-2.6,2-.7,4.6-1.1,7.8-1.1h2.2L15.7,34.7c-2.5-3.7-3.7-6.5-3.7-8.3,0-3.3,2.3-6.5,6.9-9.7,4.6-3.1,7.9-4.7,9.9-4.7s3.7.4,4.9,1.2c1.2.8,2.2,1.7,2.9,2.6.7.9,1.6,2.2,2.8,3.9l24.5,39.2,24.5-39.2c1.2-1.7,2.1-3,2.8-3.9.7-.9,1.7-1.8,2.9-2.6,1.2-.8,2.9-1.2,5-1.2m0-12c-4.4,0-8.3,1.1-11.5,3.2-2.4,1.5-4.3,3.3-5.9,5.3-.8,1.1-1.8,2.5-3.2,4.4l-.2.2v.2c-.1,0-14.4,22.9-14.4,22.9l-14.3-22.9v-.2c-.1,0-.3-.2-.3-.2-1.3-1.9-2.3-3.3-3.1-4.4-1.5-2-3.5-3.8-5.9-5.3-3.2-2.1-7.1-3.2-11.4-3.2s-9.7,2-16.7,6.8C2.1,13.7,0,21.3,0,26.4s1.7,9,5.7,14.9h0s0,0,0,0l15.7,23.4c-1.9,1.5-3.4,3.4-4.5,5.6-1.5,3-2.2,6.5-2.2,10.8,0,6.6,2.6,11,4.9,13.5-2.4,2.7-4.9,7-4.9,13.7s1.7,10.5,5,14.1c3.8,4.2,7.9,5.6,10.6,6,1.9.3,4.3.5,7.4.5h2.2c.5,1.2,1,2.2,1.7,3.3v.2c.1,0,.2.2.2.2,1.7,2.5,4.9,5.9,10.8,7.7,3.1.9,6.7,1.4,11.1,1.4s7.8-.4,10.8-1.2h.2c0,0,.2-.1.2-.1,3.2-1,9.3-3.8,12.6-11.3h2.2c4.8,0,8.7-.5,11.8-1.6l.5-.2.5-.2c3.9-1.8,6.9-4.8,8.6-8.8,1.2-2.8,1.8-6.2,1.8-10.5s-1.6-9.2-4.5-12.9c1.1-1.3,2-2.7,2.7-4.3,1.2-2.8,1.8-6.2,1.8-10.6s-2.4-11.3-6.7-15.3l15.2-22.6h0c0,0,0-.1,0-.1,4.1-6.3,6-11.2,6-15.9s-2.1-12.7-11.9-19.5c-6.9-4.7-11.9-6.8-16.7-6.8h0Z"/>
    </g>
  </g>
</svg>