<?xml version="1.0" encoding="UTF-8"?>
<svg id="Layer_2" data-name="Layer 2" xmlns="http://www.w3.org/2000/svg" width="131.9" height="152.9" viewBox="0 0 131.9 152.9">
  <defs>
    <style>
      .cls-1 {
        fill: #b7b8bc;
      }

      .cls-2 {
        fill: #fefefe;
      }
    </style>
  </defs>
  <g id="Middle">
    <g>
      <path d="m131.8,78.2c-.5,7.8,1.1,16.8-1.9,25.7-2.6,7.5-7.2,12.8-14.9,14.9-3.3.9-4.1,2.6-4.3,6-.4,7.5-.5,15.2-3.9,22.3-1.7,3.6-4.6,5.2-8.3,5.7-7.6.9-14.8-1-21.7-4-13.4-5.6-24.1-15-34.7-24.5-8.3-7.5-8-7.8-18.4-8.4-12.2-.7-18.8-6.8-20.7-18.9C1.9,90.2,0,83.7,0,76.8c0-9,2.2-17.7,4.3-26.3,1.7-6.8,9.8-12.3,17.5-12.4,4.2,0,9.2,1.2,12.5,0,3.1-1.1,5.1-6.3,8.3-9.2,11.7-10.5,23.5-20.9,38.8-26,3.7-1.2,7.4-2.4,11.2-2.7,10.2-1,16.7,5.3,17.2,15.8.2,4.9,1.7,9.8,1,14.7-.4,2.4,1.6,2.8,2.9,3.2,13.6,3.7,17,14.5,18,25.7.5,5.8,0,11.6,0,18.6Zm-20.8-22.3v50.9c4.1-3.2,6.9-6.3,6.9-11.1,0-13.3,0-26.6-.1-39.9-1.4-3.5-1.8-7.8-6.7-8.4v8.4Zm-94.8,5c-.2,2-.9,3.8-1.3,5.7-1.6,8.7-.5,17.3,1,25.9,1.4,7.9,7.6,12.6,16.2,11.4,4.8.6,8.8,4.4,14,3.9,4.2,5.5,9.5,10,14.7,14.4,9,7.7,18.6,14.3,30.3,17.2,5.5,1.4,6.9.4,6.8-5.3,0-14.1,0-28.1-.9-42.2-1.4-20.3,1.6-40.7.7-61.1,0-4.6.3-9.3,0-13.9,0-2,0-3.9-3.9-3.3-6.3,1-11.8,3.3-17.2,6.1-9.9,5.1-17.9,13-26.1,20.4-2.4,2.1-5.5,4.7-5.5,8.8-.1.3-.2.6-.3,1-4.3,0-8.6,0-12.9,0-8-2.5-15.8,2.9-15.7,10.9Z"/>
      <path class="cls-1" d="m44.8,49.8c-1.6,14.6-.5,29.3-.8,43.9,0,4.8.9,9.4,2.1,14-5.2.5-9.1-3.2-14-3.9-1.5-4.2-2-8.5-2.1-12.9-.2-10.7-.1-21.4-.1-32.1,2.3-2.6-.2-6.3,2-9,4.3,0,8.6,0,12.9,0Z"/>
      <path class="cls-2" d="m97.7,30.9c0-4.6.3-9.3,0-13.9,0-2,0-3.9-3.9-3.3-6.3,1-11.8,3.3-17.2,6.1-9.9,5.1-17.9,13-26.1,20.4-2.4,2.1-5.5,4.7-5.5,8.8l-.3,1c-1.6,14.6-.5,29.3-.8,43.9,0,4.8.9,9.4,2.1,14,4.2,5.5,9.5,10,14.7,14.4,9,7.7,18.6,14.3,30.3,17.2,5.5,1.4,6.9.4,6.8-5.3,0-14.1,0-28.1-.9-42.2-1.4-20.3,1.6-40.7.7-61.1Z"/>
      <path class="cls-2" d="m30,91c-.2-10.7-.1-21.4-.1-32.1-1.2,0-2.3,0-3.5,0,1.2,0,2.3,0,3.5,0,2.3-2.6-.2-6.3,2-9-8-2.5-15.8,2.9-15.7,10.9-.2,2-.9,3.8-1.3,5.7-1.6,8.8-.5,17.3,1,25.9,1.4,7.9,7.6,12.6,16.2,11.4-1.5-4.2-2-8.5-2.1-12.9Z"/>
      <path class="cls-2" d="m117.7,55.9c-1.4-3.5-1.8-7.8-6.7-8.4v59.4c4.1-3.2,6.9-6.3,6.9-11.1,0-13.3,0-26.6-.1-39.9Z"/>
    </g>
  </g>
</svg>