<?xml version="1.0" encoding="UTF-8"?>
<svg id="Layer_2" data-name="Layer 2" xmlns="http://www.w3.org/2000/svg" width="115.5" height="146.9" viewBox="0 0 115.5 146.9">
  <defs>
    <style>
      .cls-1 {
        fill: #fefefe;
      }
    </style>
  </defs>
  <g id="Middle">
    <g>
      <path class="cls-1" d="m52.8,73.1l.2,5.1h33.3c1.8,0,3.2,0,4.1.2.9.2,1.8.9,2.8,2.2,1,1.3,1.4,3.1,1.4,5.4s-.2,4.1-.6,5.3c-.4,1.2-1,2.1-1.8,2.5-1.4.7-3.4,1.1-6.1,1.1h-30.7c1.6,5,3.7,8.3,6.2,9.8,2.6,1.5,5.4,2.2,8.6,2.2h19.4c4.3,0,7.3.5,9.2,1.5,1.9,1,3.1,2.5,3.8,4.6.6,2,1,4.7,1,7.9s-.3,5.9-1,7.8c-.6,2-1.7,3.3-3,4.1-2.1,1.3-5.2,1.9-9.1,1.9h-20.3c-6.4,0-12-1.1-16.9-3.4-4.9-2.2-8.7-4.7-11.7-7.5-2.9-2.8-5.7-6.7-8.4-11.7-2.7-5-4.7-10.8-6.1-17.3h-6.6c-2.7,0-4.6-.3-5.8-.8-1.8-1.1-2.7-3.3-2.7-6.6s.5-5.7,1.4-7c1-1.3,1.9-2.1,2.9-2.2s2.3-.2,4-.2h4.8c-.1-1.4-.2-3.5-.2-6.4v-2.9h-4.5c-2.7,0-4.6-.3-5.8-.8-1.8-1.1-2.7-3.3-2.7-6.6s.5-5.7,1.4-7c1-1.3,1.9-2.1,2.9-2.2s2.3-.2,4-.2h6.4c1.5-7.9,3.9-14.6,7.4-20.2,3.4-5.5,7.3-9.7,11.7-12.3,8-4.9,16.2-7.4,24.5-7.4h19.8c2.3,0,4.1,0,5.4.2,1.2.2,2.6.7,4.1,1.5,1.5.9,2.5,2.3,3.1,4.3.6,2,.9,4.7.9,8s-.3,6-1,8c-.6,2-1.8,3.4-3.4,4.2-1.6.8-3,1.3-4.2,1.4-1.2.2-3.1.2-5.5.2h-19.4c-6.9,0-11.7,3.9-14.4,11.8h30.6c4.3,0,6.8,1.2,7.7,3.7.4,1.3.6,2.9.6,4.9s-.2,3.6-.6,4.8c-.4,1.2-1,2.1-1.8,2.5-1.4.7-3.4,1.1-6.1,1.1h-33.1l-.2,4.3Z"/>
      <path d="m90.1,12c2.3,0,4.1,0,5.4.2,1.2.2,2.6.7,4.1,1.5,1.5.9,2.5,2.3,3.1,4.3.6,2,.9,4.7.9,8s-.3,6-1,8c-.6,2-1.8,3.4-3.4,4.2-1.6.8-3,1.3-4.2,1.4-1.2.2-3.1.2-5.5.2h-19.4c-6.9,0-11.7,3.9-14.4,11.8h30.6c4.3,0,6.8,1.2,7.7,3.7.4,1.3.6,2.9.6,4.9s-.2,3.6-.6,4.8c-.4,1.2-1,2.1-1.8,2.5-1.4.7-3.4,1.1-6.1,1.1h-33.1l-.2,4.3.2,5.1h33.3c1.8,0,3.2,0,4.1.2.9.2,1.8.9,2.8,2.2,1,1.3,1.4,3.1,1.4,5.4s-.2,4.1-.6,5.3c-.4,1.2-1,2.1-1.8,2.5-1.4.7-3.4,1.1-6.1,1.1h-30.7c1.6,5,3.7,8.3,6.2,9.8,2.6,1.5,5.4,2.2,8.6,2.2h19.4c4.3,0,7.3.5,9.2,1.5,1.9,1,3.1,2.5,3.8,4.6.6,2,1,4.7,1,7.9s-.3,5.9-1,7.8c-.6,2-1.7,3.3-3,4.1-2.1,1.3-5.2,1.9-9.1,1.9h-20.3c-6.4,0-12-1.1-16.9-3.4-4.9-2.2-8.7-4.7-11.7-7.5-2.9-2.8-5.7-6.7-8.4-11.7-2.7-5-4.7-10.8-6.1-17.3h-6.6c-2.7,0-4.6-.3-5.8-.8-1.8-1.1-2.7-3.3-2.7-6.6s.5-5.7,1.4-7c1-1.3,1.9-2.1,2.9-2.2s2.3-.2,4-.2h4.8c-.1-1.4-.2-3.5-.2-6.4v-2.9h-4.5c-2.7,0-4.6-.3-5.8-.8-1.8-1.1-2.7-3.3-2.7-6.6s.5-5.7,1.4-7c1-1.3,1.9-2.1,2.9-2.2s2.3-.2,4-.2h6.4c1.5-7.9,3.9-14.6,7.4-20.2,3.4-5.5,7.3-9.7,11.7-12.3,8-4.9,16.2-7.4,24.5-7.4h19.8m0-12h-19.8c-10.5,0-20.9,3.1-30.8,9.1-6,3.6-11.2,9.1-15.6,16.3-2.6,4.3-4.8,9.2-6.5,14.5-1.1,0-2.1.2-3,.3-2.9.5-7.1,2.1-10.6,7.1-2.5,3.5-3.7,8-3.7,14.1s1.6,9.6,3.6,12.4c-2.4,3.5-3.6,7.9-3.6,13.9,0,10.4,5.4,15.1,8.6,17l.5.3.6.3c2.2,1,4.9,1.6,8.1,1.8,1.3,3.9,2.9,7.6,4.7,11,3.3,6.2,6.8,11.1,10.8,14.8,3.9,3.7,8.9,6.9,14.9,9.7,6.4,3,13.8,4.5,21.9,4.5h20.3c6.1,0,11-1.1,15.1-3.5,2.9-1.6,6.5-4.8,8.5-10.8,1-3.2,1.5-7,1.5-11.5s-.5-8.3-1.5-11.5c-1.6-5-4.9-9-9.5-11.5,0,0-.2,0-.3-.1.5-.9.9-1.9,1.2-2.9.7-2.4,1.1-5.2,1.1-8.8s-1.2-8.9-3.6-12.3c1.1-1.5,2-3.2,2.5-5.1.7-2.4,1.1-5.1,1.1-8.3s-.4-6.1-1.3-8.7h0c0,0,0-.2,0-.2-.2-.7-.6-1.5-1-2.3.1,0,.2-.1.3-.2,3.2-1.6,7.4-4.8,9.4-11.4,1-3.2,1.5-7,1.5-11.6s-.4-8.2-1.4-11.3c-1.9-6.4-5.7-9.7-8.7-11.4-2.9-1.6-5.7-2.6-8.5-3-1.8-.2-4-.3-6.9-.3h0Z"/>
    </g>
  </g>
</svg>