<?xml version="1.0" encoding="UTF-8"?>
<svg id="Layer_2" data-name="Layer 2" xmlns="http://www.w3.org/2000/svg" width="127.2" height="141.6" viewBox="0 0 127.2 141.6">
  <defs>
    <style>
      .cls-1 {
        fill: #fefefe;
      }
    </style>
  </defs>
  <g id="Middle">
    <g>
      <path class="cls-1" d="m57.3,103.5h44.8c3.9,0,6.8.5,8.6,1.4,1.8.9,3,2.3,3.6,4.2.6,1.9.9,4.4.9,7.5s-.3,5.6-1,7.4c-.6,1.9-1.7,3.2-3.2,3.9-2,1.1-5.1,1.6-9.1,1.6H35.4c-3.4,0-6.4-1.1-9-3.2-2.6-2.1-3.9-5.4-3.9-9.9s.9-4.9,2.6-7c1.7-2.1,3.4-4.6,5.2-7.5,1.8-2.9,2.6-6.5,2.6-10.9s-.5-4.2-1.4-8h-9.6c-5.2,0-8.3-1.5-9.1-4.6-.4-1.6-.6-3.7-.6-6.2s.2-4.5.7-6.1c.5-1.5,1.4-2.6,2.6-3.3,1.6-.9,4.1-1.3,7.5-1.3h3.7c-.1-1.1-.2-2.6-.2-4.6,0-8.1,1.7-15.7,5-22.6,3.4-7,8.8-12.5,16.3-16.4,7.5-3.9,15.7-5.9,24.4-5.9s21.6,2.8,29.9,8.5c2.3,1.6,3.7,2.7,4.2,3.2l1.6,1.4c2.9,3.5,4.3,6.8,4.3,9.8s-1.6,6-4.7,8.8c-3.1,2.8-6.4,4.2-9.7,4.2s-6.1-1.5-8.5-4.5c-1-1.3-3.1-2.5-6.4-3.7-3.3-1.2-6.7-1.8-10.1-1.8-7.8,0-13.1,1.9-16.1,5.7-2.9,3.8-4.4,8.1-4.4,12.9v1.6c0,1.6.2,2.7.5,3.4h16.2c3.1,0,5.3.4,6.7,1.1,2.2,1.3,3.4,4.5,3.4,9.8s-1,7.9-3,9.1c-1.6,1-3.9,1.4-6.9,1.4h-11c.6,3.2,1,6.4,1,9.6s-.6,6.8-1.8,10.9Z"/>
      <path d="m72.2,12c11.6,0,21.6,2.8,29.9,8.5,2.3,1.6,3.7,2.7,4.2,3.2l1.6,1.4c2.9,3.5,4.3,6.8,4.3,9.8s-1.6,6-4.7,8.8c-3.1,2.8-6.4,4.2-9.7,4.2s-6.1-1.5-8.5-4.5c-1-1.3-3.1-2.5-6.4-3.7-3.3-1.2-6.7-1.8-10.1-1.8-7.8,0-13.1,1.9-16.1,5.7-2.9,3.8-4.4,8.1-4.4,12.9v1.6c0,1.6.2,2.7.5,3.4h16.2c3.1,0,5.3.4,6.7,1.1,2.2,1.3,3.4,4.5,3.4,9.8s-1,7.9-3,9.1c-1.6,1-3.9,1.4-6.9,1.4h-11c.6,3.2,1,6.4,1,9.6s-.6,6.8-1.8,10.9h44.8c3.9,0,6.8.5,8.6,1.4,1.8.9,3,2.3,3.6,4.2.6,1.9.9,4.4.9,7.5s-.3,5.6-1,7.4c-.6,1.9-1.7,3.2-3.2,3.9-2,1.1-5.1,1.6-9.1,1.6H35.4c-3.4,0-6.4-1.1-9-3.2-2.6-2.1-3.9-5.4-3.9-9.9s.9-4.9,2.6-7c1.7-2.1,3.4-4.6,5.2-7.5,1.8-2.9,2.6-6.5,2.6-10.9s-.5-4.2-1.4-8h-9.6c-5.2,0-8.3-1.5-9.1-4.6-.4-1.6-.6-3.7-.6-6.2s.2-4.5.7-6.1c.5-1.5,1.4-2.6,2.6-3.3,1.6-.9,4.1-1.3,7.5-1.3h3.7c-.1-1.1-.2-2.6-.2-4.6,0-8.1,1.7-15.7,5-22.6,3.4-7,8.8-12.5,16.3-16.4,7.5-3.9,15.7-5.9,24.4-5.9m0-12c-10.7,0-20.8,2.5-30,7.3-9.8,5.2-17.1,12.5-21.6,21.8-3.2,6.7-5.2,13.8-5.9,21.3-1.8.4-3.4,1-4.9,1.8-4.1,2.1-7.2,5.8-8.6,10.4-.8,2.7-1.3,5.9-1.3,9.6s.3,6.6,1,9.3h0s0,0,0,0c1.1,3.9,5.1,12.8,19.2,13.4,0,.2-.2.5-.3.7-1.5,2.4-2.9,4.5-4.3,6.3-3.4,4.2-5.2,9.3-5.2,14.5,0,10.3,4.5,16.1,8.3,19.2,4.7,3.9,10.5,5.9,16.6,5.9h66.6c6,0,10.8-1,14.6-2.9,4.3-2.2,7.4-5.9,9.1-10.7,1.1-3.2,1.6-6.9,1.6-11.3s-.5-7.9-1.4-11c-1.5-5-5-9.1-9.7-11.5-3.6-1.8-8-2.6-14-2.6h-19.3c5.5-3.6,8.3-10,8.3-19s-1.3-11.5-4-15.3c3.3,1.8,6.9,2.8,10.7,2.8,6.3,0,12.3-2.5,17.7-7.3,7.2-6.5,8.7-13.2,8.7-17.7s-2.4-11.7-7-17.4l-.6-.7-.7-.6-1.2-1.1c-1.2-1.3-2.9-2.6-5.8-4.6C98.5,3.6,86.2,0,72.2,0h0Z"/>
    </g>
  </g>
</svg>