<?xml version="1.0" encoding="UTF-8"?>
<svg id="Layer_2" data-name="Layer 2" xmlns="http://www.w3.org/2000/svg" width="192" height="184.5" viewBox="0 0 192 184.5">
  <defs>
    <style>
      .cls-1 {
        fill: #fdcf73;
      }

      .cls-2 {
        fill: #fba900;
      }

      .cls-3 {
        fill: #fefefe;
      }
    </style>
  </defs>
  <g id="Middle">
    <g>
      <path class="cls-3" d="m126.8,182.1c-8.8-1.9-16.5-6.4-24-10.9-4.8-2.9-8.3-3.1-12.8-.1-9.1,6-19.1,10-29.8,12.5-14.9,3.6-28.6-4.7-31.2-19.4-.3-.4-1.2-3.9-.8-1.1-2-10.3-1.2-31.9-1.1-32.2,0-9.8-2.1-13.9-7.9-19.1-8.5-7.7-15.2-16.7-18.1-28.1-3.2-12.5.4-20.4,11.6-27.5,10.5-6.7,22.7-8.1,34.9-8.8,3.5-.2,5.4-1.1,6.6-4.4,4.7-13.1,13-23.9,21.9-34.2,9.9-11.5,27.8-11.7,38.7-1.1,10.8,10.5,18.9,22.7,24.1,36.8.6,1.7,1.5,2.9,3.9,2.9,10.7,0,21.1,2.2,31,5.9,16.7,6.3,21.3,17.8,16,34.5-3.8,11.8-11.4,20.9-20.7,28.4-5.1,4.1-5.2,8.3-4.2,13.8,2.1,12.5,2.3,25.2-2.3,37-4.1,10.5-10.5,18.8-24.1,17.3-3.6-.4-11.4-1.9-11.7-2.1Zm-92.8-39.3c-.2,10.7,1.3,20.3,7.1,28.5,2.7,3.8,6.8,6.4,11.7,5.6,15.6-2.3,29.1-9.5,41.9-18.3,1.4-1,1.8-1.1,3.3,0,9.5,7,19.9,12.4,31.1,16,16.9,5.5,22.6,1.1,27.2-12.7,4.5-13.6,2.7-27.4-.2-41-.4-1.9-.5-3.4,1.2-4.8,10.6-8.4,19.7-18,25.3-30.6,4.5-10,1.9-18.2-8.1-23.5-11.8-6.1-24.7-7-37.4-8.8-2.3-.3-3.6-1-4.3-2.9-4.8-14.4-12.9-26.7-23.7-37.3-7.7-7.6-17.7-7.6-25.4-.1-10.9,10.6-18.3,23.3-23.8,37.3-.5,1.1-.5,3.2-2.6,2.9-3.3-.5-6.5.7-9.7,1.1-10.8,1.4-21.6,3.2-31.3,8.9-5.6,3.3-9.9,11.6-7.4,18.7,4.8,13.9,14.4,23.9,25.1,33.1,2.3,2,3.6,3.6,2.9,6.5-1.8,7.3-3,14.7-2.8,21.3Z"/>
      <path d="m34.1,142.9c-.2-6.7,1-14.1,2.8-21.3.7-2.8-.6-4.4-2.9-6.5-10.7-9.2-20.3-19.2-25.1-33.1-2.4-7.1,1.8-15.4,7.4-18.7,9.7-5.7,20.4-7.5,31.3-8.9,3.2-.4,6.4-1.5,9.7-1.1,2.1.3,2.1-1.8,2.6-2.9,5.5-14,12.9-26.7,23.8-37.3,7.7-7.5,17.7-7.5,25.4.1,10.8,10.6,18.9,22.9,23.7,37.3.7,2,2,2.6,4.3,2.9,12.7,1.8,25.6,2.6,37.4,8.8,10,5.3,12.6,13.5,8.1,23.5-5.6,12.6-14.8,22.1-25.3,30.6-1.7,1.4-1.6,2.8-1.2,4.8,2.9,13.6,4.7,27.4.2,41-4.6,13.8-10.3,18.2-27.2,12.7-11.1-3.7-21.6-9.1-31.1-16-1.5-1.1-1.9-1-3.3,0-12.8,8.8-26.3,16-41.9,18.3-4.9.7-9-1.8-11.7-5.6-5.8-8.2-7.3-17.8-7.1-28.5Zm41.7-93.5c-1.3,1.8-2.1,3.8-2.9,5.9-2.4,6.6-6.2,11.9-14,12-4.1,0-8.2.3-12.2,1.1-7.2,1.5-14.7,2.2-21.3,5.9-1.9,1-4.6,1.9-2.5,5,1.4,6.7,5.8,11.6,10.1,16.4,5.7,6.4,12.5,11.7,17.8,18.6.6,6.2-1.7,12.1-2.3,18.1-.8,7.6-2.4,15.2.5,22.8.6,8.1,2.2,9.2,10,6.6,11.1-3.7,21.5-9,31.2-15.5,4.5-2.9,7.8-3.1,12.2-.2,8.5,5.7,17.6,10.5,27.2,14,13,4.9,15,3.2,15.3-10.9,1.9-2.2,1.1-4.8.8-7-1.1-9-2.6-17.9-4-26.9,5.3-7.9,12.9-13.7,19.3-20.6,3.9-4.2,7.1-8.8,9-14.3,2.2-3.5,0-4.9-2.8-6.2-9.7-4.4-20-6.2-30.5-6.7-7.8-.3-12.6-2.6-16-11.2-4.9-12.3-11.6-23.7-20.3-33.8-2-2.3-4.5-3.2-7,0-2.4,3.1-5,6-7.6,9-4.3,5.5-7.5,11.5-10,17.9Z"/>
      <path class="cls-2" d="m50.8,114.2c-5.3-6.8-12.1-12.2-17.8-18.6-4.4-4.8-8.8-9.7-10.1-16.4,1.6-2.3,4.2-3.2,6.7-4,9-3.1,18.3-4.1,27.8-4,5.5,0,11,0,15.3-4.2.8-.8,1.8-1,2.7-.5,3.6,1.7,6.2-.1,8.2-2.7,3.2-4,6.2-8.2,9-12.5,1.5-2.5,2.5-5.4-.1-8.1.2-2.3.3-4.6.5-6.9,4.9-2.4,8.1-1.6,11.5,3.3,4.9,7.1,9.6,14.4,13.3,22.2,2.4,5.1,5.9,8.7,11.8,9.5,6.9.8,13.8,1.6,20.6,2.9,6.7,1.3,13.9,1.6,19.7,5.9-1.9,5.5-5.1,10.1-9,14.3-6.4,6.9-14,12.7-19.3,20.6-2.4,1.2-3.3,3.2-2.8,5.7,1.9,9.4,4,18.8,6,28.2-.4,14.2-2.3,15.8-15.3,10.9-9.6-3.6-18.7-8.4-27.2-14-4.4-2.9-7.7-2.8-12.2.2-9.7,6.4-20.1,11.7-31.2,15.5-7.9,2.7-9.4,1.5-10-6.6,1.9-11.3,4-22.6,5.7-34,.4-2.7-.7-5.6-3.8-6.9Z"/>
      <path class="cls-1" d="m170,80.3c-5.9-4.3-13-4.6-19.7-5.9-6.8-1.3-13.7-2.1-20.6-2.9-6-.7-9.4-4.4-11.8-9.5-3.7-7.8-8.4-15.1-13.3-22.2-3.4-5-6.6-5.7-11.5-3.3-.3-4.6-4.7-3.5-7.2-5,2.5-3,5.2-5.9,7.6-9,2.5-3.2,5-2.2,7,0,8.7,10.1,15.5,21.5,20.3,33.8,3.4,8.5,8.2,10.8,16,11.2,10.5.4,20.8,2.2,30.5,6.7,2.7,1.2,5,2.7,2.8,6.2Z"/>
      <path class="cls-1" d="m92.6,43.3c2.7,2.6,1.6,5.6.1,8.1-2.7,4.3-5.8,8.5-9,12.5-2,2.6-4.6,4.4-8.2,2.7-1-.5-1.9-.3-2.7.5-4.4,4.1-9.9,4.3-15.3,4.2-9.5-.1-18.8.9-27.8,4-2.5.8-5.1,1.7-6.7,4-2.1-3.1.6-3.9,2.5-5,6.6-3.7,14.1-4.4,21.3-5.9,4-.9,8.1-1.1,12.2-1.1,7.8,0,11.6-5.4,14-12,.8-2.1,1.6-4.1,2.9-5.9,2.6,5.5,6.7,6.1,10.8,1.6,2.2-2.4,3.1-5.8,6-7.6Z"/>
      <path class="cls-3" d="m92.6,43.3c-2.9,1.8-3.8,5.2-6,7.6-4,4.5-8.2,3.9-10.8-1.6,2.5-6.5,5.8-12.5,10-17.9,2.5,1.6,6.9.4,7.2,5-.2,2.3-.3,4.6-.5,6.9Z"/>
      <path class="cls-1" d="m50.8,114.2c3.1,1.3,4.2,4.1,3.8,6.9-1.7,11.4-3.8,22.7-5.7,34-2.9-7.5-1.2-15.2-.5-22.8.6-6.1,2.9-11.9,2.3-18.1Z"/>
      <path class="cls-1" d="m144.9,149.2c-2-9.4-4.1-18.8-6-28.2-.5-2.5.4-4.5,2.8-5.7,1.4,8.9,2.9,17.9,4,26.9.3,2.3,1.1,4.9-.8,7Z"/>
    </g>
  </g>
</svg>