<?xml version="1.0" encoding="UTF-8"?>
<svg id="Layer_2" data-name="Layer 2" xmlns="http://www.w3.org/2000/svg" width="162.1" height="162.4" viewBox="0 0 162.1 162.4">
  <defs>
    <style>
      .cls-1 {
        fill: #7d89a2;
      }

      .cls-2 {
        fill: #b4bbca;
      }

      .cls-3 {
        fill: #fefefe;
      }
    </style>
  </defs>
  <g id="Middle">
    <g>
      <path class="cls-3" d="m161.4,38.4c2.6,7.2-2.8,11.8-7.3,16.4-7.3,7.4-14.2,15.2-22.4,21.6-3.7,2.9-4.2,5-.3,8.6,9.1,8.4,17.6,17.5,26.5,26.2,2.6,2.6,3.5,5.5,3.9,9.1,1.3,11-2.9,19.5-11,26.4-4.2,3.6-7.7,8.1-12.3,11.4-8.6,6.1-21.3,5.6-28.9-2-8.4-8.4-17.4-16.2-24.8-25.6-2.6-3.4-4.8-3-7.2,0-7,8.4-15.2,15.6-22.6,23.6-7.2,7.8-15.6,9.8-25.6,7.1-2.7-.7-4.6-2.4-6.6-4-7-5.8-13.7-11.9-18.9-19.3-5.8-8.1-4.4-21.7,2.6-28.7,8.4-8.4,16.7-17,25.4-25.2,3.2-3,2.4-4.7-.3-6.8-8.5-6.6-15.5-14.8-23.2-22.3C-2.5,44.3-2.6,31.4,7.2,19.8,12.4,13.5,18,7.9,24.7,3.4c8.2-5.5,21.3-4,28.2,2.9,8.2,8.2,16.5,16.3,24.5,24.7,2.7,2.9,4.3,3.3,7.2.2,7.5-8,16-15,22.9-23.4,8.4-10.3,21.7-9,30.5-3.6,8.3,5.1,14.8,12.3,20.5,20.2,3,4.1,3.5,8.7,2.8,14.1Zm-44.5,42.8c.4-.4.5-.6.6-.7,11-11,21.7-22.3,33.1-32.9,5.7-5.3,5.4-14.1,1.4-19.7-4.9-6.8-10.9-12.6-17.6-17.6-5.1-3.8-12.1-4.4-15.7-1.5-3.3,2.7-6.4,5.6-9.5,8.5-9.7,9-17.6,19.6-27.7,28.5-11.5-11.5-23.1-23.2-34.6-34.8-4.6-4.6-12-5.5-17.2-1.6-7.4,5.7-14.1,12.2-19.7,19.8-3.9,5.2-2.9,12.6,1.7,17.2,11.6,11.5,23.2,23.1,32.9,32.7-10.1,11.1-19.9,22-30,32.7-8,8.6-8.9,15.5-3,22.9,4.8,6.1,10.4,11.3,16.2,16.3,4.6,3.9,15.4,4.6,20.1-.6,10.7-11.8,22.4-22.8,33.7-34.1,11.4,11.4,22.8,22.3,33.5,33.8,4.8,5.2,12.7,5.3,18.6,1.6,7.1-4.5,12.8-10.5,17.8-17.2,4.7-6.3,5.2-14.7-1.6-20.8-11.5-10.2-22-21.6-33-32.6Z"/>
      <path d="m116.9,81.3c11,11,21.5,22.4,33,32.6,6.8,6.1,6.4,14.5,1.6,20.8-5,6.6-10.6,12.7-17.8,17.2-5.9,3.7-13.8,3.6-18.6-1.6-10.7-11.5-22.1-22.4-33.5-33.8-11.3,11.4-23,22.3-33.7,34.1-4.7,5.2-15.5,4.5-20.1.6-5.9-5-11.4-10.2-16.2-16.3-5.9-7.4-4.9-14.4,3-22.9,10-10.7,19.8-21.7,30-32.7-9.7-9.7-21.3-21.2-32.9-32.7-4.6-4.6-5.6-12-1.7-17.2,5.6-7.5,12.3-14.1,19.7-19.8,5.1-3.9,12.6-3,17.2,1.6,11.6,11.6,23.1,23.2,34.6,34.8,10.1-8.8,18.1-19.5,27.7-28.5,3.1-2.9,6.3-5.8,9.5-8.5,3.5-2.9,10.6-2.3,15.7,1.5,6.7,5,12.8,10.8,17.6,17.6,4,5.6,4.3,14.4-1.4,19.7-11.4,10.6-22.1,21.9-33.1,32.9-.1.1-.2.2-.6.7Zm-15.9-1.4c.5-.2.9-.4.8-1.1,1-2.3,2.6-4.1,4.4-5.8,11.8-11.8,23.6-23.6,35.5-35.4-3.7-3.3-5.7-7.9-9.8-10.5-2.2-1.9-4.3-3.8-6.5-5.8-12.7,11.9-24.2,25-37.5,36.4-3.2,2.8-6.5,4.9-10.3,2-3.8-2.9-7.2-6.2-10.6-9.5-9.7-9.6-19.3-19.3-28.9-28.9-1.7,1.4-3.2,2.6-4.7,3.8-4.7,3.5-8,8.2-11.7,12.7,11.7,11.7,23.4,23.4,35.2,35.1,3,3,5.3,6.2,4.3,10.8-3.2,3.8-6.3,7.8-9.7,11.4-9,9.2-18.1,18.3-27.3,27.3-2.3,2.3-2.7,3.7.4,5.2,2.7,3.9,5.9,7.3,9.6,10.2,2.9,2.3,4.6,3,7.6,0,10.2-10.6,20.7-20.9,31.1-31.3,7.2-7.2,10.4-7.2,17.7.2,10.5,10.5,21.1,20.9,31.5,31.6,2.1,2.1,3.9,2.5,5.7.6,3.8-3.9,8.2-7.1,11.1-11.8,2.8-1.9,1.6-3.5-.3-5.3-10.1-9.9-20.2-19.8-29.9-30-3.2-3.4-7.2-6.6-7.5-11.9h-.1Z"/>
      <path class="cls-1" d="m138.8,127c-2.9,4.7-7.3,7.9-11.1,11.8-1.8,1.9-3.7,1.5-5.7-.6-10.4-10.7-20.9-21.1-31.5-31.6-7.4-7.4-10.5-7.4-17.7-.2-10.4,10.4-20.9,20.7-31.1,31.3-3,3.1-4.7,2.3-7.6,0-3.8-2.9-6.9-6.3-9.6-10.2,6.6-7.6,13.8-14.6,21.3-21.2,5.4-4.8,10.7-9.8,15-15.6,1.7-2.3,2.3-4.6.3-7.1,1-4.6-1.3-7.8-4.3-10.8-11.7-11.7-23.4-23.4-35.2-35.1,3.8-4.5,7.1-9.3,11.7-12.7,7.9,6.8,15.9,13.5,22.6,21.5,5.1,6.1,10.6,11.8,17,16.5,5,3.7,9.2,3.6,13.9-.5,6.8-6,13.7-11.9,21.2-17.1,8.3-5.7,14.4-14.2,23.8-18.4,4.2,2.6,6.1,7.2,9.8,10.5-11.9,11.9-23.6,23.7-35.5,35.4-1.8,1.8-3.3,3.6-4.4,5.8-.3.4-.5.7-.8,1.1,0,0,.1,0,.1,0-3.8,1.6-4.7,4.6-1.6,7.8,6.6,7.1,13.7,13.8,20.5,20.6,6.3,6.3,12.5,12.5,18.8,18.8Z"/>
      <path class="cls-2" d="m131.8,27c-9.4,4.2-15.6,12.7-23.8,18.4-7.5,5.2-14.4,11.1-21.2,17.1-4.6,4-8.9,4.2-13.9.5-6.4-4.7-11.9-10.4-17-16.5-6.7-8-14.7-14.7-22.6-21.5,1.5-1.2,3-2.4,4.7-3.8,9.6,9.6,19.2,19.3,28.9,28.9,3.4,3.3,6.8,6.7,10.6,9.5,3.9,2.9,7.1.8,10.3-2,13.2-11.4,24.8-24.5,37.5-36.4,2.2,2,4.4,3.9,6.5,5.8Z"/>
      <path class="cls-2" d="m138.8,127c-6.3-6.3-12.5-12.5-18.8-18.8-6.9-6.9-13.9-13.6-20.5-20.6-3.1-3.3-2.2-6.2,1.6-7.8.3,5.3,4.3,8.5,7.5,11.9,9.8,10.2,19.9,20.1,29.9,30,1.9,1.8,3.1,3.4.3,5.3Z"/>
      <path class="cls-2" d="m61.1,83.6c2,2.5,1.4,4.7-.3,7.1-4.3,5.9-9.6,10.8-15,15.6-7.5,6.7-14.7,13.7-21.3,21.2-3.1-1.5-2.8-2.9-.4-5.2,9.2-9,18.3-18.1,27.3-27.3,3.5-3.6,6.5-7.6,9.7-11.4Z"/>
      <path class="cls-2" d="m101,79.8c.3-.4.5-.7.8-1.1.1.7-.3.9-.8,1.1Z"/>
    </g>
  </g>
</svg>