<?xml version="1.0" encoding="UTF-8"?>
<svg id="Layer_2" data-name="Layer 2" xmlns="http://www.w3.org/2000/svg" width="165.3" height="166.9" viewBox="0 0 165.3 166.9">
  <defs>
    <style>
      .cls-1 {
        fill: #b7b8bc;
      }

      .cls-2 {
        fill: #fefefe;
      }
    </style>
  </defs>
  <g id="Middle">
    <g>
      <g>
        <path d="m148.6,85.2c-.5,7.8,1.1,16.8-1.9,25.7-2.6,7.5-7.2,12.8-14.9,14.9-3.3.9-4.1,2.6-4.3,6-.4,7.5-.5,15.2-3.9,22.3-1.7,3.6-4.6,5.2-8.3,5.7-7.6.9-14.8-1-21.7-4-13.4-5.6-24.1-15-34.7-24.5-8.3-7.5-8-7.8-18.4-8.4-12.2-.7-18.8-6.8-20.7-18.9-1.1-6.7-3-13.3-3-20.2,0-9,2.2-17.7,4.3-26.3,1.7-6.8,9.8-12.3,17.5-12.4,4.2,0,9.2,1.2,12.5,0,3.1-1.1,5.1-6.3,8.3-9.2,11.7-10.5,23.5-20.9,38.8-26,3.7-1.2,7.4-2.4,11.2-2.7,10.2-1,16.7,5.3,17.2,15.8.2,4.9,1.7,9.8,1,14.7-.4,2.4,1.6,2.8,2.9,3.2,13.6,3.7,17,14.5,18,25.7.5,5.8,0,11.6,0,18.6Zm-20.8-22.3v50.9c4.1-3.2,6.9-6.3,6.9-11.1,0-13.3,0-26.6-.1-39.9-1.4-3.5-1.8-7.8-6.7-8.4v8.4Zm-94.8,5c-.2,2-.9,3.8-1.3,5.7-1.6,8.7-.5,17.3,1,25.9,1.4,7.9,7.6,12.6,16.2,11.4,4.8.6,8.8,4.4,14,3.9,4.2,5.5,9.5,10,14.7,14.4,9,7.7,18.6,14.3,30.3,17.2,5.5,1.4,6.9.4,6.8-5.3,0-14.1,0-28.1-.9-42.2-1.4-20.3,1.6-40.7.7-61.1,0-4.6.3-9.3,0-13.9,0-2,0-3.9-3.9-3.3-6.3,1-11.8,3.3-17.2,6.1-9.9,5.1-17.9,13-26.1,20.4-2.4,2.1-5.5,4.7-5.5,8.8-.1.3-.2.6-.3,1-4.3,0-8.6,0-12.9,0-8-2.5-15.8,2.9-15.7,10.9Z"/>
        <path class="cls-1" d="m61.6,56.8c-1.6,14.6-.5,29.3-.8,43.9,0,4.8.9,9.4,2.1,14-5.2.5-9.1-3.2-14-3.9-1.5-4.2-2-8.5-2.1-12.9-.2-10.7-.1-21.4-.1-32.1,2.3-2.6-.2-6.3,2-9,4.3,0,8.6,0,12.9,0Z"/>
        <path class="cls-2" d="m114.5,37.8c0-4.6.3-9.3,0-13.9,0-2,0-3.9-3.9-3.3-6.3,1-11.8,3.3-17.2,6.1-9.9,5.1-17.9,13-26.1,20.4-2.4,2.1-5.5,4.7-5.5,8.8-.1.3-.2.6-.3,1-1.6,14.6-.5,29.3-.8,43.9,0,4.8.9,9.4,2.1,14,4.2,5.5,9.5,10,14.7,14.4,9,7.7,18.6,14.3,30.3,17.2,5.5,1.4,6.9.4,6.8-5.3,0-14.1,0-28.1-.9-42.2-1.4-20.3,1.6-40.7.7-61.1Z"/>
        <path class="cls-2" d="m46.8,97.9c-.2-10.7-.1-21.4-.1-32.1-1.2,0-2.3,0-3.5,0,1.2,0,2.3,0,3.5,0,2.3-2.6-.2-6.3,2-9-8-2.5-15.8,2.9-15.7,10.9-.2,2-.9,3.8-1.3,5.7-1.6,8.8-.5,17.3,1,25.9,1.4,7.9,7.6,12.6,16.2,11.4-1.5-4.2-2-8.5-2.1-12.9Z"/>
        <path class="cls-2" d="m134.5,62.9c-1.4-3.5-1.8-7.8-6.7-8.4v59.4c4.1-3.2,6.9-6.3,6.9-11.1,0-13.3,0-26.6-.1-39.9Z"/>
      </g>
      <g>
        <path d="m165.2,19.7c.6,4.5-2.8,7-4.8,10.1-2,3-4.6,5.6-7.1,8.2-40.4,41.9-81.7,82.8-122.9,123.8-6.7,6.6-13.6,7-20.8.2-4.4-4.1-7.1-9-9.1-14.4-1.4-3.7,1.2-6.3,2.9-9,1-1.5,2.4-2.7,3.7-4C49.8,91.8,92.7,49.1,135.3,6.2c9.8-9.9,14.7-6.9,24.5,1.9,3.1,2.8,6.1,6.7,5.5,11.5ZM20.2,153c1.1-1,2.1-2,3.2-3,37.6-37.6,75.3-75.3,112.9-112.8,4.3-4.3,8.5-8.9,13.5-12.2,4.6-3,4.4-5.2,1.3-8.9-2.4-2.8-4-4.1-7.2-.6-6.9,7.5-14.1,14.9-21.3,22.2-28,28.5-56.3,56.7-84.8,84.7-7.3,7.2-14.9,14.1-22.1,21.3-.9.9-2.7,1.7-1.1,3.6,1.7,1.9,2.6,4.6,5.5,5.7Z"/>
        <path class="cls-2" d="m20.2,153c-2.9-1.1-3.8-3.8-5.5-5.7-1.6-1.9.1-2.7,1.1-3.6,7.2-7.2,14.8-14.2,22.1-21.3,28.5-28,56.8-56.2,84.8-84.7,7.2-7.3,14.3-14.6,21.3-22.2,3.2-3.4,4.8-2.2,7.2.6,3.2,3.7,3.4,5.8-1.3,8.9-5,3.3-9.2,7.9-13.5,12.2-37.7,37.6-75.3,75.2-112.9,112.8-1,1-2.1,2-3.2,3Z"/>
      </g>
    </g>
  </g>
</svg>