<?xml version="1.0" encoding="UTF-8"?>
<svg id="Layer_2" data-name="Layer 2" xmlns="http://www.w3.org/2000/svg" width="313.4" height="302.3" viewBox="0 0 313.4 302.3">
  <defs>
    <style>
      .cls-1 {
        fill: #fdcf74;
      }

      .cls-2 {
        fill: #333840;
        opacity: .5;
      }

      .cls-3 {
        fill: #fba900;
      }

      .cls-4 {
        fill: #c57d00;
      }

      .cls-5 {
        fill: #fefefe;
      }
    </style>
  </defs>
  <g id="Middle">
    <g>
      <path class="cls-2" d="m94.1,81c8.5-22.9,20.2-44.2,34.8-63.8,2.8-3.8,6-7.1,9.5-10.2,11.6-10.2,27.2-8.9,38.3,1.9,10.5,10.2,18.3,22.2,25.3,34.8,3.7,6.7,6.6,13.8,9.9,20.8,0,.3.3.6.5.8,3.3,2.1,3.9,6,4.5,8.9,1.3,7.1,6.2,7.5,11.4,8,18.1,1.7,36.2,3.7,53.5,9.5,7.3,2.4,14.8,4.8,21.2,9.3,9.6,6.7,12,13.9,9.4,25.3-3.6,16-13.6,28.2-23.7,40.2-8.5,10.1-17.9,19.3-28.7,26.9-1.9,1.3-2.2,2.5-1.8,4.5,4,18.8,5.4,37.9,4.4,57.1-.5,9.5-1.3,19-3.5,28.4-1,4.3-3.1,8-5.6,11.4-3.5,4.8-8,7.1-14.4,7.3-18.7.7-35.7-4.4-52.2-12.4-9.3-4.5-18.1-9.8-26.3-15.9-2.8-2.1-4.8-1.8-7.5.2-18.8,13.6-39.4,23.6-62.4,27.6-6.9,1.2-14.5,1.3-21.3-.2-8-1.8-12-9-14.2-16.5-4.9-16.4-4-33.4-4-50.2,0-12.1,1.6-23.9,3.9-35.7.5-2.8-.3-4.8-2.8-6.7-17.1-13.1-31.5-28.7-42.9-46.9C4,136.5-.3,127.4,0,116.7c.1-3.9,1.4-7,3.9-9.8,7.8-8.6,18.4-12.1,28.9-15.7,14-4.7,28.6-6.8,43.2-8.1,5.1-.5,9.9-2.5,15.1-1.9,1.1,1.3,2.1,1.3,3-.3Zm-36,162.6c0,12.3,1.1,24.5,4,36.5,2.6,10.6,7.7,14.8,18.3,14.8,5.3,0,10.4-1.2,15.4-2.4,21.9-5.4,41.2-16.2,59-29.9,2.3-1.7,3-1.1,4.7.3,10.6,8.5,22.2,15.4,34.5,21.2,11,5.2,22.6,8.1,34.4,10.7,11.7,2.6,20.4-2.6,23.5-14.4,2.8-10.5,3.7-21.3,3.8-31.9.3-18.2-1.2-36.4-6.2-54-.8-2.7.1-3.9,1.7-4.9,13.4-8.4,24.4-19.4,34.3-31.5,6.9-8.5,13.4-17.4,17.8-27.5,4.1-9.6,4.1-16.3-.7-19.9-5.3-4-11.1-7-17.4-9.3-22.1-8-44.9-12.6-68.5-13-1.8,0-3.1-.2-3.7-2.3-4.1-13.3-10.7-25.4-17.4-37.5-6.6-12-13.8-23.8-23.6-33.7-10-10-23.8-9.5-32.4,1.7-16.1,20.7-29.1,43.2-37.9,67.9-1.1,3.1-2.4,4-5.5,3.9-9.7-.3-19.2,1.3-28.8,2.8-10.6,1.6-20.9,4.1-31,7.3-8.4,2.6-16.9,5.7-23.8,11.3-3.6,2.9-6.2,6.4-4.6,12.3,3,10.9,8.5,20.4,15.3,29.3,11.2,14.6,23.3,28.3,39.3,38,1.9,1.1,2.5,2.4,1.8,5.1-4.2,16.2-6,32.7-6.2,49.4Z"/>
      <path d="m58,243.6c.2-16.7,2-33.2,6.2-49.4.7-2.7,0-4-1.8-5.1-16-9.7-28.1-23.4-39.3-38-6.8-8.8-12.2-18.3-15.3-29.3-1.6-5.9.9-9.4,4.6-12.3,7-5.6,15.4-8.6,23.8-11.3,10.1-3.2,20.5-5.6,31-7.3,9.6-1.5,19.1-3.1,28.8-2.8,3.1,0,4.4-.8,5.5-3.9,8.9-24.7,21.8-47.2,37.9-67.9,8.7-11.1,22.4-11.7,32.4-1.7,9.8,9.8,16.9,21.6,23.6,33.7,6.7,12.1,13.3,24.2,17.4,37.5.6,2.1,2,2.3,3.7,2.3,23.6.4,46.4,5,68.5,13,6.2,2.2,12.1,5.3,17.4,9.3,4.8,3.6,4.8,10.3.7,19.9-4.4,10.2-10.8,19.1-17.8,27.5-9.9,12.1-20.9,23.2-34.3,31.5-1.6,1-2.5,2.2-1.7,4.9,5,17.6,6.5,35.8,6.2,54-.1,10.7-1.1,21.5-3.8,31.9-3.1,11.8-11.8,17-23.5,14.4-11.8-2.6-23.4-5.5-34.4-10.7-12.3-5.8-23.9-12.7-34.5-21.2-1.8-1.4-2.5-2-4.7-.3-17.7,13.7-37,24.6-59,29.9-5,1.2-10.1,2.5-15.4,2.4-10.7,0-15.7-4.1-18.3-14.8-3-12-4.1-24.1-4-36.5ZM130.1,56.2c-1.3.1-.9,1.3-1.2,2-4.5,8.8-9.9,17.2-12.8,26.7-2.2,3-3,6.7-3.9,10.2-1.2,5.1-4.9,6.9-8.8,6.9-10.3,0-20.4.4-30.6,2.1-16.1,2.8-31.9,6.5-47.1,12.7-4.4,1.8-5.4,3.9-2.5,7.7,0,.5,0,1,.2,1.4,5.7,11.3,13.1,21.5,21.8,30.8,9.3,10,18.5,19.9,30.8,26.3,4.7,3.5,5.1,5.4,2.1,10.5-.8,1.4-1.6,2.8-2,4.4-3.5,15.8-5.2,31.8-4.9,48,.7,8,1.3,16,2,24,.6,2.5,1.2,5,1.8,7.5.6,2.5,1.3,3.8,4.8,3.7,11.1-.4,21.1-4.1,31-8.4,14.8-6.4,28.7-14.3,40.8-25,3-2.6,6.2-2.4,9.1-1.1,2,.9,3.2,3.3,5.1,4.7,18.8,13.6,38.8,24.5,61.8,29.5,9.9,2.1,10.6,1.7,12.2-8.4.2-1.1,0-2.3.1-3.5,1.1-3.9,1.9-7.8,1.9-11.8,0-13.8.8-27.7-1-41.5-1-7.3-1.4-15-5.1-21.5-2.8-4.9-2.2-8.2,2.1-11.3,6.3-2.7,11.4-7,16.2-11.6,7.4-7.1,15-14.1,21.3-22.2,6-7.9,12.2-15.8,15.7-25.3,2-5.4,2-5.5-4-6.7-1.9-1.3-3.9-2.2-6-3-22.3-7.4-44.9-12.6-68.6-11.9-5.5.2-9.6-1.9-11.2-7.4-4.4-15-11.5-28.7-19.2-42.2-5.9-10.5-12-20.9-20.8-29.4-2.6-2.5-4.8-3.8-8.3-.7-2.1,1.9-4,3.8-5.5,6-6.4,8.9-13,17.7-17.4,27.8h0Z"/>
      <path class="cls-3" d="m73.3,269.8c-.7-8-1.3-16-2-24,3.2-7.3,4.2-15.2,6.2-22.9,2.5-10,7.3-19.3,8.9-29.5.9-5.7-2.1-11.8-7.1-14.5-.7-7.9-7.1-11.3-12.6-15-16-10.8-29.1-24.2-39.6-40.3.8-1.3,2.1-1.5,3.4-1.7,9.7-1.8,19.4-4.1,29.2-5.6,12.8-2,25.6-5.6,38.8-3.4.9.2,2-.1,2.9-.3,7.7-1.5,13.8-5.5,18.2-12,1.2-1.8,2.3-3.1,4.8-2.4,4.4,1.3,7.9-.7,10.6-3.8,7.3-8.6,13.1-18,15.7-29,1.9-7.8-.7-11.9-8.7-14.2,4.1-5.9,8.2-11.7,13.1-16.8,1.8-1.9,2.6-1.9,4.4.3,14.2,17.1,22.9,37.2,31.3,57.4,4.3,10.4,10.6,16.6,22.4,17.1,10.4.5,20.7,2.2,31.1,3.4,13.1,1.5,25.3,6.6,37.8,10.1,0,2.2-1,4.1-2.2,6-10,15.8-22.2,29.3-38.3,39.1-4.9,3-9.6,6.8-9.5,13.6-2.5,2.9-3.1,6.3-3.2,10.1-.1,10.1,2.4,19.6,4.7,29.3,3.2,13.5,5.9,27.1,6.3,41-1.4,1.8-2.9,3.4-5,4.8-5.8,3.7-11.7,2-17.2.2-17.3-5.6-33.1-14.5-48.3-24.3-5.8-3.7-10.4-5.6-17.7-.8-13,8.5-26.8,16-41.2,22.1-11.9,5-23.9,9.2-37.1,6.1Zm48.6-149.7c3.8,0,9.1-5.6,8.9-9.9-.1-3.3-2-5.2-5.4-5.1-3.6,0-9.2,5.6-9,9.3.2,3.2,1.8,5.7,5.5,5.7Z"/>
      <path class="cls-1" d="m282.1,122.8c-12.6-3.6-24.7-8.6-37.8-10.1-10.4-1.2-20.7-2.9-31.1-3.4-11.8-.5-18.1-6.8-22.4-17.1-8.4-20.2-17.1-40.3-31.3-57.4-1.8-2.2-2.6-2.2-4.4-.3-4.9,5.1-9,10.9-13.1,16.8,8.1,2.4,10.6,6.5,8.7,14.2-2.7,11-8.5,20.5-15.7,29-2.7,3.1-6.1,5.2-10.6,3.8-2.5-.7-3.6.6-4.8,2.4-4.3,6.5-10.4,10.5-18.2,12-1,.2-2,.5-2.9.3-13.2-2.2-26,1.4-38.8,3.4-9.8,1.5-19.5,3.7-29.2,5.6-1.3.3-2.6.4-3.4,1.7-1.3.3-2.5.5-3.8.8-2.9-3.8-1.9-5.9,2.5-7.7,15.2-6.2,31-9.9,47.1-12.7,10.1-1.8,20.3-2.1,30.6-2.1,4,0,7.6-1.8,8.8-6.9.8-3.4,1.6-7.1,3.9-10.2,3,6,6.8,7.2,11.2,3.4,1.2-1.1,2.4-2.3,3.3-3.7,3.5-5.8,7-11.7,10.4-17.6,1.7-3,3.1-6.2.5-9.3-2.6-3.2-6-3.1-9.5-1.5-.5.2-1.3,0-1.9,0,4.4-10.2,11-19,17.4-27.8,1.6-2.2,3.4-4.2,5.5-6,3.5-3.1,5.7-1.8,8.3.7,8.8,8.5,14.8,18.9,20.8,29.4,7.6,13.5,14.8,27.2,19.2,42.2,1.6,5.5,5.7,7.6,11.2,7.4,23.7-.7,46.3,4.5,68.6,11.9,2.2.7,4.2,1.7,6,3,1.9,5-1.3,5.6-5,5.8Z"/>
      <path class="cls-4" d="m73.3,269.8c13.2,3.1,25.2-1.1,37.1-6.1,14.4-6.1,28.2-13.5,41.2-22.1,7.3-4.8,12-2.9,17.7.8,15.2,9.9,31,18.7,48.3,24.3,5.5,1.8,11.5,3.5,17.2-.2,2-1.3,3.5-2.9,5-4.8,0,2.3.1,4.7.2,7,0,1.2,0,2.3-.1,3.5-1.6,10.2-2.3,10.6-12.2,8.4-22.9-5-43-16-61.8-29.5-1.9-1.3-3.1-3.8-5.1-4.7-3-1.3-6.2-1.5-9.1,1.1-12.1,10.7-26.1,18.6-40.8,25-9.9,4.3-19.9,8-31,8.4-3.5.1-4.2-1.2-4.8-3.7-.6-2.5-1.2-5-1.8-7.5Z"/>
      <path class="cls-4" d="m282.1,122.8c3.7-.2,6.9-.7,5-5.8,6,1.3,6,1.3,4,6.7-3.5,9.5-9.6,17.4-15.7,25.3-6.2,8.2-13.8,15.2-21.3,22.2-4.8,4.6-10,8.9-16.2,11.6-1.5-2.5-3.7-1.8-5.9-1.4-.2-6.8,4.6-10.6,9.5-13.6,16.1-9.8,28.3-23.3,38.3-39.1,1.2-1.9,2.2-3.7,2.2-6Z"/>
      <path class="cls-4" d="m23.2,124.5c1.3-.3,2.5-.5,3.8-.8,10.5,16.1,23.6,29.5,39.6,40.3,5.4,3.7,11.9,7.1,12.6,15-2.2.5-2.8,2.2-3.2,4.1-12.3-6.4-21.5-16.4-30.8-26.3-8.7-9.3-16-19.4-21.8-30.8-.2-.4-.1-.9-.2-1.4Z"/>
      <path class="cls-5" d="m130,56.2c.6,0,1.4.2,1.9,0,3.5-1.6,6.9-1.7,9.5,1.5,2.6,3.1,1.2,6.3-.5,9.3-3.4,5.9-6.8,11.8-10.4,17.6-.8,1.4-2,2.6-3.3,3.7-4.3,3.8-8.2,2.6-11.2-3.4,2.9-9.6,8.3-17.9,12.8-26.7,1.2-.2,1.5-.9,1.2-2h0Z"/>
      <path class="cls-1" d="m232,181.4c2.2-.4,4.4-1.1,5.9,1.4-4.3,3.1-4.9,6.3-2.1,11.3,3.6,6.5,4.1,14.2,5.1,21.5,1.9,13.8,1,27.7,1,41.5,0,4-.8,7.9-1.9,11.8,0-2.3-.1-4.7-.2-7-.4-13.9-3.1-27.5-6.3-41-2.3-9.6-4.8-19.2-4.7-29.3,0-3.8.7-7.2,3.2-10.1Z"/>
      <path class="cls-1" d="m76,183c.5-1.8,1-3.6,3.2-4.1,5.1,2.7,8,8.8,7.1,14.5-1.6,10.2-6.4,19.5-8.9,29.5-1.9,7.7-3,15.6-6.2,22.9-.3-16.2,1.5-32.2,4.9-48,.3-1.5,1.2-3,2-4.4,3-5,2.6-7-2.1-10.5Z"/>
      <path class="cls-1" d="m130.1,56.2c.3,1.1,0,1.8-1.2,2,.3-.7-.1-1.9,1.2-2Z"/>
      <path class="cls-1" d="m121.9,120.1c-3.8,0-5.3-2.5-5.5-5.7-.2-3.7,5.5-9.3,9-9.3,3.4,0,5.3,1.8,5.4,5.1.2,4.2-5.1,9.9-8.9,9.9Z"/>
    </g>
  </g>
</svg>