<?xml version="1.0" encoding="UTF-8"?>
<svg id="Layer_2" data-name="Layer 2" xmlns="http://www.w3.org/2000/svg" width="150.3" height="146.9" viewBox="0 0 150.3 146.9">
  <defs>
    <style>
      .cls-1 {
        fill: #00307d;
      }

      .cls-2 {
        fill: #78b8ef;
      }

      .cls-3 {
        fill: #007ee0;
      }

      .cls-4 {
        fill: #fefefe;
      }
    </style>
  </defs>
  <g id="Middle">
    <g>
      <path d="m77.3,0c7.2.1,17.6-.3,28,.9,3.6.4,5.8,2.9,8.1,4.7,10.8,8.3,21.3,17.1,31.8,25.8,2.1,1.8,3.5,4.4,3.6,7.1.3,6.5-.3,13,1.1,19.5,1.8,8.8-3.4,14.5-8.7,20.3-13.1,14.4-26.4,28.7-39.2,43.3-6.8,7.8-14.1,15.1-21.5,22.3-4.2,4.1-6.7,4-11-.1-15.1-14.4-28.3-30.6-42.6-45.7-8.1-8.6-15.6-17.7-23.6-26.4C-.6,67.5-.2,62.5.4,57.9c.6-4.1,1.2-8.2.6-12.1-1.1-7.8,2.2-13.1,7.9-17.6C19.4,19.9,29.7,11.5,40.1,3.2,43.7.4,48.1.3,52.3.1c7.2-.3,14.4,0,24.9,0Zm-40.7,24.5c-4.5,2.7-9.4,4.9-12.8,9.1-.9,1.1-3.7,1.2-1.8,3.7-3.3,1.2-5.2,3.3-5,6.9-.6.1-1.8-1.3-1.8,0,0,3-1.2,6.1.7,8.9,0,4.4.8,8.6,2.9,12.5-3.1.4-.9,1.5-.2,2.2,6.1,6.2,11.7,13,17.7,19.3,5.7,6.1,10.5,12.9,17.1,18.1h0c-.5.6,0,1.3.3,1.3.7,0,.6-.8.4-1.3,6.2,5.2,10.7,11.9,15.7,18.2,1.5,1.9,2.8,3.5,5.5,3.1.3-.2.6-.3,1-.5,2.3-.4,2-1.9,1.3-3.4,0-.3.1-.6.2-.9,7.8-3.4,13.5-9.3,18.9-15.6,7.1-7.7,14.3-15.4,21.3-23.2,5.1-5.6,9.9-11.4,14.9-17.1,1.8-4.1,1-8.5,1.3-12.7,1.3-3.3,1.5-6.7,0-10-1.3-2.5-3.8-3.9-5.8-5.8,2-3.6-2.2-2.7-3.1-4.2-5.9-4.9-11.8-9.7-17.7-14.6-1.2-2-3-3-5.3-3-2.9,0-5.8-.1-8.7-.9-1.1,0-2.3,0-3.4-.1-11.2-1.8-22.4-1.3-33.5,0-2.2.3-.3,1.2-.3,1.8-1.9.2-3.9,0-5.7.6-2.6.9-6.4.9-6.2,5.3-3.4-2.1-5.8-.4-7.9,2.1Z"/>
      <path class="cls-1" d="m44.5,22.6c-.2-4.4,3.5-4.4,6.2-5.3,1.8-.6,3.8-.4,5.7-.6,1.8,2.2,4.4,2.2,6.9,2.3.6,1,1.4,1.8,2.7,1.8,6.6,0,13.2,0,19.8.2,1.4,0,2.1-.6,2.2-2,2.3-.7,4.5-1.6,5.6-4,2.8.8,5.7.9,8.7.9,2.3,0,4.1,1,5.3,3-1.8,2.5-3.3,5.3-5.8,7.1-1.8,1.3-1.8,2.9-1.1,4.6,2.2,5.6,4.5,11.2,6.8,16.8.8,3.7,2.9,1.1,3.9.5,5.8-3.3,11.4-6.8,17-10.2,2,1.8,4.5,3.2,5.8,5.8-2.6,4.3-7.8,5.7-11.4,10h11.5c-.3,4.2.5,8.6-1.3,12.7-4.4.4-8.6,1.3-13.1,1.2-11-.2-11,0-14.2,10.3-3,9.6-6,19.2-9,28.7-5.4,6.3-11.1,12.3-18.9,15.6,0-3.9,2.3-7.1,3-10.7,4.8-11.7,7.6-24,12.9-35.6,2.8-6.2,1.2-7.7-5.6-6.6-1.1.2-2.3.2-3.4.3-10.1-.6-20.3.6-31.3-1.6,8.7,19.9,14.4,39.8,21.9,59.1-2.6.4-4-1.2-5.5-3.1-5-6.3-9.5-13-15.7-18.2-.3.1-.5.1-.8,0,0,0,0,0,0,0-3.3-12.4-8.4-24.3-10.8-37.1-6.1-1.9-12.4-1.5-18.7-1.3-1.7-.4-3.4-.8-5.1-1.2-2.1-3.9-2.9-8.1-2.9-12.5,3.7,0,7.5,0,12.3,0-4.5-3.6-7.9-6.3-11.2-9-.2-3.6,1.7-5.8,5-6.9.9.4,1.9.8,2.8,1.2,4,3.8,9,6,13.7,8.8,3,3.1,4.4,2.6,5.5-1.7,1.3-4.9,3.1-9.7,5.2-14.3,1.6-3.4.9-5.1-2.6-5.9,0-1.5-.9-2.4-2.2-3Zm21.8,9.9c-2.3-.8-6-3.1-6.7.3-1.5,7.2-4.1,14.1-5.7,21.3,1.8.5,3.8,0,5.3,1.1,8.7,0,17.4.1,26.1.1,1.9,0,4,.7,5.6-1h5.7c-1.6-5.3-3.1-10.1-4.4-15-.7-2.6-.4-6.3-2-7.7-1.5-1.3-5.1-.1-7.7.1-4.8.4-9.7-1-14.4.8-.6,0-1.2,0-1.8,0Z"/>
      <path class="cls-3" d="m80.8,111.3c-.7,3.7-3.1,6.8-3,10.7,0,.3-.2.6-.2.9-2,.5-1.8,1.9-1.3,3.4-.3.2-.6.3-1,.5-7.5-19.3-13.2-39.2-21.9-59.1,11.1,2.2,21.2,1,31.3,1.6-.3.5-.6,1-.9,1.5-2.4.8-5.7,1-5.7,4.4,0,2.1.9,4.4,3.7,4.7,0,5.4-1.7,10.5-2.3,15.7-.6,5.2-2.1,10.6,1.3,15.5Z"/>
      <path class="cls-3" d="m96.8,106.4c3-9.6,6-19.2,9-28.7,3.2-10.4,3.2-10.5,14.2-10.3,4.4,0,8.7-.8,13.1-1.2-5,5.7-9.8,11.5-14.9,17.1-7,7.8-14.2,15.4-21.3,23.2Z"/>
      <path class="cls-3" d="m18.8,65.9c1.7.4,3.4.8,5.1,1.2-.7,6.4,4.5,6.4,8.3,7.4,3.8,1.1,7.6.5,10-3.2.5-.7.3-1.9.4-2.9,2.4,12.7,7.5,24.6,10.8,37.1-6.6-5.2-11.5-12-17.1-18.1-6-6.4-11.6-13.1-17.7-19.3-.7-.7-2.8-1.8.2-2.2Z"/>
      <path class="cls-3" d="m128.4,37.6c-5.7,3.4-11.3,6.9-17,10.2-1,.6-3.1,3.2-3.9-.5-.1-4,.6-8-.7-12-.7-2.3.8-4.5,2.3-6.1,1.5-1.5,3.3,0,4.9.6,3.7,1.5,7.1,4,11.3,3.6.9,1.5,5,.6,3.1,4.2Z"/>
      <path class="cls-2" d="m125.3,33.4c-4.3.3-7.6-2.2-11.3-3.6-1.6-.6-3.4-2.2-4.9-.6-1.5,1.6-3,3.8-2.3,6.1,1.3,4,.6,8,.7,12-2.3-5.6-4.5-11.2-6.8-16.8-.7-1.7-.8-3.3,1.1-4.6,2.5-1.8,4-4.6,5.8-7.1,5.9,4.9,11.8,9.7,17.7,14.6Z"/>
      <path class="cls-4" d="m93.7,14.9c-1.2,2.3-3.3,3.3-5.6,4-8.2,0-16.5,0-24.7,0-2.5,0-5.1,0-6.9-2.3,0-.6-1.9-1.6.3-1.9,11.2-1.3,22.4-1.8,33.5,0,1.1.2,2.3,0,3.4.1Z"/>
      <path class="cls-4" d="m44.5,22.6c1.3.6,2.1,1.5,2.2,3,.3,5-3.6,6.4-7.1,8.1-1.2-.7-2.5-1.5-3.7-2.2-1.7-2.5,0-4.6.8-6.9,2.2-2.5,4.6-4.1,7.9-2.1Z"/>
      <path class="cls-2" d="m36.6,24.6c-.9,2.2-2.5,4.3-.8,6.9-3.7,2.4-7.3,4.8-11,7.2-.9-.4-1.9-.8-2.8-1.2-1.9-2.5,1-2.6,1.8-3.7,3.4-4.3,8.3-6.4,12.8-9.1Z"/>
      <path class="cls-3" d="m17,44.4c3.4,2.7,6.7,5.4,11.2,9-4.8,0-8.6,0-12.3,0-1.9-2.8-.7-5.9-.7-8.9,0-1.4,1.2,0,1.8,0Z"/>
      <path class="cls-3" d="m134.3,53.4h-11.5c3.5-4.2,8.8-5.6,11.4-10,1.6,3.3,1.4,6.6,0,10Z"/>
      <path class="cls-1" d="m76.2,126.3c-.4-1.5-.6-2.9,1.3-3.4.6,1.6.9,3-1.3,3.4Z"/>
      <path class="cls-3" d="m53.3,105.5c.3.1.5.2.8,0,.1.6.3,1.2-.5,1.3-.3,0-.9-.7-.3-1.4Z"/>
      <path class="cls-3" d="m90.9,54.2c-1.6,1.7-3.7,1-5.6,1-8.7,0-17.4,0-26.1-.1.6-4.1,2.8-7.5,5.1-10.8,4.4,1,5.6-3.5,8.6-4.9,1.6,0,3.3.4,4.8,0,5.9-1.1,8.6,2.5,10.5,7,1.1,2.5,1.7,5.2,2.6,7.7Z"/>
      <path class="cls-2" d="m83.9,70.9c.3-.5.6-1,.9-1.5,1.1-.1,2.3-.1,3.4-.3,6.8-1,8.4.4,5.6,6.6-5.2,11.5-8,23.9-12.9,35.6-3.4-4.9-1.9-10.3-1.3-15.5.6-5.3,2.4-10.4,2.3-15.7,2.6-.4,5.4-.5,6-3.9.7-3.2-1.8-4.2-4-5.3Z"/>
      <path class="cls-2" d="m90.9,54.2c-.8-2.6-1.5-5.3-2.6-7.7-2-4.5-4.6-8.2-10.5-7-1.6.3-3.2,0-4.8,0-1.2-2.6-.6-6.5-4.9-6.9,4.7-1.9,9.6-.4,14.3-.8,2.6-.2,6.2-1.4,7.7-.1,1.6,1.4,1.3,5,2,7.7,1.4,4.9,2.9,9.8,4.4,15h-5.7Z"/>
      <path class="cls-2" d="m39.5,33.7c3.5-1.7,7.4-3.1,7.1-8.1,3.5.8,4.1,2.5,2.6,5.9-2.1,4.6-4,9.4-5.2,14.3-1.1,4.3-2.5,4.8-5.5,1.7-1.7-4.7-.2-9.2,1-13.7Z"/>
      <path class="cls-2" d="m42.6,68.5c-.1,1,0,2.1-.4,2.9-2.4,3.7-6.1,4.3-10,3.2-3.8-1.1-9-1.1-8.3-7.4,6.3-.2,12.6-.6,18.7,1.3Z"/>
      <path class="cls-3" d="m39.5,33.7c-1.2,4.5-2.7,9-1,13.7-4.6-2.8-9.7-5-13.7-8.8,3.7-2.4,7.3-4.8,11-7.2,1.2.7,2.5,1.5,3.7,2.2Z"/>
      <path class="cls-2" d="m64.3,44.2c-2.4,3.3-4.5,6.7-5.1,10.8-1.6-1.1-3.5-.6-5.3-1.1,1.6-7.2,4.2-14.1,5.7-21.3.7-3.3,4.3-1,6.7-.3-5.9,2.6-6.6,6.7-2,11.8Z"/>
      <path class="cls-4" d="m64.3,44.2c-4.6-5.1-4-9.2,2-11.8.6,0,1.2,0,1.8,0,4.3.4,3.7,4.3,4.9,6.9-3,1.4-4.3,5.9-8.6,4.9Z"/>
      <path d="m63.3,18.9c8.2,0,16.5,0,24.7,0-.1,1.3-.9,2-2.2,2-6.6,0-13.2-.1-19.8-.2-1.3,0-2.1-.7-2.7-1.8Z"/>
      <path class="cls-4" d="m83.9,70.9c2.2,1.1,4.7,2,4,5.3-.7,3.3-3.4,3.5-6,3.9-2.8-.3-3.7-2.6-3.7-4.7,0-3.4,3.3-3.6,5.7-4.4Z"/>
    </g>
  </g>
</svg>