<?xml version="1.0" encoding="UTF-8"?>
<svg id="Layer_2" data-name="Layer 2" xmlns="http://www.w3.org/2000/svg" width="92" height="161" viewBox="0 0 92 161">
  <defs>
    <style>
      .cls-1 {
        fill: #fefefe;
      }
    </style>
  </defs>
  <g id="Middle">
    <g>
      <path class="cls-1" d="m80,97.1c0,8.3-2.4,15-7.2,20-4.8,5-10.6,8.3-17.4,9.9v10.2c0,3.7-.3,6.3-1,7.8-.7,1.5-1.7,2.5-3,3-1.3.5-3.1.8-5.4.8s-4-.3-5.4-.8c-1.3-.5-2.3-1.5-2.8-2.9-.7-1.8-1.1-4.5-1.1-8.2v-9.9c-4.4-1-8.3-2.6-11.8-4.8-3.5-2.2-6-4.2-7.4-5.9l-2.1-2.7c-2.2-2.9-3.4-5.4-3.4-7.5s1.8-5,5.4-8.5c2.1-2,4.4-3,6.8-3s5.7,2.1,10,6.4c3.3,4.1,7,6.1,11.2,6.1,7.9,0,11.8-3.3,11.8-9.8s-1.5-4.2-4.5-5.4c-3-1.3-6.6-2.4-10.9-3.4-4.3-1-8.5-2.4-12.8-4.1-4.3-1.7-7.9-4.6-10.9-8.8-3-4.2-4.5-9.4-4.5-15.8s2-12.2,6.1-17.3c4.1-5.1,9.7-8.4,16.8-9.9v-9c0-3.6.3-6.2,1-7.8,1.1-2.6,3.9-3.8,8.5-3.8s5,.6,6.5,1.8c1.4,1.2,2.3,2.5,2.5,3.9.2,1.4.3,3.4.3,6.1v9c3,.6,5.7,1.5,8.2,2.7,2.5,1.2,4.2,2.1,5.1,2.9l1.4,1.3.6.5c2.7,2.5,4,4.5,4,6.1s-1.3,4.3-3.8,8c-2.5,3.7-5.3,5.6-8.2,5.6s-3.5-.5-4.9-1.4c-1.3-1-2.4-1.8-3.1-2.4-.7-.6-1.4-1.2-2.1-1.6-1.8-1.2-4.1-1.8-6.9-1.8s-5.1.7-6.9,2c-1.8,1.3-2.7,3.2-2.7,5.5s1.1,4.2,3.3,5.7c2.2,1.4,4.9,2.4,8.1,2.9,3.2.5,6.7,1.3,10.6,2.4,3.8,1.1,7.4,2.4,10.6,3.9,3.2,1.5,5.9,4.1,8.1,7.9,2.2,3.8,3.3,8.5,3.3,14.2Z"/>
      <path d="m46.1,12c2.9,0,5,.6,6.5,1.8,1.4,1.2,2.3,2.5,2.5,3.9.2,1.4.3,3.4.3,6.1v9c3,.6,5.7,1.5,8.2,2.7,2.5,1.2,4.2,2.1,5.1,2.9l1.4,1.3.6.5c2.7,2.5,4,4.5,4,6.1s-1.3,4.3-3.8,8c-2.5,3.7-5.3,5.6-8.2,5.6s-3.5-.5-4.9-1.4c-1.3-1-2.4-1.8-3.1-2.4-.7-.6-1.4-1.2-2.1-1.6-1.8-1.2-4.1-1.8-6.9-1.8s-5.1.7-6.9,2c-1.8,1.3-2.7,3.2-2.7,5.5s1.1,4.2,3.3,5.7c2.2,1.4,4.9,2.4,8.1,2.9,3.2.5,6.7,1.3,10.6,2.4,3.8,1.1,7.4,2.4,10.6,3.9,3.2,1.5,5.9,4.1,8.1,7.9,2.2,3.8,3.3,8.5,3.3,14.2,0,8.3-2.4,15-7.2,20-4.8,5-10.6,8.3-17.4,9.9v10.2c0,3.7-.3,6.3-1,7.8-.7,1.5-1.7,2.5-3,3-1.3.5-3.1.8-5.4.8s-4-.3-5.4-.8c-1.3-.5-2.3-1.5-2.8-2.9-.7-1.8-1.1-4.5-1.1-8.2v-9.9c-4.4-1-8.3-2.6-11.8-4.8-3.5-2.2-6-4.2-7.4-5.9l-2.1-2.7c-2.2-2.9-3.4-5.4-3.4-7.5s1.8-5,5.4-8.5c2.1-2,4.4-3,6.8-3s5.7,2.1,10,6.4c3.3,4.1,7,6.1,11.2,6.1,7.9,0,11.8-3.3,11.8-9.8s-1.5-4.2-4.5-5.4c-3-1.3-6.6-2.4-10.9-3.4-4.3-1-8.5-2.4-12.8-4.1-4.3-1.7-7.9-4.6-10.9-8.8-3-4.2-4.5-9.4-4.5-15.8s2-12.2,6.1-17.3c4.1-5.1,9.7-8.4,16.8-9.9v-9c0-3.6.3-6.2,1-7.8,1.1-2.6,3.9-3.8,8.5-3.8m0-12c-13,0-17.8,7-19.6,11.2h0c0,0,0,.2,0,.2-1.2,3.1-1.8,7-1.8,12.3v.3c-5.6,2.6-10.4,6.3-14.2,11.1-5.8,7.3-8.7,15.6-8.7,24.7s2.3,16.6,6.7,22.8c1.1,1.5,2.2,2.9,3.4,4.1-.9.6-1.8,1.4-2.7,2.2h0s0,0,0,0c-3.9,3.8-9.1,9.7-9.1,17.1s1.9,9.8,5.9,14.8l2.1,2.7h.1c0,.1.1.3.1.3,2.3,2.8,5.5,5.5,10.2,8.5,2,1.3,4.1,2.4,6.3,3.3v1.2c0,5.3.6,9.3,2,12.6,1.7,4.4,5.1,7.8,9.5,9.6,2.8,1.1,6,1.7,9.8,1.7s7-.5,9.8-1.7c4.2-1.7,7.5-4.8,9.5-9.1,1.5-3.2,2.2-7.2,2.2-12.9v-1.7c5.3-2.4,10-5.8,14.1-10.1,7-7.3,10.5-16.8,10.5-28.3s-1.6-14.5-4.9-20.2c-2.8-4.8-6.2-8.5-10.3-11.1,1.4-1.3,2.8-3,4.1-4.9,4.1-6.1,5.8-10.4,5.8-14.7,0-7.7-5.9-13.1-7.9-14.9l-.4-.4-.5-.4-.2-.2-1.1-1-.3-.3-.3-.2c-1.7-1.3-3.9-2.6-7.3-4.2-.4-.2-.9-.4-1.3-.6v-.2c0-3.3-.1-5.9-.5-7.9-.5-3-2-7.3-6.6-11.2-3.7-3.1-8.5-4.7-14.3-4.7h0Z"/>
    </g>
  </g>
</svg>