<?xml version="1.0" encoding="UTF-8"?>
<svg id="Layer_2" data-name="Layer 2" xmlns="http://www.w3.org/2000/svg" width="126.3" height="125.3" viewBox="0 0 126.3 125.3">
  <defs>
    <style>
      .cls-1 {
        fill: #fefefe;
      }
    </style>
  </defs>
  <g id="Middle">
    <g>
      <path d="m63.7,0c15.7,0,31.4,0,47.1,0,23.5,1.9,18.4,36.3-3.1,34.8-16.6.4-33.3-.7-49.9-1-13.5,1.7-27,.3-40.5.9-7.2.3-15.4-5.2-17.1-15.3C-1.5,11.1,5.2-.3,15.6,0,31.6,0,47.7,0,63.7,0Zm23.6,21.9c7.5,0,13.7-.3,19.8,0,4.7.3,5.4-1.8,5.4-5.8,0-4.6-2.2-4.1-5.3-3.2-20.9-.6-41.9-1.2-62.8-.9-8.7.3-17.4,2.2-26.1.7-3.6-.3-4,1.1-4.1,3.3,0,2.3-1.5,5.9,2.9,6,22.8,0,47.7,1.5,70.2,0Z"/>
      <path d="m63.6,44.7c15.7,0,31.4,0,47.1,0,23.5,1.4,18.6,36.8-3.3,34.9-16.6.4-33.3-.8-49.9-1-13.3,1.7-26.7.3-40,.9-6.9.3-15.4-4.8-17.3-15.2-2-7.6,4.6-20.1,15.1-19.6,16,0,32.1,0,48.1,0Zm24,21.9c7.4,0,13.4-.3,19.3.1,5,.4,5.7-1.8,5.7-6.1,0-5.1-3-3.3-5.5-3-20.9-.8-41.9-1.2-62.9-1-8.7.3-17.4,2.2-26.1.6-3.4-.3-3.8,1.2-3.8,3,0,2.4-1.6,6.1,3.1,6.3,22.8,0,47.7,1.4,70.2,0Z"/>
      <path d="m64.2,90.4c15.5,0,31.1,0,46.6,0,23.5,1.9,18.3,36.4-3.1,34.8-15-.4-30,.4-44.9-1.1-15.1,1.5-30.3.8-45.4,1.1-7.2.1-15.4-5.3-17.1-15.4-1.8-8.4,4.9-19.8,15.3-19.4,16.2,0,32.4,0,48.6,0Zm23,21.9c7.7,0,14-.3,20.2.1,5.3.4,5-2.6,5-6.2,0-4.5-2.4-3.5-5.1-2.9-20.6-.7-41.2-1.2-61.9-.9-9.2,0-18.4,2.3-27.6.6-3.6-.4-3.6,1.5-3.7,3.2-.1,2.3-1.6,6,2.8,6.1,22.9,0,47.7,1.5,70.2,0Z"/>
      <path class="cls-1" d="m87.3,21.9c-22.5,1.4-47.3,0-70.2,0-4.4-.1-3-3.7-2.9-6,0-2.2.4-3.6,4.1-3.3,8.7,1.6,17.4-.4,26.1-.7,20.9-.3,42,.3,62.8.9,3-.9,5.3-1.4,5.3,3.2,0,4.1-.7,6.1-5.4,5.8-6.1-.4-12.2,0-19.8,0Z"/>
      <path class="cls-1" d="m87.5,66.6c-22.4,1.4-47.3,0-70.2,0-4.8-.1-3.2-3.8-3.1-6.3,0-1.9.4-3.4,3.8-3,8.7,1.6,17.4-.3,26.1-.6,21-.2,41.9.1,62.9,1,2.5-.3,5.5-2.1,5.5,3,0,4.3-.7,6.5-5.7,6.1-5.9-.4-11.9-.1-19.3-.1Z"/>
      <path class="cls-1" d="m87.2,112.3c-22.5,1.4-47.3,0-70.2,0-4.3-.1-2.9-3.8-2.8-6.1,0-1.7,0-3.6,3.7-3.2,9.2,1.7,18.3-.5,27.6-.6,20.6-.3,41.3.3,61.9.9,2.7-.6,5.2-1.6,5.1,2.9,0,3.6.3,6.6-5,6.2-6.3-.4-12.6-.1-20.2-.1Z"/>
    </g>
  </g>
</svg>