<?xml version="1.0" encoding="UTF-8"?>
<svg id="Layer_2" data-name="Layer 2" xmlns="http://www.w3.org/2000/svg" width="165.1" height="168.2" viewBox="0 0 165.1 168.2">
  <defs>
    <style>
      .cls-1 {
        fill: #7d89a2;
      }

      .cls-2 {
        fill: #feffff;
      }

      .cls-3 {
        fill: #b4bbca;
      }

      .cls-4 {
        fill: #696581;
      }
    </style>
  </defs>
  <g id="Middle">
    <g>
      <path class="cls-2" d="m94.1,168.2c-11.1,0-22.2,0-33.2,0-8.5,0-17,0-25.4,0-8,0-14.9-6.6-15-14.6-.2-14.1-.1-28.1,0-42.2,0-3.3-.2-5-4.3-5-7.4.1-15.8-9.2-16-17.1,0-3.3.1-6.6,0-9.9-.2-4,1.3-7.4,4-10.1C25.1,48.3,46.4,27.4,67.2,6.1c6.7-6.9,14.8-6.7,22.7-5.3,4.5.7,7.6,5.5,11,8.7,19,18.7,37.5,37.9,56.8,56.2,7.9,7.5,8.2,15.9,6.7,25.1-1.5,9.3-7.2,15-16.9,15.8-3.1.3-2,2.5-2.1,4,0,13.4-.4,26.8.1,40.2.4,9.1-6.7,17.2-17.7,17.3-11.2.1-22.5,0-33.7,0Zm44.1-69.4c2.3,1.3,4.5,1,6.6.8,5.5-.6,10.2-3.1,12.1-8.3,2-5.5,3-11.9-1.5-16.5-21.1-21.5-42.5-42.7-63.8-64-5.5-5.5-11.8-5.1-17.5.4-6.1,5.8-12,11.7-18.1,17.4-14.8,14-29,28.6-43.3,43.1-6,6.1-6.7,15.7-1.6,22.6,4.2,5.6,10.2,6.2,17.2,4.5-1.8,2.6-1.3,5-1.3,7.4,0,13.1.6,26.2-.2,39.2-.7,11.6,6.7,15.4,16,15.9,7.5.4,14.8-.8,22.4-.2,10.9.8,21.8.1,32.8.2,3.8,0,7.5-2.1,11.1-.9,5.2,1.6,10.6,1.4,15.6.7,9.9-1.3,14-3.2,13.7-13.9-.6-16-.1-32.1-.1-48.3Z"/>
      <path d="m138.2,98.8c0,16.2-.4,32.3.1,48.3.4,10.7-3.8,12.6-13.7,13.9-5.1.7-10.4,1-15.6-.7-3.7-1.2-7.4,1-11.1.9-10.9-.1-21.9.5-32.8-.2-7.5-.5-14.9.6-22.4.2-9.3-.5-16.7-4.3-16-15.9.8-13,.2-26.1.2-39.2,0-2.4-.4-4.8,1.3-7.4-7,1.7-13.1,1.1-17.2-4.5-5.1-6.8-4.4-16.5,1.6-22.6,14.3-14.5,28.5-29.1,43.3-43.1,6.1-5.8,12.1-11.6,18.1-17.4,5.7-5.5,12-5.9,17.5-.4,21.4,21.2,42.7,42.5,63.8,64,4.5,4.6,3.6,11,1.5,16.5-1.9,5.2-6.7,7.7-12.1,8.3-2.1.2-4.3.5-6.6-.8Zm0-14.3c1.8.1,3.6,2.8,5.2.3,1.7-2.6-1.3-3.3-2.5-4.5-13.5-13.7-27-27.3-40.6-40.7-6-5.9-10.7-13.1-17.6-18.2-19.8,19.8-39.4,39.4-59,59.1-1,1-3.5,1.6-2,4.2,1.8,3.1,3.3-.5,4.9-.1,2.7.4,5.6.6,8.2,1.4,2.7.9,6,1.9,5.8,5.7-1.2,17.3,2.5,34.5.3,51.8-.2,1.4-.8,4.5,1.8,4.7,3.3.3,6.9,1.1,10.1-.6.7-.4,0-1.1,0-1.7,0-11.7-.3-23.5,0-35.2.2-7.5,3.3-14.1,10.7-16.7,12.5-4.3,25.3-4,37.8,0,6.8,2.1,10.9,8.4,10.9,15.7,0,11.4.3,22.9-.1,34.3-.2,5.6,3,4.5,6.2,4.6,3.3,0,6.2.8,6-4.7-.5-16.4,0-32.8-.2-49.2,0-4.4,1.9-7.3,5.9-8.5,2.6-.8,5.4-1,8.2-1.4Zm-39.8,43.4c0-5.3-.1-10.6,0-15.8.1-3-.6-4.9-3.9-5.5-8.2-1.5-16.3-1.3-24.4.1-2.1.4-2.6,1.7-2.6,3.5,0,11.5.4,23-.9,34.5-.3,2.6.6,3.8,3.5,3.7,8.2-.2,16.5-.2,24.8,0,2.9,0,3.7-1,3.6-3.7-.2-5.6,0-11.2,0-16.8Z"/>
      <path class="cls-1" d="m138.3,84.5c-2.7.5-5.5.6-8.2,1.4-4,1.3-5.9,4.2-5.9,8.5.1,16.4-.2,32.8.2,49.2.2,5.5-2.8,4.8-6,4.7-3.2,0-6.4,1-6.2-4.6.5-11.4.1-22.8.1-34.3,0-7.4-4-13.6-10.9-15.7-12.6-4-25.4-4.2-37.8,0-7.4,2.6-10.5,9.2-10.7,16.7-.3,11.7,0,23.5,0,35.2,0,.6.7,1.3,0,1.7-3.2,1.7-6.8.9-10.1.6-2.6-.2-2-3.3-1.8-4.7,2.3-17.3-1.5-34.5-.3-51.8.3-3.7-3.1-4.7-5.8-5.7-2.6-.9-5.4-1-8.2-1.4.5-2.4,2.1-4.1,3.7-5.7,14.2-14.7,28.4-29.5,45.2-41.4,1.3-.9,2.6-1.5,4.1-1.3,4.5.8,8.9,1.4,12.8,4.5,15.5,11.9,29.7,25.2,43.1,39.3,1.2,1.3,2.7,2.5,2.5,4.6Z"/>
      <path class="cls-4" d="m98.4,127.8c0,5.6-.1,11.2,0,16.8,0,2.7-.7,3.8-3.6,3.7-8.2-.2-16.5-.2-24.8,0-3,0-3.8-1.1-3.5-3.7,1.3-11.5,1-23,.9-34.5,0-1.8.5-3.2,2.6-3.5,8.1-1.5,16.2-1.6,24.4-.1,3.4.6,4,2.5,3.9,5.5-.2,5.3,0,10.6,0,15.8Z"/>
      <path class="cls-3" d="m138.3,84.5c.3-2.1-1.2-3.3-2.5-4.6-13.5-14.1-27.7-27.4-43.1-39.3-3.9-3-8.3-3.6-12.8-4.5-1.5-.3-2.8.3-4.1,1.3-16.8,11.9-31,26.7-45.2,41.4-1.6,1.6-3.2,3.3-3.7,5.7-1.6-.4-3.1,3.2-4.9.1-1.5-2.5,1-3.1,2-4.2,19.6-19.7,39.2-39.3,59-59.1,6.9,5.1,11.6,12.3,17.6,18.2,13.7,13.5,27.2,27.1,40.6,40.7,1.1,1.2,4.2,1.9,2.5,4.5-1.7,2.5-3.5-.2-5.2-.3Z"/>
    </g>
  </g>
</svg>