<?xml version="1.0" encoding="UTF-8"?>
<svg id="Layer_2" data-name="Layer 2" xmlns="http://www.w3.org/2000/svg" width="145.8" height="166.9" viewBox="0 0 145.8 166.9">
  <defs>
    <style>
      .cls-1 {
        fill: #7d89a2;
      }

      .cls-2 {
        fill: #b4bbca;
      }

      .cls-3 {
        fill: #26282e;
      }

      .cls-4 {
        fill: #fefefe;
      }
    </style>
  </defs>
  <g id="Middle">
    <g>
      <path class="cls-4" d="m145.7,64c0,13.1,0,26.3,0,39.4,0,14.3-9.3,25.8-20.2,29.4-4.1,35.9-11.6,33.8-18.5,33.8-22.9,2.2-37-8.5-44.4-13.9-2.6-1.9-11.6-9.6-22-19.3-2.3-2.8-4.7-2.9-7.7-2.9-9.2-.2-17.6-2.3-24.2-9.7-4-4.4-5.1-9.7-6.4-15.1C-.4,95.1-.3,84.1.5,73.3c.6-8,1.4-16.3,5.3-23.5,4.5-8.3,12.2-12.1,21.2-11.8,6.9.2,11.5-1.8,16.3-6.8,12.4-12.9,26.1-24.1,43.7-29.4,7.7-2.3,15.4-1.9,23.1-1.1,19.3,2,11.8,30.8,15.6,33.2,0,0,0,0,0,0,.1.6,20,2.6,19.9,30.2Zm-6.9,21c0-7,.4-12.9,0-18.6-1-11.2-4.4-22-18-25.7-1.3-.4-3.3-.8-2.9-3.2.7-5-.8-9.8-1-14.7-.4-10.6-7-16.8-17.2-15.8-3.8.4-7.5,1.5-11.2,2.7-15.3,5.1-27.1,15.4-38.8,26-3.2,2.8-5.2,8-8.3,9.2-3.3,1.2-8.3,0-12.5,0-7.7.1-15.8,5.6-17.5,12.4-2.1,8.6-4.3,17.3-4.3,26.3,0,6.9,1.9,13.5,3,20.2,1.9,12.1,8.5,18.2,20.7,18.9,10.4.6,10.1,1,18.4,8.4,10.6,9.5,21.3,18.9,34.7,24.5,7,2.9,14.1,4.8,21.7,4,3.7-.4,6.6-2.1,8.3-5.7,3.4-7.1,3.4-14.8,3.9-22.3.2-3.4.9-5.1,4.3-6,7.7-2.1,12.4-7.4,14.9-14.9,3-8.8,1.4-17.9,1.9-25.7Z"/>
      <path d="m138.8,85c-.5,7.8,1.1,16.8-1.9,25.7-2.6,7.5-7.2,12.8-14.9,14.9-3.3.9-4.1,2.6-4.3,6-.4,7.5-.5,15.2-3.9,22.3-1.7,3.6-4.6,5.2-8.3,5.7-7.6.9-14.8-1-21.7-4-13.4-5.6-24.1-15-34.7-24.5-8.3-7.5-8-7.8-18.4-8.4-12.2-.7-18.8-6.8-20.7-18.9-1.1-6.7-3-13.3-3-20.2,0-9,2.2-17.7,4.3-26.3,1.7-6.8,9.8-12.3,17.5-12.4,4.2,0,9.2,1.2,12.5,0,3.1-1.1,5.1-6.3,8.3-9.2,11.7-10.5,23.5-20.9,38.8-26,3.7-1.2,7.4-2.4,11.2-2.7,10.2-1,16.7,5.3,17.2,15.8.2,4.9,1.7,9.8,1,14.7-.4,2.4,1.6,2.8,2.9,3.2,13.6,3.7,17,14.5,18,25.7.5,5.8,0,11.6,0,18.6Zm-20.8-22.3v50.9c4.1-3.2,6.9-6.3,6.9-11.1,0-13.3,0-26.6-.1-39.9-1.4-3.5-1.8-7.8-6.7-8.4v8.4Zm-94.8,5c-.2,2-.9,3.8-1.3,5.7-1.6,8.7-.5,17.3,1,25.9,1.4,7.9,7.6,12.6,16.2,11.4,4.8.6,8.8,4.4,14,3.9,4.2,5.5,9.5,10,14.7,14.4,9,7.7,18.6,14.3,30.3,17.2,5.5,1.4,6.9.4,6.8-5.3,0-14.1,0-28.1-.9-42.2-1.4-20.3,1.6-40.7.7-61.1,0-4.6.3-9.3,0-13.9,0-2,0-3.9-3.9-3.3-6.3,1-11.8,3.3-17.2,6.1-9.9,5.1-17.9,13-26.1,20.4-2.4,2.1-5.5,4.7-5.5,8.8-.1.3-.2.6-.3,1-4.3,0-8.6,0-12.9,0-8-2.5-15.8,2.9-15.7,10.9Z"/>
      <path class="cls-1" d="m51.8,56.6c.1-.3.2-.6.3-1,.6-.2,1.4-.2,1.8-.7,10-10.6,23.2-15.9,35.8-22.2,8-4,10.5-3,14.6,4.5,0,.1.2.2.4.3.9,20.4-2.1,40.7-.7,61.1,1,14.1.8,28.1.9,42.2,0,5.7-1.3,6.7-6.8,5.3-11.7-2.9-21.3-9.5-30.3-17.2-5.2-4.5-10.5-8.9-14.7-14.4-1.2-4.6-2.2-9.2-2.1-14,.3-14.6-.8-29.3.8-43.9Z"/>
      <path class="cls-3" d="m51.8,56.6c-1.6,14.6-.5,29.3-.8,43.9,0,4.8.9,9.4,2.1,14-5.2.5-9.1-3.2-14-3.9-1.5-4.2-2-8.5-2.1-12.9-.2-10.7-.1-21.4-.1-32.1,2.3-2.6-.2-6.3,2-9,4.3,0,8.6,0,12.9,0Z"/>
      <path class="cls-1" d="m37,65.7c0,10.7,0,21.4.1,32.1,0,4.4.6,8.7,2.1,12.9-8.6,1.3-14.8-3.5-16.2-11.4-1.5-8.6-2.7-17.1-1-25.9.4-1.9,1.1-3.8,1.3-5.7,4.3-2.2,9-2.2,13.7-2Z"/>
      <path class="cls-2" d="m104.7,37.7c-.1-.1-.3-.2-.4-.3-4-7.5-6.5-8.4-14.6-4.5-12.6,6.3-25.8,11.6-35.8,22.2-.4.4-1.2.4-1.8.7,0-4.1,3.1-6.7,5.5-8.8,8.2-7.4,16.1-15.2,26.1-20.4,5.4-2.8,10.9-5.1,17.2-6.1,3.9-.6,3.8,1.3,3.9,3.3.2,4.6,0,9.3,0,13.9Z"/>
      <path class="cls-1" d="m124.7,62.7c0,13.3,0,26.6.1,39.9,0,4.8-2.8,7.9-6.9,11.1v-50.9c2.2,0,4.5,0,6.7,0Z"/>
      <path class="cls-2" d="m37,65.7c-4.7-.2-9.4-.3-13.7,2,0-8,7.7-13.4,15.7-10.9-2.2,2.6.3,6.3-2,9Z"/>
      <path class="cls-2" d="m124.7,62.7c-2.2,0-4.5,0-6.7,0v-8.4c5,.7,5.3,5,6.7,8.4Z"/>
    </g>
  </g>
</svg>