<?xml version="1.0" encoding="UTF-8"?>
<svg id="Layer_2" data-name="Layer 2" xmlns="http://www.w3.org/2000/svg" width="155.3" height="150" viewBox="0 0 155.3 150">
  <defs>
    <style>
      .cls-1 {
        fill: #e1b86a;
      }

      .cls-2 {
        fill: #c88300;
      }
    </style>
  </defs>
  <g id="Middle">
    <g>
      <path d="m128.8,64.4c5.5,11.8,1.7,20.8-10.1,24.3-5.6,1.7-9-3-12.9-5.5-3.1-2-5.6-6.6-8.6-6.8-3.1-.3-4.3,5.4-7.4,7.5-.8.5-1.3,1.5-2.1,2.1-5.7,4.1-7.6,8.3-4.3,15.7,6.3,14.1-2.9,32.5-13.7,40.3-14.4,10.4-36.5,10.8-51,.5C3.9,132.1-3.7,112.1,1.8,94.2c4.6-14.9,14.1-24.5,29.2-28,7-1.6,14.2-.9,20.9,2.2,1.9.9,2.5.5,3.9-1.1,9.3-10.4,18.8-20.6,28.4-30.7,9.4-9.8,18.8-19.7,27.9-29.9,10.2-11.4,21.6-6.9,29.2,3.4,4.1,5.6,4.3,11.4.2,16.9-1.4,1.9-1.2,2.7.3,4,3.1,2.6,5.8,5.7,9,8.3,4.3,3.4,6.1,7,3,12.2-1.8,3-3.6,6.1-5.8,8.8-6.3,7.7-10,8.4-19.2,4.1Zm-1.5-1.8c-.4-.6-.8-1.6-1.6-1-.8.6.2,1,.6,1.3.4.7.9,1.9,1.9.9.5-.5-.4-.9-.9-1.2Zm10.8-11.8c2.4-2,2.1-3.5,0-5.8-4.2-4.7-10.1-7.6-13.6-13-1.1-1.6-1.6-3,0-4.7,1.8-2,3.1-4.4,5-6.4,1.9-2.1,1-3-1-3.9-1.7-.9-2.3-5.6-5.1-2.2-5.2,6.4-11.5,11.7-17,17.8-13.7,15.3-28,30.1-42.7,44.5-4,3.9-8.8,5.5-14.5,3.3-5.3-2.1-10.8-2.5-16.3-1.2-10.6,2.7-15.7,10.5-18.7,20.2,0,2.6-.2,5.3-.1,7.9.1,19,17.3,32.6,37.3,28.4,5.9-1.2,11.5-4.3,15.4-9.6,6.4-8.7,6.8-17.7,2.7-27.4-1.9-4.4-1.6-8.8,1.3-12.8,6.3-8.4,13.6-16,20.6-23.7,3.1-3.4,5.8-3,8.8-.4,4.6,3.9,9.2,7.8,13.8,11.8,1.5,1.4,2.8,3,4.9.9,2.7-2.7-.6-3.3-1.6-4.4-4.3-4.7-9.2-8.9-13-14.2-2.1-2.9-2.7-5.4.4-8.1,2.4-2,4.7-4.3,6.6-6.7,4.5-6,4.7-6.1,10.4-1.5.8.6,1.4,1.4,2.1,2.1,3.8,3.2,7.6,6.3,11.3,9.5,1.4,1.2,2.4,1.9,3-.6Zm-14.9,8.7c-.3-4-3-5-5.3-6.4.6,3,2.6,4.6,5.3,6.4Z"/>
      <path class="cls-2" d="m128.4,16.9c2,.8,3,1.8,1,3.9-1.8,2-3.1,4.4-5,6.4-1.6,1.7-1.2,3.1,0,4.7,0,1.5-.4,2.9.7,4.2,4.3,4.9,7.8,10.5,13,14.6-.6,2.4-1.6,1.8-3,.6-3.7-3.2-7.5-6.3-11.3-9.5-.8-.6-1.4-1.5-2.1-2.1-5.7-4.6-5.9-4.5-10.4,1.5-1.9,2.5-4.2,4.7-6.6,6.7-3.2,2.7-2.5,5.3-.4,8.1,3.8,5.2,8.7,9.4,13,14.2,1,1,4.3,1.7,1.6,4.4-2.2,2.1-3.4.5-4.9-.9-4.5-4-9.2-7.9-13.8-11.8-3.1-2.6-5.7-3-8.8.4-7,7.8-14.3,15.3-20.6,23.7-2.9,3.9-3.2,8.4-1.3,12.8,4.1,9.7,3.7,18.7-2.7,27.4-3.9,5.3-9.5,8.3-15.4,9.6-20,4.2-37.2-9.4-37.3-28.4,0-2.6,0-5.3.1-7.9,3.7-.9,5.4-4.2,7.8-6.5,5-4.9,11.1-7,17.8-7.3,5.8-.2,11.6-.3,17.4,0,7.1.3,12.1-3.3,16.5-8.2,10-11.4,20.1-22.7,29.9-34.2,7.8-9.2,16.8-17.3,24.8-26.3Zm-86.1,112.4c11.8.8,21.3-10.1,21.4-21.3,0-11.3-10.3-21.5-21.7-21.4-10.9.1-21.1,9.6-21,21.9,0,11.6,9.4,20.8,21.3,20.8Z"/>
      <path class="cls-1" d="m128.4,16.9c-8,9-17,17.1-24.8,26.3-9.8,11.5-19.9,22.9-29.9,34.2-4.3,4.9-9.4,8.5-16.5,8.2-5.8-.3-11.6-.2-17.4,0-6.8.2-12.8,2.3-17.8,7.3-2.4,2.4-4.1,5.7-7.8,6.5,3-9.7,8.1-17.6,18.7-20.2,5.5-1.4,11-.9,16.3,1.2,5.7,2.3,10.5.6,14.5-3.3,14.7-14.4,28.9-29.2,42.7-44.5,5.5-6.1,11.8-11.4,17-17.8,2.8-3.5,3.5,1.3,5.1,2.2Z"/>
      <path class="cls-1" d="m138.1,50.7c-5.2-4.1-8.7-9.7-13-14.6-1.1-1.3-.8-2.8-.7-4.2,3.5,5.4,9.3,8.4,13.6,13,2.1,2.4,2.4,3.8,0,5.8Z"/>
      <path d="m42.3,129.3c-11.9,0-21.2-9.2-21.3-20.8,0-12.3,10.1-21.7,21-21.9,11.5-.1,21.8,10.1,21.7,21.4,0,11.2-9.6,22.1-21.4,21.3Zm8.5-21.2c.1-4-4.2-8.5-8.3-8.6-4-.1-8.5,4.2-8.6,8.3-.1,4,4.2,8.5,8.3,8.6,4,.1,8.5-4.2,8.6-8.3Z"/>
    </g>
  </g>
</svg>