<?xml version="1.0" encoding="UTF-8"?>
<svg id="Layer_2" data-name="Layer 2" xmlns="http://www.w3.org/2000/svg" width="181" height="180" viewBox="0 0 181 180">
  <defs>
    <style>
      .cls-1 {
        fill: #fff;
      }

      .cls-2, .cls-3 {
        fill: #7d89a2;
      }

      .cls-4 {
        fill: #b4bbca;
      }

      .cls-3 {
        stroke: #fff;
        stroke-miterlimit: 10;
        stroke-width: 13px;
      }

      .cls-5 {
        fill: #d1d2d5;
      }
    </style>
  </defs>
  <g id="Middle">
    <g>
      <g>
        <path class="cls-3" d="m174.4,26.3c.6,4.5-2.8,7-4.8,10.1-2,3-4.6,5.6-7.1,8.2-40.4,41.9-81.7,82.8-122.9,123.8-6.7,6.6-13.6,7-20.8.2-4.4-4.1-7.1-9-9.1-14.4-1.4-3.7,1.2-6.3,2.9-9,1-1.5,2.4-2.7,3.7-4C59,98.4,101.9,55.7,144.5,12.8c9.8-9.9,14.7-6.9,24.5,1.9,3.1,2.8,6.1,6.7,5.5,11.5ZM29.4,159.6c1.1-1,2.1-2,3.2-3,37.6-37.6,75.3-75.3,112.9-112.8,4.3-4.3,8.5-8.9,13.5-12.2,4.6-3,4.4-5.2,1.3-8.9-2.4-2.8-4-4.1-7.2-.6-6.9,7.5-14.1,14.9-21.3,22.2-28,28.5-56.3,56.7-84.8,84.7-7.3,7.2-14.9,14.1-22.1,21.3-.9.9-2.7,1.7-1.1,3.6,1.7,1.9,2.6,4.6,5.5,5.7Z"/>
        <path class="cls-3" d="m29.4,159.6c-2.9-1.1-3.8-3.8-5.5-5.7-1.6-1.9.1-2.7,1.1-3.6,7.2-7.2,14.8-14.2,22.1-21.3,28.5-28,56.8-56.2,84.8-84.7,7.2-7.3,14.3-14.6,21.3-22.2,3.2-3.4,4.8-2.2,7.2.6,3.2,3.7,3.4,5.8-1.3,8.9-5,3.3-9.2,7.9-13.5,12.2-37.7,37.6-75.3,75.2-112.9,112.8-1,1-2.1,2-3.2,3Z"/>
      </g>
      <g>
        <path class="cls-1" d="m34.7,29.7c0-19.8,7.6-25.6,17.9-28.2,7.3-1.9,14.9-2,22.5.2,19.3,5.6,38.7,10.8,58.2,16,8.2,2.2,15.9,4.7,20.6,12.7,2.2,3.7,3.2,7.5,3.5,11.5,2.3,30.1,1.9,60.3,1.9,90.5-4.1,26.2-39.3,31.2-49.6,30.3-25.1-2.3-32.5-15.9-32.3-27.1-.1-1.3,1.2-3.6-1.9-3.1-37.8,29.1-64.4,11.9-70.8,3.1l-.9-1C-1.5,127.5,0,119.5.8,111.6c0-.4,3.9-20.3,29.5-26,3.2-.8,4-1.9,4-4.8-.2-14.4.8-38.2.4-51.2Zm46.8,87.9c-.8.7-1.4,1.8-.1,2.2.8.2,1.3-1.2,1.2-2.3,7-8.6,15.3-15.3,26.5-17.4,1.9-.4,3.1-1.1,3-3.6-.1-10.3,0-20.6,0-30.9,0-1.3.3-2.5-1.7-3-9.9-2.4-19.7-5.1-30.1-7.8,1.5,21.3,1,42,1.1,62.8Zm71-13.6c.5-18.6-1.1-39.2-2.1-59.8-.4-8.7-5.9-15.1-14.6-17.7-16.6-4.9-33.2-9.7-49.9-14-7.9-2-15.4-5.1-24-5.1-10.4,0-19.9,11.8-19.9,20.7,0,12.4-1.5,24.8-1.1,37.2.2,7.8,0,15.6.3,23.4,0,2.3-.4,2.7-2.3,2.9-9.8,1.2-18.2,5.4-25,12.6-4.4,4.7-7.8,10.4-6.8,17,1.3,8.8,6.8,14.6,15.4,17.4,11,3.6,21.7,2.5,32.1-2,13.4-5.7,21.6-14.1,20.5-30.5-1.3-19.1,0-38.4-1.3-57.6-.2-3.4.4-4,4-2.9,12.6,3.7,25.4,6.9,38.1,10.1,2.9.7,3.8,1.9,3.9,4.9.2,4.5-1.2,8.8-1.1,13.2.2,10,0,19.9.4,29.9,0,2.2-.4,2.7-2.4,3-9.8,1.2-18.2,5.3-25,12.5-4.6,4.9-8,10.7-6.8,17.5,1.5,8.5,6.9,14.2,15.3,16.9,14.4,4.5,27.7,1.7,40.2-6.3,8.2-5.3,13.6-11.9,12.3-22.7-.7-6.1-.1-12.3-.1-20.5Z"/>
        <path d="m152.5,104c0,8.2-.6,14.5.1,20.5,1.3,10.7-4.1,17.4-12.3,22.7-12.4,8-25.7,10.9-40.2,6.3-8.4-2.6-13.9-8.4-15.3-16.9-1.2-6.7,2.2-12.6,6.8-17.5,6.8-7.2,15.2-11.3,25-12.5,2-.2,2.5-.7,2.4-3-.4-9.9-.3-19.9-.4-29.9,0-4.5,1.3-8.7,1.1-13.2-.1-3-1-4.2-3.9-4.9-12.8-3.2-25.5-6.4-38.1-10.1-3.7-1.1-4.3-.5-4,2.9,1.4,19.2,0,38.5,1.3,57.6,1.1,16.4-7,24.8-20.5,30.5-10.5,4.5-21.1,5.6-32.1,2-8.6-2.8-14.1-8.6-15.4-17.4-1-6.6,2.4-12.3,6.8-17,6.7-7.2,15.2-11.4,25-12.6,2-.2,2.4-.7,2.3-2.9-.2-7.8,0-15.6-.3-23.4-.4-12.4,1-24.8,1.1-37.2,0-8.9,9.5-20.7,19.9-20.7,8.6,0,16.1,3.1,24,5.1,16.8,4.2,33.4,9.1,49.9,14,8.7,2.5,14.1,9,14.6,17.7,1,20.6,2.6,41.2,2.1,59.8Zm-15.9-60.4h.1c-.2-3.1-1.9-5.1-4.9-5.8-21.1-5.1-42.1-10.5-62.9-16.8-6.2-1.9-11.1.6-14,6.8-.1,1.6-1.8,3-1.1,4.7,1.6,4,.9,8.1.9,12.2,0,15.7,0,31.5.1,47.2,0,3.8,1.4,7.7-2.1,10.7-6.2,1.6-12.8,1.2-18.7,4.2-4.3,2.2-9.6,3.2-11.1,8.9-3.3,4.5-2.2,7.9,3.4,10,11.1,4.2,21.1.6,30.7-4.8,2.9-1.6,3.8-4.4,3.9-8,.2-23.5-.9-47.1.8-70.6.7-9,5.3-13.3,13.3-11,16.4,4.6,32.9,9.1,49.1,14.6q8.5,2.9,8.5,11.7v8c0,13.6,0,27.3,0,40.9,0,3.4,2.2,7.1-1,10.2-2.3,1.6-5,1.8-7.7,2.2-10.2,1.6-20.3,3.8-25.1,14.8-.2,4,2.5,5.8,5.6,7,11.1,4.3,21,.5,30.5-5,2.6-1.5,3.8-4,3.8-7.5-.2-19.4-.2-38.8,0-58.2,0-6,2-12,0-18-.7-2.3-.8-4.8-1.2-7.2,0-.7-.3-.9-.9-1.1Z"/>
        <path class="cls-5" d="m81.6,117.6c.4,0,.7,0,1.1,0,0,1.1-.5,2.5-1.2,2.3-1.2-.4-.7-1.5.1-2.2Z"/>
        <path class="cls-2" d="m131.6,116.4c3.2-3.1,1-6.8,1-10.2,0-13.6,0-27.3,0-40.9v-8q0-8.8-8.5-11.7c-16.2-5.5-32.7-10-49.1-14.6-8-2.2-12.6,2.1-13.3,11-1.8,23.5-.7,47.1-.8,70.6,0,3.6-1,6.3-3.9,8-9.6,5.4-19.5,9-30.7,4.8-5.5-2.1-6.7-5.5-3.4-10,3.3,1,4.9-2.2,7.5-3,5.5-1.6,11-3.4,16.4-5.1,2.6-.8,5.7-1.1,5.8-4.9,3.5-3,2.1-6.9,2.1-10.7-.2-15.7,0-31.5-.1-47.2,0-4.1.7-8.2-.9-12.2-.7-1.7,1-3,1.1-4.7,3.1-.3,6.3-1,9.4-.8,16.9,1,33.3,5,49.4,9.8,7.7,2.3,15.4,4.7,23,7,0,0-.1,0-.1,0,.3.4.6.7.9,1.1.4,2.4.4,4.9,1.2,7.2,2,6.1,0,12,0,18,0,19.4-.1,38.8,0,58.2,0,3.5-1.2,6-3.8,7.5-9.5,5.5-19.4,9.2-30.5,5-3.2-1.2-5.9-3-5.6-7,10.7-3.5,20.6-8.9,31.3-12.2,2.1-.7,3-2.6,1.5-4.8Z"/>
        <path class="cls-4" d="m136.7,43.6c-7.7-2.3-15.3-4.7-23-7-16.2-4.8-32.5-8.8-49.4-9.8-3.1-.2-6.2.5-9.4.8,2.9-6.1,7.8-8.6,14-6.8,20.8,6.3,41.8,11.7,62.9,16.8,3,.7,4.7,2.7,4.9,5.9Z"/>
        <path class="cls-4" d="m131.6,116.4c1.5,2.2.6,4.1-1.5,4.8-10.7,3.4-20.6,8.8-31.3,12.2,4.8-11,14.8-13.2,25.1-14.8,2.8-.4,5.4-.6,7.7-2.2Z"/>
        <path class="cls-4" d="m52.7,102.4c-.1,3.8-3.3,4.1-5.8,4.9-5.4,1.8-10.9,3.5-16.4,5.1-2.6.8-4.2,4-7.5,3,1.5-5.6,6.8-6.7,11.1-8.9,5.8-3,12.5-2.6,18.7-4.2Z"/>
        <path class="cls-4" d="m137.5,44.6c-.3-.4-.6-.7-.9-1.1.5.2,1,.4.9,1.1Z"/>
      </g>
      <g>
        <path d="m174.4,26.3c.6,4.5-2.8,7-4.8,10.1-2,3-4.6,5.6-7.1,8.2-40.4,41.9-81.7,82.8-122.9,123.8-6.7,6.6-13.6,7-20.8.2-4.4-4.1-7.1-9-9.1-14.4-1.4-3.7,1.2-6.3,2.9-9,1-1.5,2.4-2.7,3.7-4C59,98.4,101.9,55.7,144.5,12.8c9.8-9.9,14.7-6.9,24.5,1.9,3.1,2.8,6.1,6.7,5.5,11.5ZM29.4,159.6c1.1-1,2.1-2,3.2-3,37.6-37.6,75.3-75.3,112.9-112.8,4.3-4.3,8.5-8.9,13.5-12.2,4.6-3,4.4-5.2,1.3-8.9-2.4-2.8-4-4.1-7.2-.6-6.9,7.5-14.1,14.9-21.3,22.2-28,28.5-56.3,56.7-84.8,84.7-7.3,7.2-14.9,14.1-22.1,21.3-.9.9-2.7,1.7-1.1,3.6,1.7,1.9,2.6,4.6,5.5,5.7Z"/>
        <path class="cls-2" d="m29.4,159.6c-2.9-1.1-3.8-3.8-5.5-5.7-1.6-1.9.1-2.7,1.1-3.6,7.2-7.2,14.8-14.2,22.1-21.3,28.5-28,56.8-56.2,84.8-84.7,7.2-7.3,14.3-14.6,21.3-22.2,3.2-3.4,4.8-2.2,7.2.6,3.2,3.7,3.4,5.8-1.3,8.9-5,3.3-9.2,7.9-13.5,12.2-37.7,37.6-75.3,75.2-112.9,112.8-1,1-2.1,2-3.2,3Z"/>
      </g>
    </g>
  </g>
</svg>