<?xml version="1.0" encoding="UTF-8"?>
<svg id="Layer_2" data-name="Layer 2" xmlns="http://www.w3.org/2000/svg" width="176.2" height="146.3" viewBox="0 0 176.2 146.3">
  <defs>
    <style>
      .cls-1 {
        fill: #7d89a2;
      }

      .cls-2 {
        fill: #b5bccb;
      }

      .cls-3 {
        fill: #fefeff;
      }
    </style>
  </defs>
  <g id="Middle">
    <g>
      <path class="cls-3" d="m49.3,18.9c17.4,0,34.7-.3,52.1.1,6.6.2,12.1-1.5,17.5-4.9,6-3.7,12.1-7.4,18.4-10.7,16.3-8.7,33.4-.4,37.7,18.3,2.9,12.7,1.4,17.9-12,26-6,3.6-12,7-18.2,10.1-2.1,1.1-2.9,2.6-3.4,4.4-4.1,12.9-8,25.8-12,38.8-.6,1.9-.1,3.7.2,5.5,3.2,17.8-1.1,32.6-20.2,38.3-12.5,3.7-24.5.4-32.8-10.9-2-2.8-3.1-2.8-5.2.2-7.9,11.2-19.7,13.5-31.9,11.2-10.3-2-17.4-9.3-20.8-19.4-1.9-5.7-1.5-12-.4-17.6,1.1-5.6-.4-10.3-1.8-15.2-4.6-15.4-9.5-30.8-14.4-46.2C0,40.8-.2,34.7.1,28.5c.3-5.1,5.7-9.4,11.9-9.5,12.4-.1,24.8,0,37.3,0Zm32.5,86.1c-2.6,5.5-4.1,10.7-2.3,16.5,3.1,9.6,11.9,17.5,21.7,16.9,17.2-1,27.2-16.4,20-33-.5-1.2-1.9-2.3-1.2-3.7,6.5-12.7,9.1-26.8,13.6-40.2,1.1-3.2,1-7.3,5-9.3,6.3-3.2,12.4-6.6,18.5-10.1,12.4-7,14.4-10.5,9.7-21.1-6.4-14.4-12.1-16.8-26.1-10.3-7.7,3.5-14.7,8.4-22,12.7-3,1.8-5.9,3-9.5,2.9-20.9-.2-41.7-.3-62.6-.3-10.3,0-20.5-.1-30.8,0-5.6,0-9.7,3.8-8.8,8.1.7,3.3,1.8,6.4,2.8,9.6,3.7,12.5,6.9,25.3,11.3,37.5,2.5,6.8,2.5,14.7,7.9,20.3,1.2,1.3-.3,1.5-.7,2.2-3,6.4-4.7,12.5-1.8,19.8,3.8,9.4,10.8,13.6,19.9,15,7,1.1,17.4-5.4,20.8-12.1,3.5-7,2.9-14.2.4-21.4h14.1Z"/>
      <path d="m81.8,105.1h-14.1c2.5,7.2,3.2,14.4-.4,21.4-3.4,6.7-13.8,13.2-20.8,12.1-9.1-1.4-16.2-5.6-19.9-15-2.9-7.3-1.2-13.4,1.8-19.8.3-.7,1.9-1,.7-2.2-5.4-5.7-5.4-13.5-7.9-20.3-4.4-12.3-7.6-25-11.3-37.5-1-3.2-2.1-6.4-2.8-9.6-.9-4.3,3.1-8,8.8-8.1,10.3,0,20.5,0,30.8,0,20.9,0,41.7.1,62.6.3,3.6,0,6.5-1.1,9.5-2.9,7.3-4.4,14.3-9.2,22-12.7,14-6.4,19.7-4,26.1,10.3,4.7,10.6,2.7,14.1-9.7,21.1-6.1,3.5-12.2,6.9-18.5,10.1-4,2-3.9,6.1-5,9.3-4.5,13.4-7.1,27.5-13.6,40.2-.7,1.4.7,2.5,1.2,3.7,7.2,16.6-2.8,32-20,33-9.8.6-18.6-7.3-21.7-16.9-1.9-5.8-.4-11,2.3-16.5Zm-42.8,10.7c1.4,6.3,4.2,9.2,8.9,9,4.4-.2,7.4-3.5,7.9-8.9-.5-5.5-1.6-7.2-5.2-8-6.6-1.6-9.8.5-11.7,7.9Zm53.7-2c-.3,6.5,3.3,11,8.8,11,5.4,0,8.1-3.8,7.8-11-.5-4.8-4.3-6.4-7.9-6.7-4.2-.3-7.4,2.3-8.7,6.7ZM26.2,48.5c3,13.1,7.8,25.6,11.5,38.5.7,2.6,2.1,2.9,4.2,2.9,21.8,0,43.6,0,65.5,0,1.6,0,2.9,0,3.4-1.9,3.5-11.3,7.7-22.4,10.2-33.9,1-4.8,2.9-7.7,6.5-10,8-5,16-9.8,24.1-14.7,1.7-1.1,1.8-1,1.6-3.2-1.2-1.7-.3-6.1-4.4-4.1-5.2,2.5-10.2,5.4-15.2,8.3-10,6-20.6,9.7-32.4,9.7-25.9,0-51.8,0-77.9,0,1,3,1.4,5.8,3,8.3Z"/>
      <path class="cls-1" d="m153.2,26.3c.2,2.1.1,2.1-1.6,3.2-8,4.9-16.1,9.8-24.1,14.7-3.7,2.3-5.5,5.3-6.5,10-2.5,11.5-6.7,22.6-10.2,33.9-.6,1.8-1.9,1.9-3.4,1.9-21.8,0-43.6,0-65.5,0-2.2,0-3.5-.3-4.2-2.9-3.6-12.9-8.5-25.4-11.5-38.5,2.3-.1,4.6-.3,6.9-.3,20.5,0,41.1.2,61.6-.2,7.8-.2,16-.8,21.8-7.5.6-.7,1.7-1,2.6-1.4,5.3-2.3,10.6-4.7,15.9-6.7,6-2.3,11.4-6.2,18.1-6.1Z"/>
      <path class="cls-2" d="m153.2,26.3c-6.8,0-12.2,3.9-18.1,6.1-5.4,2.1-10.6,4.5-15.9,6.7-.9.4-2,.7-2.6,1.4-5.8,6.7-14,7.3-21.8,7.5-20.5.4-41.1.2-61.6.2-2.3,0-4.6.2-6.9.3-1.6-2.5-2-5.4-3-8.3,26.1,0,52,0,77.9,0,11.8,0,22.4-3.7,32.4-9.7,5-3,10-5.8,15.2-8.3,4.1-2,3.3,2.4,4.4,4.1Z"/>
      <path class="cls-1" d="m109.3,113.8c.3,7.1-2.4,10.9-7.8,11-5.4,0-9.1-4.5-8.8-11,5.5,1.2,11.1-.6,16.6,0Z"/>
      <path class="cls-1" d="m55.9,115.9c-.5,5.4-3.5,8.7-7.9,8.9-4.7.2-7.6-2.7-8.9-9,5.6,0,11.2,0,16.8.1Z"/>
      <path class="cls-2" d="m55.9,115.9c-5.6,0-11.2,0-16.8-.1,1.9-7.4,5-9.5,11.7-7.9,3.6.9,4.7,2.6,5.2,8Z"/>
      <path class="cls-2" d="m109.3,113.8c-5.5-.6-11.1,1.2-16.6,0,1.3-4.4,4.5-7,8.7-6.7,3.6.3,7.4,1.9,7.9,6.7Z"/>
    </g>
  </g>
</svg>