<?xml version="1.0" encoding="UTF-8"?>
<svg id="Layer_2" data-name="Layer 2" xmlns="http://www.w3.org/2000/svg" width="162.2" height="131.4" viewBox="0 0 162.2 131.4">
  <defs>
    <style>
      .cls-1 {
        fill: #fefefe;
      }
    </style>
  </defs>
  <g id="Middle">
    <g>
      <path d="m74.9,97.7h-14.1c2.5,7.2,3.2,14.4-.4,21.4-3.4,6.7-13.8,13.2-20.8,12.1-9.1-1.4-16.2-5.6-19.9-15-2.9-7.3-1.2-13.4,1.8-19.8.3-.7,1.9-1,.7-2.2-5.4-5.7-5.4-13.5-7.9-20.3-4.4-12.3-7.6-25-11.3-37.5-1-3.2-2.1-6.4-2.8-9.6-.9-4.3,3.1-8,8.8-8.1,10.3,0,20.5,0,30.8,0,20.9,0,41.7.1,62.6.3,3.6,0,6.5-1.1,9.5-2.9,7.3-4.4,14.3-9.2,22-12.7,14-6.4,19.7-4,26.1,10.3,4.7,10.6,2.7,14.1-9.7,21.1-6.1,3.5-12.2,6.9-18.5,10.1-4,2-3.9,6.1-5,9.3-4.5,13.4-7.1,27.5-13.6,40.2-.7,1.4.7,2.5,1.2,3.7,7.2,16.6-2.8,32-20,33-9.8.6-18.6-7.3-21.7-16.9-1.9-5.8-.4-11,2.3-16.5Zm-42.8,10.7c1.4,6.3,4.2,9.2,8.9,9,4.4-.2,7.4-3.5,7.9-8.9-.5-5.5-1.6-7.2-5.2-8-6.6-1.6-9.8.5-11.7,7.9Zm53.7-2c-.3,6.5,3.3,11,8.8,11,5.4,0,8.1-3.8,7.8-11-.5-4.8-4.3-6.4-7.9-6.7-4.2-.3-7.4,2.3-8.7,6.7ZM19.3,41.2c3,13.1,7.8,25.6,11.5,38.5.7,2.6,2.1,2.9,4.2,2.9,21.8,0,43.6,0,65.5,0,1.6,0,2.9,0,3.4-1.9,3.5-11.3,7.7-22.4,10.2-33.9,1-4.8,2.9-7.7,6.5-10,8-5,16-9.8,24.1-14.7,1.7-1.1,1.8-1,1.6-3.2-1.2-1.7-.3-6.1-4.4-4.1-5.2,2.5-10.2,5.4-15.2,8.3-10,6-20.6,9.7-32.4,9.7-25.9,0-51.8,0-77.9,0,1,3,1.4,5.8,3,8.3Z"/>
      <path class="cls-1" d="m146.2,18.9c-1.2-1.7-.3-6.1-4.4-4.1-5.2,2.5-10.2,5.4-15.2,8.3-10,6-20.6,9.7-32.4,9.7-25.9,0-51.8,0-77.9,0,1,3,1.4,5.8,3,8.3,3,13.1,7.8,25.6,11.5,38.5.7,2.6,2.1,2.9,4.2,2.9,21.8,0,43.6,0,65.5,0,1.6,0,2.9,0,3.4-1.9,3.5-11.3,7.7-22.4,10.2-33.9,1-4.8,2.9-7.7,6.5-10,8-5,16-9.8,24.1-14.7,1.7-1.1,1.8-1,1.6-3.2Z"/>
      <path class="cls-1" d="m43.7,100.5c-6.6-1.6-9.8.5-11.7,7.9,1.4,6.3,4.2,9.2,8.9,9,4.4-.2,7.4-3.5,7.9-8.9-.5-5.5-1.6-7.2-5.2-8Z"/>
      <path class="cls-1" d="m102.3,106.4c-.5-4.8-4.3-6.4-7.9-6.7-4.2-.3-7.4,2.3-8.7,6.7-.3,6.5,3.3,11,8.8,11,5.4,0,8.1-3.8,7.8-11Z"/>
    </g>
  </g>
</svg>