<?xml version="1.0" encoding="UTF-8"?>
<svg id="Layer_2" data-name="Layer 2" xmlns="http://www.w3.org/2000/svg" width="282.5" height="243.2" viewBox="0 0 282.5 243.2">
  <defs>
    <style>
      .cls-1 {
        fill: #ad0038;
      }

      .cls-2 {
        fill: #333840;
        opacity: .5;
      }

      .cls-3 {
        fill: #f16a95;
      }

      .cls-4 {
        fill: #dc003e;
      }

      .cls-5 {
        fill: #fefefe;
      }
    </style>
  </defs>
  <g id="Middle">
    <g>
      <path class="cls-2" d="m256.1,18.7c7.9,5,13.6,12.1,17.8,20,3.4,6.5,6.3,13.4,7.5,20.8-.2.8-.4,1.5.5,2,1.4,12.9.6,25.6-3.1,38.3-7.6,25.9-22,47.7-38.9,68.1-17.7,21.3-38.2,39.9-59.9,57.1-8.1,6.4-16.8,11.9-26.5,15.7-7.9,3.1-16,3.2-23.8.2-11.7-4.5-22.1-11.5-31.7-19.5-22.4-18.6-43.8-38.4-61.8-61.5-9.4-12.1-17.9-24.9-24.5-38.6-4.8-10-8.7-20.4-10.2-31.8-1.5-11.4-2.3-22.7.2-33.9,4-17.5,14.8-30.7,29-40.9C49.9.9,71.4-2.3,94.5,1.5c6.5,1.1,12.8,2.4,18.9,4.7,10.7,4,18.9,11.4,26,20.1,1,1,2.1,2.3,2.9-.2C156,10.2,173.2,1.8,194,.3c15.7-1.2,30.8,1.1,45.3,7,2.2.9,4.9,1.3,6,3.9.4.1.7.3,1.1.4,3.7,1.1,6.7,3.2,8.8,6.4.3.2.6.4.9.6Zm-115,22c-4.8-8.4-11.1-15-18.6-20.3-18.4-13-39.2-15.7-60.6-11.2-16.3,3.5-30.6,11.8-41.1,25.5-9,11.8-14.3,24.9-14.2,39.8,0,7.8,2,15.7,4.4,23.2,9.2,28.9,26.4,53.1,46.5,75.1,11.1,12.2,23.2,23.5,35.8,34.3,10.3,8.8,21.1,16.7,32.8,23.6,9.3,5.5,18.4,6.2,28.3,1,18.9-9.9,34.5-24,50-38.2,12.4-11.4,24-23.5,34.3-36.9,12.9-16.9,24.3-34.6,31.4-54.8,4.2-11.9,7-24.5,4.9-37-3.8-22.5-17-38.6-37.2-49.2-13.3-7-27.4-8.5-42.1-8-10.8.4-20.6,3.9-29.7,9-10.3,5.8-18.8,13.8-24.9,24Z"/>
      <path d="m141.1,40.7c6.1-10.2,14.6-18.3,24.9-24,9.2-5.1,19-8.6,29.7-9,14.7-.5,28.8.9,42.1,8,20.1,10.6,33.3,26.7,37.2,49.2,2.1,12.5-.6,25-4.9,37-7.1,20.2-18.5,37.9-31.4,54.8-10.3,13.4-21.9,25.6-34.3,36.9-15.5,14.2-31.1,28.3-50,38.2-10,5.2-19,4.5-28.3-1-11.7-6.8-22.5-14.7-32.8-23.6-12.6-10.8-24.7-22.1-35.8-34.3-20.1-22.1-37.3-46.2-46.5-75.1-2.4-7.6-4.4-15.4-4.4-23.2-.2-14.8,5.2-28,14.2-39.8,10.5-13.7,24.8-22.1,41.1-25.5,21.3-4.5,42.2-1.8,60.6,11.2,7.5,5.3,13.8,12,18.6,20.3Zm4.2,29.9l-1,1h0c-8.5-1.6-9.6-2.8-9.9-11.7,0-1.5-.3-2.8-1-4.2-13-28.8-38.1-36.9-65-33.7-15.1,1.8-27.9,10-37.7,21.9-5.4,6.6-9.1,14.1-10.2,22.7,0,.6-.1,1.2-.2,1.8-.2.4-.5.8-.7,1.2,0,1,0,1.9,0,2.9-.4,3.6-.6,7.3.3,10.9,7.4,30.2,24.4,55,44.1,78.3,8.4,9.9,17.6,18.9,27.3,27.4,12.5,11,25.4,21.4,39.6,30.3,7.4,4.6,13.9,4.1,21-.4,16.9-10.7,32.2-23.5,46.9-36.9,12.8-11.7,24.1-25,34.2-39.1,7.7-10.8,15.3-21.8,20-34.4,4.8-9.2,8.9-18.6,9.3-29.1,1-.9.7-2.2.7-3.3-1-19.1-9.3-33.9-25.3-44.6-15.4-10.3-32.4-12.2-49.8-8.5-15.5,3.3-27.9,12-36.1,26.2-3.7,6.4-4.5,13.4-5.8,20.4,0,0,0,0,0,0-.3.3-.7.7-1,1h0Z"/>
      <path class="cls-4" d="m20.4,68.5c0-.6.1-1.2.2-1.8,3.4-3.6,5.3-8.4,10.1-12.5-1.2,5.3-.5,8.9,3.3,11.2,3.7,2.3,7,.9,10.3-1,3.1-1.9,6.6-3.4,9.3-5.7,8-6.7,18-12.4,15.5-25.5-.3-1.6,1-1.5,1.9-1.5,6.5.2,13-.9,19.4.4,18.4,3.7,30.6,15,38.3,31.7,1.4,3.1,2.6,6.5,5.3,8.9,3.4,3,7.8,2.5,10.3-1.2h0c.7,0,1.1-.3,1-1h0c.7,0,1.1-.3,1-1,0,0,0,0,0,0,2.2,0,2.3-2.1,3.2-3.3,3.8-5,6.6-10.8,12.3-14,.2.2.5.4.7.6-1.7,11.7,4.6,16.7,15.9,12.8.8-.3,1.6-.5,2.3-.9,6-2.9,11.8-6.2,17-10.4,5.1-4,10.2-8.3,11.4-15.1,1.1-6.4.9-6.4,7.3-5.5,1.5.2,2.9.6,4.4,1,21.4,5.3,39.4,24.7,41.7,44.7-.4,10.6-4.5,20-9.3,29.1-1.5,0-2.3,1-3.1,2.1-14.4,19.3-30.2,37.3-47.9,53.6-15.1,13.8-31,26.3-48,37.7-6.4,4.3-12.5,6.2-19.4,1.3-1.9-1.3-4.3-1.8-6.3-2.8-23.9-12.1-44.8-28-62.8-48-20.5-22.8-36-48.2-44.3-77.9-.3-1.1-.7-1.8-1.8-2.1,0-1,0-1.9,0-2.9.2-.4.5-.8.7-1.2Zm129.9,8.2c0,2.9,1.4,4.7,4.4,4.8,3.5.1,8.6-5.9,8.6-10.2,0-3.2-1.8-4.8-5-4.7-3.3.1-8,6.2-8,10.1Zm-124.9,3c-.5,2.8,1.5,4.6,4.7,4.7,4.2.1,4.9-3.3,5.3-6.5.3-3.4-1.6-5.7-4.8-5.7-4,0-4.9,3.2-5.2,7.5Z"/>
      <path class="cls-1" d="m19.7,72.6c1.1.2,1.5,1,1.8,2.1,8.3,29.6,23.7,55.1,44.3,77.9,18,19.9,38.9,35.9,62.8,48,2.1,1,4.5,1.5,6.3,2.8,6.9,4.9,13,3,19.4-1.3,16.9-11.4,32.9-23.9,48-37.7,17.8-16.3,33.6-34.3,47.9-53.6.8-1.1,1.6-2.1,3.1-2.1-4.7,12.6-12.3,23.6-20,34.4-10.1,14.2-21.4,27.4-34.2,39.1-14.7,13.4-29.9,26.3-46.9,36.9-7.1,4.5-13.7,4.9-21,.4-14.2-8.9-27.1-19.3-39.6-30.3-9.7-8.5-19-17.6-27.3-27.4-19.7-23.2-36.7-48.1-44.1-78.3-.9-3.6-.7-7.2-.3-10.9Z"/>
      <path class="cls-3" d="m262.6,79.4c-2.3-20-20.3-39.4-41.7-44.7-1.4-.4-2.9-.8-4.4-1-6.4-.9-6.2-.9-7.3,5.5-1.2,6.9-6.3,11.1-11.4,15.1-5.2,4.1-11,7.4-17,10.4-.7.4-1.5.6-2.3.9-11.4,3.9-17.6-1.1-15.9-12.8.5-.4,1-1.2.4-1.5-.8-.5-.8.5-1.1,1-5.8,3.2-8.6,9-12.3,14-.9,1.2-1.1,3.3-3.2,3.3,1.3-7,2-13.9,5.8-20.4,8.2-14.2,20.6-22.8,36.1-26.2,17.4-3.8,34.4-1.9,49.8,8.5,16,10.7,24.3,25.5,25.3,44.6,0,1.1.4,2.3-.7,3.3Zm-65.2-46.8c0-5.7-3.3-9-7.6-6.7-6.7,3.5-12.9,8.1-16.9,14.9-1.5,2.6-1.1,5.6,1.2,7.8,2.3,2.2,5.3,2.3,7.8.6,5.1-3.3,9.9-7.2,14.1-11.7,1.4-1.5,1.5-3.2,1.3-4.8Z"/>
      <path class="cls-3" d="m144.4,71.6c-2.5,3.7-7,4.2-10.3,1.2-2.7-2.4-3.8-5.8-5.3-8.9-7.7-16.7-19.9-28-38.3-31.7-6.4-1.3-12.9-.2-19.4-.4-.9,0-2.2,0-1.9,1.5,2.5,13.2-7.5,18.8-15.5,25.5-2.8,2.3-6.2,3.9-9.3,5.7-3.3,1.9-6.6,3.3-10.3,1-3.8-2.3-4.5-5.9-3.3-11.2-4.8,4.1-6.7,8.9-10.1,12.5,1-8.6,4.8-16.2,10.2-22.7,9.8-11.9,22.6-20.1,37.7-21.9,26.9-3.2,52,4.9,65,33.7.6,1.4.9,2.7,1,4.2.4,8.8,1.4,10.1,9.9,11.6ZM59.5,38.6c0-4.8-2.6-7.5-6.6-5.9-4.9,2-9.4,5-11.8,10.1-2.1,4.6,1,9.1,5.9,8.8,5.3-.3,12.4-7.7,12.4-13Z"/>
      <path class="cls-1" d="m20.4,68.5c-.2.4-.5.8-.7,1.2.2-.4.5-.8.7-1.2Z"/>
      <path class="cls-3" d="m146.4,69.6c0,.7-.3,1.1-1,1,.3-.3.7-.7,1-1Z"/>
      <path class="cls-3" d="m145.4,70.6c0,.7-.3,1.1-1,1,.3-.3.7-.7,1-1Z"/>
      <path class="cls-3" d="m150.3,76.7c0-3.9,4.7-10,8-10.1,3.2-.1,5,1.5,5,4.7,0,4.3-5.1,10.4-8.6,10.2-3-.1-4.3-2-4.4-4.8Z"/>
      <path class="cls-3" d="m25.4,79.7c.2-4.3,1.1-7.6,5.2-7.5,3.2,0,5.1,2.3,4.8,5.7-.3,3.2-1.1,6.6-5.3,6.5-3.2,0-5.2-2-4.7-4.7Z"/>
      <path class="cls-5" d="m197.4,32.6c.2,1.6,0,3.3-1.3,4.8-4.2,4.5-9,8.4-14.1,11.7-2.5,1.6-5.5,1.6-7.8-.6-2.3-2.2-2.7-5.2-1.2-7.8,4-6.7,10.1-11.4,16.9-14.9,4.3-2.2,7.6,1,7.6,6.7Z"/>
      <path class="cls-4" d="m161.9,52.3c.2-.5.3-1.5,1.1-1,.6.4.1,1.1-.4,1.5-.2-.2-.5-.4-.7-.6Z"/>
      <path class="cls-5" d="m59.5,38.6c0,5.4-7.1,12.7-12.4,13-4.9.3-8-4.2-5.9-8.8,2.3-5.1,6.8-8.2,11.8-10.1,4-1.6,6.6,1.1,6.6,5.9Z"/>
    </g>
  </g>
</svg>