<?xml version="1.0" encoding="UTF-8"?>
<svg id="Layer_2" data-name="Layer 2" xmlns="http://www.w3.org/2000/svg" width="160.4" height="156.6" viewBox="0 0 160.4 156.6">
  <defs>
    <style>
      .cls-1 {
        fill: #7e8aa3;
      }

      .cls-2 {
        fill: #b4bcca;
      }

      .cls-3 {
        fill: #fefefe;
      }
    </style>
  </defs>
  <g id="Middle">
    <g>
      <path class="cls-3" d="m160.1,29.2c1.6,10.3-5.6,16.9-10.9,24.1-22.1,30.3-44.4,60.4-66.7,90.5-7.2,9.8-16.8,14.4-29,12.3-4.6-.8-7.8-4.2-10.9-7-12.6-11.5-25.7-22.5-37.9-34.5-2.4-2.4-3.2-5.1-3.9-8.1-4-16.3,6.7-32.7,20.1-36.8,7.3-2.2,14.9-2.1,20.9,4.3,1.2,1.3,2.9,2.2,4.2,3.4,2.6,2.4,5.5,6.5,8.4,5.7,2.7-.7,4.4-5.3,6.5-8.2,17.1-23.2,34.2-46.4,51.3-69.7C117-1.2,123.8,0,130.2.4c11.6.8,20.5,6.5,27.1,16.1,2.7,4,3.2,8.1,2.9,12.7ZM56.3,96.5c-5.1-5.7-11.3-10-17-14.9-9.9-8.6-16.9-7.7-25.1,2.7-2,2.5-3.5,5.4-4.9,8.2-3.3,6.8-1.3,14.9,4.4,19.9,11.6,10.2,23.3,20.4,34.7,30.8,8.8,8,18.7,7.4,26.6-2.8,11.7-15.3,23.1-30.9,34.5-46.4,13.7-18.6,27.4-37.2,41-56,3.4-4.7,3.6-9.8,1.1-15.5-3.4-7.6-9.7-11.4-16.6-14.1-8.3-3.3-13.4-1.7-17.5,3.9-13.8,18.6-27.7,37.1-41.4,55.7-6.8,9.1-13.7,18.1-19.7,28.4Z"/>
      <path d="m56.3,96.5c6-10.2,12.9-19.2,19.7-28.4,13.8-18.6,27.7-37.1,41.4-55.7,4.1-5.5,9.2-7.2,17.5-3.9,7,2.8,13.2,6.5,16.6,14.1,2.5,5.7,2.4,10.7-1.1,15.5-13.5,18.7-27.3,37.4-41,56-11.4,15.5-22.8,31.1-34.5,46.4-7.8,10.2-17.8,10.8-26.6,2.8-11.4-10.4-23.1-20.6-34.7-30.8-5.7-5-7.7-13.1-4.4-19.9,1.4-2.9,2.9-5.8,4.9-8.2,8.3-10.4,15.2-11.3,25.1-2.7,5.7,4.9,11.9,9.1,17,14.9Zm-34.2,5.1c10.5,9.6,21,19.2,31.5,28.9,7.1,6.7,7.8,6.7,13.7-1.1.2-.3.3-.6.5-.8,8.8-12,17.6-24.1,26.5-36,15-20.3,30.1-40.6,45.1-60.8,4-3.1.3-4.6-1.4-6.3-5.3-5.4-9.4-5.3-13.6.3-4.5,5.9-9.1,11.8-13.5,17.7-15.8,21.1-31.5,42.2-47.8,62.8-3.6,4.5-6.8,4.3-10.8,2-5.7-3.3-11-7.3-15.9-11.8-9.2-8.5-9.3-8.5-14.8.6-.2.4-.3,1-.5,1.3-1.5,1.8,0,2.5,1.2,3.4Z"/>
      <path class="cls-1" d="m139.5,31.7c-15,20.3-30.1,40.5-45.1,60.8-8.9,12-17.7,24-26.5,36-.2.3-.3.6-.5.8-6,7.8-6.6,7.8-13.7,1.1-10.4-9.7-21-19.3-31.5-28.9,5.4-4.4,10.1-2.5,15,1.3,4.9,3.9,10,7.6,15.2,11,4.8,3.1,10.8.8,12.6-4.7.4-1.2,1-2,1.7-2.9,19.2-26.2,41.3-50,61.6-75.4,3.6-4.5,7.6-4.2,11.3.7Z"/>
      <path class="cls-2" d="m139.5,31.7c-3.7-4.9-7.7-5.1-11.3-.7-20.3,25.3-42.4,49.2-61.6,75.4-.7.9-1.3,1.8-1.7,2.9-1.8,5.5-7.8,7.8-12.6,4.7-5.2-3.4-10.3-7.1-15.2-11-4.8-3.8-9.5-5.8-15-1.3-1.3-.8-2.7-1.5-1.2-3.4.3-.4.3-.9.5-1.3,5.6-9.2,5.6-9.2,14.8-.6,4.9,4.5,10.2,8.5,15.9,11.8,4,2.3,7.2,2.6,10.8-2,16.4-20.6,32.1-41.7,47.8-62.8,4.4-5.9,9-11.8,13.5-17.7,4.3-5.6,8.3-5.7,13.6-.3,1.7,1.7,5.4,3.2,1.4,6.3Z"/>
    </g>
  </g>
</svg>