<?xml version="1.0" encoding="UTF-8"?>
<svg id="Layer_2" data-name="Layer 2" xmlns="http://www.w3.org/2000/svg" width="282.5" height="243.2" viewBox="0 0 282.5 243.2">
  <defs>
    <style>
      .cls-1 {
        fill: #57595b;
      }

      .cls-2 {
        fill: #3c3f44;
      }

      .cls-3 {
        fill: #ad0038;
      }

      .cls-4 {
        fill: #363738;
      }

      .cls-5 {
        fill: none;
      }

      .cls-6 {
        fill: #f16a95;
      }

      .cls-7 {
        fill: #dc003e;
      }

      .cls-8 {
        fill: #fefefe;
      }
    </style>
  </defs>
  <g id="Middle">
    <g>
      <path class="cls-5" d="m197.7,33.2c0,.2,0,.4,0,.6,0-.2,0-.4,0-.6Z"/>
      <path class="cls-5" d="m197.7,34.5c0,.4-.1.8-.3,1.2.1-.4.2-.8.3-1.2Z"/>
      <path class="cls-5" d="m157.4,41.8c-1.8,2.3-3.5,4.7-5.1,7.4-.9,1.6-1.7,3.3-2.3,4.9.6-1.7,1.4-3.3,2.3-4.9,1.5-2.7,3.2-5.1,5.1-7.4Z"/>
      <path class="cls-5" d="m173,66.9c-.6,0-1.1,0-1.7,0,.5,0,1.1,0,1.7,0Z"/>
      <path class="cls-5" d="m162.2,52.3c.2.2.5.4.7.6h0c-.2-.2-.5-.4-.7-.6Z"/>
      <path class="cls-5" d="m175.1,49.1c1.6,1.2,3.4,1.4,5.1.9-1.7.5-3.5.2-5.1-.9Z"/>
      <path class="cls-5" d="m171.1,66.9c-2.1-.1-3.8-.7-5.2-1.8,1.3,1.1,3.1,1.7,5.2,1.8Z"/>
      <path class="cls-5" d="m146.6,69.6c-.1.1-.2.2-.3.3.1-.1.2-.2.3-.3h0Z"/>
      <path class="cls-5" d="m172.4,44.8c0-.3,0-.7,0-1,0,.3,0,.7,0,1Z"/>
      <path class="cls-5" d="m181.2,49.7c.3-.2.6-.3,1-.5,1.3-.8,2.5-1.7,3.8-2.6-1.2.9-2.5,1.8-3.8,2.6-.3.2-.6.4-1,.5Z"/>
      <path class="cls-5" d="m163.6,71.3h0c0,.3,0,.5,0,.8,0-.3,0-.6,0-.8Z"/>
      <path class="cls-5" d="m163.1,68.9c-.7-1.6-2.2-2.4-4.5-2.3h0c2.3,0,3.8.7,4.5,2.3Z"/>
      <path class="cls-5" d="m262.9,79.4c.1-.1.3-.3.4-.4,0,.2-.2.3-.4.4h0Z"/>
      <path class="cls-5" d="m186,46.6c3.7-2.7,7.2-5.7,10.3-9.1.5-.6.9-1.1,1.1-1.8-.2.6-.6,1.2-1.1,1.8-3.1,3.4-6.6,6.4-10.3,9.1Z"/>
      <path class="cls-5" d="m197.1,28.9c-.9-2.6-2.9-4.1-5.3-3.6,2.4-.5,4.4.9,5.3,3.6Z"/>
      <path class="cls-5" d="m188.3,26.9c-4.3,2.4-8.4,5.4-11.7,9.2,3.3-3.8,7.3-6.7,11.7-9.2Z"/>
      <path class="cls-5" d="m163.5,72.1c0,.5-.2,1-.4,1.5.2-.5.3-1,.4-1.5Z"/>
      <path class="cls-5" d="m196.8,169.4c1.9-1.7,3.8-3.4,5.7-5.1,3.3-3.1,6.6-6.2,9.8-9.3-3.2,3.2-6.4,6.3-9.8,9.3-1.9,1.7-3.8,3.4-5.7,5.1Z"/>
      <path class="cls-5" d="m157.4,41.8c1.2-1.5,2.5-2.9,3.8-4.3-1.3,1.3-2.6,2.8-3.8,4.3Z"/>
      <path class="cls-5" d="m204.6,21.3c3.2,0,6.4.2,9.5.7-3.1-.5-6.3-.7-9.5-.7Z"/>
      <path class="cls-5" d="m146.6,69.6h0c.3-1.7.6-3.3.9-5-.3,1.7-.6,3.3-.9,5Z"/>
      <path class="cls-5" d="m147.5,64.2c.4-2.1.8-4.2,1.3-6.2-.5,2-.9,4.1-1.3,6.2Z"/>
      <path class="cls-5" d="m145.6,70.6c-.2.2-.4.4-.6.6.2-.2.4-.4.6-.6h0Z"/>
      <path class="cls-5" d="m249.8,41.5c1.1,1.2,2.2,2.5,3.2,3.8-1-1.3-2.1-2.6-3.2-3.8Z"/>
      <path class="cls-5" d="m148.9,58c.3-1.3.7-2.5,1.2-3.8-.5,1.3-.8,2.5-1.2,3.8Z"/>
      <path class="cls-5" d="m141.2,206c0,0,.1,0,.2,0,0,0-.1,0-.2,0h0Z"/>
      <polygon class="cls-5" points="144.6 71.6 144.6 71.6 144.6 71.6 144.6 71.6"/>
      <path class="cls-5" d="m151.5,203.8c1-.5,2-1.2,3-1.8,14.8-10,28.9-20.8,42.3-32.6-13.4,11.8-27.5,22.6-42.3,32.6-1,.7-2,1.3-3,1.8Z"/>
      <path class="cls-5" d="m149.8,204.7c-.8.4-1.6.7-2.4.9.8-.2,1.6-.5,2.4-.9Z"/>
      <path class="cls-5" d="m263.5,78.2c0,0,0,.1,0,.2,0,0,0-.1,0-.2Z"/>
      <path class="cls-5" d="m146.2,205.9c-.8.2-1.6.3-2.4.3.8,0,1.6-.1,2.4-.3Z"/>
      <path class="cls-5" d="m256.5,50.7c1,1.9,2,3.8,2.8,5.8-.8-2-1.7-3.9-2.8-5.8Z"/>
      <path class="cls-5" d="m250.5,110.7c-4.3,5.8-8.8,11.4-13.3,17,4.6-5.5,9-11.2,13.3-17,.4-.6.8-1.1,1.3-1.5-.5.4-.9.9-1.3,1.5Z"/>
      <path class="cls-4" d="m152.4,219.1c16.9-10.7,32.2-23.5,46.9-36.9,12.8-11.7,24.1-25,34.2-39.1,7.7-10.8,15.3-21.8,20-34.4-.8,0-1.3.2-1.8.6-.5.4-.9.9-1.3,1.5-4.3,5.8-8.8,11.4-13.3,17-5,6-10.1,11.9-15.4,17.6-3.1,3.3-6.2,6.5-9.4,9.7-3.2,3.2-6.4,6.3-9.8,9.3-1.9,1.7-3.8,3.4-5.7,5.1-13.4,11.8-27.5,22.6-42.3,32.6-1,.7-2,1.3-3,1.8-.6.3-1.1.6-1.7.9-.8.4-1.6.7-2.4.9s-.8.2-1.2.3c-.8.2-1.6.3-2.4.3-.8,0-1.6,0-2.4-.2,0,0-.1,0-.2,0v16.7c3.7,0,7.4-1.2,11.2-3.6Z"/>
      <path class="cls-1" d="m144.6,71.6s0,0,0,0c0,0,0,0,0,0,0,0,0,0,0,0h0s0,0,0,0h0c-1.3-.3-2.4-.5-3.4-.8v3.5c1.3-.5,2.4-1.4,3.4-2.7Z"/>
      <polygon class="cls-1" points="144.6 71.6 144.6 71.6 144.6 71.6 144.6 71.6"/>
      <path class="cls-1" d="m144.6,71.6s0,0,0,0h0s0,0,0,0Z"/>
      <polygon class="cls-1" points="144.6 71.6 144.6 71.6 144.6 71.6 144.6 71.6"/>
      <path class="cls-2" d="m144.6,71.6h0s0,0,0,0c-.9,1.3-2.1,2.2-3.4,2.7v131.6c0,0,.1,0,.2,0,.8.1,1.6.2,2.4.2.8,0,1.6-.1,2.4-.3.4,0,.8-.2,1.2-.3.8-.2,1.6-.5,2.4-.9.6-.3,1.1-.6,1.7-.9,1-.5,2-1.2,3-1.8,14.8-10,28.9-20.8,42.3-32.6,1.9-1.7,3.8-3.4,5.7-5.1,3.3-3.1,6.6-6.2,9.8-9.3,3.2-3.2,6.4-6.4,9.4-9.7,5.3-5.7,10.4-11.6,15.4-17.6,4.6-5.5,9-11.2,13.3-17,.4-.6.8-1.1,1.3-1.5.5-.4,1-.6,1.8-.6,1.5-2.9,2.9-5.8,4.2-8.7.8-1.8,1.5-3.5,2.1-5.4,1-3,1.9-6.1,2.4-9.3.3-1.9.5-3.8.6-5.8h0c-2.3-20-20.3-39.4-41.7-44.7-1.4-.4-2.9-.8-4.4-1-6.4-.9-6.2-.9-7.3,5.5-1.2,6.9-6.3,11.1-11.4,15.1-5.2,4.1-11,7.4-17,10.4-.7.4-1.5.6-2.3.9-2.1.7-4.1,1.2-5.8,1.3-.6,0-1.1,0-1.7,0,0,0-.1,0-.2,0-2.1-.1-3.8-.7-5.2-1.8-2.8-2.2-3.9-6.4-3.1-12.3-.2-.2-.5-.4-.7-.6-5.8,3.2-8.6,9-12.3,14-.9,1.2-1.1,3.3-3.2,3.3-.1.1-.2.2-.3.3-.2.2-.4.4-.7.7h0c-.2.2-.4.4-.6.6-.1.1-.3.3-.4.4,0,0,0,0,0,0Zm6.2,3.5c.9-3.8,4.9-8.4,7.8-8.5h0c2.3,0,3.8.7,4.5,2.3.2.4.3.8.4,1.3,0,.4,0,.7,0,1.1h0c0,.3,0,.5,0,.8,0,.5-.2,1-.4,1.5-1.3,3.9-5.3,8-8.1,7.9-1.1,0-2-.3-2.7-.8-.5-.3-.8-.8-1.1-1.3-.1-.3-.2-.5-.3-.8-.2-.6-.3-1.2-.3-1.9,0-.5,0-1,.2-1.6Z"/>
      <path class="cls-2" d="m253.6,108.6h0c1.5-2.9,2.9-5.8,4.2-8.7-1.3,2.9-2.7,5.8-4.2,8.7,0,0,0,0,0,0Z"/>
      <path class="cls-2" d="m259.8,94.5c-.6,1.8-1.3,3.6-2.1,5.4.8-1.8,1.5-3.5,2.1-5.4Z"/>
      <path class="cls-2" d="m146.2,69.9c-.2.2-.4.4-.6.6,0,0,0,0,0,0h0c.2-.2.4-.4.7-.6Z"/>
      <path class="cls-2" d="m145,71.2c-.1.1-.3.3-.4.4,0,0,0,0,0,0,0,0,0,0,0,0,.1-.1.3-.3.4-.4Z"/>
      <path class="cls-2" d="m262.2,85.3c.3-1.9.5-3.8.6-5.8h0c0,2-.3,3.9-.6,5.8Z"/>
      <path class="cls-2" d="m212.3,154.9c3.2-3.2,6.4-6.4,9.4-9.7-3.1,3.3-6.2,6.5-9.4,9.7Z"/>
      <path class="cls-2" d="m251.7,109.2c.5-.4,1-.6,1.8-.6,0,0,0,0,0,0-.8,0-1.3.2-1.8.6Z"/>
      <path class="cls-2" d="m151.5,203.8c-.6.3-1.1.6-1.7.9.6-.3,1.1-.6,1.7-.9Z"/>
      <path class="cls-2" d="m143.8,206.2c-.8,0-1.6,0-2.4-.2.8.1,1.6.2,2.4.2Z"/>
      <path class="cls-2" d="m237.1,127.6c-5,6-10.1,11.9-15.4,17.6,5.3-5.7,10.4-11.6,15.4-17.6Z"/>
      <path class="cls-2" d="m144.6,71.6c-.9,1.3-2.1,2.2-3.4,2.7h0c1.3-.5,2.4-1.4,3.4-2.7Z"/>
      <polygon class="cls-2" points="144.6 71.6 144.6 71.6 144.6 71.6 144.6 71.6 144.6 71.6 144.6 71.6"/>
      <path class="cls-2" d="m144.6,71.6s0,0,0,0c0,0,0,0,0,0,0,0,0,0,0,0Z"/>
      <path class="cls-2" d="m144.6,71.6h0s0,0,0,0c0,0,0,0,0,0,0,0,0,0,0,0h0Z"/>
      <path class="cls-1" d="m150.9,78.6c0,.3.2.6.3.8.3.5.6.9,1.1,1.3.7.5,1.6.8,2.7.8,2.9.1,6.9-4,8.1-7.9.2-.5.3-1,.4-1.5,0-.3,0-.6,0-.8,0-.4,0-.8,0-1.1,0-.5-.2-.9-.4-1.3-.7-1.6-2.2-2.4-4.5-2.3-2.8.1-6.8,4.7-7.8,8.5-.1.5-.2,1.1-.2,1.6,0,.7.1,1.4.3,1.9Z"/>
      <path class="cls-1" d="m158.6,66.6h0c-2.8.1-6.8,4.7-7.8,8.5.9-3.8,4.9-8.4,7.8-8.5Z"/>
      <path class="cls-1" d="m163.6,71.3c0-.4,0-.8,0-1.1,0,.4,0,.7,0,1.1h0Z"/>
      <path class="cls-1" d="m150.6,76.7c0-.5,0-1,.2-1.6-.1.5-.2,1.1-.2,1.6,0,.7.1,1.4.3,1.9-.2-.6-.3-1.2-.3-1.9Z"/>
      <path class="cls-1" d="m155,81.5c-1.1,0-2-.3-2.7-.8.7.5,1.6.8,2.7.8,2.9.1,6.9-4,8.1-7.9-1.3,3.9-5.3,8-8.1,7.9Z"/>
      <path class="cls-1" d="m151.2,79.4c.3.5.6.9,1.1,1.3-.5-.3-.8-.8-1.1-1.3Z"/>
      <path class="cls-1" d="m163.1,68.9c.2.4.3.8.4,1.3,0-.5-.2-.9-.4-1.3Z"/>
      <path class="cls-8" d="m173,46.8c.3.6.8,1.2,1.4,1.8.2.2.5.4.7.6,1.6,1.2,3.4,1.4,5.1.9.3,0,.7-.2,1-.4s.6-.3,1-.5c1.3-.8,2.5-1.7,3.8-2.6,3.7-2.7,7.2-5.7,10.3-9.1.5-.6.9-1.1,1.1-1.8.1-.4.2-.8.3-1.2,0-.2,0-.4,0-.6s0-.4,0-.6c0-.2,0-.4,0-.6,0-.4,0-.7,0-1,0-.7-.2-1.3-.3-1.9,0-.3-.2-.6-.2-.8-.9-2.6-2.9-4.1-5.3-3.6-.5.1-1.1.3-1.7.6-.6.3-1.2.6-1.8,1-4.3,2.4-8.4,5.4-11.7,9.2-1.3,1.5-2.4,3-3.4,4.7-.2.3-.4.7-.5,1-.1.3-.2.7-.3,1,0,.3-.1.7-.1,1,0,.3,0,.7,0,1,0,.7.3,1.3.7,2Z"/>
      <path class="cls-1" d="m146.6,69.6h0s0,0,0,0c2.1,0,2.3-2.1,3.2-3.3,3.8-5,6.6-10.8,12.3-14,.2.2.5.4.7.6h0s0,0,0,0c-.8,5.9.3,10.1,3.1,12.3,1.3,1.1,3.1,1.7,5.2,1.8,0,0,.1,0,.2,0,.5,0,1.1,0,1.7,0,1.8-.1,3.7-.5,5.8-1.3.8-.3,1.6-.5,2.3-.9,6-2.9,11.8-6.2,17-10.4,5.1-4,10.2-8.3,11.4-15.1,1.1-6.4.9-6.4,7.3-5.5,1.5.2,2.9.6,4.4,1,21.4,5.3,39.4,24.7,41.7,44.7.1-.1.3-.3.4-.4.1-.2.2-.4.3-.6,0,0,0-.1,0-.2.1-.7,0-1.4,0-2.1-.2-3.6-.6-7-1.3-10.3-.7-3.3-1.7-6.4-2.9-9.4-.8-2-1.7-3.9-2.8-5.8-1-1.9-2.2-3.6-3.5-5.4-1-1.3-2.1-2.6-3.2-3.8-3.3-3.6-7.1-7-11.6-10-2.9-1.9-5.8-3.6-8.8-4.9-2-.9-4-1.7-6-2.4-3.1-1-6.2-1.7-9.3-2.2-3.1-.5-6.3-.7-9.5-.7-2.1,0-4.3,0-6.4.3-1.1,0-2.2.2-3.2.4-2.2.3-4.3.7-6.5,1.1-10.7,2.3-19.8,7.1-27.2,14.5-1.3,1.3-2.6,2.8-3.8,4.3-1.8,2.3-3.5,4.7-5.1,7.4-.9,1.6-1.7,3.3-2.3,4.9-.5,1.3-.8,2.5-1.2,3.8-.5,2-.9,4.1-1.3,6.2,0,.2,0,.3,0,.5-.3,1.7-.6,3.3-.9,5,0,0,0,0,0,0,0,0,0,0,0,0Zm25.8-26.8c0-.3.2-.7.3-1,.1-.3.3-.7.5-1,1-1.7,2.2-3.3,3.4-4.7,3.3-3.8,7.3-6.7,11.7-9.2.6-.3,1.2-.7,1.8-1,.6-.3,1.2-.5,1.7-.6,2.4-.5,4.4.9,5.3,3.6,0,.3.2.5.2.8.1.6.2,1.2.3,1.9,0,.3,0,.7,0,1,0,.2,0,.4,0,.6,0,.2,0,.4,0,.6,0,.2,0,.4,0,.6,0,.4-.1.8-.3,1.2-.2.6-.6,1.2-1.1,1.8-3.1,3.4-6.6,6.4-10.3,9.1-1.2.9-2.5,1.8-3.8,2.6-.3.2-.6.4-1,.5s-.7.3-1,.4c-1.7.5-3.5.2-5.1-.9-.2-.2-.5-.4-.7-.6-.6-.5-1-1.1-1.4-1.8-.3-.6-.6-1.3-.7-2,0-.3,0-.7,0-1,0-.3,0-.7.1-1Z"/>
      <path class="cls-1" d="m263.5,78.4c0,.2-.1.4-.3.6.1-.2.2-.4.3-.6Z"/>
      <path class="cls-1" d="m263.5,78.2c.1-.7,0-1.4,0-2.1-.2-3.6-.6-7-1.3-10.3.7,3.3,1.1,6.7,1.3,10.3,0,.7.2,1.4,0,2.1Z"/>
      <path class="cls-1" d="m194.9,21.9c-2.2.3-4.3.7-6.5,1.1-10.7,2.3-19.8,7.1-27.2,14.5,7.4-7.4,16.5-12.2,27.2-14.5,2.2-.5,4.4-.9,6.5-1.1Z"/>
      <path class="cls-1" d="m249.8,41.5c-3.3-3.6-7.1-7-11.6-10-2.9-1.9-5.8-3.6-8.8-4.9,3,1.4,5.9,3,8.8,4.9,4.5,3,8.3,6.3,11.6,10Z"/>
      <polygon class="cls-1" points="146.6 69.6 146.6 69.6 146.6 69.6 146.6 69.6 146.6 69.6"/>
      <path class="cls-1" d="m147.5,64.6c0-.2,0-.3,0-.5,0,.2,0,.3,0,.5Z"/>
      <polygon class="cls-1" points="146.6 69.6 146.6 69.6 146.6 69.6 146.6 69.6"/>
      <path class="cls-1" d="m198.2,21.6c2.2-.2,4.3-.3,6.4-.3-2.1,0-4.3,0-6.4.3Z"/>
      <path class="cls-1" d="m223.4,24.3c2,.7,4.1,1.5,6,2.4-2-.9-4-1.7-6-2.4Z"/>
      <path class="cls-1" d="m162.9,52.8s0,0,0,0c-.8,5.9.3,10.1,3.1,12.3-2.8-2.2-3.9-6.4-3.1-12.3Z"/>
      <path class="cls-1" d="m146.6,69.6s0,0,0,0h0s0,0,0,0h0c2.2,0,2.3-2.1,3.2-3.3-.9,1.2-1.1,3.3-3.2,3.3Z"/>
      <path class="cls-1" d="m171.3,67c0,0-.1,0-.2,0,0,0,.1,0,.2,0Z"/>
      <path class="cls-1" d="m146.6,69.6h0s0,0,0,0c0,0,0,0,0,0Z"/>
      <path class="cls-1" d="m191.8,25.3c-.5.1-1.1.3-1.7.6-.6.3-1.2.6-1.8,1,.6-.3,1.2-.7,1.8-1,.6-.3,1.2-.5,1.7-.6Z"/>
      <path class="cls-1" d="m173,46.8c.3.6.8,1.2,1.4,1.8.2.2.5.4.7.6-.2-.2-.5-.4-.7-.6-.6-.5-1-1.1-1.4-1.8Z"/>
      <path class="cls-1" d="m176.6,36c-1.3,1.5-2.4,3-3.4,4.7-.2.3-.4.7-.5,1,.1-.3.3-.7.5-1,1-1.7,2.2-3.3,3.4-4.7Z"/>
      <path class="cls-1" d="m172.3,43.8c0-.3,0-.7.1-1,0,.3-.1.7-.1,1Z"/>
      <path class="cls-1" d="m197.3,29.7c.1.6.2,1.2.3,1.9,0-.7-.2-1.3-.3-1.9Z"/>
      <path class="cls-1" d="m197.7,33.9c0,.2,0,.4,0,.6,0-.2,0-.4,0-.6Z"/>
      <path class="cls-2" d="m137.7,74.6c0,0-.1,0-.2,0,0,0,.1,0,.2,0Z"/>
      <path class="cls-2" d="m120.4,49.8c-1.3-1.6-2.7-3.2-4.2-4.6,1.5,1.4,2.9,3,4.2,4.6Z"/>
      <path class="cls-2" d="m35.6,66.1c-.4-.2-.9-.4-1.4-.7.5.3.9.5,1.4.7Z"/>
      <path class="cls-2" d="m138.4,74.7c0,0-.1,0-.2,0,0,0,.1,0,.2,0Z"/>
      <path class="cls-2" d="m139.1,74.7s0,0,0,0c0,0,0,0,0,0Z"/>
      <path class="cls-2" d="m116.2,45.2c-3-2.9-6.3-5.4-10-7.4,3.7,2.1,7,4.6,10,7.4Z"/>
      <path class="cls-2" d="m38.2,66.6c-.4,0-.9,0-1.3-.1.4,0,.9.1,1.3.1Z"/>
      <path class="cls-2" d="m136.3,74.1c0,0-.2,0-.3-.1,0,0,.2,0,.3.1Z"/>
      <path class="cls-2" d="m139.8,74.7s0,0,0,0c0,0,0,0,0,0Z"/>
      <path class="cls-2" d="m59.1,54.4c-.3.3-.6.5-1,.8.3-.3.6-.5,1-.8Z"/>
      <path class="cls-2" d="m135.6,73.7c0,0-.2-.1-.3-.2,0,0,.2.1.3.2Z"/>
      <path class="cls-2" d="m134.9,73.3s0,0-.1-.1c0,0,0,0,.1.1Z"/>
      <path class="cls-2" d="m137,74.4c0,0-.2,0-.2,0,0,0,.2,0,.2,0Z"/>
      <path class="cls-2" d="m134.4,202.8c-.5-.3-1-.5-1.6-.7.5.2,1.1.5,1.6.7Z"/>
      <path class="cls-2" d="m21.4,73.5c-.3-.5-.7-.9-1.4-1,0-.3,0-.7,0-1,0,.3,0,.7,0,1,.7.1,1.1.5,1.4,1Z"/>
      <path class="cls-2" d="m132.9,202.1c-.5-.2-1.1-.4-1.6-.6.6.2,1.1.4,1.6.6Z"/>
      <path class="cls-2" d="m20.9,66.7h0c1.8-1.9,3.1-4.1,4.8-6.4-1.6,2.3-3,4.5-4.8,6.4Z"/>
      <path class="cls-2" d="m131.3,201.5c-.8-.3-1.7-.6-2.4-1,.8.4,1.6.7,2.4,1Z"/>
      <path class="cls-2" d="m124.4,198.1c-7.4-3.9-14.4-8.2-21.2-12.9,6.8,4.7,13.8,9,21.2,12.9Z"/>
      <path class="cls-2" d="m65.6,152c.2.2.3.3.4.5,0,0,.2.2.3.3,0,0-.2-.2-.3-.3-.2-.2-.3-.3-.4-.5Z"/>
      <path class="cls-2" d="m21.5,73.9c0,.2.2.5.2.7,3.1,11.1,7.2,21.6,12.2,31.7-5-10-9.1-20.5-12.2-31.7,0-.3-.2-.5-.2-.7Z"/>
      <path class="cls-2" d="m135.2,203.3c-.2-.2-.5-.3-.7-.5.2.1.5.3.7.5,2.1,1.5,4.1,2.3,6.1,2.7h0c-2-.4-4-1.2-6.1-2.7Z"/>
      <path class="cls-2" d="m55,139.4c-2.3-3-4.6-6-6.7-9.1,2.1,3.1,4.4,6.1,6.7,9.1Z"/>
      <path class="cls-2" d="m59.2,144.5c-1.4-1.7-2.8-3.4-4.1-5.1,1.3,1.7,2.7,3.4,4.1,5.1Z"/>
      <path class="cls-2" d="m62.2,51.8c-.4.4-.9.8-1.4,1.2.5-.4.9-.8,1.4-1.2Z"/>
      <path class="cls-2" d="m31,54.2c-.3,1.3-.5,2.6-.5,3.7,0-1.1.2-2.3.5-3.7h0Z"/>
      <path class="cls-2" d="m32,63.4c.3.4.6.7,1,1-.4-.3-.7-.7-1-1Z"/>
      <path class="cls-2" d="m30.4,84.4h0c-.8,0-1.5-.2-2.2-.4.6.2,1.4.4,2.2.4Z"/>
      <path class="cls-2" d="m34.6,82.2c0,.1-.1.2-.2.4,0-.1.1-.2.2-.4Z"/>
      <path class="cls-2" d="m30.4,58.7c0-.3,0-.5,0-.8,0,.3,0,.6,0,.8Z"/>
      <path class="cls-2" d="m32,63.4c-.3-.4-.5-.8-.7-1.2.2.4.5.8.7,1.2Z"/>
      <path class="cls-2" d="m35.3,80.2c.2-.7.3-1.5.4-2.3,0-.4,0-.8,0-1.2,0,.4,0,.8,0,1.2,0,.8-.2,1.5-.4,2.3Z"/>
      <path class="cls-2" d="m69.4,33.1c1.6,8.6-2.1,14-7.2,18.6,5-4.6,8.8-10,7.2-18.6,0-.4,0-.7,0-.9,0,.2-.1.5,0,.9Z"/>
      <path class="cls-2" d="m35.7,76.7c-.1-1.6-.8-2.8-1.8-3.6,1.1.8,1.7,2,1.8,3.6Z"/>
      <path class="cls-2" d="m35.3,80.5c0,.3-.1.5-.2.8,0-.3.2-.5.2-.8Z"/>
      <path class="cls-2" d="m30.9,72.2h0c.5,0,1,0,1.4.2-.5-.1-.9-.2-1.4-.2Z"/>
      <path class="cls-2" d="m30.7,60.9c-.1-.5-.2-.9-.3-1.5,0,.5.1,1,.3,1.5Z"/>
      <path class="cls-2" d="m31.2,62.2c-.2-.4-.4-.9-.5-1.3.1.5.3.9.5,1.3Z"/>
      <path class="cls-8" d="m281.8,61.7c-.9-.5-.7-1.3-.5-2-1.1-7.4-4-14.4-7.5-20.8-4.2-7.9-9.9-15.1-17.8-20-.3-.2-.6-.4-.9-.6-2.1-3.3-5.1-5.3-8.8-6.4-.4-.1-.7-.3-1.1-.4-1.1-2.7-3.8-3.1-6-3.9C224.8,1.4,209.7-.9,194,.3c-20.8,1.6-38,9.9-51.6,25.7-.4,1.4-.9,1.6-1.4,1.4-.5-.2-1-.7-1.4-1.2-7.2-8.7-15.3-16.1-26-20.1-6.1-2.3-12.5-3.6-18.9-4.7-23.1-3.8-44.7-.6-63.9,13.2C16.5,25,5.6,38.1,1.6,55.6c-2.5,11.2-1.7,22.5-.2,33.9,1.5,11.3,5.4,21.8,10.2,31.8,6.6,13.7,15.1,26.5,24.5,38.6,18,23.1,39.3,42.9,61.8,61.5,9.6,8,20,15,31.7,19.5,3.7,1.4,7.5,2.1,11.3,2.2,4.2,0,8.4-.8,12.5-2.4,9.7-3.8,18.4-9.3,26.5-15.7,21.7-17.2,42.2-35.7,59.9-57.1,16.9-20.4,31.3-42.2,38.9-68.1,3.7-12.7,4.4-25.3,3.1-38.3Zm-11.6,40.1c-7.1,20.2-18.5,37.9-31.4,54.8-10.3,13.4-21.9,25.6-34.3,36.9-15.5,14.2-31.1,28.3-50,38.2-4.7,2.5-9.2,3.6-13.6,3.5-5,0-9.8-1.6-14.8-4.5-11.7-6.8-22.5-14.7-32.8-23.6-12.6-10.8-24.7-22.1-35.8-34.3-20.1-22.1-37.3-46.2-46.5-75.1-2.4-7.6-4.4-15.4-4.4-23.2-.2-14.8,5.2-28,14.2-39.8,10.5-13.7,24.8-22.1,41.1-25.5,21.3-4.5,42.2-1.8,60.6,11.2,7.5,5.3,13.7,11.8,18.4,20.1,0,0,.1.2.2.3,6.1-10.2,14.6-18.3,24.9-24,9.2-5.1,19-8.6,29.7-9,14.7-.5,28.8.9,42.1,8,20.1,10.6,33.3,26.7,37.2,49.2,2.1,12.5-.6,25-4.9,37Z"/>
      <path d="m275.3,64.8c-3.8-22.5-17-38.6-37.2-49.2-13.3-7-27.4-8.5-42.1-8-10.8.4-20.6,3.9-29.7,9-10.3,5.8-18.8,13.8-24.9,24,0,0-.1-.2-.2-.3-4.8-8.2-11-14.8-18.4-20.1-18.4-13-39.2-15.7-60.6-11.2-16.3,3.5-30.6,11.8-41.1,25.5-9,11.8-14.3,24.9-14.2,39.8,0,7.8,2,15.7,4.4,23.2,9.2,28.9,26.4,53.1,46.5,75.1,11.1,12.2,23.2,23.5,35.8,34.3,10.3,8.8,21.1,16.7,32.8,23.6,4.9,2.9,9.8,4.4,14.8,4.5,4.4,0,8.9-1.1,13.6-3.5,18.9-9.9,34.5-24,50-38.2,12.4-11.4,24-23.5,34.3-36.9,12.9-16.9,24.3-34.6,31.4-54.8,4.2-11.9,7-24.5,4.9-37Zm-11.8,13.4c0,0,0,.1,0,.2,0,.2-.1.4-.3.6,0,.2-.2.3-.4.4,0,2-.3,3.9-.6,5.8-.5,3.2-1.4,6.3-2.4,9.3-.6,1.8-1.3,3.6-2.1,5.4-1.3,2.9-2.7,5.8-4.2,8.7h0c-4.7,12.6-12.3,23.6-20,34.4-10.1,14.2-21.4,27.4-34.2,39.1-14.7,13.4-29.9,26.3-46.9,36.9-3.8,2.4-7.5,3.7-11.2,3.6-3.2,0-6.4-1.1-9.8-3.2-14.2-8.9-27.1-19.3-39.6-30.3-9.7-8.5-19-17.6-27.3-27.4-19.7-23.2-36.7-48.1-44.1-78.3-.9-3.6-.7-7.2-.3-10.9,0-.3,0-.7,0-1,0-.6,0-1.3,0-1.9.2-.3.3-.5.5-.8,0-.1.2-.3.2-.4,0-.6.1-1.2.2-1.8h0s0,0,0,0c.8-6.5,3.1-12.3,6.4-17.6.6-.9,1.2-1.8,1.8-2.6.6-.9,1.3-1.7,2-2.5,9.8-11.9,22.6-20.1,37.7-21.9,26.9-3.2,52,4.9,65,33.7.6,1.4.9,2.7,1,4.2.3,7.5,1.1,9.5,6.5,10.9,1,.3,2.1.5,3.4.7,0,0,0,0,0,0,0,0,0,0,0,0,.1-.1.3-.3.4-.4.2-.2.4-.4.6-.6h0s0,0,0,0c.2-.2.4-.4.6-.6.1-.1.2-.2.3-.3,0,0,0,0,0,0,.3-1.7.6-3.3.9-5,0-.2,0-.3,0-.5.4-2.1.8-4.2,1.3-6.2.3-1.3.7-2.5,1.2-3.8.6-1.7,1.4-3.3,2.3-4.9,1.5-2.7,3.2-5.1,5.1-7.4,1.2-1.5,2.5-2.9,3.8-4.3,7.4-7.4,16.5-12.2,27.2-14.5,2.2-.5,4.4-.9,6.5-1.1,1.1-.1,2.2-.3,3.2-.4,2.2-.2,4.3-.3,6.4-.3,3.2,0,6.4.2,9.5.7s6.2,1.2,9.3,2.2c2,.7,4.1,1.5,6,2.4,3,1.4,5.9,3,8.8,4.9,4.5,3,8.3,6.3,11.6,10,1.1,1.2,2.2,2.5,3.2,3.8,1.3,1.7,2.5,3.5,3.5,5.4,1,1.9,2,3.8,2.8,5.8,1.2,3,2.2,6.1,2.9,9.4.7,3.3,1.1,6.7,1.3,10.3,0,.7.2,1.4,0,2.1Z"/>
      <path class="cls-3" d="m135.2,203.3c-.2-.2-.5-.3-.7-.5-.5-.3-1-.5-1.6-.7s-1.1-.4-1.6-.6c-.8-.3-1.7-.6-2.4-1-1.5-.8-3-1.5-4.4-2.3-7.4-3.9-14.4-8.2-21.2-12.9-5.4-3.7-10.6-7.7-15.7-12-7.5-6.3-14.5-13.1-21.2-20.5,0,0-.2-.2-.3-.3-.2-.2-.3-.3-.4-.5-2.2-2.5-4.3-4.9-6.4-7.5-1.4-1.7-2.8-3.4-4.1-5.1-2.3-3-4.6-6-6.7-9.1-5.4-7.7-10.2-15.7-14.3-24-5-10-9.1-20.5-12.2-31.7,0-.3-.2-.5-.2-.7,0-.1,0-.2-.2-.3-.3-.5-.7-.9-1.4-1-.4,3.6-.6,7.3.3,10.9,7.4,30.2,24.4,55,44.1,78.3,8.4,9.9,17.6,18.9,27.3,27.4,12.5,11,25.4,21.4,39.6,30.3,3.4,2.1,6.6,3.2,9.8,3.2v-16.7c-2-.4-4-1.2-6.1-2.7Z"/>
      <path class="cls-6" d="m31,54.2h0c-.3,1.3-.5,2.6-.5,3.7,0,.3,0,.6,0,.8s0,.5,0,.8c0,.5.1,1,.3,1.5.1.5.3.9.5,1.3.2.4.5.8.7,1.2s.6.7,1,1c.4.3.8.6,1.3.9.5.3.9.5,1.4.7.4.2.9.3,1.3.4s.9.1,1.3.1c.6,0,1.3,0,1.9-.3,1.5-.4,2.9-1.1,4.4-1.9.4-.2.8-.5,1.2-.7.8-.4,1.6-.9,2.4-1.3.8-.4,1.6-.9,2.4-1.4,1.2-.7,2.3-1.5,3.3-2.3,1.4-1.2,2.8-2.3,4.3-3.4.3-.3.6-.5,1-.8.6-.5,1.2-1,1.8-1.5.5-.4.9-.8,1.4-1.2,5-4.6,8.8-10,7.2-18.6,0-.4,0-.7,0-.9,0-.1.1-.2.2-.3.2-.1.4-.2.6-.3.3,0,.7,0,1.1,0,6.5.2,13-.9,19.4.4,1.1.2,2.3.5,3.4.8s2.2.6,3.2,1c2.1.7,4.1,1.5,6,2.4,1,.5,1.9.9,2.8,1.5,3.7,2.1,7,4.6,10,7.4,1.5,1.4,2.9,3,4.2,4.6,1.3,1.6,2.6,3.4,3.8,5.2,1.8,2.7,3.4,5.7,4.8,8.8.7,1.6,1.4,3.2,2.2,4.7.2.4.4.8.6,1.1.7,1.1,1.5,2.2,2.5,3.1.2.1.3.3.5.4,0,0,0,0,.1.1.1,0,.3.2.4.3,0,0,.2.1.3.2.1,0,.3.1.4.2,0,0,.2,0,.3.1.2,0,.3.1.5.2,0,0,.2,0,.2,0,.2,0,.3.1.5.1,0,0,.1,0,.2,0,.2,0,.4,0,.5,0,0,0,.1,0,.2,0,.2,0,.4,0,.6,0,0,0,0,0,0,0,.2,0,.4,0,.7,0,0,0,0,0,0,0,.5,0,1-.2,1.5-.4v-3.5c-5.4-1.4-6.2-3.4-6.5-10.9,0-1.5-.3-2.8-1-4.2-13-28.8-38.1-36.9-65-33.7-15.1,1.8-27.9,10-37.7,21.9-.7.8-1.3,1.7-2,2.5-.6.9-1.2,1.7-1.8,2.6-3.4,5.3-5.7,11.1-6.4,17.6,1.8-1.9,3.1-4.1,4.8-6.4,1.4-2.1,3.1-4.1,5.3-6.1Zm10.4-11.3c2.3-5.1,6.8-8.2,11.8-10.1,4-1.6,6.6,1.1,6.6,5.9,0,5.4-7.1,12.7-12.4,13-4.9.3-8-4.2-5.9-8.8Z"/>
      <path class="cls-2" d="m27.3,49c.6-.9,1.2-1.8,1.8-2.6-.6.9-1.2,1.7-1.8,2.6Z"/>
      <path class="cls-2" d="m20.7,68.5c0,.1-.2.3-.2.4-.2.3-.3.5-.5.8,0,.6,0,1.3,0,1.9,0-.6,0-1.3,0-1.9.2-.4.5-.8.7-1.2Z"/>
      <path class="cls-2" d="m20.9,66.7s0,0,0,0h0c0,.6-.1,1.2-.2,1.8,0,.1-.2.3-.2.4,0-.1.2-.3.2-.4,0-.6.1-1.2.2-1.8Z"/>
      <path class="cls-7" d="m139.8,74.7s0,0,0,0c-.2,0-.4,0-.7,0,0,0,0,0,0,0-.2,0-.4,0-.6,0,0,0-.1,0-.2,0-.2,0-.4,0-.5,0,0,0-.1,0-.2,0-.2,0-.3,0-.5-.1,0,0-.2,0-.2,0-.2,0-.3-.1-.5-.2,0,0-.2,0-.3-.1-.1,0-.3-.1-.4-.2,0,0-.2-.1-.3-.2-.1,0-.3-.2-.4-.3,0,0,0,0-.1-.1-.2-.1-.3-.3-.5-.4-1-.9-1.8-1.9-2.5-3.1-.2-.4-.4-.7-.6-1.1-.8-1.5-1.4-3.2-2.2-4.7-1.4-3.1-3-6.1-4.8-8.8-1.2-1.8-2.4-3.6-3.8-5.2-1.3-1.6-2.7-3.2-4.2-4.6-3-2.9-6.3-5.4-10-7.4-.9-.5-1.9-1-2.8-1.5-1.9-.9-3.9-1.7-6-2.4-1.1-.3-2.1-.7-3.2-1s-2.2-.6-3.4-.8c-6.4-1.3-12.9-.2-19.4-.4-.3,0-.7,0-1.1,0-.2,0-.4.1-.6.3,0,0-.1.2-.2.3,0,.2-.1.5,0,.9,1.6,8.6-2.1,14-7.2,18.6-.4.4-.9.8-1.4,1.2-.6.5-1.2,1-1.8,1.5-.3.3-.6.5-1,.8-1.4,1.1-2.9,2.3-4.3,3.4-1,.9-2.2,1.6-3.3,2.3-.8.5-1.6.9-2.4,1.4-.8.4-1.6.9-2.4,1.3-.4.2-.8.5-1.2.7-1.4.8-2.9,1.6-4.4,1.9-.6.2-1.3.2-1.9.3-.4,0-.9,0-1.3-.1s-.9-.2-1.3-.4c-.4-.2-.9-.4-1.4-.7-.5-.3-.9-.6-1.3-.9-.4-.3-.7-.7-1-1s-.5-.8-.7-1.2-.4-.9-.5-1.3-.2-.9-.3-1.5c0-.3,0-.5,0-.8s0-.5,0-.8c0-1.1.2-2.3.5-3.7-2.3,1.9-3.9,4-5.3,6.1-1.6,2.3-3,4.5-4.8,6.4,0,0,0,0,0,0,0,.6-.1,1.2-.2,1.8-.2.4-.5.8-.7,1.2,0,.6,0,1.3,0,1.9,0,.3,0,.7,0,1,.7.1,1.1.5,1.4,1,0,.1.1.2.2.3,0,.2.2.5.2.7,3.1,11.1,7.2,21.6,12.2,31.7,4.2,8.3,9,16.3,14.3,24,2.1,3.1,4.4,6.1,6.7,9.1,1.3,1.7,2.7,3.4,4.1,5.1,2.1,2.5,4.2,5,6.4,7.5.2.2.3.3.4.5,0,0,.2.2.3.3,6.7,7.4,13.7,14.2,21.2,20.5,5,4.2,10.3,8.2,15.7,12,6.8,4.7,13.8,9,21.2,12.9,1.5.8,3,1.6,4.4,2.3.8.4,1.6.7,2.4,1,.6.2,1.1.4,1.6.6s1.1.5,1.6.7c.2.1.5.3.7.5,2.1,1.5,4.1,2.3,6.1,2.7V74.3c-.5.2-1,.3-1.5.4Zm-104.1,2c0,.4,0,.8,0,1.2,0,.8-.2,1.5-.4,2.3,0,0,0,.2,0,.3,0,.3-.1.5-.2.8-.1.3-.3.7-.4,1,0,.1-.1.2-.2.4-.7,1-1.7,1.7-3.2,1.8-.2,0-.5,0-.7,0-.8,0-1.5-.2-2.2-.4-1.1-.4-1.9-1.1-2.3-2-.1-.3-.2-.5-.2-.8,0-.4,0-.9,0-1.5,0-.3,0-.5,0-.8,0-.8.2-1.5.3-2.2,0-.5.2-.9.3-1.3.1-.4.3-.8.5-1.1.5-.8,1.1-1.5,2.1-1.8s.8-.2,1.2-.3c.2,0,.5,0,.7,0,.5,0,1,0,1.4.2.6.2,1.1.4,1.6.7,1.1.8,1.7,2,1.8,3.6,0,0,0,0,0,0Z"/>
      <path class="cls-6" d="m25.9,82c.4.9,1.2,1.6,2.3,2,.6.2,1.4.4,2.2.4.3,0,.5,0,.7,0,1.6-.1,2.6-.8,3.2-1.8,0-.1.1-.2.2-.4.2-.3.3-.6.4-1,0-.3.2-.5.2-.8,0,0,0-.2,0-.3.2-.7.3-1.5.4-2.3,0-.4,0-.8,0-1.2,0,0,0,0,0,0-.1-1.6-.8-2.8-1.8-3.6-.4-.3-1-.6-1.6-.7-.5-.1-.9-.2-1.4-.2-.3,0-.5,0-.7,0-.5,0-.9.1-1.2.3-.9.4-1.6,1-2.1,1.8-.2.3-.4.7-.5,1.1-.1.4-.2.8-.3,1.3-.1.7-.2,1.4-.3,2.2s0,.5,0,.8c-.1.5-.1,1,0,1.5,0,.3.1.6.2.8Z"/>
      <path class="cls-2" d="m35.7,76.7s0,0,0,0c0,0,0,0,0,0Z"/>
      <path class="cls-8" d="m47.3,51.7c5.3-.3,12.4-7.7,12.4-13,0-4.8-2.6-7.5-6.6-5.9-4.9,2-9.4,5-11.8,10.1-2.1,4.6,1,9.1,5.9,8.8Z"/>
    </g>
  </g>
</svg>