<?xml version="1.0" encoding="UTF-8"?>
<svg id="Layer_2" data-name="Layer 2" xmlns="http://www.w3.org/2000/svg" width="146.1" height="148.2" viewBox="0 0 146.1 148.2">
  <defs>
    <style>
      .cls-1 {
        fill: #b4bbca;
      }

      .cls-2 {
        fill: #fefefe;
      }
    </style>
  </defs>
  <g id="Middle">
    <g>
      <path d="m145.7,96.5c0,8.2-.6,14.5.1,20.5,1.3,10.7-4.1,17.4-12.3,22.7-12.4,8-25.7,10.9-40.2,6.3-8.4-2.6-13.9-8.4-15.3-16.9-1.2-6.7,2.2-12.6,6.8-17.5,6.8-7.2,15.2-11.3,25-12.5,2-.2,2.5-.7,2.4-3-.4-9.9-.3-19.9-.4-29.9,0-4.5,1.3-8.7,1.1-13.2-.1-3-1-4.2-3.9-4.9-12.8-3.2-25.5-6.4-38.1-10.1-3.7-1.1-4.3-.5-4,2.9,1.4,19.2,0,38.5,1.3,57.6,1.1,16.4-7,24.8-20.5,30.5-10.5,4.5-21.1,5.6-32.1,2-8.6-2.8-14.1-8.6-15.4-17.4-1-6.6,2.4-12.3,6.8-17,6.7-7.2,15.2-11.4,25-12.6,2-.2,2.4-.7,2.3-2.9-.2-7.8,0-15.6-.3-23.4-.4-12.4,1-24.8,1.1-37.2C35.2,11.8,44.7,0,55.1,0c8.6,0,16.1,3.1,24,5.1,16.8,4.2,33.4,9.1,49.9,14,8.7,2.5,14.1,9,14.6,17.7,1,20.6,2.6,41.2,2.1,59.8Zm-15.9-60.4h.1c-.2-3.1-1.9-5.1-4.9-5.8-21.1-5.1-42.1-10.5-62.9-16.8-6.2-1.9-11.1.6-14,6.8-.1,1.6-1.8,3-1.1,4.7,1.6,4,.9,8.1.9,12.2,0,15.7,0,31.5.1,47.2,0,3.8,1.4,7.7-2.1,10.7-6.2,1.6-12.8,1.2-18.7,4.2-4.3,2.2-9.6,3.2-11.1,8.9-3.3,4.5-2.2,7.9,3.4,10,11.1,4.2,21.1.6,30.7-4.8,2.9-1.6,3.8-4.4,3.9-8,.2-23.5-.9-47.1.8-70.6.7-9,5.3-13.3,13.3-11,16.4,4.6,32.9,9.1,49.1,14.6q8.5,2.9,8.5,11.7v8c0,13.6,0,27.3,0,40.9,0,3.4,2.2,7.1-1,10.2-2.3,1.6-5,1.8-7.7,2.2-10.2,1.6-20.3,3.8-25.1,14.8-.2,4,2.5,5.8,5.6,7,11.1,4.3,21,.5,30.5-5,2.6-1.5,3.8-4,3.8-7.5-.2-19.4-.2-38.8,0-58.2,0-6,2-12,0-18-.7-2.3-.8-4.8-1.2-7.2,0-.7-.3-.9-.9-1.1Z"/>
      <path class="cls-2" d="m131.8,62.4c0-6,2-12,0-18-.7-2.3-.8-4.8-1.2-7.2-.3-.4-.6-.7-.9-1.1,0,0,.1,0,.1,0-.2-3.2-1.9-5.2-4.9-5.9-21.1-5.1-42.1-10.5-62.9-16.8-6.2-1.9-11.1.6-14,6.8-.1,1.6-1.8,3-1.1,4.7,1.6,4,.9,8.1.9,12.2,0,15.7,0,31.5.1,47.2,0,3.8,1.4,7.7-2.1,10.7-6.2,1.6-12.8,1.2-18.7,4.2-4.3,2.2-9.6,3.2-11.1,8.9-3.3,4.5-2.2,7.9,3.4,10,11.1,4.2,21.1.6,30.7-4.8,2.9-1.6,3.8-4.4,3.9-8,.2-23.5-.9-47.1.8-70.6.7-9,5.3-13.3,13.3-11,16.4,4.6,32.9,9.1,49.1,14.6q8.5,2.9,8.5,11.7v8c0,13.6,0,27.3,0,40.9,0,3.4,2.2,7.1-1,10.2-2.3,1.6-5,1.8-7.7,2.2-10.2,1.6-20.3,3.8-25.1,14.8-.2,4,2.5,5.8,5.6,7,11.1,4.3,21,.5,30.5-5,2.6-1.5,3.8-4,3.8-7.5-.2-19.4-.2-38.8,0-58.2Z"/>
      <path class="cls-1" d="m130.7,37.2c-.3-.4-.6-.7-.9-1.1.5.2,1,.4.9,1.1Z"/>
    </g>
  </g>
</svg>