<?xml version="1.0" encoding="UTF-8"?>
<svg id="Layer_2" data-name="Layer 2" xmlns="http://www.w3.org/2000/svg" width="180.3" height="167.9" viewBox="0 0 180.3 167.9">
  <defs>
    <style>
      .cls-1 {
        fill: #7d89a2;
      }

      .cls-2 {
        fill: #b5bcca;
      }

      .cls-3 {
        fill: #fefefe;
      }
    </style>
  </defs>
  <g id="Middle">
    <g>
      <path class="cls-3" d="m.3,81.3c-1-9.7,1.1-20.8,4.9-31.7,4.2-12.1,13.3-18.8,25.8-19,10.9-.1,21.8-.5,32.7-.7,2,0,3-.2,3.4-2.8,1.1-7.7,3.6-14.5,9.3-20.8,7-7.8,21.9-7.9,29.2-3,9.6,6.5,18.6,13.8,27.4,21.4,11.6,10.1,22.3,21.1,33.1,32.1,4.5,4.5,8.7,9.4,11.8,14.9,4.1,7,4,20.9-5.1,30.8-10.3,11.2-20.9,22.1-32,32.5-11,10.3-22.6,20-35.1,28.6-14.5,9.9-30,1.3-35.7-12.4-1.5-3.7-2.1-7.5-2.7-11.3-.4-3.1-1.7-3.2-4-3.2-10.6.1-21.2-.3-31.8.4-9.6.6-15.7-4.3-21.1-11.1C2.9,116.8,1.4,105.8.3,94.6c-.4-3.8,0-7.6,0-13.3Zm37.1-43.6c-8.2-1.9-16.2.9-21.5,8.8-5.9,8.8-7.2,19.4-8.5,29.7-1.3,9.9.5,19.7,2.8,29.5,3.7,15.7,11.5,25.5,30.4,24.4,9.9-.5,19.9,0,29.8-.1,2.1,0,3.2,0,3.8,2.9.8,4.1.9,8.2,2.3,12.3,3.9,11.6,14.2,19.9,27.9,9.9,15.4-11.3,29.4-24.1,43.4-37,7.1-6.5,13.4-13.9,19.4-21.4,6.1-7.6,9.7-13.3,1.6-24.5-5.9-8.1-12.8-15.4-19.8-22.2-6.2-6-12.4-12.1-19-17.7-9.5-8.1-18.8-16.3-29.4-23-5.9-3.7-11.1-4.1-17.6,1.8-5.7,5.2-7.5,11.8-8.1,19-.2,2.6.7,6.6-3.5,6.5-10.9-.4-21.7,1.1-33.8,1.2Z"/>
      <path d="m37.4,37.8c12.1,0,22.9-1.5,33.8-1.2,4.3.1,3.3-3.8,3.5-6.5.7-7.2,2.4-13.8,8.1-19,6.5-5.9,11.6-5.5,17.6-1.8,10.5,6.6,19.9,14.9,29.4,23,6.6,5.6,12.8,11.7,19,17.7,7.1,6.8,14,14.1,19.8,22.2,8.1,11.2,4.4,16.9-1.6,24.5-6,7.5-12.4,14.9-19.4,21.4-13.9,12.9-27.9,25.7-43.4,37-13.7,10-24,1.7-27.9-9.9-1.3-4-1.5-8.2-2.3-12.3-.6-2.9-1.7-2.9-3.8-2.9-9.9,0-19.9-.4-29.8.1-18.9,1-26.6-8.8-30.4-24.4-2.3-9.7-4-19.6-2.8-29.5,1.3-10.3,2.7-20.8,8.5-29.7,5.3-7.9,13.3-10.8,21.5-8.8Zm100,69.5c.4-.3.8-.7,1.2-1,.3-.3.5-.5.8-.8,4.7-4.6,9.6-9.1,14-14,1.9-2.1,4-4,4.2-7.5.3-4.5-2.4-7-5-9.6-11.7-11.8-23.1-24-35.8-34.8-5.9-5.1-11.9-10.1-18.1-14.7-6.4-4.8-8.5-3.7-10,4.4-.2.8,0,1.6.1,2.5l-.2,4c-1.5.6-.9,1.9-1,3-.3,9-2.9,11.5-11.9,12-13.4.8-26.9,1.1-40.3,1-6.8,0-9.5,2.6-10.2,9.9-2.3,3.5-1.8,7.5-2.4,11.3-1.9,12.4-.6,24.5,2.8,36.3.8,3,3,6.1,6.9,6,11.1-.4,22,1.7,33.1,1.1,3.3-.2,6.7-.4,9.9,0,7.3,1,12,1,12.2,12.1,0,4.8.5,9.7,2.7,14.2,1.2,2.4,2,3.6,4.9,1.5,15.2-10.9,29.4-22.9,42-36.8Z"/>
      <path class="cls-1" d="m88.7,35.6c0-1.3.1-2.6.2-4,2.2.3,4.4-.2,6.7,1.2,20.3,12.9,38.2,28.2,50.9,49,2.6,4.2,3.1,7.2-.2,11.4-2.8,3.6-6.7,7-6.9,12.2-.3.3-.5.5-.8.8-.4.3-.8.7-1.2,1-12.6,13.9-26.8,25.9-42,36.8-2.9,2.1-3.7.9-4.9-1.5-2.2-4.5-2.6-9.5-2.7-14.2-.2-11.2-4.9-11.1-12.2-12.1-3.2-.5-6.6-.2-9.9,0-11.1.6-22-1.5-33.1-1.1-3.9.1-6.1-3-6.9-6-3.4-11.9-4.7-24-2.8-36.3.6-3.8,0-7.9,2.4-11.3,4.4-.5,8.8-1,13.2-1.6,10.8-1.3,21.6-2.5,32.4-.5,10.8,2,17.9-3.9,17.9-14.8,0-3,0-5.9,0-8.9Z"/>
      <path class="cls-2" d="m139.4,105.5c.2-5.2,4.1-8.6,6.9-12.2,3.2-4.2,2.7-7.3.2-11.4-12.8-20.8-30.6-36.1-50.9-49-2.2-1.4-4.4-1-6.7-1.2,0-.8-.3-1.7-.1-2.5,1.6-8.1,3.6-9.1,10-4.4,6.2,4.6,12.2,9.7,18.1,14.7,12.6,10.9,24,23,35.8,34.8,2.6,2.6,5.2,5.1,5,9.6-.2,3.5-2.3,5.5-4.2,7.5-4.4,4.9-9.3,9.4-14,14Z"/>
      <path class="cls-2" d="m88.7,35.6c0,3,0,5.9,0,8.9,0,10.9-7.1,16.8-17.9,14.8-10.8-2-21.6-.8-32.4.5-4.4.5-8.8,1-13.2,1.6.7-7.2,3.4-9.9,10.2-9.9,13.4.1,26.9-.2,40.3-1,9.1-.5,11.6-3,11.9-12,0-1-.5-2.4,1-3Z"/>
      <path class="cls-2" d="m137.4,107.3c.4-.3.8-.7,1.2-1-.4.3-.8.7-1.2,1Z"/>
    </g>
  </g>
</svg>