<?xml version="1.0" encoding="UTF-8"?>
<svg id="Layer_2" data-name="Layer 2" xmlns="http://www.w3.org/2000/svg" width="128.6" height="163.4" viewBox="0 0 128.6 163.4">
  <defs>
    <style>
      .cls-1 {
        fill: #9f5f00;
      }

      .cls-2 {
        fill: #c88200;
      }

      .cls-3 {
        fill: #e1b96a;
      }
    </style>
  </defs>
  <g id="Middle">
    <g>
      <path d="m64.1,163.2c-14.6.7-28.8-.8-42.8-2.9-11.1-1.7-15.6-6.8-18.1-17.6C-.7,126.2-.2,109.4.5,92.8c.4-8.6,1.5-17.5,6.4-25.4,1.1-1.7.4-4.5.3-6.8-.5-14.3,3.3-27.2,11.8-38.9C27.1,10.6,38.1,4.2,51.2,1.5c13.1-2.8,26.2-1.7,38.4,4,12.3,5.7,21.5,14.9,26.6,27.5,3.6,8.6,5.6,17.8,5.1,27.3-.2,4.1.4,7.9,2.4,11.7,3.5,6.7,3.8,14.3,4.2,21.6.6,10.8,1,21.7-.3,32.5-.9,7.4-1.7,14.6-4,21.7-2.4,7.7-8.2,11.4-15.1,12.3-14.9,1.9-29.8,4-44.5,3.1ZM88.1,29.6l.2.2c7.2,7.8,12.7,16.5,12.4,27.6-.1,4.9,1.9,6.7,6.6,5.5.3,0,.6-.3.6-.3-.8-4.4-.3-8.8-1.2-13.2-.9-4.3-1.9-8.5-4.3-12.2-3.1-9-9.7-15-17.9-18.7-9.7-4.4-20.3-5.2-30.8-3.2-12.9,2.5-22.2,9.7-27.7,21.7-4,7.5-5,15.6-5.1,23.9,0,2.9,1.5,1.9,2.5,1.9,3.4.2,4.4-.3,3.9-1.9-1-3.1.2-5.9.8-8.7,2.6-13,10.9-25.4,25.5-28.2,10.9-2,21.4-1.2,31.5,3.4l.2.2c.3,1.6,1.7,1.4,2.8,1.8ZM14.1,107.7c-.7,1.1-1.1,2.4-.9,3.7,1.2,9.4,1,18.9,3.1,28.2,1.1,4.8,4,7.3,8.6,7.7,11.1.8,22.2,1.8,33.4,1.9,11.2.2,22.4-.3,33.6-1,3.9-.3,7.8-.6,11.7-.9,4.6-.3,7.8-2.6,8.8-7.5.7-3.7,1.4-7.4,1.2-11.2.3-.5.9-1.1.9-1.6-.2-14.2.9-28.4-.9-42.5-1-7.8-1-7.8-8.8-7.7-15.1,0-30.1.2-45.2,0-13.7-.2-27.3,1.1-41-.7-2-.3-2.2,1.4-2.4,3-.5,3.7-1.9,7.4-1.7,11,.3,6-2,11.8-.3,17.7Zm50.7-69.6c-6.8-.1-12.9-.9-17.5,4.9-3.6,4.6-5.7,9.5-6.3,15.2-.2,2.4-1.3,4,3.2,3.9,13.1-.2,26.2-1.5,39.3.7,2.8.5,4.7-.6,4.1-3.7-1-5.8-2.1-11.5-6.4-16.2-4.8-5.4-10.8-5.2-16.5-4.8Z"/>
      <path class="cls-2" d="m113.5,128.6c.2,3.8-.5,7.5-1.2,11.2-.9,4.9-4.1,7.2-8.8,7.5-3.9.3-7.8.7-11.7.9-11.2.8-22.4,1.2-33.6,1-11.1-.2-22.3-1.1-33.4-1.9-4.7-.3-7.6-2.9-8.6-7.7-2-9.3-1.9-18.8-3.1-28.2-.2-1.4.2-2.6.9-3.7,2.6-5.4,5.2-10.8,7.6-16.4,1.3-2.9,3.3-4.5,6.3-4.5,7,0,14-1.8,21-.9-.9,1-1.7,2-2.6,2.9-6.3,6.4-8.1,16.8-1.6,22.4,6.4,5.6,4.3,10.2,2.4,15.9-.5,1.4-.8,2.8-1.1,4.2-.8,4,2.4,9,6.3,10.1,7,1.9,14.1,1.1,21.1.7,6-.3,10.3-5.9,9.1-10.8-1-4.1-2.2-8.1-3.6-12-.6-1.9-.9-2.7,1.2-4.1,7.3-5,9.1-14.1,5.3-22.1-1.4-2.9-4.1-4.6-5.8-7.2,5.9,0,11.9,0,17.8-.2,3.4-.2,5,1.3,6.3,4.2,2.8,6.5,4.2,13.4,5.8,20.2,1.5,6.1,1.5,12.6,4,18.5Z"/>
      <path class="cls-3" d="m113.5,128.6c-2.5-5.9-2.5-12.3-4-18.5-1.7-6.8-3.1-13.7-5.8-20.2-1.2-2.9-2.9-4.4-6.3-4.2-5.9.3-11.8.2-17.8.2-7.7-6.8-23.2-6.9-30.7,0-7.1-.9-14,.9-21,.9-2.9,0-5,1.6-6.3,4.5-2.4,5.5-5,10.9-7.6,16.4-1.7-5.9.6-11.8.3-17.7-.2-3.6,1.2-7.3,1.7-11,.2-1.6.4-3.2,2.4-3,13.6,1.8,27.3.5,41,.7,15.1.3,30.1.1,45.2,0,7.8,0,7.8-.1,8.8,7.7,1.8,14.1.7,28.3.9,42.5,0,.5-.6,1.1-.9,1.6Z"/>
      <path class="cls-3" d="m26,37c5.5-12,14.8-19.3,27.7-21.7,10.6-2,21.1-1.2,30.8,3.2,8.2,3.7,14.8,9.7,17.9,18.7-1.3-.9-2.6-2-4-2.7-3.4-1.6-5.7-5.4-10.1-4.7,0,0-.2-.2-.2-.2.1-2.2-1-2.6-2.8-1.8,0,0-.2-.2-.2-.2-3.1-4.5-7.9-5.9-12.9-6.3-4.8-.3-9.6.2-14.3-.1-5.1-.4-9.3,1.3-13.4,4-6.2,4-12.4,7.9-18.5,11.9Z"/>
      <path class="cls-2" d="m26,37c6.2-4,12.4-7.9,18.5-11.9,4.1-2.6,8.3-4.3,13.4-4,4.7.4,9.6-.2,14.3.1,5.1.3,9.8,1.7,12.9,6.3-10.1-4.6-20.6-5.5-31.5-3.4-14.7,2.7-22.9,15.2-25.5,28.2-.6,2.8-1.7,5.6-.8,8.7.5,1.6-.6,2.1-3.9,1.9-1.1,0-2.6.9-2.5-1.9,0-8.4,1.1-16.5,5.1-23.9Z"/>
      <path class="cls-2" d="m88.3,29.8c4.4-.7,6.7,3.1,10.1,4.7,1.4.7,2.7,1.8,4,2.7,2.4,3.8,3.3,7.9,4.3,12.2,1,4.3.4,8.8,1.2,13.2,0,0-.3.2-.6.3-4.7,1.2-6.7-.6-6.6-5.5.3-11.1-5.2-19.8-12.4-27.6Z"/>
      <path class="cls-2" d="m85.3,27.8c1.8-.8,2.9-.5,2.8,1.8-1-.4-2.5-.2-2.8-1.8Z"/>
      <path d="m49,85.9c7.5-6.9,22.9-6.8,30.7,0,1.7,2.6,4.4,4.3,5.8,7.2,3.8,8,2,17.1-5.3,22.1-2.1,1.4-1.9,2.3-1.2,4.1,1.4,4,2.6,8,3.6,12,1.2,4.9-3.1,10.5-9.1,10.8-7,.3-14.1,1.2-21.1-.7-3.9-1.1-7.2-6.1-6.3-10.1.3-1.4.6-2.8,1.1-4.2,1.9-5.7,4-10.3-2.4-15.9-6.5-5.6-4.6-15.9,1.6-22.4.9-.9,1.8-1.9,2.6-2.9Zm19.6,44.1c-.1-.7,0-1-.2-1.3-3-9-5.3-17.7,4.4-24.7,3.7-2.7.6-5.7-1.9-7.4-3.1-2.1-6.9-2.4-10.4-1.4-6.1,1.7-7.5,6.6-2.8,10.7,5.3,4.6,6.7,9.8,4.4,16.3-.9,2.5-1.2,5.2-1.8,7.9,2.9-.6,5.4-.6,8.5,0Z"/>
      <path class="cls-1" d="m68.6,130c-3-.7-5.6-.6-8.5,0,.6-2.7.9-5.4,1.8-7.9,2.3-6.5.9-11.7-4.4-16.3-4.7-4.1-3.3-9,2.8-10.7,3.5-1,7.3-.6,10.4,1.4,2.5,1.7,5.6,4.8,1.9,7.4-9.7,7.1-7.3,15.7-4.4,24.7,0,.3,0,.6.2,1.3Z"/>
    </g>
  </g>
</svg>