<?xml version="1.0" encoding="UTF-8"?>
<svg id="Layer_2" data-name="Layer 2" xmlns="http://www.w3.org/2000/svg" width="218.2" height="244.6" viewBox="0 0 218.2 244.6">
  <defs>
    <style>
      .cls-1 {
        fill: #7d89a2;
      }

      .cls-2 {
        fill: #b4bbca;
      }

      .cls-3 {
        fill: #696581;
      }
    </style>
  </defs>
  <g id="Middle">
    <g>
      <path d="m181,117c0-16.8-.2-33.6.2-50.4,0-3.1-2.6-2.1-2.9-2.1-6.7-1.2-13.3-2.7-19.8-4.3-12.8-3.1-25.7-5.8-38.6-8.6-9.6-2.1-19.2-4.2-28.7-6.5-2.5-.6-3.2-.1-3.1,2.3,1.7,44,.8,88.1,1.1,132.1,0,8-3.3,14.1-8,19.7-11.8,14.4-27,22.1-45.5,25-12.4,2-29.3-4.9-33.8-16.3-4.2-10.7-.9-20.2,4.7-28.8,9.8-15.3,24.5-24.1,42-27.9,3.2-.7,3.5-1.5,3.5-4.2,0-26.9-.2-53.9,0-80.8,0-14.7.5-29.4,1-44.1.3-11.1,6-19.1,15.2-21.5,5.9-1.5,11.7.8,17.3,2.1,29.5,6.6,58.8,13.9,88.1,21.3,8.7,2.2,17.4,4.7,26.2,6.4,5.2,1,8.6,5.1,11.1,9.5,4.1,7,5.4,14.9,5.7,22.7,1.8,38.5,1,77,1.2,115.5,0,6.3-.6,12.7,0,18.9,1.3,12.4-5.8,20.9-13.6,28.4-8.1,7.9-18,13.5-29.2,16.6-11.8,3.3-23.2,4.2-34.2-2.5-11.9-7.3-15-20.2-9.5-32.7,8.9-20.2,25.5-31,46.4-35.7,2.9-.6,2.9-1.6,2.9-3.7,0-16.8,0-33.6,0-50.4,0,0,0,0,.1,0ZM66.1,21.1c-.4,1.9-1.2,3.6-1.2,5.7.5,24.8-.4,49.7.6,74.5.7,15.9.1,31.8,0,47.7,0,3.9-.3,7.9-3.7,10.7-2.4,1-4.6,2.4-7.1,3-8.2,1.9-15.9,5.1-22.8,10.1-7,5-13.3,10.5-16,19-1.6,1-.7,2.7-1.1,4-3.3,7.8,5.6,14.3,12.7,14.5,11,.3,21.6-2.2,30.6-8.6,10.8-7.7,21-16.2,17.5-31.9,0-1,.2-2,.2-3,.6-35.4-1.1-70.7.9-106.1.5-8.4.2-16.7,3.1-24.8,1.4-4,4.4-6.1,8.8-5.1,13.3,3.1,26.6,6.2,40,9.2,19.2,4.4,38.4,8.6,57.4,14.1,3.4,1,7.8,1.6,7.8,6.7-.2,36.2,1.5,72.5.6,108.7,0,3.2.2,6.7-2.7,9.2-6.3,4.2-13.9,4.9-20.5,8.1-10.6,5.2-20.4,11.5-25.5,22.9-2.1,1.9-1.5,4.7-2.2,7-1.3,3.4.1,6,2.3,8.4,6.5,7.1,15.1,5.4,22.8,4,11.6-2,21.1-8.3,29.4-16.8,5.2-5.4,8.1-11.1,6.6-18.6,0-2.2.2-4.3.2-6.5,0-32.1,0-64.1,0-96.2,0-5,2.1-9.9.9-14.8-1.9-7.7-1.4-15.6-3-23.3-1.4-6.7-4.9-9.6-12.1-11.4-37.6-9.3-75.3-18.3-112.6-29-6.8-2-11.1,1.2-11.9,8.4Z"/>
      <path class="cls-1" d="m202.7,53.1c1.6,7.7,1,15.6,3,23.3,1.2,4.9-.9,9.8-.9,14.8,0,32.1,0,64.1,0,96.2,0,2.2-.2,4.3-.2,6.5-2.2.2-3.3,2.1-4.7,3.5-4.1,4.1-8.1,8.4-13,11.5-13.4,8.5-27.7,12.3-43.4,8,.7-2.3.1-5.1,2.2-7,.6-.1,1.4,0,1.9-.4,13.8-8.9,28.3-16.2,43.7-22,4.6-1.7,4.5-5.2.4-8.6,2.8-2.5,2.6-6,2.7-9.2.9-36.2-.8-72.5-.6-108.7,0-5.1-4.4-5.8-7.8-6.7-18.9-5.4-38.2-9.6-57.4-14.1-13.3-3.1-26.6-6.2-40-9.2-4.4-1-7.4,1.1-8.8,5.1-2.8,8.1-2.6,16.4-3.1,24.8-2,35.4-.3,70.7-.9,106.1,0,1-.1,2-.2,3-2.5.8-3.2,3.2-4.4,5.1-11.2,17.6-37.8,27.6-56.4,20.9.4-1.3-.5-3,1.1-4,5.4-3.8,10.7-7.7,16.2-11.5,8.3-5.7,17.3-9.7,26.9-12.6,5.4-1.7,6.2-4.3,2.9-7.9,3.4-2.8,3.7-6.8,3.7-10.7,0-15.9.6-31.9,0-47.7-1-24.8-.1-49.7-.6-74.5,0-2.1.8-3.8,1.2-5.7,4.2-2,8.3-2.6,13.2-1.3,24.5,6.6,49.2,12.2,73.6,18.9,16.2,4.4,33.5,5.5,48.4,14.3.4.2,1,0,1.5,0Z"/>
      <path class="cls-2" d="m202.7,53.1c-.5,0-1.1.2-1.5,0-14.9-8.8-32.2-9.9-48.4-14.3-24.4-6.7-49.2-12.3-73.6-18.9-4.9-1.3-8.9-.7-13.2,1.3.8-7.2,5.1-10.4,11.9-8.4,37.3,10.7,75,19.7,112.6,29,7.2,1.8,10.8,4.7,12.1,11.4Z"/>
      <path class="cls-3" d="m14.9,195.9c18.7,6.7,45.2-3.3,56.4-20.9,1.2-1.9,1.9-4.3,4.4-5.1,3.4,15.7-6.7,24.1-17.5,31.9-9.1,6.4-19.6,8.9-30.6,8.6-7-.2-16-6.6-12.7-14.5Z"/>
      <path class="cls-3" d="m143.5,216.8c15.8,4.3,30,.5,43.4-8,4.9-3.1,8.9-7.4,13-11.5,1.4-1.4,2.4-3.3,4.7-3.5,1.5,7.5-1.4,13.2-6.6,18.6-8.2,8.6-17.8,14.8-29.4,16.8-7.7,1.3-16.3,3-22.8-4-2.2-2.4-3.7-5-2.3-8.4Z"/>
      <path class="cls-2" d="m191.7,178.8c4.1,3.4,4.2,6.9-.4,8.6-15.4,5.8-29.9,13.2-43.7,22-.5.3-1.3.3-1.9.4,5.1-11.4,14.9-17.7,25.5-22.9,6.6-3.3,14.3-3.9,20.5-8.1Z"/>
      <path class="cls-2" d="m61.9,159.9c3.3,3.6,2.5,6.2-2.9,7.9-9.6,3-18.6,7-26.9,12.6-5.4,3.7-10.8,7.6-16.2,11.5,2.7-8.5,9.1-14,16-19,6.9-5,14.5-8.1,22.8-10.1,2.5-.6,4.7-2,7.1-3Z"/>
    </g>
  </g>
</svg>