<?xml version="1.0" encoding="UTF-8"?>
<svg id="Layer_2" data-name="Layer 2" xmlns="http://www.w3.org/2000/svg" width="145.6" height="142" viewBox="0 0 145.6 142">
  <defs>
    <style>
      .cls-1 {
        fill: #fefefe;
      }
    </style>
  </defs>
  <g id="Middle">
    <g>
      <path d="m48.6,89.7c6-10.2,12.9-19.2,19.7-28.4,13.8-18.6,27.7-37.1,41.4-55.7C113.8,0,118.9-1.6,127.2,1.7c7,2.8,13.2,6.5,16.6,14.1,2.5,5.7,2.4,10.7-1.1,15.5-13.5,18.7-27.3,37.4-41,56-11.4,15.5-22.8,31.1-34.5,46.4-7.8,10.2-17.8,10.8-26.6,2.8-11.4-10.4-23.1-20.6-34.7-30.8-5.7-5-7.7-13.1-4.4-19.9,1.4-2.9,2.9-5.8,4.9-8.2,8.3-10.4,15.2-11.3,25.1-2.7,5.7,4.9,11.9,9.1,17,14.9Zm-34.2,5.1c10.5,9.6,21,19.2,31.5,28.9,7.1,6.7,7.8,6.7,13.7-1.1.2-.3.3-.6.5-.8,8.8-12,17.6-24.1,26.5-36,15-20.3,30.1-40.6,45.1-60.8,4-3.1.3-4.6-1.4-6.3-5.3-5.4-9.4-5.3-13.6.3-4.5,5.9-9.1,11.8-13.5,17.7-15.8,21.1-31.5,42.2-47.8,62.8-3.6,4.5-6.8,4.3-10.8,2-5.7-3.3-11-7.3-15.9-11.8-9.2-8.5-9.3-8.5-14.8.6-.2.4-.3,1-.5,1.3-1.5,1.8,0,2.5,1.2,3.4Z"/>
      <path class="cls-1" d="m130.3,18.5c-5.3-5.4-9.4-5.3-13.6.3-4.5,5.9-9.1,11.8-13.5,17.7-15.8,21.1-31.5,42.2-47.8,62.8-3.6,4.5-6.8,4.3-10.8,2-5.7-3.3-11-7.3-15.9-11.8-9.2-8.5-9.3-8.5-14.8.6-.2.4-.3,1-.5,1.3-1.5,1.8,0,2.5,1.2,3.4,10.5,9.6,21,19.2,31.5,28.9,7.1,6.7,7.8,6.7,13.7-1.1.2-.3.3-.6.5-.8,8.8-12,17.6-24.1,26.5-36,15-20.3,30.1-40.6,45.1-60.9,4-3.1.3-4.6-1.4-6.3Z"/>
    </g>
  </g>
</svg>