<?xml version="1.0" encoding="UTF-8"?>
<svg id="Layer_2" data-name="Layer 2" xmlns="http://www.w3.org/2000/svg" width="147.5" height="147.3" viewBox="0 0 147.5 147.3">
  <defs>
    <style>
      .cls-1 {
        fill: #b4bbca;
      }

      .cls-2 {
        fill: #fefefe;
      }
    </style>
  </defs>
  <g id="Middle">
    <g>
      <path d="m109.4,74.2c11,11,21.5,22.4,33,32.6,6.8,6.1,6.4,14.5,1.6,20.8-5,6.6-10.6,12.7-17.8,17.2-5.9,3.7-13.8,3.6-18.6-1.6-10.7-11.5-22.1-22.4-33.5-33.8-11.3,11.4-23,22.3-33.7,34.1-4.7,5.2-15.5,4.5-20.1.6-5.9-5-11.4-10.2-16.2-16.3-5.9-7.4-4.9-14.4,3-22.9,10-10.7,19.8-21.7,30-32.7-9.7-9.7-21.3-21.2-32.9-32.7-4.6-4.6-5.6-12-1.7-17.2C8,14.7,14.7,8.1,22.1,2.5c5.1-3.9,12.6-3,17.2,1.6,11.6,11.6,23.1,23.2,34.6,34.8,10.1-8.8,18.1-19.5,27.7-28.5,3.1-2.9,6.3-5.8,9.5-8.5,3.5-2.9,10.6-2.3,15.7,1.5,6.7,5,12.8,10.8,17.6,17.6,4,5.6,4.3,14.4-1.4,19.7-11.4,10.6-22.1,21.9-33.1,32.9-.1.1-.2.2-.6.7Zm-15.9-1.4c.5-.2.9-.4.8-1.1,1-2.3,2.6-4.1,4.4-5.8,11.8-11.8,23.6-23.6,35.5-35.4-3.7-3.3-5.7-7.9-9.8-10.5-2.2-1.9-4.3-3.8-6.5-5.8-12.7,11.9-24.2,25-37.5,36.4-3.2,2.8-6.5,4.9-10.3,2-3.8-2.9-7.2-6.2-10.6-9.5-9.7-9.6-19.3-19.3-28.9-28.9-1.7,1.4-3.2,2.6-4.7,3.8-4.7,3.5-8,8.2-11.7,12.7,11.7,11.7,23.4,23.4,35.2,35.1,3,3,5.3,6.2,4.3,10.8-3.2,3.8-6.3,7.8-9.7,11.4-9,9.2-18.1,18.3-27.3,27.3-2.3,2.3-2.7,3.7.4,5.2,2.7,3.9,5.9,7.3,9.6,10.2,2.9,2.3,4.6,3,7.6,0,10.2-10.6,20.7-20.9,31.1-31.3,7.2-7.2,10.4-7.2,17.7.2,10.5,10.5,21.1,20.9,31.5,31.6,2.1,2.1,3.9,2.5,5.7.6,3.8-3.9,8.2-7.1,11.1-11.8,2.8-1.9,1.6-3.5-.3-5.3-10.1-9.9-20.2-19.8-29.9-30-3.2-3.4-7.2-6.6-7.5-11.9h-.1Z"/>
      <path class="cls-2" d="m101.1,84.6c-3.2-3.4-7.2-6.6-7.5-11.9,0,0-.1,0-.1,0,.3-.4.5-.7.8-1.1,1-2.3,2.6-4.1,4.4-5.8,11.8-11.8,23.6-23.6,35.5-35.4-3.7-3.3-5.7-7.9-9.8-10.5-2.2-1.9-4.3-3.8-6.5-5.8-12.7,11.9-24.2,25-37.5,36.4-3.2,2.8-6.5,4.9-10.3,2-3.8-2.9-7.2-6.2-10.6-9.5-9.7-9.6-19.3-19.3-28.9-28.9-1.7,1.4-3.2,2.6-4.7,3.8-4.7,3.5-8,8.2-11.7,12.7,11.7,11.7,23.4,23.4,35.2,35.1,3,3,5.3,6.2,4.3,10.8-3.2,3.8-6.3,7.8-9.7,11.4-9,9.2-18.1,18.3-27.3,27.3-2.3,2.3-2.7,3.7.4,5.2,2.7,3.9,5.9,7.3,9.6,10.2,2.9,2.3,4.6,3,7.6,0,10.2-10.6,20.7-20.9,31.1-31.3,7.2-7.2,10.4-7.2,17.7.2,10.5,10.5,21.1,20.9,31.5,31.6,2.1,2.1,3.9,2.5,5.7.6,3.8-3.9,8.2-7.1,11.1-11.8,2.8-1.9,1.6-3.5-.3-5.3-10.1-9.9-20.2-19.8-29.9-30Z"/>
      <path class="cls-1" d="m93.5,72.8c.3-.4.5-.7.8-1.1.1.7-.3.9-.8,1.1Z"/>
    </g>
  </g>
</svg>