<?xml version="1.0" encoding="UTF-8"?>
<svg id="Layer_2" data-name="Layer 2" xmlns="http://www.w3.org/2000/svg" width="198.8" height="243.2" viewBox="0 0 198.8 243.2">
  <defs>
    <style>
      .cls-1 {
        fill: #7d89a2;
      }

      .cls-2 {
        fill: #b4bbca;
      }

      .cls-3 {
        fill: #696581;
      }

      .cls-4 {
        fill: #26282e;
      }
    </style>
  </defs>
  <g id="Middle">
    <g>
      <path d="m.7,137.7c-.2-4.1-.8-8.3-.7-12.2.4-12.3,0-24.7,2.1-36.9,1-5.9.3-12,2.6-17.7,1.6-4.3,4.3-7.1,8.6-8.6,7.8-2.7,15.9-3.4,24.1-3.1,1.4,0,3.2,1.1,4.4-1,4.2-7.8,12.2-11.6,18.7-16.7,14.7-11.4,31-20.7,48-28.5,11.7-5.4,23.6-10.4,36.3-12.4,7.4-1.1,15.5-1.6,21.3,5.6,3.3,4.1,3.8,8.9,4.5,13.6,1.9,12,.9,24.1,1.1,36.2,0,3.2,1,4.3,4.1,5.6,13.5,5.9,20.8,11.8,22.1,31.2.9,14-1,27.9.5,41.8,1,9.7,0,19.6-2.9,29.1-1.8,5.9-5.2,10.8-11.1,13.4-3.6,1.6-6.6,4.6-10.7,5.4-1.9.4-2.1,1.9-2.1,3.7,0,8.5.1,17-.1,25.4-.2,6.8-.8,13.6-2.9,20.1-2.2,7-7.9,10.9-15.2,11.3-9.7.5-18.7-2.2-27.5-5.5-20.4-7.6-39.6-17.5-57.4-30.1-7.5-5.3-14.9-10.9-22.4-16.4-.5-.4-1.2-.9-1.4-1.4-2-6.4-7.2-5.7-12.3-5.6-7.2.2-14.1-.9-20.8-3.9-4.8-2.1-7.3-5.7-7.8-10.3-1.2-10.7-3.3-21.4-3.2-32.2Zm171.1,16.4v15.1c8.5-3.7,12.9-9.3,12.5-18.1,1.6-19,1.6-37.9.1-56.9.7-9.5-3.3-16.2-12.6-19.9-.1,3.4-.5,6.6.2,9.8-1,23.3-.5,46.6-.3,70Zm-118.4,21.1c0,2.2,1.4,3.6,2.8,5,12.3,11.5,26.2,20.8,40.9,28.9,17.4,9.6,35.4,18,55.1,21.7,2.2.4,5.1,1,5.2-2.6.2-6.8,2-13.4.9-20.3,0-.5.2-1,.2-1.5,0-58.7,0-117.5,0-176.2.9-4.5-1.3-8.8-.8-13.2.5-4.4-2-5.2-5.4-4.6-15.4,2.8-29.8,8.6-43.7,15.5-14.5,7.2-28.5,15.4-41.2,25.5-5,4-10.9,7.5-13.8,13.7-3.3,1.6-6.5,3.6-10.5,3.2-1.2-.1-2.5.6-3.3,1.8-3.5-.3-6.9.6-10.3.9-12.2,1.3-12.8.7-12.7,13.5,0,.8,0,1.7.1,2.5-2.2,5.8-1.4,12.1-1.8,18-1,17-.3,34,1.9,50.8,0,4.1-1.3,9.2,4,10.4,6.1,1.4,12.3,3.3,18.8,2.7,4.8.7,9.2,2.5,13.7,3.9Z"/>
      <path class="cls-1" d="m158.5,30.3c0,58.7,0,117.5,0,176.2,0,.5-.1,1-.2,1.5-.4.2-1.1.3-1.3.6-3.8,6-8.9,8.4-15.3,7.2-7.9-1.4-15.4-3.9-22.5-7.5-17.5-8.8-33.9-19.6-50.3-30.2-5.9-3.8-9.9-9.8-16.1-13.1-2.4-28.6-3.2-57.2,0-85.8,6-4.7,10.5-11,17.1-15.1,21.8-13.5,44.8-24.3,68.6-33.6,6.5-2.5,13.3-5.7,20-.2Z"/>
      <path class="cls-1" d="m16.9,158.1c-2.2-16.9-2.9-33.9-1.9-50.8.4-6-.4-12.2,1.8-18,6.8-3.7,14.1-5.1,21.7-5,.1,10-1.7,19.9-1.9,30-.3,15,1.2,30,2,44.9-7.3,1.9-14.5,1.7-21.7-1Z"/>
      <path class="cls-2" d="m158.5,30.3c-6.7-5.4-13.5-2.3-20,.2-23.8,9.3-46.9,20.1-68.6,33.6-6.6,4.1-11.1,10.4-17.1,15.1-.9-4.1.9-8,.7-12,2.9-6.2,8.7-9.7,13.8-13.7,12.7-10.1,26.7-18.3,41.2-25.5,13.9-6.9,28.3-12.8,43.7-15.5,3.4-.6,5.9.2,5.4,4.6-.5,4.4,1.8,8.7.8,13.2Z"/>
      <path class="cls-4" d="m53.5,67.3c.2,4-1.6,7.9-.7,12-3.1,28.6-2.3,57.2,0,85.8-1.1,3.5,1.3,6.7.5,10.2-4.5-1.4-9-3.3-13.7-3.9.5-4.2-1.1-8.1-1.2-12.2-.8-15-2.3-29.9-2-44.9.2-10,2.1-19.9,1.9-30,0-4,1.7-7.8,1.2-11.9.7-1.3,2.1-1.9,3.3-1.8,4,.4,7.2-1.6,10.5-3.2Z"/>
      <path class="cls-3" d="m53.4,175.2c.8-3.4-1.7-6.7-.5-10.2,6.2,3.4,10.1,9.3,16.1,13.1,16.4,10.7,32.7,21.4,50.3,30.2,7.2,3.6,14.7,6.1,22.5,7.5,6.5,1.2,11.5-1.3,15.3-7.2.2-.3.9-.4,1.3-.6,1.1,6.8-.6,13.5-.9,20.3-.1,3.6-3,3-5.2,2.6-19.8-3.7-37.7-12.2-55.1-21.7-14.7-8.1-28.6-17.4-40.9-28.9-1.5-1.4-2.9-2.8-2.8-5Z"/>
      <path class="cls-1" d="m184.5,94.2c1.5,19,1.5,37.9-.1,56.9-1.5,0-2.3,1.1-3.3,2.1-2.8,2.9-5.8,4.1-9.3.9-.2-23.3-.7-46.7.3-70,2.1.5,3,2.4,4.5,3.6,2.7,2.1,4.1,5.6,7.8,6.4Z"/>
      <path class="cls-2" d="m39.7,72.3c.6,4.1-1.2,7.9-1.2,11.9-7.6,0-14.9,1.4-21.7,5,0-.8-.1-1.7-.1-2.5,0-12.9.5-12.2,12.7-13.5,3.4-.4,6.8-1.3,10.3-.9Z"/>
      <path class="cls-3" d="m38.6,159.1c0,4.1,1.7,8,1.2,12.2-6.5.5-12.7-1.3-18.8-2.7-5.3-1.3-4.1-6.4-4-10.4,7.1,2.7,14.3,2.9,21.7,1Z"/>
      <path class="cls-2" d="m184.5,94.2c-3.7-.8-5.2-4.4-7.8-6.4-1.5-1.2-2.4-3.2-4.5-3.6-.7-3.2-.3-6.4-.2-9.8,9.3,3.7,13.2,10.4,12.6,19.9Z"/>
      <path class="cls-3" d="m171.8,154.1c3.5,3.2,6.5,2,9.3-.9.9-.9,1.8-2,3.3-2.1.4,8.8-4.1,14.4-12.5,18.1v-15.1Z"/>
    </g>
  </g>
</svg>