<?xml version="1.0" encoding="UTF-8"?>
<svg id="Layer_2" data-name="Layer 2" xmlns="http://www.w3.org/2000/svg" width="140.9" height="139.5" viewBox="0 0 140.9 139.5">
  <defs>
    <style>
      .cls-1 {
        fill: #fff;
      }

      .cls-2 {
        fill: #7d89a2;
      }
    </style>
  </defs>
  <g id="Middle">
    <g>
      <path class="cls-1" d="m120.4,0c21.5,1.1,27.8,34.3,9.6,45.9-2.3,1.6-.4,2.1.2,2.5,15.1,8.9,13.3,33.5,0,41.9-7.7,4.8,17.7,5,8.4,35.6-3.2,8.5-11.3,13.7-20.4,13.7-33.2,0-66.5-.2-99.7.1-6.9,0-18.4-10.9-18.3-17.7,0-4.6-.2-9.3,0-13.9.4-7.5,6.4-11.2,11.7-15.4-5.8-5.5-12.8-10.3-11.7-19.6-.9-10.4.2-18.2,9.1-24.3C15.7,45-.4,45.3,0,24.1-.6,12.1,7.5,1.1,19.3,0c15.5.1,85.6.3,101.1,0Zm-49.6,7.4c-16,0-32.1,0-48.1,0-10.4-.3-17.1,11.1-15.3,19.4,1.7,10.1,9.9,15.6,17.1,15.3,13.5-.6,27,.8,40.5-.9,16.5.2,33.2,1.3,49.9.9,21.4,1.5,26.7-32.9,3.1-34.8-15.7,0-31.4,0-47.1,0Zm-.2,44.7c-16,0-32.1,0-48.1,0-10.5-.5-17,12-15.1,19.6,1.9,10.4,10.4,15.5,17.3,15.2,13.3-.7,26.6.8,40-.9,16.5.2,33.2,1.3,49.9,1,21.9,1.9,26.9-33.4,3.3-34.9-15.7,0-31.4,0-47.1,0Zm.7,45.7c-16.2,0-32.4,0-48.6,0-10.4-.3-17.1,11-15.3,19.4,1.6,10.1,9.9,15.5,17.1,15.4,15.1-.3,30.3.4,45.4-1.1,14.9,1.5,29.9.7,44.9,1.1,21.4,1.5,26.7-32.9,3.1-34.8-15.5,0-31.1,0-46.6,0Z"/>
      <path d="m70.8,7.4c15.7,0,31.4,0,47.1,0,23.5,1.9,18.4,36.3-3.1,34.8-16.6.4-33.3-.7-49.9-1-13.5,1.7-27,.3-40.5.9-7.2.3-15.4-5.2-17.1-15.3-1.8-8.3,4.9-19.8,15.3-19.5,16,0,32.1,0,48.1,0Zm23.6,21.9c7.5,0,13.7-.3,19.8,0,4.7.3,5.4-1.8,5.4-5.8,0-4.6-2.2-4.1-5.3-3.2-20.9-.6-41.9-1.2-62.8-.9-8.7.3-17.4,2.2-26.1.7-3.6-.3-4,1.1-4.1,3.3,0,2.3-1.5,5.9,2.9,6,22.8,0,47.7,1.5,70.2,0Z"/>
      <path d="m70.7,52.1c15.7,0,31.4,0,47.1,0,23.5,1.4,18.6,36.8-3.3,34.9-16.6.4-33.3-.8-49.9-1-13.3,1.7-26.7.3-40,.9-6.9.3-15.4-4.8-17.3-15.2-2-7.6,4.6-20.1,15.1-19.6,16,0,32.1,0,48.1,0Zm24,21.9c7.4,0,13.4-.3,19.3.1,5,.4,5.7-1.8,5.7-6.1,0-5.1-3-3.3-5.5-3-20.9-.8-41.9-1.2-62.9-1-8.7.3-17.4,2.2-26.1.6-3.4-.3-3.8,1.2-3.8,3,0,2.4-1.6,6.1,3.1,6.3,22.8,0,47.7,1.4,70.2,0Z"/>
      <path d="m71.3,97.8c15.5,0,31.1,0,46.6,0,23.5,1.9,18.3,36.4-3.1,34.8-15-.4-30,.4-44.9-1.1-15.1,1.5-30.3.8-45.4,1.1-7.2.1-15.4-5.3-17.1-15.4-1.8-8.4,4.9-19.8,15.3-19.4,16.2,0,32.4,0,48.6,0Zm23,21.9c7.7,0,14-.3,20.2.1,5.3.4,5-2.6,5-6.2,0-4.5-2.4-3.5-5.1-2.9-20.6-.7-41.2-1.2-61.9-.9-9.2,0-18.4,2.3-27.6.6-3.6-.4-3.6,1.5-3.7,3.2-.1,2.3-1.6,6,2.8,6.1,22.9,0,47.7,1.5,70.2,0Z"/>
      <path class="cls-2" d="m94.4,29.3c-22.5,1.4-47.3,0-70.2,0-4.4-.1-3-3.7-2.9-6,0-2.2.4-3.6,4.1-3.3,8.7,1.6,17.4-.4,26.1-.7,20.9-.3,42,.3,62.8.9,3-.9,5.3-1.4,5.3,3.2,0,4.1-.7,6.1-5.4,5.8-6.1-.4-12.2,0-19.8,0Z"/>
      <path class="cls-2" d="m94.6,74c-22.4,1.4-47.3,0-70.2,0-4.8-.1-3.2-3.8-3.1-6.3,0-1.9.4-3.4,3.8-3,8.7,1.6,17.4-.3,26.1-.6,21-.2,41.9.1,62.9,1,2.5-.3,5.5-2.1,5.5,3,0,4.3-.7,6.5-5.7,6.1-5.9-.4-11.9-.1-19.3-.1Z"/>
      <path class="cls-2" d="m94.3,119.7c-22.5,1.4-47.3,0-70.2,0-4.3-.1-2.9-3.8-2.8-6.1,0-1.7,0-3.6,3.7-3.2,9.2,1.7,18.3-.5,27.6-.6,20.6-.3,41.3.3,61.9.9,2.7-.6,5.2-1.6,5.1,2.9,0,3.6.3,6.6-5,6.2-6.3-.4-12.6-.1-20.2-.1Z"/>
    </g>
  </g>
</svg>