# Apple ModelIO OBJ File: extraVampiro
mtllib extraVampiro.mtl
g Capa
v -0.892231 1.89919 -0.69071
v -0.9131 1.90275 0.700854
v -0.054475 2.17236 0.401708
v -0.428799 2.24799 0.032936
v -0.003053 2.16804 -0.381421
v -1.77173 0.575421 1.18017
v -1.78141 0.572622 -1.18017
vn -0.3767 0.9262 -0.0167
vn -0.8351 0.55 -0.0034
vt 0.5 1
vt 0.5 0
vt 1 0
vt 1 0.5
vt 1 1
vt 0.594284 -0
vt 0.996688 0.120578
vt 0.594284 0.600256
vt 1 0.474474
usemtl 
f 1/1/1 2/2/1 3/3/1
f 1/1/1 3/3/1 4/4/1
f 5/5/1 1/1/1 4/4/1
f 6/6/2 2/7/2 7/8/2
f 2/7/2 1/9/2 7/8/2
s off
g Cuello_capa
v -0.42487 2.15819 -0.755791
v -0.454367 2.17487 0.775777
v -0.058995 2.16971 0.395785
v 0 2.16971 -0.375498
v -0.501829 2.39102 -1.13608
v -0.752003 2.42213 -1.03605
v -0.501829 2.40083 1.15577
v -0.756105 2.42213 1.04076
v -0.970229 2.5281 0.881071
v -1.1495 2.67229 0.709245
v -1.30477 2.72879 0.446396
v -1.3853 2.80903 0.282463
v -1.41501 2.90202 0.124164
v -1.43258 2.99775 0.009843
v -1.41264 2.90202 -0.156693
v -1.36565 2.80903 -0.308612
v -1.30536 2.72879 -0.443362
v -1.23084 2.67229 -0.606244
v -0.977488 2.52965 -0.884148
vn -0.0077 0.9999 -0.0075
vn 0.5599 0.8285 -0.0027
vt 0.267345 0.64575
vt 0.568534 0.161656
vt 0.594284 0.347137
vt 0.452555 0.597382
vt 0.129535 0.724608
vt 0.07982 0.647801
vt 0.594284 0.009367
vt 0.501448 -0
vt 0.395162 0.0016
vt 0.288762 0.00846
vt 0.185299 0.057771
vt 0.117159 0.086111
vt 0.061076 0.119776
vt 0.016611 0.141469
vt 0.004528 0.207687
vt 0.001938 0.273588
vt 0.004057 0.334912
vt -0 0.404674
vt 0.033745 0.550225
usemtl 
f 8/10/3 9/11/3 10/12/3
f 8/10/3 10/12/3 11/13/3
f 8/10/4 12/14/4 13/15/4
f 9/11/4 8/10/4 13/15/4
f 14/16/4 9/11/4 13/15/4
f 15/17/4 14/16/4 13/15/4
f 16/18/4 15/17/4 13/15/4
f 17/19/4 16/18/4 13/15/4
f 18/20/4 17/19/4 13/15/4
f 19/21/4 18/20/4 13/15/4
f 20/22/4 19/21/4 13/15/4
f 21/23/4 20/22/4 13/15/4
f 22/24/4 21/23/4 13/15/4
f 23/25/4 22/24/4 13/15/4
f 24/26/4 23/25/4 13/15/4
f 25/27/4 24/26/4 13/15/4
f 26/28/4 25/27/4 13/15/4
s off
