# Apple ModelIO OBJ File: sombreroMuerte
mtllib sombreroMuerte.mtl
g Cube.001
v 0.77089 3.47358 0.979317
v 0.606095 3.64324 0.594677
v 1 3.86204 0.434394
v -0.483612 1.90549 1.1812
v -0.338471 3.29078 1.1756
v -0.896028 1.77417 0.909997
v -0.906429 2.8038 0.889325
v 0.081348 2.25247 0.646365
v 0.623273 2.33489 0.924189
v 0.641076 2.17439 1.14637
v 0.5 2.0791 1.14637
v -0.5 4.05286 0.422244
v -1 3.63059 0.422244
v -1.09105 1.93468 0.646365
v -1.23802 1.84736 0
v -1.00458 3.97864 0
v -0.370078 4.18709 0
v 0.081348 2.15558 0
v 0.55753 2.14249 0
v 0.437781 3.68745 0
v 1 3.97864 0
v -0.5 2.03488 0
v -0.5 2.13177 0.646365
v 0 2.16021 0
v 0 2.26095 0.646365
v 0.5 4.18709 0
v 0.5 3.99207 0.422244
v 0 4.28669 0
v 0 4.17063 0.422244
v 0.286973 3.40302 1.18247
v -0.016933 3.33825 1.28236
v 0 2.07919 1.14637
v 0.212191 3.42444 0.75496
v 0.77089 3.47358 -0.979317
v 1 3.86204 -0.434394
v 0.606095 3.64324 -0.594677
v -0.483612 1.90549 -1.1812
v -0.896028 1.77417 -0.909997
v -0.338471 3.29078 -1.1756
v -0.906429 2.8038 -0.889325
v 0.081348 2.25247 -0.646365
v 0.5 2.0791 -1.14637
v 0.641076 2.17439 -1.14637
v 0.623273 2.33489 -0.924189
v -0.5 4.05286 -0.422244
v -1 3.63059 -0.422244
v -1.09105 1.93468 -0.646365
v -0.5 2.13177 -0.646365
v 0 2.26095 -0.646365
v 0.5 3.99207 -0.422244
v 0 4.17063 -0.422244
v 0.286973 3.40302 -1.18247
v -0.016933 3.33825 -1.28236
v 0 2.07919 -1.14637
v 0.212191 3.42444 -0.75496
vn 0.2671 -0.8342 -0.4824
vn -0.5119 0.0379 0.8582
vn 0.4173 -0.7022 -0.5769
vn -0.5645 0.4439 0.6959
vn -0.9824 0.0928 0.162
vn -0.8942 0.0662 0.4426
vn -0.4469 0.8038 0.3927
vn 0.0177 -0.9834 0.1804
vn 0.4474 -0.8638 -0.2318
vn 0.2765 -0.9553 0.1047
vn 0.244 -0.9586 0.1466
vn -0.0794 -0.9854 0.1506
vn 0.2995 0.8966 0.3262
vn 0.2526 0.9079 0.3344
vn -0.2351 0.9412 0.2428
vn 0.1677 0.761 0.6267
vn 0.1851 0.7256 0.6628
vn -0.2275 0.6824 0.6947
vn 0.3875 -0.7852 -0.483
vn 0.2633 -0.896 -0.3575
vn -0.0139 -0.9441 -0.3294
vn 0.2949 0.057 0.9538
vn 0.1275 -0.0546 0.9903
vn -0.0765 -0.0454 0.996
vn 0.4188 -0.8891 -0.1846
vn 0.9482 0.0735 0.3089
vn 0.9338 0.3313 -0.1354
vn 0.3729 -0.0034 -0.9279
vn 0.9792 -0.119 -0.1644
vn 0.2671 -0.8342 0.4824
vn -0.5119 0.0379 -0.8582
vn 0.4173 -0.7022 0.5769
vn -0.5645 0.4439 -0.6959
vn -0.9824 0.0928 -0.162
vn -0.8942 0.0662 -0.4426
vn -0.4469 0.8038 -0.3927
vn 0.0177 -0.9834 -0.1804
vn 0.4474 -0.8638 0.2318
vn 0.2765 -0.9553 -0.1047
vn 0.244 -0.9586 -0.1466
vn -0.0794 -0.9854 -0.1506
vn 0.2995 0.8966 -0.3262
vn 0.2526 0.9079 -0.3344
vn -0.2351 0.9412 -0.2428
vn 0.1677 0.761 -0.6267
vn 0.1851 0.7256 -0.6628
vn -0.2275 0.6824 -0.6947
vn 0.3875 -0.7852 0.483
vn 0.2633 -0.896 0.3575
vn -0.0139 -0.9441 0.3294
vn 0.2949 0.057 -0.9538
vn 0.1275 -0.0546 -0.9903
vn -0.0765 -0.0454 -0.996
vn 0.4188 -0.8891 0.1846
vn 0.9482 0.0735 -0.3089
vn 0.9338 0.3313 0.1354
vn 0.3729 -0.0034 0.9279
vn 0.9792 -0.119 0.1644
vt 0.795956 0.37927
vt 0.775928 0.309159
vt 0.848811 0.278803
vt 0.201382 0.899878
vt 0.242391 0.670016
vt 0.252456 0.938168
vt 0.301164 0.772641
vt 0.60452 0.78533
vt 0.696034 0.832614
vt 0.692502 0.874557
vt 0.665721 0.876573
vt 0.527 0.06795
vt 0.522557 0.146575
vt 0.373531 0.163379
vt 0.414637 0.263614
vt 0.426399 0.417136
vt 0.531243 0.456216
vt 0.603809 0.104292
vt 0.373531 0.43051
vt 0.597514 0.057874
vt 0.600639 0.682491
vt 0.677625 0.686825
vt 0.750302 0.208728
vt 0.853482 0.203643
vt 0.373531 0.681943
vt 0.501175 0.681746
vt 0.400953 0.786304
vt 0.505056 0.784585
vt 0.587583 0.68167
vt 0.591619 0.784382
vt 0.363251 0.122554
vt 0.285497 0.106451
vt 0.348292 0.07732
vt 0.269318 0.070898
vt 0.205559 0.101563
vt 0.190964 0.057874
vt 0.142916 0.115804
vt 0.106665 0.075384
vt 0.034757 0.511694
vt 0.119562 0.513608
vt 0.069367 0.588377
vt 0.14879 0.623285
vt 0.206979 0.507783
vt 0.196892 0.648321
vt 0.280673 0.549696
vt 0.426268 0.836501
vt 0.498659 0.880012
vt 0.584338 0.872476
vt 0.034757 0.804727
vt 0.052676 0.826551
vt 0.131828 0.849477
vt 0.703046 0.339515
vt 0.754525 0.49236
vt 0.952842 0.650171
vt 0.696034 0.611541
vt 0.945234 0.49236
vt 0.79773 0.474408
vt 0.703046 0.474408
vt 0.70321 0.37927
vt 0.334591 0.507783
vt 0.334591 0.724146
vt 0.301164 0.692484
vt 0.795956 0.057874
vt 0.848811 0.136242
vt 0.775928 0.113996
vt 0.112854 0.507783
vt 0.034757 0.490004
vt 0.164266 0.362747
vt 0.053108 0.381303
vt 0.34227 0.828812
vt 0.301164 0.749366
vt 0.313866 0.724146
vt 0.34227 0.730065
vt 0.131199 0.186678
vt 0.040792 0.235562
vt 0.636016 0.461067
vt 0.659491 0.175274
vt 0.668644 0.49236
vt 0.703046 0.324059
vt 0.034757 0.144103
vt 0.60452 0.573203
vt 0.696034 0.52931
vt 0.400953 0.574177
vt 0.505056 0.572459
vt 0.591619 0.572255
vt 0.373531 0.191816
vt 0.293851 0.182192
vt 0.215497 0.169168
vt 0.344024 0.30612
vt 0.26921 0.345365
vt 0.221011 0.36847
vt 0.426268 0.537855
vt 0.498659 0.49236
vt 0.584337 0.496257
vt 0.665721 0.500355
vt 0.301541 0.463395
vt 0.276511 0.47473
vt 0.194577 0.480095
vt 0.703046 0.091749
vt 0.716874 0.742655
vt 0.899143 0.79876
vt 0.894794 0.245968
vt 0.853482 0.057874
vt 0.952755 0.057874
vt 0.368019 0.692484
usemtl 
f 1/1/1 2/2/1 3/3/1
f 4/4/2 5/5/2 6/6/2
f 5/5/2 7/7/2 6/6/2
f 8/8/3 9/9/3 10/10/3
f 8/8/3 10/10/3 11/11/3
f 12/12/4 13/13/4 5/14/4
f 13/13/4 7/15/4 5/14/4
f 14/16/5 13/13/5 15/17/5
f 13/13/5 16/18/5 15/17/5
f 6/19/6 7/15/6 13/13/6
f 6/19/6 13/13/6 14/16/6
f 17/20/7 16/18/7 12/12/7
f 16/18/7 13/13/7 12/12/7
f 18/21/8 19/22/8 9/9/8
f 18/21/8 9/9/8 8/8/8
f 20/23/9 21/24/9 3/3/9
f 15/25/10 22/26/10 14/27/10
f 22/26/10 23/28/10 14/27/10
f 22/26/11 24/29/11 25/30/11
f 22/26/11 25/30/11 23/28/11
f 24/29/12 18/21/12 25/30/12
f 18/21/12 8/8/12 25/30/12
f 21/31/13 26/32/13 3/33/13
f 26/32/13 27/34/13 3/33/13
f 26/32/14 28/35/14 27/34/14
f 28/35/14 29/36/14 27/34/14
f 28/35/15 17/37/15 29/36/15
f 17/37/15 12/38/15 29/36/15
f 3/39/16 27/40/16 1/41/16
f 27/40/16 30/42/16 1/41/16
f 27/40/17 29/43/17 30/42/17
f 29/43/17 31/44/17 30/42/17
f 29/43/18 12/45/18 5/5/18
f 29/43/18 5/5/18 31/44/18
f 14/27/19 23/28/19 6/46/19
f 23/28/19 4/47/19 6/46/19
f 23/28/20 25/30/20 32/48/20
f 23/28/20 32/48/20 4/47/20
f 25/30/21 8/8/21 32/48/21
f 8/8/21 11/11/21 32/48/21
f 10/49/22 1/41/22 30/42/22
f 10/49/22 30/42/22 11/50/22
f 11/50/23 30/42/23 31/44/23
f 11/50/23 31/44/23 32/51/23
f 32/51/24 31/44/24 4/4/24
f 31/44/24 5/5/24 4/4/24
f 20/23/25 3/3/25 2/2/25
f 33/52/25 20/23/25 2/2/25
f 33/53/26 19/54/26 20/55/26
f 9/56/27 19/54/27 33/53/27
f 2/2/1 1/1/1 33/52/1
f 9/57/28 33/58/28 1/59/28
f 1/60/29 10/61/29 9/62/29
f 34/63/30 35/64/30 36/65/30
f 37/66/31 38/67/31 39/68/31
f 38/67/31 40/69/31 39/68/31
f 41/70/32 42/71/32 43/72/32
f 41/70/32 43/72/32 44/73/32
f 45/74/33 39/68/33 46/75/33
f 39/68/33 40/69/33 46/75/33
f 47/76/34 15/17/34 46/77/34
f 15/17/34 16/18/34 46/77/34
f 38/78/35 47/76/35 46/77/35
f 38/78/35 46/77/35 40/79/35
f 17/37/36 45/74/36 16/80/36
f 45/74/36 46/75/36 16/80/36
f 18/21/37 41/81/37 44/82/37
f 18/21/37 44/82/37 19/22/37
f 20/23/38 35/64/38 21/24/38
f 15/25/39 47/83/39 22/26/39
f 47/83/39 48/84/39 22/26/39
f 22/26/40 48/84/40 49/85/40
f 22/26/40 49/85/40 24/29/40
f 24/29/41 49/85/41 18/21/41
f 49/85/41 41/81/41 18/21/41
f 21/31/42 35/86/42 26/32/42
f 35/86/42 50/87/42 26/32/42
f 26/32/43 50/87/43 28/35/43
f 50/87/43 51/88/43 28/35/43
f 28/35/44 51/88/44 17/37/44
f 51/88/44 45/74/44 17/37/44
f 35/86/45 34/89/45 50/87/45
f 34/89/45 52/90/45 50/87/45
f 50/87/46 52/90/46 51/88/46
f 52/90/46 53/91/46 51/88/46
f 51/88/47 53/91/47 39/68/47
f 51/88/47 39/68/47 45/74/47
f 47/83/48 38/92/48 48/84/48
f 38/92/48 37/93/48 48/84/48
f 48/84/49 37/93/49 54/94/49
f 48/84/49 54/94/49 49/85/49
f 49/85/50 54/94/50 41/81/50
f 54/94/50 42/95/50 41/81/50
f 43/96/51 42/97/51 52/90/51
f 43/96/51 52/90/51 34/89/51
f 42/97/52 54/98/52 53/91/52
f 42/97/52 53/91/52 52/90/52
f 54/98/53 37/66/53 53/91/53
f 37/66/53 39/68/53 53/91/53
f 20/23/54 36/65/54 35/64/54
f 55/99/54 36/65/54 20/23/54
f 55/100/55 20/55/55 19/54/55
f 44/101/56 55/100/56 19/54/56
f 36/65/30 55/99/30 34/63/30
f 44/102/57 34/103/57 55/104/57
f 34/60/58 44/105/58 43/61/58
s off
