<?xml version="1.0" encoding="UTF-8"?>
<svg id="Layer_2" data-name="Layer 2" xmlns="http://www.w3.org/2000/svg" width="493.4" height="127.2" viewBox="0 0 493.4 127.2">
  <defs>
    <style>
      .cls-1 {
        fill: #ffdea9;
      }

      .cls-2 {
        fill: #b6bdcb;
      }

      .cls-3 {
        fill: #ffc176;
      }

      .cls-4 {
        fill: #c6621e;
      }

      .cls-5 {
        fill: #f2b061;
      }
    </style>
  </defs>
  <g id="Top">
    <g>
      <path class="cls-4" d="m161.7.1C196.3.1,400.9,0,435.5.2c8.5,0,17.3.3,25.2,4.4,14.2,7.4,23.6,19,28.5,34.1,7.5,23.2,5.4,45.5-8.5,65.7-7.2,10.5-17.3,18-29.9,21.8-2.6.8-20.6.8-27.2.8-62.8,0-295.6,0-358.4,0-7.4,0-15-.2-22.2-1.7-17.3-3.5-28.7-14.8-35.6-30.2C-4.2,69.1-2.3,43.6,14.5,20.1,22.3,9.2,33.1,2,47.3,1.1c31-2.1,62-.4,93-.9,7.1-.1,14.3,0,21.4,0Zm303.7,102.3c.4-.4.8-.7,1.2-1.1,2-2,3.9-4.2,4.7-7,.4-.5.9-.9,1.2-1.5,10.3-21.1,10.1-42-2-62.1-7.1-11.9-17.7-18-32.4-17.9-71.5.3-313.2.2-384.7,0-13.9,0-23.5,6.7-30.5,17.7-8.4,13.2-10.8,27.8-8.4,43,.8,5,1.3,10.5,4.9,14.8.7,1.7,1.3,3.3,2,5,.3.3.6.7.9,1h-.1c6.6,11.9,16.3,19.3,30.3,19.7,12.1.4,24.1-.7,36.2-.8,34.7-.3,69.4-.2,104.1-.1,19.5,0,209.2-.7,228.7,1.1,3,.3,5.5-.7,8.6-.6,12.8.7,25.7-.3,35.5-11.4h0Z"/>
      <path class="cls-3" d="m21.4,93.5c-.7-1.7-1.3-3.3-2-5,1-1.3,1-2.8.7-4.3-1.5-7.7-1.6-15.6-.6-23.2,2.6-20.5,15.1-38.2,38.8-38,41.3.4,82.6-.9,124,.8,24,1,218.2-1,242.3,1.1,7.9.7,15.8,1.5,23.5,3.6,11.7,3.1,18.6,10.7,22.2,21.9,3.8,12.1,4.2,24.3,1.8,36.7-.5,2.4-1.6,4.7-.7,7.2-.9,2.8-2.7,4.9-4.7,7-.4.4-.8.7-1.2,1.1h0c-1,0-2,0-2.9.4-10.5,4.2-21.3,6.2-32.6,5.5-4.8-.3-9.6-.8-14.4-.8-23.4.2-216.9,0-240.3.4-39.8.7-79.7.4-119.6.3-9.9,0-18.9-2.9-26.8-9.2-2.1-1.7-3.7-4.3-6.9-4.6,0,0,.1,0,.1,0-.3-.3-.6-.7-.9-1Z"/>
      <path class="cls-5" d="m471.4,94.4c-1-2.5.2-4.9.7-7.2,2.4-12.4,2-24.6-1.8-36.7-3.6-11.2-10.4-18.8-22.2-21.9-7.7-2.1-15.6-2.9-23.5-3.6-24-2.1-218.2,0-242.3-1.1-41.3-1.7-82.6-.4-124-.8-23.7-.2-36.3,17.4-38.8,38-.9,7.6-.9,15.5.6,23.2.3,1.5.3,3-.7,4.3-3.6-4.3-4.1-9.7-4.9-14.8-2.4-15.2,0-29.8,8.4-43,7-11.1,16.6-17.8,30.5-17.7,71.5.1,313.2.2,384.7,0,14.7,0,25.2,6,32.4,17.9,12.1,20.2,12.2,41.1,2,62.1-.3.6-.8,1-1.2,1.5Z"/>
      <path class="cls-1" d="m22.2,94.5c3.1.3,4.7,2.9,6.9,4.6,7.9,6.3,16.9,9.2,26.8,9.2,39.9,0,79.7.4,119.6-.3,23.4-.4,216.9-.2,240.3-.4,4.8,0,9.6.5,14.4.8,11.3.6,22.1-1.4,32.6-5.5.9-.3,1.9-.3,2.9-.4-5.5,12.8-32.4,11.5-44.1,12-21.5.3-356.9.2-369-.2-14-.4-23.7-7.8-30.3-19.8Z"/>
      <path class="cls-2" d="m21.4,93.5c.3.3.6.7.9,1-.3-.3-.6-.7-.9-1Z"/>
      <path class="cls-2" d="m465.4,102.4c.4-.4.8-.7,1.2-1.1-.4.4-.8.7-1.2,1.1Z"/>
    </g>
  </g>
</svg>