<?xml version="1.0" encoding="UTF-8"?>
<svg id="Layer_2" data-name="Layer 2" xmlns="http://www.w3.org/2000/svg" width="520.6" height="213.3" viewBox="0 0 520.6 213.3">
  <defs>
    <style>
      .cls-1 {
        fill: #5e697e;
      }

      .cls-2 {
        fill: #a5abb7;
      }

      .cls-3 {
        fill: #524e66;
      }
    </style>
  </defs>
  <g id="Top">
    <g>
      <path d="m259.8,213.3c-76.6,0-153.1,0-229.7,0-17,0-28.5-11.8-29.1-28.6C-.8,136.8.4,88.9.4,41c0-9.1-.7-18.9,4.8-27.4C10.1,6,16.7,1.4,25.9,1.1,91.3-.9,156.8.5,222.3.2c32.1-.1,64.2,0,96.3,0,35,0,69.9.2,104.9-.2,24.2-.3,48.4,1.3,72.7,1.1,8.3,0,18.1,7.9,21.4,16,2.9,7,2.6,14.5,2.7,21.6.4,45.6.4,91.3,0,136.9,0,7.3,0,14.7-3.3,21.8-5.2,11.1-14.2,15.7-25.6,15.7-77.2.2-154.5,0-231.7,0h0Zm247.6-51.8c0-38.9,0-77.7,0-116.6,0-5.3.2-10.6.2-15.9,0-7.9-7.9-17.5-16.8-16-3.8.6-7.8,1.2-11.7,1.2-144.2,0-288.5,0-432.7-.1-3.9,0-7.8,0-11.8-.7-10.9-2.1-17.8,2.4-20.9,12.8-1.1,3.9-.4,7.9-.4,11.8-.7,29.3,1.5,58.5.6,87.8-.5,16.9-1.3,33.8-.5,50.7,0,2.6-.3,5.3-.2,7.9.5,9.4,6.4,16,14.1,16,154.3,0,308.6,0,462.9,0,.5,0,1,0,1.5,0,9.9,1.7,15.4-7.3,15.8-14.5.4-8.1,0-16.2-.1-24.4Z"/>
      <path class="cls-1" d="m13.3,176.4c-.8-16.9,0-33.8.5-50.7.8-29.3-1.4-58.6-.6-87.8.6-.8,1.4-1.5,1.8-2.3,3.9-8.6,10.7-10.7,19.9-10.8,149.9-.3,299.8,1.2,449.7-.7,7.5,0,13.5,2.8,17.1,9.8,1.9,3.7,3.8,7.3,5.8,10.9,0,38.9,0,77.7,0,116.6-1.5.3-1.5,1.3-1.8,2.5-.9,3.7-1.8,7.4-3,11-3.8,11-11.6,16.4-23.2,16.4-145.1,0-290.2,0-435.2,0-11.5,0-21.1-3.6-28.2-12.8-.7-.9-1.1-2.1-2.5-2.2Z"/>
      <path class="cls-2" d="m507.4,44.8c-1.9-3.6-3.9-7.3-5.8-10.9-3.5-7-9.5-9.9-17.1-9.8-149.9,1.9-299.8.4-449.7.7-9.1,0-15.9,2.2-19.9,10.8-.4.9-1.2,1.6-1.8,2.3,0-3.9-.8-7.9.4-11.8,3.1-10.4,9.9-14.9,20.9-12.8,4,.7,7.9.7,11.8.7,144.2,0,288.5,0,432.7.1,4,0,7.9-.6,11.7-1.2,8.9-1.4,16.8,8.2,16.8,16,0,5.3-.1,10.6-.2,15.9Z"/>
      <path class="cls-3" d="m13.3,176.4c1.4.1,1.8,1.3,2.5,2.2,7.1,9.3,16.7,12.8,28.2,12.8,145.1,0,290.2,0,435.2,0,11.6,0,19.4-5.4,23.2-16.4,1.2-3.6,2.1-7.3,3-11,.3-1.2.4-2.3,1.8-2.5,0,8.1.5,16.3.1,24.4-.4,7.2-5.9,16.2-15.8,14.5-.5,0-1,0-1.5,0-154.3,0-308.6,0-462.9,0-7.7,0-13.6-6.6-14.1-16-.1-2.6.1-5.3.2-7.9Z"/>
    </g>
  </g>
</svg>