<?xml version="1.0" encoding="UTF-8"?>
<svg id="Layer_2" data-name="Layer 2" xmlns="http://www.w3.org/2000/svg" width="323.3" height="127.2" viewBox="0 0 323.3 127.2">
  <defs>
    <style>
      .cls-1 {
        fill: #fff;
      }

      .cls-2 {
        fill: #b6bdcb;
      }

      .cls-3 {
        fill: #26282e;
      }

      .cls-4 {
        fill: #dbdcdd;
      }
    </style>
  </defs>
  <g id="Top">
    <g>
      <path class="cls-3" d="m161.7.1c34.5,0,69.1-.2,103.6.1,8.5,0,17.3.3,25.2,4.4,14.2,7.4,23.6,19,28.5,34.1,7.5,23.2,5.4,45.5-8.5,65.7-7.2,10.5-17.3,18-29.9,21.8-2.6.8-20.6.8-27.2.8-62.8,0-125.5,0-188.3,0-7.4,0-15-.2-22.2-1.7-17.3-3.5-28.7-14.8-35.6-30.2C-4.2,69.1-2.3,43.6,14.5,20.1,22.3,9.2,33.1,2,47.3,1.1c31-2.1,62-.4,93-.9,7.1-.1,14.3,0,21.4,0Zm133.6,102.3c.4-.4.8-.7,1.2-1.1,2-2,3.9-4.2,4.7-7,.4-.5.9-.9,1.2-1.5,10.3-21.1,10.1-42-2-62.1-7.1-11.9-17.7-18-32.4-17.9-71.5.3-143.1.2-214.6,0-13.9,0-23.5,6.7-30.5,17.7-8.4,13.2-10.8,27.8-8.4,43,.8,5,1.3,10.5,4.9,14.8.7,1.7,1.3,3.3,2,5,.3.3.6.7.9,1h-.1c6.6,11.9,16.3,19.3,30.3,19.7,12.1.4,24.1-.7,36.2-.8,34.7-.3,69.4-.2,104.1-.1,19.5,0,39.1-.7,58.5,1.1,3,.3,5.5-.7,8.6-.6,12.8.7,25.7-.3,35.5-11.4h0Z"/>
      <g>
        <path class="cls-1" d="m22.3,94.5s0,0,0,0c0,0,0,0,0,0,0,0,.1,0,.1,0Z"/>
        <path class="cls-1" d="m295.4,102.4s0,0,0,0c0,0,0,0,0,0h0Z"/>
        <path class="cls-1" d="m300.4,30.8c-7.1-11.9-17.7-18-32.4-17.9-71.5.3-143.1.2-214.6,0-13.9,0-23.5,6.7-30.5,17.7-8.4,13.2-10.8,27.8-8.4,43,.8,5,1.3,10.5,4.9,14.8.7,1.7,1.3,3.3,2,5,.3.3.6.7.9,1,3.1.3,4.7,2.9,6.8,4.6,7.9,6.3,16.9,9.2,26.8,9.2,39.9,0,79.7.4,119.6-.3,23.4-.4,46.8-.2,70.2-.4,4.8,0,9.6.5,14.4.8,11.3.6,22.1-1.4,32.6-5.5.9-.3,1.9-.3,2.8-.4.4-.3.8-.7,1.2-1,2-2,3.9-4.2,4.7-7,.4-.5.9-.9,1.2-1.5,10.3-21.1,10.1-42-2-62.1Z"/>
      </g>
      <path class="cls-4" d="m22.2,94.5c3.1.3,4.7,2.9,6.9,4.6,7.9,6.3,16.9,9.2,26.8,9.2,39.9,0,79.7.4,119.6-.3,23.4-.4,46.8-.2,70.2-.4,4.8,0,9.6.5,14.4.8,11.3.6,22.1-1.4,32.6-5.5.9-.3,1.9-.3,2.9-.4-5.5,12.8-32.4,11.5-44.1,12-21.5.3-186.8.2-198.8-.2-14-.4-23.7-7.8-30.3-19.8Z"/>
      <path class="cls-2" d="m21.4,93.5c.3.3.6.7.9,1-.3-.3-.6-.7-.9-1Z"/>
      <path class="cls-2" d="m295.3,102.4c.4-.4.8-.7,1.2-1.1-.4.4-.8.7-1.2,1.1Z"/>
    </g>
  </g>
</svg>