<?xml version="1.0" encoding="UTF-8"?>
<svg id="Layer_2" data-name="Layer 2" xmlns="http://www.w3.org/2000/svg" width="1160.9" height="372.6" viewBox="0 0 1160.9 372.6">
  <defs>
    <style>
      .cls-1 {
        fill: #5e697e;
      }

      .cls-2 {
        fill: #333840;
        opacity: .5;
      }

      .cls-3 {
        fill: #a5abb7;
      }

      .cls-4 {
        fill: #524e66;
      }
    </style>
  </defs>
  <g id="Top">
    <g>
      <path class="cls-2" d="m578.9,372.6c-158.1,0-316.3,0-474.4,0-26,0-51.9,0-77.9-.2-5.6,0-9.9-3.3-14.1-6.7C2.2,357.4-.3,346.4.1,334c1.3-39.7.2-79.4.5-119.1,0-10.9-.8-21.9-.5-32.8,1.1-44.2.4-88.4.5-132.5,0-8.9-1.3-17.9,1.2-26.7C5.4,9.6,16.9.5,30.7.4,61.3.2,92,0,122.6,0,263.6,0,404.6,0,545.6,0c174.3,0,348.6,0,522.9.2,20.3,0,40.6.8,60.9,0,13-.5,29.2,13.1,30.6,26.1,1.6,14.9.6,29.8.7,44.7.2,86.6.2,173.2.3,259.7,0,9.1.5,18.3-4.8,26.2-6.5,9.8-15.2,15.7-27.8,15.7-159.3-.1-318.6,0-477.9,0-23.8,0-47.6,0-71.4,0h0Zm.9-6.9c182,0,363.9,0,545.9,0,16.7,0,28-12.5,28-27.9,0-99.1,0-198.1,0-297.2,0-4.4,0-8.8-.9-13.2-1.8-9.7-12.9-19.6-22.5-19.7-29.7-.4-59.5-.6-89.2-.7-102-.7-204.1-.3-306.1-.3-105.7,0-211.4.1-317.1.1-89.5,0-179.1-.1-268.6,0-17.6,0-35.1,0-52.7.7-21.6.9-43.3.2-64.9.3-1.6,0-3.2,0-4.8.5C12.6,12.3,7.2,25.3,7.1,37.6c-.1,9.8.8,19.7.9,29.5.1,14.1,0,28.3-.1,42.4,0,23.5.3,47-.9,70.5-.3,6.8,1.2,13.4,1.1,20.2-.2,18.6-.2,37.2-.2,55.8,0,10.5.1,21.1.2,31.6,0,7.8.4,15.6-.1,23.4-.6,10.6-1.7,21.1.2,31.6,2.2,11.6,8.2,19,20.2,22,8.3,2.1,16.8.9,25.1.9,175.5.1,350.9,0,526.4,0Z"/>
      <path d="m579.8,365.7c-175.5,0-350.9,0-526.4,0-8.4,0-16.8,1.2-25.1-.9-11.9-3-18-10.4-20.2-22-2-10.4-.9-21-.2-31.6.5-7.8.1-15.6.1-23.4,0-10.5-.2-21.1-.2-31.6,0-18.6,0-37.2.2-55.8,0-6.8-1.4-13.4-1.1-20.2,1.2-23.5.8-47,.9-70.5,0-14.1.2-28.3.1-42.4,0-9.9-1-19.7-.9-29.5.1-12.3,5.6-25.3,19.8-29.3,1.7-.5,3.2-.5,4.8-.5,21.6,0,43.3.7,64.9-.3,17.6-.8,35.1-.7,52.7-.7,89.5,0,179.1,0,268.6,0,105.7,0,211.4,0,317.1-.1,102,0,204.1-.4,306.1.3,29.7.2,59.4.4,89.2.7,9.7.1,20.7,10.1,22.5,19.7.8,4.4.9,8.8.9,13.2,0,99.1,0,198.1,0,297.2,0,15.4-11.3,27.9-28,27.9-182,0-363.9,0-545.9,0ZM25,24.7c-.4.3-.7.6-1.1.9-1.7,2.2-3,4.5-3,7.5.2,29.7.2,59.4.3,89.1,0,1.8-.3,3.6-.3,5.4,0,22.3,0,44.7,0,67,0,18.4.2,36.8.3,55.3-.1,30.1-.3,60.1-.3,90.2,0,5.7,5.7,11.7,10.9,11.5,14.6-.5,29.2,1.2,43.8.9,5.5-.1,11-.7,16.4-.7,218.5,0,437.1-.3,655.6,0,113.7.1,227.3-1.1,341,.6,12.1.2,24.2-1.3,36.3-.6,11,.7,15.6-7.2,15.6-16,0-14.2-1.4-28.3-1-42.6.3-11.8,0-23.6-.2-35.4,0-33.8.2-67.6.2-101.4,0-10.8-.1-21.5-.2-32.3,0-3.7.2-7.3.2-11,0-20.1,0-40.2,0-60.3,0-5.8.5-11.7,1-17.5.6-6.7-6.8-15.1-13.6-14.9-13.8.4-27.6.1-41.4.1-338.9,0-677.8,0-1016.7,0-11.6,0-23.3.2-34.9.4-3.9-1-7,.1-9.1,3.7h0Z"/>
      <path class="cls-1" d="m21.3,250c-.1-18.4-.3-36.8-.3-55.3,0-22.3,0-44.7,0-67,0-1.8.2-3.6.3-5.4,1.6-.1,1.6-1.3,1.7-2.5,1-12.2,1.8-24.4,3-36.6,1.4-14.4,4.7-28.4,8.7-42.2.6-1.9,1.5-3.5,3.4-3.9,5.6-1.3,11-3.5,17-3.6,164.2-.5,328.5.7,492.7-.6,93.5-.7,187.1-.1,280.6-.1,97.9,0,195.7,0,293.6-.1,7.5,0,9.5,1.5,10.9,8.6,2,9.9,1.9,20.1,2.8,30.1,1.1,12.5,1.1,25.2,2.4,37.7.5,5.1-.3,10.3,1.5,15.2,0,10.8.2,21.5.2,32.3,0,33.8-.1,67.6-.2,101.4-.8.2-1.6.6-1.7,1.6-.7,6.7-1.6,13.4-2,20.2-.8,14.5-2.7,28.8-6.9,42.9-2.8,9.5-14.3,17.4-23.9,17.4-321.4-.3-642.8-.1-964.1-.4-25.3,0-50.6,1.7-75.9-1.2-8.1-.9-16.3-1.4-24.4-2.7-7.3-1.2-8.3-2.4-9.7-9.7-4.6-23.7-6.1-47.8-7-71.9,0-1.9.5-4.2-2.7-4.2Z"/>
      <path class="cls-3" d="m1139.5,124.3c-1.7-4.9-.9-10.2-1.5-15.2-1.3-12.5-1.3-25.1-2.4-37.7-.9-10-.8-20.2-2.8-30.1-1.4-7.1-3.5-8.6-10.9-8.6-97.9,0-195.7.1-293.6.1-93.5,0-187.1-.6-280.6.1-164.2,1.2-328.5.1-492.7.6-5.9,0-11.3,2.3-17,3.6-1.9.4-2.8,2-3.4,3.9-4.1,13.8-7.3,27.8-8.7,42.2-1.2,12.2-2,24.4-3,36.6,0,1.2,0,2.4-1.7,2.5,0-29.7-.2-59.4-.3-89.1,0-3,1.3-5.3,3-7.5.4-.3.7-.6,1.1-.9,0,0,0,0,0,0,2.9-4.8,6.4-4.1,9.1-3.7,11.6-.1,23.3-.4,34.9-.4,338.9,0,677.8,0,1016.7,0,13.8,0,27.6.3,41.4-.1,6.8-.2,14.2,8.2,13.6,14.9-.5,5.8-.9,11.7-1,17.5-.1,20.1,0,40.2,0,60.3,0,3.7-.1,7.3-.2,11Z"/>
      <path class="cls-4" d="m21.3,250c3.2,0,2.6,2.3,2.7,4.2.9,24.1,2.4,48.1,7,71.9,1.4,7.3,2.4,8.5,9.7,9.7,8.1,1.3,16.3,1.7,24.4,2.7,25.3,2.9,50.6,1.2,75.9,1.2,321.4.2,642.8.1,964.1.4,9.6,0,21.1-7.9,23.9-17.4,4.2-14.1,6.1-28.4,6.9-42.9.4-6.7,1.3-13.5,2-20.2.1-1,.8-1.4,1.7-1.6,0,11.8.4,23.6.2,35.4-.3,14.2,1,28.4,1,42.6,0,8.9-4.6,16.7-15.6,16-12.1-.8-24.2.8-36.3.6-113.7-1.8-227.3-.5-341-.6-218.5-.3-437.1,0-655.6,0-5.5,0-11,.6-16.4.7-14.6.3-29.2-1.4-43.8-.9-5.3.2-10.9-5.8-10.9-11.5,0-30.1.2-60.1.3-90.2Z"/>
      <path class="cls-1" d="m25,24.7c-.4.3-.7.6-1.1.9.4-.3.7-.6,1.1-.9Z"/>
    </g>
  </g>
</svg>