<?xml version="1.0" encoding="UTF-8"?>
<svg id="Layer_2" data-name="Layer 2" xmlns="http://www.w3.org/2000/svg" width="1140.6" height="344.1" viewBox="0 0 1140.6 344.1">
  <defs>
    <style>
      .cls-1 {
        fill: #fff;
      }

      .cls-2 {
        fill: #7d89a2;
      }

      .cls-3 {
        fill: #010001;
      }

      .cls-4 {
        fill: #4a515e;
      }

      .cls-5 {
        fill: #505a6d;
      }

      .cls-6 {
        fill: #dbdcdd;
      }
    </style>
  </defs>
  <g id="Top">
    <g>
      <path class="cls-5" d="m1125.1,259.4l-.4-.6s.8-.3.8-.3c0,.3-.2.6-.4.9Z"/>
      <path class="cls-3" d="m.1,163.9c.9-40.7,17.4-74.7,44.6-104.1,14.9-16,32.6-28.1,52.1-37.9,16.4-8.2,33.6-13.7,51.3-17.8C157,2,165.8,0,175,0,430.3,0,685.6.1,940.9,0c18.4,0,36.5,1.3,54.5,5.8,25.5,6.2,49.7,15.1,71.3,30,35.6,24.5,59.4,57.4,69.3,99.7,11.8,34.4-2.6,83.6-6.9,96.7-5.4,16.3-14.3,31.5-25.7,43.8-18.1,19.8-38.8,36.8-63.7,48.3-21.1,9.7-43.1,15.8-65.8,19.8-38.2-.1-76.4-.3-114.6-.3-24.6,0-49.1.2-73.7.3-5.3-.1-10.6-.3-16-.3-134.9,0-269.7,0-404.6,0-3.7,0-7.3.2-11,.3-22.6-.1-45.2-.3-67.7-.3-40.2,0-80.4.2-120.5.3-18.9-1.5-36.8-7.2-54.4-14-23.9-9.2-45.6-22.3-63.5-40.5-20.8-21.1-37.3-45.3-43.8-75.1-1-4.8-3.3-20.7-3.4-22.6.2-.2-.7-10-.9-13.9.8-2.3,0-11.5.1-14.1Zm30.1-60.1c-4.1,1.1-4,5.1-5.5,8-6.1,14.8-9.8,30.1-11.7,46-2,16.2-.3,32.6,2.1,48.4,2.6,16.7,11.2,31.8,20.7,45.9,4.2,10.3,13.2,17.2,18.7,26.7,1.1,1.9,3.1,3.7,5.1,4.6,4.1,1.8,7,5,10.5,7.5,9.1,6.6,18.3,13.1,27.5,19.5,6.4,4.5,14.1,5.5,21.3,8,12.3,4.3,24.6,8.3,37.7,10.1,13.2,1.8,26.3,3.4,39.6,3.4,244.3,0,488.7,0,733,0,14.3,0,28.5,0,42.8-1.5,24.8-2.5,48.2-9.8,70.1-21.2,21.3-11.2,40.1-26.2,54.6-45.8,11.2-15,20.3-31.1,24.1-49.7.4-1.7.7-3.4,1.1-5.1.9-.7,1.2-1.7,1-2.8,4.4-17.2,5-34.4,3-52-2.2-19.4-8.3-37.4-17.7-54.2-5.6-10.1-11.7-19.9-20.4-27.7-1.7-2-3.2-4.3-5.1-6.1-29.4-28.6-122.5-53-127-52.3-3,.5-769-1.1-772,0-4.5.2-9.1.4-13.6.6q-2.9,0-8.2,1.6c-44.9,6.7-83.9,25.1-114.1,59.7-7.3,8.4-14.8,17-17.9,28.3h.2Z"/>
      <path class="cls-4" d="m.5,189.9c.3.5.5,1.9.3,2.1-.1-.7-.2-1.4-.3-2.1Z"/>
      <path class="cls-6" d="m35.9,252.1c3.1-.6,5.1,1.2,6.9,3.2,19.4,22.1,44.7,35.2,71.2,46.4,10.1,4.3,20.5,7.7,31,10.7,6.8,1.9,13.9,2.2,20.6,2.7,11.2.8,22.4,2.7,33.7,2.7,248.1-.1,496.1.1,744.2-.3,28.9,0,57.1-5.8,84.1-17.5,21.4-9.2,40.7-21.3,57.1-37.4,11.6-11.3,22.2-23.7,29-38.9,1.6-3.7,2.2-8.6,7.3-10.1-3.8,18.6-12.9,34.7-24.1,49.7-14.5,19.5-33.3,34.6-54.6,45.8-21.8,11.4-45.2,18.7-70.1,21.2-14.3,1.5-28.5,1.5-42.8,1.5-244.3,0-488.7,0-733,0-13.3,0-26.4-1.6-39.6-3.4-13.1-1.8-25.4-5.8-37.7-10.1-7.1-2.5-14.9-3.6-21.3-8-9.2-6.4-18.4-12.9-27.5-19.5-3.5-2.5-6.5-5.7-10.5-7.5-2-.9-4-2.7-5.1-4.6-5.5-9.4-14.4-16.4-18.7-26.7Z"/>
      <path class="cls-1" d="m1126,153.8c-2.2-19.4-8.3-37.4-17.7-54.2-5.6-10.1-11.7-19.9-20.4-27.7-1.7-2-3.2-4.3-5.1-6.1-29.4-28.6-82.2-48.3-113.3-51.7-4.5-.2-9.1-.4-13.6-.6-3.7.1-7.3-.6-11-.6-250,0-500,0-750.1,0-3.7,0-7.3.8-11,.6-4.5.2-9.1.4-13.6.6-3.2,0-8.2,1.6-8.2,1.6-44.9,6.7-83.9,25.1-114.1,59.7-7.3,8.4-14.8,17-17.9,28.3,0,0,.2.1.2.1-.2,3.8-1.1,7.1-5.5,8-6.1,14.8-9.8,30.1-11.7,46-2,16.2-.3,32.6,2.1,48.4,2.6,16.7,11.2,31.8,20.7,45.9,3.1-.6,5.1,1.2,6.9,3.2,19.4,22.1,44.7,35.2,71.2,46.4,10.1,4.3,20.5,7.7,31,10.7,6.8,1.9,13.9,2.2,20.6,2.7,11.2.8,22.4,2.7,33.7,2.7,248.1-.1,496.1.1,744.2-.3,28.9,0,57.1-5.8,84.1-17.5,21.4-9.2,40.7-21.3,57.1-37.4,11.6-11.3,22.2-23.7,29-38.9,1.6-3.7,2.2-8.6,7.3-10.1.4-1.7.7-3.4,1.1-5.1-.3-1.2,0-2.1,1-2.8,4.4-17.2,5-34.4,3-52Z"/>
      <path class="cls-2" d="m30.3,103.8c-.2,3.8-1.1,7.1-5.5,8,1.5-2.9,1.4-6.9,5.5-8Z"/>
      <path class="cls-4" d="m1122,208.7c-.3-1.2,0-2.1,1-2.8.2,1.1-.2,2.1-1,2.8Z"/>
    </g>
  </g>
</svg>