<?xml version="1.0" encoding="UTF-8"?>
<svg id="Layer_2" data-name="Layer 2" xmlns="http://www.w3.org/2000/svg" width="1157.1" height="129.2" viewBox="0 0 1157.1 129.2">
  <defs>
    <style>
      .cls-1 {
        fill: #002f47;
      }

      .cls-2 {
        fill: #0061a3;
      }

      .cls-3 {
        fill: #00507c;
      }

      .cls-4 {
        fill: #004570;
      }

      .cls-5 {
        fill: #b6bdcb;
      }
    </style>
  </defs>
  <g id="Top">
    <g>
      <path class="cls-1" d="m543.3.1c202.9,0,371.1,0,539.2.2,10.7,0,21.8-.8,32.1,2.5,19.8,6.3,32.3,20.2,38.5,39.6,8.7,26.8,2.9,50.6-16.5,70.7-9.6,10-22,14.7-36.3,14.9-121.8,2-243.7.6-365.5.7-29.3,0-58.6-1.3-87.8-.6-32.1.8-64.2.7-96.3.8-22.5,0-44.9-1.3-67.4-1-133.5,2-267,.7-400.5.7-11.9,0-24,.4-35.8-1.7-16.5-3-28.9-12.6-36.8-26.9C-5,72.8-3.3,45.9,15.8,21,25.3,8.6,38.4,1.3,54.7,1.1c174.4-2.4,348.9,0,488.5-1ZM22.5,94.3c.4.4.7.7,1.1,1.1h-.1c2.1,4,4.7,7.9,8.5,10.5,9.5,6.5,20.3,10.1,31.7,10.1,135.4.3,270.9.2,406.3.2,61.8,0,123.6,0,185.4.1,10.9,0,21.9-.4,32.8.6,7.2.7,14.5-.8,21.8-.8,123.2,0,246.4,0,369.6,0,8.7,0,17.4,0,26.1-1.9,15.1-3.4,26.1-11.3,31.9-25.8h0c1.1-.3,4.4-9.6,4.7-13.8.4-1.6,1.1-3.1,1.2-4.8.9-11.5-1.5-22.3-6.9-32.4-4.6-8.5-10.7-15.5-20.3-19.4-11.7-4.7-23.8-5.4-36.1-5.4-126,.1-252,1-378-.5-25.9-.3-51.9.1-77.8.5-36.7.5-73.5.6-110.3-.5-33.4-1-66.9.5-100.3.6-116.3.2-232.7,0-349,.1-10.8,0-21.2,2.6-30.1,8.6-11.8,7.9-17.3,20-19.9,33.5-1,5.4-2.4,10.9.2,16.4-.2,8,3.3,15,6.8,21.8.3.3.6.7.9,1h0Z"/>
      <path class="cls-3" d="m1142.2,74.6c0,7.2-4.6,13.8-4.6,13.8-3-.5-4.3,2.1-6.2,3.6-8.3,6.8-16.6,13.1-28.2,13.4-7.8.2-15.5,1.3-23.3,2-16.7,1.5-33.4,3.6-50.2,3.6-14.5,0-28.9-.6-43.4-.6-30.1,0-60.3.3-90.4.4-66.6.2-133.2,0-199.8-.3-208.1-.6-416.2-.2-624.4-.2-6.6,0-12.9-1.1-19.1-2.9-9.3-2.7-18.4-5.8-26.5-11.2-.8-.5-1.9-.6-2.8-.9,0,0,.1,0,.1,0-.4-.4-.7-.7-1.1-1.1,0,0,0,0,0,0-.3-.3-.6-.7-.9-1-3.6-6.9-7-13.8-6.8-21.8,1.9-.7,1.8-2.6,2.3-4.1,2-6.8,4-13.6,6.9-20.2,1.5-3.3,2.3-7.5,5.4-9.3,11.1-6.7,21.9-14.1,36-14.1,319.9.1,639.8.1,959.8,0,24.4,0,48.9-.5,73,4.1,7.4,1.4,15.3,1.9,21.2,6.7,11.6,9.4,20.6,20.7,21.2,36.6,0,1.4.2,2.6,1.6,3.4Z"/>
      <path class="cls-4" d="m1142.2,74.6c-1.4-.7-1.6-2-1.6-3.4-.5-15.9-9.6-27.2-21.2-36.6-5.9-4.8-13.9-5.2-21.2-6.7-24.2-4.6-48.6-4.1-73-4.1-319.9,0-639.8,0-959.8,0-14.1,0-24.9,7.3-36,14.1-3.1,1.9-3.9,6-5.4,9.3-2.9,6.5-4.8,13.4-6.9,20.2-.5,1.5-.3,3.4-2.3,4.1-2.6-5.4-1.2-11-.2-16.4,2.6-13.5,8.1-25.6,19.9-33.5,8.9-6,19.3-8.6,30.1-8.6,116.3,0,232.7,0,349-.1,33.4,0,66.9-1.6,100.3-.6,36.8,1.1,73.5,1,110.3.5,25.9-.4,51.9-.8,77.8-.5,126,1.5,252,.6,378,.5,12.3,0,24.4.6,36.1,5.4,9.6,3.9,15.6,10.8,20.3,19.4,5.5,10.1,7.9,20.9,6.9,32.4-.1,1.6-.8,3.2-1.2,4.8Z"/>
      <path class="cls-2" d="m23.5,95.4c.9.3,2,.4,2.8.9,8.1,5.5,17.2,8.6,26.5,11.2,6.3,1.8,12.5,2.9,19.1,2.9,208.1,0,416.2-.4,624.4.2,66.6.2,133.2.5,199.8.3,30.1-.1,60.2-.4,90.4-.4,14.5,0,28.9.6,43.4.6,16.8,0,33.5-2,50.2-3.6,7.8-.7,15.5-1.8,23.3-2,11.5-.3,19.9-6.6,28.2-13.4,1.8-1.5,3.1-4.1,6.2-3.6-5.8,14.5-16.8,22.4-31.9,25.8-8.7,2-17.3,1.9-26.1,1.9-123.2,0-246.4,0-369.6,0-7.3,0-14.6,1.4-21.8.8-11-1-21.9-.6-32.8-.6-61.8-.2-123.6-.1-185.4-.1-135.4,0-270.9,0-406.3-.2-11.3,0-22.2-3.6-31.7-10.1-3.8-2.6-6.4-6.5-8.5-10.5Z"/>
      <path class="cls-5" d="m21.7,93.4c.3.3.6.7.9,1-.3-.3-.6-.7-.9-1Z"/>
      <path class="cls-5" d="m22.5,94.3c.4.4.7.7,1.1,1.1-.4-.4-.7-.7-1.1-1.1Z"/>
    </g>
  </g>
</svg>