<?xml version="1.0" encoding="UTF-8"?>
<svg id="Layer_2" data-name="Layer 2" xmlns="http://www.w3.org/2000/svg" width="1157.1" height="129.2" viewBox="0 0 1157.1 129.2">
  <defs>
    <style>
      .cls-1 {
        fill: #fff;
      }

      .cls-2 {
        fill: #b6bdcb;
      }

      .cls-3 {
        fill: #26282e;
      }

      .cls-4 {
        fill: #dbdcdd;
      }
    </style>
  </defs>
  <g id="Top">
    <g>
      <path class="cls-3" d="m543.3.1c202.9,0,371.1,0,539.2.2,10.7,0,21.8-.8,32.1,2.5,19.8,6.3,32.3,20.2,38.5,39.6,8.7,26.8,2.9,50.6-16.5,70.7-9.6,10-22,14.7-36.3,14.9-121.8,2-243.7.6-365.5.7-29.3,0-58.6-1.3-87.8-.6-32.1.8-64.2.7-96.3.8-22.5,0-44.9-1.3-67.4-1-133.5,2-267,.7-400.5.7-11.9,0-24,.4-35.8-1.7-16.5-3-28.9-12.6-36.8-26.9C-5,72.8-3.3,45.9,15.8,21,25.3,8.6,38.4,1.3,54.7,1.1c174.4-2.4,348.9,0,488.5-1ZM22.5,94.3c.4.4.7.7,1.1,1.1h-.1c2.1,4,4.7,7.9,8.5,10.5,9.5,6.5,20.3,10.1,31.7,10.1,135.4.3,270.9.2,406.3.2,61.8,0,123.6,0,185.4.1,10.9,0,21.9-.4,32.8.6,7.2.7,14.5-.8,21.8-.8,123.2,0,246.4,0,369.6,0,8.7,0,17.4,0,26.1-1.9,15.1-3.4,26.1-11.3,31.9-25.8h0c1.1-.3,4.4-9.6,4.7-13.8.4-1.6,1.1-3.1,1.2-4.8.9-11.5-1.5-22.3-6.9-32.4-4.6-8.5-10.7-15.5-20.3-19.4-11.7-4.7-23.8-5.4-36.1-5.4-126,.1-252,1-378-.5-25.9-.3-51.9.1-77.8.5-36.7.5-73.5.6-110.3-.5-33.4-1-66.9.5-100.3.6-116.3.2-232.7,0-349,.1-10.8,0-21.2,2.6-30.1,8.6-11.8,7.9-17.3,20-19.9,33.5-1,5.4-2.4,10.9.2,16.4-.2,8,3.3,15,6.8,21.8.3.3.6.7.9,1h0Z"/>
      <g>
        <path class="cls-1" d="m22.6,94.4s0,0,0,0c0,0,0,0,0,0,0,0,0,0,0,0Z"/>
        <path class="cls-1" d="m23.6,95.4s0,0,0,0c0,0,0,0-.1,0,0,0,.1,0,.1,0Z"/>
        <path class="cls-1" d="m1136.4,37.5c-4.6-8.5-10.7-15.5-20.3-19.4-11.7-4.7-23.8-5.4-36.1-5.4-126,.1-252,1-378-.5-25.9-.3-51.9.1-77.8.5-36.7.5-73.5.6-110.3-.5-33.4-1-66.9.5-100.3.6-116.3.2-232.7,0-349,.1-10.8,0-21.2,2.6-30.1,8.6-11.8,7.9-17.3,20-19.9,33.5-1,5.4-2.4,10.9.2,16.4-.2,8,3.3,15,6.8,21.8.3.3.6.7.9,1,.3.3.7.7,1,1,.9.3,1.9.3,2.7.9,8.1,5.5,17.2,8.6,26.5,11.2,6.3,1.8,12.5,2.9,19.1,2.9,208.1,0,416.2-.4,624.4.2,66.6.2,133.2.5,199.8.3,30.1-.1,60.2-.4,90.4-.4,14.5,0,28.9.6,43.4.6,16.8,0,33.5-2,50.2-3.6,7.8-.7,15.5-1.8,23.3-2,11.5-.3,19.9-6.6,28.2-13.4,1.8-1.5,3.1-4.1,6.2-3.6,0,0,4.6-6.7,4.6-13.8.4-1.6,1.1-3.1,1.2-4.8.9-11.5-1.5-22.3-6.9-32.4Z"/>
      </g>
      <path class="cls-4" d="m23.5,95.4c.9.3,2,.4,2.8.9,8.1,5.5,17.2,8.6,26.5,11.2,6.3,1.8,12.5,2.9,19.1,2.9,208.1,0,416.2-.4,624.4.2,66.6.2,133.2.5,199.8.3,30.1-.1,60.2-.4,90.4-.4,14.5,0,28.9.6,43.4.6,16.8,0,33.5-2,50.2-3.6,7.8-.7,15.5-1.8,23.3-2,11.5-.3,19.9-6.6,28.2-13.4,1.8-1.5,3.1-4.1,6.2-3.6-5.8,14.5-16.8,22.4-31.9,25.8-8.7,2-17.3,1.9-26.1,1.9-123.2,0-246.4,0-369.6,0-7.3,0-14.6,1.4-21.8.8-11-1-21.9-.6-32.8-.6-61.8-.2-123.6-.1-185.4-.1-135.4,0-270.9,0-406.3-.2-11.3,0-22.2-3.6-31.7-10.1-3.8-2.6-6.4-6.5-8.5-10.5Z"/>
      <path class="cls-2" d="m21.7,93.4c.3.3.6.7.9,1-.3-.3-.6-.7-.9-1Z"/>
      <path class="cls-2" d="m22.5,94.3c.4.4.7.7,1.1,1.1-.4-.4-.7-.7-1.1-1.1Z"/>
    </g>
  </g>
</svg>