<?xml version="1.0" encoding="UTF-8"?>
<svg id="Layer_2" data-name="Layer 2" xmlns="http://www.w3.org/2000/svg" width="519.5" height="234.5" viewBox="0 0 519.5 234.5">
  <defs>
    <style>
      .cls-1 {
        fill: #5e697e;
      }

      .cls-2 {
        fill: #a5abb7;
      }

      .cls-3 {
        fill: #524e66;
      }
    </style>
  </defs>
  <g id="Top">
    <g>
      <path d="m259.6.2c51.8,0,103.5-.5,155.3.2,25,.3,47.4,8.6,65.7,26.8,19.7,19.6,31.1,43.1,36.4,70.1,1.3,6.7,2.6,13.5,2.6,20.2,0,7.7-1.8,15.4-3.2,23-2.1,11.4-5.9,22.3-11,32.6-5,10.1-10.9,19.7-18.7,28.1-9.5,10.2-19.9,18.9-32.7,24.6-9.4,4.1-19.2,7.1-29.3,7.4-72.6,2.6-145.3.6-218,1.1-34.5.2-68.9.4-103.4-.1-13.9-.2-27.5-3.2-40.2-9.4-18.4-9-32-23-42.8-40.2-9.8-15.7-15.3-33.1-18.9-51-3.1-15.6-.9-31,3.1-46,6.4-23.8,17.6-44.9,35.8-62,13.4-12.5,29.3-20.1,47.4-23.3C97.3.4,106.7.1,116.3.1c47.8,0,95.6,0,143.3,0Zm239.3,81.6h0c-5.9-17.7-15.3-33.2-29-46.2-13.6-12.9-30.1-19.4-48.1-21.2-13.5-1.4-27.2-.2-40.9-.1-.4,0-.8,0-1.1,0-2.3,0-4.7,0-7,0-90.9,0-181.7-.1-272.6-.2-13.3,0-24.9,5.3-36.4,11-10.4,5.1-18.4,13.1-25.2,22.3-5.2,7-10.5,14-13.2,22.5-.3.6-.8,1.1-1,1.7-5.9,13-9.3,26.7-10.9,40.8-.8,6.8-.3,13.7,2.1,20.3.6,8.9,3.5,17.3,6.8,25.5,8.3,20.6,20,38.6,39.6,50.3,10.9,6.5,22.8,11.8,35.7,11.8,106.2.2,212.3,0,318.5.2,16.1,0,30.4-5.4,43.7-13.6,15.2-9.4,25.3-23.3,32.9-39.1,3.3-6.8,7.1-13.4,7.8-21.1,7.7-20.7,6.7-41.3-.9-61.8-.6-.7-.2-1.7-.8-2.9Z"/>
      <path class="cls-1" d="m499.7,84.7c7.6,20.5,8.6,41.1.9,61.8-2.3.2-2.7,2.2-3.6,3.7-11.6,20.6-27.2,37-49.2,46.7-4.7,2-9.3,4.6-14.4,5.4-15.4,2.3-31,2.2-46.5,3-6.8.4-13.6.6-20.3.7-23.7.4-47.3,3.1-71,3.2-45.2.2-90.5,0-135.7.1-17.1,0-34.2,0-51-3.1-9.1-1.7-18.5-1.9-27-6.2-24.1-12.3-42.8-30.2-57.3-52.9-3.1-4.8-4.3-10.7-8.9-14.6-2.4-6.6-2.9-13.5-2.1-20.3,1.6-14.1,5.1-27.8,10.9-40.8.3-.6.7-1.1,1-1.7,1.4,0,1.9-1.2,2.6-2,7.9-9,16.2-17.5,27.5-22.4,2-.9,3.7-3,6.6-1.9-1.6,3.7-5.1,5.6-6.9,9.1-2,4-.5,7.2,1.6,10.2,1.8,2.6,4.1,3.9,8,3.3,13.3-2,25.1-7.5,35.8-15.3,3.8-2.8,8.1-5.9,9.3-10.8,1.1-4.6,1.1-9.5-2.6-14.1,4,0,7.1,0,10.3,0,26.6.4,53.2,0,79.8.9,29.3,1,58.5,0,87.8,1,31.9,1.1,63.9-.1,95.8,1.1,12.8.5,25.6.1,38.4.2,2,0,3.9.1,5.9.7,28.7,7.7,52.1,22.7,68.8,47.6,1.2,1.7,1.6,4.6,4.7,4.5,0,0,0,0,0,0,.3,1.1.4,2.1.8,2.9Zm-450.3-11.9c0-4.2-1.5-6-4.9-5.9-3.9.1-9.2,5.3-9.2,9,0,3,1.5,5.3,4.4,5.6,5.5.5,9.7-3.5,9.6-8.7Z"/>
      <path class="cls-2" d="m498.9,81.8c-3.1.1-3.6-2.7-4.7-4.5-16.7-24.9-40.1-40-68.8-47.6-2-.5-3.9-.7-5.9-.7-12.8,0-25.6.3-38.4-.2-31.9-1.2-63.9,0-95.8-1.1-29.3-1-58.6,0-87.8-1-26.6-.9-53.2-.5-79.8-.9-3.1,0-6.3,0-10.3,0,3.7,4.7,3.7,9.6,2.6,14.1-1.2,4.9-5.4,8-9.3,10.8-10.7,7.7-22.4,13.3-35.8,15.3-3.8.6-6.1-.7-8-3.3-2.1-3-3.5-6.2-1.6-10.2,1.7-3.5,5.3-5.4,6.9-9.1-2.9-1-4.6,1.1-6.6,1.9-11.3,4.8-19.6,13.3-27.5,22.4-.7.8-1.2,2.1-2.6,2,2.7-8.5,8-15.5,13.2-22.5,6.8-9.1,14.8-17.2,25.2-22.3,11.5-5.6,23.2-11,36.4-11,90.9,0,181.7.1,272.6.2,2.3,0,4.7,0,7,0,.4.6.8.5,1.1,0,13.6,0,27.4-1.2,40.9.1,18,1.8,34.5,8.3,48.1,21.2,13.7,13,23.1,28.5,29,46.2Z"/>
      <path class="cls-3" d="m15.6,132.6c4.6,3.8,5.8,9.8,8.9,14.6,14.5,22.7,33.3,40.7,57.3,52.9,8.4,4.3,17.9,4.5,27,6.2,16.9,3.1,33.9,3.1,51,3.1,45.2-.1,90.5,0,135.7-.1,23.7,0,47.3-2.7,71-3.2,6.7-.1,13.6-.4,20.3-.7,15.5-.8,31.1-.8,46.5-3,5.1-.7,9.7-3.3,14.4-5.4,22-9.6,37.6-26.1,49.2-46.7.9-1.5,1.3-3.5,3.6-3.7-.7,7.7-4.5,14.3-7.8,21.1-7.6,15.8-17.8,29.8-32.9,39.1-13.3,8.2-27.6,13.7-43.7,13.6-106.2-.1-212.3,0-318.5-.2-12.9,0-24.8-5.3-35.7-11.8-19.6-11.6-31.3-29.7-39.6-50.3-3.3-8.2-6.1-16.6-6.8-25.5Z"/>
      <path class="cls-1" d="m381,14.3c-.3.5-.7.7-1.1,0,.4,0,.8,0,1.1,0Z"/>
      <path class="cls-2" d="m49.4,72.8c0,5.2-4.1,9.2-9.6,8.7-2.9-.3-4.4-2.5-4.4-5.6,0-3.7,5.3-8.9,9.2-9,3.4-.1,4.8,1.7,4.9,5.9Z"/>
    </g>
  </g>
</svg>