<?xml version="1.0" encoding="UTF-8"?>
<svg id="Layer_2" data-name="Layer 2" xmlns="http://www.w3.org/2000/svg" width="161.8" height="161.9" viewBox="0 0 161.8 161.9">
  <defs>
    <style>
      .cls-1 {
        fill: #fff;
      }

      .cls-2 {
        fill: #dbdcdd;
      }

      .cls-3 {
        fill: #b6bccb;
      }
    </style>
  </defs>
  <g id="Top">
    <g>
      <path d="m80.6,161.9C36.2,162-.4,126,0,80.3.4,35.9,36-.3,81.6,0c44.7.3,81.7,36.3,80.2,84.4-1.3,41.7-36.6,78-81.2,77.5ZM17.7,59.4c-1,.4-.9,1.2-.8,2.1-1.3,1.5-1.1,3.3-1.1,5-.2.2-.7.4-.7.6-3.2,17.3-.7,33.5,8.5,48.7,15.7,25.9,44,37,72.7,30.7,14.1-3.1,25.6-10.5,35.1-21.2,9.4-10.6,14.9-22.9,16.2-37,.4-8,1.1-16.1-1.8-23.8-.8-7.1-4.2-13-7.9-18.9-12.4-20-31.1-29.7-53.9-31.6-17.5-1.4-33.2,4.5-46.5,15.7-9.4,7.9-16.6,17.7-19.9,29.9h.1Z"/>
      <path class="cls-2" d="m15.8,66.5c2.1,3.5.8,7.4,1.2,11.2,3.6,29.9,25.9,49.1,53.3,54.3,29.1,5.6,58.6-9.1,72.1-35.5,1.5-2.9,2.1-6.4,5.2-8.2-1.3,14.1-6.8,26.4-16.2,37-9.5,10.7-21.1,18.1-35.1,21.2-28.6,6.3-57-4.8-72.7-30.7-9.2-15.1-11.8-31.4-8.5-48.7,0-.2.5-.4.7-.6Z"/>
      <path class="cls-1" d="m145.8,64.5c-.8-7.1-4.2-13-7.9-18.9-12.4-20-31.1-29.7-53.9-31.6-17.5-1.4-33.2,4.5-46.5,15.7-9.4,7.9-16.6,17.7-19.9,29.9,0,0,0,0,.1,0,.1.8-.1,1.5-.8,2-1.3,1.5-1.1,3.3-1.1,5,2.1,3.5.8,7.4,1.2,11.2,3.6,29.9,25.9,49.1,53.3,54.3,29.1,5.6,58.6-9.1,72.1-35.5,1.5-2.9,2.1-6.4,5.2-8.2.4-8,1.1-16.1-1.8-23.8Z"/>
      <path class="cls-3" d="m17.7,59.4c.2.9,0,1.6-.8,2.1-.2-.9-.3-1.7.8-2.1Z"/>
    </g>
  </g>
</svg>