<?xml version="1.0" encoding="UTF-8"?>
<svg id="Layer_2" data-name="Layer 2" xmlns="http://www.w3.org/2000/svg" width="1158" height="357.1" viewBox="0 0 1158 357.1">
  <defs>
    <style>
      .cls-1 {
        fill: #7d89a2;
      }

      .cls-2 {
        fill: #010001;
      }

      .cls-3 {
        fill: #e86e00;
      }

      .cls-4 {
        fill: #c94300;
      }

      .cls-5 {
        fill: #4a515e;
      }

      .cls-6 {
        fill: #333840;
        opacity: .5;
      }

      .cls-7 {
        fill: #505a6d;
      }

      .cls-8 {
        fill: #f9923e;
      }
    </style>
  </defs>
  <g id="Top">
    <g>
      <path class="cls-6" d="m1153.2,140.2c-10-42.6-34.2-77.3-71.9-103.3-19.9-13.7-43.3-23.6-73.5-31-16.5-4-34.3-5.9-55.9-5.9h-.2c-241.3.1-486.7,0-724,0h-41.9c-9.6,0-18.5,1.9-28.3,4.2-20.7,4.9-37.5,10.7-52.7,18.4-22.1,11.1-39.7,23.9-54,39.3C20.5,94.6,5.4,130.1,4.5,170.3h0c0,.6,0,1.3,0,2.2l-4.5-7.5,5.3,34.1c.2,3.8,2.6,19.2,3.5,23.4,6,27.7,20.9,53.3,45.5,78.3,17.5,17.8,39.6,31.9,65.8,42,16,6.1,35.2,12.7,56.2,14.4h.3s.3,0,.3,0c11.8,0,23.7,0,35.5,0,27.9,0,56.7-.2,85-.2,15.5,0,31.3,0,46.6.2,7,0,14.1,0,21.1.1h.1s.1,0,.1,0c1.2,0,2.4,0,3.5-.1,2.5,0,4.9-.2,7.2-.2,134.9,0,269.7,0,404.6,0,3.5,0,7.2,0,10.7.2,1.7,0,3.4,0,5.1.1h.2c7.6,0,15.3,0,22.9-.1,16.6,0,33.9-.2,50.8-.2,26.8,0,54,0,80.4.2,11.4,0,22.8,0,34.2.1h.6s.6,0,.6,0c25.3-4.5,47.4-11.1,67.4-20.3,23.4-10.7,44.9-27,65.8-49.8,4.5-5,8.7-10.3,12.4-16,0,0,7.9-11.8,7-12.1,3-5.8,5.5-11.9,7.6-18.1,3.4-10.2,19.7-63,7-100.6Z"/>
      <g>
        <path class="cls-7" d="m1136,265.9l-.4-.6s.8-.3.8-.3c0,.3-.2.6-.4.9Z"/>
        <path class="cls-2" d="m11,170.4c.9-40.7,17.4-74.7,44.6-104.1,14.9-16,32.6-28.1,52.1-37.9,16.4-8.2,33.6-13.7,51.3-17.8,8.8-2.1,17.7-4.1,26.8-4.1,255.3,0,510.6,0,765.9,0,18.4,0,36.5,1.3,54.5,5.8,25.5,6.2,49.7,15.1,71.3,30,35.6,24.5,59.4,57.4,69.3,99.7,11.8,34.4-2.6,83.6-6.9,96.7-5.4,16.3-14.3,31.5-25.7,43.8-18.1,19.8-38.8,36.8-63.7,48.3-21.1,9.7-43.1,15.8-65.8,19.8-38.2-.1-76.4-.3-114.6-.3-24.6,0-49.1.2-73.7.3-5.3-.1-10.6-.3-16-.3-134.9,0-269.7,0-404.6,0-3.7,0-7.3.2-11,.3-22.6-.1-45.2-.3-67.7-.3-40.2,0-80.4.2-120.5.3-18.9-1.5-36.8-7.2-54.4-14-23.9-9.2-45.6-22.3-63.5-40.5-20.8-21.1-37.3-45.3-43.8-75.1-1-4.8-3.3-20.7-3.4-22.6.2-.2-.7-10-.9-13.9.8-2.3,0-11.5.1-14.1Zm30.1-60.1c-4.1,1.1-4,5.1-5.5,8-6.1,14.8-9.8,30.1-11.7,46-2,16.2-.3,32.6,2.1,48.4,2.6,16.7,11.2,31.8,20.7,45.9,4.2,10.3,13.2,17.2,18.7,26.7,1.1,1.9,3.1,3.7,5.1,4.6,4.1,1.8,7,5,10.5,7.5,9.1,6.6,18.3,13.1,27.5,19.5,6.4,4.5,14.1,5.5,21.3,8,12.3,4.3,24.6,8.3,37.7,10.1,13.2,1.8,26.3,3.4,39.6,3.4,244.3,0,488.7,0,733,0,14.3,0,28.5,0,42.8-1.5,24.8-2.5,48.2-9.8,70.1-21.2,21.3-11.2,40.1-26.2,54.6-45.8,11.2-15,20.3-31.1,24.1-49.7.4-1.7.7-3.4,1.1-5.1.9-.7,1.2-1.7,1-2.8,4.4-17.2,5-34.4,3-52-2.2-19.4-8.3-37.4-17.7-54.2-5.6-10.1-11.7-19.9-20.4-27.7-1.7-2-3.2-4.3-5.1-6.1-29.4-28.6-122.5-53-127-52.3-3,.5-769-1.1-772,0-4.5.2-9.1.4-13.6.6q-2.9,0-8.2,1.6c-44.9,6.7-83.9,25.1-114.1,59.7-7.3,8.4-14.8,17-17.9,28.3h.2Z"/>
        <path class="cls-5" d="m11.4,196.4c.3.5.5,1.9.3,2.1-.1-.7-.2-1.4-.3-2.1Z"/>
        <path class="cls-3" d="m1132.9,215.2c-.4,1.7-.7,3.4-1.1,5.1-5,1.4-5.6,6.4-7.3,10.1-6.7,15.2-17.4,27.7-29,38.9-16.5,16-35.8,28.1-57.1,37.4-27,11.7-55.2,17.4-84.1,17.5-248.1.4-496.1.2-744.2.3-11.3,0-22.5-1.9-33.7-2.7-6.7-.5-13.8-.7-20.6-2.7-10.6-3-20.9-6.4-31-10.7-26.5-11.3-51.7-24.3-71.2-46.4-1.8-2-3.8-3.8-6.9-3.2-9.6-14.1-18.1-29.2-20.7-45.9-2.5-15.9-4.1-32.2-2.1-48.4,1.9-15.8,5.6-31.2,11.7-46,4.4-.9,5.3-4.2,5.5-8,0,0-.2-.1-.2-.1,3.2.7,4.6-1.5,6.4-3.7,4.7-5.8,9.6-11.4,14.9-17.6.6,1.9.8,2.5.9,3.1,1.4,8.7,4.6,10.3,11.6,5.5,1.4-.9,2.6-2.1,3.7-3.3,6.8-7.3,5.4-11.4-4.7-14.1-.8-.2-1.2-.6-.8-1.9,2.2-3.3,5.5-6.1,8.8-8.8,2.1-1.7,4.2-2.9,6.5.6,4.1,6.4,10.1,5.4,16,2.9,9.2-4,17.6-9.4,25.2-15.9,4.3-3.6,9.8-7,11.1-12.5,1.2-5,4-6.6,7.9-7.5,19.7-4.4,39.6-8.5,59.9-8.5,252.6-.1,505.2,0,757.7-.3,12.1,0,23.7,1.4,35.4,4.2,31.8,7.5,60.9,20.6,86.9,40.5,3,2.3,5.9,5.5,10.4,5.3,8.7,7.8,14.9,17.7,20.4,27.7,9.3,16.9,15.4,34.8,17.7,54.2,2,17.7,1.4,34.9-3,52-.9.7-1.3,1.7-1,2.8Z"/>
        <path class="cls-4" d="m46.8,258.6c3.1-.6,5.1,1.2,6.9,3.2,19.4,22.1,44.7,35.2,71.2,46.4,10.1,4.3,20.5,7.7,31,10.7,6.8,1.9,13.9,2.2,20.6,2.7,11.2.8,22.4,2.7,33.7,2.7,248.1-.1,496.1.1,744.2-.3,28.9,0,57.1-5.8,84.1-17.5,21.4-9.2,40.7-21.3,57.1-37.4,11.6-11.3,22.2-23.7,29-38.9,1.6-3.7,2.2-8.6,7.3-10.1-3.8,18.6-12.9,34.7-24.1,49.7-14.5,19.5-33.3,34.6-54.6,45.8-21.8,11.4-45.2,18.7-70.1,21.2-14.3,1.5-28.5,1.5-42.8,1.5-244.3,0-488.7,0-733,0-13.3,0-26.4-1.6-39.6-3.4-13.1-1.8-25.4-5.8-37.7-10.1-7.1-2.5-14.9-3.6-21.3-8-9.2-6.4-18.4-12.9-27.5-19.5-3.5-2.5-6.5-5.7-10.5-7.5-2-.9-4-2.7-5.1-4.6-5.5-9.4-14.4-16.4-18.7-26.7Z"/>
        <path class="cls-8" d="m1098.8,78.3c-4.5.3-7.4-2.9-10.4-5.3-26-19.9-55-33.1-86.9-40.5-11.7-2.7-23.3-4.2-35.4-4.2-252.6.2-505.2.1-757.7.3-20.3,0-40.1,4.1-59.9,8.5-3.9.9-6.7,2.5-7.9,7.5-1.3,5.5-6.8,8.9-11.1,12.5-7.6,6.4-16,11.9-25.2,15.9-5.9,2.6-11.8,3.5-16-2.9-2.3-3.5-4.4-2.3-6.5-.6-3.3,2.7-6.6,5.5-8.8,8.8-.4,1.2,0,1.6.8,1.9,10.1,2.7,11.5,6.8,4.7,14.1-1.1,1.2-2.4,2.4-3.7,3.3-6.9,4.8-10.2,3.2-11.6-5.5-.1-.6-.4-1.3-.9-3.1-5.3,6.2-10.2,11.8-14.9,17.6-1.7,2.1-3.1,4.4-6.4,3.7,3.1-11.2,10.5-19.9,17.9-28.3,30.2-34.6,69.2-53,114.1-59.7,0,0,5.1-1.7,8.2-1.6,4.5-.2,9.1-.4,13.6-.6,3.7.1,7.3-.6,11-.6,250,0,500,0,750.1,0,3.7,0,7.3.7,11,.6,4.5.2,9.1.4,13.6.6,31.2,3.4,84,23.1,113.3,51.7,1.9,1.8,3.4,4.1,5.1,6.1Z"/>
        <path class="cls-1" d="m41.2,110.3c-.2,3.8-1.1,7.1-5.5,8,1.5-2.9,1.4-6.9,5.5-8Z"/>
        <path class="cls-5" d="m1132.9,215.2c-.3-1.2,0-2.1,1-2.8.2,1.1-.2,2.1-1,2.8Z"/>
      </g>
    </g>
  </g>
</svg>