<?xml version="1.0" encoding="UTF-8"?>
<svg id="Layer_2" data-name="Layer 2" xmlns="http://www.w3.org/2000/svg" width="519.5" height="234.5" viewBox="0 0 519.5 234.5">
  <defs>
    <style>
      .cls-1 {
        fill: #fff;
      }

      .cls-2 {
        fill: #5e697e;
      }

      .cls-3 {
        fill: #dbdcdd;
      }
    </style>
  </defs>
  <g id="Top">
    <g>
      <path d="m259.6.2c51.8,0,103.5-.5,155.3.2,25,.3,47.4,8.6,65.7,26.8,19.7,19.6,31.1,43.1,36.4,70.1,1.3,6.7,2.6,13.5,2.6,20.2,0,7.7-1.8,15.4-3.2,23-2.1,11.4-5.9,22.3-11,32.6-5,10.1-10.9,19.7-18.7,28.1-9.5,10.2-19.9,18.9-32.7,24.6-9.4,4.1-19.2,7.1-29.3,7.4-72.6,2.6-145.3.6-218,1.1-34.5.2-68.9.4-103.4-.1-13.9-.2-27.5-3.2-40.2-9.4-18.4-9-32-23-42.8-40.2-9.8-15.7-15.3-33.1-18.9-51-3.1-15.6-.9-31,3.1-46,6.4-23.8,17.6-44.9,35.8-62,13.4-12.5,29.3-20.1,47.4-23.3C97.3.4,106.7.1,116.3.1c47.8,0,95.6,0,143.3,0Zm239.3,81.6h0c-5.9-17.7-15.3-33.2-29-46.2-13.6-12.9-30.1-19.4-48.1-21.2-13.5-1.4-27.2-.2-40.9-.1-.4,0-.8,0-1.1,0-2.3,0-4.7,0-7,0-90.9,0-181.7-.1-272.6-.2-13.3,0-24.9,5.3-36.4,11-10.4,5.1-18.4,13.1-25.2,22.3-5.2,7-10.5,14-13.2,22.5-.3.6-.8,1.1-1,1.7-5.9,13-9.3,26.7-10.9,40.8-.8,6.8-.3,13.7,2.1,20.3.6,8.9,3.5,17.3,6.8,25.5,8.3,20.6,20,38.6,39.6,50.3,10.9,6.5,22.8,11.8,35.7,11.8,106.2.2,212.3,0,318.5.2,16.1,0,30.4-5.4,43.7-13.6,15.2-9.4,25.3-23.3,32.9-39.1,3.3-6.8,7.1-13.4,7.8-21.1,7.7-20.7,6.7-41.3-.9-61.8-.6-.7-.2-1.7-.8-2.9Z"/>
      <path class="cls-3" d="m15.6,132.6c4.6,3.8,5.8,9.8,8.9,14.6,14.5,22.7,33.3,40.7,57.3,52.9,8.4,4.3,17.9,4.5,27,6.2,16.9,3.1,33.9,3.1,51,3.1,45.2-.1,90.5,0,135.7-.1,23.7,0,47.3-2.7,71-3.2,6.7-.1,13.6-.4,20.3-.7,15.5-.8,31.1-.8,46.5-3,5.1-.7,9.7-3.3,14.4-5.4,22-9.6,37.6-26.1,49.2-46.7.9-1.5,1.3-3.5,3.6-3.7-.7,7.7-4.5,14.3-7.8,21.1-7.6,15.8-17.8,29.8-32.9,39.1-13.3,8.2-27.6,13.7-43.7,13.6-106.2-.1-212.3,0-318.5-.2-12.9,0-24.8-5.3-35.7-11.8-19.6-11.6-31.3-29.7-39.6-50.3-3.3-8.2-6.1-16.6-6.8-25.5Z"/>
      <path class="cls-2" d="m381,14.3c-.3.5-.7.7-1.1,0,.4,0,.8,0,1.1,0Z"/>
      <path class="cls-1" d="m499.7,84.7c-.4-.8-.4-1.8-.8-2.9,0,0,0,0,0,0-5.9-17.8-15.3-33.2-29-46.2-13.6-12.9-30.1-19.4-48.1-21.2-13.5-1.4-27.2-.2-40.9-.1-.3.5-.7.7-1.1,0-2.3,0-4.7,0-7,0-90.9,0-181.7-.1-272.6-.2-13.3,0-24.9,5.3-36.4,11-10.4,5.1-18.4,13.1-25.2,22.3-5.2,7-10.5,14-13.2,22.5-.3.6-.8,1.1-1,1.7-5.9,13-9.3,26.7-10.9,40.8-.8,6.8-.3,13.7,2.1,20.3,4.6,3.8,5.8,9.8,8.9,14.6,14.5,22.7,33.3,40.7,57.3,52.9,8.4,4.3,17.9,4.5,27,6.2,16.9,3.1,33.9,3.1,51,3.1,45.2-.1,90.5,0,135.7-.1,23.7,0,47.3-2.7,71-3.2,6.7-.1,13.6-.4,20.3-.7,15.5-.8,31.1-.8,46.5-3,5.1-.7,9.7-3.3,14.4-5.4,22-9.6,37.6-26.1,49.2-46.7.9-1.5,1.3-3.5,3.6-3.7,7.7-20.7,6.7-41.3-.9-61.8Zm-464.4-8.8h0q0-.8,0,0Z"/>
    </g>
  </g>
</svg>