<?xml version="1.0" encoding="UTF-8"?>
<svg id="Layer_2" data-name="Layer 2" xmlns="http://www.w3.org/2000/svg" width="982.8" height="303.1" viewBox="0 0 982.8 303.1">
  <defs>
    <style>
      .cls-1 {
        letter-spacing: 0em;
      }

      .cls-2 {
        fill: #7d89a2;
      }

      .cls-3 {
        fill: #010001;
      }

      .cls-4 {
        fill: #fff;
      }

      .cls-4, .cls-5 {
        font-family: FredokaOne-Regular, 'Fredoka One';
        font-size: 169.7px;
      }

      .cls-6 {
        fill: #e86e00;
      }

      .cls-7, .cls-5 {
        fill: #c94300;
      }

      .cls-8 {
        fill: #4a515e;
      }

      .cls-9 {
        fill: #333840;
        opacity: .5;
      }

      .cls-10 {
        fill: #505a6d;
      }

      .cls-11 {
        fill: #f9923e;
      }
    </style>
  </defs>
  <g id="Top">
    <g>
      <g>
        <path class="cls-9" d="m978.8,119c-8.5-36.1-29-65.6-61-87.7-16.9-11.6-36.7-20-62.4-26.3-14-3.4-29.1-5-47.4-5h-.2c-204.8.1-413.1,0-614.5,0h-35.5c-8.2,0-15.7,1.6-24,3.6-17.6,4.2-31.8,9.1-44.7,15.6-18.8,9.4-33.7,20.3-45.8,33.3C17.4,80.3,4.6,110.4,3.8,144.5h0c0,.5,0,1.1,0,1.8l-3.9-6.4,4.5,28.9c.2,3.2,2.2,16.3,3,19.9,5.1,23.5,17.7,45.2,38.6,66.5,14.9,15.1,33.6,27.1,55.9,35.6,13.6,5.2,29.9,10.7,47.7,12.2h.2s.2,0,.2,0c10.1,0,20.1,0,30.2,0,23.6,0,48.1-.1,72.1-.2,13.2,0,26.6,0,39.5.2,6,0,11.9,0,17.9,0h0s0,0,0,0c1,0,2,0,3-.1,2.1,0,4.1-.1,6.2-.2,114.5,0,228.9,0,343.4,0,3,0,6.1,0,9.1.2,1.5,0,2.9,0,4.4.1h.1c6.5,0,13,0,19.5-.1,14.1,0,28.7-.2,43.1-.2,22.7,0,45.9,0,68.2.2,9.7,0,19.3,0,29,0h.5s.5,0,.5,0c21.5-3.8,40.2-9.4,57.2-17.2,19.9-9.1,38.1-22.9,55.8-42.3,3.8-4.2,7.4-8.7,10.5-13.6,0,0,6.7-10,6-10.3,2.5-4.9,4.7-10.1,6.4-15.3,2.9-8.7,16.7-53.5,5.9-85.3Z"/>
        <g>
          <path class="cls-10" d="m964.1,225.6l-.3-.5s.7-.3.7-.3c0,.3-.2.5-.4.8Z"/>
          <path class="cls-3" d="m9.3,144.6c.7-34.5,14.8-63.4,37.9-88.3,12.6-13.6,27.7-23.8,44.2-32.1,13.9-7,28.5-11.6,43.5-15.1,7.5-1.8,15-3.4,22.8-3.4,216.7,0,433.4,0,650,0,15.7,0,31,1.1,46.3,4.9,21.6,5.3,42.2,12.8,60.5,25.5,30.2,20.8,50.4,48.7,58.8,84.7,10,29.2-2.2,71-5.9,82.1-4.6,13.8-12.2,26.7-21.8,37.2-15.3,16.8-32.9,31.3-54,41-17.9,8.2-36.6,13.4-55.9,16.8-32.4,0-64.8-.2-97.2-.2-20.9,0-41.7.2-62.6.3-4.5,0-9-.3-13.6-.3-114.5,0-228.9,0-343.4,0-3.1,0-6.2.2-9.3.3-19.2,0-38.3-.3-57.5-.2-34.1,0-68.2.2-102.3.2-16.1-1.3-31.3-6.1-46.2-11.9-20.3-7.8-38.7-18.9-53.9-34.3-17.6-17.9-31.6-38.4-37.1-63.8-.9-4.1-2.8-17.6-2.9-19.2.2-.2-.6-8.5-.7-11.8.7-1.9,0-9.7.1-12Zm25.6-51c-3.4,1-3.4,4.3-4.6,6.8-5.2,12.5-8.4,25.6-10,39-1.7,13.8-.3,27.6,1.8,41.1,2.2,14.2,9.5,27,17.6,39,3.6,8.7,11.2,14.6,15.8,22.6.9,1.6,2.7,3.1,4.4,3.9,3.5,1.5,6,4.2,8.9,6.3,7.7,5.6,15.5,11.1,23.4,16.6,5.4,3.8,12,4.7,18,6.8,10.4,3.7,20.9,7,32,8.6,11.2,1.6,22.3,2.9,33.6,2.9,207.4,0,414.7,0,622.1,0,12.1,0,24.2,0,36.3-1.2,21.1-2.2,40.9-8.3,59.5-18,18.1-9.5,34-22.2,46.3-38.8,9.5-12.7,17.2-26.4,20.4-42.2.3-1.4.6-2.9.9-4.3.7-.6,1-1.4.9-2.4,3.7-14.6,4.2-29.2,2.5-44.2-1.9-16.5-7.1-31.7-15-46-4.7-8.5-9.9-16.9-17.3-23.5-1.4-1.7-2.7-3.6-4.3-5.2-24.9-24.2-103.9-45-107.8-44.4-2.5.4-652.7-.9-655.2,0-3.9.2-7.7.4-11.6.5q-2.4,0-7,1.3c-38.1,5.7-71.2,21.3-96.8,50.7-6.2,7.1-12.5,14.5-15.2,24h.2Z"/>
          <path class="cls-8" d="m9.7,166.7c.2.4.4,1.6.3,1.8,0-.6-.2-1.2-.3-1.8Z"/>
          <path class="cls-6" d="m961.5,182.6c-.3,1.4-.6,2.9-.9,4.3-4.3,1.2-4.8,5.4-6.2,8.5-5.7,12.9-14.8,23.5-24.6,33.1-14,13.6-30.3,23.9-48.5,31.7-22.9,9.9-46.9,14.8-71.4,14.8-210.5.4-421.1.2-631.6.3-9.6,0-19.1-1.6-28.6-2.3-5.7-.4-11.7-.6-17.5-2.3-9-2.6-17.7-5.4-26.3-9.1-22.5-9.6-43.9-20.7-60.4-39.4-1.5-1.7-3.2-3.2-5.8-2.7-8.1-12-15.4-24.8-17.6-39-2.1-13.5-3.5-27.3-1.8-41.1,1.6-13.4,4.7-26.5,10-39,3.7-.8,4.5-3.6,4.6-6.8,0,0-.2,0-.1,0,2.8.6,3.9-1.3,5.4-3.1,4-4.9,8.1-9.7,12.6-14.9.5,1.6.7,2.1.8,2.7,1.2,7.4,3.9,8.8,9.8,4.7,1.2-.8,2.2-1.8,3.1-2.8,5.8-6.2,4.6-9.7-4-12-.7-.2-1-.5-.6-1.6,1.9-2.8,4.7-5.2,7.5-7.5,1.8-1.5,3.6-2.5,5.5.5,3.5,5.4,8.6,4.6,13.6,2.5,7.8-3.4,14.9-8,21.4-13.5,3.6-3.1,8.3-5.9,9.4-10.6,1-4.2,3.4-5.6,6.7-6.3,16.7-3.7,33.6-7.2,50.8-7.2,214.4-.1,428.7,0,643.1-.2,10.2,0,20.1,1.2,30.1,3.5,27,6.3,51.7,17.5,73.7,34.4,2.6,2,5,4.7,8.9,4.5,7.4,6.6,12.6,15,17.3,23.5,7.9,14.3,13.1,29.5,15,46,1.7,15,1.2,29.6-2.5,44.2-.8.6-1.1,1.4-.9,2.4Z"/>
          <path class="cls-7" d="m39.7,219.5c2.6-.5,4.3,1,5.8,2.7,16.5,18.7,37.9,29.8,60.4,39.4,8.6,3.7,17.4,6.5,26.3,9.1,5.8,1.7,11.8,1.9,17.5,2.3,9.5.7,19,2.3,28.6,2.3,210.5,0,421.1,0,631.6-.3,24.5,0,48.5-4.9,71.4-14.8,18.1-7.8,34.5-18.1,48.5-31.7,9.8-9.6,18.9-20.1,24.6-33.1,1.4-3.1,1.9-7.3,6.2-8.5-3.2,15.8-11,29.5-20.4,42.2-12.3,16.6-28.2,29.4-46.3,38.8-18.5,9.7-38.4,15.8-59.5,18-12.1,1.2-24.2,1.2-36.3,1.2-207.4,0-414.7,0-622.1,0-11.3,0-22.4-1.3-33.6-2.9-11.1-1.5-21.6-4.9-32-8.6-6.1-2.1-12.6-3-18-6.8-7.8-5.5-15.7-10.9-23.4-16.6-3-2.1-5.5-4.8-8.9-6.3-1.7-.8-3.4-2.3-4.4-3.9-4.6-8-12.2-13.9-15.8-22.6Z"/>
          <path class="cls-11" d="m932.6,66.5c-3.8.2-6.3-2.5-8.9-4.5-22.1-16.9-46.7-28.1-73.7-34.4-9.9-2.3-19.8-3.5-30.1-3.5-214.4.2-428.7.1-643.1.2-17.2,0-34.1,3.5-50.8,7.2-3.3.7-5.7,2.1-6.7,6.3-1.1,4.6-5.8,7.5-9.4,10.6-6.5,5.5-13.6,10.1-21.4,13.5-5,2.2-10,2.9-13.6-2.5-1.9-2.9-3.7-1.9-5.5-.5-2.8,2.3-5.6,4.7-7.5,7.5-.3,1,0,1.4.6,1.6,8.6,2.3,9.7,5.8,4,12-1,1-2,2-3.1,2.8-5.9,4-8.7,2.7-9.8-4.7,0-.5-.3-1.1-.8-2.7-4.5,5.3-8.6,10-12.6,14.9-1.5,1.8-2.7,3.7-5.4,3.1,2.6-9.5,8.9-16.9,15.2-24,25.7-29.4,58.7-45,96.8-50.7,0,0,4.3-1.4,7-1.3,3.9-.2,7.7-.4,11.6-.5,3.1.1,6.2-.5,9.3-.5,212.2,0,424.4,0,636.6,0,3.1,0,6.2.6,9.3.5,3.9.2,7.7.4,11.6.5,26.5,2.9,71.3,19.6,96.2,43.8,1.6,1.6,2.9,3.4,4.3,5.2Z"/>
          <path class="cls-2" d="m34.9,93.6c-.1,3.2-.9,6-4.6,6.8,1.3-2.5,1.2-5.8,4.6-6.8Z"/>
          <path class="cls-8" d="m961.5,182.6c-.2-1,0-1.8.9-2.4.2,1-.1,1.8-.9,2.4Z"/>
        </g>
      </g>
      <text class="cls-5" transform="translate(236.6 199.8)"><tspan x="0" y="0">Se</tspan><tspan class="cls-1" x="196.2" y="0">l</tspan><tspan x="250" y="0">e</tspan><tspan class="cls-1" x="347.3" y="0">c</tspan><tspan x="433.4" y="0">t</tspan></text>
      <text class="cls-4" transform="translate(236.6 212.6)"><tspan x="0" y="0">Se</tspan><tspan class="cls-1" x="196.2" y="0">l</tspan><tspan x="250" y="0">e</tspan><tspan class="cls-1" x="347.3" y="0">c</tspan><tspan x="433.4" y="0">t</tspan></text>
    </g>
  </g>
</svg>