<?xml version="1.0" encoding="UTF-8"?>
<svg id="Layer_2" data-name="Layer 2" xmlns="http://www.w3.org/2000/svg" width="266.5" height="266.7" viewBox="0 0 266.5 266.7">
  <defs>
    <style>
      .cls-1 {
        fill: #5e697e;
      }

      .cls-2 {
        fill: #26282e;
      }

      .cls-3 {
        fill: #a5abb7;
      }

      .cls-4 {
        fill: #524e66;
      }

      .cls-5 {
        fill: #fff;
        stroke: #fff;
        stroke-miterlimit: 10;
        stroke-width: 6px;
      }
    </style>
  </defs>
  <g id="Middle">
    <g>
      <g>
        <path d="m.2,144.1C.2,99.2,0,65.2.3,31.3c0-7.4,0-15.3,5.7-21.4C10.4,5,15.4,1.4,22.2,1.1,87.7-1.1,153.3.8,218.9,0c9.1-.1,18.1.7,27,1.3,9.4.6,19,10.6,19.5,21,1.7,33.6.8,67.2,1,100.8.1,29.4-.2,58.7.1,88.1.1,11.4-1.1,22.6-1.2,34,0,9.4-11.6,20-20.8,20.3-68.9,2.2-137.9.5-206.8.8-7.4,0-15.1.6-22.1-2.6-9.2-4.1-14-10.9-14.6-21.4-2.1-36.4,0-72.8-.8-98.3ZM233.8,13.3c-3-.6-142.3,0-208.9-.1-.6-.3-9.4,4.4-10.9,9-2.2,6.7-.8,13.6-.9,20.4,0,1-.2,2-.2,3,0,60.5,0,120.9,0,181.4,0,1.3.1,2.6.2,3.9,0,1.8-.2,3.6-.2,5.4,0,12.3,5,17.4,17.2,17.4,21.3,0,42.5,0,63.8,0,48,0,95.9,0,143.9,0,8.2,0,12.9-3.3,15-10.6,1.4-4.7.6-9.4.5-14.2,0-3.1.2-6.3.2-9.4,0-59.3,0-118.5,0-177.8,0-4.9.2-9.9,0-14.8-.2-6.8-4.3-11.6-10.8-12.9-.2-.1-.8-.4-2-.6-2.6,0-4.3,0-6.9,0Z"/>
        <path class="cls-1" d="m13.2,230.8c0-1.3-.2-2.6-.2-3.9,0-60.5,0-120.9,0-181.4,0-1,.1-2,.2-3,2.1-3.3,4.2-6.6,6.3-10,.8-1.3,1.5-2.5,3.2-2.7,5.5-.9,10.9-2.1,16.6-2.1,62.9.1,125.7.4,188.6-.2,12.2-.1,21.2,1.9,25.6,14.2,0,59.3,0,118.5,0,177.8,0,3.1-.1,6.3-.2,9.4-9.1,11.7-22.1,11.9-35.1,11.9-59.8,0-119.7,0-179.5,0-2.1,0-4.2-.2-6.3-.5-7.4-1.3-13.3-5.1-19.2-9.4Z"/>
        <path class="cls-3" d="m253.4,41.7c-4.4-12.3-13.3-14.3-25.6-14.2-62.9.6-125.7.4-188.6.2-5.7,0-11.1,1.2-16.6,2.1-1.7.3-2.4,1.5-3.2,2.7-2.1,3.3-4.2,6.7-6.3,10,0-6.8-1.3-13.7.9-20.4,1.5-4.5,4.5-6.7,9.7-8.8.8-.3,4.1-.2,4.2-.2,66.6-.3,210.2-.2,212.8.1,1,.1,1.6.4,2,.6,6.5,1.3,10.6,6.1,10.8,12.9.1,4.9,0,9.9,0,14.8Z"/>
        <path class="cls-4" d="m13.2,230.8c5.8,4.3,11.8,8.1,19.2,9.4,2.1.4,4.2.5,6.3.5,59.8,0,119.7,0,179.5,0,13.1,0,26-.2,35.1-11.9.2,4.7.9,9.5-.5,14.2-2.2,7.3-6.9,10.6-15,10.6-48,0-95.9,0-143.9,0s-42.5,0-63.8,0c-12.2,0-17.2-5.1-17.2-17.4,0-1.8.1-3.6.2-5.4Z"/>
      </g>
      <g>
        <path class="cls-2" d="m136.8,52.7c20.7,0,41.4,0,62.2,0,31,2.5,24.2,47.9-4.1,46-21.9.5-44-.9-65.7-1.3-17.8,2.2-35.6.4-53.3,1.2-9.5.4-20.3-6.9-22.5-20.2-2.4-11,6.4-26.1,20.1-25.7,21.2,0,42.3,0,63.5,0Zm31.1,28.8c9.9,0,18-.4,26.1.1,6.2.4,7.1-2.4,7.1-7.7,0-6.1-3-5.4-7-4.3-27.5-.8-55.3-1.6-82.9-1.2-11.5.4-23,3-34.4.9-4.8-.4-5.3,1.4-5.4,4.3,0,3-1.9,7.7,3.9,7.9,30.1,0,63,1.9,92.5,0Z"/>
        <path class="cls-2" d="m136.6,111.7c20.7,0,41.4,0,62.2,0,31.1,1.9,24.6,48.5-4.3,46-21.9.5-44-1-65.7-1.3-17.6,2.2-35.2.3-52.7,1.2-9.1.4-20.3-6.4-22.8-20-2.6-10,6.1-26.5,19.9-25.8,21.2,0,42.3,0,63.5,0Zm31.6,28.8c9.7,0,17.6-.4,25.5.1,6.5.5,7.6-2.4,7.5-8,0-6.7-3.9-4.3-7.3-3.9-27.6-1.1-55.3-1.5-82.9-1.3-11.5.4-23,2.9-34.4.8-4.5-.4-5,1.5-5,4-.1,3.2-2.2,8.1,4.1,8.3,30.1,0,63,1.9,92.5,0Z"/>
        <path class="cls-2" d="m137.5,171.9c20.5,0,41,0,61.5,0,31,2.6,24.2,47.9-4.1,46-19.8-.5-39.5.5-59.2-1.5-19.9,2-39.9,1.1-59.9,1.4-9.5.2-20.4-7-22.5-20.3-2.4-11.1,6.5-26.1,20.2-25.6,21.4,0,42.7,0,64.1,0Zm30.3,28.8c10.1,0,18.5-.4,26.7.1,6.9.5,6.5-3.5,6.6-8.2,0-5.9-3.2-4.6-6.7-3.8-27.1-.9-54.4-1.6-81.6-1.2-12.2,0-24.3,3.1-36.4.8-4.8-.5-4.8,2-4.9,4.2-.1,3-2.1,7.9,3.6,8,30.1,0,62.9,1.9,92.6,0Z"/>
        <path class="cls-5" d="m167.9,81.5c-29.6,1.9-62.4,0-92.5,0-5.8-.1-4-4.8-3.9-7.9,0-2.9.6-4.7,5.4-4.3,11.5,2.1,22.9-.5,34.4-.9,27.6-.4,55.3.4,82.9,1.2,4-1.1,7-1.8,7,4.3,0,5.3-.9,8.1-7.1,7.7-8-.5-16.1-.1-26.1-.1Z"/>
        <path class="cls-5" d="m168.2,140.5c-29.6,1.9-62.4-.1-92.5,0-6.3-.1-4.2-5.1-4.1-8.3,0-2.5.5-4.4,5-4,11.4,2.1,22.9-.4,34.4-.8,27.6-.3,55.3.2,82.9,1.3,3.4-.4,7.2-2.7,7.3,3.9,0,5.7-.9,8.5-7.5,8-7.8-.6-15.7-.1-25.5-.1Z"/>
        <path class="cls-5" d="m167.8,200.8c-29.6,1.9-62.4,0-92.6,0-5.7-.2-3.8-5-3.6-8,.1-2.2,0-4.7,4.9-4.2,12.1,2.3,24.2-.7,36.4-.8,27.2-.4,54.5.4,81.6,1.2,3.5-.8,6.8-2.1,6.7,3.8,0,4.7.3,8.7-6.6,8.2-8.3-.6-16.6-.1-26.7-.1Z"/>
      </g>
    </g>
  </g>
</svg>