# Apple ModelIO OBJ File: sombreroCalabazo
mtllib sombreroCalabazo.mtl
g calabazoTallo
v 0.698444 3.77111 0.633436
v 0.248309 4.12422 0.340903
v 0.612686 3.66647 0.782857
v 0.170649 4.12422 0.406927
v 0.104914 4.12422 0.569514
v 0.162984 4.16329 0.274879
v 0 4.16329 0.274879
v 0.052457 4.12422 0.58275
v 0 4.12422 0.595985
v 0.167016 3.77111 1.00102
v 0 3.66647 1.01426
v 0.11745 4.16329 0
v 0 4.12422 0
v 0 4.19064 0
v 0.076173 4.22971 0
v 0.832766 3.77111 0.242008
v 0.374532 4.12422 0.137439
v 0.784203 3.66647 0.484015
v 0.325969 4.12422 0.274879
v 0.423094 4.12422 0
v 0.162984 4.16329 0
v 0.473358 3.77111 0.885322
v 0.137781 4.12422 0.488221
v 0.334031 3.66647 0.987787
v 0 4.16329 0.14494
v 0.112003 4.16329 0.090572
v 0 4.19064 0.089184
v 0 4.45714 0.046037
v 0 4.47741 0.091829
v 0.053001 4.22971 0.057619
v 0.042772 4.45714 0.046037
v 0.02976 4.44405 0.016451
v 0.013062 4.6897 -0.113059
v 0.018772 4.69825 -0.101723
v 0.02976 4.47024 0.075622
v 0.881329 3.66647 0
v -0.698444 3.77111 0.633436
v -0.612686 3.66647 0.782857
v -0.248309 4.12422 0.340903
v -0.170649 4.12422 0.406927
v -0.162984 4.16329 0.274879
v -0.104914 4.12422 0.569514
v -0.052457 4.12422 0.58275
v -0.167016 3.77111 1.00102
v -0.11745 4.16329 0
v -0.076173 4.22971 0
v -0.832766 3.77111 0.242008
v -0.784203 3.66647 0.484015
v -0.374532 4.12422 0.137439
v -0.325969 4.12422 0.274879
v -0.162984 4.16329 0
v -0.423094 4.12422 0
v -0.473358 3.77111 0.885322
v -0.334031 3.66647 0.987787
v -0.137781 4.12422 0.488221
v -0.112003 4.16329 0.090572
v -0.053001 4.22971 0.057619
v 0.013062 4.7068 -0.090388
v 0 4.71149 -0.084179
v -0.02976 4.47024 0.075622
v -0.042772 4.45714 0.046037
v -0.881329 3.66647 0
v 0.698444 3.77111 -0.633436
v 0.612686 3.66647 -0.782857
v 0.248309 4.12422 -0.340903
v 0.170649 4.12422 -0.406927
v 0 4.16329 -0.274879
v 0.162984 4.16329 -0.274879
v 0.104914 4.12422 -0.569514
v 0.052457 4.12422 -0.58275
v 0 4.12422 -0.595985
v 0.167016 3.77111 -1.00102
v 0 3.66647 -1.01426
v 0.832766 3.77111 -0.242008
v 0.784203 3.66647 -0.484015
v 0.374532 4.12422 -0.137439
v 0.325969 4.12422 -0.274879
v 0.473358 3.77111 -0.885322
v 0.334031 3.66647 -0.987787
v 0.137781 4.12422 -0.488221
v 0 4.16329 -0.14494
v 0.112003 4.16329 -0.090572
v 0 4.43687 0.000244
v 0 4.19064 -0.089184
v 0.053001 4.22971 -0.057619
v -0.02976 4.44405 0.016451
v 0 4.68501 -0.119268
v -0.013062 4.6897 -0.113059
v -0.698444 3.77111 -0.633436
v -0.248309 4.12422 -0.340903
v -0.612686 3.66647 -0.782857
v -0.170649 4.12422 -0.406927
v -0.104914 4.12422 -0.569514
v -0.162984 4.16329 -0.274879
v -0.052457 4.12422 -0.58275
v -0.167016 3.77111 -1.00102
v -0.832766 3.77111 -0.242008
v -0.374532 4.12422 -0.137439
v -0.784203 3.66647 -0.484015
v -0.325969 4.12422 -0.274879
v -0.473358 3.77111 -0.885322
v -0.137781 4.12422 -0.488221
v -0.334031 3.66647 -0.987787
v -0.112003 4.16329 -0.090572
v -0.053001 4.22971 -0.057619
v -0.013062 4.7068 -0.090388
v 0 4.69825 -0.101723
v -0.018772 4.69825 -0.101723
vn 0.2679 0.771 0.5777
vn 0.0126 0.9918 0.127
vn -0.2408 0.6802 0.6923
vn -0 -0 -1
vn 0.5507 0.7578 0.3499
vn 0.1815 0.9829 0.0321
vn 0.1983 0.7602 0.6187
vn -0 -1 -0
vn -1 -0 -0
vn -0 1 -0
vn 0.1705 0.7317 0.66
vn 0.7711 0.6191 0.1489
vn 0.9256 -0.1259 -0.3569
vn 0.9251 0.0607 0.3747
vn -0.0588 0.1791 -0.9821
vn 0.5032 -0.0117 0.8641
vn 0.6318 0.7585 0.1601
vn 0.6645 0.7464 -0.0358
vn 0.4144 0.7326 0.5399
vn 0.6298 0.7698 0.1038
vn -0.2679 0.771 0.5777
vn -0.0126 0.9918 0.127
vn 0.2408 0.6802 0.6923
vn -0.5507 0.7578 0.3499
vn -0.1815 0.9829 0.0321
vn -0.1983 0.7602 0.6187
vn -0.1705 0.7317 0.66
vn -0.7711 0.6191 0.1489
vn 0.5048 0.5191 0.6897
vn -0.9251 0.0607 0.3747
vn 0.0588 0.1791 -0.9821
vn -0.5032 -0.0117 0.8641
vn -0.6318 0.7585 0.1601
vn -0.6645 0.7464 -0.0358
vn -0.4144 0.7326 0.5399
vn -0.6298 0.7698 0.1038
vn 0.2679 0.771 -0.5777
vn 0.0126 0.9918 -0.127
vn -0.2408 0.6802 -0.6923
vn 0.5507 0.7578 -0.3499
vn 0.1815 0.9829 -0.0321
vn 0.1983 0.7602 -0.6187
vn 0.1705 0.7317 -0.66
vn 0.7711 0.6191 -0.1489
vn -0.5093 -0.3737 -0.7752
vn 0.888 0.2231 -0.402
vn 0.3263 0.3308 -0.8855
vn 0.6318 0.7585 -0.1601
vn 0.6645 0.7464 0.0358
vn 0.4144 0.7326 -0.5399
vn 0.6298 0.7698 -0.1038
vn -0.2679 0.771 -0.5777
vn -0.0126 0.9918 -0.127
vn 0.2408 0.6802 -0.6923
vn -0.5507 0.7578 -0.3499
vn -0.1815 0.9829 -0.0321
vn -0.1983 0.7602 -0.6187
vn -0.1705 0.7317 -0.66
vn -0.7711 0.6191 -0.1489
vn -0.5048 0.5191 0.6897
vn -0.888 0.2231 -0.402
vn -0.3263 0.3308 -0.8855
vn -0.6318 0.7585 -0.1601
vn -0.6645 0.7464 0.0358
vn -0.4144 0.7326 -0.5399
vn -0.6298 0.7698 -0.1038
vn -0 0.7983 -0.6023
vn -0.9223 0.264 0.2823
vn -0.9256 -0.1259 -0.3569
vn 0.9223 0.264 0.2823
vn 0.5093 -0.3737 -0.7752
vt 0.604468 0.273309
vt 0.449811 0.423016
vt 0.573931 0.210835
vt 0.425861 0.4044
vt 0.391107 0.365574
vt 0.427085 0.450318
vt 0.378875 0.460656
vt 0.375501 0.36486
vt 0.359897 0.364283
vt 0.387556 0.174004
vt 0.318683 0.154987
vt 0.842368 0.765758
vt 0.893125 0.761389
vt 0.886753 0.787973
vt 0.852517 0.796302
vt 0.678957 0.400679
vt 0.499859 0.477986
vt 0.663517 0.310124
vt 0.47704 0.439019
vt 0.521795 0.516781
vt 0.443297 0.532212
vt 0.505611 0.19849
vt 0.407347 0.386875
vt 0.45284 0.149915
vt 0.801801 0.064124
vt 0.740476 0.056598
vt 0.85475 0.056598
vt 0.824142 0.761389
vt 0.422172 0.509855
vt 0.386728 0.500346
vt 0.43015 0.534436
vt 0.744322 0.083663
vt 0.780664 0.078498
vt 0.778517 0.189596
vt 0.798351 0.195202
vt 0.391506 0.518825
vt 0.403144 0.527501
vt 0.40919 0.537616
vt 0.394157 0.538219
vt 0.39431 0.538061
vt 0.394159 0.538256
vt 0.394167 0.53826
vt 0.39429 0.538789
vt 0.844461 0.892458
vt 0.861615 0.896412
vt 0.394391 0.539457
vt 0.731344 0.4755
vt 0.099094 0.372826
vt 0.103665 0.303438
vt 0.298963 0.452721
vt 0.314067 0.426414
vt 0.330344 0.469368
vt 0.331506 0.37731
vt 0.345676 0.370733
vt 0.262162 0.198697
vt 0.791233 0.337901
vt 0.781084 0.368445
vt 0.746848 0.360117
vt 0.740476 0.333533
vt 0.078456 0.518928
vt 0.058411 0.42928
vt 0.273493 0.522561
vt 0.279834 0.477853
vt 0.34639 0.551294
vt 0.267902 0.566777
vt 0.162204 0.266113
vt 0.192619 0.201157
vt 0.324555 0.403178
vt 0.809459 0.333533
vt 0.357462 0.522598
vt 0.386655 0.500361
vt 0.359399 0.548367
vt 0.389238 0.519276
vt 0.381757 0.531715
vt 0.379996 0.543368
vt 0.394171 0.538254
vt 0.394156 0.538257
vt 0.394233 0.5388
vt 0.39414 0.538223
vt 0.78914 0.464602
vt 0.771985 0.468556
vt 0.058348 0.608025
vt 0.690673 0.710744
vt 0.686115 0.780156
vt 0.490761 0.630882
vt 0.475659 0.657199
vt 0.410851 0.623042
vt 0.45937 0.61425
vt 0.458227 0.706317
vt 0.444047 0.712898
vt 0.429816 0.719349
vt 0.527583 0.884963
vt 0.471038 0.928688
vt 0.711266 0.564604
vt 0.731344 0.654263
vt 0.516223 0.560999
vt 0.509888 0.605733
vt 0.627569 0.81751
vt 0.597148 0.88249
vt 0.465175 0.680443
vt 0.877092 0.495561
vt 0.824142 0.488036
vt 0.938417 0.488036
vt 0.432201 0.56094
vt 0.403083 0.583491
vt 0.430324 0.534986
vt 0.93457 0.515101
vt 0.937895 0.626366
vt 0.920408 0.615455
vt 0.898228 0.509935
vt 0.400243 0.564905
vt 0.40773 0.551414
vt 0.409655 0.539462
vt 0.394133 0.538139
vt 0.393939 0.538135
vt 0.394154 0.53825
vt 0.394153 0.538258
vt 0.185171 0.810286
vt 0.33988 0.660594
vt 0.215705 0.872788
vt 0.363832 0.679219
vt 0.398584 0.718062
vt 0.362621 0.633302
vt 0.414201 0.718775
vt 0.402137 0.909665
vt 0.110709 0.682864
vt 0.289823 0.605581
vt 0.126123 0.773442
vt 0.312645 0.644574
vt 0.284042 0.885156
vt 0.382345 0.696754
vt 0.336828 0.933751
vt 0.367551 0.573671
vt 0.403044 0.5835
vt 0.359447 0.548942
vt 0.398628 0.565227
vt 0.386586 0.55558
vt 0.380275 0.545249
vt 0.394141 0.53826
vt 0.394147 0.538263
usemtl 
f 1/1/1 2/2/1 3/3/1
f 2/2/1 4/4/1 3/3/1
f 5/5/2 6/6/2 7/7/2
f 8/8/2 5/5/2 7/7/2
f 9/9/2 8/8/2 7/7/2
f 10/10/3 8/8/3 11/11/3
f 8/8/3 9/9/3 11/11/3
f 12/12/4 13/13/4 14/14/4
f 12/12/4 14/14/4 15/15/4
f 16/16/5 17/17/5 18/18/5
f 17/17/5 19/19/5 18/18/5
f 20/20/6 21/21/6 6/6/6
f 20/20/6 6/6/6 19/19/6
f 20/20/6 19/19/6 17/17/6
f 22/22/7 23/23/7 5/5/7
f 22/22/7 5/5/7 24/24/7
f 2/2/8 23/23/8 4/4/8
f 25/25/9 13/26/9 7/27/9
f 13/13/4 12/12/4 21/28/4
f 26/29/10 25/30/10 6/6/10
f 25/30/10 7/7/10 6/6/10
f 12/31/10 26/29/10 6/6/10
f 12/31/10 6/6/10 21/21/10
f 14/32/9 27/33/9 28/34/9
f 27/33/9 29/35/9 28/34/9
f 25/30/11 26/29/11 27/36/11
f 26/29/11 30/37/11 27/36/11
f 13/26/9 25/25/9 27/33/9
f 13/26/9 27/33/9 14/32/9
f 26/29/12 12/31/12 15/38/12
f 26/29/12 15/38/12 30/37/12
f 31/39/13 32/40/13 33/41/13
f 31/39/13 33/41/13 34/42/13
f 30/37/14 15/38/14 31/39/14
f 30/37/14 31/39/14 35/43/14
f 15/15/15 14/14/15 31/44/15
f 14/14/15 28/45/15 31/44/15
f 27/36/16 30/37/16 35/43/16
f 27/36/16 35/43/16 29/46/16
f 3/3/17 4/4/17 23/23/17
f 3/3/17 23/23/17 22/22/17
f 36/47/18 20/20/18 17/17/18
f 36/47/18 17/17/18 16/16/18
f 24/24/19 5/5/19 8/8/19
f 24/24/19 8/8/19 10/10/19
f 18/18/20 19/19/20 2/2/20
f 18/18/20 2/2/20 1/1/20
f 37/48/21 38/49/21 39/50/21
f 38/49/21 40/51/21 39/50/21
f 7/7/22 41/52/22 42/53/22
f 7/7/22 42/53/22 43/54/22
f 9/9/22 7/7/22 43/54/22
f 44/55/23 11/11/23 43/54/23
f 11/11/23 9/9/23 43/54/23
f 45/56/4 46/57/4 14/58/4
f 45/56/4 14/58/4 13/59/4
f 47/60/24 48/61/24 49/62/24
f 48/61/24 50/63/24 49/62/24
f 51/64/25 52/65/25 49/62/25
f 51/64/25 49/62/25 50/63/25
f 41/52/25 51/64/25 50/63/25
f 53/66/26 54/67/26 42/53/26
f 53/66/26 42/53/26 55/68/26
f 39/50/8 40/51/8 55/68/8
f 13/59/4 51/69/4 45/56/4
f 56/70/10 41/52/10 25/71/10
f 41/52/10 7/7/10 25/71/10
f 45/72/10 51/64/10 41/52/10
f 45/72/10 41/52/10 56/70/10
f 25/71/27 27/73/27 56/70/27
f 27/73/27 57/74/27 56/70/27
f 56/70/28 57/74/28 46/75/28
f 56/70/28 46/75/28 45/72/28
f 29/46/29 35/43/29 58/76/29
f 29/46/29 58/76/29 59/77/29
f 57/74/30 60/78/30 61/79/30
f 57/74/30 61/79/30 46/75/30
f 46/57/31 61/80/31 14/58/31
f 61/80/31 28/81/31 14/58/31
f 27/73/32 29/46/32 60/78/32
f 27/73/32 60/78/32 57/74/32
f 38/49/33 53/66/33 55/68/33
f 38/49/33 55/68/33 40/51/33
f 62/82/34 47/60/34 49/62/34
f 62/82/34 49/62/34 52/65/34
f 54/67/35 44/55/35 43/54/35
f 54/67/35 43/54/35 42/53/35
f 48/61/36 37/48/36 39/50/36
f 48/61/36 39/50/36 50/63/36
f 63/83/37 64/84/37 65/85/37
f 64/84/37 66/86/37 65/85/37
f 67/87/38 68/88/38 69/89/38
f 67/87/38 69/89/38 70/90/38
f 71/91/38 67/87/38 70/90/38
f 72/92/39 73/93/39 70/90/39
f 73/93/39 71/91/39 70/90/39
f 74/94/40 75/95/40 76/96/40
f 75/95/40 77/97/40 76/96/40
f 21/21/41 20/20/41 76/96/41
f 21/21/41 76/96/41 77/97/41
f 68/88/41 21/21/41 77/97/41
f 78/98/42 79/99/42 69/89/42
f 78/98/42 69/89/42 80/100/42
f 65/85/8 66/86/8 80/100/8
f 81/101/9 67/102/9 13/103/9
f 82/104/10 68/88/10 81/105/10
f 68/88/10 67/87/10 81/105/10
f 12/106/10 21/21/10 68/88/10
f 12/106/10 68/88/10 82/104/10
f 14/107/9 28/108/9 83/109/9
f 14/107/9 83/109/9 84/110/9
f 81/105/43 84/111/43 82/104/43
f 84/111/43 85/112/43 82/104/43
f 13/103/9 14/107/9 84/110/9
f 13/103/9 84/110/9 81/101/9
f 82/104/44 85/112/44 15/113/44
f 82/104/44 15/113/44 12/106/44
f 83/114/45 86/115/45 87/116/45
f 86/115/45 88/117/45 87/116/45
f 85/112/46 32/40/46 15/113/46
f 32/40/46 31/39/46 15/113/46
f 84/111/47 83/114/47 32/40/47
f 84/111/47 32/40/47 85/112/47
f 64/84/48 78/98/48 80/100/48
f 64/84/48 80/100/48 66/86/48
f 36/47/49 74/94/49 76/96/49
f 36/47/49 76/96/49 20/20/49
f 79/99/50 72/92/50 70/90/50
f 79/99/50 70/90/50 69/89/50
f 75/95/51 63/83/51 65/85/51
f 75/95/51 65/85/51 77/97/51
f 89/118/52 90/119/52 91/120/52
f 90/119/52 92/121/52 91/120/52
f 93/122/53 94/123/53 67/87/53
f 95/124/53 93/122/53 67/87/53
f 71/91/53 95/124/53 67/87/53
f 96/125/54 95/124/54 73/93/54
f 95/124/54 71/91/54 73/93/54
f 97/126/55 98/127/55 99/128/55
f 98/127/55 100/129/55 99/128/55
f 52/65/56 51/64/56 94/123/56
f 52/65/56 94/123/56 100/129/56
f 52/65/56 100/129/56 98/127/56
f 101/130/57 102/131/57 93/122/57
f 101/130/57 93/122/57 103/132/57
f 90/119/8 102/131/8 92/121/8
f 104/133/10 81/134/10 94/123/10
f 81/134/10 67/87/10 94/123/10
f 45/135/10 104/133/10 94/123/10
f 45/135/10 94/123/10 51/64/10
f 81/134/58 104/133/58 84/136/58
f 104/133/58 105/137/58 84/136/58
f 104/133/59 45/135/59 46/138/59
f 104/133/59 46/138/59 105/137/59
f 60/78/60 29/46/60 106/139/60
f 29/46/60 59/77/60 106/139/60
f 105/137/61 46/138/61 86/115/61
f 46/138/61 61/79/61 86/115/61
f 84/136/62 105/137/62 86/115/62
f 84/136/62 86/115/62 83/114/62
f 91/120/63 92/121/63 102/131/63
f 91/120/63 102/131/63 101/130/63
f 62/82/64 52/65/64 98/127/64
f 62/82/64 98/127/64 97/126/64
f 103/132/65 93/122/65 95/124/65
f 103/132/65 95/124/65 96/125/65
f 99/128/66 100/129/66 90/119/66
f 99/128/66 90/119/66 89/118/66
f 34/42/67 107/77/67 58/76/67
f 107/77/67 59/77/67 58/76/67
f 108/140/67 106/139/67 107/77/67
f 106/139/67 59/77/67 107/77/67
f 34/42/67 33/41/67 107/77/67
f 33/41/67 87/116/67 107/77/67
f 108/140/67 107/77/67 88/117/67
f 107/77/67 87/116/67 88/117/67
f 61/79/68 60/78/68 108/140/68
f 60/78/68 106/139/68 108/140/68
f 86/115/69 61/79/69 88/117/69
f 61/79/69 108/140/69 88/117/69
f 35/43/70 31/39/70 34/42/70
f 35/43/70 34/42/70 58/76/70
f 32/40/71 83/114/71 87/116/71
f 32/40/71 87/116/71 33/41/71
s off
