# Created by Kenney (www.kenney.nl)

mtllib altar-wood.mtl

g altar-wood

v -0.455413 0.09 -0.261986 1 1 1
v -0.455413 0.43 -0.261986 1 1 1
v -0.455413 0.09 0.261986 1 1 1
v -0.455413 0.43 0.261986 1 1 1
v 0.455413 0.43 -0.261986 1 1 1
v 0.455413 0.09 -0.261986 1 1 1
v 0.455413 0.43 0.261986 1 1 1
v 0.455413 0.09 0.261986 1 1 1
v 0.240986 0.338013 0.221986 1 1 1
v 0.21797 0.318544 0.241986 1 1 1
v -0.240985 0.338013 0.221986 1 1 1
v -0.21797 0.318544 0.241986 1 1 1
v -0.286728 0.383756 -0.261986 1 1 1
v -0.286728 0.09 -0.261986 1 1 1
v -0.286728 0.383756 -0.221986 1 1 1
v -0.286728 0.09 -0.221986 1 1 1
v 0.286728 0.09 0.261986 1 1 1
v 0.286728 0.383756 0.261986 1 1 1
v -0.286728 0.383756 0.261986 1 1 1
v -0.286728 0.09 0.261986 1 1 1
v 0.240986 0.135743 0.221986 1 1 1
v 0.21797 0.155211 0.241986 1 1 1
v 0.240986 0.338013 -0.221986 1 1 1
v -0.240985 0.338013 -0.221986 1 1 1
v 0.21797 0.318544 -0.241986 1 1 1
v -0.21797 0.318544 -0.241986 1 1 1
v -0.286728 0.383756 0.221986 1 1 1
v -0.286728 0.09 0.221986 1 1 1
v 0.286728 0.09 -0.261986 1 1 1
v 0.286728 0.383756 -0.261986 1 1 1
v 0.286728 0.09 -0.221986 1 1 1
v 0.286728 0.383756 -0.221986 1 1 1
v 0.240986 0.135743 -0.221986 1 1 1
v 0.21797 0.155211 -0.241986 1 1 1
v -0.240985 0.135743 0.221986 1 1 1
v -0.21797 0.155211 0.241986 1 1 1
v -0.240985 0.135743 -0.221986 1 1 1
v -0.21797 0.155211 -0.241986 1 1 1
v 0.286728 0.09 0.221986 1 1 1
v 0.286728 0.383756 0.221986 1 1 1
v -0.52845 0 -0.3266 1 1 1
v 0.52845 0 -0.3266 1 1 1
v -0.52845 0.06 -0.3266 1 1 1
v 0.52845 0.06 -0.3266 1 1 1
v 0.475413 0.47 -0.281986 1 1 1
v 0.475413 0.47 0.281986 1 1 1
v 0.01021 0.47 -0.281986 1 1 1
v 0.237018 0.47 0.281986 1 1 1
v 0.220838 0.47 0.271986 1 1 1
v 0.204658 0.47 0.281986 1 1 1
v -0.315131 0.47 0.281986 1 1 1
v -0.00597 0.47 -0.271986 1 1 1
v -0.02215 0.47 -0.281986 1 1 1
v -0.475413 0.47 -0.281986 1 1 1
v -0.331311 0.47 0.271986 1 1 1
v -0.347491 0.47 0.281986 1 1 1
v -0.465413 0.47 -0.103844 1 1 1
v -0.475413 0.47 -0.120025 1 1 1
v -0.475413 0.47 0.281986 1 1 1
v -0.475413 0.47 -0.087664 1 1 1
v 0.220838 0.43 0.271986 1 1 1
v 0.204658 0.43 0.281986 1 1 1
v -0.465413 0.43 -0.103844 1 1 1
v -0.475413 0.43 -0.087664 1 1 1
v -0.00597 0.43 -0.271986 1 1 1
v 0.01021 0.43 -0.281986 1 1 1
v -0.52845 0 0.3266 1 1 1
v -0.52845 0.06 0.3266 1 1 1
v -0.475413 0.43 -0.281986 1 1 1
v -0.02215 0.43 -0.281986 1 1 1
v -0.513494 0.09 0.320068 1 1 1
v 0.513495 0.09 0.320068 1 1 1
v -0.513494 0.09 -0.320068 1 1 1
v 0.513495 0.09 -0.320068 1 1 1
v 0.475413 0.43 -0.281986 1 1 1
v 0.475413 0.43 0.281986 1 1 1
v -0.315131 0.43 0.281986 1 1 1
v -0.347491 0.43 0.281986 1 1 1
v -0.475413 0.43 0.281986 1 1 1
v -0.475413 0.43 -0.120025 1 1 1
v 0.237018 0.43 0.281986 1 1 1
v -0.331311 0.43 0.271986 1 1 1
v 0.52845 0.06 0.3266 1 1 1
v 0.52845 0 0.3266 1 1 1

vn -1 0 0
vn 1 0 0
vn 0 0.7165551 0.6975306
vn 0 0 1
vn 0.6559188 0 0.7548314
vn 0 0.7165551 -0.6975306
vn 0.6559188 0 -0.7548314
vn -0.655935 0 0.7548172
vn 0 -0.7165729 -0.6975121
vn -0.655935 0 -0.7548172
vn 0 0 -1
vn 0 -1 0
vn 0 -0.7165729 0.6975121
vn 0 0.08893384 -0.9960375
vn 0 0.08893506 -0.9960374
vn 0 1 0
vn 0.5257391 0 0.8506459
vn -0.8506459 0 -0.5257391
vn -0.5257391 0 -0.8506459
vn -0.5257391 0 0.8506459
vn -0.8506604 0 0.5257156
vn 0 0.08893506 0.9960374
vn 0 0.08893384 0.9960375
vn 0.5257391 0 -0.8506459
vn 0 0.2127488 0.9771069
vn -0.8949516 0.4461632 0
vn 0 0.2127488 -0.9771069
vn 0.8949636 0.4461393 0

vt 0.96875 0.06329787
vt 0.96875 0.2079787
vt 0.96875 0.1688353
vt 0.96875 0.1605506
vt 0.96875 0.1883004
vt 0.96875 0.08276297
vt 0.96875 0.09104723
vt 0.96875 0.1094282
vt 0.96875 0.125
vt 0.96875 0.04057177
vt 0.96875 0.025
vt 0.71875 0.025
vt 0.71875 0.05053191
vt 0.71875 0.225
vt 0.71875 0.2079787
vt 0.71875 0.06329787

usemtl colormap

f 3/1/1 2/2/1 1/1/1
f 2/2/1 3/1/1 4/2/1
f 7/2/2 6/1/2 5/2/2
f 6/1/2 7/2/2 8/1/2
f 11/3/3 10/4/3 9/3/3
f 10/4/3 11/3/3 12/4/3
f 15/5/2 14/1/2 13/5/2
f 14/1/2 15/5/2 16/1/2
f 7/2/4 17/1/4 8/1/4
f 17/1/4 7/2/4 18/5/4
f 18/5/4 7/2/4 19/5/4
f 4/2/4 19/5/4 7/2/4
f 3/1/4 19/5/4 4/2/4
f 19/5/4 3/1/4 20/1/4
f 9/3/5 22/7/5 21/6/5
f 22/7/5 9/3/5 10/4/5
f 25/4/6 24/3/6 23/3/6
f 24/3/6 25/4/6 26/4/6
f 19/5/2 28/1/2 27/5/2
f 28/1/2 19/5/2 20/1/2
f 31/1/1 30/5/1 29/1/1
f 30/5/1 31/1/1 32/5/1
f 34/7/7 23/3/7 33/6/7
f 23/3/7 34/7/7 25/4/7
f 36/7/8 11/3/8 35/6/8
f 11/3/8 36/7/8 12/4/8
f 37/6/9 34/7/9 33/6/9
f 34/7/9 37/6/9 38/7/9
f 24/3/10 38/7/10 37/6/10
f 38/7/10 24/3/10 26/4/10
f 26/4/11 34/7/11 38/7/11
f 34/7/11 26/4/11 25/4/11
f 17/1/1 40/5/1 39/1/1
f 40/5/1 17/1/1 18/5/1
f 15/5/12 30/5/12 32/5/12
f 30/5/12 15/5/12 13/5/12
f 19/5/12 40/5/12 18/5/12
f 40/5/12 19/5/12 27/5/12
f 10/4/4 36/7/4 22/7/4
f 36/7/4 10/4/4 12/4/4
f 2/2/11 14/1/11 1/1/11
f 14/1/11 2/2/11 13/5/11
f 13/5/11 2/2/11 30/5/11
f 5/2/11 30/5/11 2/2/11
f 6/1/11 30/5/11 5/2/11
f 30/5/11 6/1/11 29/1/11
f 22/7/13 35/6/13 21/6/13
f 35/6/13 22/7/13 36/7/13
f 21/10/4 40/9/4 9/8/4
f 9/8/4 40/9/4 11/8/4
f 21/10/4 39/11/4 40/9/4
f 27/9/4 11/8/4 40/9/4
f 39/11/4 21/10/4 28/11/4
f 27/9/4 35/10/4 11/8/4
f 28/11/4 35/10/4 27/9/4
f 35/10/4 28/11/4 21/10/4
f 37/10/11 15/9/11 24/8/11
f 24/8/11 15/9/11 23/8/11
f 37/10/11 16/11/11 15/9/11
f 32/9/11 23/8/11 15/9/11
f 16/11/11 37/10/11 31/11/11
f 32/9/11 33/10/11 23/8/11
f 31/11/11 33/10/11 32/9/11
f 33/10/11 31/11/11 37/10/11
f 43/13/14 42/12/11 41/12/11
f 42/12/11 43/13/14 44/13/15
f 47/14/16 46/14/16 45/14/16
f 46/14/16 47/14/16 48/14/16
f 48/14/16 47/14/16 49/14/16
f 49/14/16 47/14/16 50/14/16
f 50/14/16 47/14/16 51/14/16
f 51/14/16 47/14/16 52/14/16
f 51/14/16 52/14/16 53/14/16
f 51/14/16 53/14/16 54/14/16
f 51/14/16 54/14/16 55/14/16
f 55/14/16 54/14/16 56/14/16
f 56/14/16 54/14/16 57/14/16
f 57/14/16 54/14/16 58/14/16
f 57/14/16 59/14/16 56/14/16
f 59/14/16 57/14/16 60/14/16
f 49/14/17 62/15/17 61/15/17
f 62/15/17 49/14/17 50/14/17
f 64/15/18 57/14/18 63/15/18
f 57/14/18 64/15/18 60/14/18
f 52/14/19 66/15/19 65/15/19
f 66/15/19 52/14/19 47/14/19
f 67/12/1 43/13/1 41/12/1
f 43/13/1 67/12/1 68/13/1
f 54/14/11 70/15/11 69/15/11
f 70/15/11 54/14/11 53/14/11
f 28/16/16 17/16/16 39/16/16
f 20/16/16 17/16/16 28/16/16
f 71/16/16 17/16/16 20/16/16
f 71/16/16 20/16/16 3/16/16
f 71/16/16 8/16/16 17/16/16
f 72/16/16 8/16/16 71/16/16
f 71/16/16 3/16/16 73/16/16
f 8/16/16 72/16/16 6/16/16
f 74/16/16 6/16/16 72/16/16
f 6/16/16 74/16/16 73/16/16
f 1/16/16 73/16/16 3/16/16
f 6/16/16 73/16/16 29/16/16
f 14/16/16 73/16/16 1/16/16
f 29/16/16 73/16/16 31/16/16
f 31/16/16 73/16/16 14/16/16
f 16/16/16 31/16/16 14/16/16
f 46/14/2 75/15/2 45/14/2
f 75/15/2 46/14/2 76/15/2
f 50/14/4 77/15/4 62/15/4
f 77/15/4 50/14/4 51/14/4
f 56/14/4 79/15/4 78/15/4
f 79/15/4 56/14/4 59/14/4
f 80/15/1 54/14/1 69/15/1
f 54/14/1 80/15/1 58/14/1
f 79/15/1 60/14/1 64/15/1
f 60/14/1 79/15/1 59/14/1
f 48/14/20 61/15/20 81/15/20
f 61/15/20 48/14/20 49/14/20
f 51/14/20 82/15/20 77/15/20
f 82/15/20 51/14/20 55/14/20
f 83/13/2 42/12/2 44/13/2
f 42/12/2 83/13/2 84/12/2
f 63/15/21 58/14/21 80/15/21
f 58/14/21 63/15/21 57/14/21
f 83/13/22 67/12/4 84/12/4
f 67/12/4 83/13/22 68/13/23
f 53/14/24 65/15/24 70/15/24
f 65/15/24 53/14/24 52/14/24
f 72/16/25 68/13/23 83/13/22
f 68/13/23 72/16/25 71/16/25
f 46/14/4 81/15/4 76/15/4
f 81/15/4 46/14/4 48/14/4
f 82/15/12 62/15/12 77/15/12
f 4/15/12 62/15/12 82/15/12
f 4/15/12 82/15/12 78/15/12
f 4/15/12 61/15/12 62/15/12
f 4/15/12 78/15/12 79/15/12
f 7/15/12 61/15/12 4/15/12
f 7/15/12 81/15/12 61/15/12
f 7/15/12 76/15/12 81/15/12
f 76/15/12 7/15/12 75/15/12
f 5/15/12 75/15/12 7/15/12
f 75/15/12 5/15/12 66/15/12
f 66/15/12 5/15/12 65/15/12
f 65/15/12 5/15/12 2/15/12
f 4/15/12 79/15/12 2/15/12
f 65/15/12 2/15/12 70/15/12
f 70/15/12 2/15/12 69/15/12
f 2/15/12 79/15/12 63/15/12
f 69/15/12 2/15/12 63/15/12
f 63/15/12 79/15/12 64/15/12
f 69/15/12 63/15/12 80/15/12
f 68/13/26 73/16/26 43/13/26
f 73/16/26 68/13/26 71/16/26
f 73/16/27 44/13/15 43/13/14
f 44/13/15 73/16/27 74/16/27
f 74/16/28 83/13/28 44/13/28
f 83/13/28 74/16/28 72/16/28
f 47/14/11 75/15/11 66/15/11
f 75/15/11 47/14/11 45/14/11
f 55/14/17 78/15/17 82/15/17
f 78/15/17 55/14/17 56/14/17
f 67/12/12 42/12/12 84/12/12
f 42/12/12 67/12/12 41/12/12

g altar-wood




usemtl colormap

f 3/1/1 2/2/1 1/1/1
f 2/2/1 3/1/1 4/2/1
f 7/2/2 6/1/2 5/2/2
f 6/1/2 7/2/2 8/1/2
f 11/3/3 10/4/3 9/3/3
f 10/4/3 11/3/3 12/4/3
f 15/5/2 14/1/2 13/5/2
f 14/1/2 15/5/2 16/1/2
f 7/2/4 17/1/4 8/1/4
f 17/1/4 7/2/4 18/5/4
f 18/5/4 7/2/4 19/5/4
f 4/2/4 19/5/4 7/2/4
f 3/1/4 19/5/4 4/2/4
f 19/5/4 3/1/4 20/1/4
f 9/3/5 22/7/5 21/6/5
f 22/7/5 9/3/5 10/4/5
f 25/4/6 24/3/6 23/3/6
f 24/3/6 25/4/6 26/4/6
f 19/5/2 28/1/2 27/5/2
f 28/1/2 19/5/2 20/1/2
f 31/1/1 30/5/1 29/1/1
f 30/5/1 31/1/1 32/5/1
f 34/7/7 23/3/7 33/6/7
f 23/3/7 34/7/7 25/4/7
f 36/7/8 11/3/8 35/6/8
f 11/3/8 36/7/8 12/4/8
f 37/6/9 34/7/9 33/6/9
f 34/7/9 37/6/9 38/7/9
f 24/3/10 38/7/10 37/6/10
f 38/7/10 24/3/10 26/4/10
f 26/4/11 34/7/11 38/7/11
f 34/7/11 26/4/11 25/4/11
f 17/1/1 40/5/1 39/1/1
f 40/5/1 17/1/1 18/5/1
f 15/5/12 30/5/12 32/5/12
f 30/5/12 15/5/12 13/5/12
f 19/5/12 40/5/12 18/5/12
f 40/5/12 19/5/12 27/5/12
f 10/4/4 36/7/4 22/7/4
f 36/7/4 10/4/4 12/4/4
f 2/2/11 14/1/11 1/1/11
f 14/1/11 2/2/11 13/5/11
f 13/5/11 2/2/11 30/5/11
f 5/2/11 30/5/11 2/2/11
f 6/1/11 30/5/11 5/2/11
f 30/5/11 6/1/11 29/1/11
f 22/7/13 35/6/13 21/6/13
f 35/6/13 22/7/13 36/7/13
f 21/10/4 40/9/4 9/8/4
f 9/8/4 40/9/4 11/8/4
f 21/10/4 39/11/4 40/9/4
f 27/9/4 11/8/4 40/9/4
f 39/11/4 21/10/4 28/11/4
f 27/9/4 35/10/4 11/8/4
f 28/11/4 35/10/4 27/9/4
f 35/10/4 28/11/4 21/10/4
f 37/10/11 15/9/11 24/8/11
f 24/8/11 15/9/11 23/8/11
f 37/10/11 16/11/11 15/9/11
f 32/9/11 23/8/11 15/9/11
f 16/11/11 37/10/11 31/11/11
f 32/9/11 33/10/11 23/8/11
f 31/11/11 33/10/11 32/9/11
f 33/10/11 31/11/11 37/10/11
f 43/13/14 42/12/11 41/12/11
f 42/12/11 43/13/14 44/13/15
f 47/14/16 46/14/16 45/14/16
f 46/14/16 47/14/16 48/14/16
f 48/14/16 47/14/16 49/14/16
f 49/14/16 47/14/16 50/14/16
f 50/14/16 47/14/16 51/14/16
f 51/14/16 47/14/16 52/14/16
f 51/14/16 52/14/16 53/14/16
f 51/14/16 53/14/16 54/14/16
f 51/14/16 54/14/16 55/14/16
f 55/14/16 54/14/16 56/14/16
f 56/14/16 54/14/16 57/14/16
f 57/14/16 54/14/16 58/14/16
f 57/14/16 59/14/16 56/14/16
f 59/14/16 57/14/16 60/14/16
f 49/14/17 62/15/17 61/15/17
f 62/15/17 49/14/17 50/14/17
f 64/15/18 57/14/18 63/15/18
f 57/14/18 64/15/18 60/14/18
f 52/14/19 66/15/19 65/15/19
f 66/15/19 52/14/19 47/14/19
f 67/12/1 43/13/1 41/12/1
f 43/13/1 67/12/1 68/13/1
f 54/14/11 70/15/11 69/15/11
f 70/15/11 54/14/11 53/14/11
f 28/16/16 17/16/16 39/16/16
f 20/16/16 17/16/16 28/16/16
f 71/16/16 17/16/16 20/16/16
f 71/16/16 20/16/16 3/16/16
f 71/16/16 8/16/16 17/16/16
f 72/16/16 8/16/16 71/16/16
f 71/16/16 3/16/16 73/16/16
f 8/16/16 72/16/16 6/16/16
f 74/16/16 6/16/16 72/16/16
f 6/16/16 74/16/16 73/16/16
f 1/16/16 73/16/16 3/16/16
f 6/16/16 73/16/16 29/16/16
f 14/16/16 73/16/16 1/16/16
f 29/16/16 73/16/16 31/16/16
f 31/16/16 73/16/16 14/16/16
f 16/16/16 31/16/16 14/16/16
f 46/14/2 75/15/2 45/14/2
f 75/15/2 46/14/2 76/15/2
f 50/14/4 77/15/4 62/15/4
f 77/15/4 50/14/4 51/14/4
f 56/14/4 79/15/4 78/15/4
f 79/15/4 56/14/4 59/14/4
f 80/15/1 54/14/1 69/15/1
f 54/14/1 80/15/1 58/14/1
f 79/15/1 60/14/1 64/15/1
f 60/14/1 79/15/1 59/14/1
f 48/14/20 61/15/20 81/15/20
f 61/15/20 48/14/20 49/14/20
f 51/14/20 82/15/20 77/15/20
f 82/15/20 51/14/20 55/14/20
f 83/13/2 42/12/2 44/13/2
f 42/12/2 83/13/2 84/12/2
f 63/15/21 58/14/21 80/15/21
f 58/14/21 63/15/21 57/14/21
f 83/13/22 67/12/4 84/12/4
f 67/12/4 83/13/22 68/13/23
f 53/14/24 65/15/24 70/15/24
f 65/15/24 53/14/24 52/14/24
f 72/16/25 68/13/23 83/13/22
f 68/13/23 72/16/25 71/16/25
f 46/14/4 81/15/4 76/15/4
f 81/15/4 46/14/4 48/14/4
f 82/15/12 62/15/12 77/15/12
f 4/15/12 62/15/12 82/15/12
f 4/15/12 82/15/12 78/15/12
f 4/15/12 61/15/12 62/15/12
f 4/15/12 78/15/12 79/15/12
f 7/15/12 61/15/12 4/15/12
f 7/15/12 81/15/12 61/15/12
f 7/15/12 76/15/12 81/15/12
f 76/15/12 7/15/12 75/15/12
f 5/15/12 75/15/12 7/15/12
f 75/15/12 5/15/12 66/15/12
f 66/15/12 5/15/12 65/15/12
f 65/15/12 5/15/12 2/15/12
f 4/15/12 79/15/12 2/15/12
f 65/15/12 2/15/12 70/15/12
f 70/15/12 2/15/12 69/15/12
f 2/15/12 79/15/12 63/15/12
f 69/15/12 2/15/12 63/15/12
f 63/15/12 79/15/12 64/15/12
f 69/15/12 63/15/12 80/15/12
f 68/13/26 73/16/26 43/13/26
f 73/16/26 68/13/26 71/16/26
f 73/16/27 44/13/15 43/13/14
f 44/13/15 73/16/27 74/16/27
f 74/16/28 83/13/28 44/13/28
f 83/13/28 74/16/28 72/16/28
f 47/14/11 75/15/11 66/15/11
f 75/15/11 47/14/11 45/14/11
f 55/14/17 78/15/17 82/15/17
f 78/15/17 55/14/17 56/14/17
f 67/12/12 42/12/12 84/12/12
f 42/12/12 67/12/12 41/12/12

