# Created by Kenney (www.kenney.nl)

mtllib brick-wall.mtl

g brick-wall

v 0.5 0.11 -0.352914 1 1 1
v 0.5 0.11 -0.327 1 1 1
v -0.5 0.11 -0.352914 1 1 1
v -0.5 0.11 -0.327 1 1 1
v -0.5 0.601914 -0.477086 1 1 1
v 0.5 0.601914 -0.477086 1 1 1
v -0.5 0.701914 -0.477086 1 1 1
v 0.5 0.701914 -0.477086 1 1 1
v 0.5 0 -0.32 1 1 1
v 0.5 0 -0.5 1 1 1
v -0.5 0 -0.32 1 1 1
v -0.5 0 -0.5 1 1 1
v 0.5 0.701914 -0.342914 1 1 1
v -0.5 0.701914 -0.342914 1 1 1
v 0.5 0.09 -0.32 1 1 1
v -0.5 0.09 -0.32 1 1 1
v 0.5 0.11 -0.493 1 1 1
v 0.5 0.11 -0.467086 1 1 1
v -0.5 0.11 -0.493 1 1 1
v -0.5 0.11 -0.467086 1 1 1
v -0.5 0.09 -0.5 1 1 1
v 0.5 0.09 -0.5 1 1 1
v 0.5 0.601914 -0.467086 1 1 1
v -0.5 0.601914 -0.467086 1 1 1
v 0.5 0.601914 -0.342914 1 1 1
v 0.5 0.601914 -0.352914 1 1 1
v -0.5 0.601914 -0.342914 1 1 1
v -0.5 0.601914 -0.352914 1 1 1
v -0.5 0.601914 -0.477086 1 1 1
v -0.5 0.701914 -0.477086 1 1 1
v -0.5 0.601914 -0.467086 1 1 1
v -0.5 0.701914 -0.342914 1 1 1
v -0.5 0.601914 -0.352914 1 1 1
v -0.5 0.601914 -0.342914 1 1 1
v -0.5 0 -0.32 1 1 1
v -0.5 0.11 -0.493 1 1 1
v -0.5 0.11 -0.467086 1 1 1
v -0.5 0.11 -0.352914 1 1 1
v -0.5 0.11 -0.327 1 1 1
v -0.5 0.09 -0.32 1 1 1
v 0.5 0.701914 -0.477086 1 1 1
v 0.5 0.601914 -0.477086 1 1 1
v 0.5 0.701914 -0.342914 1 1 1
v 0.5 0.601914 -0.467086 1 1 1
v 0.5 0.601914 -0.352914 1 1 1
v 0.5 0.601914 -0.342914 1 1 1
v 0.5 0 -0.32 1 1 1
v 0.5 0.11 -0.493 1 1 1
v 0.5 0.11 -0.467086 1 1 1
v 0.5 0.11 -0.352914 1 1 1
v 0.5 0.11 -0.327 1 1 1
v 0.5 0.09 -0.32 1 1 1
v -0.2534069 0.2007049 -0.327 1 1 1
v -0.394347 0.2007049 -0.327 1 1 1
v -0.2534069 0.2707049 -0.327 1 1 1
v -0.394347 0.2707049 -0.327 1 1 1
v -0.2534069 0.2007049 -0.352914 1 1 1
v -0.394347 0.2007049 -0.352914 1 1 1
v -0.2534069 0.2707049 -0.352914 1 1 1
v -0.394347 0.2707049 -0.352914 1 1 1
v -0.1534069 0.3007049 -0.327 1 1 1
v -0.294347 0.3007049 -0.327 1 1 1
v -0.1534069 0.3707049 -0.327 1 1 1
v -0.294347 0.3707049 -0.327 1 1 1
v -0.1534069 0.3007049 -0.352914 1 1 1
v -0.294347 0.3007049 -0.352914 1 1 1
v -0.1534069 0.3707049 -0.352914 1 1 1
v -0.294347 0.3707049 -0.352914 1 1 1
v 0.446593 0.4007049 -0.327 1 1 1
v 0.305653 0.4007049 -0.327 1 1 1
v 0.446593 0.4707049 -0.327 1 1 1
v 0.305653 0.4707049 -0.327 1 1 1
v 0.446593 0.4007049 -0.352914 1 1 1
v 0.305653 0.4007049 -0.352914 1 1 1
v 0.446593 0.4707049 -0.352914 1 1 1
v 0.305653 0.4707049 -0.352914 1 1 1
v -0.3211135 0.2485822 -0.493 1 1 1
v -0.1801735 0.2485822 -0.493 1 1 1
v -0.3211135 0.3185821 -0.493 1 1 1
v -0.1801735 0.3185821 -0.493 1 1 1
v -0.3211135 0.2485822 -0.467086 1 1 1
v -0.1801735 0.2485822 -0.467086 1 1 1
v -0.3211135 0.3185821 -0.467086 1 1 1
v -0.1801735 0.3185821 -0.467086 1 1 1
v -0.2211135 0.4485822 -0.493 1 1 1
v -0.08017351 0.4485822 -0.493 1 1 1
v -0.2211135 0.5185822 -0.493 1 1 1
v -0.08017351 0.5185822 -0.493 1 1 1
v -0.2211135 0.4485822 -0.467086 1 1 1
v -0.08017351 0.4485822 -0.467086 1 1 1
v -0.2211135 0.5185822 -0.467086 1 1 1
v -0.08017351 0.5185822 -0.467086 1 1 1
v 0.1788865 0.2485822 -0.493 1 1 1
v 0.3198265 0.2485822 -0.493 1 1 1
v 0.1788865 0.3185821 -0.493 1 1 1
v 0.3198265 0.3185821 -0.493 1 1 1
v 0.1788865 0.2485822 -0.467086 1 1 1
v 0.3198265 0.2485822 -0.467086 1 1 1
v 0.1788865 0.3185821 -0.467086 1 1 1
v 0.3198265 0.3185821 -0.467086 1 1 1

vn 0 1 0
vn 0 0 -1
vn 0 -1 0
vn 0 0.1675435 0.9858646
vn 0 0.3303504 0.9438583
vn 0 0.1675435 -0.9858646
vn 0 0.3303504 -0.9438583
vn 0 0 1
vn -1 0 0
vn 1 0 0
vn 1.74305E-14 0 -1
vn -1 0 -1.74305E-14
vn 1 0 1.74305E-14

vt 0.71875 0.05634287
vt 0.71875 0.1965065
vt 0.71875 0.225
vt 0.71875 0.025
vt 0.71875 0.05064417
vt 0.34375 0.05634287
vt 0.34375 0.1965065
vt 0.28125 0.125

usemtl colormap

f 3/1/1 2/1/1 1/1/1
f 2/1/1 3/1/1 4/1/1
f 7/3/2 6/2/2 5/2/2
f 6/2/2 7/3/2 8/3/2
f 11/4/3 10/4/3 9/4/3
f 10/4/3 11/4/3 12/4/3
f 7/3/1 13/3/1 8/3/1
f 13/3/1 7/3/1 14/3/1
f 2/1/5 16/5/4 15/5/4
f 16/5/4 2/1/5 4/1/5
f 19/1/1 18/1/1 17/1/1
f 18/1/1 19/1/1 20/1/1
f 19/1/7 22/5/6 21/5/6
f 22/5/6 19/1/7 17/1/7
f 24/2/3 6/2/3 23/2/3
f 6/2/3 24/2/3 5/2/3
f 27/2/3 26/2/3 25/2/3
f 26/2/3 27/2/3 28/2/3
f 13/3/8 27/2/8 25/2/8
f 27/2/8 13/3/8 14/3/8
f 21/5/6 10/4/2 12/4/2
f 10/4/2 21/5/6 22/5/6
f 15/5/4 11/4/8 9/4/8
f 11/4/8 15/5/4 16/5/4
f 31/2/9 30/3/9 29/2/9
f 30/3/9 31/2/9 32/3/9
f 32/3/9 31/2/9 33/2/9
f 32/3/9 33/2/9 34/2/9
f 35/4/9 21/5/9 12/4/9
f 21/5/9 35/4/9 36/1/9
f 36/1/9 35/4/9 37/1/9
f 37/1/9 35/4/9 38/1/9
f 38/1/9 35/4/9 39/1/9
f 39/1/9 35/4/9 40/5/9
f 43/3/10 42/2/10 41/3/10
f 42/2/10 43/3/10 44/2/10
f 44/2/10 43/3/10 45/2/10
f 45/2/10 43/3/10 46/2/10
f 22/5/10 47/4/10 10/4/10
f 47/4/10 22/5/10 48/1/10
f 47/4/10 48/1/10 49/1/10
f 47/4/10 49/1/10 50/1/10
f 47/4/10 50/1/10 51/1/10
f 47/4/10 51/1/10 52/5/10
f 26/7/8 3/6/8 1/6/8
f 3/6/8 26/7/8 28/7/8
f 24/7/2 18/6/2 20/6/2
f 18/6/2 24/7/2 23/7/2
f 20/6/9 28/7/9 24/7/9
f 28/7/9 20/6/9 3/6/9
f 26/7/10 18/6/10 23/7/10
f 18/6/10 26/7/10 1/6/10
f 55/8/8 54/8/8 53/8/8
f 54/8/8 55/8/8 56/8/8
f 54/8/3 57/8/3 53/8/3
f 57/8/3 54/8/3 58/8/3
f 55/8/10 57/8/10 59/8/10
f 57/8/10 55/8/10 53/8/10
f 60/8/1 55/8/1 59/8/1
f 55/8/1 60/8/1 56/8/1
f 54/8/9 60/8/9 58/8/9
f 60/8/9 54/8/9 56/8/9
f 63/8/8 62/8/8 61/8/8
f 62/8/8 63/8/8 64/8/8
f 62/8/3 65/8/3 61/8/3
f 65/8/3 62/8/3 66/8/3
f 63/8/10 65/8/10 67/8/10
f 65/8/10 63/8/10 61/8/10
f 68/8/1 63/8/1 67/8/1
f 63/8/1 68/8/1 64/8/1
f 62/8/9 68/8/9 66/8/9
f 68/8/9 62/8/9 64/8/9
f 71/8/8 70/8/8 69/8/8
f 70/8/8 71/8/8 72/8/8
f 70/8/3 73/8/3 69/8/3
f 73/8/3 70/8/3 74/8/3
f 71/8/10 73/8/10 75/8/10
f 73/8/10 71/8/10 69/8/10
f 76/8/1 71/8/1 75/8/1
f 71/8/1 76/8/1 72/8/1
f 70/8/9 76/8/9 74/8/9
f 76/8/9 70/8/9 72/8/9
f 79/8/11 78/8/11 77/8/11
f 78/8/11 79/8/11 80/8/11
f 78/8/3 81/8/3 77/8/3
f 81/8/3 78/8/3 82/8/3
f 79/8/12 81/8/12 83/8/12
f 81/8/12 79/8/12 77/8/12
f 84/8/1 79/8/1 83/8/1
f 79/8/1 84/8/1 80/8/1
f 78/8/13 84/8/13 82/8/13
f 84/8/13 78/8/13 80/8/13
f 87/8/11 86/8/11 85/8/11
f 86/8/11 87/8/11 88/8/11
f 86/8/3 89/8/3 85/8/3
f 89/8/3 86/8/3 90/8/3
f 87/8/12 89/8/12 91/8/12
f 89/8/12 87/8/12 85/8/12
f 92/8/1 87/8/1 91/8/1
f 87/8/1 92/8/1 88/8/1
f 86/8/13 92/8/13 90/8/13
f 92/8/13 86/8/13 88/8/13
f 95/8/11 94/8/11 93/8/11
f 94/8/11 95/8/11 96/8/11
f 94/8/3 97/8/3 93/8/3
f 97/8/3 94/8/3 98/8/3
f 95/8/12 97/8/12 99/8/12
f 97/8/12 95/8/12 93/8/12
f 100/8/1 95/8/1 99/8/1
f 95/8/1 100/8/1 96/8/1
f 94/8/13 100/8/13 98/8/13
f 100/8/13 94/8/13 96/8/13

g brick-wall




usemtl colormap

f 3/1/1 2/1/1 1/1/1
f 2/1/1 3/1/1 4/1/1
f 7/3/2 6/2/2 5/2/2
f 6/2/2 7/3/2 8/3/2
f 11/4/3 10/4/3 9/4/3
f 10/4/3 11/4/3 12/4/3
f 7/3/1 13/3/1 8/3/1
f 13/3/1 7/3/1 14/3/1
f 2/1/5 16/5/4 15/5/4
f 16/5/4 2/1/5 4/1/5
f 19/1/1 18/1/1 17/1/1
f 18/1/1 19/1/1 20/1/1
f 19/1/7 22/5/6 21/5/6
f 22/5/6 19/1/7 17/1/7
f 24/2/3 6/2/3 23/2/3
f 6/2/3 24/2/3 5/2/3
f 27/2/3 26/2/3 25/2/3
f 26/2/3 27/2/3 28/2/3
f 13/3/8 27/2/8 25/2/8
f 27/2/8 13/3/8 14/3/8
f 21/5/6 10/4/2 12/4/2
f 10/4/2 21/5/6 22/5/6
f 15/5/4 11/4/8 9/4/8
f 11/4/8 15/5/4 16/5/4
f 31/2/9 30/3/9 29/2/9
f 30/3/9 31/2/9 32/3/9
f 32/3/9 31/2/9 33/2/9
f 32/3/9 33/2/9 34/2/9
f 35/4/9 21/5/9 12/4/9
f 21/5/9 35/4/9 36/1/9
f 36/1/9 35/4/9 37/1/9
f 37/1/9 35/4/9 38/1/9
f 38/1/9 35/4/9 39/1/9
f 39/1/9 35/4/9 40/5/9
f 43/3/10 42/2/10 41/3/10
f 42/2/10 43/3/10 44/2/10
f 44/2/10 43/3/10 45/2/10
f 45/2/10 43/3/10 46/2/10
f 22/5/10 47/4/10 10/4/10
f 47/4/10 22/5/10 48/1/10
f 47/4/10 48/1/10 49/1/10
f 47/4/10 49/1/10 50/1/10
f 47/4/10 50/1/10 51/1/10
f 47/4/10 51/1/10 52/5/10
f 26/7/8 3/6/8 1/6/8
f 3/6/8 26/7/8 28/7/8
f 24/7/2 18/6/2 20/6/2
f 18/6/2 24/7/2 23/7/2
f 20/6/9 28/7/9 24/7/9
f 28/7/9 20/6/9 3/6/9
f 26/7/10 18/6/10 23/7/10
f 18/6/10 26/7/10 1/6/10
f 55/8/8 54/8/8 53/8/8
f 54/8/8 55/8/8 56/8/8
f 54/8/3 57/8/3 53/8/3
f 57/8/3 54/8/3 58/8/3
f 55/8/10 57/8/10 59/8/10
f 57/8/10 55/8/10 53/8/10
f 60/8/1 55/8/1 59/8/1
f 55/8/1 60/8/1 56/8/1
f 54/8/9 60/8/9 58/8/9
f 60/8/9 54/8/9 56/8/9
f 63/8/8 62/8/8 61/8/8
f 62/8/8 63/8/8 64/8/8
f 62/8/3 65/8/3 61/8/3
f 65/8/3 62/8/3 66/8/3
f 63/8/10 65/8/10 67/8/10
f 65/8/10 63/8/10 61/8/10
f 68/8/1 63/8/1 67/8/1
f 63/8/1 68/8/1 64/8/1
f 62/8/9 68/8/9 66/8/9
f 68/8/9 62/8/9 64/8/9
f 71/8/8 70/8/8 69/8/8
f 70/8/8 71/8/8 72/8/8
f 70/8/3 73/8/3 69/8/3
f 73/8/3 70/8/3 74/8/3
f 71/8/10 73/8/10 75/8/10
f 73/8/10 71/8/10 69/8/10
f 76/8/1 71/8/1 75/8/1
f 71/8/1 76/8/1 72/8/1
f 70/8/9 76/8/9 74/8/9
f 76/8/9 70/8/9 72/8/9
f 79/8/11 78/8/11 77/8/11
f 78/8/11 79/8/11 80/8/11
f 78/8/3 81/8/3 77/8/3
f 81/8/3 78/8/3 82/8/3
f 79/8/12 81/8/12 83/8/12
f 81/8/12 79/8/12 77/8/12
f 84/8/1 79/8/1 83/8/1
f 79/8/1 84/8/1 80/8/1
f 78/8/13 84/8/13 82/8/13
f 84/8/13 78/8/13 80/8/13
f 87/8/11 86/8/11 85/8/11
f 86/8/11 87/8/11 88/8/11
f 86/8/3 89/8/3 85/8/3
f 89/8/3 86/8/3 90/8/3
f 87/8/12 89/8/12 91/8/12
f 89/8/12 87/8/12 85/8/12
f 92/8/1 87/8/1 91/8/1
f 87/8/1 92/8/1 88/8/1
f 86/8/13 92/8/13 90/8/13
f 92/8/13 86/8/13 88/8/13
f 95/8/11 94/8/11 93/8/11
f 94/8/11 95/8/11 96/8/11
f 94/8/3 97/8/3 93/8/3
f 97/8/3 94/8/3 98/8/3
f 95/8/12 97/8/12 99/8/12
f 97/8/12 95/8/12 93/8/12
f 100/8/1 95/8/1 99/8/1
f 95/8/1 100/8/1 96/8/1
f 94/8/13 100/8/13 98/8/13
f 100/8/13 94/8/13 96/8/13

