# Created by Kenney (www.kenney.nl)

mtllib brick-wall-end.mtl

g brick-wall-end

v 0.5 0.11 -0.352914 1 1 1
v 0.5 0.11 -0.327 1 1 1
v -0.3 0.11 -0.352914 1 1 1
v -0.3 0.11 -0.327 1 1 1
v -0.309 0.601914 -0.477086 1 1 1
v 0.5 0.601914 -0.477086 1 1 1
v -0.309 0.701914 -0.477086 1 1 1
v 0.5 0.701914 -0.477086 1 1 1
v 0.5 0.701914 -0.342914 1 1 1
v -0.309 0.701914 -0.342914 1 1 1
v 0.5 0.11 -0.493 1 1 1
v 0.5 0.11 -0.467086 1 1 1
v -0.3 0.11 -0.493 1 1 1
v -0.3 0.11 -0.467086 1 1 1
v 0.5 0.09 -0.5 1 1 1
v -0.3 0.09 -0.5 1 1 1
v 0.5 0.601914 -0.467086 1 1 1
v -0.309 0.601914 -0.467086 1 1 1
v 0.5 0.601914 -0.342914 1 1 1
v 0.5 0.601914 -0.352914 1 1 1
v -0.309 0.601914 -0.342914 1 1 1
v -0.309 0.601914 -0.352914 1 1 1
v -0.3 -2.372688E-19 -0.5 1 1 1
v 0.5 0 -0.5 1 1 1
v -0.3 -2.372688E-19 -0.32 1 1 1
v -0.3 0.09 -0.32 1 1 1
v 0.5 0 -0.32 1 1 1
v 0.5 0.09 -0.32 1 1 1
v -0.3 0.11 -0.31 1 1 1
v -0.5 0.11 -0.31 1 1 1
v -0.309 0.13 -0.319 1 1 1
v -0.491 0.13 -0.319 1 1 1
v -0.5 0.11 -0.51 1 1 1
v -0.491 0.13 -0.501 1 1 1
v -0.3 -4.745376E-19 -0.31 1 1 1
v -0.5 -4.745376E-19 -0.31 1 1 1
v -0.3 -4.745376E-19 -0.51 1 1 1
v -0.5 -4.745376E-19 -0.51 1 1 1
v -0.5 0 -0.32 1 1 1
v -0.3 0.11 -0.51 1 1 1
v -0.5 0.7739 -0.51 1 1 1
v -0.3 0.7739 -0.51 1 1 1
v -0.5 0.8239 -0.51 1 1 1
v -0.3 0.8239 -0.51 1 1 1
v -0.309 0.13 -0.501 1 1 1
v -0.491 0.7539 -0.501 1 1 1
v -0.309 0.7539 -0.501 1 1 1
v -0.309 0.7539 -0.319 1 1 1
v -0.491 0.7539 -0.319 1 1 1
v -0.3 0.7739 -0.31 1 1 1
v -0.5 0.7739 -0.31 1 1 1
v -0.3 0.8239 -0.31 1 1 1
v -0.5 0.8239 -0.31 1 1 1
v -0.309 0.13 -0.352914 1 1 1
v -0.309 0.13 -0.467086 1 1 1
v 0.5 0 -0.32 1 1 1
v 0.5 0.11 -0.493 1 1 1
v 0.5 0.11 -0.467086 1 1 1
v 0.5 0.11 -0.352914 1 1 1
v 0.5 0.11 -0.327 1 1 1
v 0.5 0.09 -0.32 1 1 1
v 0.5 0.701914 -0.477086 1 1 1
v 0.5 0.601914 -0.477086 1 1 1
v 0.5 0.701914 -0.342914 1 1 1
v 0.5 0.601914 -0.467086 1 1 1
v 0.5 0.601914 -0.352914 1 1 1
v 0.5 0.601914 -0.342914 1 1 1
v 0.3033101 0.4672113 -0.327 1 1 1
v 0.1623701 0.4672113 -0.327 1 1 1
v 0.3033101 0.5372114 -0.327 1 1 1
v 0.1623701 0.5372114 -0.327 1 1 1
v 0.3033101 0.4672113 -0.352914 1 1 1
v 0.1623701 0.4672113 -0.352914 1 1 1
v 0.3033101 0.5372114 -0.352914 1 1 1
v 0.1623701 0.5372114 -0.352914 1 1 1
v 0.2033101 0.3672113 -0.327 1 1 1
v 0.06237008 0.3672113 -0.327 1 1 1
v 0.2033101 0.4372113 -0.327 1 1 1
v 0.06237008 0.4372113 -0.327 1 1 1
v 0.2033101 0.3672113 -0.352914 1 1 1
v 0.06237008 0.3672113 -0.352914 1 1 1
v 0.2033101 0.4372113 -0.352914 1 1 1
v 0.06237008 0.4372113 -0.352914 1 1 1
v 0.2639682 0.2247615 -0.493 1 1 1
v 0.4049082 0.2247615 -0.493 1 1 1
v 0.2639682 0.2947615 -0.493 1 1 1
v 0.4049082 0.2947615 -0.493 1 1 1
v 0.2639682 0.2247615 -0.467086 1 1 1
v 0.4049082 0.2247615 -0.467086 1 1 1
v 0.2639682 0.2947615 -0.467086 1 1 1
v 0.4049082 0.2947615 -0.467086 1 1 1
v -0.2360318 0.4247615 -0.493 1 1 1
v -0.0950918 0.4247615 -0.493 1 1 1
v -0.2360318 0.4947615 -0.493 1 1 1
v -0.0950918 0.4947615 -0.493 1 1 1
v -0.2360318 0.4247615 -0.467086 1 1 1
v -0.0950918 0.4247615 -0.467086 1 1 1
v -0.2360318 0.4947615 -0.467086 1 1 1
v -0.0950918 0.4947615 -0.467086 1 1 1

vn 0 1 0
vn 0 0 -1
vn 0 0.1675435 -0.9858646
vn 0 0.3303504 -0.9438583
vn 0 -1 0
vn 0 0 1
vn 0 0.1675435 0.9858646
vn 0 0.1800796 0.983652
vn 0 0.4103647 0.9119215
vn -0.983652 0.1800796 0
vn -0.9119215 0.4103647 0
vn 1 0 0
vn 0.983652 0.1800796 0
vn 0.9539312 0.3000256 0
vn 0 -0.1800796 -0.983652
vn -1 0 0
vn 0 0.1800796 -0.983652
vn 0 -0.4103647 0.9119215
vn 0 -0.1800796 0.983652
vn 0 -0.4103647 -0.9119215
vn -0.983652 -0.1800796 0
vn -0.9119215 -0.4103647 0
vn 0.983652 -0.1800796 0
vn 0.9119215 -0.4103647 0
vn 0 0.4103647 -0.9119215
vn 0.9119215 0.4103647 0
vn 0 0.3303504 0.9438583
vn 1.74305E-14 0 -1
vn -1 0 -1.74305E-14
vn 1 0 1.74305E-14

vt 0.71875 0.05170227
vt 0.71875 0.1711134
vt 0.71875 0.1953881
vt 0.71875 0.04684731
vt 0.71875 0.025
vt 0.71875 0.05655723
vt 0.71875 0.2128626
vt 0.71875 0.225
vt 0.71875 0.2080076
vt 0.71875 0.05064417
vt 0.71875 0.05634287
vt 0.71875 0.1965065
vt 0.34375 0.05170227
vt 0.34375 0.05655723
vt 0.34375 0.1711134
vt 0.28125 0.125

usemtl colormap

f 3/1/1 2/1/1 1/1/1
f 2/1/1 3/1/1 4/1/1
f 7/3/2 6/2/2 5/2/2
f 6/2/2 7/3/2 8/3/2
f 7/3/1 9/3/1 8/3/1
f 9/3/1 7/3/1 10/3/1
f 13/1/1 12/1/1 11/1/1
f 12/1/1 13/1/1 14/1/1
f 16/4/3 11/1/4 15/4/3
f 11/1/4 16/4/3 13/1/4
f 18/2/5 6/2/5 17/2/5
f 6/2/5 18/2/5 5/2/5
f 21/2/5 20/2/5 19/2/5
f 20/2/5 21/2/5 22/2/5
f 16/4/3 24/5/2 23/5/2
f 24/5/2 16/4/3 15/4/3
f 27/5/6 26/4/7 25/5/6
f 26/4/7 27/5/6 28/4/7
f 31/6/9 30/1/8 29/1/8
f 30/1/8 31/6/9 32/6/9
f 30/1/10 34/6/11 33/1/10
f 34/6/11 30/1/10 32/6/11
f 36/5/5 25/5/5 35/5/5
f 25/5/5 36/5/5 23/5/5
f 24/5/5 25/5/5 23/5/5
f 25/5/5 24/5/5 27/5/5
f 23/5/5 36/5/5 37/5/5
f 37/5/5 36/5/5 38/5/5
f 38/5/5 36/5/5 39/5/5
f 40/1/13 23/5/12 37/5/12
f 23/5/12 40/1/13 16/4/12
f 16/4/12 40/1/13 13/1/14
f 43/8/2 42/7/15 41/7/15
f 42/7/15 43/8/2 44/8/2
f 39/5/16 33/1/10 38/5/16
f 33/1/10 39/5/16 30/1/10
f 30/1/10 39/5/16 36/5/16
f 46/9/2 45/6/2 34/6/2
f 45/6/2 46/9/2 47/9/2
f 33/1/17 37/5/2 38/5/2
f 37/5/2 33/1/17 40/1/17
f 50/7/19 49/9/18 48/9/18
f 49/9/18 50/7/19 51/7/19
f 43/8/1 52/8/1 44/8/1
f 52/8/1 43/8/1 53/8/1
f 21/2/12 54/6/12 22/2/12
f 54/6/12 21/2/12 31/6/12
f 31/6/12 21/2/12 48/9/12
f 10/3/12 48/9/12 21/2/12
f 7/3/12 48/9/12 10/3/12
f 7/3/12 47/9/12 48/9/12
f 47/9/12 7/3/12 45/6/12
f 5/2/12 45/6/12 7/3/12
f 45/6/12 5/2/12 55/6/12
f 55/6/12 5/2/12 18/2/12
f 41/7/15 47/9/20 46/9/20
f 47/9/20 41/7/15 42/7/15
f 46/9/22 51/7/21 41/7/21
f 51/7/21 46/9/22 49/9/22
f 51/7/21 43/8/16 41/7/21
f 43/8/16 51/7/21 53/8/16
f 32/6/16 46/9/16 34/6/16
f 46/9/16 32/6/16 49/9/16
f 52/8/6 51/7/19 50/7/19
f 51/7/19 52/8/6 53/8/6
f 48/9/6 32/6/6 31/6/6
f 32/6/6 48/9/6 49/9/6
f 52/8/12 42/7/23 44/8/12
f 42/7/23 52/8/12 50/7/23
f 50/7/23 47/9/24 42/7/23
f 47/9/24 50/7/23 48/9/24
f 34/6/25 40/1/17 33/1/17
f 40/1/17 34/6/25 45/6/25
f 45/6/26 13/1/14 40/1/13
f 13/1/14 45/6/26 55/6/26
f 13/1/14 55/6/26 14/1/26
f 31/6/26 3/1/26 54/6/26
f 3/1/26 31/6/26 4/1/14
f 4/1/14 31/6/26 29/1/13
f 2/1/27 26/4/7 28/4/7
f 26/4/7 2/1/27 4/1/27
f 9/3/6 21/2/6 19/2/6
f 21/2/6 9/3/6 10/3/6
f 29/1/13 26/4/12 4/1/14
f 26/4/12 29/1/13 25/5/12
f 25/5/12 29/1/13 35/5/12
f 29/1/8 36/5/6 35/5/6
f 36/5/6 29/1/8 30/1/8
f 15/10/12 56/5/12 24/5/12
f 56/5/12 15/10/12 57/11/12
f 56/5/12 57/11/12 58/11/12
f 56/5/12 58/11/12 59/11/12
f 56/5/12 59/11/12 60/11/12
f 56/5/12 60/11/12 61/10/12
f 64/8/12 63/12/12 62/8/12
f 63/12/12 64/8/12 65/12/12
f 65/12/12 64/8/12 66/12/12
f 66/12/12 64/8/12 67/12/12
f 1/13/6 54/14/6 3/13/6
f 54/14/6 1/13/6 20/15/6
f 54/14/6 20/15/6 22/15/6
f 55/14/2 12/13/2 14/13/2
f 12/13/2 55/14/2 17/15/2
f 17/15/2 55/14/2 18/15/2
f 20/15/12 12/13/12 17/15/12
f 12/13/12 20/15/12 1/13/12
f 70/16/6 69/16/6 68/16/6
f 69/16/6 70/16/6 71/16/6
f 69/16/5 72/16/5 68/16/5
f 72/16/5 69/16/5 73/16/5
f 70/16/12 72/16/12 74/16/12
f 72/16/12 70/16/12 68/16/12
f 75/16/1 70/16/1 74/16/1
f 70/16/1 75/16/1 71/16/1
f 69/16/16 75/16/16 73/16/16
f 75/16/16 69/16/16 71/16/16
f 78/16/6 77/16/6 76/16/6
f 77/16/6 78/16/6 79/16/6
f 77/16/5 80/16/5 76/16/5
f 80/16/5 77/16/5 81/16/5
f 78/16/12 80/16/12 82/16/12
f 80/16/12 78/16/12 76/16/12
f 83/16/1 78/16/1 82/16/1
f 78/16/1 83/16/1 79/16/1
f 77/16/16 83/16/16 81/16/16
f 83/16/16 77/16/16 79/16/16
f 86/16/28 85/16/28 84/16/28
f 85/16/28 86/16/28 87/16/28
f 85/16/5 88/16/5 84/16/5
f 88/16/5 85/16/5 89/16/5
f 86/16/29 88/16/29 90/16/29
f 88/16/29 86/16/29 84/16/29
f 91/16/1 86/16/1 90/16/1
f 86/16/1 91/16/1 87/16/1
f 85/16/30 91/16/30 89/16/30
f 91/16/30 85/16/30 87/16/30
f 94/16/28 93/16/28 92/16/28
f 93/16/28 94/16/28 95/16/28
f 93/16/5 96/16/5 92/16/5
f 96/16/5 93/16/5 97/16/5
f 94/16/29 96/16/29 98/16/29
f 96/16/29 94/16/29 92/16/29
f 99/16/1 94/16/1 98/16/1
f 94/16/1 99/16/1 95/16/1
f 93/16/30 99/16/30 97/16/30
f 99/16/30 93/16/30 95/16/30

g brick-wall-end




usemtl colormap

f 3/1/1 2/1/1 1/1/1
f 2/1/1 3/1/1 4/1/1
f 7/3/2 6/2/2 5/2/2
f 6/2/2 7/3/2 8/3/2
f 7/3/1 9/3/1 8/3/1
f 9/3/1 7/3/1 10/3/1
f 13/1/1 12/1/1 11/1/1
f 12/1/1 13/1/1 14/1/1
f 16/4/3 11/1/4 15/4/3
f 11/1/4 16/4/3 13/1/4
f 18/2/5 6/2/5 17/2/5
f 6/2/5 18/2/5 5/2/5
f 21/2/5 20/2/5 19/2/5
f 20/2/5 21/2/5 22/2/5
f 16/4/3 24/5/2 23/5/2
f 24/5/2 16/4/3 15/4/3
f 27/5/6 26/4/7 25/5/6
f 26/4/7 27/5/6 28/4/7
f 31/6/9 30/1/8 29/1/8
f 30/1/8 31/6/9 32/6/9
f 30/1/10 34/6/11 33/1/10
f 34/6/11 30/1/10 32/6/11
f 36/5/5 25/5/5 35/5/5
f 25/5/5 36/5/5 23/5/5
f 24/5/5 25/5/5 23/5/5
f 25/5/5 24/5/5 27/5/5
f 23/5/5 36/5/5 37/5/5
f 37/5/5 36/5/5 38/5/5
f 38/5/5 36/5/5 39/5/5
f 40/1/13 23/5/12 37/5/12
f 23/5/12 40/1/13 16/4/12
f 16/4/12 40/1/13 13/1/14
f 43/8/2 42/7/15 41/7/15
f 42/7/15 43/8/2 44/8/2
f 39/5/16 33/1/10 38/5/16
f 33/1/10 39/5/16 30/1/10
f 30/1/10 39/5/16 36/5/16
f 46/9/2 45/6/2 34/6/2
f 45/6/2 46/9/2 47/9/2
f 33/1/17 37/5/2 38/5/2
f 37/5/2 33/1/17 40/1/17
f 50/7/19 49/9/18 48/9/18
f 49/9/18 50/7/19 51/7/19
f 43/8/1 52/8/1 44/8/1
f 52/8/1 43/8/1 53/8/1
f 21/2/12 54/6/12 22/2/12
f 54/6/12 21/2/12 31/6/12
f 31/6/12 21/2/12 48/9/12
f 10/3/12 48/9/12 21/2/12
f 7/3/12 48/9/12 10/3/12
f 7/3/12 47/9/12 48/9/12
f 47/9/12 7/3/12 45/6/12
f 5/2/12 45/6/12 7/3/12
f 45/6/12 5/2/12 55/6/12
f 55/6/12 5/2/12 18/2/12
f 41/7/15 47/9/20 46/9/20
f 47/9/20 41/7/15 42/7/15
f 46/9/22 51/7/21 41/7/21
f 51/7/21 46/9/22 49/9/22
f 51/7/21 43/8/16 41/7/21
f 43/8/16 51/7/21 53/8/16
f 32/6/16 46/9/16 34/6/16
f 46/9/16 32/6/16 49/9/16
f 52/8/6 51/7/19 50/7/19
f 51/7/19 52/8/6 53/8/6
f 48/9/6 32/6/6 31/6/6
f 32/6/6 48/9/6 49/9/6
f 52/8/12 42/7/23 44/8/12
f 42/7/23 52/8/12 50/7/23
f 50/7/23 47/9/24 42/7/23
f 47/9/24 50/7/23 48/9/24
f 34/6/25 40/1/17 33/1/17
f 40/1/17 34/6/25 45/6/25
f 45/6/26 13/1/14 40/1/13
f 13/1/14 45/6/26 55/6/26
f 13/1/14 55/6/26 14/1/26
f 31/6/26 3/1/26 54/6/26
f 3/1/26 31/6/26 4/1/14
f 4/1/14 31/6/26 29/1/13
f 2/1/27 26/4/7 28/4/7
f 26/4/7 2/1/27 4/1/27
f 9/3/6 21/2/6 19/2/6
f 21/2/6 9/3/6 10/3/6
f 29/1/13 26/4/12 4/1/14
f 26/4/12 29/1/13 25/5/12
f 25/5/12 29/1/13 35/5/12
f 29/1/8 36/5/6 35/5/6
f 36/5/6 29/1/8 30/1/8
f 15/10/12 56/5/12 24/5/12
f 56/5/12 15/10/12 57/11/12
f 56/5/12 57/11/12 58/11/12
f 56/5/12 58/11/12 59/11/12
f 56/5/12 59/11/12 60/11/12
f 56/5/12 60/11/12 61/10/12
f 64/8/12 63/12/12 62/8/12
f 63/12/12 64/8/12 65/12/12
f 65/12/12 64/8/12 66/12/12
f 66/12/12 64/8/12 67/12/12
f 1/13/6 54/14/6 3/13/6
f 54/14/6 1/13/6 20/15/6
f 54/14/6 20/15/6 22/15/6
f 55/14/2 12/13/2 14/13/2
f 12/13/2 55/14/2 17/15/2
f 17/15/2 55/14/2 18/15/2
f 20/15/12 12/13/12 17/15/12
f 12/13/12 20/15/12 1/13/12
f 70/16/6 69/16/6 68/16/6
f 69/16/6 70/16/6 71/16/6
f 69/16/5 72/16/5 68/16/5
f 72/16/5 69/16/5 73/16/5
f 70/16/12 72/16/12 74/16/12
f 72/16/12 70/16/12 68/16/12
f 75/16/1 70/16/1 74/16/1
f 70/16/1 75/16/1 71/16/1
f 69/16/16 75/16/16 73/16/16
f 75/16/16 69/16/16 71/16/16
f 78/16/6 77/16/6 76/16/6
f 77/16/6 78/16/6 79/16/6
f 77/16/5 80/16/5 76/16/5
f 80/16/5 77/16/5 81/16/5
f 78/16/12 80/16/12 82/16/12
f 80/16/12 78/16/12 76/16/12
f 83/16/1 78/16/1 82/16/1
f 78/16/1 83/16/1 79/16/1
f 77/16/16 83/16/16 81/16/16
f 83/16/16 77/16/16 79/16/16
f 86/16/28 85/16/28 84/16/28
f 85/16/28 86/16/28 87/16/28
f 85/16/5 88/16/5 84/16/5
f 88/16/5 85/16/5 89/16/5
f 86/16/29 88/16/29 90/16/29
f 88/16/29 86/16/29 84/16/29
f 91/16/1 86/16/1 90/16/1
f 86/16/1 91/16/1 87/16/1
f 85/16/30 91/16/30 89/16/30
f 91/16/30 85/16/30 87/16/30
f 94/16/28 93/16/28 92/16/28
f 93/16/28 94/16/28 95/16/28
f 93/16/5 96/16/5 92/16/5
f 96/16/5 93/16/5 97/16/5
f 94/16/29 96/16/29 98/16/29
f 96/16/29 94/16/29 92/16/29
f 99/16/1 94/16/1 98/16/1
f 94/16/1 99/16/1 95/16/1
f 93/16/30 99/16/30 97/16/30
f 99/16/30 93/16/30 95/16/30

