# Created by Kenney (www.kenney.nl)

mtllib candle-multiple.mtl

g candle-multiple

v 0.05610599 0.066 -0.01737675 1 1 1
v 0.05610599 0.066 -0.004876749 1 1 1
v 0.05766849 0.05 -0.01581425 1 1 1
v 0.05766849 0.05 -0.006439249 1 1 1
v 0.06704349 0.05 -0.01581425 1 1 1
v 0.06860599 0.066 -0.01737675 1 1 1
v 0.06860599 0.066 -0.004876749 1 1 1
v 0.06704349 0.05 -0.006439249 1 1 1
v -0.06116142 0.05 0.02845083 1 1 1
v -0.05178642 0.05 0.02845083 1 1 1
v -0.06272391 0.066 0.02688833 1 1 1
v -0.05022392 0.066 0.02688833 1 1 1
v -0.06272391 0.066 0.03938833 1 1 1
v -0.06116142 0.05 0.03782583 1 1 1
v -0.05178642 0.05 0.03782583 1 1 1
v -0.05022392 0.066 0.03938833 1 1 1
v -0.00625 0.116 -0.00625 1 1 1
v -0.00625 0.116 0.00625 1 1 1
v -0.0046875 0.1 -0.0046875 1 1 1
v -0.0046875 0.1 0.0046875 1 1 1
v 0.0046875 0.1 0.0046875 1 1 1
v 0.00625 0.116 0.00625 1 1 1
v 0.00625 0.116 -0.00625 1 1 1
v 0.0046875 0.1 -0.0046875 1 1 1
v 0.08735599 0.05 0.001373251 1 1 1
v 0.08735599 0 0.001373251 1 1 1
v 0.07485599 0.05 0.01387325 1 1 1
v 0.07485599 0 0.01387325 1 1 1
v 0.08735599 0.05 -0.02362675 1 1 1
v 0.07485599 0.05 -0.03612675 1 1 1
v 0.04985599 0.05 -0.03612675 1 1 1
v 0.04985599 0.05 0.01387325 1 1 1
v 0.03735599 0.05 -0.02362675 1 1 1
v 0.03735599 0.05 0.001373251 1 1 1
v 0.04985599 0 -0.03612675 1 1 1
v 0.07485599 0 -0.03612675 1 1 1
v 0.04985599 0 0.01387325 1 1 1
v 0.03735599 0 -0.02362675 1 1 1
v 0.08735599 0 -0.02362675 1 1 1
v 0.03735599 0 0.001373251 1 1 1
v -0.04397392 0 0.05813833 1 1 1
v -0.06897391 0 0.05813833 1 1 1
v -0.04397392 0.05 0.05813833 1 1 1
v -0.06897391 0.05 0.05813833 1 1 1
v -0.08147392 0 0.02063833 1 1 1
v -0.06897391 0 0.00813833 1 1 1
v -0.08147392 0.05 0.02063833 1 1 1
v -0.06897391 0.05 0.00813833 1 1 1
v -0.08147392 0 0.04563833 1 1 1
v -0.08147392 0.05 0.04563833 1 1 1
v -0.03147392 0.05 0.02063833 1 1 1
v -0.03147392 0.05 0.04563833 1 1 1
v -0.04397392 0.05 0.00813833 1 1 1
v -0.04397392 0 0.00813833 1 1 1
v -0.03147392 0 0.04563833 1 1 1
v -0.03147392 0 0.02063833 1 1 1
v 0.025 0.1 -0.0125 1 1 1
v 0.025 0 -0.0125 1 1 1
v 0.025 0.1 0.0125 1 1 1
v 0.025 0 0.0125 1 1 1
v -0.025 0 -0.0125 1 1 1
v -0.0125 0 -0.025 1 1 1
v -0.025 0.1 -0.0125 1 1 1
v -0.0125 0.1 -0.025 1 1 1
v -0.025 0 0.0125 1 1 1
v -0.025 0.1 0.0125 1 1 1
v 0.0125 0.1 0.025 1 1 1
v 0.0125 0 0.025 1 1 1
v 0.0125 0 -0.025 1 1 1
v 0.0125 0.1 -0.025 1 1 1
v -0.0125 0.1 0.025 1 1 1
v -0.0125 0 0.025 1 1 1

vn -0.3407921 -0.2662439 -0.3407921
vn -0.3407921 -0.2662439 0.3407921
vn 0.3407921 -0.2662439 -0.3407921
vn 0 1 0
vn 0.3407921 -0.2662439 0.3407921
vn 0.4619398 0 0.1913417
vn 0.1913417 0 0.4619398
vn -0.1913417 0 -0.4619398
vn 0.1913417 0 -0.4619398
vn -0.1913417 0 0.4619398
vn -0.4619398 0 -0.1913417
vn 0.4619398 0 -0.1913417
vn -0.4619398 0 0.1913417
vn 0 -1 0

vt 0.96875 0.1387931
vt 0.96875 0.1112069
vt 0.96875 0.225
vt 0.96875 0.1974138
vt 0.09375 0.3612069
vt 0.09375 0.275
vt 0.09375 0.4474138

usemtl colormap

f 3/2/1 2/1/2 1/1/1
f 2/1/2 3/2/1 4/2/2
f 1/1/1 5/2/3 3/2/1
f 5/2/3 1/1/1 6/1/3
f 1/1/4 7/1/4 6/1/4
f 7/1/4 1/1/4 2/1/4
f 7/1/5 4/2/2 8/2/5
f 4/2/2 7/1/5 2/1/2
f 7/1/5 5/2/3 6/1/3
f 5/2/3 7/1/5 8/2/5
f 11/1/1 10/2/3 9/2/1
f 10/2/3 11/1/1 12/1/3
f 9/2/1 13/1/2 11/1/1
f 13/1/2 9/2/1 14/2/2
f 16/1/5 14/2/2 15/2/5
f 14/2/2 16/1/5 13/1/2
f 11/1/4 16/1/4 12/1/4
f 16/1/4 11/1/4 13/1/4
f 16/1/5 10/2/3 12/1/3
f 10/2/3 16/1/5 15/2/5
f 19/4/1 18/3/2 17/3/1
f 18/3/2 19/4/1 20/4/2
f 22/3/5 20/4/2 21/4/5
f 20/4/2 22/3/5 18/3/2
f 17/3/4 22/3/4 23/3/4
f 22/3/4 17/3/4 18/3/4
f 17/3/1 24/4/3 19/4/1
f 24/4/3 17/3/1 23/3/3
f 22/3/5 24/4/3 23/3/3
f 24/4/3 22/3/5 21/4/5
f 27/5/7 26/6/6 25/5/6
f 26/6/6 27/5/7 28/6/7
f 30/5/4 25/5/4 29/5/4
f 25/5/4 30/5/4 27/5/4
f 27/5/4 30/5/4 5/5/4
f 5/5/4 30/5/4 31/5/4
f 8/5/4 27/5/4 5/5/4
f 5/5/4 31/5/4 3/5/4
f 27/5/4 8/5/4 32/5/4
f 3/5/4 31/5/4 4/5/4
f 32/5/4 8/5/4 4/5/4
f 32/5/4 4/5/4 31/5/4
f 32/5/4 31/5/4 33/5/4
f 32/5/4 33/5/4 34/5/4
f 31/5/8 36/6/9 35/6/8
f 36/6/9 31/5/8 30/5/9
f 27/5/7 37/6/10 28/6/7
f 37/6/10 27/5/7 32/5/10
f 33/5/11 35/6/8 38/6/11
f 35/6/8 33/5/11 31/5/8
f 25/5/6 39/6/12 29/5/12
f 39/6/12 25/5/6 26/6/6
f 30/5/9 39/6/12 36/6/9
f 39/6/12 30/5/9 29/5/12
f 40/6/13 33/5/11 38/6/11
f 33/5/11 40/6/13 34/5/13
f 28/6/14 39/6/14 26/6/14
f 39/6/14 28/6/14 36/6/14
f 36/6/14 28/6/14 37/6/14
f 36/6/14 37/6/14 35/6/14
f 35/6/14 37/6/14 40/6/14
f 35/6/14 40/6/14 38/6/14
f 32/5/10 40/6/13 37/6/10
f 40/6/13 32/5/10 34/5/13
f 43/5/7 42/6/10 41/6/7
f 42/6/10 43/5/7 44/5/10
f 47/5/11 46/6/8 45/6/11
f 46/6/8 47/5/11 48/5/8
f 49/6/13 47/5/11 45/6/11
f 47/5/11 49/6/13 50/5/13
f 53/5/4 52/5/4 51/5/4
f 52/5/4 53/5/4 43/5/4
f 43/5/4 53/5/4 10/5/4
f 10/5/4 53/5/4 48/5/4
f 15/5/4 43/5/4 10/5/4
f 10/5/4 48/5/4 9/5/4
f 43/5/4 15/5/4 44/5/4
f 9/5/4 48/5/4 14/5/4
f 44/5/4 15/5/4 14/5/4
f 44/5/4 14/5/4 48/5/4
f 44/5/4 48/5/4 47/5/4
f 44/5/4 47/5/4 50/5/4
f 44/5/10 49/6/13 42/6/10
f 49/6/13 44/5/10 50/5/13
f 48/5/8 54/6/9 46/6/8
f 54/6/9 48/5/8 53/5/9
f 41/6/14 56/6/14 55/6/14
f 56/6/14 41/6/14 54/6/14
f 54/6/14 41/6/14 42/6/14
f 54/6/14 42/6/14 46/6/14
f 46/6/14 42/6/14 49/6/14
f 46/6/14 49/6/14 45/6/14
f 52/5/6 56/6/12 51/5/12
f 56/6/12 52/5/6 55/6/6
f 43/5/7 55/6/6 52/5/6
f 55/6/6 43/5/7 41/6/7
f 53/5/9 56/6/12 54/6/9
f 56/6/12 53/5/9 51/5/12
f 59/7/6 58/6/12 57/7/12
f 58/6/12 59/7/6 60/6/6
f 63/7/11 62/6/8 61/6/11
f 62/6/8 63/7/11 64/7/8
f 65/6/13 63/7/11 61/6/11
f 63/7/11 65/6/13 66/7/13
f 67/7/7 60/6/6 59/7/6
f 60/6/6 67/7/7 68/6/7
f 64/7/8 69/6/9 62/6/8
f 69/6/9 64/7/8 70/7/9
f 70/7/4 59/7/4 57/7/4
f 59/7/4 70/7/4 67/7/4
f 67/7/4 70/7/4 24/7/4
f 24/7/4 70/7/4 64/7/4
f 21/7/4 67/7/4 24/7/4
f 24/7/4 64/7/4 19/7/4
f 67/7/4 21/7/4 71/7/4
f 19/7/4 64/7/4 20/7/4
f 71/7/4 21/7/4 20/7/4
f 71/7/4 20/7/4 64/7/4
f 71/7/4 64/7/4 63/7/4
f 71/7/4 63/7/4 66/7/4
f 70/7/9 58/6/12 69/6/9
f 58/6/12 70/7/9 57/7/12
f 71/7/10 65/6/13 72/6/10
f 65/6/13 71/7/10 66/7/13
f 68/6/14 58/6/14 60/6/14
f 58/6/14 68/6/14 69/6/14
f 69/6/14 68/6/14 72/6/14
f 69/6/14 72/6/14 62/6/14
f 62/6/14 72/6/14 65/6/14
f 62/6/14 65/6/14 61/6/14
f 67/7/7 72/6/10 68/6/7
f 72/6/10 67/7/7 71/7/10

g candle-multiple




usemtl colormap

f 3/2/1 2/1/2 1/1/1
f 2/1/2 3/2/1 4/2/2
f 1/1/1 5/2/3 3/2/1
f 5/2/3 1/1/1 6/1/3
f 1/1/4 7/1/4 6/1/4
f 7/1/4 1/1/4 2/1/4
f 7/1/5 4/2/2 8/2/5
f 4/2/2 7/1/5 2/1/2
f 7/1/5 5/2/3 6/1/3
f 5/2/3 7/1/5 8/2/5
f 11/1/1 10/2/3 9/2/1
f 10/2/3 11/1/1 12/1/3
f 9/2/1 13/1/2 11/1/1
f 13/1/2 9/2/1 14/2/2
f 16/1/5 14/2/2 15/2/5
f 14/2/2 16/1/5 13/1/2
f 11/1/4 16/1/4 12/1/4
f 16/1/4 11/1/4 13/1/4
f 16/1/5 10/2/3 12/1/3
f 10/2/3 16/1/5 15/2/5
f 19/4/1 18/3/2 17/3/1
f 18/3/2 19/4/1 20/4/2
f 22/3/5 20/4/2 21/4/5
f 20/4/2 22/3/5 18/3/2
f 17/3/4 22/3/4 23/3/4
f 22/3/4 17/3/4 18/3/4
f 17/3/1 24/4/3 19/4/1
f 24/4/3 17/3/1 23/3/3
f 22/3/5 24/4/3 23/3/3
f 24/4/3 22/3/5 21/4/5
f 27/5/7 26/6/6 25/5/6
f 26/6/6 27/5/7 28/6/7
f 30/5/4 25/5/4 29/5/4
f 25/5/4 30/5/4 27/5/4
f 27/5/4 30/5/4 5/5/4
f 5/5/4 30/5/4 31/5/4
f 8/5/4 27/5/4 5/5/4
f 5/5/4 31/5/4 3/5/4
f 27/5/4 8/5/4 32/5/4
f 3/5/4 31/5/4 4/5/4
f 32/5/4 8/5/4 4/5/4
f 32/5/4 4/5/4 31/5/4
f 32/5/4 31/5/4 33/5/4
f 32/5/4 33/5/4 34/5/4
f 31/5/8 36/6/9 35/6/8
f 36/6/9 31/5/8 30/5/9
f 27/5/7 37/6/10 28/6/7
f 37/6/10 27/5/7 32/5/10
f 33/5/11 35/6/8 38/6/11
f 35/6/8 33/5/11 31/5/8
f 25/5/6 39/6/12 29/5/12
f 39/6/12 25/5/6 26/6/6
f 30/5/9 39/6/12 36/6/9
f 39/6/12 30/5/9 29/5/12
f 40/6/13 33/5/11 38/6/11
f 33/5/11 40/6/13 34/5/13
f 28/6/14 39/6/14 26/6/14
f 39/6/14 28/6/14 36/6/14
f 36/6/14 28/6/14 37/6/14
f 36/6/14 37/6/14 35/6/14
f 35/6/14 37/6/14 40/6/14
f 35/6/14 40/6/14 38/6/14
f 32/5/10 40/6/13 37/6/10
f 40/6/13 32/5/10 34/5/13
f 43/5/7 42/6/10 41/6/7
f 42/6/10 43/5/7 44/5/10
f 47/5/11 46/6/8 45/6/11
f 46/6/8 47/5/11 48/5/8
f 49/6/13 47/5/11 45/6/11
f 47/5/11 49/6/13 50/5/13
f 53/5/4 52/5/4 51/5/4
f 52/5/4 53/5/4 43/5/4
f 43/5/4 53/5/4 10/5/4
f 10/5/4 53/5/4 48/5/4
f 15/5/4 43/5/4 10/5/4
f 10/5/4 48/5/4 9/5/4
f 43/5/4 15/5/4 44/5/4
f 9/5/4 48/5/4 14/5/4
f 44/5/4 15/5/4 14/5/4
f 44/5/4 14/5/4 48/5/4
f 44/5/4 48/5/4 47/5/4
f 44/5/4 47/5/4 50/5/4
f 44/5/10 49/6/13 42/6/10
f 49/6/13 44/5/10 50/5/13
f 48/5/8 54/6/9 46/6/8
f 54/6/9 48/5/8 53/5/9
f 41/6/14 56/6/14 55/6/14
f 56/6/14 41/6/14 54/6/14
f 54/6/14 41/6/14 42/6/14
f 54/6/14 42/6/14 46/6/14
f 46/6/14 42/6/14 49/6/14
f 46/6/14 49/6/14 45/6/14
f 52/5/6 56/6/12 51/5/12
f 56/6/12 52/5/6 55/6/6
f 43/5/7 55/6/6 52/5/6
f 55/6/6 43/5/7 41/6/7
f 53/5/9 56/6/12 54/6/9
f 56/6/12 53/5/9 51/5/12
f 59/7/6 58/6/12 57/7/12
f 58/6/12 59/7/6 60/6/6
f 63/7/11 62/6/8 61/6/11
f 62/6/8 63/7/11 64/7/8
f 65/6/13 63/7/11 61/6/11
f 63/7/11 65/6/13 66/7/13
f 67/7/7 60/6/6 59/7/6
f 60/6/6 67/7/7 68/6/7
f 64/7/8 69/6/9 62/6/8
f 69/6/9 64/7/8 70/7/9
f 70/7/4 59/7/4 57/7/4
f 59/7/4 70/7/4 67/7/4
f 67/7/4 70/7/4 24/7/4
f 24/7/4 70/7/4 64/7/4
f 21/7/4 67/7/4 24/7/4
f 24/7/4 64/7/4 19/7/4
f 67/7/4 21/7/4 71/7/4
f 19/7/4 64/7/4 20/7/4
f 71/7/4 21/7/4 20/7/4
f 71/7/4 20/7/4 64/7/4
f 71/7/4 64/7/4 63/7/4
f 71/7/4 63/7/4 66/7/4
f 70/7/9 58/6/12 69/6/9
f 58/6/12 70/7/9 57/7/12
f 71/7/10 65/6/13 72/6/10
f 65/6/13 71/7/10 66/7/13
f 68/6/14 58/6/14 60/6/14
f 58/6/14 68/6/14 69/6/14
f 69/6/14 68/6/14 72/6/14
f 69/6/14 72/6/14 62/6/14
f 62/6/14 72/6/14 65/6/14
f 62/6/14 65/6/14 61/6/14
f 67/7/7 72/6/10 68/6/7
f 72/6/10 67/7/7 71/7/10

