# Created by Kenney (www.kenney.nl)

mtllib candle.mtl

g candle

v 0.025 0 0.0125 1 1 1
v 0.025 0 -0.0125 1 1 1
v 0.0125 0 0.025 1 1 1
v 0.0125 0 -0.025 1 1 1
v -0.0125 0 0.025 1 1 1
v -0.0125 0 -0.025 1 1 1
v -0.025 0 0.0125 1 1 1
v -0.025 0 -0.0125 1 1 1
v -0.0125 0.1 0.025 1 1 1
v -0.025 0.1 0.0125 1 1 1
v 0.0125 0.1 0.025 1 1 1
v 0.025 0.1 0.0125 1 1 1
v 0.025 0.1 -0.0125 1 1 1
v 0.0125 0.1 -0.025 1 1 1
v -0.025 0.1 -0.0125 1 1 1
v -0.0125 0.1 -0.025 1 1 1
v 0.0046875 0.1 -0.0046875 1 1 1
v 0.0046875 0.1 0.0046875 1 1 1
v -0.0046875 0.1 -0.0046875 1 1 1
v -0.0046875 0.1 0.0046875 1 1 1
v 0.00625 0.116 -0.00625 1 1 1
v 0.00625 0.116 0.00625 1 1 1
v -0.00625 0.116 -0.00625 1 1 1
v -0.00625 0.116 0.00625 1 1 1

vn 0 -1 0
vn -0.1913417 0 0.4619398
vn -0.4619398 0 0.1913417
vn 0.1913417 0 0.4619398
vn 0.4619398 0 0.1913417
vn 0.4619398 0 -0.1913417
vn 0.1913417 0 -0.4619398
vn -0.4619398 0 -0.1913417
vn -0.1913417 0 -0.4619398
vn 0 1 0
vn -0.3407921 -0.2662439 -0.3407921
vn 0.3407921 -0.2662439 -0.3407921
vn -0.3407921 -0.2662439 0.3407921
vn 0.3407921 -0.2662439 0.3407921

vt 0.09375 0.275
vt 0.09375 0.4474138
vt 0.96875 0.225
vt 0.96875 0.1974138

usemtl colormap

f 3/1/1 2/1/1 1/1/1
f 2/1/1 3/1/1 4/1/1
f 4/1/1 3/1/1 5/1/1
f 4/1/1 5/1/1 6/1/1
f 6/1/1 5/1/1 7/1/1
f 6/1/1 7/1/1 8/1/1
f 9/2/2 7/1/3 5/1/2
f 7/1/3 9/2/2 10/2/3
f 11/2/4 5/1/2 3/1/4
f 5/1/2 11/2/4 9/2/2
f 11/2/4 1/1/5 12/2/5
f 1/1/5 11/2/4 3/1/4
f 12/2/5 2/1/6 13/2/6
f 2/1/6 12/2/5 1/1/5
f 14/2/7 2/1/6 4/1/7
f 2/1/6 14/2/7 13/2/6
f 15/2/8 6/1/9 8/1/8
f 6/1/9 15/2/8 16/2/9
f 7/1/3 15/2/8 8/1/8
f 15/2/8 7/1/3 10/2/3
f 16/2/9 4/1/7 6/1/9
f 4/1/7 16/2/9 14/2/7
f 14/2/10 12/2/10 13/2/10
f 12/2/10 14/2/10 11/2/10
f 11/2/10 14/2/10 17/2/10
f 17/2/10 14/2/10 16/2/10
f 18/2/10 11/2/10 17/2/10
f 17/2/10 16/2/10 19/2/10
f 11/2/10 18/2/10 9/2/10
f 19/2/10 16/2/10 20/2/10
f 9/2/10 18/2/10 20/2/10
f 9/2/10 20/2/10 16/2/10
f 9/2/10 16/2/10 15/2/10
f 9/2/10 15/2/10 10/2/10
f 23/3/10 22/3/10 21/3/10
f 22/3/10 23/3/10 24/3/10
f 23/3/11 17/4/12 19/4/11
f 17/4/12 23/3/11 21/3/12
f 19/4/11 24/3/13 23/3/11
f 24/3/13 19/4/11 20/4/13
f 22/3/14 20/4/13 18/4/14
f 20/4/13 22/3/14 24/3/13
f 22/3/14 17/4/12 21/3/12
f 17/4/12 22/3/14 18/4/14

g candle




usemtl colormap

f 3/1/1 2/1/1 1/1/1
f 2/1/1 3/1/1 4/1/1
f 4/1/1 3/1/1 5/1/1
f 4/1/1 5/1/1 6/1/1
f 6/1/1 5/1/1 7/1/1
f 6/1/1 7/1/1 8/1/1
f 9/2/2 7/1/3 5/1/2
f 7/1/3 9/2/2 10/2/3
f 11/2/4 5/1/2 3/1/4
f 5/1/2 11/2/4 9/2/2
f 11/2/4 1/1/5 12/2/5
f 1/1/5 11/2/4 3/1/4
f 12/2/5 2/1/6 13/2/6
f 2/1/6 12/2/5 1/1/5
f 14/2/7 2/1/6 4/1/7
f 2/1/6 14/2/7 13/2/6
f 15/2/8 6/1/9 8/1/8
f 6/1/9 15/2/8 16/2/9
f 7/1/3 15/2/8 8/1/8
f 15/2/8 7/1/3 10/2/3
f 16/2/9 4/1/7 6/1/9
f 4/1/7 16/2/9 14/2/7
f 14/2/10 12/2/10 13/2/10
f 12/2/10 14/2/10 11/2/10
f 11/2/10 14/2/10 17/2/10
f 17/2/10 14/2/10 16/2/10
f 18/2/10 11/2/10 17/2/10
f 17/2/10 16/2/10 19/2/10
f 11/2/10 18/2/10 9/2/10
f 19/2/10 16/2/10 20/2/10
f 9/2/10 18/2/10 20/2/10
f 9/2/10 20/2/10 16/2/10
f 9/2/10 16/2/10 15/2/10
f 9/2/10 15/2/10 10/2/10
f 23/3/10 22/3/10 21/3/10
f 22/3/10 23/3/10 24/3/10
f 23/3/11 17/4/12 19/4/11
f 17/4/12 23/3/11 21/3/12
f 19/4/11 24/3/13 23/3/11
f 24/3/13 19/4/11 20/4/13
f 22/3/14 20/4/13 18/4/14
f 20/4/13 22/3/14 24/3/13
f 22/3/14 17/4/12 21/3/12
f 17/4/12 22/3/14 18/4/14

