# Created by Kenney (www.kenney.nl)

mtllib coffin.mtl

g coffin

v 0.220247 0.0352 -0.009771725 1 1 1
v 0.190973 0.0352 -0.01633473 1 1 1
v 0.220247 0.1865 -0.009771725 1 1 1
v 0.190973 0.1865 -0.01633473 1 1 1
v 0.273125 0.1865 -0.2456257 1 1 1
v 0.266399 0.1865 -0.2156257 1 1 1
v 0.252947 0.1865 -0.2756257 1 1 1
v 0.236399 0.1865 -0.2156257 1 1 1
v 0.236399 0.1865 -0.2756257 1 1 1
v 0.097021 0.0352 -0.4782457 1 1 1
v 0.097021 0.1865 -0.4782457 1 1 1
v 0.097021 0.0352 -0.4182457 1 1 1
v 0.097021 0.1865 -0.4182457 1 1 1
v -0.12825 0 -0.4999997 1 1 1
v -0.12825 0.2052 -0.4999997 1 1 1
v -0.2964 0 -0.2499997 1 1 1
v -0.2964 0.2052 -0.2499997 1 1 1
v 0.12825 0.2052 -0.4999997 1 1 1
v 0.12825 0 -0.4999997 1 1 1
v 0.2964 0.2052 -0.2499997 1 1 1
v 0.2964 0 -0.2499997 1 1 1
v 0.236399 0.0352 -0.2756257 1 1 1
v 0.252947 0.0352 -0.2756257 1 1 1
v -0.236399 0.1865 -0.2756257 1 1 1
v -0.236399 0.0352 -0.2756257 1 1 1
v -0.236399 0.1865 -0.2156257 1 1 1
v -0.236399 0.0352 -0.2156257 1 1 1
v -0.266399 0.0352 -0.2156257 1 1 1
v -0.266399 0.1865 -0.2156257 1 1 1
v 0.266399 0.0352 -0.2156257 1 1 1
v 0.236399 0.0352 -0.2156257 1 1 1
v 0.237748 0.1865 -0.08783372 1 1 1
v 0.208475 0.1865 -0.09439673 1 1 1
v 0.12825 0.2052 0.5000003 1 1 1
v 0.12825 0 0.5000003 1 1 1
v 0.208475 0.0352 -0.09439673 1 1 1
v 0.237748 0.0352 -0.08783372 1 1 1
v -0.252947 0.1865 -0.2756257 1 1 1
v -0.273125 0.1865 -0.2456257 1 1 1
v -0.273125 0.2052 -0.2456257 1 1 1
v -0.110833 0.2052 0.4782463 1 1 1
v -0.237748 0.1865 -0.08783372 1 1 1
v -0.237748 0.0352 -0.08783372 1 1 1
v -0.220247 0.1865 -0.009771725 1 1 1
v -0.220247 0.0352 -0.009771725 1 1 1
v -0.116167 0.1865 0.4544553 1 1 1
v -0.110833 0.1865 0.4782463 1 1 1
v -0.116167 0.0352 0.4544553 1 1 1
v 0.110833 0.2052 0.4782463 1 1 1
v 0.273125 0.2052 -0.2456257 1 1 1
v 0.116167 0.1865 0.4544553 1 1 1
v 0.110833 0.1865 0.4782463 1 1 1
v 0.116167 0.0352 0.4544553 1 1 1
v -0.252947 0.0352 -0.2756257 1 1 1
v -0.208475 0.0352 -0.09439673 1 1 1
v -0.208475 0.1865 -0.09439673 1 1 1
v 0.055532 0.0352 0.4544553 1 1 1
v 0.055532 0.1865 0.4544553 1 1 1
v 0.055532 0.0352 0.4782463 1 1 1
v 0.055532 0.1865 0.4782463 1 1 1
v -0.12825 0 0.5000003 1 1 1
v -0.12825 0.2052 0.5000003 1 1 1
v -0.190973 0.0352 -0.01633473 1 1 1
v -0.190973 0.1865 -0.01633473 1 1 1
v -0.055532 0.1865 0.4782463 1 1 1
v -0.055532 0.0352 0.4782463 1 1 1
v -0.093795 0.1865 -0.4782457 1 1 1
v -0.093795 0.0352 -0.4782457 1 1 1
v -0.093795 0.1865 -0.4230417 1 1 1
v -0.093795 0.0352 -0.4230417 1 1 1
v 0.116665 0.1865 -0.4782457 1 1 1
v 0.116665 0.2052 -0.4782457 1 1 1
v -0.116665 0.1865 -0.4782457 1 1 1
v -0.116665 0.2052 -0.4782457 1 1 1
v -0.055532 0.1865 0.4544553 1 1 1
v 0.157021 0.0352 -0.4182457 1 1 1
v 0.157021 0.1865 -0.4182457 1 1 1
v -0.055532 0.0352 0.4544553 1 1 1
v -0.153795 0.0352 -0.4230417 1 1 1
v -0.153795 0.1865 -0.4230417 1 1 1

vn -0.2187618 0 0.9757783
vn 0.2187618 0 -0.9757783
vn 0 1 0
vn 0 -1 0
vn -1 0 0
vn 1 0 0
vn -0.8297711 0 -0.558104
vn 0.8297711 0 0.558104
vn 0.8297711 0 -0.558104
vn -0.8297711 0 0.558104
vn 0 0 -1
vn 0 0 1
vn 0.9757766 0 0.2187691
vn -0.9757766 0 -0.2187691
vn 0.2187689 0 -0.9757767
vn -0.2187689 0 0.9757767
vn 0.9757767 -3.703253E-07 -0.218769
vn -0.9757767 3.703253E-07 0.218769
vn -0.9757767 -3.703253E-07 -0.218769
vn 0.9757767 3.703253E-07 0.218769
vn -0.2187689 0 -0.9757767
vn 0.2187689 0 0.9757767
vn 0.2187618 0 0.9757783
vn -0.2187618 0 -0.9757783
vn 0.9757754 0 -0.2187751
vn -0.9757754 0 0.2187751
vn -0.9757754 0 -0.2187751
vn 0.9757754 0 0.2187751
vn -0.9757766 0 0.2187691
vn 0.9757766 0 -0.2187691
vn -0.8297714 0 0.5581034
vn 0.8297714 0 -0.5581034
vn 0.8297712 3.619659E-07 0.5581036
vn -0.8297712 -3.619659E-07 -0.5581036

vt 0.96875 0.05930799
vt 0.96875 0.2067739
vt 0.96875 0.025
vt 0.96875 0.225

usemtl colormap

f 3/2/1 2/1/1 1/1/1
f 2/1/1 3/2/1 4/2/1
f 1/1/2 2/1/2 3/2/2
f 4/2/2 3/2/2 2/1/2
f 7/2/3 6/2/3 5/2/3
f 6/2/3 7/2/3 8/2/3
f 8/2/3 7/2/3 9/2/3
f 5/2/4 6/2/4 7/2/4
f 8/2/4 7/2/4 6/2/4
f 9/2/4 7/2/4 8/2/4
f 12/1/5 11/2/5 10/1/5
f 11/2/5 12/1/5 13/2/5
f 10/1/6 11/2/6 12/1/6
f 13/2/6 12/1/6 11/2/6
f 16/3/7 15/4/7 14/3/7
f 15/4/7 16/3/7 17/4/7
f 14/3/8 15/4/8 16/3/8
f 17/4/8 16/3/8 15/4/8
f 20/4/9 19/3/9 18/4/9
f 19/3/9 20/4/9 21/3/9
f 18/4/10 19/3/10 20/4/10
f 21/3/10 20/4/10 19/3/10
f 9/2/11 23/1/11 22/1/11
f 23/1/11 9/2/11 7/2/11
f 22/1/12 23/1/12 9/2/12
f 7/2/12 9/2/12 23/1/12
f 26/2/6 25/1/6 24/2/6
f 25/1/6 26/2/6 27/1/6
f 24/2/5 25/1/5 26/2/5
f 27/1/5 26/2/5 25/1/5
f 26/2/12 28/1/12 27/1/12
f 28/1/12 26/2/12 29/2/12
f 27/1/11 28/1/11 26/2/11
f 29/2/11 26/2/11 28/1/11
f 6/2/12 31/1/12 30/1/12
f 31/1/12 6/2/12 8/2/12
f 30/1/11 31/1/11 6/2/11
f 8/2/11 6/2/11 31/1/11
f 33/2/3 3/2/3 32/2/3
f 3/2/3 33/2/3 4/2/3
f 32/2/4 3/2/4 33/2/4
f 4/2/4 33/2/4 3/2/4
f 34/4/13 21/3/13 20/4/13
f 21/3/13 34/4/13 35/3/13
f 20/4/14 21/3/14 34/4/14
f 35/3/14 34/4/14 21/3/14
f 33/2/15 37/1/15 36/1/15
f 37/1/15 33/2/15 32/2/15
f 36/1/16 37/1/16 33/2/16
f 32/2/16 33/2/16 37/1/16
f 38/2/3 26/2/3 24/2/3
f 26/2/3 38/2/3 29/2/3
f 29/2/3 38/2/3 39/2/3
f 24/2/4 26/2/4 38/2/4
f 29/2/4 38/2/4 26/2/4
f 39/2/4 38/2/4 29/2/4
f 31/1/5 9/2/5 22/1/5
f 9/2/5 31/1/5 8/2/5
f 22/1/6 9/2/6 31/1/6
f 8/2/6 31/1/6 9/2/6
f 41/4/17 39/2/17 40/4/17
f 39/2/17 41/4/17 29/2/17
f 29/2/17 41/4/17 42/2/17
f 29/2/17 42/2/17 28/1/17
f 43/1/17 28/1/17 42/2/17
f 42/2/17 41/4/17 44/2/17
f 44/2/17 41/4/17 45/1/17
f 45/1/17 41/4/17 46/2/17
f 46/2/17 41/4/17 47/2/17
f 48/1/17 45/1/17 46/2/17
f 40/4/18 39/2/18 41/4/18
f 29/2/18 41/4/18 39/2/18
f 42/2/18 41/4/18 29/2/18
f 28/1/18 42/2/18 29/2/18
f 42/2/18 28/1/18 43/1/18
f 44/2/18 41/4/18 42/2/18
f 45/1/18 41/4/18 44/2/18
f 46/2/18 41/4/18 45/1/18
f 46/2/18 45/1/18 48/1/18
f 47/2/18 41/4/18 46/2/18
f 37/1/19 6/2/19 30/1/19
f 32/2/19 6/2/19 37/1/19
f 49/4/19 6/2/19 32/2/19
f 49/4/19 32/2/19 3/2/19
f 50/4/19 6/2/19 49/4/19
f 6/2/19 50/4/19 5/2/19
f 49/4/19 3/2/19 51/2/19
f 49/4/19 51/2/19 52/2/19
f 51/2/19 3/2/19 53/1/19
f 53/1/19 3/2/19 1/1/19
f 30/1/20 6/2/20 37/1/20
f 37/1/20 6/2/20 32/2/20
f 32/2/20 6/2/20 49/4/20
f 3/2/20 32/2/20 49/4/20
f 49/4/20 6/2/20 50/4/20
f 5/2/20 50/4/20 6/2/20
f 51/2/20 3/2/20 49/4/20
f 52/2/20 51/2/20 49/4/20
f 53/1/20 3/2/20 51/2/20
f 1/1/20 3/2/20 53/1/20
f 38/2/11 25/1/11 54/1/11
f 25/1/11 38/2/11 24/2/11
f 54/1/12 25/1/12 38/2/12
f 24/2/12 38/2/12 25/1/12
f 42/2/21 55/1/21 43/1/21
f 55/1/21 42/2/21 56/2/21
f 43/1/22 55/1/22 42/2/22
f 56/2/22 42/2/22 55/1/22
f 59/1/5 58/2/5 57/1/5
f 58/2/5 59/1/5 60/2/5
f 57/1/6 58/2/6 59/1/6
f 60/2/6 59/1/6 58/2/6
f 34/4/12 61/3/12 35/3/12
f 61/3/12 34/4/12 62/4/12
f 35/3/11 61/3/11 34/4/11
f 62/4/11 34/4/11 61/3/11
f 58/2/11 53/1/11 57/1/11
f 53/1/11 58/2/11 51/2/11
f 57/1/12 53/1/12 58/2/12
f 51/2/12 58/2/12 53/1/12
f 15/4/11 19/3/11 14/3/11
f 19/3/11 15/4/11 18/4/11
f 14/3/12 19/3/12 15/4/12
f 18/4/12 15/4/12 19/3/12
f 58/2/3 52/2/3 51/2/3
f 52/2/3 58/2/3 60/2/3
f 51/2/4 52/2/4 58/2/4
f 60/2/4 58/2/4 52/2/4
f 64/2/23 45/1/23 63/1/23
f 45/1/23 64/2/23 44/2/23
f 63/1/24 45/1/24 64/2/24
f 44/2/24 64/2/24 45/1/24
f 64/2/25 55/1/25 56/2/25
f 55/1/25 64/2/25 63/1/25
f 56/2/26 55/1/26 64/2/26
f 63/1/26 64/2/26 55/1/26
f 41/4/11 65/2/11 47/2/11
f 65/2/11 41/4/11 60/2/11
f 60/2/11 41/4/11 52/2/11
f 52/2/11 41/4/11 49/4/11
f 59/1/11 65/2/11 60/2/11
f 65/2/11 59/1/11 66/1/11
f 47/2/12 65/2/12 41/4/12
f 60/2/12 41/4/12 65/2/12
f 60/2/12 65/2/12 59/1/12
f 66/1/12 59/1/12 65/2/12
f 52/2/12 41/4/12 60/2/12
f 49/4/12 41/4/12 52/2/12
f 69/2/6 68/1/6 67/2/6
f 68/1/6 69/2/6 70/1/6
f 67/2/5 68/1/5 69/2/5
f 70/1/5 69/2/5 68/1/5
f 72/4/12 11/2/12 71/2/12
f 11/2/12 72/4/12 67/2/12
f 67/2/12 72/4/12 73/2/12
f 73/2/12 72/4/12 74/4/12
f 68/1/12 11/2/12 67/2/12
f 11/2/12 68/1/12 10/1/12
f 71/2/11 11/2/11 72/4/11
f 67/2/11 72/4/11 11/2/11
f 67/2/11 11/2/11 68/1/11
f 10/1/11 68/1/11 11/2/11
f 73/2/11 72/4/11 67/2/11
f 74/4/11 72/4/11 73/2/11
f 46/2/3 65/2/3 75/2/3
f 65/2/3 46/2/3 47/2/3
f 75/2/4 65/2/4 46/2/4
f 47/2/4 46/2/4 65/2/4
f 2/1/27 33/2/27 36/1/27
f 33/2/27 2/1/27 4/2/27
f 36/1/28 33/2/28 2/1/28
f 4/2/28 2/1/28 33/2/28
f 35/3/4 19/3/4 21/3/4
f 19/3/4 35/3/4 61/3/4
f 19/3/4 61/3/4 14/3/4
f 14/3/4 61/3/4 16/3/4
f 21/3/3 19/3/3 35/3/3
f 61/3/3 35/3/3 19/3/3
f 14/3/3 61/3/3 19/3/3
f 16/3/3 61/3/3 14/3/3
f 61/3/29 17/4/29 16/3/29
f 17/4/29 61/3/29 62/4/29
f 16/3/30 17/4/30 61/3/30
f 62/4/30 61/3/30 17/4/30
f 23/1/31 77/2/31 76/1/31
f 7/2/31 77/2/31 23/1/31
f 50/4/31 77/2/31 7/2/31
f 50/4/31 7/2/31 5/2/31
f 72/4/31 77/2/31 50/4/31
f 77/2/31 72/4/31 71/2/31
f 76/1/32 77/2/32 23/1/32
f 23/1/32 77/2/32 7/2/32
f 7/2/32 77/2/32 50/4/32
f 5/2/32 7/2/32 50/4/32
f 50/4/32 77/2/32 72/4/32
f 71/2/32 72/4/32 77/2/32
f 65/2/6 78/1/6 75/2/6
f 78/1/6 65/2/6 66/1/6
f 75/2/5 78/1/5 65/2/5
f 66/1/5 65/2/5 78/1/5
f 56/2/3 44/2/3 64/2/3
f 44/2/3 56/2/3 42/2/3
f 64/2/4 44/2/4 56/2/4
f 42/2/4 56/2/4 44/2/4
f 76/1/3 22/1/3 23/1/3
f 22/1/3 76/1/3 31/1/3
f 31/1/3 76/1/3 36/1/3
f 37/1/3 31/1/3 36/1/3
f 31/1/3 37/1/3 30/1/3
f 36/1/3 76/1/3 2/1/3
f 53/1/3 2/1/3 76/1/3
f 2/1/3 53/1/3 1/1/3
f 53/1/3 76/1/3 12/1/3
f 53/1/3 12/1/3 57/1/3
f 12/1/3 68/1/3 57/1/3
f 68/1/3 12/1/3 10/1/3
f 57/1/3 68/1/3 59/1/3
f 59/1/3 68/1/3 78/1/3
f 66/1/3 59/1/3 78/1/3
f 78/1/3 68/1/3 70/1/3
f 78/1/3 70/1/3 48/1/3
f 48/1/3 70/1/3 79/1/3
f 48/1/3 79/1/3 63/1/3
f 48/1/3 63/1/3 45/1/3
f 79/1/3 25/1/3 63/1/3
f 25/1/3 79/1/3 54/1/3
f 63/1/3 25/1/3 55/1/3
f 27/1/3 55/1/3 25/1/3
f 55/1/3 27/1/3 43/1/3
f 43/1/3 27/1/3 28/1/3
f 23/1/4 22/1/4 76/1/4
f 31/1/4 76/1/4 22/1/4
f 36/1/4 76/1/4 31/1/4
f 36/1/4 31/1/4 37/1/4
f 30/1/4 37/1/4 31/1/4
f 2/1/4 76/1/4 36/1/4
f 76/1/4 2/1/4 53/1/4
f 1/1/4 53/1/4 2/1/4
f 12/1/4 76/1/4 53/1/4
f 57/1/4 12/1/4 53/1/4
f 57/1/4 68/1/4 12/1/4
f 10/1/4 12/1/4 68/1/4
f 59/1/4 68/1/4 57/1/4
f 78/1/4 68/1/4 59/1/4
f 78/1/4 59/1/4 66/1/4
f 70/1/4 68/1/4 78/1/4
f 48/1/4 70/1/4 78/1/4
f 79/1/4 70/1/4 48/1/4
f 63/1/4 79/1/4 48/1/4
f 45/1/4 63/1/4 48/1/4
f 63/1/4 25/1/4 79/1/4
f 54/1/4 79/1/4 25/1/4
f 55/1/4 25/1/4 63/1/4
f 25/1/4 55/1/4 27/1/4
f 43/1/4 27/1/4 55/1/4
f 28/1/4 27/1/4 43/1/4
f 71/2/3 13/2/3 77/2/3
f 13/2/3 71/2/3 11/2/3
f 77/2/4 13/2/4 71/2/4
f 11/2/4 71/2/4 13/2/4
f 46/2/11 78/1/11 48/1/11
f 78/1/11 46/2/11 75/2/11
f 48/1/12 78/1/12 46/2/12
f 75/2/12 46/2/12 78/1/12
f 73/2/3 69/2/3 67/2/3
f 69/2/3 73/2/3 80/2/3
f 67/2/4 69/2/4 73/2/4
f 80/2/4 73/2/4 69/2/4
f 40/4/33 73/2/33 74/4/33
f 73/2/33 40/4/33 80/2/33
f 80/2/33 40/4/33 38/2/33
f 38/2/33 40/4/33 39/2/33
f 80/2/33 38/2/33 79/1/33
f 54/1/33 79/1/33 38/2/33
f 74/4/34 73/2/34 40/4/34
f 80/2/34 40/4/34 73/2/34
f 38/2/34 40/4/34 80/2/34
f 39/2/34 40/4/34 38/2/34
f 79/1/34 38/2/34 80/2/34
f 38/2/34 79/1/34 54/1/34
f 77/2/12 12/1/12 76/1/12
f 12/1/12 77/2/12 13/2/12
f 76/1/11 12/1/11 77/2/11
f 13/2/11 77/2/11 12/1/11
f 69/2/12 79/1/12 70/1/12
f 79/1/12 69/2/12 80/2/12
f 70/1/11 79/1/11 69/2/11
f 80/2/11 69/2/11 79/1/11
f 41/4/4 49/4/4 62/4/4
f 40/4/4 41/4/4 62/4/4
f 62/4/4 49/4/4 34/4/4
f 17/4/4 40/4/4 62/4/4
f 49/4/4 50/4/4 34/4/4
f 20/4/4 34/4/4 50/4/4
f 20/4/4 50/4/4 18/4/4
f 72/4/4 18/4/4 50/4/4
f 17/4/4 15/4/4 40/4/4
f 15/4/4 18/4/4 72/4/4
f 40/4/4 15/4/4 74/4/4
f 74/4/4 15/4/4 72/4/4
f 62/4/3 49/4/3 41/4/3
f 62/4/3 41/4/3 40/4/3
f 34/4/3 49/4/3 62/4/3
f 62/4/3 40/4/3 17/4/3
f 34/4/3 50/4/3 49/4/3
f 50/4/3 34/4/3 20/4/3
f 18/4/3 50/4/3 20/4/3
f 50/4/3 18/4/3 72/4/3
f 40/4/3 15/4/3 17/4/3
f 72/4/3 18/4/3 15/4/3
f 74/4/3 15/4/3 40/4/3
f 72/4/3 15/4/3 74/4/3

g coffin




usemtl colormap

f 3/2/1 2/1/1 1/1/1
f 2/1/1 3/2/1 4/2/1
f 1/1/2 2/1/2 3/2/2
f 4/2/2 3/2/2 2/1/2
f 7/2/3 6/2/3 5/2/3
f 6/2/3 7/2/3 8/2/3
f 8/2/3 7/2/3 9/2/3
f 5/2/4 6/2/4 7/2/4
f 8/2/4 7/2/4 6/2/4
f 9/2/4 7/2/4 8/2/4
f 12/1/5 11/2/5 10/1/5
f 11/2/5 12/1/5 13/2/5
f 10/1/6 11/2/6 12/1/6
f 13/2/6 12/1/6 11/2/6
f 16/3/7 15/4/7 14/3/7
f 15/4/7 16/3/7 17/4/7
f 14/3/8 15/4/8 16/3/8
f 17/4/8 16/3/8 15/4/8
f 20/4/9 19/3/9 18/4/9
f 19/3/9 20/4/9 21/3/9
f 18/4/10 19/3/10 20/4/10
f 21/3/10 20/4/10 19/3/10
f 9/2/11 23/1/11 22/1/11
f 23/1/11 9/2/11 7/2/11
f 22/1/12 23/1/12 9/2/12
f 7/2/12 9/2/12 23/1/12
f 26/2/6 25/1/6 24/2/6
f 25/1/6 26/2/6 27/1/6
f 24/2/5 25/1/5 26/2/5
f 27/1/5 26/2/5 25/1/5
f 26/2/12 28/1/12 27/1/12
f 28/1/12 26/2/12 29/2/12
f 27/1/11 28/1/11 26/2/11
f 29/2/11 26/2/11 28/1/11
f 6/2/12 31/1/12 30/1/12
f 31/1/12 6/2/12 8/2/12
f 30/1/11 31/1/11 6/2/11
f 8/2/11 6/2/11 31/1/11
f 33/2/3 3/2/3 32/2/3
f 3/2/3 33/2/3 4/2/3
f 32/2/4 3/2/4 33/2/4
f 4/2/4 33/2/4 3/2/4
f 34/4/13 21/3/13 20/4/13
f 21/3/13 34/4/13 35/3/13
f 20/4/14 21/3/14 34/4/14
f 35/3/14 34/4/14 21/3/14
f 33/2/15 37/1/15 36/1/15
f 37/1/15 33/2/15 32/2/15
f 36/1/16 37/1/16 33/2/16
f 32/2/16 33/2/16 37/1/16
f 38/2/3 26/2/3 24/2/3
f 26/2/3 38/2/3 29/2/3
f 29/2/3 38/2/3 39/2/3
f 24/2/4 26/2/4 38/2/4
f 29/2/4 38/2/4 26/2/4
f 39/2/4 38/2/4 29/2/4
f 31/1/5 9/2/5 22/1/5
f 9/2/5 31/1/5 8/2/5
f 22/1/6 9/2/6 31/1/6
f 8/2/6 31/1/6 9/2/6
f 41/4/17 39/2/17 40/4/17
f 39/2/17 41/4/17 29/2/17
f 29/2/17 41/4/17 42/2/17
f 29/2/17 42/2/17 28/1/17
f 43/1/17 28/1/17 42/2/17
f 42/2/17 41/4/17 44/2/17
f 44/2/17 41/4/17 45/1/17
f 45/1/17 41/4/17 46/2/17
f 46/2/17 41/4/17 47/2/17
f 48/1/17 45/1/17 46/2/17
f 40/4/18 39/2/18 41/4/18
f 29/2/18 41/4/18 39/2/18
f 42/2/18 41/4/18 29/2/18
f 28/1/18 42/2/18 29/2/18
f 42/2/18 28/1/18 43/1/18
f 44/2/18 41/4/18 42/2/18
f 45/1/18 41/4/18 44/2/18
f 46/2/18 41/4/18 45/1/18
f 46/2/18 45/1/18 48/1/18
f 47/2/18 41/4/18 46/2/18
f 37/1/19 6/2/19 30/1/19
f 32/2/19 6/2/19 37/1/19
f 49/4/19 6/2/19 32/2/19
f 49/4/19 32/2/19 3/2/19
f 50/4/19 6/2/19 49/4/19
f 6/2/19 50/4/19 5/2/19
f 49/4/19 3/2/19 51/2/19
f 49/4/19 51/2/19 52/2/19
f 51/2/19 3/2/19 53/1/19
f 53/1/19 3/2/19 1/1/19
f 30/1/20 6/2/20 37/1/20
f 37/1/20 6/2/20 32/2/20
f 32/2/20 6/2/20 49/4/20
f 3/2/20 32/2/20 49/4/20
f 49/4/20 6/2/20 50/4/20
f 5/2/20 50/4/20 6/2/20
f 51/2/20 3/2/20 49/4/20
f 52/2/20 51/2/20 49/4/20
f 53/1/20 3/2/20 51/2/20
f 1/1/20 3/2/20 53/1/20
f 38/2/11 25/1/11 54/1/11
f 25/1/11 38/2/11 24/2/11
f 54/1/12 25/1/12 38/2/12
f 24/2/12 38/2/12 25/1/12
f 42/2/21 55/1/21 43/1/21
f 55/1/21 42/2/21 56/2/21
f 43/1/22 55/1/22 42/2/22
f 56/2/22 42/2/22 55/1/22
f 59/1/5 58/2/5 57/1/5
f 58/2/5 59/1/5 60/2/5
f 57/1/6 58/2/6 59/1/6
f 60/2/6 59/1/6 58/2/6
f 34/4/12 61/3/12 35/3/12
f 61/3/12 34/4/12 62/4/12
f 35/3/11 61/3/11 34/4/11
f 62/4/11 34/4/11 61/3/11
f 58/2/11 53/1/11 57/1/11
f 53/1/11 58/2/11 51/2/11
f 57/1/12 53/1/12 58/2/12
f 51/2/12 58/2/12 53/1/12
f 15/4/11 19/3/11 14/3/11
f 19/3/11 15/4/11 18/4/11
f 14/3/12 19/3/12 15/4/12
f 18/4/12 15/4/12 19/3/12
f 58/2/3 52/2/3 51/2/3
f 52/2/3 58/2/3 60/2/3
f 51/2/4 52/2/4 58/2/4
f 60/2/4 58/2/4 52/2/4
f 64/2/23 45/1/23 63/1/23
f 45/1/23 64/2/23 44/2/23
f 63/1/24 45/1/24 64/2/24
f 44/2/24 64/2/24 45/1/24
f 64/2/25 55/1/25 56/2/25
f 55/1/25 64/2/25 63/1/25
f 56/2/26 55/1/26 64/2/26
f 63/1/26 64/2/26 55/1/26
f 41/4/11 65/2/11 47/2/11
f 65/2/11 41/4/11 60/2/11
f 60/2/11 41/4/11 52/2/11
f 52/2/11 41/4/11 49/4/11
f 59/1/11 65/2/11 60/2/11
f 65/2/11 59/1/11 66/1/11
f 47/2/12 65/2/12 41/4/12
f 60/2/12 41/4/12 65/2/12
f 60/2/12 65/2/12 59/1/12
f 66/1/12 59/1/12 65/2/12
f 52/2/12 41/4/12 60/2/12
f 49/4/12 41/4/12 52/2/12
f 69/2/6 68/1/6 67/2/6
f 68/1/6 69/2/6 70/1/6
f 67/2/5 68/1/5 69/2/5
f 70/1/5 69/2/5 68/1/5
f 72/4/12 11/2/12 71/2/12
f 11/2/12 72/4/12 67/2/12
f 67/2/12 72/4/12 73/2/12
f 73/2/12 72/4/12 74/4/12
f 68/1/12 11/2/12 67/2/12
f 11/2/12 68/1/12 10/1/12
f 71/2/11 11/2/11 72/4/11
f 67/2/11 72/4/11 11/2/11
f 67/2/11 11/2/11 68/1/11
f 10/1/11 68/1/11 11/2/11
f 73/2/11 72/4/11 67/2/11
f 74/4/11 72/4/11 73/2/11
f 46/2/3 65/2/3 75/2/3
f 65/2/3 46/2/3 47/2/3
f 75/2/4 65/2/4 46/2/4
f 47/2/4 46/2/4 65/2/4
f 2/1/27 33/2/27 36/1/27
f 33/2/27 2/1/27 4/2/27
f 36/1/28 33/2/28 2/1/28
f 4/2/28 2/1/28 33/2/28
f 35/3/4 19/3/4 21/3/4
f 19/3/4 35/3/4 61/3/4
f 19/3/4 61/3/4 14/3/4
f 14/3/4 61/3/4 16/3/4
f 21/3/3 19/3/3 35/3/3
f 61/3/3 35/3/3 19/3/3
f 14/3/3 61/3/3 19/3/3
f 16/3/3 61/3/3 14/3/3
f 61/3/29 17/4/29 16/3/29
f 17/4/29 61/3/29 62/4/29
f 16/3/30 17/4/30 61/3/30
f 62/4/30 61/3/30 17/4/30
f 23/1/31 77/2/31 76/1/31
f 7/2/31 77/2/31 23/1/31
f 50/4/31 77/2/31 7/2/31
f 50/4/31 7/2/31 5/2/31
f 72/4/31 77/2/31 50/4/31
f 77/2/31 72/4/31 71/2/31
f 76/1/32 77/2/32 23/1/32
f 23/1/32 77/2/32 7/2/32
f 7/2/32 77/2/32 50/4/32
f 5/2/32 7/2/32 50/4/32
f 50/4/32 77/2/32 72/4/32
f 71/2/32 72/4/32 77/2/32
f 65/2/6 78/1/6 75/2/6
f 78/1/6 65/2/6 66/1/6
f 75/2/5 78/1/5 65/2/5
f 66/1/5 65/2/5 78/1/5
f 56/2/3 44/2/3 64/2/3
f 44/2/3 56/2/3 42/2/3
f 64/2/4 44/2/4 56/2/4
f 42/2/4 56/2/4 44/2/4
f 76/1/3 22/1/3 23/1/3
f 22/1/3 76/1/3 31/1/3
f 31/1/3 76/1/3 36/1/3
f 37/1/3 31/1/3 36/1/3
f 31/1/3 37/1/3 30/1/3
f 36/1/3 76/1/3 2/1/3
f 53/1/3 2/1/3 76/1/3
f 2/1/3 53/1/3 1/1/3
f 53/1/3 76/1/3 12/1/3
f 53/1/3 12/1/3 57/1/3
f 12/1/3 68/1/3 57/1/3
f 68/1/3 12/1/3 10/1/3
f 57/1/3 68/1/3 59/1/3
f 59/1/3 68/1/3 78/1/3
f 66/1/3 59/1/3 78/1/3
f 78/1/3 68/1/3 70/1/3
f 78/1/3 70/1/3 48/1/3
f 48/1/3 70/1/3 79/1/3
f 48/1/3 79/1/3 63/1/3
f 48/1/3 63/1/3 45/1/3
f 79/1/3 25/1/3 63/1/3
f 25/1/3 79/1/3 54/1/3
f 63/1/3 25/1/3 55/1/3
f 27/1/3 55/1/3 25/1/3
f 55/1/3 27/1/3 43/1/3
f 43/1/3 27/1/3 28/1/3
f 23/1/4 22/1/4 76/1/4
f 31/1/4 76/1/4 22/1/4
f 36/1/4 76/1/4 31/1/4
f 36/1/4 31/1/4 37/1/4
f 30/1/4 37/1/4 31/1/4
f 2/1/4 76/1/4 36/1/4
f 76/1/4 2/1/4 53/1/4
f 1/1/4 53/1/4 2/1/4
f 12/1/4 76/1/4 53/1/4
f 57/1/4 12/1/4 53/1/4
f 57/1/4 68/1/4 12/1/4
f 10/1/4 12/1/4 68/1/4
f 59/1/4 68/1/4 57/1/4
f 78/1/4 68/1/4 59/1/4
f 78/1/4 59/1/4 66/1/4
f 70/1/4 68/1/4 78/1/4
f 48/1/4 70/1/4 78/1/4
f 79/1/4 70/1/4 48/1/4
f 63/1/4 79/1/4 48/1/4
f 45/1/4 63/1/4 48/1/4
f 63/1/4 25/1/4 79/1/4
f 54/1/4 79/1/4 25/1/4
f 55/1/4 25/1/4 63/1/4
f 25/1/4 55/1/4 27/1/4
f 43/1/4 27/1/4 55/1/4
f 28/1/4 27/1/4 43/1/4
f 71/2/3 13/2/3 77/2/3
f 13/2/3 71/2/3 11/2/3
f 77/2/4 13/2/4 71/2/4
f 11/2/4 71/2/4 13/2/4
f 46/2/11 78/1/11 48/1/11
f 78/1/11 46/2/11 75/2/11
f 48/1/12 78/1/12 46/2/12
f 75/2/12 46/2/12 78/1/12
f 73/2/3 69/2/3 67/2/3
f 69/2/3 73/2/3 80/2/3
f 67/2/4 69/2/4 73/2/4
f 80/2/4 73/2/4 69/2/4
f 40/4/33 73/2/33 74/4/33
f 73/2/33 40/4/33 80/2/33
f 80/2/33 40/4/33 38/2/33
f 38/2/33 40/4/33 39/2/33
f 80/2/33 38/2/33 79/1/33
f 54/1/33 79/1/33 38/2/33
f 74/4/34 73/2/34 40/4/34
f 80/2/34 40/4/34 73/2/34
f 38/2/34 40/4/34 80/2/34
f 39/2/34 40/4/34 38/2/34
f 79/1/34 38/2/34 80/2/34
f 38/2/34 79/1/34 54/1/34
f 77/2/12 12/1/12 76/1/12
f 12/1/12 77/2/12 13/2/12
f 76/1/11 12/1/11 77/2/11
f 13/2/11 77/2/11 12/1/11
f 69/2/12 79/1/12 70/1/12
f 79/1/12 69/2/12 80/2/12
f 70/1/11 79/1/11 69/2/11
f 80/2/11 69/2/11 79/1/11
f 41/4/4 49/4/4 62/4/4
f 40/4/4 41/4/4 62/4/4
f 62/4/4 49/4/4 34/4/4
f 17/4/4 40/4/4 62/4/4
f 49/4/4 50/4/4 34/4/4
f 20/4/4 34/4/4 50/4/4
f 20/4/4 50/4/4 18/4/4
f 72/4/4 18/4/4 50/4/4
f 17/4/4 15/4/4 40/4/4
f 15/4/4 18/4/4 72/4/4
f 40/4/4 15/4/4 74/4/4
f 74/4/4 15/4/4 72/4/4
f 62/4/3 49/4/3 41/4/3
f 62/4/3 41/4/3 40/4/3
f 34/4/3 49/4/3 62/4/3
f 62/4/3 40/4/3 17/4/3
f 34/4/3 50/4/3 49/4/3
f 50/4/3 34/4/3 20/4/3
f 18/4/3 50/4/3 20/4/3
f 50/4/3 18/4/3 72/4/3
f 40/4/3 15/4/3 17/4/3
f 72/4/3 18/4/3 15/4/3
f 74/4/3 15/4/3 40/4/3
f 72/4/3 15/4/3 74/4/3

g lid

v 0.2964 0.244188 -0.2500001 1 1 1
v 0.2964 0.2052 -0.2500001 1 1 1
v 0.12825 0.244188 0.5000003 1 1 1
v -0.12825 0.244188 0.5000003 1 1 1
v -0.12825 0.2052 -0.5000003 1 1 1
v -0.12825 0.244188 -0.5000003 1 1 1
v -0.2964 0.2052 -0.2500001 1 1 1
v -0.2964 0.244188 -0.2500001 1 1 1
v 0.12825 0.244188 -0.5000003 1 1 1
v 0.12825 0.2052 -0.5000003 1 1 1
v 0.2823626 0.274188 -0.2500001 1 1 1
v 0.25569 0.274188 -0.1310324 1 1 1
v -0.2823626 0.274188 -0.2500001 1 1 1
v -0.25569 0.274188 -0.1310324 1 1 1
v 0.25569 0.244188 -0.1310324 1 1 1
v -0.25569 0.244188 -0.1310324 1 1 1
v -0.2823626 0.244188 -0.2500001 1 1 1
v 0.2823626 0.244188 -0.2500001 1 1 1
v 0.1820745 0.274188 0.1973157 1 1 1
v 0.1565402 0.274188 0.3112065 1 1 1
v -0.1820745 0.274188 0.1973157 1 1 1
v -0.1565402 0.274188 0.3112065 1 1 1
v -0.1820745 0.244188 0.1973157 1 1 1
v 0.1820745 0.244188 0.1973157 1 1 1
v 0.1565402 0.244188 0.3112065 1 1 1
v -0.1565402 0.244188 0.3112065 1 1 1

vn 0.5558152 0 0.1281517
vn 0 0 0.578035
vn -0.470892 0 -0.325714
vn 0.470892 0 -0.325714
vn 0 0 -0.578035
vn 0 -0.1083 0
vn 0 0.1083 0
vn -0.5558152 0 0.1281517
vn 0.5558152 0 0.1281516
vn -0.5558152 0 0.1281516
vn 0.5558152 0 0.1281518
vn -0.5558152 0 0.1281518

vt 0.96875 0.1380284

usemtl colormap

f 83/5/35 82/3/35 81/5/35
f 82/3/35 83/5/35 34/3/35
f 83/5/36 62/3/36 34/3/36
f 62/3/36 83/5/36 84/5/36
f 87/3/37 86/5/37 85/3/37
f 86/5/37 87/3/37 88/5/37
f 81/5/38 90/3/38 89/5/38
f 90/3/38 81/5/38 82/3/38
f 86/5/39 90/3/39 85/3/39
f 90/3/39 86/5/39 89/5/39
f 34/3/40 90/3/40 82/3/40
f 90/3/40 34/3/40 62/3/40
f 90/3/40 62/3/40 85/3/40
f 85/3/40 62/3/40 87/3/40
f 93/4/41 92/4/41 91/4/41
f 92/4/41 93/4/41 94/4/41
f 92/4/36 96/5/36 95/5/36
f 96/5/36 92/4/36 94/4/36
f 93/4/39 98/5/39 97/5/39
f 98/5/39 93/4/39 91/4/39
f 101/4/41 100/4/41 99/4/41
f 100/4/41 101/4/41 102/4/41
f 101/4/39 104/5/39 103/5/39
f 104/5/39 101/4/39 99/4/39
f 100/4/36 106/5/36 105/5/36
f 106/5/36 100/4/36 102/4/36
f 62/3/42 88/5/42 87/3/42
f 88/5/42 62/3/42 84/5/42
f 100/4/43 104/5/43 99/4/43
f 104/5/43 100/4/43 105/5/43
f 106/5/44 101/4/44 103/5/44
f 101/4/44 106/5/44 102/4/44
f 92/4/45 98/5/45 91/4/45
f 98/5/45 92/4/45 95/5/45
f 96/5/46 93/4/46 97/5/46
f 93/4/46 96/5/46 94/4/46
f 83/5/41 106/5/41 84/5/41
f 84/5/41 106/5/41 88/5/41
f 83/5/41 105/5/41 106/5/41
f 88/5/41 106/5/41 103/5/41
f 83/5/41 104/5/41 105/5/41
f 104/5/41 96/5/41 103/5/41
f 88/5/41 103/5/41 96/5/41
f 96/5/41 104/5/41 95/5/41
f 83/5/41 95/5/41 104/5/41
f 88/5/41 96/5/41 97/5/41
f 97/5/41 86/5/41 88/5/41
f 97/5/41 89/5/41 86/5/41
f 83/5/41 98/5/41 95/5/41
f 98/5/41 89/5/41 97/5/41
f 98/5/41 83/5/41 81/5/41
f 89/5/41 98/5/41 81/5/41

