# Created by Kenney (www.kenney.nl)

mtllib column-large.mtl

g column-large

v -0.102579 0.23 -0.102579 1 1 1
v 0.102579 0.23 -0.102579 1 1 1
v -0.102579 1.02 -0.102579 1 1 1
v 0.102579 1.02 -0.102579 1 1 1
v 0.19 0 0.19 1 1 1
v 0.19 0 -0.19 1 1 1
v -0.19 0 0.19 1 1 1
v -0.19 0 -0.19 1 1 1
v 0.130306 1.1 -0.130306 1 1 1
v 0.130306 1.1 0.130306 1 1 1
v -0.130306 1.1 -0.130306 1 1 1
v -0.130306 1.1 0.130306 1 1 1
v -0.130306 1.02 -0.130306 1 1 1
v 0.130306 1.02 -0.130306 1 1 1
v 0.130306 1.02 0.130306 1 1 1
v -0.130306 1.02 0.130306 1 1 1
v -0.1691 0.13 -0.1691 1 1 1
v 0.1691 0.13 -0.1691 1 1 1
v 0.1691 0.13 0.1691 1 1 1
v -0.1691 0.13 0.1691 1 1 1
v -0.102579 0.23 0.102579 1 1 1
v -0.102579 1.02 0.102579 1 1 1
v 0.102579 0.23 0.102579 1 1 1
v 0.102579 1.02 0.102579 1 1 1
v -0.130306 0.13 -0.130306 1 1 1
v 0.130306 0.13 -0.130306 1 1 1
v -0.130306 0.23 -0.130306 1 1 1
v 0.130306 0.23 -0.130306 1 1 1
v 0.130306 0.23 0.130306 1 1 1
v 0.130306 0.13 0.130306 1 1 1
v -0.130306 0.13 0.130306 1 1 1
v -0.130306 0.23 0.130306 1 1 1
v 0.102579 0.23 -0.102579 1 1 1
v 0.102579 0.23 0.102579 1 1 1
v -0.102579 0.23 -0.102579 1 1 1
v -0.102579 0.23 0.102579 1 1 1
v -0.1041458 0.2967093 -0.1249547 1 1 1
v 0.1182514 0.3200842 -0.1249547 1 1 1
v -0.115481 0.4045573 -0.1359698 1 1 1
v 0.1069162 0.4279321 -0.1359698 1 1 1
v 0.115481 0.3464428 0.1359698 1 1 1
v -0.1069162 0.3230679 0.1359698 1 1 1
v 0.1041458 0.4542907 0.1249547 1 1 1
v -0.1182514 0.4309158 0.1249547 1 1 1
v -0.1235665 0.2966315 -0.1057312 1 1 1
v -0.1349017 0.4044795 -0.1167463 1 1 1
v -0.1259286 0.3191062 0.1167463 1 1 1
v -0.1372639 0.4269541 0.1057312 1 1 1
v 0.1349017 0.3465205 0.1167463 1 1 1
v 0.1372639 0.3240459 -0.1057312 1 1 1
v 0.1259286 0.4318939 -0.1167463 1 1 1
v 0.1235665 0.4543685 0.1057312 1 1 1
v -0.1136669 0.8354352 -0.1346945 1 1 1
v 0.1097425 0.8256809 -0.1346945 1 1 1
v -0.1089245 0.9440528 -0.1269013 1 1 1
v 0.1144848 0.9342985 -0.1269013 1 1 1
v 0.1089246 0.8069474 0.1269013 1 1 1
v -0.1144848 0.8167016 0.1269013 1 1 1
v 0.1136669 0.9155649 0.1346945 1 1 1
v -0.1097425 0.9253191 0.1346945 1 1 1
v -0.1330312 0.8348978 -0.1154216 1 1 1
v -0.1282889 0.9435154 -0.1076283 1 1 1
v -0.1337286 0.8189246 0.1076283 1 1 1
v -0.1289863 0.9275422 0.1154216 1 1 1
v 0.1282889 0.8074847 0.1076283 1 1 1
v 0.1289863 0.8234579 -0.1154216 1 1 1
v 0.1337286 0.9320754 -0.1076283 1 1 1
v 0.1330312 0.9161022 0.1154216 1 1 1

vn 0 0 -1
vn 0 -1 0
vn 0 1 0
vn 0 0 1
vn 0 0.158731 -0.9873219
vn -0.9873219 0.158731 0
vn 0.9873219 0.158731 0
vn -1 0 0
vn 1 0 0
vn 0 0.158731 0.9873219
vn -0.7071068 0 -0.7071068
vn 0.7071068 0 -0.7071068
vn 0.7071068 0 0.7071068
vn -0.7071068 0 0.7071068
vn -0.3708279 -0.1328537 -0.9191499
vn 0.3903462 -0.05285106 -0.9191499
vn 0.3708279 0.1328537 0.9191499
vn -0.3903462 0.05285106 0.9191499
vn -0.914776 -0.1350324 -0.3807243
vn -0.9228607 -0.05811099 0.3807243
vn 0.1039933 -0.9894305 0.1010563
vn 0.9228607 0.05811099 -0.3807243
vn 0.914776 0.1350324 0.3807243
vn -0.1039933 0.9894305 -0.1010563
vn -0.3794379 0.08268458 -0.921515
vn 0.3852005 0.04929975 -0.921515
vn 0.3794379 -0.08268458 0.921515
vn -0.3852005 -0.04929975 0.921515
vn -0.9218067 0.0676339 -0.381704
vn -0.9241936 0.01296421 0.381704
vn -0.04350775 -0.9964914 -0.07149746
vn 0.9241936 -0.01296421 -0.381704
vn 0.9218067 -0.0676339 0.381704
vn 0.04350775 0.9964914 0.07149746

vt 0.71875 0.06681818
vt 0.71875 0.2104545
vt 0.71875 0.025
vt 0.71875 0.225
vt 0.71875 0.04863636
vt 0.96875 0.025
vt 0.96875 0.225

usemtl colormap

f 3/2/1 2/1/1 1/1/1
f 2/1/1 3/2/1 4/2/1
f 7/3/2 6/3/2 5/3/2
f 6/3/2 7/3/2 8/3/2
f 11/4/3 10/4/3 9/4/3
f 10/4/3 11/4/3 12/4/3
f 11/4/1 14/2/1 13/2/1
f 14/2/1 11/4/1 9/4/1
f 10/4/4 16/2/4 15/2/4
f 16/2/4 10/4/4 12/4/4
f 17/5/5 6/3/5 8/3/5
f 6/3/5 17/5/5 18/5/5
f 17/5/3 19/5/3 18/5/3
f 19/5/3 17/5/3 20/5/3
f 7/3/6 17/5/6 8/3/6
f 17/5/6 7/3/6 20/5/6
f 18/5/7 5/3/7 6/3/7
f 5/3/7 18/5/7 19/5/7
f 16/2/8 11/4/8 13/2/8
f 11/4/8 16/2/8 12/4/8
f 10/4/9 14/2/9 9/4/9
f 14/2/9 10/4/9 15/2/9
f 19/5/10 7/3/10 5/3/10
f 7/3/10 19/5/10 20/5/10
f 21/1/8 3/2/8 1/1/8
f 3/2/8 21/1/8 22/2/8
f 24/2/4 21/1/4 23/1/4
f 21/1/4 24/2/4 22/2/4
f 24/2/9 2/1/9 4/2/9
f 2/1/9 24/2/9 23/1/9
f 24/2/2 16/2/2 22/2/2
f 22/2/2 16/2/2 3/2/2
f 24/2/2 15/2/2 16/2/2
f 13/2/2 3/2/2 16/2/2
f 15/2/2 24/2/2 14/2/2
f 13/2/2 4/2/2 3/2/2
f 14/2/2 4/2/2 13/2/2
f 4/2/2 14/2/2 24/2/2
f 27/4/11 26/3/12 25/3/11
f 26/3/12 27/4/11 28/4/12
f 29/4/13 26/3/12 28/4/12
f 26/3/12 29/4/13 30/3/13
f 31/3/14 27/4/11 25/3/11
f 27/4/11 31/3/14 32/4/14
f 29/4/13 31/3/14 30/3/13
f 31/3/14 29/4/13 32/4/14
f 28/4/3 33/4/3 29/4/3
f 33/4/3 28/4/3 27/4/3
f 34/4/3 29/4/3 33/4/3
f 33/4/3 27/4/3 35/4/3
f 29/4/3 34/4/3 32/4/3
f 35/4/3 27/4/3 36/4/3
f 32/4/3 34/4/3 36/4/3
f 32/4/3 36/4/3 27/4/3
f 39/7/15 38/6/16 37/6/15
f 38/6/16 39/7/15 40/7/16
f 43/7/17 42/6/18 41/6/17
f 42/6/18 43/7/17 44/7/18
f 47/6/20 46/7/19 45/6/19
f 46/7/19 47/6/20 48/7/20
f 41/6/21 50/6/21 49/6/21
f 50/6/21 41/6/21 38/6/21
f 38/6/21 41/6/21 42/6/21
f 38/6/21 42/6/21 37/6/21
f 37/6/21 42/6/21 47/6/21
f 37/6/21 47/6/21 45/6/21
f 52/7/23 50/6/22 51/7/22
f 50/6/22 52/7/23 49/6/23
f 43/7/17 49/6/23 52/7/23
f 49/6/23 43/7/17 41/6/17
f 51/7/22 38/6/16 40/7/16
f 38/6/16 51/7/22 50/6/22
f 42/6/18 48/7/20 47/6/20
f 48/7/20 42/6/18 44/7/18
f 40/7/24 52/7/24 51/7/24
f 52/7/24 40/7/24 43/7/24
f 43/7/24 40/7/24 39/7/24
f 43/7/24 39/7/24 44/7/24
f 44/7/24 39/7/24 46/7/24
f 44/7/24 46/7/24 48/7/24
f 45/6/19 39/7/15 37/6/15
f 39/7/15 45/6/19 46/7/19
f 55/7/25 54/6/26 53/6/25
f 54/6/26 55/7/25 56/7/26
f 59/7/27 58/6/28 57/6/27
f 58/6/28 59/7/27 60/7/28
f 63/6/30 62/7/29 61/6/29
f 62/7/29 63/6/30 64/7/30
f 57/6/31 66/6/31 65/6/31
f 66/6/31 57/6/31 54/6/31
f 54/6/31 57/6/31 58/6/31
f 54/6/31 58/6/31 53/6/31
f 53/6/31 58/6/31 63/6/31
f 53/6/31 63/6/31 61/6/31
f 68/7/33 66/6/32 67/7/32
f 66/6/32 68/7/33 65/6/33
f 59/7/27 65/6/33 68/7/33
f 65/6/33 59/7/27 57/6/27
f 67/7/32 54/6/26 56/7/26
f 54/6/26 67/7/32 66/6/32
f 58/6/28 64/7/30 63/6/30
f 64/7/30 58/6/28 60/7/28
f 56/7/34 68/7/34 67/7/34
f 68/7/34 56/7/34 59/7/34
f 59/7/34 56/7/34 55/7/34
f 59/7/34 55/7/34 60/7/34
f 60/7/34 55/7/34 62/7/34
f 60/7/34 62/7/34 64/7/34
f 61/6/29 55/7/25 53/6/25
f 55/7/25 61/6/29 62/7/29

g column-large




usemtl colormap

f 3/2/1 2/1/1 1/1/1
f 2/1/1 3/2/1 4/2/1
f 7/3/2 6/3/2 5/3/2
f 6/3/2 7/3/2 8/3/2
f 11/4/3 10/4/3 9/4/3
f 10/4/3 11/4/3 12/4/3
f 11/4/1 14/2/1 13/2/1
f 14/2/1 11/4/1 9/4/1
f 10/4/4 16/2/4 15/2/4
f 16/2/4 10/4/4 12/4/4
f 17/5/5 6/3/5 8/3/5
f 6/3/5 17/5/5 18/5/5
f 17/5/3 19/5/3 18/5/3
f 19/5/3 17/5/3 20/5/3
f 7/3/6 17/5/6 8/3/6
f 17/5/6 7/3/6 20/5/6
f 18/5/7 5/3/7 6/3/7
f 5/3/7 18/5/7 19/5/7
f 16/2/8 11/4/8 13/2/8
f 11/4/8 16/2/8 12/4/8
f 10/4/9 14/2/9 9/4/9
f 14/2/9 10/4/9 15/2/9
f 19/5/10 7/3/10 5/3/10
f 7/3/10 19/5/10 20/5/10
f 21/1/8 3/2/8 1/1/8
f 3/2/8 21/1/8 22/2/8
f 24/2/4 21/1/4 23/1/4
f 21/1/4 24/2/4 22/2/4
f 24/2/9 2/1/9 4/2/9
f 2/1/9 24/2/9 23/1/9
f 24/2/2 16/2/2 22/2/2
f 22/2/2 16/2/2 3/2/2
f 24/2/2 15/2/2 16/2/2
f 13/2/2 3/2/2 16/2/2
f 15/2/2 24/2/2 14/2/2
f 13/2/2 4/2/2 3/2/2
f 14/2/2 4/2/2 13/2/2
f 4/2/2 14/2/2 24/2/2
f 27/4/11 26/3/12 25/3/11
f 26/3/12 27/4/11 28/4/12
f 29/4/13 26/3/12 28/4/12
f 26/3/12 29/4/13 30/3/13
f 31/3/14 27/4/11 25/3/11
f 27/4/11 31/3/14 32/4/14
f 29/4/13 31/3/14 30/3/13
f 31/3/14 29/4/13 32/4/14
f 28/4/3 33/4/3 29/4/3
f 33/4/3 28/4/3 27/4/3
f 34/4/3 29/4/3 33/4/3
f 33/4/3 27/4/3 35/4/3
f 29/4/3 34/4/3 32/4/3
f 35/4/3 27/4/3 36/4/3
f 32/4/3 34/4/3 36/4/3
f 32/4/3 36/4/3 27/4/3
f 39/7/15 38/6/16 37/6/15
f 38/6/16 39/7/15 40/7/16
f 43/7/17 42/6/18 41/6/17
f 42/6/18 43/7/17 44/7/18
f 47/6/20 46/7/19 45/6/19
f 46/7/19 47/6/20 48/7/20
f 41/6/21 50/6/21 49/6/21
f 50/6/21 41/6/21 38/6/21
f 38/6/21 41/6/21 42/6/21
f 38/6/21 42/6/21 37/6/21
f 37/6/21 42/6/21 47/6/21
f 37/6/21 47/6/21 45/6/21
f 52/7/23 50/6/22 51/7/22
f 50/6/22 52/7/23 49/6/23
f 43/7/17 49/6/23 52/7/23
f 49/6/23 43/7/17 41/6/17
f 51/7/22 38/6/16 40/7/16
f 38/6/16 51/7/22 50/6/22
f 42/6/18 48/7/20 47/6/20
f 48/7/20 42/6/18 44/7/18
f 40/7/24 52/7/24 51/7/24
f 52/7/24 40/7/24 43/7/24
f 43/7/24 40/7/24 39/7/24
f 43/7/24 39/7/24 44/7/24
f 44/7/24 39/7/24 46/7/24
f 44/7/24 46/7/24 48/7/24
f 45/6/19 39/7/15 37/6/15
f 39/7/15 45/6/19 46/7/19
f 55/7/25 54/6/26 53/6/25
f 54/6/26 55/7/25 56/7/26
f 59/7/27 58/6/28 57/6/27
f 58/6/28 59/7/27 60/7/28
f 63/6/30 62/7/29 61/6/29
f 62/7/29 63/6/30 64/7/30
f 57/6/31 66/6/31 65/6/31
f 66/6/31 57/6/31 54/6/31
f 54/6/31 57/6/31 58/6/31
f 54/6/31 58/6/31 53/6/31
f 53/6/31 58/6/31 63/6/31
f 53/6/31 63/6/31 61/6/31
f 68/7/33 66/6/32 67/7/32
f 66/6/32 68/7/33 65/6/33
f 59/7/27 65/6/33 68/7/33
f 65/6/33 59/7/27 57/6/27
f 67/7/32 54/6/26 56/7/26
f 54/6/26 67/7/32 66/6/32
f 58/6/28 64/7/30 63/6/30
f 64/7/30 58/6/28 60/7/28
f 56/7/34 68/7/34 67/7/34
f 68/7/34 56/7/34 59/7/34
f 59/7/34 56/7/34 55/7/34
f 59/7/34 55/7/34 60/7/34
f 60/7/34 55/7/34 62/7/34
f 60/7/34 62/7/34 64/7/34
f 61/6/29 55/7/25 53/6/25
f 55/7/25 61/6/29 62/7/29

