# Created by Kenney (www.kenney.nl)

mtllib cross-column.mtl

g cross-column

v 0.2 0.07 -0.2 1 1 1
v 0.2 0 -0.2 1 1 1
v 0.2 0.07 0.2 1 1 1
v 0.2 0 0.2 1 1 1
v -0.2 0 -0.2 1 1 1
v -0.2 0.07 -0.2 1 1 1
v -0.2 0 0.2 1 1 1
v -0.2 0.07 0.2 1 1 1
v -0.1516034 0.07 -0.1516034 1 1 1
v 0.1516034 0.07 -0.1516034 1 1 1
v -0.134927 0.19 -0.134927 1 1 1
v 0.134927 0.19 -0.134927 1 1 1
v 0.1516034 0.07 0.1516034 1 1 1
v -0.1516034 0.07 0.1516034 1 1 1
v 0.134927 0.19 0.134927 1 1 1
v -0.134927 0.19 0.134927 1 1 1
v -0.1080296 0.19 -0.1080296 1 1 1
v -0.1080296 0.85 -0.1080296 1 1 1
v -0.1080296 0.19 0.1080296 1 1 1
v -0.1080296 0.85 0.1080296 1 1 1
v 0.1080296 0.85 -0.1080296 1 1 1
v 0.1080296 0.19 -0.1080296 1 1 1
v 0.1080296 0.85 0.1080296 1 1 1
v 0.1080296 0.19 0.1080296 1 1 1
v -0.134927 0.85 -0.134927 1 1 1
v 0.134927 0.85 -0.134927 1 1 1
v -0.134927 0.9 -0.134927 1 1 1
v 0.134927 0.9 -0.134927 1 1 1
v -0.134927 0.85 0.134927 1 1 1
v -0.134927 0.9 0.134927 1 1 1
v 0.134927 0.85 0.134927 1 1 1
v 0.134927 0.9 0.134927 1 1 1
v -0.08501337 1.07 -0.08501337 1 1 1
v 0.08501337 1.07 -0.08501337 1 1 1
v -0.0472147 1.25 -0.0472147 1 1 1
v 0.0472147 1.25 -0.0472147 1 1 1
v 0.1177523 0.99 -0.1177523 1 1 1
v 0.1080296 0.96 -0.1080296 1 1 1
v 0.1177523 0.99 0.1177523 1 1 1
v 0.1080296 0.96 0.1080296 1 1 1
v -0.08501337 1.07 0.08501337 1 1 1
v -0.0472147 1.25 0.0472147 1 1 1
v 0.08501337 1.07 0.08501337 1 1 1
v 0.0472147 1.25 0.0472147 1 1 1
v -0.1080296 0.96 0.1080296 1 1 1
v -0.1177523 0.99 0.1177523 1 1 1
v -0.1177523 0.99 -0.1177523 1 1 1
v -0.1080296 0.96 -0.1080296 1 1 1
v 0.0184 1.25 -0.0184 1 1 1
v 0.0184 1.25 0.0184 1 1 1
v -0.0184 1.25 -0.0184 1 1 1
v -0.0184 1.25 0.0184 1 1 1
v -0.1080296 0.9 -0.1080296 1 1 1
v 0.1080296 0.9 -0.1080296 1 1 1
v -0.1080296 0.9 0.1080296 1 1 1
v 0.1080296 0.9 0.1080296 1 1 1
v -0.0552 1.3512 -0.0184 1 1 1
v -0.0552 1.388 -0.0184 1 1 1
v -0.0552 1.3512 0.0184 1 1 1
v -0.0552 1.388 0.0184 1 1 1
v 0.0184 1.4248 -0.0184 1 1 1
v 0.0184 1.4248 0.0184 1 1 1
v -0.0184 1.4248 -0.0184 1 1 1
v -0.0184 1.4248 0.0184 1 1 1
v 0.0184 1.3512 -0.0184 1 1 1
v 0.0184 1.3512 0.0184 1 1 1
v -0.0184 1.388 -0.0184 1 1 1
v -0.0184 1.388 0.0184 1 1 1
v -0.0184 1.3512 -0.0184 1 1 1
v -0.0184 1.3512 0.0184 1 1 1
v 0.0184 1.388 -0.0184 1 1 1
v 0.0184 1.388 0.0184 1 1 1
v 0.0552 1.388 -0.0184 1 1 1
v 0.0552 1.3512 -0.0184 1 1 1
v 0.0552 1.388 0.0184 1 1 1
v 0.0552 1.3512 0.0184 1 1 1

vn 1 0 0
vn 0 0 -1
vn -1 0 0
vn 0 0 1
vn -0.6938339 0.1928439 -0.6938339
vn 0.6938339 0.1928439 -0.6938339
vn 0.6938339 0.1928439 0.6938339
vn -0.6938339 0.1928439 0.6938339
vn -0.7071068 0 -0.7071068
vn 0.7071068 0 -0.7071068
vn -0.7071068 0 0.7071068
vn 0.7071068 0 0.7071068
vn 0 0.2055103 -0.9786549
vn 0.9996019 0.02821709 0
vn 0.9512886 -0.308302 0
vn -0.9786549 0.2055103 0
vn 0.9786549 0.2055103 0
vn 0 0.2055103 0.9786549
vn 0 -0.308302 0.9512886
vn 0 0.02821709 0.9996019
vn -0.9996019 0.02821709 0
vn -0.9512886 -0.308302 0
vn 0 -0.308302 -0.9512886
vn 0 0.02821709 -0.9996019
vn -0.9254998 0.3787481 0
vn 0 0.3787481 -0.9254998
vn 0 0.3787481 0.9254998
vn 0.9254998 0.3787481 0
vn 0 -1 0
vn 0 1 0

vt 0.71875 0.03482594
vt 0.71875 0.025
vt 0.71875 0.05167041
vt 0.71875 0.144315
vt 0.71875 0.1513335
vt 0.71875 0.1751965
vt 0.71875 0.2004632
vt 0.71875 0.1639669
vt 0.71875 0.1597558
vt 0.09375 0.1513335
vt 0.09375 0.1597558
vt 0.09375 0.2146687
vt 0.09375 0.2198343
vt 0.09375 0.225
vt 0.09375 0.2004632

usemtl colormap

f 3/1/1 2/2/1 1/1/1
f 2/2/1 3/1/1 4/2/1
f 6/1/2 2/2/2 5/2/2
f 2/2/2 6/1/2 1/1/2
f 7/2/3 6/1/3 5/2/3
f 6/1/3 7/2/3 8/1/3
f 3/1/4 7/2/4 4/2/4
f 7/2/4 3/1/4 8/1/4
f 11/3/5 10/1/6 9/1/5
f 10/1/6 11/3/5 12/3/6
f 15/3/7 14/1/8 13/1/7
f 14/1/8 15/3/7 16/3/8
f 12/3/6 13/1/7 10/1/6
f 13/1/7 12/3/6 15/3/7
f 19/3/3 18/4/3 17/3/3
f 18/4/3 19/3/3 20/4/3
f 23/4/1 22/3/1 21/4/1
f 22/3/1 23/4/1 24/3/1
f 18/4/2 22/3/2 17/3/2
f 22/3/2 18/4/2 21/4/2
f 23/4/4 19/3/4 24/3/4
f 19/3/4 23/4/4 20/4/4
f 14/1/8 11/3/5 9/1/5
f 11/3/5 14/1/8 16/3/8
f 27/5/9 26/4/10 25/4/9
f 26/4/10 27/5/9 28/5/10
f 29/4/11 27/5/9 25/4/9
f 27/5/9 29/4/11 30/5/11
f 32/5/12 29/4/11 31/4/12
f 29/4/11 32/5/12 30/5/11
f 32/5/12 26/4/10 28/5/10
f 26/4/10 32/5/12 31/4/12
f 35/7/13 34/6/13 33/6/13
f 34/6/13 35/7/13 36/7/13
f 39/8/14 38/9/15 37/8/14
f 38/9/15 39/8/14 40/9/15
f 41/6/16 35/7/16 33/6/16
f 35/7/16 41/6/16 42/7/16
f 36/7/17 43/6/17 34/6/17
f 43/6/17 36/7/17 44/7/17
f 44/7/18 41/6/18 43/6/18
f 41/6/18 44/7/18 42/7/18
f 39/8/20 45/9/19 40/9/19
f 45/9/19 39/8/20 46/8/20
f 48/9/22 46/8/21 47/8/21
f 46/8/21 48/9/22 45/9/22
f 47/8/24 38/9/23 48/9/23
f 38/9/23 47/8/24 37/8/24
f 46/8/21 33/6/25 47/8/21
f 33/6/25 46/8/21 41/6/25
f 33/6/26 37/8/24 47/8/24
f 37/8/24 33/6/26 34/6/26
f 43/6/27 46/8/20 39/8/20
f 46/8/20 43/6/27 41/6/27
f 34/6/28 39/8/14 37/8/14
f 39/8/14 34/6/28 43/6/28
f 7/2/29 2/2/29 4/2/29
f 2/2/29 7/2/29 5/2/29
f 36/7/30 49/7/30 44/7/30
f 49/7/30 36/7/30 35/7/30
f 50/7/30 44/7/30 49/7/30
f 49/7/30 35/7/30 51/7/30
f 44/7/30 50/7/30 42/7/30
f 51/7/30 35/7/30 52/7/30
f 42/7/30 50/7/30 52/7/30
f 42/7/30 52/7/30 35/7/30
f 23/4/29 29/4/29 20/4/29
f 20/4/29 29/4/29 18/4/29
f 23/4/29 31/4/29 29/4/29
f 25/4/29 18/4/29 29/4/29
f 31/4/29 23/4/29 26/4/29
f 25/4/29 21/4/29 18/4/29
f 26/4/29 21/4/29 25/4/29
f 21/4/29 26/4/29 23/4/29
f 1/1/30 10/1/30 3/1/30
f 10/1/30 1/1/30 6/1/30
f 13/1/30 3/1/30 10/1/30
f 10/1/30 6/1/30 9/1/30
f 3/1/30 13/1/30 8/1/30
f 9/1/30 6/1/30 14/1/30
f 8/1/30 13/1/30 14/1/30
f 8/1/30 14/1/30 6/1/30
f 54/5/30 27/5/30 53/5/30
f 53/5/30 27/5/30 55/5/30
f 54/5/30 28/5/30 27/5/30
f 30/5/30 55/5/30 27/5/30
f 28/5/30 54/5/30 32/5/30
f 30/5/30 56/5/30 55/5/30
f 32/5/30 56/5/30 30/5/30
f 56/5/30 32/5/30 54/5/30
f 22/3/30 11/3/30 17/3/30
f 17/3/30 11/3/30 19/3/30
f 22/3/30 12/3/30 11/3/30
f 16/3/30 19/3/30 11/3/30
f 12/3/30 22/3/30 15/3/30
f 16/3/30 24/3/30 19/3/30
f 15/3/30 24/3/30 16/3/30
f 24/3/30 15/3/30 22/3/30
f 48/11/2 54/10/2 53/10/2
f 54/10/2 48/11/2 38/11/2
f 55/10/3 48/11/3 53/10/3
f 48/11/3 55/10/3 45/11/3
f 40/11/4 55/10/4 56/10/4
f 55/10/4 40/11/4 45/11/4
f 40/11/1 54/10/1 38/11/1
f 54/10/1 40/11/1 56/10/1
f 59/12/3 58/13/3 57/12/3
f 58/13/3 59/12/3 60/13/3
f 63/14/30 62/14/30 61/14/30
f 62/14/30 63/14/30 64/14/30
f 66/12/1 49/15/1 65/12/1
f 49/15/1 66/12/1 50/15/1
f 58/13/30 68/13/30 67/13/30
f 68/13/30 58/13/30 60/13/30
f 52/15/3 69/12/3 51/15/3
f 69/12/3 52/15/3 70/12/3
f 59/12/29 69/12/29 70/12/29
f 69/12/29 59/12/29 57/12/29
f 68/13/3 63/14/3 67/13/3
f 63/14/3 68/13/3 64/14/3
f 62/14/1 71/13/1 61/14/1
f 71/13/1 62/14/1 72/13/1
f 71/13/2 63/14/2 61/14/2
f 63/14/2 71/13/2 67/13/2
f 73/13/2 67/13/2 71/13/2
f 73/13/2 58/13/2 67/13/2
f 74/12/2 58/13/2 73/13/2
f 65/12/2 58/13/2 74/12/2
f 69/12/2 58/13/2 65/12/2
f 58/13/2 69/12/2 57/12/2
f 49/15/2 69/12/2 65/12/2
f 69/12/2 49/15/2 51/15/2
f 68/13/4 62/14/4 64/14/4
f 62/14/4 68/13/4 72/13/4
f 60/13/4 72/13/4 68/13/4
f 60/13/4 75/13/4 72/13/4
f 59/12/4 75/13/4 60/13/4
f 70/12/4 75/13/4 59/12/4
f 66/12/4 75/13/4 70/12/4
f 75/13/4 66/12/4 76/12/4
f 52/15/4 66/12/4 70/12/4
f 66/12/4 52/15/4 50/15/4
f 71/13/30 75/13/30 73/13/30
f 75/13/30 71/13/30 72/13/30
f 75/13/1 74/12/1 73/13/1
f 74/12/1 75/13/1 76/12/1
f 66/12/29 74/12/29 76/12/29
f 74/12/29 66/12/29 65/12/29

g cross-column




usemtl colormap

f 3/1/1 2/2/1 1/1/1
f 2/2/1 3/1/1 4/2/1
f 6/1/2 2/2/2 5/2/2
f 2/2/2 6/1/2 1/1/2
f 7/2/3 6/1/3 5/2/3
f 6/1/3 7/2/3 8/1/3
f 3/1/4 7/2/4 4/2/4
f 7/2/4 3/1/4 8/1/4
f 11/3/5 10/1/6 9/1/5
f 10/1/6 11/3/5 12/3/6
f 15/3/7 14/1/8 13/1/7
f 14/1/8 15/3/7 16/3/8
f 12/3/6 13/1/7 10/1/6
f 13/1/7 12/3/6 15/3/7
f 19/3/3 18/4/3 17/3/3
f 18/4/3 19/3/3 20/4/3
f 23/4/1 22/3/1 21/4/1
f 22/3/1 23/4/1 24/3/1
f 18/4/2 22/3/2 17/3/2
f 22/3/2 18/4/2 21/4/2
f 23/4/4 19/3/4 24/3/4
f 19/3/4 23/4/4 20/4/4
f 14/1/8 11/3/5 9/1/5
f 11/3/5 14/1/8 16/3/8
f 27/5/9 26/4/10 25/4/9
f 26/4/10 27/5/9 28/5/10
f 29/4/11 27/5/9 25/4/9
f 27/5/9 29/4/11 30/5/11
f 32/5/12 29/4/11 31/4/12
f 29/4/11 32/5/12 30/5/11
f 32/5/12 26/4/10 28/5/10
f 26/4/10 32/5/12 31/4/12
f 35/7/13 34/6/13 33/6/13
f 34/6/13 35/7/13 36/7/13
f 39/8/14 38/9/15 37/8/14
f 38/9/15 39/8/14 40/9/15
f 41/6/16 35/7/16 33/6/16
f 35/7/16 41/6/16 42/7/16
f 36/7/17 43/6/17 34/6/17
f 43/6/17 36/7/17 44/7/17
f 44/7/18 41/6/18 43/6/18
f 41/6/18 44/7/18 42/7/18
f 39/8/20 45/9/19 40/9/19
f 45/9/19 39/8/20 46/8/20
f 48/9/22 46/8/21 47/8/21
f 46/8/21 48/9/22 45/9/22
f 47/8/24 38/9/23 48/9/23
f 38/9/23 47/8/24 37/8/24
f 46/8/21 33/6/25 47/8/21
f 33/6/25 46/8/21 41/6/25
f 33/6/26 37/8/24 47/8/24
f 37/8/24 33/6/26 34/6/26
f 43/6/27 46/8/20 39/8/20
f 46/8/20 43/6/27 41/6/27
f 34/6/28 39/8/14 37/8/14
f 39/8/14 34/6/28 43/6/28
f 7/2/29 2/2/29 4/2/29
f 2/2/29 7/2/29 5/2/29
f 36/7/30 49/7/30 44/7/30
f 49/7/30 36/7/30 35/7/30
f 50/7/30 44/7/30 49/7/30
f 49/7/30 35/7/30 51/7/30
f 44/7/30 50/7/30 42/7/30
f 51/7/30 35/7/30 52/7/30
f 42/7/30 50/7/30 52/7/30
f 42/7/30 52/7/30 35/7/30
f 23/4/29 29/4/29 20/4/29
f 20/4/29 29/4/29 18/4/29
f 23/4/29 31/4/29 29/4/29
f 25/4/29 18/4/29 29/4/29
f 31/4/29 23/4/29 26/4/29
f 25/4/29 21/4/29 18/4/29
f 26/4/29 21/4/29 25/4/29
f 21/4/29 26/4/29 23/4/29
f 1/1/30 10/1/30 3/1/30
f 10/1/30 1/1/30 6/1/30
f 13/1/30 3/1/30 10/1/30
f 10/1/30 6/1/30 9/1/30
f 3/1/30 13/1/30 8/1/30
f 9/1/30 6/1/30 14/1/30
f 8/1/30 13/1/30 14/1/30
f 8/1/30 14/1/30 6/1/30
f 54/5/30 27/5/30 53/5/30
f 53/5/30 27/5/30 55/5/30
f 54/5/30 28/5/30 27/5/30
f 30/5/30 55/5/30 27/5/30
f 28/5/30 54/5/30 32/5/30
f 30/5/30 56/5/30 55/5/30
f 32/5/30 56/5/30 30/5/30
f 56/5/30 32/5/30 54/5/30
f 22/3/30 11/3/30 17/3/30
f 17/3/30 11/3/30 19/3/30
f 22/3/30 12/3/30 11/3/30
f 16/3/30 19/3/30 11/3/30
f 12/3/30 22/3/30 15/3/30
f 16/3/30 24/3/30 19/3/30
f 15/3/30 24/3/30 16/3/30
f 24/3/30 15/3/30 22/3/30
f 48/11/2 54/10/2 53/10/2
f 54/10/2 48/11/2 38/11/2
f 55/10/3 48/11/3 53/10/3
f 48/11/3 55/10/3 45/11/3
f 40/11/4 55/10/4 56/10/4
f 55/10/4 40/11/4 45/11/4
f 40/11/1 54/10/1 38/11/1
f 54/10/1 40/11/1 56/10/1
f 59/12/3 58/13/3 57/12/3
f 58/13/3 59/12/3 60/13/3
f 63/14/30 62/14/30 61/14/30
f 62/14/30 63/14/30 64/14/30
f 66/12/1 49/15/1 65/12/1
f 49/15/1 66/12/1 50/15/1
f 58/13/30 68/13/30 67/13/30
f 68/13/30 58/13/30 60/13/30
f 52/15/3 69/12/3 51/15/3
f 69/12/3 52/15/3 70/12/3
f 59/12/29 69/12/29 70/12/29
f 69/12/29 59/12/29 57/12/29
f 68/13/3 63/14/3 67/13/3
f 63/14/3 68/13/3 64/14/3
f 62/14/1 71/13/1 61/14/1
f 71/13/1 62/14/1 72/13/1
f 71/13/2 63/14/2 61/14/2
f 63/14/2 71/13/2 67/13/2
f 73/13/2 67/13/2 71/13/2
f 73/13/2 58/13/2 67/13/2
f 74/12/2 58/13/2 73/13/2
f 65/12/2 58/13/2 74/12/2
f 69/12/2 58/13/2 65/12/2
f 58/13/2 69/12/2 57/12/2
f 49/15/2 69/12/2 65/12/2
f 69/12/2 49/15/2 51/15/2
f 68/13/4 62/14/4 64/14/4
f 62/14/4 68/13/4 72/13/4
f 60/13/4 72/13/4 68/13/4
f 60/13/4 75/13/4 72/13/4
f 59/12/4 75/13/4 60/13/4
f 70/12/4 75/13/4 59/12/4
f 66/12/4 75/13/4 70/12/4
f 75/13/4 66/12/4 76/12/4
f 52/15/4 66/12/4 70/12/4
f 66/12/4 52/15/4 50/15/4
f 71/13/30 75/13/30 73/13/30
f 75/13/30 71/13/30 72/13/30
f 75/13/1 74/12/1 73/13/1
f 74/12/1 75/13/1 76/12/1
f 66/12/29 74/12/29 76/12/29
f 74/12/29 66/12/29 65/12/29

