# Created by Kenney (www.kenney.nl)

mtllib crypt-large-roof.mtl

g crypt-large-roof

v 0.5 0 1.05 1 1 1
v -0.5 0 1.05 1 1 1
v 0.5 0.1 1.05 1 1 1
v -0.5 0.1 1.05 1 1 1
v -0.55 0 1 1 1 1
v -0.55 0.1 1 1 1 1
v 0.55 0 1 1 1 1
v 0.55 0.1 1 1 1 1
v -0.5 0 -1.05 1 1 1
v -0.5 0.1 -1.05 1 1 1
v -0.55 0 -1 1 1 1
v -0.55 0.1 -1 1 1 1
v 0.5 0.1 -1.05 1 1 1
v 0.5 0 -1.05 1 1 1
v 0.55 0.1 -1 1 1 1
v 0.55 0 -1 1 1 1
v 0.45 0.1 -0.9499999 1 1 1
v 0.45 0.1 0.9499999 1 1 1
v 0.2833333 0.1 -0.9499999 1 1 1
v 0.2833333 0.1 -0.9 1 1 1
v 0.2833333 0.1 0.9499999 1 1 1
v -0.2833333 0.1 -0.9499999 1 1 1
v -0.2833333 0.1 -0.9 1 1 1
v -0.45 0.1 -0.9499999 1 1 1
v -0.45 0.1 0.9499999 1 1 1
v -0.2833333 0.1 0.9499999 1 1 1
v -0.2833333 0.1 0.9 1 1 1
v 0.2833333 0.1 0.9 1 1 1
v -0.01666667 0.3 -0.9 1 1 1
v 0.01666667 0.3 -0.9 1 1 1
v 0.01666667 0.3 0.9 1 1 1
v -0.01666667 0.3 0.9 1 1 1
v 0.05 0.4 -0.9499999 1 1 1
v 0.05 0.4 0.9499999 1 1 1
v -0.05 0.4 -0.9499999 1 1 1
v -0.05 0.4 0.9499999 1 1 1
v 0.01666667 0.3 0.9499999 1 1 1
v -0.01666667 0.3 0.9499999 1 1 1
v -0.01666667 0.3 -0.9499999 1 1 1
v 0.01666667 0.3 -0.9499999 1 1 1
v -0.2588758 0.2433432 0.4666105 1 1 1
v -0.1988758 0.2883432 0.4916104 1 1 1
v -0.2689362 0.2357978 0.5720208 1 1 1
v -0.2788758 0.2283432 0.3916105 1 1 1
v -0.1889362 0.2957978 0.5720208 1 1 1
v -0.1188757 0.3483432 0.4916104 1 1 1
v -0.3289362 0.1907978 0.5970208 1 1 1
v -0.1889362 0.2957978 0.7720208 1 1 1
v -0.1188757 0.3483432 0.2916105 1 1 1
v -0.2689362 0.2357978 0.7720208 1 1 1
v -0.3289362 0.1907978 0.7470208 1 1 1
v -0.3489363 0.1757978 0.6720209 1 1 1
v -0.3022005 0.2108496 -0.5304091 1 1 1
v -0.2588758 0.2433432 0.3166105 1 1 1
v -0.3222005 0.1958496 -0.6054091 1 1 1
v -0.2422005 0.2558496 -0.5054091 1 1 1
v -0.1988758 0.2883432 0.2916105 1 1 1
v -0.1622005 0.3158496 -0.5054091 1 1 1
v -0.3022005 0.2108496 -0.6804091 1 1 1
v -0.2422005 0.2558496 -0.7054091 1 1 1
v -0.1622005 0.3158496 -0.7054091 1 1 1
v 0.2946359 0.2165231 0.6560734 1 1 1
v 0.354636 0.171523 0.6310734 1 1 1
v 0.214636 0.2765231 0.6560734 1 1 1
v 0.3746359 0.156523 0.5560734 1 1 1
v 0.1377862 0.3341603 -0.1731564 1 1 1
v 0.214636 0.2765231 0.4560734 1 1 1
v 0.2177862 0.2741603 -0.1731564 1 1 1
v 0.2777862 0.2291603 -0.1981564 1 1 1
v 0.2946359 0.2165231 0.4560734 1 1 1
v 0.1377862 0.3341603 -0.3731564 1 1 1
v 0.2177862 0.2741603 -0.3731564 1 1 1
v 0.2777862 0.2291603 -0.3481564 1 1 1
v 0.2977862 0.2141603 -0.2731564 1 1 1
v 0.354636 0.171523 0.4810734 1 1 1
v -0.2288758 0.3283432 0.2916105 1 1 1
v -0.1188758 0.3483432 0.2916105 1 1 1
v -0.1988758 0.2883432 0.4916105 1 1 1
v -0.2288758 0.3283432 0.4916105 1 1 1
v -0.1188758 0.3483432 0.4916105 1 1 1
v -0.2888758 0.2833432 0.3166105 1 1 1
v -0.3088757 0.2683432 0.3916105 1 1 1
v -0.2888758 0.2833432 0.4666105 1 1 1
v -0.2588758 0.2433432 0.4666105 1 1 1
v -0.2989362 0.2757978 0.5720208 1 1 1
v -0.1889362 0.2957978 0.5720208 1 1 1
v -0.2689362 0.2357978 0.7720209 1 1 1
v -0.2989362 0.2757978 0.7720209 1 1 1
v -0.1889362 0.2957978 0.7720209 1 1 1
v -0.3589363 0.2307978 0.5970209 1 1 1
v -0.3789362 0.2157978 0.6720209 1 1 1
v -0.3589363 0.2307978 0.7470208 1 1 1
v -0.3289362 0.1907978 0.5970209 1 1 1
v -0.2722005 0.2958496 -0.7054091 1 1 1
v -0.1622005 0.3158496 -0.7054091 1 1 1
v -0.2422005 0.2558496 -0.5054091 1 1 1
v -0.2722005 0.2958496 -0.5054091 1 1 1
v -0.1622005 0.3158496 -0.5054091 1 1 1
v -0.3322005 0.2508496 -0.6804091 1 1 1
v -0.3522005 0.2358496 -0.6054091 1 1 1
v -0.3322005 0.2508496 -0.5304091 1 1 1
v -0.3222005 0.1958496 -0.6054091 1 1 1
v -0.3022005 0.2108496 -0.6804091 1 1 1
v -0.3022005 0.2108496 -0.5304091 1 1 1
v 0.2477862 0.3141603 -0.1731564 1 1 1
v 0.2177862 0.2741603 -0.1731564 1 1 1
v 0.1377862 0.3341603 -0.1731564 1 1 1
v 0.2477862 0.3141603 -0.3731564 1 1 1
v 0.3077862 0.2691603 -0.1981564 1 1 1
v 0.3277862 0.2541603 -0.2731564 1 1 1
v 0.3077862 0.2691603 -0.3481564 1 1 1
v 0.2777862 0.2291603 -0.1981564 1 1 1
v 0.2777862 0.2291603 -0.3481564 1 1 1
v 0.3246359 0.256523 0.6560735 1 1 1
v 0.2946359 0.2165231 0.6560735 1 1 1
v 0.2146359 0.2765231 0.6560735 1 1 1
v 0.2946359 0.2165231 0.4560734 1 1 1
v 0.3246359 0.256523 0.4560734 1 1 1
v 0.2146359 0.2765231 0.4560734 1 1 1
v 0.3846359 0.2115231 0.6310734 1 1 1
v 0.4046359 0.196523 0.5560734 1 1 1
v 0.3846359 0.2115231 0.4810734 1 1 1
v 0.3746359 0.156523 0.5560734 1 1 1
v 0.3546359 0.171523 0.6310734 1 1 1
v 0.3546359 0.171523 0.4810734 1 1 1

vn 0.3826834 0 0.9238795
vn -0.3826834 0 0.9238795
vn -0.9238795 0 0.3826834
vn 0.9238795 0 0.3826834
vn -0.3826834 0 -0.9238795
vn -0.9238795 0 -0.3826834
vn 0.3826834 0 -0.9238795
vn 0.9238795 0 -0.3826834
vn 0 -1 0
vn 0 1 0
vn 0 0 -1
vn 0 0 1
vn -0.6 -0.8 0
vn 0.6 -0.8 0
vn -0.6 0.8 0
vn 0.6 0.8 0
vn -0.1502731 -0.1127048 -0.9821993
vn -0.1281458 -0.09610935 -0.9870875
vn -0.1281458 -0.09610935 0.9870875
vn -0.1502731 -0.1127048 0.9821993
vn -0.3753255 0.9268931 0
vn -0.6 0.8 0
vn -0.1788855 0.9838699 0
vn -0.8 -0.6 0
vn -0.5656854 -0.4242641 -0.7071068
vn -0.5656854 -0.4242641 0.7071068
vn 0.1502731 -0.1127048 0.9821993
vn 0.1281458 -0.09610935 0.9870875
vn 0.1281458 -0.09610935 -0.9870875
vn 0.1502731 -0.1127048 -0.9821993
vn 0.3753255 0.9268931 0
vn 0.6 0.8 0
vn 0.1788855 0.9838699 0
vn 0.8 -0.6 0
vn 0.5656854 -0.4242641 0.7071068
vn 0.5656854 -0.4242641 -0.7071068

vt 0.09375 0.075
vt 0.09375 0.1
vt 0.09375 0.15
vt 0.71875 0.175
vt 0.71875 0.1
vt 0.71875 0.15
vt 0.71875 0.1358358
vt 0.71875 0.1470858
vt 0.71875 0.1339494
vt 0.71875 0.1320858
vt 0.71875 0.1489495
vt 0.71875 0.1620858
vt 0.71875 0.1226994
vt 0.71875 0.1189494
vt 0.71875 0.1277124
vt 0.71875 0.1239624
vt 0.71875 0.1389624
vt 0.71875 0.1539624
vt 0.71875 0.1291308
vt 0.71875 0.1178808
vt 0.71875 0.1441308
vt 0.71875 0.1141308
vt 0.71875 0.1585401
vt 0.71875 0.1435401
vt 0.71875 0.1322901
vt 0.71875 0.1285401
vt 0.65625 0.125

usemtl colormap

f 3/2/1 2/1/2 1/1/1
f 2/1/2 3/2/1 4/2/2
f 4/2/2 5/1/3 2/1/2
f 5/1/3 4/2/2 6/2/3
f 8/2/4 1/1/1 7/1/4
f 1/1/1 8/2/4 3/2/1
f 11/1/6 10/2/5 9/1/5
f 10/2/5 11/1/6 12/2/6
f 15/2/8 14/1/7 13/2/7
f 14/1/7 15/2/8 16/1/8
f 10/2/5 14/1/7 9/1/5
f 14/1/7 10/2/5 13/2/7
f 1/1/9 16/1/9 7/1/9
f 16/1/9 1/1/9 14/1/9
f 14/1/9 1/1/9 2/1/9
f 14/1/9 2/1/9 9/1/9
f 9/1/9 2/1/9 5/1/9
f 9/1/9 5/1/9 11/1/9
f 8/2/4 16/1/8 15/2/8
f 16/1/8 8/2/4 7/1/4
f 5/1/3 12/2/6 11/1/6
f 12/2/6 5/1/3 6/2/3
f 13/2/10 8/2/10 15/2/10
f 8/2/10 13/2/10 3/2/10
f 3/2/10 13/2/10 17/2/10
f 17/2/10 13/2/10 10/2/10
f 18/2/10 3/2/10 17/2/10
f 17/2/10 10/2/10 19/2/10
f 3/2/10 18/2/10 4/2/10
f 19/2/10 10/2/10 20/2/10
f 4/2/10 18/2/10 21/2/10
f 20/2/10 10/2/10 22/2/10
f 23/2/10 20/2/10 22/2/10
f 22/2/10 10/2/10 24/2/10
f 24/2/10 10/2/10 25/2/10
f 4/2/10 25/2/10 10/2/10
f 4/2/10 10/2/10 12/2/10
f 4/2/10 12/2/10 6/2/10
f 4/2/10 26/2/10 25/2/10
f 4/2/10 21/2/10 26/2/10
f 26/2/10 21/2/10 27/2/10
f 27/2/10 21/2/10 28/2/10
f 29/3/11 20/2/11 23/2/11
f 20/2/11 29/3/11 30/3/11
f 31/3/12 27/2/12 28/2/12
f 27/2/12 31/3/12 32/3/12
f 35/4/10 34/4/10 33/4/10
f 34/4/10 35/4/10 36/4/10
f 34/4/12 21/5/12 18/5/12
f 21/5/12 34/4/12 37/6/12
f 37/6/12 34/4/12 38/6/12
f 36/4/12 38/6/12 34/4/12
f 25/5/12 38/6/12 36/4/12
f 38/6/12 25/5/12 26/5/12
f 35/4/11 22/5/11 24/5/11
f 22/5/11 35/4/11 39/6/11
f 39/6/11 35/4/11 40/6/11
f 33/4/11 40/6/11 35/4/11
f 17/5/11 40/6/11 33/4/11
f 40/6/11 17/5/11 19/5/11
f 30/6/13 19/5/13 20/5/13
f 19/5/13 30/6/13 40/6/13
f 23/5/14 39/6/14 29/6/14
f 39/6/14 23/5/14 22/5/14
f 29/6/9 40/6/9 30/6/9
f 40/6/9 29/6/9 39/6/9
f 26/5/14 32/6/14 38/6/14
f 32/6/14 26/5/14 27/5/14
f 37/6/13 28/5/13 21/5/13
f 28/5/13 37/6/13 31/6/13
f 38/6/9 31/6/9 37/6/9
f 31/6/9 38/6/9 32/6/9
f 43/9/15 42/8/15 41/7/15
f 43/9/15 41/7/15 44/10/15
f 45/11/15 42/8/15 43/9/15
f 42/8/15 45/11/15 46/12/15
f 43/9/15 44/10/15 47/13/15
f 48/11/15 46/12/15 45/11/15
f 48/11/15 36/4/15 46/12/15
f 46/12/15 36/4/15 49/12/15
f 36/4/15 48/11/15 25/5/15
f 25/5/15 48/11/15 50/9/15
f 25/5/15 50/9/15 51/13/15
f 25/5/15 51/13/15 52/14/15
f 25/5/15 52/14/15 24/5/15
f 47/13/15 24/5/15 52/14/15
f 47/13/15 44/10/15 53/15/15
f 54/7/15 53/15/15 44/10/15
f 47/13/15 53/15/15 55/16/15
f 55/16/15 24/5/15 47/13/15
f 54/7/15 56/17/15 53/15/15
f 57/8/15 56/17/15 54/7/15
f 57/8/15 58/18/15 56/17/15
f 49/12/15 58/18/15 57/8/15
f 59/15/15 24/5/15 55/16/15
f 60/17/15 24/5/15 59/15/15
f 58/18/15 49/12/15 61/18/15
f 61/18/15 24/5/15 60/17/15
f 36/4/15 61/18/15 49/12/15
f 61/18/15 35/4/15 24/5/15
f 35/4/15 61/18/15 36/4/15
f 34/4/16 63/20/16 62/19/16
f 34/4/16 62/19/16 64/21/16
f 18/5/16 63/20/16 34/4/16
f 63/20/16 18/5/16 65/22/16
f 34/4/16 64/21/16 66/23/16
f 67/21/16 66/23/16 64/21/16
f 34/4/16 66/23/16 33/4/16
f 67/21/16 68/24/16 66/23/16
f 67/21/16 69/25/16 68/24/16
f 70/19/16 69/25/16 67/21/16
f 71/23/16 33/4/16 66/23/16
f 72/24/16 33/4/16 71/23/16
f 73/25/16 33/4/16 72/24/16
f 73/25/16 17/5/16 33/4/16
f 70/19/16 74/26/16 69/25/16
f 74/26/16 17/5/16 73/25/16
f 17/5/16 74/26/16 18/5/16
f 18/5/16 74/26/16 65/22/16
f 74/26/16 70/19/16 75/20/16
f 65/22/16 74/26/16 75/20/16
f 77/27/11 57/27/18 76/27/17
f 80/27/12 79/27/20 78/27/19
f 81/27/22 79/27/21 76/27/21
f 79/27/21 81/27/22 82/27/22
f 79/27/21 82/27/22 83/27/22
f 79/27/21 77/27/23 76/27/21
f 77/27/23 79/27/21 80/27/23
f 82/27/24 54/27/25 44/27/24
f 54/27/25 82/27/24 81/27/25
f 76/27/17 54/27/25 81/27/25
f 54/27/25 76/27/17 57/27/18
f 78/27/19 83/27/26 84/27/26
f 83/27/26 78/27/19 79/27/20
f 83/27/26 44/27/24 84/27/26
f 44/27/24 83/27/26 82/27/24
f 86/27/11 43/27/18 85/27/17
f 89/27/12 88/27/20 87/27/19
f 90/27/22 88/27/21 85/27/21
f 88/27/21 90/27/22 91/27/22
f 88/27/21 91/27/22 92/27/22
f 88/27/21 86/27/23 85/27/21
f 86/27/23 88/27/21 89/27/23
f 91/27/24 93/27/25 52/27/24
f 93/27/25 91/27/24 90/27/25
f 85/27/17 93/27/25 90/27/25
f 93/27/25 85/27/17 43/27/18
f 87/27/19 92/27/26 51/27/26
f 92/27/26 87/27/19 88/27/20
f 92/27/26 52/27/24 51/27/26
f 52/27/24 92/27/26 91/27/24
f 95/27/11 60/27/18 94/27/17
f 98/27/12 97/27/20 96/27/19
f 99/27/22 97/27/21 94/27/21
f 97/27/21 99/27/22 100/27/22
f 97/27/21 100/27/22 101/27/22
f 97/27/21 95/27/23 94/27/21
f 95/27/23 97/27/21 98/27/23
f 100/27/24 103/27/25 102/27/24
f 103/27/25 100/27/24 99/27/25
f 94/27/17 103/27/25 99/27/25
f 103/27/25 94/27/17 60/27/18
f 96/27/19 101/27/26 104/27/26
f 101/27/26 96/27/19 97/27/20
f 101/27/26 102/27/24 104/27/26
f 102/27/24 101/27/26 100/27/24
f 107/27/12 106/27/28 105/27/27
f 71/27/11 108/27/30 72/27/29
f 109/27/32 108/27/31 105/27/31
f 108/27/31 109/27/32 110/27/32
f 108/27/31 110/27/32 111/27/32
f 108/27/31 107/27/33 105/27/31
f 107/27/33 108/27/31 71/27/33
f 110/27/34 112/27/35 74/27/34
f 112/27/35 110/27/34 109/27/35
f 105/27/27 112/27/35 109/27/35
f 112/27/35 105/27/27 106/27/28
f 72/27/29 111/27/36 113/27/36
f 111/27/36 72/27/29 108/27/30
f 111/27/36 74/27/34 113/27/36
f 74/27/34 111/27/36 110/27/34
f 116/27/12 115/27/28 114/27/27
f 119/27/11 118/27/30 117/27/29
f 120/27/32 118/27/31 114/27/31
f 118/27/31 120/27/32 121/27/32
f 118/27/31 121/27/32 122/27/32
f 118/27/31 116/27/33 114/27/31
f 116/27/33 118/27/31 119/27/33
f 121/27/34 124/27/35 123/27/34
f 124/27/35 121/27/34 120/27/35
f 114/27/27 124/27/35 120/27/35
f 124/27/35 114/27/27 115/27/28
f 117/27/29 122/27/36 125/27/36
f 122/27/36 117/27/29 118/27/30
f 122/27/36 123/27/34 125/27/36
f 123/27/34 122/27/36 121/27/34

g crypt-large-roof




usemtl colormap

f 3/2/1 2/1/2 1/1/1
f 2/1/2 3/2/1 4/2/2
f 4/2/2 5/1/3 2/1/2
f 5/1/3 4/2/2 6/2/3
f 8/2/4 1/1/1 7/1/4
f 1/1/1 8/2/4 3/2/1
f 11/1/6 10/2/5 9/1/5
f 10/2/5 11/1/6 12/2/6
f 15/2/8 14/1/7 13/2/7
f 14/1/7 15/2/8 16/1/8
f 10/2/5 14/1/7 9/1/5
f 14/1/7 10/2/5 13/2/7
f 1/1/9 16/1/9 7/1/9
f 16/1/9 1/1/9 14/1/9
f 14/1/9 1/1/9 2/1/9
f 14/1/9 2/1/9 9/1/9
f 9/1/9 2/1/9 5/1/9
f 9/1/9 5/1/9 11/1/9
f 8/2/4 16/1/8 15/2/8
f 16/1/8 8/2/4 7/1/4
f 5/1/3 12/2/6 11/1/6
f 12/2/6 5/1/3 6/2/3
f 13/2/10 8/2/10 15/2/10
f 8/2/10 13/2/10 3/2/10
f 3/2/10 13/2/10 17/2/10
f 17/2/10 13/2/10 10/2/10
f 18/2/10 3/2/10 17/2/10
f 17/2/10 10/2/10 19/2/10
f 3/2/10 18/2/10 4/2/10
f 19/2/10 10/2/10 20/2/10
f 4/2/10 18/2/10 21/2/10
f 20/2/10 10/2/10 22/2/10
f 23/2/10 20/2/10 22/2/10
f 22/2/10 10/2/10 24/2/10
f 24/2/10 10/2/10 25/2/10
f 4/2/10 25/2/10 10/2/10
f 4/2/10 10/2/10 12/2/10
f 4/2/10 12/2/10 6/2/10
f 4/2/10 26/2/10 25/2/10
f 4/2/10 21/2/10 26/2/10
f 26/2/10 21/2/10 27/2/10
f 27/2/10 21/2/10 28/2/10
f 29/3/11 20/2/11 23/2/11
f 20/2/11 29/3/11 30/3/11
f 31/3/12 27/2/12 28/2/12
f 27/2/12 31/3/12 32/3/12
f 35/4/10 34/4/10 33/4/10
f 34/4/10 35/4/10 36/4/10
f 34/4/12 21/5/12 18/5/12
f 21/5/12 34/4/12 37/6/12
f 37/6/12 34/4/12 38/6/12
f 36/4/12 38/6/12 34/4/12
f 25/5/12 38/6/12 36/4/12
f 38/6/12 25/5/12 26/5/12
f 35/4/11 22/5/11 24/5/11
f 22/5/11 35/4/11 39/6/11
f 39/6/11 35/4/11 40/6/11
f 33/4/11 40/6/11 35/4/11
f 17/5/11 40/6/11 33/4/11
f 40/6/11 17/5/11 19/5/11
f 30/6/13 19/5/13 20/5/13
f 19/5/13 30/6/13 40/6/13
f 23/5/14 39/6/14 29/6/14
f 39/6/14 23/5/14 22/5/14
f 29/6/9 40/6/9 30/6/9
f 40/6/9 29/6/9 39/6/9
f 26/5/14 32/6/14 38/6/14
f 32/6/14 26/5/14 27/5/14
f 37/6/13 28/5/13 21/5/13
f 28/5/13 37/6/13 31/6/13
f 38/6/9 31/6/9 37/6/9
f 31/6/9 38/6/9 32/6/9
f 43/9/15 42/8/15 41/7/15
f 43/9/15 41/7/15 44/10/15
f 45/11/15 42/8/15 43/9/15
f 42/8/15 45/11/15 46/12/15
f 43/9/15 44/10/15 47/13/15
f 48/11/15 46/12/15 45/11/15
f 48/11/15 36/4/15 46/12/15
f 46/12/15 36/4/15 49/12/15
f 36/4/15 48/11/15 25/5/15
f 25/5/15 48/11/15 50/9/15
f 25/5/15 50/9/15 51/13/15
f 25/5/15 51/13/15 52/14/15
f 25/5/15 52/14/15 24/5/15
f 47/13/15 24/5/15 52/14/15
f 47/13/15 44/10/15 53/15/15
f 54/7/15 53/15/15 44/10/15
f 47/13/15 53/15/15 55/16/15
f 55/16/15 24/5/15 47/13/15
f 54/7/15 56/17/15 53/15/15
f 57/8/15 56/17/15 54/7/15
f 57/8/15 58/18/15 56/17/15
f 49/12/15 58/18/15 57/8/15
f 59/15/15 24/5/15 55/16/15
f 60/17/15 24/5/15 59/15/15
f 58/18/15 49/12/15 61/18/15
f 61/18/15 24/5/15 60/17/15
f 36/4/15 61/18/15 49/12/15
f 61/18/15 35/4/15 24/5/15
f 35/4/15 61/18/15 36/4/15
f 34/4/16 63/20/16 62/19/16
f 34/4/16 62/19/16 64/21/16
f 18/5/16 63/20/16 34/4/16
f 63/20/16 18/5/16 65/22/16
f 34/4/16 64/21/16 66/23/16
f 67/21/16 66/23/16 64/21/16
f 34/4/16 66/23/16 33/4/16
f 67/21/16 68/24/16 66/23/16
f 67/21/16 69/25/16 68/24/16
f 70/19/16 69/25/16 67/21/16
f 71/23/16 33/4/16 66/23/16
f 72/24/16 33/4/16 71/23/16
f 73/25/16 33/4/16 72/24/16
f 73/25/16 17/5/16 33/4/16
f 70/19/16 74/26/16 69/25/16
f 74/26/16 17/5/16 73/25/16
f 17/5/16 74/26/16 18/5/16
f 18/5/16 74/26/16 65/22/16
f 74/26/16 70/19/16 75/20/16
f 65/22/16 74/26/16 75/20/16
f 77/27/11 57/27/18 76/27/17
f 80/27/12 79/27/20 78/27/19
f 81/27/22 79/27/21 76/27/21
f 79/27/21 81/27/22 82/27/22
f 79/27/21 82/27/22 83/27/22
f 79/27/21 77/27/23 76/27/21
f 77/27/23 79/27/21 80/27/23
f 82/27/24 54/27/25 44/27/24
f 54/27/25 82/27/24 81/27/25
f 76/27/17 54/27/25 81/27/25
f 54/27/25 76/27/17 57/27/18
f 78/27/19 83/27/26 84/27/26
f 83/27/26 78/27/19 79/27/20
f 83/27/26 44/27/24 84/27/26
f 44/27/24 83/27/26 82/27/24
f 86/27/11 43/27/18 85/27/17
f 89/27/12 88/27/20 87/27/19
f 90/27/22 88/27/21 85/27/21
f 88/27/21 90/27/22 91/27/22
f 88/27/21 91/27/22 92/27/22
f 88/27/21 86/27/23 85/27/21
f 86/27/23 88/27/21 89/27/23
f 91/27/24 93/27/25 52/27/24
f 93/27/25 91/27/24 90/27/25
f 85/27/17 93/27/25 90/27/25
f 93/27/25 85/27/17 43/27/18
f 87/27/19 92/27/26 51/27/26
f 92/27/26 87/27/19 88/27/20
f 92/27/26 52/27/24 51/27/26
f 52/27/24 92/27/26 91/27/24
f 95/27/11 60/27/18 94/27/17
f 98/27/12 97/27/20 96/27/19
f 99/27/22 97/27/21 94/27/21
f 97/27/21 99/27/22 100/27/22
f 97/27/21 100/27/22 101/27/22
f 97/27/21 95/27/23 94/27/21
f 95/27/23 97/27/21 98/27/23
f 100/27/24 103/27/25 102/27/24
f 103/27/25 100/27/24 99/27/25
f 94/27/17 103/27/25 99/27/25
f 103/27/25 94/27/17 60/27/18
f 96/27/19 101/27/26 104/27/26
f 101/27/26 96/27/19 97/27/20
f 101/27/26 102/27/24 104/27/26
f 102/27/24 101/27/26 100/27/24
f 107/27/12 106/27/28 105/27/27
f 71/27/11 108/27/30 72/27/29
f 109/27/32 108/27/31 105/27/31
f 108/27/31 109/27/32 110/27/32
f 108/27/31 110/27/32 111/27/32
f 108/27/31 107/27/33 105/27/31
f 107/27/33 108/27/31 71/27/33
f 110/27/34 112/27/35 74/27/34
f 112/27/35 110/27/34 109/27/35
f 105/27/27 112/27/35 109/27/35
f 112/27/35 105/27/27 106/27/28
f 72/27/29 111/27/36 113/27/36
f 111/27/36 72/27/29 108/27/30
f 111/27/36 74/27/34 113/27/36
f 74/27/34 111/27/36 110/27/34
f 116/27/12 115/27/28 114/27/27
f 119/27/11 118/27/30 117/27/29
f 120/27/32 118/27/31 114/27/31
f 118/27/31 120/27/32 121/27/32
f 118/27/31 121/27/32 122/27/32
f 118/27/31 116/27/33 114/27/31
f 116/27/33 118/27/31 119/27/33
f 121/27/34 124/27/35 123/27/34
f 124/27/35 121/27/34 120/27/35
f 114/27/27 124/27/35 120/27/35
f 124/27/35 114/27/27 115/27/28
f 117/27/29 122/27/36 125/27/36
f 122/27/36 117/27/29 118/27/30
f 122/27/36 123/27/34 125/27/36
f 123/27/34 122/27/36 121/27/34

