# Created by Kenney (www.kenney.nl)

mtllib crypt.mtl

g crypt

v 0.2347022 0.3304 -0.3863698 1 1 1
v 0.2347022 0.0784 -0.4255697 1 1 1
v 0.2347022 0.0784 -0.3863698 1 1 1
v 0.2347022 0.3696 -0.4255697 1 1 1
v 0.2347022 0.3696 0.4255697 1 1 1
v 0.2347022 0.3304 0.3863698 1 1 1
v 0.2347022 0.0784 0.3863698 1 1 1
v 0.2347022 0.0784 0.4255697 1 1 1
v 0.2827697 0.392 -0.4642242 1 1 1
v 0.2827697 0.3696 -0.4642242 1 1 1
v 0.2827697 0.392 0.4642242 1 1 1
v 0.2827697 0.3696 0.4642242 1 1 1
v -0.2356374 0.0784 -0.4255697 1 1 1
v -0.1964374 0.0784 -0.4255697 1 1 1
v -0.2356374 0.3696 -0.4255697 1 1 1
v -0.1964374 0.3304 -0.4255697 1 1 1
v 0.1955022 0.3304 -0.4255697 1 1 1
v 0.1955022 0.0784 -0.4255697 1 1 1
v 0.1818477 0.056 -0.4392242 1 1 1
v 0.2483566 0.056 -0.4392242 1 1 1
v 0.1818477 0.0784 -0.4392242 1 1 1
v 0.2483566 0.0784 -0.4392242 1 1 1
v 0.2347022 0.392 -0.4642242 1 1 1
v 0.2347022 0.392 0.4642242 1 1 1
v -0.2492924 0.056 0.3727153 1 1 1
v -0.2492924 0.0784 0.3727153 1 1 1
v -0.2492924 0.056 0.4392242 1 1 1
v -0.2492924 0.0784 0.4392242 1 1 1
v -0.2155698 0.0784 -0.3863698 1 1 1
v -0.2356374 0.0784 -0.3863698 1 1 1
v -0.2155698 0.3304 -0.3863698 1 1 1
v -0.2356374 0.3304 -0.3863698 1 1 1
v -0.0004676 0.532 -0.4642242 1 1 1
v -0.0004676 0.532 0.4642242 1 1 1
v -0.2356374 0.392 -0.4642242 1 1 1
v -0.2356374 0.392 0.4642242 1 1 1
v 0.1955022 0.0784 0.4059698 1 1 1
v 0.1818477 0.0784 0.4059698 1 1 1
v 0.1955022 0.3304 0.4059698 1 1 1
v -0.1827829 0.0784 0.4059698 1 1 1
v -0.1964374 0.0784 0.4059698 1 1 1
v -0.1964374 0.3304 0.4059698 1 1 1
v -0.1827829 0.056 0.4059698 1 1 1
v 0.1818477 0.056 0.4059698 1 1 1
v 0.2155698 0.0784 0.3863698 1 1 1
v 0.2155698 0.0784 0.3727153 1 1 1
v 0.2483566 0.0784 0.3727153 1 1 1
v 0.2483566 0.0784 0.4392242 1 1 1
v 0.1818477 0.0784 0.4392242 1 1 1
v 0.1955022 0.0784 0.4255697 1 1 1
v -0.2155698 0.3304 0.3863698 1 1 1
v -0.2356374 0.3304 0.3863698 1 1 1
v 0.1955022 0.3304 0.4255697 1 1 1
v 0.2155698 0.0784 -0.3863698 1 1 1
v 0.2155698 0.3304 -0.3863698 1 1 1
v 0.1955022 0.0784 -0.4059698 1 1 1
v 0.1955022 0.3304 -0.4059698 1 1 1
v 0.2483566 0.056 0.3727153 1 1 1
v 0.2483566 0.056 0.4392242 1 1 1
v 0.1818477 0.056 0.4392242 1 1 1
v -0.2155698 0.056 0.3727153 1 1 1
v -0.2155698 0.0784 0.3727153 1 1 1
v -0.1827829 0.056 0.4392242 1 1 1
v -0.1827829 0.0784 0.4392242 1 1 1
v -0.1827829 0.0784 -0.4059698 1 1 1
v -0.1964374 0.0784 -0.4059698 1 1 1
v -0.1827829 0.0784 -0.4392242 1 1 1
v -0.2492924 0.0784 -0.4392242 1 1 1
v -0.2492924 0.0784 -0.3727153 1 1 1
v -0.2155698 0.0784 -0.3727153 1 1 1
v -0.2155698 0.0784 0.3863698 1 1 1
v -0.2356374 0.0784 0.3863698 1 1 1
v -0.2356374 0.0784 0.4255697 1 1 1
v -0.1964374 0.0784 0.4255697 1 1 1
v -0.2492924 0.056 -0.4392242 1 1 1
v -0.1827829 0.056 -0.4392242 1 1 1
v -0.1827829 0.056 -0.4059698 1 1 1
v -0.1964374 0.3304 -0.4059698 1 1 1
v 0.1818477 0.0784 -0.4059698 1 1 1
v 0.2483566 0.0784 -0.3727153 1 1 1
v 0.2155698 0.0784 -0.3727153 1 1 1
v 0.2483566 0.056 -0.3727153 1 1 1
v 0.2155698 0.056 -0.3727153 1 1 1
v 0.2155698 0.056 0.3727153 1 1 1
v -0.2492924 0.056 -0.3727153 1 1 1
v -0.2155698 0.056 -0.3727153 1 1 1
v 0.2155698 0.3304 0.3863698 1 1 1
v -0.2827697 0.392 -0.4642242 1 1 1
v -0.2827697 0.3696 -0.4642242 1 1 1
v -0.2356374 0.3696 0.4255697 1 1 1
v -0.2827697 0.3696 0.4642242 1 1 1
v -0.2827697 0.392 0.4642242 1 1 1
v -0.1964374 0.3304 0.4255697 1 1 1
v 0.3752 0 0.5264 1 1 1
v 0.3752 0 -0.5264 1 1 1
v 0.336 0 0.5656 1 1 1
v 0.336 0 -0.5656 1 1 1
v -0.336 0 0.5656 1 1 1
v -0.336 0 -0.5656 1 1 1
v -0.3752 0 0.5264 1 1 1
v -0.3752 0 -0.5264 1 1 1
v -0.336 0.0336 -0.5656 1 1 1
v 0.336 0.0336 -0.5656 1 1 1
v 0.3752 0.0336 -0.5264 1 1 1
v 0.1818477 0.056 -0.4059698 1 1 1
v 0.336 0.0336 0.5656 1 1 1
v -0.336 0.0336 0.5656 1 1 1
v 0.3752 0.0336 0.5264 1 1 1
v -0.2827697 0.0336 -0.4731697 1 1 1
v 0.2827697 0.0336 -0.4731697 1 1 1
v -0.2827697 0.056 -0.4731697 1 1 1
v 0.2827697 0.056 -0.4731697 1 1 1
v -0.3752 0.0336 0.5264 1 1 1
v 0.2827697 0.0336 0.4731697 1 1 1
v -0.2827697 0.0336 0.4731697 1 1 1
v -0.3752 0.0336 -0.5264 1 1 1
v 0.2827697 0.056 0.4731697 1 1 1
v -0.2827697 0.056 0.4731697 1 1 1

vn 1 0 0
vn 0 0 -1
vn 0 1 0
vn -1 0 0
vn 0 0 1
vn -0.5115324 0.859264 0
vn 0 -1 0
vn 0.7071068 0 -0.7071068
vn 0.5115324 0.859264 0
vn 0.7071068 0 0.7071068
vn -0.7071068 0 0.7071068
vn -0.7071068 0 -0.7071068

vt 0.71875 0.1492105
vt 0.71875 0.05447368
vt 0.71875 0.1639474
vt 0.71875 0.1723684
vt 0.71875 0.04605263
vt 0.71875 0.225
vt 0.71875 0.025
vt 0.71875 0.03763158

usemtl colormap

f 3/2/1 2/2/1 1/1/1
f 4/3/1 1/1/1 2/2/1
f 1/1/1 4/3/1 5/3/1
f 1/1/1 5/3/1 6/1/1
f 6/1/1 5/3/1 7/2/1
f 7/2/1 5/3/1 8/2/1
f 11/4/1 10/3/1 9/4/1
f 10/3/1 11/4/1 12/3/1
f 15/3/2 14/2/2 13/2/2
f 14/2/2 15/3/2 16/1/2
f 16/1/2 15/3/2 17/1/2
f 4/3/2 17/1/2 15/3/2
f 2/2/2 17/1/2 4/3/2
f 17/1/2 2/2/2 18/2/2
f 21/2/2 20/5/2 19/5/2
f 20/5/2 21/2/2 22/2/2
f 23/4/3 11/4/3 9/4/3
f 11/4/3 23/4/3 24/4/3
f 27/5/4 26/2/4 25/5/4
f 26/2/4 27/5/4 28/2/4
f 31/1/5 30/2/5 29/2/5
f 30/2/5 31/1/5 32/1/5
f 35/4/6 34/6/6 33/6/6
f 34/6/6 35/4/6 36/4/6
f 39/1/5 38/2/5 37/2/5
f 38/2/5 39/1/5 40/2/5
f 40/2/5 39/1/5 41/2/5
f 41/2/5 39/1/5 42/1/5
f 43/5/5 38/2/5 40/2/5
f 38/2/5 43/5/5 44/5/5
f 7/2/3 46/2/3 45/2/3
f 7/2/3 47/2/3 46/2/3
f 47/2/3 7/2/3 48/2/3
f 8/2/3 48/2/3 7/2/3
f 48/2/3 8/2/3 49/2/3
f 49/2/3 8/2/3 50/2/3
f 49/2/3 50/2/3 38/2/3
f 38/2/3 50/2/3 37/2/3
f 52/1/7 31/1/7 51/1/7
f 31/1/7 52/1/7 32/1/7
f 50/2/4 39/1/4 37/2/4
f 39/1/4 50/2/4 53/1/4
f 1/1/5 54/2/5 3/2/5
f 54/2/5 1/1/5 55/1/5
f 56/2/4 17/1/4 18/2/4
f 17/1/4 56/2/4 57/1/4
f 48/2/1 58/5/1 47/2/1
f 58/5/1 48/2/1 59/5/1
f 60/5/4 38/2/4 44/5/4
f 38/2/4 60/5/4 49/2/4
f 26/2/2 61/5/2 25/5/2
f 61/5/2 26/2/2 62/2/2
f 64/2/5 27/5/5 63/5/5
f 27/5/5 64/2/5 28/2/5
f 66/2/3 65/2/3 14/2/3
f 67/2/3 14/2/3 65/2/3
f 14/2/3 67/2/3 68/2/3
f 14/2/3 68/2/3 13/2/3
f 13/2/3 68/2/3 30/2/3
f 69/2/3 30/2/3 68/2/3
f 70/2/3 30/2/3 69/2/3
f 30/2/3 70/2/3 29/2/3
f 48/2/5 60/5/5 59/5/5
f 60/5/5 48/2/5 49/2/5
f 26/2/3 71/2/3 62/2/3
f 71/2/3 26/2/3 72/2/3
f 72/2/3 26/2/3 73/2/3
f 28/2/3 73/2/3 26/2/3
f 28/2/3 74/2/3 73/2/3
f 64/2/3 74/2/3 28/2/3
f 64/2/3 41/2/3 74/2/3
f 41/2/3 64/2/3 40/2/3
f 68/2/2 76/5/2 75/5/2
f 76/5/2 68/2/2 67/2/2
f 52/1/2 71/2/2 72/2/2
f 71/2/2 52/1/2 51/1/2
f 65/2/1 76/5/1 67/2/1
f 76/5/1 65/2/1 77/5/1
f 78/1/1 14/2/1 16/1/1
f 14/2/1 78/1/1 66/2/1
f 56/2/3 21/2/3 79/2/3
f 18/2/3 21/2/3 56/2/3
f 2/2/3 21/2/3 18/2/3
f 2/2/3 22/2/3 21/2/3
f 22/2/3 2/2/3 80/2/3
f 3/2/3 80/2/3 2/2/3
f 80/2/3 3/2/3 81/2/3
f 81/2/3 3/2/3 54/2/3
f 80/2/5 83/5/5 82/5/5
f 83/5/5 80/2/5 81/2/5
f 46/2/2 58/5/2 84/5/2
f 58/5/2 46/2/2 47/2/2
f 80/2/1 20/5/1 22/2/1
f 20/5/1 80/2/1 82/5/1
f 85/5/4 68/2/4 75/5/4
f 68/2/4 85/5/4 69/2/4
f 61/5/4 70/2/4 86/5/4
f 62/2/4 70/2/4 61/5/4
f 51/1/4 70/2/4 62/2/4
f 51/1/4 62/2/4 71/2/4
f 31/1/4 70/2/4 51/1/4
f 70/2/4 31/1/4 29/2/4
f 87/1/2 7/2/2 45/2/2
f 7/2/2 87/1/2 6/1/2
f 84/5/1 83/5/1 46/2/1
f 83/5/1 87/1/1 46/2/1
f 46/2/1 87/1/1 45/2/1
f 81/2/1 87/1/1 83/5/1
f 54/2/1 87/1/1 81/2/1
f 87/1/1 54/2/1 55/1/1
f 33/6/2 23/4/2 35/4/2
f 9/4/2 35/4/2 23/4/2
f 9/4/2 88/4/2 35/4/2
f 10/3/2 88/4/2 9/4/2
f 88/4/2 10/3/2 89/3/2
f 73/2/4 52/1/4 72/2/4
f 90/3/4 52/1/4 73/2/4
f 90/3/4 32/1/4 52/1/4
f 15/3/4 32/1/4 90/3/4
f 15/3/4 30/2/4 32/1/4
f 30/2/4 15/3/4 13/2/4
f 64/2/1 43/5/1 40/2/1
f 43/5/1 64/2/1 63/5/1
f 91/3/4 88/4/4 89/3/4
f 88/4/4 91/3/4 92/4/4
f 93/1/7 39/1/7 53/1/7
f 39/1/7 93/1/7 42/1/7
f 70/2/5 85/5/5 86/5/5
f 85/5/5 70/2/5 69/2/5
f 93/1/1 41/2/1 42/1/1
f 41/2/1 93/1/1 74/2/1
f 96/7/7 95/7/7 94/7/7
f 95/7/7 96/7/7 97/7/7
f 97/7/7 96/7/7 98/7/7
f 97/7/7 98/7/7 99/7/7
f 99/7/7 98/7/7 100/7/7
f 99/7/7 100/7/7 101/7/7
f 102/8/2 97/7/2 99/7/2
f 97/7/2 102/8/2 103/8/2
f 104/8/8 97/7/8 103/8/8
f 97/7/8 104/8/8 95/7/8
f 33/6/9 24/4/9 23/4/9
f 24/4/9 33/6/9 34/6/9
f 78/1/2 65/2/2 66/2/2
f 65/2/2 78/1/2 79/2/2
f 79/2/2 78/1/2 56/2/2
f 56/2/2 78/1/2 57/1/2
f 105/5/2 65/2/2 79/2/2
f 65/2/2 105/5/2 77/5/2
f 106/8/5 98/7/5 96/7/5
f 98/7/5 106/8/5 107/8/5
f 108/8/1 95/7/1 104/8/1
f 95/7/1 108/8/1 94/7/1
f 106/8/10 94/7/10 108/8/10
f 94/7/10 106/8/10 96/7/10
f 111/5/2 110/8/2 109/8/2
f 110/8/2 111/5/2 112/5/2
f 98/7/11 113/8/11 100/7/11
f 113/8/11 98/7/11 107/8/11
f 103/8/3 108/8/3 104/8/3
f 108/8/3 103/8/3 106/8/3
f 106/8/3 103/8/3 110/8/3
f 110/8/3 103/8/3 102/8/3
f 114/8/3 106/8/3 110/8/3
f 110/8/3 102/8/3 109/8/3
f 106/8/3 114/8/3 107/8/3
f 109/8/3 102/8/3 115/8/3
f 107/8/3 114/8/3 115/8/3
f 107/8/3 115/8/3 102/8/3
f 107/8/3 102/8/3 116/8/3
f 107/8/3 116/8/3 113/8/3
f 100/7/4 116/8/4 101/7/4
f 116/8/4 100/7/4 113/8/4
f 117/5/5 115/8/5 114/8/5
f 115/8/5 117/5/5 118/5/5
f 5/3/5 50/2/5 8/2/5
f 50/2/5 5/3/5 53/1/5
f 53/1/5 5/3/5 93/1/5
f 90/3/5 93/1/5 5/3/5
f 73/2/5 93/1/5 90/3/5
f 93/1/5 73/2/5 74/2/5
f 117/5/1 110/8/1 112/5/1
f 110/8/1 117/5/1 114/8/1
f 101/7/12 102/8/12 99/7/12
f 102/8/12 101/7/12 116/8/12
f 87/1/7 1/1/7 6/1/7
f 1/1/7 87/1/7 55/1/7
f 115/8/4 111/5/4 109/8/4
f 111/5/4 115/8/4 118/5/4
f 78/1/7 17/1/7 57/1/7
f 17/1/7 78/1/7 16/1/7
f 105/5/4 21/2/4 19/5/4
f 21/2/4 105/5/4 79/2/4
f 58/5/3 83/5/3 84/5/3
f 83/5/3 58/5/3 82/5/3
f 59/5/3 82/5/3 58/5/3
f 59/5/3 20/5/3 82/5/3
f 59/5/3 117/5/3 20/5/3
f 112/5/3 20/5/3 117/5/3
f 20/5/3 112/5/3 111/5/3
f 20/5/3 111/5/3 19/5/3
f 117/5/3 59/5/3 118/5/3
f 19/5/3 111/5/3 105/5/3
f 118/5/3 59/5/3 60/5/3
f 105/5/3 111/5/3 76/5/3
f 77/5/3 105/5/3 76/5/3
f 76/5/3 111/5/3 75/5/3
f 75/5/3 111/5/3 85/5/3
f 118/5/3 60/5/3 63/5/3
f 63/5/3 60/5/3 43/5/3
f 43/5/3 60/5/3 44/5/3
f 118/5/3 63/5/3 27/5/3
f 118/5/3 27/5/3 111/5/3
f 25/5/3 111/5/3 27/5/3
f 85/5/3 111/5/3 25/5/3
f 61/5/3 85/5/3 25/5/3
f 85/5/3 61/5/3 86/5/3
f 88/4/3 36/4/3 35/4/3
f 36/4/3 88/4/3 92/4/3
f 34/6/5 36/4/5 24/4/5
f 92/4/5 24/4/5 36/4/5
f 92/4/5 11/4/5 24/4/5
f 91/3/5 11/4/5 92/4/5
f 11/4/5 91/3/5 12/3/5
f 12/3/7 5/3/7 10/3/7
f 5/3/7 12/3/7 91/3/7
f 4/3/7 10/3/7 5/3/7
f 5/3/7 91/3/7 90/3/7
f 10/3/7 4/3/7 89/3/7
f 90/3/7 91/3/7 15/3/7
f 89/3/7 4/3/7 15/3/7
f 89/3/7 15/3/7 91/3/7

g crypt




usemtl colormap

f 3/2/1 2/2/1 1/1/1
f 4/3/1 1/1/1 2/2/1
f 1/1/1 4/3/1 5/3/1
f 1/1/1 5/3/1 6/1/1
f 6/1/1 5/3/1 7/2/1
f 7/2/1 5/3/1 8/2/1
f 11/4/1 10/3/1 9/4/1
f 10/3/1 11/4/1 12/3/1
f 15/3/2 14/2/2 13/2/2
f 14/2/2 15/3/2 16/1/2
f 16/1/2 15/3/2 17/1/2
f 4/3/2 17/1/2 15/3/2
f 2/2/2 17/1/2 4/3/2
f 17/1/2 2/2/2 18/2/2
f 21/2/2 20/5/2 19/5/2
f 20/5/2 21/2/2 22/2/2
f 23/4/3 11/4/3 9/4/3
f 11/4/3 23/4/3 24/4/3
f 27/5/4 26/2/4 25/5/4
f 26/2/4 27/5/4 28/2/4
f 31/1/5 30/2/5 29/2/5
f 30/2/5 31/1/5 32/1/5
f 35/4/6 34/6/6 33/6/6
f 34/6/6 35/4/6 36/4/6
f 39/1/5 38/2/5 37/2/5
f 38/2/5 39/1/5 40/2/5
f 40/2/5 39/1/5 41/2/5
f 41/2/5 39/1/5 42/1/5
f 43/5/5 38/2/5 40/2/5
f 38/2/5 43/5/5 44/5/5
f 7/2/3 46/2/3 45/2/3
f 7/2/3 47/2/3 46/2/3
f 47/2/3 7/2/3 48/2/3
f 8/2/3 48/2/3 7/2/3
f 48/2/3 8/2/3 49/2/3
f 49/2/3 8/2/3 50/2/3
f 49/2/3 50/2/3 38/2/3
f 38/2/3 50/2/3 37/2/3
f 52/1/7 31/1/7 51/1/7
f 31/1/7 52/1/7 32/1/7
f 50/2/4 39/1/4 37/2/4
f 39/1/4 50/2/4 53/1/4
f 1/1/5 54/2/5 3/2/5
f 54/2/5 1/1/5 55/1/5
f 56/2/4 17/1/4 18/2/4
f 17/1/4 56/2/4 57/1/4
f 48/2/1 58/5/1 47/2/1
f 58/5/1 48/2/1 59/5/1
f 60/5/4 38/2/4 44/5/4
f 38/2/4 60/5/4 49/2/4
f 26/2/2 61/5/2 25/5/2
f 61/5/2 26/2/2 62/2/2
f 64/2/5 27/5/5 63/5/5
f 27/5/5 64/2/5 28/2/5
f 66/2/3 65/2/3 14/2/3
f 67/2/3 14/2/3 65/2/3
f 14/2/3 67/2/3 68/2/3
f 14/2/3 68/2/3 13/2/3
f 13/2/3 68/2/3 30/2/3
f 69/2/3 30/2/3 68/2/3
f 70/2/3 30/2/3 69/2/3
f 30/2/3 70/2/3 29/2/3
f 48/2/5 60/5/5 59/5/5
f 60/5/5 48/2/5 49/2/5
f 26/2/3 71/2/3 62/2/3
f 71/2/3 26/2/3 72/2/3
f 72/2/3 26/2/3 73/2/3
f 28/2/3 73/2/3 26/2/3
f 28/2/3 74/2/3 73/2/3
f 64/2/3 74/2/3 28/2/3
f 64/2/3 41/2/3 74/2/3
f 41/2/3 64/2/3 40/2/3
f 68/2/2 76/5/2 75/5/2
f 76/5/2 68/2/2 67/2/2
f 52/1/2 71/2/2 72/2/2
f 71/2/2 52/1/2 51/1/2
f 65/2/1 76/5/1 67/2/1
f 76/5/1 65/2/1 77/5/1
f 78/1/1 14/2/1 16/1/1
f 14/2/1 78/1/1 66/2/1
f 56/2/3 21/2/3 79/2/3
f 18/2/3 21/2/3 56/2/3
f 2/2/3 21/2/3 18/2/3
f 2/2/3 22/2/3 21/2/3
f 22/2/3 2/2/3 80/2/3
f 3/2/3 80/2/3 2/2/3
f 80/2/3 3/2/3 81/2/3
f 81/2/3 3/2/3 54/2/3
f 80/2/5 83/5/5 82/5/5
f 83/5/5 80/2/5 81/2/5
f 46/2/2 58/5/2 84/5/2
f 58/5/2 46/2/2 47/2/2
f 80/2/1 20/5/1 22/2/1
f 20/5/1 80/2/1 82/5/1
f 85/5/4 68/2/4 75/5/4
f 68/2/4 85/5/4 69/2/4
f 61/5/4 70/2/4 86/5/4
f 62/2/4 70/2/4 61/5/4
f 51/1/4 70/2/4 62/2/4
f 51/1/4 62/2/4 71/2/4
f 31/1/4 70/2/4 51/1/4
f 70/2/4 31/1/4 29/2/4
f 87/1/2 7/2/2 45/2/2
f 7/2/2 87/1/2 6/1/2
f 84/5/1 83/5/1 46/2/1
f 83/5/1 87/1/1 46/2/1
f 46/2/1 87/1/1 45/2/1
f 81/2/1 87/1/1 83/5/1
f 54/2/1 87/1/1 81/2/1
f 87/1/1 54/2/1 55/1/1
f 33/6/2 23/4/2 35/4/2
f 9/4/2 35/4/2 23/4/2
f 9/4/2 88/4/2 35/4/2
f 10/3/2 88/4/2 9/4/2
f 88/4/2 10/3/2 89/3/2
f 73/2/4 52/1/4 72/2/4
f 90/3/4 52/1/4 73/2/4
f 90/3/4 32/1/4 52/1/4
f 15/3/4 32/1/4 90/3/4
f 15/3/4 30/2/4 32/1/4
f 30/2/4 15/3/4 13/2/4
f 64/2/1 43/5/1 40/2/1
f 43/5/1 64/2/1 63/5/1
f 91/3/4 88/4/4 89/3/4
f 88/4/4 91/3/4 92/4/4
f 93/1/7 39/1/7 53/1/7
f 39/1/7 93/1/7 42/1/7
f 70/2/5 85/5/5 86/5/5
f 85/5/5 70/2/5 69/2/5
f 93/1/1 41/2/1 42/1/1
f 41/2/1 93/1/1 74/2/1
f 96/7/7 95/7/7 94/7/7
f 95/7/7 96/7/7 97/7/7
f 97/7/7 96/7/7 98/7/7
f 97/7/7 98/7/7 99/7/7
f 99/7/7 98/7/7 100/7/7
f 99/7/7 100/7/7 101/7/7
f 102/8/2 97/7/2 99/7/2
f 97/7/2 102/8/2 103/8/2
f 104/8/8 97/7/8 103/8/8
f 97/7/8 104/8/8 95/7/8
f 33/6/9 24/4/9 23/4/9
f 24/4/9 33/6/9 34/6/9
f 78/1/2 65/2/2 66/2/2
f 65/2/2 78/1/2 79/2/2
f 79/2/2 78/1/2 56/2/2
f 56/2/2 78/1/2 57/1/2
f 105/5/2 65/2/2 79/2/2
f 65/2/2 105/5/2 77/5/2
f 106/8/5 98/7/5 96/7/5
f 98/7/5 106/8/5 107/8/5
f 108/8/1 95/7/1 104/8/1
f 95/7/1 108/8/1 94/7/1
f 106/8/10 94/7/10 108/8/10
f 94/7/10 106/8/10 96/7/10
f 111/5/2 110/8/2 109/8/2
f 110/8/2 111/5/2 112/5/2
f 98/7/11 113/8/11 100/7/11
f 113/8/11 98/7/11 107/8/11
f 103/8/3 108/8/3 104/8/3
f 108/8/3 103/8/3 106/8/3
f 106/8/3 103/8/3 110/8/3
f 110/8/3 103/8/3 102/8/3
f 114/8/3 106/8/3 110/8/3
f 110/8/3 102/8/3 109/8/3
f 106/8/3 114/8/3 107/8/3
f 109/8/3 102/8/3 115/8/3
f 107/8/3 114/8/3 115/8/3
f 107/8/3 115/8/3 102/8/3
f 107/8/3 102/8/3 116/8/3
f 107/8/3 116/8/3 113/8/3
f 100/7/4 116/8/4 101/7/4
f 116/8/4 100/7/4 113/8/4
f 117/5/5 115/8/5 114/8/5
f 115/8/5 117/5/5 118/5/5
f 5/3/5 50/2/5 8/2/5
f 50/2/5 5/3/5 53/1/5
f 53/1/5 5/3/5 93/1/5
f 90/3/5 93/1/5 5/3/5
f 73/2/5 93/1/5 90/3/5
f 93/1/5 73/2/5 74/2/5
f 117/5/1 110/8/1 112/5/1
f 110/8/1 117/5/1 114/8/1
f 101/7/12 102/8/12 99/7/12
f 102/8/12 101/7/12 116/8/12
f 87/1/7 1/1/7 6/1/7
f 1/1/7 87/1/7 55/1/7
f 115/8/4 111/5/4 109/8/4
f 111/5/4 115/8/4 118/5/4
f 78/1/7 17/1/7 57/1/7
f 17/1/7 78/1/7 16/1/7
f 105/5/4 21/2/4 19/5/4
f 21/2/4 105/5/4 79/2/4
f 58/5/3 83/5/3 84/5/3
f 83/5/3 58/5/3 82/5/3
f 59/5/3 82/5/3 58/5/3
f 59/5/3 20/5/3 82/5/3
f 59/5/3 117/5/3 20/5/3
f 112/5/3 20/5/3 117/5/3
f 20/5/3 112/5/3 111/5/3
f 20/5/3 111/5/3 19/5/3
f 117/5/3 59/5/3 118/5/3
f 19/5/3 111/5/3 105/5/3
f 118/5/3 59/5/3 60/5/3
f 105/5/3 111/5/3 76/5/3
f 77/5/3 105/5/3 76/5/3
f 76/5/3 111/5/3 75/5/3
f 75/5/3 111/5/3 85/5/3
f 118/5/3 60/5/3 63/5/3
f 63/5/3 60/5/3 43/5/3
f 43/5/3 60/5/3 44/5/3
f 118/5/3 63/5/3 27/5/3
f 118/5/3 27/5/3 111/5/3
f 25/5/3 111/5/3 27/5/3
f 85/5/3 111/5/3 25/5/3
f 61/5/3 85/5/3 25/5/3
f 85/5/3 61/5/3 86/5/3
f 88/4/3 36/4/3 35/4/3
f 36/4/3 88/4/3 92/4/3
f 34/6/5 36/4/5 24/4/5
f 92/4/5 24/4/5 36/4/5
f 92/4/5 11/4/5 24/4/5
f 91/3/5 11/4/5 92/4/5
f 11/4/5 91/3/5 12/3/5
f 12/3/7 5/3/7 10/3/7
f 5/3/7 12/3/7 91/3/7
f 4/3/7 10/3/7 5/3/7
f 5/3/7 91/3/7 90/3/7
f 10/3/7 4/3/7 89/3/7
f 90/3/7 91/3/7 15/3/7
f 89/3/7 4/3/7 15/3/7
f 89/3/7 15/3/7 91/3/7

