# Created by Kenney (www.kenney.nl)

mtllib crypt-door.mtl

g door

v 0.3 0.45 0 1 1 1
v 0.3 0.45 0.025 1 1 1
v 0.1 0.45 0 1 1 1
v 0.1 0.45 0.025 1 1 1
v 0 0 -0.05 1 1 1
v 0.4 0 -0.05 1 1 1
v 0 0.8 -0.05 1 1 1
v 0.4 0.8 -0.05 1 1 1
v 0.4 0.8 0.05 1 1 1
v 0.4 0 0.05 1 1 1
v 0 0.8 0.05 1 1 1
v 0.3 0.35 0.025 1 1 1
v 0.1 0.35 0.025 1 1 1
v 0.1 0.7 0 1 1 1
v 0.1 0.7 0.05 1 1 1
v 0.1 0.1 0.05 1 1 1
v 0.1 0.1 0 1 1 1
v 0.1 0.35 0 1 1 1
v 0 0 0.05 1 1 1
v 0.3 0.1 0 1 1 1
v 0.3 0.35 0 1 1 1
v 0.3 0.1 0.05 1 1 1
v 0.3 0.7 0.05 1 1 1
v 0.3 0.7 0 1 1 1

vn 0 1 0
vn 0 0.7071068 0.7071068
vn 0 0 -1
vn 1 0 0
vn 0 -0.7071068 0.7071068
vn -1 0 0
vn 0 -1 0
vn 0 0 1

vt 0.09375 0.1375
vt 0.09375 0.025
vt 0.09375 0.225
vt 0.09375 0.1125
vt 0.09375 0.2
vt 0.09375 0.05
vt 0.71875 0.05
vt 0.71875 0.1125
vt 0.71875 0.1375
vt 0.71875 0.2

usemtl colormap

f 3/1/1 2/1/2 1/1/1
f 2/1/2 3/1/1 4/1/2
f 7/3/3 6/2/3 5/2/3
f 6/2/3 7/3/3 8/3/3
f 9/3/4 6/2/4 8/3/4
f 6/2/4 9/3/4 10/2/4
f 7/3/1 9/3/1 8/3/1
f 9/3/1 7/3/1 11/3/1
f 2/1/2 13/4/5 12/4/5
f 13/4/5 2/1/2 4/1/2
f 15/5/4 3/1/4 14/5/4
f 3/1/4 15/5/4 4/1/4
f 4/1/4 15/5/4 13/4/4
f 16/6/4 13/4/4 15/5/4
f 17/6/4 13/4/4 16/6/4
f 13/4/4 17/6/4 18/4/4
f 19/2/6 7/3/6 5/2/6
f 7/3/6 19/2/6 11/3/6
f 22/6/6 21/4/6 20/6/6
f 21/4/6 22/6/6 12/4/6
f 12/4/6 22/6/6 2/1/6
f 23/5/6 2/1/6 22/6/6
f 24/5/6 2/1/6 23/5/6
f 2/1/6 24/5/6 1/1/6
f 15/5/7 24/5/7 23/5/7
f 24/5/7 15/5/7 14/5/7
f 19/2/7 6/2/7 10/2/7
f 6/2/7 19/2/7 5/2/7
f 17/6/1 22/6/1 20/6/1
f 22/6/1 17/6/1 16/6/1
f 13/4/5 21/4/7 12/4/5
f 21/4/7 13/4/5 18/4/7
f 10/2/8 22/6/8 19/2/8
f 22/6/8 10/2/8 9/3/8
f 16/6/8 19/2/8 22/6/8
f 22/6/8 9/3/8 23/5/8
f 19/2/8 16/6/8 11/3/8
f 23/5/8 9/3/8 15/5/8
f 11/3/8 16/6/8 15/5/8
f 11/3/8 15/5/8 9/3/8
f 21/8/8 17/7/8 20/7/8
f 17/7/8 21/8/8 18/8/8
f 24/10/8 3/9/8 1/9/8
f 3/9/8 24/10/8 14/10/8

