# Created by Kenney (www.kenney.nl)

mtllib crypt-small-entrance-alternative.mtl

g crypt-small-entrance-alternative

v 0.3 0 0.1 1 1 1
v 0.3 0 -0.1 1 1 1
v 0.2 0 0.1 1 1 1
v 0.2 0 -0.1 1 1 1
v 0.1 0.9 3.609557E-16 1 1 1
v 0.3 0.9 3.609557E-16 1 1 1
v 0.1 0.9499999 3.609557E-16 1 1 1
v 0.275 0.9499999 3.609557E-16 1 1 1
v 0.35 0.875 3.609557E-16 1 1 1
v 0.35 0.7 3.609557E-16 1 1 1
v 0.3 0.7 3.609557E-16 1 1 1
v -0.1 0.8 0.075 1 1 1
v -0.1 0.8 0.05 1 1 1
v -0.2 0.8 0.075 1 1 1
v -0.2 0.8 -0.1 1 1 1
v 0.1 0.8 0.05 1 1 1
v 0.2 0.8 -0.1 1 1 1
v 0.1 0.8 0.075 1 1 1
v 0.2 0.8 0.075 1 1 1
v -0.2 0.7 0.075 1 1 1
v -0.2 0.7 0.05 1 1 1
v -0.2 0 -0.1 1 1 1
v -0.2 0.4 0.05 1 1 1
v -0.2 0 0.1 1 1 1
v -0.2 0.35 0.1 1 1 1
v 0.2 0.7 0.075 1 1 1
v 0.2 0.7 0.05 1 1 1
v 0.2 0.4 0.05 1 1 1
v 0.2 0.35 0.1 1 1 1
v -0.3 0 0.1 1 1 1
v -0.3 0 -0.1 1 1 1
v 0.1 0.9 0.05 1 1 1
v -0.1 0.9 0.05 1 1 1
v -0.3 0.4 0.05 1 1 1
v -0.3 0.7 3.609557E-16 1 1 1
v -0.3 0.7 0.05 1 1 1
v -0.3 0.35 0.1 1 1 1
v -0.3 0.9 -0.1 1 1 1
v -0.3 0.9 3.609557E-16 1 1 1
v 0.35 0.875 0.075 1 1 1
v 0.35 0.7 0.075 1 1 1
v 0.275 0.9499999 0.075 1 1 1
v 0.1 0.9499999 0.075 1 1 1
v -0.35 0.7 3.609557E-16 1 1 1
v -0.35 0.875 3.609557E-16 1 1 1
v -0.35 0.7 0.075 1 1 1
v -0.35 0.875 0.075 1 1 1
v -0.1 0.9499999 3.609557E-16 1 1 1
v -0.1 0.9499999 0.075 1 1 1
v -0.275 0.9499999 3.609557E-16 1 1 1
v -0.275 0.9499999 0.075 1 1 1
v 0.3 0.35 0.1 1 1 1
v 0.3 0.4 0.05 1 1 1
v 0.3 0.7 0.05 1 1 1
v -0.1 0.9 3.609557E-16 1 1 1
v 0.3 0.9 -0.1 1 1 1

vn 0 -1 0
vn 0 0 -1
vn 1 0 0
vn -1 0 0
vn 0 0 1
vn 0.9238795 0.3826834 0
vn 0.3826834 0.9238795 0
vn 0 1 0
vn -0.9238795 0.3826834 0
vn -0.3826834 0.9238795 0
vn 0 0.3826834 0.9238795

vt 0.71875 0.025
vt 0.71875 0.2144737
vt 0.71875 0.225
vt 0.71875 0.2092105
vt 0.71875 0.1723684
vt 0.71875 0.1934211
vt 0.71875 0.1092105
vt 0.71875 0.09868421

usemtl colormap

f 3/1/1 2/1/1 1/1/1
f 2/1/1 3/1/1 4/1/1
f 7/3/2 6/2/2 5/2/2
f 8/3/2 6/2/2 7/3/2
f 9/4/2 6/2/2 8/3/2
f 10/5/2 6/2/2 9/4/2
f 6/2/2 10/5/2 11/5/2
f 14/6/1 13/6/1 12/6/1
f 15/6/1 13/6/1 14/6/1
f 15/6/1 16/6/1 13/6/1
f 17/6/1 16/6/1 15/6/1
f 17/6/1 18/6/1 16/6/1
f 18/6/1 17/6/1 19/6/1
f 21/5/3 14/6/3 20/5/3
f 21/5/3 15/6/3 14/6/3
f 15/6/3 21/5/3 22/1/3
f 23/7/3 22/1/3 21/5/3
f 22/1/3 23/7/3 24/1/3
f 24/1/3 23/7/3 25/8/3
f 19/6/4 27/5/4 26/5/4
f 17/6/4 27/5/4 19/6/4
f 27/5/4 17/6/4 28/7/4
f 17/6/4 3/1/4 28/7/4
f 28/7/4 3/1/4 29/8/4
f 3/1/4 17/6/4 4/1/4
f 30/1/1 22/1/1 24/1/1
f 22/1/1 30/1/1 31/1/1
f 32/2/5 13/6/5 16/6/5
f 13/6/5 32/2/5 33/2/5
f 36/5/4 35/5/4 34/7/4
f 35/5/4 30/1/4 34/7/4
f 34/7/4 30/1/4 37/8/4
f 38/2/4 30/1/4 35/5/4
f 39/2/4 38/2/4 35/5/4
f 30/1/4 38/2/4 31/1/4
f 40/4/6 10/5/3 9/4/6
f 10/5/3 40/4/6 41/5/3
f 7/3/8 42/3/7 8/3/7
f 42/3/7 7/3/8 43/3/8
f 46/5/4 45/4/9 44/5/4
f 45/4/9 46/5/4 47/4/9
f 50/3/10 49/3/8 48/3/8
f 49/3/8 50/3/10 51/3/10
f 45/4/9 51/3/10 50/3/10
f 51/3/10 45/4/9 47/4/9
f 8/3/7 40/4/6 9/4/6
f 40/4/6 8/3/7 42/3/7
f 52/8/11 3/1/5 1/1/5
f 3/1/5 52/8/11 29/8/11
f 25/8/11 30/1/5 24/1/5
f 30/1/5 25/8/11 37/8/11
f 21/5/5 34/7/11 23/7/11
f 34/7/11 21/5/5 36/5/5
f 23/7/11 37/8/11 25/8/11
f 37/8/11 23/7/11 34/7/11
f 54/5/5 28/7/11 53/7/11
f 28/7/11 54/5/5 27/5/5
f 53/7/11 29/8/11 52/8/11
f 29/8/11 53/7/11 28/7/11
f 40/4/5 26/5/5 41/5/5
f 26/5/5 40/4/5 19/6/5
f 19/6/5 40/4/5 18/6/5
f 18/6/5 40/4/5 43/3/5
f 43/3/5 40/4/5 42/3/5
f 49/3/5 14/6/5 12/6/5
f 14/6/5 49/3/5 47/4/5
f 47/4/5 49/3/5 51/3/5
f 46/5/5 14/6/5 47/4/5
f 14/6/5 46/5/5 20/5/5
f 45/4/2 35/5/2 44/5/2
f 35/5/2 45/4/2 39/2/2
f 39/2/2 45/4/2 50/3/2
f 39/2/2 50/3/2 55/2/2
f 55/2/2 50/3/2 48/3/2
f 38/2/2 22/1/2 31/1/2
f 22/1/2 38/2/2 15/6/2
f 15/6/2 38/2/2 17/6/2
f 56/2/2 17/6/2 38/2/2
f 2/1/2 17/6/2 56/2/2
f 17/6/2 2/1/2 4/1/2
f 38/2/8 6/2/8 56/2/8
f 6/2/8 38/2/8 5/2/8
f 5/2/8 38/2/8 32/2/8
f 32/2/8 38/2/8 55/2/8
f 55/2/8 38/2/8 39/2/8
f 33/2/8 32/2/8 55/2/8
f 6/2/3 2/1/3 56/2/3
f 2/1/3 6/2/3 11/5/3
f 2/1/3 11/5/3 1/1/3
f 1/1/3 11/5/3 53/7/3
f 53/7/3 11/5/3 54/5/3
f 1/1/3 53/7/3 52/8/3
f 46/5/1 21/5/1 20/5/1
f 21/5/1 46/5/1 36/5/1
f 36/5/1 46/5/1 35/5/1
f 35/5/1 46/5/1 44/5/1
f 49/3/3 55/2/3 48/3/3
f 55/2/3 49/3/3 33/2/3
f 33/2/3 49/3/3 13/6/3
f 13/6/3 49/3/3 12/6/3
f 18/6/4 32/2/4 16/6/4
f 43/3/4 32/2/4 18/6/4
f 7/3/4 32/2/4 43/3/4
f 32/2/4 7/3/4 5/2/4
f 54/5/1 26/5/1 27/5/1
f 54/5/1 41/5/1 26/5/1
f 41/5/1 54/5/1 10/5/1
f 11/5/1 10/5/1 54/5/1

g crypt-small-entrance-alternative




usemtl colormap

f 3/1/1 2/1/1 1/1/1
f 2/1/1 3/1/1 4/1/1
f 7/3/2 6/2/2 5/2/2
f 8/3/2 6/2/2 7/3/2
f 9/4/2 6/2/2 8/3/2
f 10/5/2 6/2/2 9/4/2
f 6/2/2 10/5/2 11/5/2
f 14/6/1 13/6/1 12/6/1
f 15/6/1 13/6/1 14/6/1
f 15/6/1 16/6/1 13/6/1
f 17/6/1 16/6/1 15/6/1
f 17/6/1 18/6/1 16/6/1
f 18/6/1 17/6/1 19/6/1
f 21/5/3 14/6/3 20/5/3
f 21/5/3 15/6/3 14/6/3
f 15/6/3 21/5/3 22/1/3
f 23/7/3 22/1/3 21/5/3
f 22/1/3 23/7/3 24/1/3
f 24/1/3 23/7/3 25/8/3
f 19/6/4 27/5/4 26/5/4
f 17/6/4 27/5/4 19/6/4
f 27/5/4 17/6/4 28/7/4
f 17/6/4 3/1/4 28/7/4
f 28/7/4 3/1/4 29/8/4
f 3/1/4 17/6/4 4/1/4
f 30/1/1 22/1/1 24/1/1
f 22/1/1 30/1/1 31/1/1
f 32/2/5 13/6/5 16/6/5
f 13/6/5 32/2/5 33/2/5
f 36/5/4 35/5/4 34/7/4
f 35/5/4 30/1/4 34/7/4
f 34/7/4 30/1/4 37/8/4
f 38/2/4 30/1/4 35/5/4
f 39/2/4 38/2/4 35/5/4
f 30/1/4 38/2/4 31/1/4
f 40/4/6 10/5/3 9/4/6
f 10/5/3 40/4/6 41/5/3
f 7/3/8 42/3/7 8/3/7
f 42/3/7 7/3/8 43/3/8
f 46/5/4 45/4/9 44/5/4
f 45/4/9 46/5/4 47/4/9
f 50/3/10 49/3/8 48/3/8
f 49/3/8 50/3/10 51/3/10
f 45/4/9 51/3/10 50/3/10
f 51/3/10 45/4/9 47/4/9
f 8/3/7 40/4/6 9/4/6
f 40/4/6 8/3/7 42/3/7
f 52/8/11 3/1/5 1/1/5
f 3/1/5 52/8/11 29/8/11
f 25/8/11 30/1/5 24/1/5
f 30/1/5 25/8/11 37/8/11
f 21/5/5 34/7/11 23/7/11
f 34/7/11 21/5/5 36/5/5
f 23/7/11 37/8/11 25/8/11
f 37/8/11 23/7/11 34/7/11
f 54/5/5 28/7/11 53/7/11
f 28/7/11 54/5/5 27/5/5
f 53/7/11 29/8/11 52/8/11
f 29/8/11 53/7/11 28/7/11
f 40/4/5 26/5/5 41/5/5
f 26/5/5 40/4/5 19/6/5
f 19/6/5 40/4/5 18/6/5
f 18/6/5 40/4/5 43/3/5
f 43/3/5 40/4/5 42/3/5
f 49/3/5 14/6/5 12/6/5
f 14/6/5 49/3/5 47/4/5
f 47/4/5 49/3/5 51/3/5
f 46/5/5 14/6/5 47/4/5
f 14/6/5 46/5/5 20/5/5
f 45/4/2 35/5/2 44/5/2
f 35/5/2 45/4/2 39/2/2
f 39/2/2 45/4/2 50/3/2
f 39/2/2 50/3/2 55/2/2
f 55/2/2 50/3/2 48/3/2
f 38/2/2 22/1/2 31/1/2
f 22/1/2 38/2/2 15/6/2
f 15/6/2 38/2/2 17/6/2
f 56/2/2 17/6/2 38/2/2
f 2/1/2 17/6/2 56/2/2
f 17/6/2 2/1/2 4/1/2
f 38/2/8 6/2/8 56/2/8
f 6/2/8 38/2/8 5/2/8
f 5/2/8 38/2/8 32/2/8
f 32/2/8 38/2/8 55/2/8
f 55/2/8 38/2/8 39/2/8
f 33/2/8 32/2/8 55/2/8
f 6/2/3 2/1/3 56/2/3
f 2/1/3 6/2/3 11/5/3
f 2/1/3 11/5/3 1/1/3
f 1/1/3 11/5/3 53/7/3
f 53/7/3 11/5/3 54/5/3
f 1/1/3 53/7/3 52/8/3
f 46/5/1 21/5/1 20/5/1
f 21/5/1 46/5/1 36/5/1
f 36/5/1 46/5/1 35/5/1
f 35/5/1 46/5/1 44/5/1
f 49/3/3 55/2/3 48/3/3
f 55/2/3 49/3/3 33/2/3
f 33/2/3 49/3/3 13/6/3
f 13/6/3 49/3/3 12/6/3
f 18/6/4 32/2/4 16/6/4
f 43/3/4 32/2/4 18/6/4
f 7/3/4 32/2/4 43/3/4
f 32/2/4 7/3/4 5/2/4
f 54/5/1 26/5/1 27/5/1
f 54/5/1 41/5/1 26/5/1
f 41/5/1 54/5/1 10/5/1
f 11/5/1 10/5/1 54/5/1

