# Created by Kenney (www.kenney.nl)

mtllib crypt-large.mtl

g crypt-large

v 0.55 0 1.025 1 1 1
v 0.55 0 0.9 1 1 1
v 0.525 0 1.05 1 1 1
v 0.475 0 0.9 1 1 1
v 0.4 0 1.05 1 1 1
v 0.475 0 -0.9 1 1 1
v 0.4 0 -1.05 1 1 1
v 0.4 0 0.975 1 1 1
v 0.525 0 -1.05 1 1 1
v 0.55 0 -1.025 1 1 1
v 0.55 0 -0.9 1 1 1
v 0.4 0 -0.975 1 1 1
v 0.35 -3.609557E-16 0.85 1 1 1
v 0.3 0 0.975 1 1 1
v 0.3 0 0.85 1 1 1
v 0.35 -3.609557E-16 -0.85 1 1 1
v -0.4 0 -0.975 1 1 1
v -0.35 -3.609557E-16 -0.85 1 1 1
v -0.4 0 0.975 1 1 1
v -0.35 -3.609557E-16 0.85 1 1 1
v -0.3 0 0.85 1 1 1
v -0.3 0 0.975 1 1 1
v -0.475 0 0.9 1 1 1
v -0.4 0 -1.05 1 1 1
v -0.475 0 -0.9 1 1 1
v -0.525 0 -1.05 1 1 1
v -0.55 0 -0.9 1 1 1
v -0.55 0 -1.025 1 1 1
v -0.525 0 1.05 1 1 1
v -0.4 0 1.05 1 1 1
v -0.55 0 0.9 1 1 1
v -0.55 0 1.025 1 1 1
v 0.5 1 -1 1 1 1
v 0.5 0.4 -1 1 1 1
v 0.5 1 -0.9 1 1 1
v 0.5 0.4 -0.9 1 1 1
v 0.5 0.4 1 1 1 1
v 0.4 0.4 1 1 1 1
v 0.5 1 1 1 1 1
v 0.4 1 1 1 1 1
v -0.5 0.4 0.9 1 1 1
v -0.5 1 0.9 1 1 1
v -0.5 0.4 1 1 1 1
v -0.5 1 1 1 1 1
v -0.5 0.4 -1 1 1 1
v -0.4 0.4 -1 1 1 1
v -0.5 1 -1 1 1 1
v -0.4 1 -1 1 1 1
v -0.4 0.4 1 1 1 1
v -0.4 1 1 1 1 1
v 0.4 0.2 0.975 1 1 1
v 0.4 0.4 1.05 1 1 1
v 0.4 1 0.9499999 1 1 1
v 0.4 0.2 0.9499999 1 1 1
v -0.4 1 0.9499999 1 1 1
v -0.4 0.2 0.9499999 1 1 1
v -0.4 0.2 0.975 1 1 1
v -0.4 0.4 1.05 1 1 1
v 0.55 0.4 -0.9 1 1 1
v 0.475 0.2 -0.9 1 1 1
v 0.45 0.2 -0.9 1 1 1
v 0.45 1 -0.9 1 1 1
v 0.45 0.2 0.9 1 1 1
v 0.475 0.2 0.9 1 1 1
v 0.45 1 0.9 1 1 1
v 0.5 0.4 0.9 1 1 1
v 0.5 1 0.9 1 1 1
v 0.55 0.4 0.9 1 1 1
v 0.4 0.4 -1 1 1 1
v 0.4 1 -1 1 1 1
v -0.4 1 -0.9499999 1 1 1
v -0.4 0.2 -0.975 1 1 1
v -0.4 0.2 -0.9499999 1 1 1
v -0.4 0.4 -1.05 1 1 1
v 0.4 0.4 -1.05 1 1 1
v 0.4 0.2 -0.975 1 1 1
v 0.4 1 -0.9499999 1 1 1
v 0.4 0.2 -0.9499999 1 1 1
v -0.5 0.4 -0.9 1 1 1
v -0.5 1 -0.9 1 1 1
v -0.45 0.2 -0.9 1 1 1
v -0.475 0.2 -0.9 1 1 1
v -0.45 1 -0.9 1 1 1
v -0.55 0.4 -0.9 1 1 1
v -0.55 0.4 0.9 1 1 1
v -0.475 0.2 0.9 1 1 1
v -0.45 0.2 0.9 1 1 1
v -0.45 1 0.9 1 1 1
v 0.3 0.2 0.975 1 1 1
v 0.3 0.2 0.9499999 1 1 1
v 0.55 0.4 1.025 1 1 1
v 0.525 0.4 1.05 1 1 1
v -0.55 0.4 1.025 1 1 1
v -0.525 0.4 1.05 1 1 1
v -0.525 0.4 -1.05 1 1 1
v 0.525 0.4 -1.05 1 1 1
v 0.55 0.4 -1.025 1 1 1
v -0.55 0.4 -1.025 1 1 1
v 0.35 1 -0.85 1 1 1
v 0.35 1 0.85 1 1 1
v -0.35 1 -0.85 1 1 1
v -0.35 1 0.85 1 1 1
v -0.3 0.2 0.85 1 1 1
v -0.3 0.9 0.85 1 1 1
v 0.3 0.9 0.85 1 1 1
v 0.3 0.2 0.85 1 1 1
v -0.3 0.2 0.9499999 1 1 1
v -0.3 0.2 0.975 1 1 1
v 0.3 0.9 0.9499999 1 1 1
v -0.3 0.9 0.9499999 1 1 1
v 0.475914 0.4122571 0.5500834 1 1 1
v 0.475914 0.4122571 0.6910233 1 1 1
v 0.475914 0.4822571 0.5500834 1 1 1
v 0.475914 0.4822571 0.6910233 1 1 1
v 0.45 0.4122571 0.5500834 1 1 1
v 0.45 0.4122571 0.6910233 1 1 1
v 0.45 0.4822571 0.5500834 1 1 1
v 0.45 0.4822571 0.6910233 1 1 1
v 0.475914 0.5122571 0.4500833 1 1 1
v 0.475914 0.5122571 0.5910233 1 1 1
v 0.475914 0.5822571 0.4500833 1 1 1
v 0.475914 0.5822571 0.5910233 1 1 1
v 0.45 0.5122571 0.4500833 1 1 1
v 0.45 0.5122571 0.5910233 1 1 1
v 0.45 0.5822571 0.4500833 1 1 1
v 0.45 0.5822571 0.5910233 1 1 1
v 0.475914 0.8122571 -0.4499167 1 1 1
v 0.475914 0.8122571 -0.3089767 1 1 1
v 0.475914 0.8822571 -0.4499167 1 1 1
v 0.475914 0.8822571 -0.3089767 1 1 1
v 0.45 0.8122571 -0.4499167 1 1 1
v 0.45 0.8122571 -0.3089767 1 1 1
v 0.45 0.8822571 -0.4499167 1 1 1
v 0.45 0.8822571 -0.3089767 1 1 1
v 0.475914 0.4122571 -0.3499167 1 1 1
v 0.475914 0.4122571 -0.2089767 1 1 1
v 0.475914 0.4822571 -0.3499167 1 1 1
v 0.475914 0.4822571 -0.2089767 1 1 1
v 0.45 0.4122571 -0.3499167 1 1 1
v 0.45 0.4122571 -0.2089767 1 1 1
v 0.45 0.4822571 -0.3499167 1 1 1
v 0.45 0.4822571 -0.2089767 1 1 1
v 0.475914 0.3122571 -0.6499166 1 1 1
v 0.475914 0.3122571 -0.5089767 1 1 1
v 0.475914 0.3822571 -0.6499166 1 1 1
v 0.475914 0.3822571 -0.5089767 1 1 1
v 0.45 0.3122571 -0.6499166 1 1 1
v 0.45 0.3122571 -0.5089767 1 1 1
v 0.45 0.3822571 -0.6499166 1 1 1
v 0.45 0.3822571 -0.5089767 1 1 1
v -0.475914 0.6110763 0.694941 1 1 1
v -0.475914 0.6110763 0.554001 1 1 1
v -0.475914 0.6810763 0.694941 1 1 1
v -0.475914 0.6810763 0.554001 1 1 1
v -0.45 0.6110763 0.694941 1 1 1
v -0.45 0.6110763 0.554001 1 1 1
v -0.45 0.6810763 0.694941 1 1 1
v -0.45 0.6810763 0.554001 1 1 1
v -0.475914 0.5110763 -0.505059 1 1 1
v -0.475914 0.5110763 -0.6459991 1 1 1
v -0.475914 0.5810763 -0.505059 1 1 1
v -0.475914 0.5810763 -0.6459991 1 1 1
v -0.45 0.5110763 -0.505059 1 1 1
v -0.45 0.5110763 -0.6459991 1 1 1
v -0.45 0.5810763 -0.505059 1 1 1
v -0.45 0.5810763 -0.6459991 1 1 1
v -0.475914 0.7110763 0.394941 1 1 1
v -0.475914 0.7110763 0.254001 1 1 1
v -0.475914 0.7810763 0.394941 1 1 1
v -0.475914 0.7810763 0.254001 1 1 1
v -0.45 0.7110763 0.394941 1 1 1
v -0.45 0.7110763 0.254001 1 1 1
v -0.45 0.7810763 0.394941 1 1 1
v -0.45 0.7810763 0.254001 1 1 1
v -0.475914 0.4110763 -0.605059 1 1 1
v -0.475914 0.4110763 -0.745999 1 1 1
v -0.475914 0.4810763 -0.605059 1 1 1
v -0.475914 0.4810763 -0.745999 1 1 1
v -0.45 0.4110763 -0.605059 1 1 1
v -0.45 0.4110763 -0.745999 1 1 1
v -0.45 0.4810763 -0.605059 1 1 1
v -0.45 0.4810763 -0.745999 1 1 1
v 0.05136543 0.4026977 -0.975914 1 1 1
v 0.1923054 0.4026977 -0.975914 1 1 1
v 0.05136543 0.4726976 -0.975914 1 1 1
v 0.1923054 0.4726976 -0.975914 1 1 1
v 0.05136543 0.4026977 -0.95 1 1 1
v 0.1923054 0.4026977 -0.95 1 1 1
v 0.05136543 0.4726976 -0.95 1 1 1
v 0.1923054 0.4726976 -0.95 1 1 1

vn 0 -1 0
vn 1 0 0
vn 0 0 1
vn -1 0 0
vn 0 0 -1
vn 0.7071068 0.7071068 0
vn 0 1 0
vn 0 0.7071068 -0.7071068
vn -0.7071068 0.7071068 0
vn 0 0.7071068 0.7071068
vn 0.9238795 0 0.3826834
vn 0.3826834 0 0.9238795
vn -0.9238795 0 0.3826834
vn -0.3826834 0 0.9238795
vn -0.3826834 0 -0.9238795
vn 0.3826834 0 -0.9238795
vn 0.9238795 0 -0.3826834
vn -0.9238795 0 -0.3826834
vn 1 0 -1.192093E-07
vn -1.192093E-07 0 -1
vn 1.192093E-07 0 1
vn -1 0 -1.192093E-07
vn -1.192093E-07 0 1
vn 1.192093E-07 0 -1
vn 1.684763E-14 0 -1
vn -1 0 -1.684763E-14
vn 1 0 1.684763E-14

vt 0.84375 0.025
vt 0.71875 0.225
vt 0.71875 0.105
vt 0.71875 0.025
vt 0.71875 0.065
vt 0.71875 0.205
vt 0.09375 0.065
vt 0.09375 0.225
vt 0.09375 0.205
vt 0.03125 0.125

usemtl colormap

f 3/1/1 2/1/1 1/1/1
f 2/1/1 3/1/1 4/1/1
f 4/1/1 3/1/1 5/1/1
f 4/1/1 5/1/1 6/1/1
f 7/1/1 6/1/1 5/1/1
f 7/1/1 5/1/1 8/1/1
f 9/1/1 6/1/1 7/1/1
f 10/1/1 6/1/1 9/1/1
f 6/1/1 10/1/1 11/1/1
f 7/1/1 8/1/1 12/1/1
f 8/1/1 13/1/1 12/1/1
f 13/1/1 8/1/1 14/1/1
f 13/1/1 14/1/1 15/1/1
f 16/1/1 12/1/1 13/1/1
f 12/1/1 16/1/1 17/1/1
f 17/1/1 16/1/1 18/1/1
f 17/1/1 18/1/1 19/1/1
f 20/1/1 19/1/1 18/1/1
f 21/1/1 19/1/1 20/1/1
f 19/1/1 21/1/1 22/1/1
f 19/1/1 23/1/1 17/1/1
f 17/1/1 23/1/1 24/1/1
f 25/1/1 24/1/1 23/1/1
f 24/1/1 25/1/1 26/1/1
f 26/1/1 25/1/1 27/1/1
f 26/1/1 27/1/1 28/1/1
f 19/1/1 29/1/1 23/1/1
f 29/1/1 19/1/1 30/1/1
f 23/1/1 29/1/1 31/1/1
f 31/1/1 29/1/1 32/1/1
f 35/2/2 34/3/2 33/2/2
f 34/3/2 35/2/2 36/3/2
f 39/2/3 38/3/3 37/3/3
f 38/3/3 39/2/3 40/2/3
f 43/3/4 42/2/4 41/3/4
f 42/2/4 43/3/4 44/2/4
f 47/2/5 46/3/5 45/3/5
f 46/3/5 47/2/5 48/2/5
f 50/2/3 43/3/3 49/3/3
f 43/3/3 50/2/3 44/2/3
f 5/4/4 51/5/4 8/4/4
f 51/5/4 5/4/4 38/3/4
f 38/3/4 5/4/4 52/3/4
f 40/2/4 51/5/4 38/3/4
f 53/2/4 51/5/4 40/2/4
f 51/5/4 53/2/4 54/5/4
f 50/2/2 56/5/2 55/2/2
f 56/5/2 50/2/2 57/5/2
f 57/5/2 50/2/2 19/4/2
f 19/4/2 50/2/2 49/3/2
f 19/4/2 49/3/2 30/4/2
f 30/4/2 49/3/2 58/3/2
f 59/3/3 6/4/3 11/4/3
f 6/4/3 59/3/3 60/5/3
f 60/5/3 59/3/3 61/5/3
f 61/5/3 59/3/3 36/3/3
f 61/5/3 36/3/3 62/2/3
f 62/2/3 36/3/3 35/2/3
f 65/2/5 64/5/5 63/5/5
f 64/5/5 65/2/5 66/3/5
f 66/3/5 65/2/5 67/2/5
f 68/3/5 64/5/5 66/3/5
f 2/4/5 64/5/5 68/3/5
f 64/5/5 2/4/5 4/4/5
f 70/2/5 34/3/5 69/3/5
f 34/3/5 70/2/5 33/2/5
f 71/2/2 46/3/2 48/2/2
f 46/3/2 71/2/2 72/5/2
f 72/5/2 71/2/2 73/5/2
f 17/4/2 46/3/2 72/5/2
f 24/4/2 46/3/2 17/4/2
f 46/3/2 24/4/2 74/3/2
f 12/4/4 75/3/4 7/4/4
f 75/3/4 12/4/4 69/3/4
f 69/3/4 12/4/4 70/2/4
f 70/2/4 12/4/4 76/5/4
f 70/2/4 76/5/4 77/2/4
f 77/2/4 76/5/4 78/5/4
f 79/3/4 47/2/4 45/3/4
f 47/2/4 79/3/4 80/2/4
f 83/2/3 82/5/3 81/5/3
f 82/5/3 83/2/3 79/3/3
f 79/3/3 83/2/3 80/2/3
f 84/3/3 82/5/3 79/3/3
f 27/4/3 82/5/3 84/3/3
f 82/5/3 27/4/3 25/4/3
f 85/3/5 23/4/5 31/4/5
f 23/4/5 85/3/5 86/5/5
f 86/5/5 85/3/5 87/5/5
f 87/5/5 85/3/5 41/3/5
f 87/5/5 41/3/5 88/2/5
f 88/2/5 41/3/5 42/2/5
f 64/5/6 6/4/2 60/5/6
f 6/4/2 64/5/6 4/4/2
f 61/5/7 64/5/6 60/5/6
f 64/5/6 61/5/7 63/5/7
f 72/5/8 12/4/5 17/4/5
f 12/4/5 72/5/8 76/5/8
f 72/5/8 78/5/7 76/5/8
f 78/5/7 72/5/8 73/5/7
f 25/4/4 86/5/9 82/5/9
f 86/5/9 25/4/4 23/4/4
f 82/5/9 87/5/7 81/5/7
f 87/5/7 82/5/9 86/5/9
f 51/5/10 14/4/3 8/4/3
f 14/4/3 51/5/10 89/5/10
f 90/5/7 51/5/10 54/5/7
f 51/5/10 90/5/7 89/5/10
f 39/2/2 66/3/2 67/2/2
f 66/3/2 39/2/2 37/3/2
f 91/3/11 2/4/2 68/3/2
f 2/4/2 91/3/11 1/4/11
f 66/3/7 91/3/7 68/3/7
f 91/3/7 66/3/7 92/3/7
f 92/3/7 66/3/7 37/3/7
f 92/3/7 37/3/7 52/3/7
f 52/3/7 37/3/7 38/3/7
f 92/3/12 5/4/3 3/4/12
f 5/4/3 92/3/12 52/3/3
f 32/4/13 85/3/4 31/4/4
f 85/3/4 32/4/13 93/3/13
f 58/3/3 29/4/14 30/4/3
f 29/4/14 58/3/3 94/3/14
f 85/3/7 43/3/7 41/3/7
f 43/3/7 85/3/7 94/3/7
f 94/3/7 85/3/7 93/3/7
f 58/3/7 43/3/7 94/3/7
f 43/3/7 58/3/7 49/3/7
f 95/3/15 24/4/5 26/4/15
f 24/4/5 95/3/15 74/3/5
f 75/3/5 9/4/16 7/4/5
f 9/4/16 75/3/5 96/3/16
f 34/3/7 75/3/7 69/3/7
f 75/3/7 34/3/7 96/3/7
f 36/3/7 96/3/7 34/3/7
f 59/3/7 96/3/7 36/3/7
f 96/3/7 59/3/7 97/3/7
f 59/3/2 10/4/17 97/3/17
f 10/4/17 59/3/2 11/4/2
f 96/3/16 10/4/17 9/4/16
f 10/4/17 96/3/16 97/3/17
f 92/3/12 1/4/11 91/3/11
f 1/4/11 92/3/12 3/4/12
f 94/3/14 32/4/13 29/4/14
f 32/4/13 94/3/14 93/3/13
f 27/4/4 98/3/18 28/4/18
f 98/3/18 27/4/4 84/3/4
f 95/3/7 46/3/7 74/3/7
f 46/3/7 95/3/7 45/3/7
f 45/3/7 95/3/7 79/3/7
f 79/3/7 95/3/7 84/3/7
f 84/3/7 95/3/7 98/3/7
f 28/4/18 95/3/15 26/4/15
f 95/3/15 28/4/18 98/3/18
f 70/2/7 35/2/7 33/2/7
f 35/2/7 70/2/7 62/2/7
f 62/2/7 70/2/7 65/2/7
f 40/2/7 65/2/7 70/2/7
f 40/2/7 70/2/7 77/2/7
f 39/2/7 65/2/7 40/2/7
f 65/2/7 39/2/7 67/2/7
f 40/2/7 77/2/7 53/2/7
f 77/2/7 99/2/7 53/2/7
f 99/2/7 77/2/7 71/2/7
f 100/2/7 53/2/7 99/2/7
f 99/2/7 71/2/7 101/2/7
f 53/2/7 100/2/7 55/2/7
f 101/2/7 71/2/7 102/2/7
f 55/2/7 100/2/7 102/2/7
f 55/2/7 102/2/7 71/2/7
f 71/2/7 83/2/7 55/2/7
f 55/2/7 83/2/7 50/2/7
f 71/2/7 47/2/7 83/2/7
f 47/2/7 71/2/7 48/2/7
f 83/2/7 47/2/7 80/2/7
f 88/2/7 50/2/7 83/2/7
f 50/2/7 88/2/7 44/2/7
f 44/2/7 88/2/7 42/2/7
f 102/2/2 18/4/2 101/2/2
f 18/4/2 102/2/2 20/4/2
f 102/2/5 21/4/5 20/4/5
f 21/4/5 102/2/5 103/5/5
f 103/5/5 102/2/5 104/6/5
f 104/6/5 102/2/5 105/6/5
f 100/2/5 105/6/5 102/2/5
f 100/2/5 106/5/5 105/6/5
f 100/2/5 15/4/5 106/5/5
f 15/4/5 100/2/5 13/4/5
f 13/4/4 99/2/4 16/4/4
f 99/2/4 13/4/4 100/2/4
f 99/2/3 18/4/3 16/4/3
f 18/4/3 99/2/3 101/2/3
f 56/5/7 108/5/10 107/5/7
f 108/5/10 56/5/7 57/5/10
f 108/5/10 19/4/3 22/4/3
f 19/4/3 108/5/10 57/5/10
f 14/4/4 106/7/4 15/4/4
f 106/7/4 14/4/4 90/7/4
f 90/7/4 14/4/4 89/5/4
f 107/7/2 21/4/2 103/7/2
f 21/4/2 107/7/2 22/4/2
f 22/4/2 107/7/2 108/5/2
f 71/8/5 78/7/5 73/7/5
f 78/7/5 71/8/5 77/8/5
f 87/7/4 83/8/4 81/7/4
f 83/8/4 87/7/4 88/8/4
f 53/8/3 90/7/3 54/7/3
f 90/7/3 53/8/3 109/9/3
f 109/9/3 53/8/3 110/9/3
f 55/8/3 110/9/3 53/8/3
f 56/7/3 110/9/3 55/8/3
f 110/9/3 56/7/3 107/7/3
f 65/8/2 61/7/2 62/8/2
f 61/7/2 65/8/2 63/7/2
f 110/9/2 103/7/2 104/9/2
f 103/7/2 110/9/2 107/7/2
f 110/9/1 105/9/1 109/9/1
f 105/9/1 110/9/1 104/9/1
f 90/7/4 105/9/4 106/7/4
f 105/9/4 90/7/4 109/9/4
f 113/10/19 112/10/19 111/10/19
f 112/10/19 113/10/19 114/10/19
f 112/10/1 115/10/1 111/10/1
f 115/10/1 112/10/1 116/10/1
f 113/10/20 115/10/20 117/10/20
f 115/10/20 113/10/20 111/10/20
f 118/10/7 113/10/7 117/10/7
f 113/10/7 118/10/7 114/10/7
f 112/10/21 118/10/21 116/10/21
f 118/10/21 112/10/21 114/10/21
f 121/10/19 120/10/19 119/10/19
f 120/10/19 121/10/19 122/10/19
f 120/10/1 123/10/1 119/10/1
f 123/10/1 120/10/1 124/10/1
f 121/10/20 123/10/20 125/10/20
f 123/10/20 121/10/20 119/10/20
f 126/10/7 121/10/7 125/10/7
f 121/10/7 126/10/7 122/10/7
f 120/10/21 126/10/21 124/10/21
f 126/10/21 120/10/21 122/10/21
f 129/10/19 128/10/19 127/10/19
f 128/10/19 129/10/19 130/10/19
f 128/10/1 131/10/1 127/10/1
f 131/10/1 128/10/1 132/10/1
f 129/10/20 131/10/20 133/10/20
f 131/10/20 129/10/20 127/10/20
f 134/10/7 129/10/7 133/10/7
f 129/10/7 134/10/7 130/10/7
f 128/10/21 134/10/21 132/10/21
f 134/10/21 128/10/21 130/10/21
f 137/10/19 136/10/19 135/10/19
f 136/10/19 137/10/19 138/10/19
f 136/10/1 139/10/1 135/10/1
f 139/10/1 136/10/1 140/10/1
f 137/10/20 139/10/20 141/10/20
f 139/10/20 137/10/20 135/10/20
f 142/10/7 137/10/7 141/10/7
f 137/10/7 142/10/7 138/10/7
f 136/10/21 142/10/21 140/10/21
f 142/10/21 136/10/21 138/10/21
f 145/10/19 144/10/19 143/10/19
f 144/10/19 145/10/19 146/10/19
f 144/10/1 147/10/1 143/10/1
f 147/10/1 144/10/1 148/10/1
f 145/10/20 147/10/20 149/10/20
f 147/10/20 145/10/20 143/10/20
f 150/10/7 145/10/7 149/10/7
f 145/10/7 150/10/7 146/10/7
f 144/10/21 150/10/21 148/10/21
f 150/10/21 144/10/21 146/10/21
f 153/10/22 152/10/22 151/10/22
f 152/10/22 153/10/22 154/10/22
f 152/10/1 155/10/1 151/10/1
f 155/10/1 152/10/1 156/10/1
f 153/10/23 155/10/23 157/10/23
f 155/10/23 153/10/23 151/10/23
f 158/10/7 153/10/7 157/10/7
f 153/10/7 158/10/7 154/10/7
f 152/10/24 158/10/24 156/10/24
f 158/10/24 152/10/24 154/10/24
f 161/10/22 160/10/22 159/10/22
f 160/10/22 161/10/22 162/10/22
f 160/10/1 163/10/1 159/10/1
f 163/10/1 160/10/1 164/10/1
f 161/10/23 163/10/23 165/10/23
f 163/10/23 161/10/23 159/10/23
f 166/10/7 161/10/7 165/10/7
f 161/10/7 166/10/7 162/10/7
f 160/10/24 166/10/24 164/10/24
f 166/10/24 160/10/24 162/10/24
f 169/10/22 168/10/22 167/10/22
f 168/10/22 169/10/22 170/10/22
f 168/10/1 171/10/1 167/10/1
f 171/10/1 168/10/1 172/10/1
f 169/10/23 171/10/23 173/10/23
f 171/10/23 169/10/23 167/10/23
f 174/10/7 169/10/7 173/10/7
f 169/10/7 174/10/7 170/10/7
f 168/10/24 174/10/24 172/10/24
f 174/10/24 168/10/24 170/10/24
f 177/10/22 176/10/22 175/10/22
f 176/10/22 177/10/22 178/10/22
f 176/10/1 179/10/1 175/10/1
f 179/10/1 176/10/1 180/10/1
f 177/10/23 179/10/23 181/10/23
f 179/10/23 177/10/23 175/10/23
f 182/10/7 177/10/7 181/10/7
f 177/10/7 182/10/7 178/10/7
f 176/10/24 182/10/24 180/10/24
f 182/10/24 176/10/24 178/10/24
f 185/10/25 184/10/25 183/10/25
f 184/10/25 185/10/25 186/10/25
f 184/10/1 187/10/1 183/10/1
f 187/10/1 184/10/1 188/10/1
f 185/10/26 187/10/26 189/10/26
f 187/10/26 185/10/26 183/10/26
f 190/10/7 185/10/7 189/10/7
f 185/10/7 190/10/7 186/10/7
f 184/10/27 190/10/27 188/10/27
f 190/10/27 184/10/27 186/10/27

g crypt-large




usemtl colormap

f 3/1/1 2/1/1 1/1/1
f 2/1/1 3/1/1 4/1/1
f 4/1/1 3/1/1 5/1/1
f 4/1/1 5/1/1 6/1/1
f 7/1/1 6/1/1 5/1/1
f 7/1/1 5/1/1 8/1/1
f 9/1/1 6/1/1 7/1/1
f 10/1/1 6/1/1 9/1/1
f 6/1/1 10/1/1 11/1/1
f 7/1/1 8/1/1 12/1/1
f 8/1/1 13/1/1 12/1/1
f 13/1/1 8/1/1 14/1/1
f 13/1/1 14/1/1 15/1/1
f 16/1/1 12/1/1 13/1/1
f 12/1/1 16/1/1 17/1/1
f 17/1/1 16/1/1 18/1/1
f 17/1/1 18/1/1 19/1/1
f 20/1/1 19/1/1 18/1/1
f 21/1/1 19/1/1 20/1/1
f 19/1/1 21/1/1 22/1/1
f 19/1/1 23/1/1 17/1/1
f 17/1/1 23/1/1 24/1/1
f 25/1/1 24/1/1 23/1/1
f 24/1/1 25/1/1 26/1/1
f 26/1/1 25/1/1 27/1/1
f 26/1/1 27/1/1 28/1/1
f 19/1/1 29/1/1 23/1/1
f 29/1/1 19/1/1 30/1/1
f 23/1/1 29/1/1 31/1/1
f 31/1/1 29/1/1 32/1/1
f 35/2/2 34/3/2 33/2/2
f 34/3/2 35/2/2 36/3/2
f 39/2/3 38/3/3 37/3/3
f 38/3/3 39/2/3 40/2/3
f 43/3/4 42/2/4 41/3/4
f 42/2/4 43/3/4 44/2/4
f 47/2/5 46/3/5 45/3/5
f 46/3/5 47/2/5 48/2/5
f 50/2/3 43/3/3 49/3/3
f 43/3/3 50/2/3 44/2/3
f 5/4/4 51/5/4 8/4/4
f 51/5/4 5/4/4 38/3/4
f 38/3/4 5/4/4 52/3/4
f 40/2/4 51/5/4 38/3/4
f 53/2/4 51/5/4 40/2/4
f 51/5/4 53/2/4 54/5/4
f 50/2/2 56/5/2 55/2/2
f 56/5/2 50/2/2 57/5/2
f 57/5/2 50/2/2 19/4/2
f 19/4/2 50/2/2 49/3/2
f 19/4/2 49/3/2 30/4/2
f 30/4/2 49/3/2 58/3/2
f 59/3/3 6/4/3 11/4/3
f 6/4/3 59/3/3 60/5/3
f 60/5/3 59/3/3 61/5/3
f 61/5/3 59/3/3 36/3/3
f 61/5/3 36/3/3 62/2/3
f 62/2/3 36/3/3 35/2/3
f 65/2/5 64/5/5 63/5/5
f 64/5/5 65/2/5 66/3/5
f 66/3/5 65/2/5 67/2/5
f 68/3/5 64/5/5 66/3/5
f 2/4/5 64/5/5 68/3/5
f 64/5/5 2/4/5 4/4/5
f 70/2/5 34/3/5 69/3/5
f 34/3/5 70/2/5 33/2/5
f 71/2/2 46/3/2 48/2/2
f 46/3/2 71/2/2 72/5/2
f 72/5/2 71/2/2 73/5/2
f 17/4/2 46/3/2 72/5/2
f 24/4/2 46/3/2 17/4/2
f 46/3/2 24/4/2 74/3/2
f 12/4/4 75/3/4 7/4/4
f 75/3/4 12/4/4 69/3/4
f 69/3/4 12/4/4 70/2/4
f 70/2/4 12/4/4 76/5/4
f 70/2/4 76/5/4 77/2/4
f 77/2/4 76/5/4 78/5/4
f 79/3/4 47/2/4 45/3/4
f 47/2/4 79/3/4 80/2/4
f 83/2/3 82/5/3 81/5/3
f 82/5/3 83/2/3 79/3/3
f 79/3/3 83/2/3 80/2/3
f 84/3/3 82/5/3 79/3/3
f 27/4/3 82/5/3 84/3/3
f 82/5/3 27/4/3 25/4/3
f 85/3/5 23/4/5 31/4/5
f 23/4/5 85/3/5 86/5/5
f 86/5/5 85/3/5 87/5/5
f 87/5/5 85/3/5 41/3/5
f 87/5/5 41/3/5 88/2/5
f 88/2/5 41/3/5 42/2/5
f 64/5/6 6/4/2 60/5/6
f 6/4/2 64/5/6 4/4/2
f 61/5/7 64/5/6 60/5/6
f 64/5/6 61/5/7 63/5/7
f 72/5/8 12/4/5 17/4/5
f 12/4/5 72/5/8 76/5/8
f 72/5/8 78/5/7 76/5/8
f 78/5/7 72/5/8 73/5/7
f 25/4/4 86/5/9 82/5/9
f 86/5/9 25/4/4 23/4/4
f 82/5/9 87/5/7 81/5/7
f 87/5/7 82/5/9 86/5/9
f 51/5/10 14/4/3 8/4/3
f 14/4/3 51/5/10 89/5/10
f 90/5/7 51/5/10 54/5/7
f 51/5/10 90/5/7 89/5/10
f 39/2/2 66/3/2 67/2/2
f 66/3/2 39/2/2 37/3/2
f 91/3/11 2/4/2 68/3/2
f 2/4/2 91/3/11 1/4/11
f 66/3/7 91/3/7 68/3/7
f 91/3/7 66/3/7 92/3/7
f 92/3/7 66/3/7 37/3/7
f 92/3/7 37/3/7 52/3/7
f 52/3/7 37/3/7 38/3/7
f 92/3/12 5/4/3 3/4/12
f 5/4/3 92/3/12 52/3/3
f 32/4/13 85/3/4 31/4/4
f 85/3/4 32/4/13 93/3/13
f 58/3/3 29/4/14 30/4/3
f 29/4/14 58/3/3 94/3/14
f 85/3/7 43/3/7 41/3/7
f 43/3/7 85/3/7 94/3/7
f 94/3/7 85/3/7 93/3/7
f 58/3/7 43/3/7 94/3/7
f 43/3/7 58/3/7 49/3/7
f 95/3/15 24/4/5 26/4/15
f 24/4/5 95/3/15 74/3/5
f 75/3/5 9/4/16 7/4/5
f 9/4/16 75/3/5 96/3/16
f 34/3/7 75/3/7 69/3/7
f 75/3/7 34/3/7 96/3/7
f 36/3/7 96/3/7 34/3/7
f 59/3/7 96/3/7 36/3/7
f 96/3/7 59/3/7 97/3/7
f 59/3/2 10/4/17 97/3/17
f 10/4/17 59/3/2 11/4/2
f 96/3/16 10/4/17 9/4/16
f 10/4/17 96/3/16 97/3/17
f 92/3/12 1/4/11 91/3/11
f 1/4/11 92/3/12 3/4/12
f 94/3/14 32/4/13 29/4/14
f 32/4/13 94/3/14 93/3/13
f 27/4/4 98/3/18 28/4/18
f 98/3/18 27/4/4 84/3/4
f 95/3/7 46/3/7 74/3/7
f 46/3/7 95/3/7 45/3/7
f 45/3/7 95/3/7 79/3/7
f 79/3/7 95/3/7 84/3/7
f 84/3/7 95/3/7 98/3/7
f 28/4/18 95/3/15 26/4/15
f 95/3/15 28/4/18 98/3/18
f 70/2/7 35/2/7 33/2/7
f 35/2/7 70/2/7 62/2/7
f 62/2/7 70/2/7 65/2/7
f 40/2/7 65/2/7 70/2/7
f 40/2/7 70/2/7 77/2/7
f 39/2/7 65/2/7 40/2/7
f 65/2/7 39/2/7 67/2/7
f 40/2/7 77/2/7 53/2/7
f 77/2/7 99/2/7 53/2/7
f 99/2/7 77/2/7 71/2/7
f 100/2/7 53/2/7 99/2/7
f 99/2/7 71/2/7 101/2/7
f 53/2/7 100/2/7 55/2/7
f 101/2/7 71/2/7 102/2/7
f 55/2/7 100/2/7 102/2/7
f 55/2/7 102/2/7 71/2/7
f 71/2/7 83/2/7 55/2/7
f 55/2/7 83/2/7 50/2/7
f 71/2/7 47/2/7 83/2/7
f 47/2/7 71/2/7 48/2/7
f 83/2/7 47/2/7 80/2/7
f 88/2/7 50/2/7 83/2/7
f 50/2/7 88/2/7 44/2/7
f 44/2/7 88/2/7 42/2/7
f 102/2/2 18/4/2 101/2/2
f 18/4/2 102/2/2 20/4/2
f 102/2/5 21/4/5 20/4/5
f 21/4/5 102/2/5 103/5/5
f 103/5/5 102/2/5 104/6/5
f 104/6/5 102/2/5 105/6/5
f 100/2/5 105/6/5 102/2/5
f 100/2/5 106/5/5 105/6/5
f 100/2/5 15/4/5 106/5/5
f 15/4/5 100/2/5 13/4/5
f 13/4/4 99/2/4 16/4/4
f 99/2/4 13/4/4 100/2/4
f 99/2/3 18/4/3 16/4/3
f 18/4/3 99/2/3 101/2/3
f 56/5/7 108/5/10 107/5/7
f 108/5/10 56/5/7 57/5/10
f 108/5/10 19/4/3 22/4/3
f 19/4/3 108/5/10 57/5/10
f 14/4/4 106/7/4 15/4/4
f 106/7/4 14/4/4 90/7/4
f 90/7/4 14/4/4 89/5/4
f 107/7/2 21/4/2 103/7/2
f 21/4/2 107/7/2 22/4/2
f 22/4/2 107/7/2 108/5/2
f 71/8/5 78/7/5 73/7/5
f 78/7/5 71/8/5 77/8/5
f 87/7/4 83/8/4 81/7/4
f 83/8/4 87/7/4 88/8/4
f 53/8/3 90/7/3 54/7/3
f 90/7/3 53/8/3 109/9/3
f 109/9/3 53/8/3 110/9/3
f 55/8/3 110/9/3 53/8/3
f 56/7/3 110/9/3 55/8/3
f 110/9/3 56/7/3 107/7/3
f 65/8/2 61/7/2 62/8/2
f 61/7/2 65/8/2 63/7/2
f 110/9/2 103/7/2 104/9/2
f 103/7/2 110/9/2 107/7/2
f 110/9/1 105/9/1 109/9/1
f 105/9/1 110/9/1 104/9/1
f 90/7/4 105/9/4 106/7/4
f 105/9/4 90/7/4 109/9/4
f 113/10/19 112/10/19 111/10/19
f 112/10/19 113/10/19 114/10/19
f 112/10/1 115/10/1 111/10/1
f 115/10/1 112/10/1 116/10/1
f 113/10/20 115/10/20 117/10/20
f 115/10/20 113/10/20 111/10/20
f 118/10/7 113/10/7 117/10/7
f 113/10/7 118/10/7 114/10/7
f 112/10/21 118/10/21 116/10/21
f 118/10/21 112/10/21 114/10/21
f 121/10/19 120/10/19 119/10/19
f 120/10/19 121/10/19 122/10/19
f 120/10/1 123/10/1 119/10/1
f 123/10/1 120/10/1 124/10/1
f 121/10/20 123/10/20 125/10/20
f 123/10/20 121/10/20 119/10/20
f 126/10/7 121/10/7 125/10/7
f 121/10/7 126/10/7 122/10/7
f 120/10/21 126/10/21 124/10/21
f 126/10/21 120/10/21 122/10/21
f 129/10/19 128/10/19 127/10/19
f 128/10/19 129/10/19 130/10/19
f 128/10/1 131/10/1 127/10/1
f 131/10/1 128/10/1 132/10/1
f 129/10/20 131/10/20 133/10/20
f 131/10/20 129/10/20 127/10/20
f 134/10/7 129/10/7 133/10/7
f 129/10/7 134/10/7 130/10/7
f 128/10/21 134/10/21 132/10/21
f 134/10/21 128/10/21 130/10/21
f 137/10/19 136/10/19 135/10/19
f 136/10/19 137/10/19 138/10/19
f 136/10/1 139/10/1 135/10/1
f 139/10/1 136/10/1 140/10/1
f 137/10/20 139/10/20 141/10/20
f 139/10/20 137/10/20 135/10/20
f 142/10/7 137/10/7 141/10/7
f 137/10/7 142/10/7 138/10/7
f 136/10/21 142/10/21 140/10/21
f 142/10/21 136/10/21 138/10/21
f 145/10/19 144/10/19 143/10/19
f 144/10/19 145/10/19 146/10/19
f 144/10/1 147/10/1 143/10/1
f 147/10/1 144/10/1 148/10/1
f 145/10/20 147/10/20 149/10/20
f 147/10/20 145/10/20 143/10/20
f 150/10/7 145/10/7 149/10/7
f 145/10/7 150/10/7 146/10/7
f 144/10/21 150/10/21 148/10/21
f 150/10/21 144/10/21 146/10/21
f 153/10/22 152/10/22 151/10/22
f 152/10/22 153/10/22 154/10/22
f 152/10/1 155/10/1 151/10/1
f 155/10/1 152/10/1 156/10/1
f 153/10/23 155/10/23 157/10/23
f 155/10/23 153/10/23 151/10/23
f 158/10/7 153/10/7 157/10/7
f 153/10/7 158/10/7 154/10/7
f 152/10/24 158/10/24 156/10/24
f 158/10/24 152/10/24 154/10/24
f 161/10/22 160/10/22 159/10/22
f 160/10/22 161/10/22 162/10/22
f 160/10/1 163/10/1 159/10/1
f 163/10/1 160/10/1 164/10/1
f 161/10/23 163/10/23 165/10/23
f 163/10/23 161/10/23 159/10/23
f 166/10/7 161/10/7 165/10/7
f 161/10/7 166/10/7 162/10/7
f 160/10/24 166/10/24 164/10/24
f 166/10/24 160/10/24 162/10/24
f 169/10/22 168/10/22 167/10/22
f 168/10/22 169/10/22 170/10/22
f 168/10/1 171/10/1 167/10/1
f 171/10/1 168/10/1 172/10/1
f 169/10/23 171/10/23 173/10/23
f 171/10/23 169/10/23 167/10/23
f 174/10/7 169/10/7 173/10/7
f 169/10/7 174/10/7 170/10/7
f 168/10/24 174/10/24 172/10/24
f 174/10/24 168/10/24 170/10/24
f 177/10/22 176/10/22 175/10/22
f 176/10/22 177/10/22 178/10/22
f 176/10/1 179/10/1 175/10/1
f 179/10/1 176/10/1 180/10/1
f 177/10/23 179/10/23 181/10/23
f 179/10/23 177/10/23 175/10/23
f 182/10/7 177/10/7 181/10/7
f 177/10/7 182/10/7 178/10/7
f 176/10/24 182/10/24 180/10/24
f 182/10/24 176/10/24 178/10/24
f 185/10/25 184/10/25 183/10/25
f 184/10/25 185/10/25 186/10/25
f 184/10/1 187/10/1 183/10/1
f 187/10/1 184/10/1 188/10/1
f 185/10/26 187/10/26 189/10/26
f 187/10/26 185/10/26 183/10/26
f 190/10/7 185/10/7 189/10/7
f 185/10/7 190/10/7 186/10/7
f 184/10/27 190/10/27 188/10/27
f 190/10/27 184/10/27 186/10/27

