# Created by Kenney (www.kenney.nl)

mtllib crypt-small-entrance.mtl

g crypt-small-entrance

v 0.3 0 0.1 1 1 1
v 0.3 0 -0.1 1 1 1
v 0.2 0 0.1 1 1 1
v 0.2 0 -0.1 1 1 1
v 0.2 0.9 3.609557E-16 1 1 1
v 0.3 0.9 3.609557E-16 1 1 1
v 0.2 0.9499999 3.609557E-16 1 1 1
v 0.275 0.9499999 3.609557E-16 1 1 1
v 0.35 0.875 3.609557E-16 1 1 1
v 0.35 0.8 3.609557E-16 1 1 1
v 0.3 0.8 3.609557E-16 1 1 1
v -0.2 0.8 -0.1 1 1 1
v -0.2 0.8 0.05 1 1 1
v 0.2 0.8 -0.1 1 1 1
v 0.2 0.8 0.05 1 1 1
v 0.2 0.8 0.075 1 1 1
v 0.3 0.8 0.05 1 1 1
v 0.35 0.8 0.075 1 1 1
v -0.2 0.8 0.075 1 1 1
v -0.35 0.8 0.075 1 1 1
v -0.3 0.8 0.05 1 1 1
v -0.3 0.8 3.609557E-16 1 1 1
v -0.35 0.8 3.609557E-16 1 1 1
v -0.2 0 -0.1 1 1 1
v -0.2 0.4 0.05 1 1 1
v -0.2 0 0.1 1 1 1
v -0.2 0.35 0.1 1 1 1
v -0.2 0.9499999 0.075 1 1 1
v -0.2 0.9 0.05 1 1 1
v -0.2 0.9 3.609557E-16 1 1 1
v -0.2 0.9499999 3.609557E-16 1 1 1
v 0.2 0.4 0.05 1 1 1
v 0.2 0.35 0.1 1 1 1
v 0.2 0.9 0.05 1 1 1
v 0.2 0.9499999 0.075 1 1 1
v -0.3 0 0.1 1 1 1
v -0.3 0 -0.1 1 1 1
v 0.3 0.4 0.05 1 1 1
v -0.3 0.4 0.05 1 1 1
v -0.3 0.9 -0.1 1 1 1
v -0.3 0.9 3.609557E-16 1 1 1
v -0.3 0.35 0.1 1 1 1
v 0.35 0.875 0.075 1 1 1
v 0.275 0.9499999 0.075 1 1 1
v -0.35 0.875 3.609557E-16 1 1 1
v -0.35 0.875 0.075 1 1 1
v -0.275 0.9499999 3.609557E-16 1 1 1
v -0.275 0.9499999 0.075 1 1 1
v 0.3 0.35 0.1 1 1 1
v 0.3 0.9 -0.1 1 1 1

vn 0 -1 0
vn 0 0 -1
vn 1 0 0
vn -1 0 0
vn 0 0 1
vn 0 0.3826834 0.9238795
vn 0.9238795 0.3826834 0
vn 0.3826834 0.9238795 0
vn 0 1 0
vn -0.9238795 0.3826834 0
vn -0.3826834 0.9238795 0

vt 0.71875 0.025
vt 0.71875 0.2144737
vt 0.71875 0.225
vt 0.71875 0.2092105
vt 0.71875 0.1934211
vt 0.71875 0.1092105
vt 0.71875 0.09868421

usemtl colormap

f 3/1/1 2/1/1 1/1/1
f 2/1/1 3/1/1 4/1/1
f 7/3/2 6/2/2 5/2/2
f 8/3/2 6/2/2 7/3/2
f 9/4/2 6/2/2 8/3/2
f 10/5/2 6/2/2 9/4/2
f 6/2/2 10/5/2 11/5/2
f 14/5/1 13/5/1 12/5/1
f 13/5/1 14/5/1 15/5/1
f 17/5/1 16/5/1 15/5/1
f 17/5/1 18/5/1 16/5/1
f 18/5/1 17/5/1 10/5/1
f 11/5/1 10/5/1 17/5/1
f 20/5/1 13/5/1 19/5/1
f 13/5/1 20/5/1 21/5/1
f 21/5/1 20/5/1 22/5/1
f 22/5/1 20/5/1 23/5/1
f 13/5/3 24/1/3 12/5/3
f 24/1/3 13/5/3 25/6/3
f 24/1/3 25/6/3 26/1/3
f 26/1/3 25/6/3 27/7/3
f 13/5/3 28/3/3 19/5/3
f 29/2/3 28/3/3 13/5/3
f 30/2/3 28/3/3 29/2/3
f 28/3/3 30/2/3 31/3/3
f 3/1/4 14/5/4 4/1/4
f 14/5/4 3/1/4 32/6/4
f 32/6/4 3/1/4 33/7/4
f 15/5/4 14/5/4 32/6/4
f 16/5/4 34/2/4 15/5/4
f 35/3/4 34/2/4 16/5/4
f 7/3/4 34/2/4 35/3/4
f 34/2/4 7/3/4 5/2/4
f 36/1/1 24/1/1 26/1/1
f 24/1/1 36/1/1 37/1/1
f 13/5/5 34/2/5 29/2/5
f 34/2/5 13/5/5 15/5/5
f 32/6/6 17/5/5 15/5/5
f 17/5/5 32/6/6 38/6/6
f 13/5/5 39/6/6 25/6/6
f 39/6/6 13/5/5 21/5/5
f 36/1/4 40/2/4 37/1/4
f 40/2/4 36/1/4 22/5/4
f 41/2/4 40/2/4 22/5/4
f 22/5/4 36/1/4 39/6/4
f 39/6/4 36/1/4 42/7/4
f 21/5/4 22/5/4 39/6/4
f 43/4/7 10/5/3 9/4/7
f 10/5/3 43/4/7 18/5/3
f 7/3/9 44/3/8 8/3/8
f 44/3/8 7/3/9 35/3/9
f 20/5/4 45/4/10 23/5/4
f 45/4/10 20/5/4 46/4/10
f 47/3/11 28/3/9 31/3/9
f 28/3/9 47/3/11 48/3/11
f 45/4/10 48/3/11 47/3/11
f 48/3/11 45/4/10 46/4/10
f 8/3/8 43/4/7 9/4/7
f 43/4/7 8/3/8 44/3/8
f 49/7/6 3/1/5 1/1/5
f 3/1/5 49/7/6 33/7/6
f 27/7/6 36/1/5 26/1/5
f 36/1/5 27/7/6 42/7/6
f 25/6/6 42/7/6 27/7/6
f 42/7/6 25/6/6 39/6/6
f 38/6/6 33/7/6 49/7/6
f 33/7/6 38/6/6 32/6/6
f 43/4/5 16/5/5 18/5/5
f 16/5/5 43/4/5 35/3/5
f 35/3/5 43/4/5 44/3/5
f 28/3/5 20/5/5 19/5/5
f 20/5/5 28/3/5 46/4/5
f 46/4/5 28/3/5 48/3/5
f 45/4/2 22/5/2 23/5/2
f 22/5/2 45/4/2 41/2/2
f 41/2/2 45/4/2 47/3/2
f 41/2/2 47/3/2 30/2/2
f 30/2/2 47/3/2 31/3/2
f 40/2/2 24/1/2 37/1/2
f 24/1/2 40/2/2 12/5/2
f 12/5/2 40/2/2 14/5/2
f 50/2/2 14/5/2 40/2/2
f 2/1/2 14/5/2 50/2/2
f 14/5/2 2/1/2 4/1/2
f 40/2/9 6/2/9 50/2/9
f 6/2/9 40/2/9 5/2/9
f 5/2/9 40/2/9 34/2/9
f 34/2/9 40/2/9 30/2/9
f 30/2/9 40/2/9 41/2/9
f 29/2/9 34/2/9 30/2/9
f 6/2/3 2/1/3 50/2/3
f 2/1/3 6/2/3 11/5/3
f 2/1/3 11/5/3 1/1/3
f 1/1/3 11/5/3 38/6/3
f 38/6/3 11/5/3 17/5/3
f 1/1/3 38/6/3 49/7/3

g crypt-small-entrance




usemtl colormap

f 3/1/1 2/1/1 1/1/1
f 2/1/1 3/1/1 4/1/1
f 7/3/2 6/2/2 5/2/2
f 8/3/2 6/2/2 7/3/2
f 9/4/2 6/2/2 8/3/2
f 10/5/2 6/2/2 9/4/2
f 6/2/2 10/5/2 11/5/2
f 14/5/1 13/5/1 12/5/1
f 13/5/1 14/5/1 15/5/1
f 17/5/1 16/5/1 15/5/1
f 17/5/1 18/5/1 16/5/1
f 18/5/1 17/5/1 10/5/1
f 11/5/1 10/5/1 17/5/1
f 20/5/1 13/5/1 19/5/1
f 13/5/1 20/5/1 21/5/1
f 21/5/1 20/5/1 22/5/1
f 22/5/1 20/5/1 23/5/1
f 13/5/3 24/1/3 12/5/3
f 24/1/3 13/5/3 25/6/3
f 24/1/3 25/6/3 26/1/3
f 26/1/3 25/6/3 27/7/3
f 13/5/3 28/3/3 19/5/3
f 29/2/3 28/3/3 13/5/3
f 30/2/3 28/3/3 29/2/3
f 28/3/3 30/2/3 31/3/3
f 3/1/4 14/5/4 4/1/4
f 14/5/4 3/1/4 32/6/4
f 32/6/4 3/1/4 33/7/4
f 15/5/4 14/5/4 32/6/4
f 16/5/4 34/2/4 15/5/4
f 35/3/4 34/2/4 16/5/4
f 7/3/4 34/2/4 35/3/4
f 34/2/4 7/3/4 5/2/4
f 36/1/1 24/1/1 26/1/1
f 24/1/1 36/1/1 37/1/1
f 13/5/5 34/2/5 29/2/5
f 34/2/5 13/5/5 15/5/5
f 32/6/6 17/5/5 15/5/5
f 17/5/5 32/6/6 38/6/6
f 13/5/5 39/6/6 25/6/6
f 39/6/6 13/5/5 21/5/5
f 36/1/4 40/2/4 37/1/4
f 40/2/4 36/1/4 22/5/4
f 41/2/4 40/2/4 22/5/4
f 22/5/4 36/1/4 39/6/4
f 39/6/4 36/1/4 42/7/4
f 21/5/4 22/5/4 39/6/4
f 43/4/7 10/5/3 9/4/7
f 10/5/3 43/4/7 18/5/3
f 7/3/9 44/3/8 8/3/8
f 44/3/8 7/3/9 35/3/9
f 20/5/4 45/4/10 23/5/4
f 45/4/10 20/5/4 46/4/10
f 47/3/11 28/3/9 31/3/9
f 28/3/9 47/3/11 48/3/11
f 45/4/10 48/3/11 47/3/11
f 48/3/11 45/4/10 46/4/10
f 8/3/8 43/4/7 9/4/7
f 43/4/7 8/3/8 44/3/8
f 49/7/6 3/1/5 1/1/5
f 3/1/5 49/7/6 33/7/6
f 27/7/6 36/1/5 26/1/5
f 36/1/5 27/7/6 42/7/6
f 25/6/6 42/7/6 27/7/6
f 42/7/6 25/6/6 39/6/6
f 38/6/6 33/7/6 49/7/6
f 33/7/6 38/6/6 32/6/6
f 43/4/5 16/5/5 18/5/5
f 16/5/5 43/4/5 35/3/5
f 35/3/5 43/4/5 44/3/5
f 28/3/5 20/5/5 19/5/5
f 20/5/5 28/3/5 46/4/5
f 46/4/5 28/3/5 48/3/5
f 45/4/2 22/5/2 23/5/2
f 22/5/2 45/4/2 41/2/2
f 41/2/2 45/4/2 47/3/2
f 41/2/2 47/3/2 30/2/2
f 30/2/2 47/3/2 31/3/2
f 40/2/2 24/1/2 37/1/2
f 24/1/2 40/2/2 12/5/2
f 12/5/2 40/2/2 14/5/2
f 50/2/2 14/5/2 40/2/2
f 2/1/2 14/5/2 50/2/2
f 14/5/2 2/1/2 4/1/2
f 40/2/9 6/2/9 50/2/9
f 6/2/9 40/2/9 5/2/9
f 5/2/9 40/2/9 34/2/9
f 34/2/9 40/2/9 30/2/9
f 30/2/9 40/2/9 41/2/9
f 29/2/9 34/2/9 30/2/9
f 6/2/3 2/1/3 50/2/3
f 2/1/3 6/2/3 11/5/3
f 2/1/3 11/5/3 1/1/3
f 1/1/3 11/5/3 38/6/3
f 38/6/3 11/5/3 17/5/3
f 1/1/3 38/6/3 49/7/3

