# Created by Kenney (www.kenney.nl)

mtllib debris.mtl

g debris

v 0.0452888 0.08 0.1894516 1 1 1
v 0.0115568 0.08 0.1724124 1 1 1
v 0.0452888 0.16 0.1894516 1 1 1
v -0.1189472 0.08 0.10649 1 1 1
v -0.1189472 0.16 0.10649 1 1 1
v 0.04726 0 0.0540404 1 1 1
v 0.1742224 0 0.0377764 1 1 1
v 0.04726 0.08 0.0540404 1 1 1
v 0.1742224 0.08 0.0377764 1 1 1
v 0.0583096 0.08 0.0526252 1 1 1
v 0.0073712 0 -0.1889268 1 1 1
v 0.0073712 0.08 -0.1889268 1 1 1
v 0.0405 0 -0.0652884 1 1 1
v 0.0344848 0.08 -0.0877388 1 1 1
v 0.0405 0.08 -0.0652884 1 1 1
v -0.099088 0.08 0.0671756 1 1 1
v -0.147276 0.08 0.0542636 1 1 1
v -0.1804048 0.08 0.177902 1 1 1
v -0.0026744 0.08 0.2255252 1 1 1
v -0.0612352 0.08 -0.0077612 1 1 1
v -0.0612352 0.16 -0.0077612 1 1 1
v -0.0685776 0.08 0.0067748 1 1 1
v 0.1030008 0.16 0.0752004 1 1 1
v 0.1030008 0.08 0.0752004 1 1 1
v 0.0606984 0.08 0.1589452 1 1 1
v 0.0304544 0.08 0.1018868 1 1 1
v -0.0474464 0.08 -0.0007955999 1 1 1
v -0.0469696 0.08 0.0009843999 1 1 1
v -0.0469696 0 0.0009843999 1 1 1
v -0.094592 0 -0.176746 1 1 1
v -0.170608 0 0.0341132 1 1 1
v -0.2182304 0 -0.1436172 1 1 1
v 0.07064 0.08 0.2365492 1 1 1
v 0.1976024 0.08 0.2202852 1 1 1
v 0.0129632 0.16 -0.2231148 1 1 1
v 0.0129632 0.08 -0.2231148 1 1 1
v 0.07696319 0.16 -0.1122636 1 1 1
v 0.0293072 0.08 -0.1948044 1 1 1
v 0.07696319 0.08 -0.1122636 1 1 1
v 0.0304544 0 0.1018868 1 1 1
v -0.147276 0 0.0542636 1 1 1
v -0.0026744 0 0.2255252 1 1 1
v -0.1804048 0 0.177902 1 1 1
v -0.1463856 0.08 -0.1311148 1 1 1
v -0.0909424 0.08 -0.1631252 1 1 1
v -0.1463856 0.16 -0.1311148 1 1 1
v 0.1851016 0.08 -0.2365492 1 1 1
v 0.2182304 0.08 -0.1129108 1 1 1
v -0.0823856 0.08 -0.0202636 1 1 1
v -0.0823856 0.16 -0.0202636 1 1 1
v -0.094592 0.08 -0.176746 1 1 1
v -0.2182304 0.08 -0.1436172 1 1 1
v -0.170608 0.08 0.0341132 1 1 1
v -0.0566448 0.08 -0.0351252 1 1 1
v 0.2182304 0 -0.1129108 1 1 1
v 0.1851016 0 -0.2365492 1 1 1
v 0.1976024 0 0.2202852 1 1 1
v 0.07064 0 0.2365492 1 1 1

vn -0.4508777 0 0.8925857
vn -0.1270631 9.793414E-07 -0.9918947
vn -0.9659257 1.375388E-06 0.2588195
vn 0 1 0
vn -0.8925871 -1.170965E-06 -0.450875
vn 0.8925871 -6.303545E-07 0.450875
vn 0 -1 0
vn 0.4508771 -8.572853E-07 -0.892586
vn 0.8660247 -3.555667E-06 -0.5000012
vn -0.4999996 9.907839E-07 -0.8660257
vn 0.2588215 -2.589987E-07 -0.9659252
vn -0.2588215 0 0.9659252
vn -0.8660253 0 0.5000002
vn 0.9659261 -7.846706E-07 -0.2588179
vn 0.4999996 -6.716236E-07 0.8660256
vn 0.9659258 0 -0.258819
vn 0.9659258 1.315008E-06 0.2588191
vn 0.1270626 0 0.9918947
vn 0.9918944 0 -0.1270651
vn 0.2588174 0 0.9659263
vn -0.9659258 0 -0.258819
vn -0.9918944 -1.082151E-06 0.127065
vn -0.2588176 3.468997E-07 -0.9659262
vn -0.9659263 0 0.2588174
vn -0.258819 0 -0.9659258
vn 0.2588181 -2.088439E-06 0.9659261

vt 0.71875 0.125
vt 0.71875 0.225
vt 0.71875 0.025

usemtl colormap

f 3/2/1 2/1/1 1/1/1
f 2/1/1 3/2/1 4/1/1
f 4/1/1 3/2/1 5/2/1
f 8/1/2 7/3/2 6/3/2
f 7/3/2 8/1/2 9/1/2
f 9/1/2 8/1/2 10/1/2
f 13/3/3 12/1/3 11/3/3
f 12/1/3 13/3/3 14/1/3
f 14/1/3 13/3/3 15/1/3
f 17/1/4 4/1/4 16/1/4
f 18/1/4 4/1/4 17/1/4
f 19/1/4 4/1/4 18/1/4
f 4/1/4 19/1/4 2/1/4
f 22/1/5 21/2/5 20/1/5
f 21/2/5 22/1/5 5/2/5
f 5/2/5 22/1/5 16/1/5
f 5/2/5 16/1/5 4/1/5
f 3/2/6 24/1/6 23/2/6
f 24/1/6 3/2/6 25/1/6
f 25/1/6 3/2/6 1/1/6
f 1/1/7 8/1/7 25/1/7
f 26/1/7 8/1/7 1/1/7
f 2/1/7 26/1/7 1/1/7
f 27/1/7 8/1/7 26/1/7
f 8/1/7 27/1/7 10/1/7
f 27/1/7 26/1/7 28/1/7
f 16/1/7 28/1/7 26/1/7
f 28/1/7 16/1/7 22/1/7
f 31/3/7 30/3/7 29/3/7
f 30/3/7 31/3/7 32/3/7
f 21/2/8 27/1/8 20/1/8
f 27/1/8 21/2/8 10/1/8
f 10/1/8 21/2/8 24/1/8
f 24/1/8 21/2/8 23/2/8
f 10/1/4 24/1/4 9/1/4
f 33/1/4 9/1/4 24/1/4
f 33/1/4 24/1/4 25/1/4
f 9/1/4 33/1/4 34/1/4
f 37/2/9 36/1/9 35/2/9
f 36/1/9 37/2/9 38/1/9
f 38/1/9 37/2/9 39/1/9
f 42/3/7 41/3/7 40/3/7
f 41/3/7 42/3/7 43/3/7
f 46/2/10 45/1/10 44/1/10
f 45/1/10 46/2/10 36/1/10
f 36/1/10 46/2/10 35/2/10
f 17/1/11 40/3/11 41/3/11
f 40/3/11 17/1/11 26/1/11
f 26/1/11 17/1/11 16/1/11
f 38/1/4 39/1/4 47/1/4
f 15/1/4 47/1/4 39/1/4
f 15/1/4 39/1/4 14/1/4
f 47/1/4 15/1/4 48/1/4
f 19/1/12 43/3/12 42/3/12
f 43/3/12 19/1/12 18/1/12
f 49/1/13 46/2/13 44/1/13
f 46/2/13 49/1/13 50/2/13
f 51/1/4 44/1/4 45/1/4
f 44/1/4 51/1/4 52/1/4
f 44/1/4 52/1/4 53/1/4
f 53/1/4 49/1/4 44/1/4
f 22/1/4 49/1/4 53/1/4
f 20/1/4 49/1/4 22/1/4
f 20/1/4 54/1/4 49/1/4
f 54/1/4 20/1/4 27/1/4
f 54/1/7 12/1/7 14/1/7
f 45/1/7 12/1/7 54/1/7
f 36/1/7 12/1/7 45/1/7
f 12/1/7 36/1/7 38/1/7
f 21/2/4 3/2/4 23/2/4
f 3/2/4 21/2/4 5/2/4
f 45/1/14 30/3/14 51/1/14
f 30/3/14 45/1/14 29/3/14
f 29/3/14 45/1/14 54/1/14
f 29/3/14 54/1/14 27/1/14
f 29/3/14 27/1/14 28/1/14
f 37/2/15 14/1/15 39/1/15
f 14/1/15 37/2/15 54/1/15
f 54/1/15 37/2/15 49/1/15
f 49/1/15 37/2/15 50/2/15
f 13/3/7 56/3/7 55/3/7
f 56/3/7 13/3/7 11/3/7
f 48/1/16 56/3/16 47/1/16
f 56/3/16 48/1/16 55/3/16
f 35/2/4 50/2/4 37/2/4
f 50/2/4 35/2/4 46/2/4
f 2/1/17 40/3/17 26/1/17
f 40/3/17 2/1/17 42/3/17
f 42/3/17 2/1/17 19/1/17
f 58/3/7 7/3/7 57/3/7
f 7/3/7 58/3/7 6/3/7
f 34/1/18 58/3/18 57/3/18
f 58/3/18 34/1/18 33/1/18
f 34/1/19 7/3/19 9/1/19
f 7/3/19 34/1/19 57/3/19
f 48/1/20 13/3/20 55/3/20
f 13/3/20 48/1/20 15/1/20
f 43/3/21 17/1/21 41/3/21
f 17/1/21 43/3/21 18/1/21
f 58/3/22 8/1/22 6/3/22
f 8/1/22 58/3/22 25/1/22
f 25/1/22 58/3/22 33/1/22
f 12/1/23 56/3/23 11/3/23
f 56/3/23 12/1/23 47/1/23
f 47/1/23 12/1/23 38/1/23
f 31/3/24 52/1/24 32/3/24
f 52/1/24 31/3/24 53/1/24
f 52/1/25 30/3/25 32/3/25
f 30/3/25 52/1/25 51/1/25
f 28/1/26 31/3/26 29/3/26
f 31/3/26 28/1/26 53/1/26
f 53/1/26 28/1/26 22/1/26

g debris




usemtl colormap

f 3/2/1 2/1/1 1/1/1
f 2/1/1 3/2/1 4/1/1
f 4/1/1 3/2/1 5/2/1
f 8/1/2 7/3/2 6/3/2
f 7/3/2 8/1/2 9/1/2
f 9/1/2 8/1/2 10/1/2
f 13/3/3 12/1/3 11/3/3
f 12/1/3 13/3/3 14/1/3
f 14/1/3 13/3/3 15/1/3
f 17/1/4 4/1/4 16/1/4
f 18/1/4 4/1/4 17/1/4
f 19/1/4 4/1/4 18/1/4
f 4/1/4 19/1/4 2/1/4
f 22/1/5 21/2/5 20/1/5
f 21/2/5 22/1/5 5/2/5
f 5/2/5 22/1/5 16/1/5
f 5/2/5 16/1/5 4/1/5
f 3/2/6 24/1/6 23/2/6
f 24/1/6 3/2/6 25/1/6
f 25/1/6 3/2/6 1/1/6
f 1/1/7 8/1/7 25/1/7
f 26/1/7 8/1/7 1/1/7
f 2/1/7 26/1/7 1/1/7
f 27/1/7 8/1/7 26/1/7
f 8/1/7 27/1/7 10/1/7
f 27/1/7 26/1/7 28/1/7
f 16/1/7 28/1/7 26/1/7
f 28/1/7 16/1/7 22/1/7
f 31/3/7 30/3/7 29/3/7
f 30/3/7 31/3/7 32/3/7
f 21/2/8 27/1/8 20/1/8
f 27/1/8 21/2/8 10/1/8
f 10/1/8 21/2/8 24/1/8
f 24/1/8 21/2/8 23/2/8
f 10/1/4 24/1/4 9/1/4
f 33/1/4 9/1/4 24/1/4
f 33/1/4 24/1/4 25/1/4
f 9/1/4 33/1/4 34/1/4
f 37/2/9 36/1/9 35/2/9
f 36/1/9 37/2/9 38/1/9
f 38/1/9 37/2/9 39/1/9
f 42/3/7 41/3/7 40/3/7
f 41/3/7 42/3/7 43/3/7
f 46/2/10 45/1/10 44/1/10
f 45/1/10 46/2/10 36/1/10
f 36/1/10 46/2/10 35/2/10
f 17/1/11 40/3/11 41/3/11
f 40/3/11 17/1/11 26/1/11
f 26/1/11 17/1/11 16/1/11
f 38/1/4 39/1/4 47/1/4
f 15/1/4 47/1/4 39/1/4
f 15/1/4 39/1/4 14/1/4
f 47/1/4 15/1/4 48/1/4
f 19/1/12 43/3/12 42/3/12
f 43/3/12 19/1/12 18/1/12
f 49/1/13 46/2/13 44/1/13
f 46/2/13 49/1/13 50/2/13
f 51/1/4 44/1/4 45/1/4
f 44/1/4 51/1/4 52/1/4
f 44/1/4 52/1/4 53/1/4
f 53/1/4 49/1/4 44/1/4
f 22/1/4 49/1/4 53/1/4
f 20/1/4 49/1/4 22/1/4
f 20/1/4 54/1/4 49/1/4
f 54/1/4 20/1/4 27/1/4
f 54/1/7 12/1/7 14/1/7
f 45/1/7 12/1/7 54/1/7
f 36/1/7 12/1/7 45/1/7
f 12/1/7 36/1/7 38/1/7
f 21/2/4 3/2/4 23/2/4
f 3/2/4 21/2/4 5/2/4
f 45/1/14 30/3/14 51/1/14
f 30/3/14 45/1/14 29/3/14
f 29/3/14 45/1/14 54/1/14
f 29/3/14 54/1/14 27/1/14
f 29/3/14 27/1/14 28/1/14
f 37/2/15 14/1/15 39/1/15
f 14/1/15 37/2/15 54/1/15
f 54/1/15 37/2/15 49/1/15
f 49/1/15 37/2/15 50/2/15
f 13/3/7 56/3/7 55/3/7
f 56/3/7 13/3/7 11/3/7
f 48/1/16 56/3/16 47/1/16
f 56/3/16 48/1/16 55/3/16
f 35/2/4 50/2/4 37/2/4
f 50/2/4 35/2/4 46/2/4
f 2/1/17 40/3/17 26/1/17
f 40/3/17 2/1/17 42/3/17
f 42/3/17 2/1/17 19/1/17
f 58/3/7 7/3/7 57/3/7
f 7/3/7 58/3/7 6/3/7
f 34/1/18 58/3/18 57/3/18
f 58/3/18 34/1/18 33/1/18
f 34/1/19 7/3/19 9/1/19
f 7/3/19 34/1/19 57/3/19
f 48/1/20 13/3/20 55/3/20
f 13/3/20 48/1/20 15/1/20
f 43/3/21 17/1/21 41/3/21
f 17/1/21 43/3/21 18/1/21
f 58/3/22 8/1/22 6/3/22
f 8/1/22 58/3/22 25/1/22
f 25/1/22 58/3/22 33/1/22
f 12/1/23 56/3/23 11/3/23
f 56/3/23 12/1/23 47/1/23
f 47/1/23 12/1/23 38/1/23
f 31/3/24 52/1/24 32/3/24
f 52/1/24 31/3/24 53/1/24
f 52/1/25 30/3/25 32/3/25
f 30/3/25 52/1/25 51/1/25
f 28/1/26 31/3/26 29/3/26
f 31/3/26 28/1/26 53/1/26
f 53/1/26 28/1/26 22/1/26

