# Created by Kenney (www.kenney.nl)

mtllib debris-wood.mtl

g debris-wood

v 0.0105545 0.03936 0.268177 1 1 1
v -0.1218015 0.03936 0.211449 1 1 1
v 0.0105545 0.07872 0.268177 1 1 1
v -0.1218015 0.07872 0.211449 1 1 1
v -0.2280005 0 0.124177 1 1 1
v -0.2280005 0.03936 0.124177 1 1 1
v -0.2280005 0 0.268177 1 1 1
v -0.2280005 0.03936 0.268177 1 1 1
v -0.2334535 0 -0.040177 1 1 1
v -0.2334535 0.03936 -0.040177 1 1 1
v -0.1614535 0 0.084531 1 1 1
v -0.1614535 0.03936 0.084531 1 1 1
v 0.2279995 0 0.268177 1 1 1
v 0.2279995 0.03936 0.268177 1 1 1
v 0.2334535 0 -0.143469 1 1 1
v 0.1614535 0 -0.268177 1 1 1
v 0.2279995 0 0.124177 1 1 1
v 0.2279995 0.03936 0.124177 1 1 1
v -0.0843965 0.03936 0.124177 1 1 1
v 0.0722725 0.03936 0.124177 1 1 1
v 0.0578365 0.03936 -0.207676 1 1 1
v 0.0578365 0.07872 -0.207676 1 1 1
v -0.0364785 0.03936 0.012376 1 1 1
v 0.2334535 0.03936 -0.143469 1 1 1
v 0.1717065 0.03936 -0.107819 1 1 1
v 0.1901915 0.03936 -0.150949 1 1 1
v 0.1901915 0.07872 -0.150949 1 1 1
v 0.1614535 0.03936 -0.268177 1 1 1

vn -0.3939428 0 0.919135
vn -1 0 0
vn -0.866026 0 0.499999
vn 0 0 1
vn 0 -1 0
vn 0 0 -1
vn 1 0 0
vn -0.9191347 9.957929E-07 -0.3939433
vn 0.5000003 1.501165E-06 0.8660253
vn 0 1 0
vn 0.3939394 0 -0.9191364
vn 0.866026 0 -0.499999
vn 0.9191357 9.946747E-07 0.3939411
vn -0.5000005 0 -0.8660251

vt 0.96875 0.125
vt 0.96875 0.225
vt 0.96875 0.025

usemtl colormap

f 3/2/1 2/1/1 1/1/1
f 2/1/1 3/2/1 4/2/1
f 7/3/2 6/1/2 5/3/2
f 6/1/2 7/3/2 8/1/2
f 11/3/3 10/1/3 9/3/3
f 10/1/3 11/3/3 12/1/3
f 14/1/4 7/3/4 13/3/4
f 7/3/4 14/1/4 8/1/4
f 8/1/4 14/1/4 1/1/4
f 11/3/5 16/3/5 15/3/5
f 16/3/5 11/3/5 9/3/5
f 6/1/6 17/3/6 5/3/6
f 17/3/6 6/1/6 18/1/6
f 18/1/6 6/1/6 19/1/6
f 18/1/6 19/1/6 20/1/6
f 14/1/7 17/3/7 18/1/7
f 17/3/7 14/1/7 13/3/7
f 23/1/8 22/2/8 21/1/8
f 22/2/8 23/1/8 4/2/8
f 4/2/8 23/1/8 19/1/8
f 4/2/8 19/1/8 2/1/8
f 7/3/5 17/3/5 13/3/5
f 17/3/5 7/3/5 5/3/5
f 24/1/9 11/3/9 15/3/9
f 11/3/9 24/1/9 12/1/9
f 12/1/9 24/1/9 25/1/9
f 12/1/9 25/1/9 23/1/9
f 6/1/10 2/1/10 19/1/10
f 8/1/10 2/1/10 6/1/10
f 2/1/10 8/1/10 1/1/10
f 14/1/10 20/1/10 1/1/10
f 20/1/10 14/1/10 18/1/10
f 22/2/11 26/1/11 21/1/11
f 26/1/11 22/2/11 27/2/11
f 22/2/10 3/2/10 27/2/10
f 3/2/10 22/2/10 4/2/10
f 23/1/10 10/1/10 12/1/10
f 21/1/10 10/1/10 23/1/10
f 21/1/10 28/1/10 10/1/10
f 26/1/10 28/1/10 21/1/10
f 28/1/10 26/1/10 24/1/10
f 25/1/10 24/1/10 26/1/10
f 20/1/5 23/1/5 25/1/5
f 23/1/5 20/1/5 19/1/5
f 24/1/12 16/3/12 28/1/12
f 16/3/12 24/1/12 15/3/12
f 3/2/13 26/1/13 27/2/13
f 26/1/13 3/2/13 25/1/13
f 25/1/13 3/2/13 20/1/13
f 20/1/13 3/2/13 1/1/13
f 10/1/14 16/3/14 9/3/14
f 16/3/14 10/1/14 28/1/14

g debris-wood




usemtl colormap

f 3/2/1 2/1/1 1/1/1
f 2/1/1 3/2/1 4/2/1
f 7/3/2 6/1/2 5/3/2
f 6/1/2 7/3/2 8/1/2
f 11/3/3 10/1/3 9/3/3
f 10/1/3 11/3/3 12/1/3
f 14/1/4 7/3/4 13/3/4
f 7/3/4 14/1/4 8/1/4
f 8/1/4 14/1/4 1/1/4
f 11/3/5 16/3/5 15/3/5
f 16/3/5 11/3/5 9/3/5
f 6/1/6 17/3/6 5/3/6
f 17/3/6 6/1/6 18/1/6
f 18/1/6 6/1/6 19/1/6
f 18/1/6 19/1/6 20/1/6
f 14/1/7 17/3/7 18/1/7
f 17/3/7 14/1/7 13/3/7
f 23/1/8 22/2/8 21/1/8
f 22/2/8 23/1/8 4/2/8
f 4/2/8 23/1/8 19/1/8
f 4/2/8 19/1/8 2/1/8
f 7/3/5 17/3/5 13/3/5
f 17/3/5 7/3/5 5/3/5
f 24/1/9 11/3/9 15/3/9
f 11/3/9 24/1/9 12/1/9
f 12/1/9 24/1/9 25/1/9
f 12/1/9 25/1/9 23/1/9
f 6/1/10 2/1/10 19/1/10
f 8/1/10 2/1/10 6/1/10
f 2/1/10 8/1/10 1/1/10
f 14/1/10 20/1/10 1/1/10
f 20/1/10 14/1/10 18/1/10
f 22/2/11 26/1/11 21/1/11
f 26/1/11 22/2/11 27/2/11
f 22/2/10 3/2/10 27/2/10
f 3/2/10 22/2/10 4/2/10
f 23/1/10 10/1/10 12/1/10
f 21/1/10 10/1/10 23/1/10
f 21/1/10 28/1/10 10/1/10
f 26/1/10 28/1/10 21/1/10
f 28/1/10 26/1/10 24/1/10
f 25/1/10 24/1/10 26/1/10
f 20/1/5 23/1/5 25/1/5
f 23/1/5 20/1/5 19/1/5
f 24/1/12 16/3/12 28/1/12
f 16/3/12 24/1/12 15/3/12
f 3/2/13 26/1/13 27/2/13
f 26/1/13 3/2/13 25/1/13
f 25/1/13 3/2/13 20/1/13
f 20/1/13 3/2/13 1/1/13
f 10/1/14 16/3/14 9/3/14
f 16/3/14 10/1/14 28/1/14

