# Created by Kenney (www.kenney.nl)

mtllib grave.mtl

g grave

v -0.119475 0.038088 0.376561 1 1 1
v -0.114025 0.038088 0.36713 1 1 1
v -0.116147 0.028765 0.382321 1 1 1
v -0.143275 0 -0.379553 1 1 1
v -0.096617 0.09522 -0.284665 1 1 1
v -0.143275 0 0.261689 1 1 1
v -0.096617 0.09522 0.284665 1 1 1
v -0.124611 0.038088 0.285217 1 1 1
v -0.124611 0.038088 0.341598 1 1 1
v -0.126864 0.02171 0.520797 1 1 1
v -0.111362 0 0.520797 1 1 1
v -0.141909 0.02171 0.54683 1 1 1
v -0.134158 0 0.560241 1 1 1
v -0.179749 0 0.560241 1 1 1
v -0.171999 0.02171 0.54683 1 1 1
v -0.08861201 0 -0.511391 1 1 1
v -0.05562 0.09522 -0.383543 1 1 1
v -0.210889 0.02171 0.175308 1 1 1
v -0.225934 0.02171 0.201341 1 1 1
v -0.225934 0.02171 0.149275 1 1 1
v -0.256024 0.02171 0.149275 1 1 1
v -0.256024 0.02171 0.201341 1 1 1
v -0.271069 0.02171 0.175308 1 1 1
v -0.225855 0 0.330889 1 1 1
v -0.19866 0.038088 0.330889 1 1 1
v -0.185863 0 0.40009 1 1 1
v -0.172265 0.038088 0.376561 1 1 1
v -0.202545 0 0.520797 1 1 1
v -0.187044 0.02171 0.520797 1 1 1
v 0.235574 0 -0.292691 1 1 1
v 0.229988 0 -0.292691 1 1 1
v 0.221977 0.038088 -0.316219 1 1 1
v 0.211325 0.038088 -0.316219 1 1 1
v -0.134158 0 0.481352 1 1 1
v -0.179749 0 0.481352 1 1 1
v 0.175325 0 -0.511391 1 1 1
v 0.208618 0 -0.431092 1 1 1
v 0.142333 0.09522 -0.383543 1 1 1
v 0.183973 0.038088 -0.407564 1 1 1
v 0.211325 0.038088 -0.341598 1 1 1
v 0.18333 0.09522 -0.284665 1 1 1
v 0.235574 0 -0.431092 1 1 1
v 0.275566 0 -0.361892 1 1 1
v 0.221977 0.038088 -0.407564 1 1 1
v 0.248372 0.038088 -0.361892 1 1 1
v -0.195388 0 0.175308 1 1 1
v -0.218183 0 0.135864 1 1 1
v -0.218183 0 0.214752 1 1 1
v -0.263775 0 0.214752 1 1 1
v -0.263775 0 0.135864 1 1 1
v -0.28657 0 0.175308 1 1 1
v -0.171999 0.02171 0.494763 1 1 1
v -0.141909 0.02171 0.494763 1 1 1
v 0.229988 0 0.379553 1 1 1
v 0.18333 0.09522 0.284665 1 1 1
v -0.05562 0.09522 0.383543 1 1 1
v -0.13476 0 0.40009 1 1 1
v -0.08861201 0 0.511391 1 1 1
v 0.043357 0 -0.566 1 1 1
v 0.043357 0.09522 -0.4245 1 1 1
v 0.218183 0 -0.54087 1 1 1
v 0.263774 0 -0.54087 1 1 1
v 0.225934 0.02171 -0.527459 1 1 1
v 0.256024 0.02171 -0.527459 1 1 1
v 0.28657 0 -0.501425 1 1 1
v 0.263774 0 -0.461981 1 1 1
v 0.218183 0 -0.461981 1 1 1
v 0.195387 0 -0.501425 1 1 1
v 0.210888 0.02171 -0.501425 1 1 1
v 0.225934 0.02171 -0.475392 1 1 1
v 0.271069 0.02171 -0.501425 1 1 1
v -0.185863 0 0.261689 1 1 1
v 0.043357 0 0.566 1 1 1
v 0.175325 0 0.511391 1 1 1
v 0.043357 0.09522 0.4245 1 1 1
v -0.172265 0.038088 0.285217 1 1 1
v 0.142333 0.09522 0.383543 1 1 1
v 0.256024 0.02171 -0.475392 1 1 1

vn 0.7364619 0.5258318 0.4255876
vn -0.7364619 -0.5258318 -0.4255876
vn -0.89799 0.440016 6.228422E-07
vn 0.7364388 0.5258465 0.4256096
vn -0.7364388 -0.5258465 -0.4256096
vn 0 0.5255463 0.850765
vn 0 -0.5255463 -0.850765
vn -0.4045603 0.7803712 -0.476814
vn -0.5416194 0.7351168 -0.4077398
vn -0.7093014 0.6406257 -0.2940921
vn 0 1 0
vn 0 -1 0
vn -0.7364491 0.5258354 0.4256051
vn 0.7364491 -0.5258354 -0.4256051
vn -0.7364518 0.525822 0.4256171
vn 0.7364518 -0.525822 -0.4256171
vn 0 0.5255424 0.8507674
vn 0 -0.5255424 -0.8507674
vn 0.404561 0.7803707 -0.4768144
vn 0.7093025 0.6406241 -0.2940928
vn 0.5416211 0.7351155 -0.4077399
vn 0.736457 0.5258173 -0.4256139
vn -0.736457 -0.5258173 0.4256139
vn 0 0.5255424 -0.8507674
vn 0 -0.5255424 0.8507674
vn -0.7364572 0.525822 -0.4256078
vn 0.7364572 -0.525822 0.4256078
vn 0.7364441 0.5258466 -0.4256002
vn -0.7364441 -0.5258466 0.4256002
vn 0.7364601 0.5258173 0.4256086
vn -0.7364601 -0.5258173 -0.4256086
vn 0.8979895 0.440017 0
vn 0 0.5255463 -0.850765
vn 0 -0.5255463 0.850765
vn -0.7093032 0.6406245 0.2940908
vn -0.5416208 0.7351161 0.407739
vn -0.4045611 0.7803711 0.4768137
vn 6.994557E-07 0.8296433 -0.5582938
vn 1.075781E-06 0.8296433 -0.5582938
vn -0.7364415 0.5258342 0.4256197
vn 0.7364415 -0.5258342 -0.4256197
vn 0.7364572 0.525822 -0.4256078
vn -0.7364572 -0.525822 0.4256078
vn 1.075781E-06 0.8296433 0.5582938
vn 6.994557E-07 0.8296433 0.5582938
vn -0.7364495 0.5258313 -0.4256096
vn 0.7364495 -0.5258313 0.4256096
vn 0.7364509 0.5258343 0.4256036
vn -0.7364509 -0.5258343 -0.4256036
vn -0.7364509 0.5258343 -0.4256036
vn 0.7364509 -0.5258343 0.4256036
vn -4.150538E-06 0.525558 0.8507578
vn 4.150538E-06 -0.525558 -0.8507578
vn -0.7364469 0.5258343 -0.4256104
vn 0.7364469 -0.5258343 0.4256104
vn 0.4045613 0.780371 0.4768138
vn 0.5416203 0.7351164 0.4077394
vn 0.7364509 0.5258343 -0.4256036
vn -0.7364509 -0.5258343 0.4256036
vn 0.7364518 0.525822 0.4256171
vn -0.7364518 -0.525822 -0.4256171
vn -0.7364509 0.5258343 0.4256036
vn 0.7364509 -0.5258343 -0.4256036
vn 0.7093014 0.6406257 0.2940921

vt 0.96875 0.105
vt 0.96875 0.08541797
vt 0.96875 0.025
vt 0.96875 0.225
vt 0.96875 0.07059966

usemtl colormap

f 3/2/1 2/1/1 1/1/1
f 1/1/2 2/1/2 3/2/2
f 6/3/3 5/4/3 4/3/3
f 5/4/3 6/3/3 7/4/3
f 7/4/3 6/3/3 8/1/3
f 7/4/3 8/1/3 9/1/3
f 12/5/4 11/3/4 10/5/4
f 11/3/4 12/5/4 13/3/4
f 10/5/5 11/3/5 12/5/5
f 13/3/5 12/5/5 11/3/5
f 12/5/6 14/3/6 13/3/6
f 14/3/6 12/5/6 15/5/6
f 13/3/7 14/3/7 12/5/7
f 15/5/7 12/5/7 14/3/7
f 4/3/10 17/4/9 16/3/8
f 17/4/9 4/3/10 5/4/10
f 20/5/11 19/5/11 18/5/11
f 19/5/11 20/5/11 21/5/11
f 19/5/11 21/5/11 22/5/11
f 22/5/11 21/5/11 23/5/11
f 18/5/12 19/5/12 20/5/12
f 21/5/12 20/5/12 19/5/12
f 22/5/12 21/5/12 19/5/12
f 23/5/12 21/5/12 22/5/12
f 26/3/13 25/1/13 24/3/13
f 25/1/13 26/3/13 27/1/13
f 24/3/14 25/1/14 26/3/14
f 27/1/14 26/3/14 25/1/14
f 14/3/15 29/5/15 28/3/15
f 29/5/15 14/3/15 15/5/15
f 28/3/16 29/5/16 14/3/16
f 15/5/16 14/3/16 29/5/16
f 32/1/17 31/3/17 30/3/17
f 31/3/17 32/1/17 33/1/17
f 30/3/18 31/3/18 32/1/18
f 33/1/18 32/1/18 31/3/18
f 13/3/12 34/3/12 11/3/12
f 34/3/12 13/3/12 14/3/12
f 34/3/12 14/3/12 35/3/12
f 35/3/12 14/3/12 28/3/12
f 11/3/11 34/3/11 13/3/11
f 14/3/11 13/3/11 34/3/11
f 35/3/11 14/3/11 34/3/11
f 28/3/11 14/3/11 35/3/11
f 38/4/21 37/3/20 36/3/19
f 37/3/20 38/4/21 39/1/20
f 39/1/20 38/4/21 40/1/20
f 40/1/20 38/4/21 41/4/20
f 44/1/22 43/3/22 42/3/22
f 43/3/22 44/1/22 45/1/22
f 42/3/23 43/3/23 44/1/23
f 45/1/23 44/1/23 43/3/23
f 39/1/24 42/3/24 37/3/24
f 42/3/24 39/1/24 44/1/24
f 37/3/25 42/3/25 39/1/25
f 44/1/25 39/1/25 42/3/25
f 48/3/12 47/3/12 46/3/12
f 47/3/12 48/3/12 49/3/12
f 47/3/12 49/3/12 50/3/12
f 50/3/12 49/3/12 51/3/12
f 46/3/11 47/3/11 48/3/11
f 49/3/11 48/3/11 47/3/11
f 50/3/11 49/3/11 47/3/11
f 51/3/11 49/3/11 50/3/11
f 44/1/11 32/1/11 45/1/11
f 32/1/11 44/1/11 39/1/11
f 32/1/11 39/1/11 40/1/11
f 33/1/11 32/1/11 40/1/11
f 45/1/12 32/1/12 44/1/12
f 39/1/12 44/1/12 32/1/12
f 40/1/12 39/1/12 32/1/12
f 40/1/12 32/1/12 33/1/12
f 28/3/26 52/5/26 35/3/26
f 52/5/26 28/3/26 29/5/26
f 35/3/27 52/5/27 28/3/27
f 29/5/27 28/3/27 52/5/27
f 53/5/28 11/3/28 34/3/28
f 11/3/28 53/5/28 10/5/28
f 34/3/29 11/3/29 53/5/29
f 10/5/29 53/5/29 11/3/29
f 32/1/30 43/3/30 45/1/30
f 43/3/30 32/1/30 30/3/30
f 45/1/31 43/3/31 32/1/31
f 30/3/31 32/1/31 43/3/31
f 41/4/32 33/1/32 40/1/32
f 33/1/32 41/4/32 31/3/32
f 31/3/32 41/4/32 54/3/32
f 54/3/32 41/4/32 55/4/32
f 52/5/33 34/3/33 35/3/33
f 34/3/33 52/5/33 53/5/33
f 35/3/34 34/3/34 52/5/34
f 53/5/34 52/5/34 34/3/34
f 53/5/11 12/5/11 10/5/11
f 12/5/11 53/5/11 52/5/11
f 12/5/11 52/5/11 15/5/11
f 15/5/11 52/5/11 29/5/11
f 10/5/12 12/5/12 53/5/12
f 52/5/12 53/5/12 12/5/12
f 15/5/12 52/5/12 12/5/12
f 29/5/12 52/5/12 15/5/12
f 9/1/35 56/4/36 7/4/35
f 56/4/36 9/1/35 2/1/35
f 56/4/36 2/1/35 3/2/35
f 56/4/36 3/2/35 57/3/35
f 56/4/36 57/3/35 58/3/37
f 59/3/38 38/4/21 36/3/19
f 38/4/21 59/3/38 60/4/39
f 16/3/8 60/4/39 59/3/38
f 60/4/39 16/3/8 17/4/9
f 63/5/33 62/3/33 61/3/33
f 62/3/33 63/5/33 64/5/33
f 61/3/34 62/3/34 63/5/34
f 64/5/34 63/5/34 62/3/34
f 66/3/12 62/3/12 65/3/12
f 62/3/12 66/3/12 67/3/12
f 62/3/12 67/3/12 61/3/12
f 61/3/12 67/3/12 68/3/12
f 65/3/11 62/3/11 66/3/11
f 67/3/11 66/3/11 62/3/11
f 61/3/11 67/3/11 62/3/11
f 68/3/11 67/3/11 61/3/11
f 67/3/40 69/5/40 68/3/40
f 69/5/40 67/3/40 70/5/40
f 68/3/41 69/5/41 67/3/41
f 70/5/41 67/3/41 69/5/41
f 64/5/42 65/3/42 62/3/42
f 65/3/42 64/5/42 71/5/42
f 62/3/43 65/3/43 64/5/43
f 71/5/43 64/5/43 65/3/43
f 72/3/12 26/3/12 24/3/12
f 6/3/12 26/3/12 72/3/12
f 26/3/12 6/3/12 57/3/12
f 4/3/12 57/3/12 6/3/12
f 16/3/12 57/3/12 4/3/12
f 16/3/12 58/3/12 57/3/12
f 59/3/12 58/3/12 16/3/12
f 59/3/12 73/3/12 58/3/12
f 36/3/12 73/3/12 59/3/12
f 36/3/12 74/3/12 73/3/12
f 37/3/12 74/3/12 36/3/12
f 31/3/12 74/3/12 37/3/12
f 74/3/12 31/3/12 54/3/12
f 42/3/12 31/3/12 37/3/12
f 42/3/12 30/3/12 31/3/12
f 30/3/12 42/3/12 43/3/12
f 56/4/36 73/3/45 75/4/44
f 73/3/45 56/4/36 58/3/37
f 24/3/46 76/1/46 72/3/46
f 76/1/46 24/3/46 25/1/46
f 72/3/47 76/1/47 24/3/47
f 25/1/47 24/3/47 76/1/47
f 19/5/48 46/3/48 18/5/48
f 46/3/48 19/5/48 48/3/48
f 18/5/49 46/3/49 19/5/49
f 48/3/49 19/5/49 46/3/49
f 51/3/50 21/5/50 50/3/50
f 21/5/50 51/3/50 23/5/50
f 50/3/51 21/5/51 51/3/51
f 23/5/51 51/3/51 21/5/51
f 3/2/52 26/3/52 57/3/52
f 26/3/52 3/2/52 27/1/52
f 27/1/52 3/2/52 1/1/52
f 57/3/53 26/3/53 3/2/53
f 27/1/53 3/2/53 26/3/53
f 1/1/53 3/2/53 27/1/53
f 76/1/11 9/1/11 8/1/11
f 27/1/11 9/1/11 76/1/11
f 27/1/11 76/1/11 25/1/11
f 1/1/11 9/1/11 27/1/11
f 9/1/11 1/1/11 2/1/11
f 8/1/12 9/1/12 76/1/12
f 76/1/12 9/1/12 27/1/12
f 25/1/12 76/1/12 27/1/12
f 27/1/12 9/1/12 1/1/12
f 2/1/12 1/1/12 9/1/12
f 68/3/54 63/5/54 61/3/54
f 63/5/54 68/3/54 69/5/54
f 61/3/55 63/5/55 68/3/55
f 69/5/55 68/3/55 63/5/55
f 77/4/57 73/3/45 74/3/56
f 73/3/45 77/4/57 75/4/44
f 20/5/58 46/3/58 47/3/58
f 46/3/58 20/5/58 18/5/58
f 47/3/59 46/3/59 20/5/59
f 18/5/59 20/5/59 46/3/59
f 78/5/6 67/3/6 66/3/6
f 67/3/6 78/5/6 70/5/6
f 66/3/7 67/3/7 78/5/7
f 70/5/7 78/5/7 67/3/7
f 21/5/33 47/3/33 50/3/33
f 47/3/33 21/5/33 20/5/33
f 50/3/34 47/3/34 21/5/34
f 20/5/34 21/5/34 47/3/34
f 78/5/60 65/3/60 71/5/60
f 65/3/60 78/5/60 66/3/60
f 71/5/61 65/3/61 78/5/61
f 66/3/61 78/5/61 65/3/61
f 38/4/11 55/4/11 41/4/11
f 55/4/11 38/4/11 77/4/11
f 77/4/11 38/4/11 60/4/11
f 77/4/11 60/4/11 75/4/11
f 75/4/11 60/4/11 17/4/11
f 75/4/11 17/4/11 56/4/11
f 56/4/11 17/4/11 5/4/11
f 56/4/11 5/4/11 7/4/11
f 49/3/62 23/5/62 51/3/62
f 23/5/62 49/3/62 22/5/62
f 51/3/63 23/5/63 49/3/63
f 22/5/63 49/3/63 23/5/63
f 64/5/11 78/5/11 71/5/11
f 78/5/11 64/5/11 63/5/11
f 78/5/11 63/5/11 70/5/11
f 70/5/11 63/5/11 69/5/11
f 71/5/12 78/5/12 64/5/12
f 63/5/12 64/5/12 78/5/12
f 70/5/12 63/5/12 78/5/12
f 69/5/12 63/5/12 70/5/12
f 77/4/57 54/3/64 55/4/64
f 54/3/64 77/4/57 74/3/56
f 76/1/24 6/3/24 72/3/24
f 6/3/24 76/1/24 8/1/24
f 72/3/25 6/3/25 76/1/25
f 8/1/25 76/1/25 6/3/25
f 19/5/6 49/3/6 48/3/6
f 49/3/6 19/5/6 22/5/6
f 48/3/7 49/3/7 19/5/7
f 22/5/7 19/5/7 49/3/7

g grave




usemtl colormap

f 3/2/1 2/1/1 1/1/1
f 1/1/2 2/1/2 3/2/2
f 6/3/3 5/4/3 4/3/3
f 5/4/3 6/3/3 7/4/3
f 7/4/3 6/3/3 8/1/3
f 7/4/3 8/1/3 9/1/3
f 12/5/4 11/3/4 10/5/4
f 11/3/4 12/5/4 13/3/4
f 10/5/5 11/3/5 12/5/5
f 13/3/5 12/5/5 11/3/5
f 12/5/6 14/3/6 13/3/6
f 14/3/6 12/5/6 15/5/6
f 13/3/7 14/3/7 12/5/7
f 15/5/7 12/5/7 14/3/7
f 4/3/10 17/4/9 16/3/8
f 17/4/9 4/3/10 5/4/10
f 20/5/11 19/5/11 18/5/11
f 19/5/11 20/5/11 21/5/11
f 19/5/11 21/5/11 22/5/11
f 22/5/11 21/5/11 23/5/11
f 18/5/12 19/5/12 20/5/12
f 21/5/12 20/5/12 19/5/12
f 22/5/12 21/5/12 19/5/12
f 23/5/12 21/5/12 22/5/12
f 26/3/13 25/1/13 24/3/13
f 25/1/13 26/3/13 27/1/13
f 24/3/14 25/1/14 26/3/14
f 27/1/14 26/3/14 25/1/14
f 14/3/15 29/5/15 28/3/15
f 29/5/15 14/3/15 15/5/15
f 28/3/16 29/5/16 14/3/16
f 15/5/16 14/3/16 29/5/16
f 32/1/17 31/3/17 30/3/17
f 31/3/17 32/1/17 33/1/17
f 30/3/18 31/3/18 32/1/18
f 33/1/18 32/1/18 31/3/18
f 13/3/12 34/3/12 11/3/12
f 34/3/12 13/3/12 14/3/12
f 34/3/12 14/3/12 35/3/12
f 35/3/12 14/3/12 28/3/12
f 11/3/11 34/3/11 13/3/11
f 14/3/11 13/3/11 34/3/11
f 35/3/11 14/3/11 34/3/11
f 28/3/11 14/3/11 35/3/11
f 38/4/21 37/3/20 36/3/19
f 37/3/20 38/4/21 39/1/20
f 39/1/20 38/4/21 40/1/20
f 40/1/20 38/4/21 41/4/20
f 44/1/22 43/3/22 42/3/22
f 43/3/22 44/1/22 45/1/22
f 42/3/23 43/3/23 44/1/23
f 45/1/23 44/1/23 43/3/23
f 39/1/24 42/3/24 37/3/24
f 42/3/24 39/1/24 44/1/24
f 37/3/25 42/3/25 39/1/25
f 44/1/25 39/1/25 42/3/25
f 48/3/12 47/3/12 46/3/12
f 47/3/12 48/3/12 49/3/12
f 47/3/12 49/3/12 50/3/12
f 50/3/12 49/3/12 51/3/12
f 46/3/11 47/3/11 48/3/11
f 49/3/11 48/3/11 47/3/11
f 50/3/11 49/3/11 47/3/11
f 51/3/11 49/3/11 50/3/11
f 44/1/11 32/1/11 45/1/11
f 32/1/11 44/1/11 39/1/11
f 32/1/11 39/1/11 40/1/11
f 33/1/11 32/1/11 40/1/11
f 45/1/12 32/1/12 44/1/12
f 39/1/12 44/1/12 32/1/12
f 40/1/12 39/1/12 32/1/12
f 40/1/12 32/1/12 33/1/12
f 28/3/26 52/5/26 35/3/26
f 52/5/26 28/3/26 29/5/26
f 35/3/27 52/5/27 28/3/27
f 29/5/27 28/3/27 52/5/27
f 53/5/28 11/3/28 34/3/28
f 11/3/28 53/5/28 10/5/28
f 34/3/29 11/3/29 53/5/29
f 10/5/29 53/5/29 11/3/29
f 32/1/30 43/3/30 45/1/30
f 43/3/30 32/1/30 30/3/30
f 45/1/31 43/3/31 32/1/31
f 30/3/31 32/1/31 43/3/31
f 41/4/32 33/1/32 40/1/32
f 33/1/32 41/4/32 31/3/32
f 31/3/32 41/4/32 54/3/32
f 54/3/32 41/4/32 55/4/32
f 52/5/33 34/3/33 35/3/33
f 34/3/33 52/5/33 53/5/33
f 35/3/34 34/3/34 52/5/34
f 53/5/34 52/5/34 34/3/34
f 53/5/11 12/5/11 10/5/11
f 12/5/11 53/5/11 52/5/11
f 12/5/11 52/5/11 15/5/11
f 15/5/11 52/5/11 29/5/11
f 10/5/12 12/5/12 53/5/12
f 52/5/12 53/5/12 12/5/12
f 15/5/12 52/5/12 12/5/12
f 29/5/12 52/5/12 15/5/12
f 9/1/35 56/4/36 7/4/35
f 56/4/36 9/1/35 2/1/35
f 56/4/36 2/1/35 3/2/35
f 56/4/36 3/2/35 57/3/35
f 56/4/36 57/3/35 58/3/37
f 59/3/38 38/4/21 36/3/19
f 38/4/21 59/3/38 60/4/39
f 16/3/8 60/4/39 59/3/38
f 60/4/39 16/3/8 17/4/9
f 63/5/33 62/3/33 61/3/33
f 62/3/33 63/5/33 64/5/33
f 61/3/34 62/3/34 63/5/34
f 64/5/34 63/5/34 62/3/34
f 66/3/12 62/3/12 65/3/12
f 62/3/12 66/3/12 67/3/12
f 62/3/12 67/3/12 61/3/12
f 61/3/12 67/3/12 68/3/12
f 65/3/11 62/3/11 66/3/11
f 67/3/11 66/3/11 62/3/11
f 61/3/11 67/3/11 62/3/11
f 68/3/11 67/3/11 61/3/11
f 67/3/40 69/5/40 68/3/40
f 69/5/40 67/3/40 70/5/40
f 68/3/41 69/5/41 67/3/41
f 70/5/41 67/3/41 69/5/41
f 64/5/42 65/3/42 62/3/42
f 65/3/42 64/5/42 71/5/42
f 62/3/43 65/3/43 64/5/43
f 71/5/43 64/5/43 65/3/43
f 72/3/12 26/3/12 24/3/12
f 6/3/12 26/3/12 72/3/12
f 26/3/12 6/3/12 57/3/12
f 4/3/12 57/3/12 6/3/12
f 16/3/12 57/3/12 4/3/12
f 16/3/12 58/3/12 57/3/12
f 59/3/12 58/3/12 16/3/12
f 59/3/12 73/3/12 58/3/12
f 36/3/12 73/3/12 59/3/12
f 36/3/12 74/3/12 73/3/12
f 37/3/12 74/3/12 36/3/12
f 31/3/12 74/3/12 37/3/12
f 74/3/12 31/3/12 54/3/12
f 42/3/12 31/3/12 37/3/12
f 42/3/12 30/3/12 31/3/12
f 30/3/12 42/3/12 43/3/12
f 56/4/36 73/3/45 75/4/44
f 73/3/45 56/4/36 58/3/37
f 24/3/46 76/1/46 72/3/46
f 76/1/46 24/3/46 25/1/46
f 72/3/47 76/1/47 24/3/47
f 25/1/47 24/3/47 76/1/47
f 19/5/48 46/3/48 18/5/48
f 46/3/48 19/5/48 48/3/48
f 18/5/49 46/3/49 19/5/49
f 48/3/49 19/5/49 46/3/49
f 51/3/50 21/5/50 50/3/50
f 21/5/50 51/3/50 23/5/50
f 50/3/51 21/5/51 51/3/51
f 23/5/51 51/3/51 21/5/51
f 3/2/52 26/3/52 57/3/52
f 26/3/52 3/2/52 27/1/52
f 27/1/52 3/2/52 1/1/52
f 57/3/53 26/3/53 3/2/53
f 27/1/53 3/2/53 26/3/53
f 1/1/53 3/2/53 27/1/53
f 76/1/11 9/1/11 8/1/11
f 27/1/11 9/1/11 76/1/11
f 27/1/11 76/1/11 25/1/11
f 1/1/11 9/1/11 27/1/11
f 9/1/11 1/1/11 2/1/11
f 8/1/12 9/1/12 76/1/12
f 76/1/12 9/1/12 27/1/12
f 25/1/12 76/1/12 27/1/12
f 27/1/12 9/1/12 1/1/12
f 2/1/12 1/1/12 9/1/12
f 68/3/54 63/5/54 61/3/54
f 63/5/54 68/3/54 69/5/54
f 61/3/55 63/5/55 68/3/55
f 69/5/55 68/3/55 63/5/55
f 77/4/57 73/3/45 74/3/56
f 73/3/45 77/4/57 75/4/44
f 20/5/58 46/3/58 47/3/58
f 46/3/58 20/5/58 18/5/58
f 47/3/59 46/3/59 20/5/59
f 18/5/59 20/5/59 46/3/59
f 78/5/6 67/3/6 66/3/6
f 67/3/6 78/5/6 70/5/6
f 66/3/7 67/3/7 78/5/7
f 70/5/7 78/5/7 67/3/7
f 21/5/33 47/3/33 50/3/33
f 47/3/33 21/5/33 20/5/33
f 50/3/34 47/3/34 21/5/34
f 20/5/34 21/5/34 47/3/34
f 78/5/60 65/3/60 71/5/60
f 65/3/60 78/5/60 66/3/60
f 71/5/61 65/3/61 78/5/61
f 66/3/61 78/5/61 65/3/61
f 38/4/11 55/4/11 41/4/11
f 55/4/11 38/4/11 77/4/11
f 77/4/11 38/4/11 60/4/11
f 77/4/11 60/4/11 75/4/11
f 75/4/11 60/4/11 17/4/11
f 75/4/11 17/4/11 56/4/11
f 56/4/11 17/4/11 5/4/11
f 56/4/11 5/4/11 7/4/11
f 49/3/62 23/5/62 51/3/62
f 23/5/62 49/3/62 22/5/62
f 51/3/63 23/5/63 49/3/63
f 22/5/63 49/3/63 23/5/63
f 64/5/11 78/5/11 71/5/11
f 78/5/11 64/5/11 63/5/11
f 78/5/11 63/5/11 70/5/11
f 70/5/11 63/5/11 69/5/11
f 71/5/12 78/5/12 64/5/12
f 63/5/12 64/5/12 78/5/12
f 70/5/12 63/5/12 78/5/12
f 69/5/12 63/5/12 70/5/12
f 77/4/57 54/3/64 55/4/64
f 54/3/64 77/4/57 74/3/56
f 76/1/24 6/3/24 72/3/24
f 6/3/24 76/1/24 8/1/24
f 72/3/25 6/3/25 76/1/25
f 8/1/25 76/1/25 6/3/25
f 19/5/6 49/3/6 48/3/6
f 49/3/6 19/5/6 22/5/6
f 48/3/7 49/3/7 19/5/7
f 22/5/7 19/5/7 49/3/7

