# Created by Kenney (www.kenney.nl)

mtllib gravestone-cross.mtl

g gravestone-cross

v -0.05123243 0.7422271 0 1 1 1
v -0.06179894 0.7527573 0 1 1 1
v -0.05123243 0.7860487 0 1 1 1
v -0.07568768 0.7762641 0 1 1 1
v -0.07880875 0.7860487 0 1 1 1
v 0.09173632 0.2542434 0.0614749 1 1 1
v 0.04586771 0.211333 0.0614749 1 1 1
v 0.07980998 0.2697059 0.03147472 1 1 1
v 0.03990499 0.2323731 0.03147472 1 1 1
v 0.06179894 0.9132729 -0.03073745 1 1 1
v 0.06179894 0.9132729 0 1 1 1
v 0.05123243 0.9238029 -0.03073745 1 1 1
v 0.05123243 0.9238029 0 1 1 1
v 0.220769 0 0.145632 1 1 1
v -0.220769 0 0.145632 1 1 1
v 0.220769 0.118326 0.145632 1 1 1
v -0.220769 0.118326 0.145632 1 1 1
v 0.07568768 0.7762641 -0.03073745 1 1 1
v 0.06179894 0.7527573 -0.03073745 1 1 1
v 0.07568768 0.7762641 0 1 1 1
v 0.06179894 0.7527573 0 1 1 1
v -0.07568768 0.889766 -0.03073745 1 1 1
v -0.06179894 0.9132729 -0.03073745 1 1 1
v -0.07568768 0.889766 0 1 1 1
v -0.06179894 0.9132729 0 1 1 1
v 0.07568768 0.889766 -0.03073745 1 1 1
v 0.07880875 0.8799813 -0.03073745 1 1 1
v 0.07568768 0.889766 0 1 1 1
v 0.07880875 0.8799813 0 1 1 1
v -0.03658549 0.5139909 0.03147472 1 1 1
v -0.07980998 0.2697059 0.03147472 1 1 1
v -0.04205215 0.535031 0.0614749 1 1 1
v -0.09173632 0.2542434 0.0614749 1 1 1
v -0.1803743 0.118326 -0.09317171 1 1 1
v 0.1803743 0.118326 -0.09317171 1 1 1
v -0.1803743 0.163836 -0.09317171 1 1 1
v 0.1803743 0.163836 -0.09317171 1 1 1
v 0.05123243 0.9543446 -0.03073745 1 1 1
v 0.05123243 0.9543446 0.03073745 1 1 1
v 0.05123243 0.8799813 0 1 1 1
v 0.05123243 0.8799813 0.03073745 1 1 1
v -0.04966415 0.211333 0.0614749 1 1 1
v -0.0432081 0.2323731 0.03147472 1 1 1
v -0.05123243 0.9543446 -0.03073745 1 1 1
v -0.05123243 0.9238029 -0.03073745 1 1 1
v -0.07880875 0.8799813 -0.03073745 1 1 1
v 0.1189795 0.8799813 -0.03073745 1 1 1
v -0.1189795 0.8799813 -0.03073745 1 1 1
v 0.1189795 0.7860487 -0.03073745 1 1 1
v 0.07880875 0.7860487 -0.03073745 1 1 1
v -0.07880875 0.7860487 -0.03073745 1 1 1
v -0.1189795 0.7860487 -0.03073745 1 1 1
v -0.07568768 0.7762641 -0.03073745 1 1 1
v -0.06179894 0.7527573 -0.03073745 1 1 1
v 0.05123243 0.7422271 -0.03073745 1 1 1
v -0.05123243 0.7422271 -0.03073745 1 1 1
v 0.05123243 0.582528 -0.03073745 1 1 1
v -0.05123243 0.582528 -0.03073745 1 1 1
v -0.05123243 0.9543446 0.03073745 1 1 1
v 0.08188341 0.582528 -0.0614749 1 1 1
v 0.1559682 0.163836 -0.0614749 1 1 1
v 0.08188341 0.582528 0.0614749 1 1 1
v 0.1559682 0.163836 0.0614749 1 1 1
v -0.220769 0 -0.145632 1 1 1
v 0.220769 0 -0.145632 1 1 1
v -0.220769 0.118326 -0.145632 1 1 1
v 0.220769 0.118326 -0.145632 1 1 1
v 0.1803743 0.163836 0.09317171 1 1 1
v 0.1803743 0.118326 0.09317171 1 1 1
v -0.05123243 0.8799813 0.03073745 1 1 1
v -0.1189795 0.8799813 0.03073745 1 1 1
v 0.1189795 0.8799813 0.03073745 1 1 1
v -0.1189795 0.7860487 0.03073745 1 1 1
v -0.05123243 0.7860487 0.03073745 1 1 1
v 0.05123243 0.7860487 0.03073745 1 1 1
v 0.1189795 0.7860487 0.03073745 1 1 1
v -0.05123243 0.582528 0.03073745 1 1 1
v 0.05123243 0.582528 0.03073745 1 1 1
v -0.1803743 0.118326 0.09317171 1 1 1
v -0.1803743 0.163836 0.09317171 1 1 1
v 0.07880875 0.7860487 0 1 1 1
v -0.05123243 0.9238029 0 1 1 1
v 0.04205215 0.535031 0.0614749 1 1 1
v 0.03658549 0.5139909 0.03147472 1 1 1
v 0.05123243 0.7860487 0 1 1 1
v 0.05123243 0.7422271 0 1 1 1
v -0.07880875 0.8799813 0 1 1 1
v -0.05123243 0.8799813 0 1 1 1
v -0.1559682 0.163836 -0.0614749 1 1 1
v -0.08188341 0.582528 -0.0614749 1 1 1
v -0.1559682 0.163836 0.0614749 1 1 1
v -0.08188341 0.582528 0.0614749 1 1 1

vn 0 0 1
vn -0.573336 0.6128511 0.5437822
vn -0.2885316 0.7559924 0.5875585
vn -0.3104166 0.7481664 0.5864202
vn 0.7897531 0.6134249 0
vn 0.7058854 0.708326 0
vn 0.9125927 -0.4088697 0
vn 0.7897531 -0.6134249 0
vn -0.9125927 0.4088697 0
vn -0.7897531 0.6134249 0
vn 0.9125927 0.4088697 0
vn 0.9527067 0.3038913 0
vn 0.9427471 -0.166814 0.2887924
vn 0 0 -1
vn 1 0 0
vn 0.3036874 0.7480932 0.5900259
vn 0.3267533 0.7392804 0.5888096
vn 0 1 0
vn -0.9125927 -0.4088697 0
vn -0.9527067 -0.3038913 0
vn 0.9847038 0.1742369 0
vn -1 0 0
vn 0.9527067 -0.3038913 0
vn -0.7058854 0.708326 0
vn 0 -1 0
vn 0 -0.8187181 0.5741956
vn -0.7058854 -0.708326 0
vn -0.7897531 -0.6134249 0
vn -0.9527067 0.3038913 0
vn -0.9847038 0.1742369 0
vn 0.6001477 0.5884125 0.5418428
vn -0.9427471 -0.166814 0.2887924
vn 0.7058854 -0.708326 0

vt 0.71875 0.180547
vt 0.71875 0.1827537
vt 0.71875 0.1897306
vt 0.71875 0.18768
vt 0.71875 0.07828126
vt 0.71875 0.0692886
vt 0.71875 0.0815217
vt 0.71875 0.07369795
vt 0.71875 0.2163927
vt 0.71875 0.2185994
vt 0.71875 0.025
vt 0.71875 0.04979733
vt 0.71875 0.2114664
vt 0.71875 0.2094159
vt 0.71875 0.132716
vt 0.71875 0.1371253
vt 0.71875 0.05933477
vt 0.71875 0.225
vt 0.71875 0.1470792
vt 0.09375 0.07369795
vt 0.09375 0.0815217
vt 0.09375 0.132716

usemtl colormap

f 3/3/1 2/2/1 1/1/1
f 2/2/1 3/3/1 4/4/1
f 4/4/1 3/3/1 5/3/1
f 8/7/2 7/6/3 6/5/2
f 7/6/3 8/7/2 9/8/4
f 12/10/6 11/9/5 10/9/5
f 11/9/5 12/10/6 13/10/6
f 16/12/1 15/11/1 14/11/1
f 15/11/1 16/12/1 17/12/1
f 20/4/7 19/2/8 18/4/7
f 19/2/8 20/4/7 21/2/8
f 24/13/9 23/9/10 22/13/9
f 23/9/10 24/13/9 25/9/10
f 28/13/11 27/14/12 26/13/11
f 27/14/12 28/13/11 29/14/12
f 32/16/13 31/7/13 30/15/13
f 31/7/13 32/16/13 33/5/13
f 36/17/14 35/12/14 34/12/14
f 35/12/14 36/17/14 37/17/14
f 39/18/15 12/10/15 38/18/15
f 12/10/15 39/18/15 13/10/15
f 13/10/15 39/18/15 40/14/15
f 40/14/15 39/18/15 41/14/15
f 9/8/4 42/6/16 7/6/3
f 42/6/16 9/8/4 43/8/17
f 12/10/14 44/18/14 38/18/14
f 12/10/14 45/10/14 44/18/14
f 10/9/14 45/10/14 12/10/14
f 10/9/14 23/9/14 45/10/14
f 26/13/14 23/9/14 10/9/14
f 26/13/14 22/13/14 23/9/14
f 27/14/14 22/13/14 26/13/14
f 22/13/14 27/14/14 46/14/14
f 47/14/14 46/14/14 27/14/14
f 47/14/14 48/14/14 46/14/14
f 49/3/14 48/14/14 47/14/14
f 50/3/14 48/14/14 49/3/14
f 51/3/14 48/14/14 50/3/14
f 48/14/14 51/3/14 52/3/14
f 18/4/14 51/3/14 50/3/14
f 18/4/14 53/4/14 51/3/14
f 19/2/14 53/4/14 18/4/14
f 19/2/14 54/2/14 53/4/14
f 55/1/14 54/2/14 19/2/14
f 55/1/14 56/1/14 54/2/14
f 57/19/14 56/1/14 55/1/14
f 56/1/14 57/19/14 58/19/14
f 44/18/18 39/18/18 38/18/18
f 39/18/18 44/18/18 59/18/18
f 4/4/19 51/3/20 53/4/19
f 51/3/20 4/4/19 5/3/20
f 62/19/21 61/17/21 60/19/21
f 61/17/21 62/19/21 63/17/21
f 66/12/14 65/11/14 64/11/14
f 65/11/14 66/12/14 67/12/14
f 68/17/15 35/12/15 37/17/15
f 35/12/15 68/17/15 69/12/15
f 70/14/1 39/18/1 59/18/1
f 39/18/1 70/14/1 41/14/1
f 71/14/1 41/14/1 70/14/1
f 71/14/1 72/14/1 41/14/1
f 73/3/1 72/14/1 71/14/1
f 74/3/1 72/14/1 73/3/1
f 75/3/1 72/14/1 74/3/1
f 72/14/1 75/3/1 76/3/1
f 77/19/1 75/3/1 74/3/1
f 75/3/1 77/19/1 78/19/1
f 79/12/22 36/17/22 34/12/22
f 36/17/22 79/12/22 80/17/22
f 81/3/23 18/4/7 50/3/23
f 18/4/7 81/3/23 20/4/7
f 23/9/10 82/10/24 45/10/24
f 82/10/24 23/9/10 25/9/10
f 73/3/25 3/3/25 74/3/25
f 3/3/25 73/3/25 5/3/25
f 5/3/25 73/3/25 51/3/25
f 51/3/25 73/3/25 52/3/25
f 77/19/22 56/1/22 58/19/22
f 56/1/22 77/19/22 1/1/22
f 1/1/22 77/19/22 3/3/22
f 3/3/22 77/19/22 74/3/22
f 16/12/15 65/11/15 67/12/15
f 65/11/15 16/12/15 14/11/15
f 32/16/26 84/15/26 83/16/26
f 84/15/26 32/16/26 30/15/26
f 2/2/28 56/1/27 1/1/27
f 56/1/27 2/2/28 54/2/28
f 75/3/25 49/3/25 76/3/25
f 49/3/25 75/3/25 81/3/25
f 81/3/25 75/3/25 85/3/25
f 50/3/25 49/3/25 81/3/25
f 72/14/15 49/3/15 47/14/15
f 49/3/15 72/14/15 76/3/15
f 15/11/22 66/12/22 64/11/22
f 66/12/22 15/11/22 17/12/22
f 75/3/15 86/1/15 85/3/15
f 78/19/15 86/1/15 75/3/15
f 57/19/15 86/1/15 78/19/15
f 86/1/15 57/19/15 55/1/15
f 27/14/18 72/14/18 47/14/18
f 72/14/18 27/14/18 29/14/18
f 72/14/18 29/14/18 41/14/18
f 41/14/18 29/14/18 40/14/18
f 48/14/18 87/14/18 46/14/18
f 71/14/18 87/14/18 48/14/18
f 70/14/18 87/14/18 71/14/18
f 87/14/18 70/14/18 88/14/18
f 2/2/28 53/4/19 54/2/28
f 53/4/19 2/2/28 4/4/19
f 15/11/25 65/11/25 14/11/25
f 65/11/25 15/11/25 64/11/25
f 28/13/1 40/14/1 29/14/1
f 40/14/1 28/13/1 13/10/1
f 13/10/1 28/13/1 11/9/1
f 87/14/29 22/13/9 46/14/29
f 22/13/9 87/14/29 24/13/9
f 91/17/30 90/19/30 89/17/30
f 90/19/30 91/17/30 92/19/30
f 68/17/1 79/12/1 69/12/1
f 79/12/1 68/17/1 80/17/1
f 21/2/1 85/3/1 86/1/1
f 85/3/1 21/2/1 20/4/1
f 85/3/1 20/4/1 81/3/1
f 70/14/22 82/10/22 88/14/22
f 59/18/22 82/10/22 70/14/22
f 44/18/22 82/10/22 59/18/22
f 82/10/22 44/18/22 45/10/22
f 73/3/22 48/14/22 52/3/22
f 48/14/22 73/3/22 71/14/22
f 33/5/31 43/8/17 31/7/31
f 43/8/17 33/5/31 42/6/16
f 6/5/32 84/15/32 8/7/32
f 84/15/32 6/5/32 83/16/32
f 11/9/5 26/13/11 10/9/5
f 26/13/11 11/9/5 28/13/11
f 86/1/33 19/2/8 21/2/8
f 19/2/8 86/1/33 55/1/33
f 82/10/1 87/14/1 88/14/1
f 87/14/1 82/10/1 24/13/1
f 24/13/1 82/10/1 25/9/1
f 90/19/14 61/17/14 89/17/14
f 61/17/14 90/19/14 60/19/14
f 35/12/18 66/12/18 34/12/18
f 34/12/18 66/12/18 79/12/18
f 35/12/18 67/12/18 66/12/18
f 17/12/18 79/12/18 66/12/18
f 67/12/18 35/12/18 16/12/18
f 17/12/18 69/12/18 79/12/18
f 16/12/18 69/12/18 17/12/18
f 69/12/18 16/12/18 35/12/18
f 57/19/18 90/19/18 58/19/18
f 58/19/18 90/19/18 77/19/18
f 57/19/18 60/19/18 90/19/18
f 92/19/18 77/19/18 90/19/18
f 60/19/18 57/19/18 62/19/18
f 92/19/18 78/19/18 77/19/18
f 62/19/18 78/19/18 92/19/18
f 78/19/18 62/19/18 57/19/18
f 37/17/18 61/17/18 68/17/18
f 61/17/18 37/17/18 36/17/18
f 63/17/18 68/17/18 61/17/18
f 61/17/18 36/17/18 89/17/18
f 68/17/18 63/17/18 80/17/18
f 89/17/18 36/17/18 91/17/18
f 80/17/18 63/17/18 91/17/18
f 80/17/18 91/17/18 36/17/18
f 33/5/1 91/17/1 42/6/1
f 42/6/1 91/17/1 7/6/1
f 91/17/1 33/5/1 92/19/1
f 63/17/1 7/6/1 91/17/1
f 92/19/1 33/5/1 32/16/1
f 7/6/1 63/17/1 6/5/1
f 92/19/1 32/16/1 62/19/1
f 6/5/1 63/17/1 62/19/1
f 83/16/1 62/19/1 32/16/1
f 6/5/1 62/19/1 83/16/1
f 8/21/1 43/20/1 9/20/1
f 43/20/1 8/21/1 31/21/1
f 31/21/1 8/21/1 84/22/1
f 31/21/1 84/22/1 30/22/1

g gravestone-cross




usemtl colormap

f 3/3/1 2/2/1 1/1/1
f 2/2/1 3/3/1 4/4/1
f 4/4/1 3/3/1 5/3/1
f 8/7/2 7/6/3 6/5/2
f 7/6/3 8/7/2 9/8/4
f 12/10/6 11/9/5 10/9/5
f 11/9/5 12/10/6 13/10/6
f 16/12/1 15/11/1 14/11/1
f 15/11/1 16/12/1 17/12/1
f 20/4/7 19/2/8 18/4/7
f 19/2/8 20/4/7 21/2/8
f 24/13/9 23/9/10 22/13/9
f 23/9/10 24/13/9 25/9/10
f 28/13/11 27/14/12 26/13/11
f 27/14/12 28/13/11 29/14/12
f 32/16/13 31/7/13 30/15/13
f 31/7/13 32/16/13 33/5/13
f 36/17/14 35/12/14 34/12/14
f 35/12/14 36/17/14 37/17/14
f 39/18/15 12/10/15 38/18/15
f 12/10/15 39/18/15 13/10/15
f 13/10/15 39/18/15 40/14/15
f 40/14/15 39/18/15 41/14/15
f 9/8/4 42/6/16 7/6/3
f 42/6/16 9/8/4 43/8/17
f 12/10/14 44/18/14 38/18/14
f 12/10/14 45/10/14 44/18/14
f 10/9/14 45/10/14 12/10/14
f 10/9/14 23/9/14 45/10/14
f 26/13/14 23/9/14 10/9/14
f 26/13/14 22/13/14 23/9/14
f 27/14/14 22/13/14 26/13/14
f 22/13/14 27/14/14 46/14/14
f 47/14/14 46/14/14 27/14/14
f 47/14/14 48/14/14 46/14/14
f 49/3/14 48/14/14 47/14/14
f 50/3/14 48/14/14 49/3/14
f 51/3/14 48/14/14 50/3/14
f 48/14/14 51/3/14 52/3/14
f 18/4/14 51/3/14 50/3/14
f 18/4/14 53/4/14 51/3/14
f 19/2/14 53/4/14 18/4/14
f 19/2/14 54/2/14 53/4/14
f 55/1/14 54/2/14 19/2/14
f 55/1/14 56/1/14 54/2/14
f 57/19/14 56/1/14 55/1/14
f 56/1/14 57/19/14 58/19/14
f 44/18/18 39/18/18 38/18/18
f 39/18/18 44/18/18 59/18/18
f 4/4/19 51/3/20 53/4/19
f 51/3/20 4/4/19 5/3/20
f 62/19/21 61/17/21 60/19/21
f 61/17/21 62/19/21 63/17/21
f 66/12/14 65/11/14 64/11/14
f 65/11/14 66/12/14 67/12/14
f 68/17/15 35/12/15 37/17/15
f 35/12/15 68/17/15 69/12/15
f 70/14/1 39/18/1 59/18/1
f 39/18/1 70/14/1 41/14/1
f 71/14/1 41/14/1 70/14/1
f 71/14/1 72/14/1 41/14/1
f 73/3/1 72/14/1 71/14/1
f 74/3/1 72/14/1 73/3/1
f 75/3/1 72/14/1 74/3/1
f 72/14/1 75/3/1 76/3/1
f 77/19/1 75/3/1 74/3/1
f 75/3/1 77/19/1 78/19/1
f 79/12/22 36/17/22 34/12/22
f 36/17/22 79/12/22 80/17/22
f 81/3/23 18/4/7 50/3/23
f 18/4/7 81/3/23 20/4/7
f 23/9/10 82/10/24 45/10/24
f 82/10/24 23/9/10 25/9/10
f 73/3/25 3/3/25 74/3/25
f 3/3/25 73/3/25 5/3/25
f 5/3/25 73/3/25 51/3/25
f 51/3/25 73/3/25 52/3/25
f 77/19/22 56/1/22 58/19/22
f 56/1/22 77/19/22 1/1/22
f 1/1/22 77/19/22 3/3/22
f 3/3/22 77/19/22 74/3/22
f 16/12/15 65/11/15 67/12/15
f 65/11/15 16/12/15 14/11/15
f 32/16/26 84/15/26 83/16/26
f 84/15/26 32/16/26 30/15/26
f 2/2/28 56/1/27 1/1/27
f 56/1/27 2/2/28 54/2/28
f 75/3/25 49/3/25 76/3/25
f 49/3/25 75/3/25 81/3/25
f 81/3/25 75/3/25 85/3/25
f 50/3/25 49/3/25 81/3/25
f 72/14/15 49/3/15 47/14/15
f 49/3/15 72/14/15 76/3/15
f 15/11/22 66/12/22 64/11/22
f 66/12/22 15/11/22 17/12/22
f 75/3/15 86/1/15 85/3/15
f 78/19/15 86/1/15 75/3/15
f 57/19/15 86/1/15 78/19/15
f 86/1/15 57/19/15 55/1/15
f 27/14/18 72/14/18 47/14/18
f 72/14/18 27/14/18 29/14/18
f 72/14/18 29/14/18 41/14/18
f 41/14/18 29/14/18 40/14/18
f 48/14/18 87/14/18 46/14/18
f 71/14/18 87/14/18 48/14/18
f 70/14/18 87/14/18 71/14/18
f 87/14/18 70/14/18 88/14/18
f 2/2/28 53/4/19 54/2/28
f 53/4/19 2/2/28 4/4/19
f 15/11/25 65/11/25 14/11/25
f 65/11/25 15/11/25 64/11/25
f 28/13/1 40/14/1 29/14/1
f 40/14/1 28/13/1 13/10/1
f 13/10/1 28/13/1 11/9/1
f 87/14/29 22/13/9 46/14/29
f 22/13/9 87/14/29 24/13/9
f 91/17/30 90/19/30 89/17/30
f 90/19/30 91/17/30 92/19/30
f 68/17/1 79/12/1 69/12/1
f 79/12/1 68/17/1 80/17/1
f 21/2/1 85/3/1 86/1/1
f 85/3/1 21/2/1 20/4/1
f 85/3/1 20/4/1 81/3/1
f 70/14/22 82/10/22 88/14/22
f 59/18/22 82/10/22 70/14/22
f 44/18/22 82/10/22 59/18/22
f 82/10/22 44/18/22 45/10/22
f 73/3/22 48/14/22 52/3/22
f 48/14/22 73/3/22 71/14/22
f 33/5/31 43/8/17 31/7/31
f 43/8/17 33/5/31 42/6/16
f 6/5/32 84/15/32 8/7/32
f 84/15/32 6/5/32 83/16/32
f 11/9/5 26/13/11 10/9/5
f 26/13/11 11/9/5 28/13/11
f 86/1/33 19/2/8 21/2/8
f 19/2/8 86/1/33 55/1/33
f 82/10/1 87/14/1 88/14/1
f 87/14/1 82/10/1 24/13/1
f 24/13/1 82/10/1 25/9/1
f 90/19/14 61/17/14 89/17/14
f 61/17/14 90/19/14 60/19/14
f 35/12/18 66/12/18 34/12/18
f 34/12/18 66/12/18 79/12/18
f 35/12/18 67/12/18 66/12/18
f 17/12/18 79/12/18 66/12/18
f 67/12/18 35/12/18 16/12/18
f 17/12/18 69/12/18 79/12/18
f 16/12/18 69/12/18 17/12/18
f 69/12/18 16/12/18 35/12/18
f 57/19/18 90/19/18 58/19/18
f 58/19/18 90/19/18 77/19/18
f 57/19/18 60/19/18 90/19/18
f 92/19/18 77/19/18 90/19/18
f 60/19/18 57/19/18 62/19/18
f 92/19/18 78/19/18 77/19/18
f 62/19/18 78/19/18 92/19/18
f 78/19/18 62/19/18 57/19/18
f 37/17/18 61/17/18 68/17/18
f 61/17/18 37/17/18 36/17/18
f 63/17/18 68/17/18 61/17/18
f 61/17/18 36/17/18 89/17/18
f 68/17/18 63/17/18 80/17/18
f 89/17/18 36/17/18 91/17/18
f 80/17/18 63/17/18 91/17/18
f 80/17/18 91/17/18 36/17/18
f 33/5/1 91/17/1 42/6/1
f 42/6/1 91/17/1 7/6/1
f 91/17/1 33/5/1 92/19/1
f 63/17/1 7/6/1 91/17/1
f 92/19/1 33/5/1 32/16/1
f 7/6/1 63/17/1 6/5/1
f 92/19/1 32/16/1 62/19/1
f 6/5/1 63/17/1 62/19/1
f 83/16/1 62/19/1 32/16/1
f 6/5/1 62/19/1 83/16/1
f 8/21/1 43/20/1 9/20/1
f 43/20/1 8/21/1 31/21/1
f 31/21/1 8/21/1 84/22/1
f 31/21/1 84/22/1 30/22/1

