# Created by Kenney (www.kenney.nl)

mtllib gravestone-roof.mtl

g gravestone-roof

v -0.195 0 -0.07475 1 1 1
v 0.195 0 -0.07475 1 1 1
v -0.195 0.078 -0.07475 1 1 1
v 0.195 0.078 -0.07475 1 1 1
v 0.17355 0.4415 -0.066527 1 1 1
v 0.17355 0.117 -0.066527 1 1 1
v 0.17355 0.4415 0.066528 1 1 1
v 0.17355 0.117 0.066528 1 1 1
v -0.164873 0.469667 0.066528 1 1 1
v -0.164873 0.469667 -0.066527 1 1 1
v -0.195 0.495667 0.066528 1 1 1
v -0.195 0.495667 -0.066527 1 1 1
v -0.195 0.495667 -0.09975 1 1 1
v 7.219114E-16 0.547667 -0.09975 1 1 1
v -0.195 0.533 -0.09975 1 1 1
v 7.219114E-16 0.585 -0.09975 1 1 1
v 0.195 0.533 -0.09975 1 1 1
v 0.195 0.495667 -0.09975 1 1 1
v -0.17355 0.117 0.066528 1 1 1
v -0.17355 0.4415 0.066528 1 1 1
v 0.164873 0.469667 0.066528 1 1 1
v 0.195 0.495667 0.066528 1 1 1
v 7.219114E-16 0.547667 0.066528 1 1 1
v -0.195 0.533 0.09975 1 1 1
v -0.195 0.495667 0.09975 1 1 1
v 0.195 0.495667 -0.066527 1 1 1
v 0.164873 0.469667 -0.066527 1 1 1
v -0.17355 0.117 -0.066527 1 1 1
v -0.17355 0.4415 -0.066527 1 1 1
v 7.219114E-16 0.547667 -0.066527 1 1 1
v 0.195 0.533 0.09975 1 1 1
v 7.219114E-16 0.585 0.09975 1 1 1
v 0.195 0.078 0.07475 1 1 1
v -0.195 0.078 0.07475 1 1 1
v 0.195 0 0.07475 1 1 1
v -0.195 0 0.07475 1 1 1
v 0.195 0.495667 0.09975 1 1 1
v 7.219114E-16 0.547667 0.09975 1 1 1

vn 0 0 -1
vn 0 0.08436025 -0.9964353
vn 1 0 0
vn -0.6533496 -0.7570563 0
vn 0 0 1
vn -1 0 0
vn 0.6533496 -0.7570563 0
vn 0 0.2063102 -0.9784867
vn 0.2576627 0.9662349 0
vn -0.2576627 -0.9662349 0
vn 0 0.08435024 0.9964362
vn 0 0.2062861 0.9784918
vn -0.9723828 0.2333917 0
vn -0.8762159 0.4819188 0
vn -0.9723823 0.2333936 0
vn 0 -1 0
vn 0.9556814 0.2944029 0
vn 0.2576627 -0.9662349 0
vn -0.2576627 0.9662349 0
vn 0.9723828 0.2333917 0
vn 0.9723823 0.2333936 0
vn -0.9556814 0.2944029 0
vn 0.8762159 0.4819188 0

vt 0.71875 0.025
vt 0.71875 0.05166667
vt 0.71875 0.1759402
vt 0.71875 0.06500001
vt 0.71875 0.1855699
vt 0.71875 0.1944588
vt 0.71875 0.2122366
vt 0.71875 0.2072222
vt 0.71875 0.225

usemtl colormap

f 3/2/2 2/1/1 1/1/1
f 2/1/1 3/2/2 4/2/2
f 7/3/3 6/4/3 5/3/3
f 6/4/3 7/3/3 8/4/3
f 11/6/4 10/5/4 9/5/4
f 10/5/4 11/6/4 12/6/4
f 15/8/1 14/7/1 13/6/1
f 14/7/1 15/8/1 16/9/1
f 17/8/1 14/7/1 16/9/1
f 14/7/1 17/8/1 18/6/1
f 7/3/5 19/4/5 8/4/5
f 19/4/5 7/3/5 20/3/5
f 20/3/5 7/3/5 21/5/5
f 20/3/5 21/5/5 9/5/5
f 9/5/5 21/5/5 22/6/5
f 9/5/5 22/6/5 11/6/5
f 11/6/5 22/6/5 23/7/5
f 12/6/6 15/8/6 13/6/6
f 15/8/6 12/6/6 24/8/6
f 24/8/6 12/6/6 11/6/6
f 24/8/6 11/6/6 25/6/6
f 21/5/7 26/6/7 22/6/7
f 26/6/7 21/5/7 27/5/7
f 28/4/8 4/2/2 3/2/2
f 4/2/2 28/4/8 6/4/8
f 29/3/1 6/4/1 28/4/1
f 6/4/1 29/3/1 5/3/1
f 5/3/1 29/3/1 10/5/1
f 5/3/1 10/5/1 27/5/1
f 27/5/1 10/5/1 12/6/1
f 27/5/1 12/6/1 26/6/1
f 26/6/1 12/6/1 30/7/1
f 16/9/9 31/8/9 17/8/9
f 31/8/9 16/9/9 32/9/9
f 19/4/6 29/3/6 28/4/6
f 29/3/6 19/4/6 20/3/6
f 30/7/10 18/6/10 26/6/10
f 18/6/10 30/7/10 14/7/10
f 8/4/12 34/2/11 33/2/11
f 34/2/11 8/4/12 19/4/12
f 34/2/15 28/4/14 3/2/13
f 28/4/14 34/2/15 19/4/14
f 36/1/16 2/1/16 35/1/16
f 2/1/16 36/1/16 1/1/16
f 21/5/17 5/3/17 27/5/17
f 5/3/17 21/5/17 7/3/17
f 31/8/5 38/7/5 37/6/5
f 38/7/5 31/8/5 32/9/5
f 24/8/5 38/7/5 32/9/5
f 38/7/5 24/8/5 25/6/5
f 12/6/18 14/7/18 30/7/18
f 14/7/18 12/6/18 13/6/18
f 15/8/19 32/9/19 16/9/19
f 32/9/19 15/8/19 24/8/19
f 36/1/6 3/2/13 1/1/6
f 3/2/13 36/1/6 34/2/15
f 25/6/18 23/7/18 38/7/18
f 23/7/18 25/6/18 11/6/18
f 33/2/21 2/1/3 4/2/20
f 2/1/3 33/2/21 35/1/3
f 20/3/22 10/5/22 29/3/22
f 10/5/22 20/3/22 9/5/22
f 6/4/23 33/2/21 4/2/20
f 33/2/21 6/4/23 8/4/23
f 31/8/3 18/6/3 17/8/3
f 18/6/3 31/8/3 26/6/3
f 26/6/3 31/8/3 22/6/3
f 22/6/3 31/8/3 37/6/3
f 38/7/10 22/6/10 37/6/10
f 22/6/10 38/7/10 23/7/10
f 33/2/11 36/1/5 35/1/5
f 36/1/5 33/2/11 34/2/11

g gravestone-roof




usemtl colormap

f 3/2/2 2/1/1 1/1/1
f 2/1/1 3/2/2 4/2/2
f 7/3/3 6/4/3 5/3/3
f 6/4/3 7/3/3 8/4/3
f 11/6/4 10/5/4 9/5/4
f 10/5/4 11/6/4 12/6/4
f 15/8/1 14/7/1 13/6/1
f 14/7/1 15/8/1 16/9/1
f 17/8/1 14/7/1 16/9/1
f 14/7/1 17/8/1 18/6/1
f 7/3/5 19/4/5 8/4/5
f 19/4/5 7/3/5 20/3/5
f 20/3/5 7/3/5 21/5/5
f 20/3/5 21/5/5 9/5/5
f 9/5/5 21/5/5 22/6/5
f 9/5/5 22/6/5 11/6/5
f 11/6/5 22/6/5 23/7/5
f 12/6/6 15/8/6 13/6/6
f 15/8/6 12/6/6 24/8/6
f 24/8/6 12/6/6 11/6/6
f 24/8/6 11/6/6 25/6/6
f 21/5/7 26/6/7 22/6/7
f 26/6/7 21/5/7 27/5/7
f 28/4/8 4/2/2 3/2/2
f 4/2/2 28/4/8 6/4/8
f 29/3/1 6/4/1 28/4/1
f 6/4/1 29/3/1 5/3/1
f 5/3/1 29/3/1 10/5/1
f 5/3/1 10/5/1 27/5/1
f 27/5/1 10/5/1 12/6/1
f 27/5/1 12/6/1 26/6/1
f 26/6/1 12/6/1 30/7/1
f 16/9/9 31/8/9 17/8/9
f 31/8/9 16/9/9 32/9/9
f 19/4/6 29/3/6 28/4/6
f 29/3/6 19/4/6 20/3/6
f 30/7/10 18/6/10 26/6/10
f 18/6/10 30/7/10 14/7/10
f 8/4/12 34/2/11 33/2/11
f 34/2/11 8/4/12 19/4/12
f 34/2/15 28/4/14 3/2/13
f 28/4/14 34/2/15 19/4/14
f 36/1/16 2/1/16 35/1/16
f 2/1/16 36/1/16 1/1/16
f 21/5/17 5/3/17 27/5/17
f 5/3/17 21/5/17 7/3/17
f 31/8/5 38/7/5 37/6/5
f 38/7/5 31/8/5 32/9/5
f 24/8/5 38/7/5 32/9/5
f 38/7/5 24/8/5 25/6/5
f 12/6/18 14/7/18 30/7/18
f 14/7/18 12/6/18 13/6/18
f 15/8/19 32/9/19 16/9/19
f 32/9/19 15/8/19 24/8/19
f 36/1/6 3/2/13 1/1/6
f 3/2/13 36/1/6 34/2/15
f 25/6/18 23/7/18 38/7/18
f 23/7/18 25/6/18 11/6/18
f 33/2/21 2/1/3 4/2/20
f 2/1/3 33/2/21 35/1/3
f 20/3/22 10/5/22 29/3/22
f 10/5/22 20/3/22 9/5/22
f 6/4/23 33/2/21 4/2/20
f 33/2/21 6/4/23 8/4/23
f 31/8/3 18/6/3 17/8/3
f 18/6/3 31/8/3 26/6/3
f 26/6/3 31/8/3 22/6/3
f 22/6/3 31/8/3 37/6/3
f 38/7/10 22/6/10 37/6/10
f 22/6/10 38/7/10 23/7/10
f 33/2/11 36/1/5 35/1/5
f 36/1/5 33/2/11 34/2/11

