# Created by Kenney (www.kenney.nl)

mtllib gravestone-round.mtl

g gravestone-round

v -0.086775 0.561749 -0.07475 1 1 1
v -0.086775 0.561749 0.07475 1 1 1
v -0.122718 0.5341679 -0.07475 1 1 1
v -0.122718 0.5341679 0.07475 1 1 1
v -0.150299 0.498225 -0.07475 1 1 1
v -0.150299 0.498225 0.07475 1 1 1
v -0.17355 0.41145 -0.07475 1 1 1
v -0.167636 0.456368 -0.07475 1 1 1
v -0.17355 0.41145 0.07475 1 1 1
v -0.167636 0.456368 0.07475 1 1 1
v -0.057685 0.511363 0.07475 1 1 1
v -0.057685 0.511363 0.036528 1 1 1
v -0.081578 0.493028 0.07475 1 1 1
v -0.081578 0.493028 0.036528 1 1 1
v 0.115867 0.407669 0.036528 1 1 1
v 0.111438 0.44131 0.036528 1 1 1
v 0.115867 0.407669 0.07475 1 1 1
v 0.111438 0.44131 0.07475 1 1 1
v 0.099913 0.469135 0.036528 1 1 1
v 0.081578 0.493028 0.036528 1 1 1
v 0.099913 0.469135 0.07475 1 1 1
v 0.081578 0.493028 0.07475 1 1 1
v -0.111438 0.44131 0.036528 1 1 1
v -0.115867 0.407669 0.036528 1 1 1
v -0.111438 0.44131 0.07475 1 1 1
v -0.115867 0.407669 0.07475 1 1 1
v -0.099913 0.469135 0.036528 1 1 1
v -0.099913 0.469135 0.07475 1 1 1
v -0.02986 0.522888 0.07475 1 1 1
v -0.02986 0.522888 0.036528 1 1 1
v -0.115867 0.345753 0.036528 1 1 1
v -0.115867 0.345753 0.066528 1 1 1
v -0.115867 0.345753 0.07475 1 1 1
v -0.115867 0.117 0.066528 1 1 1
v -0.115867 0 0.07475 1 1 1
v -0.115867 0.078 0.07475 1 1 1
v -0.115867 0 0.016528 1 1 1
v -0.115867 0.345753 0.016528 1 1 1
v 0.057685 0.511363 0.07475 1 1 1
v 0.057685 0.511363 0.036528 1 1 1
v 0 0.526819 0.07475 1 1 1
v 0 0.526819 0.036528 1 1 1
v -0.17355 0.117 0.066528 1 1 1
v -0.17355 0.345753 0.066528 1 1 1
v 0.115867 0.345753 0.07475 1 1 1
v 0.115867 0.345753 0.066528 1 1 1
v 0.115867 0.117 0.066528 1 1 1
v 0.115867 0 0.07475 1 1 1
v 0.115867 0.078 0.07475 1 1 1
v 0.115867 0.345753 0.036528 1 1 1
v 0.115867 0.345753 0.016528 1 1 1
v 0.115867 0 0.016528 1 1 1
v -0.195 0 0.07475 1 1 1
v -0.195 0.078 0.07475 1 1 1
v 0.02986 0.522888 0.07475 1 1 1
v 0.02986 0.522888 0.036528 1 1 1
v 0.195 0.078 0.07475 1 1 1
v 0.17355 0.117 0.066528 1 1 1
v 0.195 0.41145 -0.07475 1 1 1
v 0.195 0.345753 -0.07475 1 1 1
v 0.195 0.41145 0.07475 1 1 1
v 0.195 0.345753 0.07475 1 1 1
v 0.17355 0.41145 -0.07475 1 1 1
v 0.17355 0.41145 0.07475 1 1 1
v -0.195 0.345753 -0.07475 1 1 1
v -0.195 0.41145 -0.07475 1 1 1
v -0.195 0.345753 0.07475 1 1 1
v -0.195 0.41145 0.07475 1 1 1
v 0.17355 0.345753 0.066528 1 1 1
v 0.167636 0.456368 0.07475 1 1 1
v 0.150299 0.498225 0.07475 1 1 1
v 0.122718 0.5341679 0.07475 1 1 1
v 0.086775 0.561749 0.07475 1 1 1
v 0.044918 0.579086 0.07475 1 1 1
v -0.044918 0.579086 0.07475 1 1 1
v 0 0.585 0.07475 1 1 1
v 0.17355 0.345753 -0.066527 1 1 1
v -0.17355 0.345753 -0.066527 1 1 1
v 0.167636 0.456368 -0.07475 1 1 1
v 0.150299 0.498225 -0.07475 1 1 1
v 0.122718 0.5341679 -0.07475 1 1 1
v 0.086775 0.561749 -0.07475 1 1 1
v -0.044918 0.579086 -0.07475 1 1 1
v 0.044918 0.579086 -0.07475 1 1 1
v 0 0.585 -0.07475 1 1 1
v -0.17355 0.117 -0.066527 1 1 1
v 0.17355 0.117 -0.066527 1 1 1
v 0.195 0 0.07475 1 1 1
v -0.195 0 -0.07475 1 1 1
v -0.195 0.078 -0.07475 1 1 1
v 0.195 0.078 -0.07475 1 1 1
v 0.195 0 -0.07475 1 1 1
v 0.115867 0.345753 0.016528 1 1 1
v -0.115867 0.345753 0.016528 1 1 1
v 0.115867 0 0.016528 1 1 1
v -0.115867 0 0.016528 1 1 1

vn -0.5000008 0.8660249 0
vn -0.7071068 0.7071068 0
vn -0.8660249 0.5000008 0
vn -0.9914436 0.1305356 0
vn -0.9659265 0.2588164 0
vn 0.5000078 -0.8660209 0
vn 0.7071068 -0.7071068 0
vn -0.9914445 -0.1305285 0
vn -0.9659275 -0.2588128 0
vn -0.8660209 -0.5000078 0
vn -0.7071068 -0.7071068 0
vn 0.9659275 -0.2588128 0
vn 0.9914445 -0.1305285 0
vn 0.8660209 -0.5000078 0
vn 0.2588095 -0.9659284 0
vn 1 0 0
vn -0.5000078 -0.8660209 0
vn 0 -1 0
vn 0 0 1
vn -1 0 0
vn 0 0.1037022 0.9946084
vn 0 0.08435024 0.9964362
vn -0.2588095 -0.9659284 0
vn 0 0.2062861 0.9784918
vn 0 1 0
vn 0 0 -1
vn -0.9723828 0.2333917 0
vn -0.9723823 0.2333936 0
vn 0 0.08436025 -0.9964353
vn 0 0.2063102 -0.9784867
vn 0.9723828 0.2333917 0
vn 0.9723823 0.2333936 0
vn -0.8762159 0.4819188 0
vn 0.8762159 0.4819188 0
vn 0.8660249 0.5000008 0
vn 0.9659265 0.2588164 0
vn 0.9914436 0.1305356 0
vn 0.7071068 0.7071068 0
vn 0.5000008 0.8660249 0
vn 0.2588164 0.9659265 0
vn -0.2588164 0.9659265 0

vt 0.71875 0.2170509
vt 0.71875 0.2076215
vt 0.71875 0.1953333
vt 0.71875 0.1656667
vt 0.71875 0.1810232
vt 0.71875 0.199825
vt 0.71875 0.1935566
vt 0.71875 0.164374
vt 0.71875 0.1758752
vt 0.71875 0.185388
vt 0.71875 0.2037651
vt 0.71875 0.1432061
vt 0.71875 0.06500001
vt 0.71875 0.025
vt 0.71875 0.05166667
vt 0.71875 0.2051091
vt 0.71875 0.2229781
vt 0.71875 0.225
vt 0.71875 0.09063032
vt 0.71875 0.1023831
vt 0.71875 0.1087688
vt 0.71875 0.1140505
vt 0.71875 0.1185858
vt 0.71875 0.1220662
vt 0.71875 0.1242538
vt 0.71875 0.125

usemtl colormap

f 3/2/2 2/1/1 1/1/1
f 2/1/1 3/2/2 4/2/2
f 6/3/3 3/2/2 5/3/3
f 3/2/2 6/3/3 4/2/2
f 9/4/4 8/5/5 7/4/4
f 8/5/5 9/4/4 10/5/5
f 13/7/7 12/6/6 11/6/6
f 12/6/6 13/7/7 14/7/7
f 10/5/5 5/3/3 8/5/5
f 5/3/3 10/5/5 6/3/3
f 17/8/8 16/9/9 15/8/8
f 16/9/9 17/8/8 18/9/9
f 21/10/10 20/7/11 19/10/10
f 20/7/11 21/10/10 22/7/11
f 25/9/12 24/8/13 23/9/12
f 24/8/13 25/9/12 26/8/13
f 28/10/14 23/9/12 27/10/14
f 23/9/12 28/10/14 25/9/12
f 13/7/7 27/10/14 14/7/7
f 27/10/14 13/7/7 28/10/14
f 11/6/6 30/11/15 29/11/15
f 30/11/15 11/6/6 12/6/6
f 26/8/16 31/12/16 24/8/16
f 31/12/16 26/8/16 32/12/16
f 32/12/16 26/8/16 33/12/16
f 34/13/16 31/12/16 32/12/16
f 35/14/16 31/12/16 34/13/16
f 35/14/16 34/13/16 36/15/16
f 37/14/16 31/12/16 35/14/16
f 31/12/16 37/14/16 38/12/16
f 18/9/9 19/10/10 16/9/9
f 19/10/10 18/9/9 21/10/10
f 39/6/17 20/7/11 22/7/11
f 20/7/11 39/6/17 40/6/17
f 29/11/15 42/16/18 41/16/18
f 42/16/18 29/11/15 30/11/15
f 32/12/19 43/13/19 34/13/19
f 43/13/19 32/12/19 44/12/19
f 17/8/20 46/12/20 45/12/20
f 15/8/20 46/12/20 17/8/20
f 46/12/20 15/8/20 47/13/20
f 15/8/20 48/14/20 47/13/20
f 47/13/20 48/14/20 49/15/20
f 50/12/20 48/14/20 15/8/20
f 51/12/20 48/14/20 50/12/20
f 48/14/20 51/12/20 52/14/20
f 36/15/21 53/14/19 35/14/19
f 53/14/19 36/15/21 54/15/22
f 41/16/18 56/11/23 55/11/23
f 56/11/23 41/16/18 42/16/18
f 55/11/23 40/6/17 39/6/17
f 40/6/17 55/11/23 56/11/23
f 58/13/24 49/15/21 57/15/22
f 49/15/21 58/13/24 47/13/24
f 61/4/16 60/12/16 59/4/16
f 60/12/16 61/4/16 62/12/16
f 63/4/25 61/4/25 59/4/25
f 61/4/25 63/4/25 64/4/25
f 67/12/20 66/4/20 65/12/20
f 66/4/20 67/12/20 68/4/20
f 66/4/25 9/4/25 7/4/25
f 9/4/25 66/4/25 68/4/25
f 69/12/19 47/13/19 58/13/19
f 47/13/19 69/12/19 46/12/19
f 61/4/19 45/12/19 62/12/19
f 45/12/19 61/4/19 17/8/19
f 17/8/19 61/4/19 64/4/19
f 17/8/19 64/4/19 18/9/19
f 18/9/19 64/4/19 70/5/19
f 18/9/19 70/5/19 21/10/19
f 21/10/19 70/5/19 71/3/19
f 21/10/19 71/3/19 22/7/19
f 22/7/19 71/3/19 39/6/19
f 39/6/19 71/3/19 72/2/19
f 39/6/19 72/2/19 55/11/19
f 55/11/19 72/2/19 41/16/19
f 4/2/19 41/16/19 72/2/19
f 4/2/19 29/11/19 41/16/19
f 4/2/19 72/2/19 73/1/19
f 4/2/19 11/6/19 29/11/19
f 4/2/19 73/1/19 2/1/19
f 2/1/19 73/1/19 74/17/19
f 2/1/19 74/17/19 75/17/19
f 75/17/19 74/17/19 76/18/19
f 6/3/19 11/6/19 4/2/19
f 6/3/19 13/7/19 11/6/19
f 6/3/19 28/10/19 13/7/19
f 10/5/19 28/10/19 6/3/19
f 10/5/19 25/9/19 28/10/19
f 9/4/19 25/9/19 10/5/19
f 25/9/19 9/4/19 26/8/19
f 68/4/19 26/8/19 9/4/19
f 67/12/19 26/8/19 68/4/19
f 26/8/19 67/12/19 33/12/19
f 69/12/18 45/12/18 46/12/18
f 69/12/18 62/12/18 45/12/18
f 62/12/18 69/12/18 60/12/18
f 77/12/18 60/12/18 69/12/18
f 60/12/18 77/12/18 65/12/18
f 65/12/18 77/12/18 78/12/18
f 65/12/18 78/12/18 67/12/18
f 44/12/18 67/12/18 78/12/18
f 32/12/18 67/12/18 44/12/18
f 67/12/18 32/12/18 33/12/18
f 66/4/26 60/12/26 65/12/26
f 60/12/26 66/4/26 59/4/26
f 59/4/26 66/4/26 7/4/26
f 59/4/26 7/4/26 63/4/26
f 8/5/26 63/4/26 7/4/26
f 63/4/26 8/5/26 79/5/26
f 79/5/26 8/5/26 5/3/26
f 79/5/26 5/3/26 80/3/26
f 80/3/26 5/3/26 3/2/26
f 80/3/26 3/2/26 81/2/26
f 81/2/26 3/2/26 1/1/26
f 81/2/26 1/1/26 82/1/26
f 82/1/26 1/1/26 83/17/26
f 82/1/26 83/17/26 84/17/26
f 84/17/26 83/17/26 85/18/26
f 78/12/26 87/13/26 86/13/26
f 87/13/26 78/12/26 77/12/26
f 57/15/22 48/14/19 88/14/19
f 48/14/19 57/15/22 49/15/21
f 53/14/20 90/15/27 89/14/20
f 90/15/27 53/14/20 54/15/28
f 86/13/30 91/15/29 90/15/29
f 91/15/29 86/13/30 87/13/30
f 34/13/24 54/15/22 36/15/21
f 54/15/22 34/13/24 43/13/24
f 90/15/29 92/14/26 89/14/26
f 92/14/26 90/15/29 91/15/29
f 69/12/16 87/13/16 77/12/16
f 87/13/16 69/12/16 58/13/16
f 57/15/32 92/14/16 91/15/31
f 92/14/16 57/15/32 88/14/16
f 43/13/20 78/12/20 86/13/20
f 78/12/20 43/13/20 44/12/20
f 54/15/28 86/13/33 90/15/27
f 86/13/33 54/15/28 43/13/33
f 87/13/34 57/15/32 91/15/31
f 57/15/32 87/13/34 58/13/34
f 71/3/35 79/5/36 80/3/35
f 79/5/36 71/3/35 70/5/36
f 53/14/18 37/14/18 35/14/18
f 89/14/18 37/14/18 53/14/18
f 89/14/18 52/14/18 37/14/18
f 92/14/18 52/14/18 89/14/18
f 92/14/18 48/14/18 52/14/18
f 48/14/18 92/14/18 88/14/18
f 70/5/36 63/4/37 79/5/36
f 63/4/37 70/5/36 64/4/37
f 72/2/38 80/3/35 81/2/38
f 80/3/35 72/2/38 71/3/35
f 82/1/39 72/2/38 81/2/38
f 72/2/38 82/1/39 73/1/39
f 84/17/40 73/1/39 82/1/39
f 73/1/39 84/17/40 74/17/40
f 85/18/25 74/17/40 84/17/40
f 74/17/40 85/18/25 76/18/25
f 83/17/41 76/18/25 85/18/25
f 76/18/25 83/17/41 75/17/41
f 1/1/1 75/17/41 83/17/41
f 75/17/41 1/1/1 2/1/1
f 15/20/19 31/19/19 50/19/19
f 31/19/19 15/20/19 24/20/19
f 24/20/19 15/20/19 16/21/19
f 24/20/19 16/21/19 23/21/19
f 23/21/19 16/21/19 19/22/19
f 23/21/19 19/22/19 27/22/19
f 27/22/19 19/22/19 20/23/19
f 27/22/19 20/23/19 14/23/19
f 14/23/19 20/23/19 40/24/19
f 14/23/19 40/24/19 12/24/19
f 12/24/19 40/24/19 56/25/19
f 12/24/19 56/25/19 30/25/19
f 30/25/19 56/25/19 42/26/19
f 31/19/18 93/19/18 50/19/18
f 93/19/18 31/19/18 94/19/18
f 93/19/19 96/14/19 95/14/19
f 96/14/19 93/19/19 94/19/19

g gravestone-round




usemtl colormap

f 3/2/2 2/1/1 1/1/1
f 2/1/1 3/2/2 4/2/2
f 6/3/3 3/2/2 5/3/3
f 3/2/2 6/3/3 4/2/2
f 9/4/4 8/5/5 7/4/4
f 8/5/5 9/4/4 10/5/5
f 13/7/7 12/6/6 11/6/6
f 12/6/6 13/7/7 14/7/7
f 10/5/5 5/3/3 8/5/5
f 5/3/3 10/5/5 6/3/3
f 17/8/8 16/9/9 15/8/8
f 16/9/9 17/8/8 18/9/9
f 21/10/10 20/7/11 19/10/10
f 20/7/11 21/10/10 22/7/11
f 25/9/12 24/8/13 23/9/12
f 24/8/13 25/9/12 26/8/13
f 28/10/14 23/9/12 27/10/14
f 23/9/12 28/10/14 25/9/12
f 13/7/7 27/10/14 14/7/7
f 27/10/14 13/7/7 28/10/14
f 11/6/6 30/11/15 29/11/15
f 30/11/15 11/6/6 12/6/6
f 26/8/16 31/12/16 24/8/16
f 31/12/16 26/8/16 32/12/16
f 32/12/16 26/8/16 33/12/16
f 34/13/16 31/12/16 32/12/16
f 35/14/16 31/12/16 34/13/16
f 35/14/16 34/13/16 36/15/16
f 37/14/16 31/12/16 35/14/16
f 31/12/16 37/14/16 38/12/16
f 18/9/9 19/10/10 16/9/9
f 19/10/10 18/9/9 21/10/10
f 39/6/17 20/7/11 22/7/11
f 20/7/11 39/6/17 40/6/17
f 29/11/15 42/16/18 41/16/18
f 42/16/18 29/11/15 30/11/15
f 32/12/19 43/13/19 34/13/19
f 43/13/19 32/12/19 44/12/19
f 17/8/20 46/12/20 45/12/20
f 15/8/20 46/12/20 17/8/20
f 46/12/20 15/8/20 47/13/20
f 15/8/20 48/14/20 47/13/20
f 47/13/20 48/14/20 49/15/20
f 50/12/20 48/14/20 15/8/20
f 51/12/20 48/14/20 50/12/20
f 48/14/20 51/12/20 52/14/20
f 36/15/21 53/14/19 35/14/19
f 53/14/19 36/15/21 54/15/22
f 41/16/18 56/11/23 55/11/23
f 56/11/23 41/16/18 42/16/18
f 55/11/23 40/6/17 39/6/17
f 40/6/17 55/11/23 56/11/23
f 58/13/24 49/15/21 57/15/22
f 49/15/21 58/13/24 47/13/24
f 61/4/16 60/12/16 59/4/16
f 60/12/16 61/4/16 62/12/16
f 63/4/25 61/4/25 59/4/25
f 61/4/25 63/4/25 64/4/25
f 67/12/20 66/4/20 65/12/20
f 66/4/20 67/12/20 68/4/20
f 66/4/25 9/4/25 7/4/25
f 9/4/25 66/4/25 68/4/25
f 69/12/19 47/13/19 58/13/19
f 47/13/19 69/12/19 46/12/19
f 61/4/19 45/12/19 62/12/19
f 45/12/19 61/4/19 17/8/19
f 17/8/19 61/4/19 64/4/19
f 17/8/19 64/4/19 18/9/19
f 18/9/19 64/4/19 70/5/19
f 18/9/19 70/5/19 21/10/19
f 21/10/19 70/5/19 71/3/19
f 21/10/19 71/3/19 22/7/19
f 22/7/19 71/3/19 39/6/19
f 39/6/19 71/3/19 72/2/19
f 39/6/19 72/2/19 55/11/19
f 55/11/19 72/2/19 41/16/19
f 4/2/19 41/16/19 72/2/19
f 4/2/19 29/11/19 41/16/19
f 4/2/19 72/2/19 73/1/19
f 4/2/19 11/6/19 29/11/19
f 4/2/19 73/1/19 2/1/19
f 2/1/19 73/1/19 74/17/19
f 2/1/19 74/17/19 75/17/19
f 75/17/19 74/17/19 76/18/19
f 6/3/19 11/6/19 4/2/19
f 6/3/19 13/7/19 11/6/19
f 6/3/19 28/10/19 13/7/19
f 10/5/19 28/10/19 6/3/19
f 10/5/19 25/9/19 28/10/19
f 9/4/19 25/9/19 10/5/19
f 25/9/19 9/4/19 26/8/19
f 68/4/19 26/8/19 9/4/19
f 67/12/19 26/8/19 68/4/19
f 26/8/19 67/12/19 33/12/19
f 69/12/18 45/12/18 46/12/18
f 69/12/18 62/12/18 45/12/18
f 62/12/18 69/12/18 60/12/18
f 77/12/18 60/12/18 69/12/18
f 60/12/18 77/12/18 65/12/18
f 65/12/18 77/12/18 78/12/18
f 65/12/18 78/12/18 67/12/18
f 44/12/18 67/12/18 78/12/18
f 32/12/18 67/12/18 44/12/18
f 67/12/18 32/12/18 33/12/18
f 66/4/26 60/12/26 65/12/26
f 60/12/26 66/4/26 59/4/26
f 59/4/26 66/4/26 7/4/26
f 59/4/26 7/4/26 63/4/26
f 8/5/26 63/4/26 7/4/26
f 63/4/26 8/5/26 79/5/26
f 79/5/26 8/5/26 5/3/26
f 79/5/26 5/3/26 80/3/26
f 80/3/26 5/3/26 3/2/26
f 80/3/26 3/2/26 81/2/26
f 81/2/26 3/2/26 1/1/26
f 81/2/26 1/1/26 82/1/26
f 82/1/26 1/1/26 83/17/26
f 82/1/26 83/17/26 84/17/26
f 84/17/26 83/17/26 85/18/26
f 78/12/26 87/13/26 86/13/26
f 87/13/26 78/12/26 77/12/26
f 57/15/22 48/14/19 88/14/19
f 48/14/19 57/15/22 49/15/21
f 53/14/20 90/15/27 89/14/20
f 90/15/27 53/14/20 54/15/28
f 86/13/30 91/15/29 90/15/29
f 91/15/29 86/13/30 87/13/30
f 34/13/24 54/15/22 36/15/21
f 54/15/22 34/13/24 43/13/24
f 90/15/29 92/14/26 89/14/26
f 92/14/26 90/15/29 91/15/29
f 69/12/16 87/13/16 77/12/16
f 87/13/16 69/12/16 58/13/16
f 57/15/32 92/14/16 91/15/31
f 92/14/16 57/15/32 88/14/16
f 43/13/20 78/12/20 86/13/20
f 78/12/20 43/13/20 44/12/20
f 54/15/28 86/13/33 90/15/27
f 86/13/33 54/15/28 43/13/33
f 87/13/34 57/15/32 91/15/31
f 57/15/32 87/13/34 58/13/34
f 71/3/35 79/5/36 80/3/35
f 79/5/36 71/3/35 70/5/36
f 53/14/18 37/14/18 35/14/18
f 89/14/18 37/14/18 53/14/18
f 89/14/18 52/14/18 37/14/18
f 92/14/18 52/14/18 89/14/18
f 92/14/18 48/14/18 52/14/18
f 48/14/18 92/14/18 88/14/18
f 70/5/36 63/4/37 79/5/36
f 63/4/37 70/5/36 64/4/37
f 72/2/38 80/3/35 81/2/38
f 80/3/35 72/2/38 71/3/35
f 82/1/39 72/2/38 81/2/38
f 72/2/38 82/1/39 73/1/39
f 84/17/40 73/1/39 82/1/39
f 73/1/39 84/17/40 74/17/40
f 85/18/25 74/17/40 84/17/40
f 74/17/40 85/18/25 76/18/25
f 83/17/41 76/18/25 85/18/25
f 76/18/25 83/17/41 75/17/41
f 1/1/1 75/17/41 83/17/41
f 75/17/41 1/1/1 2/1/1
f 15/20/19 31/19/19 50/19/19
f 31/19/19 15/20/19 24/20/19
f 24/20/19 15/20/19 16/21/19
f 24/20/19 16/21/19 23/21/19
f 23/21/19 16/21/19 19/22/19
f 23/21/19 19/22/19 27/22/19
f 27/22/19 19/22/19 20/23/19
f 27/22/19 20/23/19 14/23/19
f 14/23/19 20/23/19 40/24/19
f 14/23/19 40/24/19 12/24/19
f 12/24/19 40/24/19 56/25/19
f 12/24/19 56/25/19 30/25/19
f 30/25/19 56/25/19 42/26/19
f 31/19/18 93/19/18 50/19/18
f 93/19/18 31/19/18 94/19/18
f 93/19/19 96/14/19 95/14/19
f 96/14/19 93/19/19 94/19/19

