# Created by Kenney (www.kenney.nl)

mtllib iron-fence-bar.mtl

g iron-fence-bar

v -0.0225 0.6639 -0.0225 1 1 1
v -1.443823E-15 0.7339 -3.609557E-16 1 1 1
v -0.0225 0.6639 0.0225 1 1 1
v 0.0225 0.6639 -0.0225 1 1 1
v 0.0225 0.6639 0.0225 1 1 1
v -0.015 0.6239 -0.015 1 1 1
v -0.015 0.6239 0.015 1 1 1
v 0.015 0.6239 -0.015 1 1 1
v 0.015 0.6239 0.015 1 1 1
v 0.015 0 0.015 1 1 1
v -0.015 0 0.015 1 1 1
v 0.015 0 -0.015 1 1 1
v -0.015 0 -0.015 1 1 1

vn -0.9986531 0.05188394 0
vn -0.9520285 0.3060092 0
vn 0 0.05188394 -0.9986531
vn 0 0.3060092 -0.9520285
vn 0.9520285 0.3060092 0
vn 0.9986531 0.05188394 0
vn 0 0.05188394 0.9986531
vn 0 0.3060092 0.9520285
vn -0.9828722 -0.1842885 0
vn 0.9828722 -0.1842885 0
vn 0 -0.1842885 -0.9828722
vn 0 -0.1842885 0.9828722
vn 0 0 1
vn 0 -1 0
vn 0 0 -1
vn -1 0 0
vn 1 0 0

vt 0.71875 0.2059238
vt 0.71875 0.225
vt 0.71875 0.1950232
vt 0.34375 0.275
vt 0.34375 0.4450232

usemtl colormap

f 3/1/1 2/2/2 1/1/1
f 2/2/4 4/1/3 1/1/3
f 5/1/6 4/1/6 2/2/5
f 2/2/8 3/1/7 5/1/7
f 6/3/9 3/1/1 1/1/1
f 3/1/1 6/3/9 7/3/9
f 5/1/6 8/3/10 4/1/6
f 8/3/10 5/1/6 9/3/10
f 1/1/3 8/3/11 6/3/11
f 8/3/11 1/1/3 4/1/3
f 5/1/7 7/3/12 9/3/12
f 7/3/12 5/1/7 3/1/7
f 9/5/13 11/4/13 10/4/13
f 11/4/13 9/5/13 7/5/13
f 11/4/14 12/4/14 10/4/14
f 12/4/14 11/4/14 13/4/14
f 6/5/15 12/4/15 13/4/15
f 12/4/15 6/5/15 8/5/15
f 11/4/16 6/5/16 13/4/16
f 6/5/16 11/4/16 7/5/16
f 9/5/17 12/4/17 8/5/17
f 12/4/17 9/5/17 10/4/17

g iron-fence-bar




usemtl colormap

f 3/1/1 2/2/2 1/1/1
f 2/2/4 4/1/3 1/1/3
f 5/1/6 4/1/6 2/2/5
f 2/2/8 3/1/7 5/1/7
f 6/3/9 3/1/1 1/1/1
f 3/1/1 6/3/9 7/3/9
f 5/1/6 8/3/10 4/1/6
f 8/3/10 5/1/6 9/3/10
f 1/1/3 8/3/11 6/3/11
f 8/3/11 1/1/3 4/1/3
f 5/1/7 7/3/12 9/3/12
f 7/3/12 5/1/7 3/1/7
f 9/5/13 11/4/13 10/4/13
f 11/4/13 9/5/13 7/5/13
f 11/4/14 12/4/14 10/4/14
f 12/4/14 11/4/14 13/4/14
f 6/5/15 12/4/15 13/4/15
f 12/4/15 6/5/15 8/5/15
f 11/4/16 6/5/16 13/4/16
f 6/5/16 11/4/16 7/5/16
f 9/5/17 12/4/17 8/5/17
f 12/4/17 9/5/17 10/4/17

