# Created by Kenney (www.kenney.nl)

mtllib iron-fence-damaged.mtl

g iron-fence-damaged

v 0.415 0.7539 -0.4725 1 1 1
v 0.4375 0.8239 -0.45 1 1 1
v 0.415 0.7539 -0.4275 1 1 1
v 0.46 0.7539 -0.4725 1 1 1
v 0.46 0.7539 -0.4275 1 1 1
v 0.4225 0.7139 -0.465 1 1 1
v 0.4225 0.7139 -0.435 1 1 1
v 0.4525 0.7139 -0.465 1 1 1
v 0.4525 0.7139 -0.435 1 1 1
v 0.2228897 0.7544755 -0.4725 1 1 1
v 0.2532862 0.8214254 -0.45 1 1 1
v 0.2228897 0.7544755 -0.4275 1 1 1
v 0.2675915 0.7493033 -0.4725 1 1 1
v 0.2675915 0.7493033 -0.4275 1 1 1
v 0.2257425 0.7138785 -0.465 1 1 1
v 0.2257425 0.7138785 -0.435 1 1 1
v 0.2555437 0.7104304 -0.465 1 1 1
v 0.2555437 0.7104304 -0.435 1 1 1
v 0.2990351 0.7523237 -0.4725 1 1 1
v 0.3179648 0.8233724 -0.45 1 1 1
v 0.2990351 0.7523237 -0.4275 1 1 1
v 0.3439775 0.7546004 -0.4725 1 1 1
v 0.3439775 0.7546004 -0.4275 1 1 1
v 0.3085492 0.7127544 -0.465 1 1 1
v 0.3085492 0.7127544 -0.435 1 1 1
v 0.3385108 0.7142721 -0.465 1 1 1
v 0.3385108 0.7142721 -0.435 1 1 1
v -0.46 0.7539 -0.4725 1 1 1
v -0.4375 0.8239 -0.45 1 1 1
v -0.46 0.7539 -0.4275 1 1 1
v -0.415 0.7539 -0.4725 1 1 1
v -0.415 0.7539 -0.4275 1 1 1
v -0.4525 0.7139 -0.465 1 1 1
v -0.4525 0.7139 -0.435 1 1 1
v -0.4225 0.7139 -0.465 1 1 1
v -0.4225 0.7139 -0.435 1 1 1
v -0.2517444 0.7718046 -0.4725 1 1 1
v -0.2333112 0.8429836 -0.45 1 1 1
v -0.2517444 0.7718046 -0.4275 1 1 1
v -0.206819 0.7743949 -0.4725 1 1 1
v -0.206819 0.7743949 -0.4275 1 1 1
v -0.2419543 0.7323026 -0.465 1 1 1
v -0.2419543 0.7323026 -0.435 1 1 1
v -0.212004 0.7340295 -0.465 1 1 1
v -0.212004 0.7340295 -0.435 1 1 1
v -0.3651705 0.7489483 -0.4725 1 1 1
v -0.3498597 0.8208638 -0.45 1 1 1
v -0.3651705 0.7489483 -0.4275 1 1 1
v -0.3204009 0.7534959 -0.4725 1 1 1
v -0.3204009 0.7534959 -0.4275 1 1 1
v -0.3536667 0.709911 -0.465 1 1 1
v -0.3536667 0.709911 -0.435 1 1 1
v -0.3238202 0.7129427 -0.465 1 1 1
v -0.3238202 0.7129427 -0.435 1 1 1
v 0.4525 4.060752E-15 -0.435 1 1 1
v 0.4225 4.060752E-15 -0.435 1 1 1
v 0.4525 4.060752E-15 -0.465 1 1 1
v 0.4225 4.060752E-15 -0.465 1 1 1
v 0.17349 0.001261679 -0.435 1 1 1
v 0.1436889 0.004709793 -0.435 1 1 1
v 0.17349 0.001261679 -0.465 1 1 1
v 0.1436889 0.004709793 -0.465 1 1 1
v 0.3746291 0.001286455 -0.435 1 1 1
v 0.3446675 -0.0002313333 -0.435 1 1 1
v 0.3746291 0.001286455 -0.465 1 1 1
v 0.3446675 -0.0002313333 -0.465 1 1 1
v -0.4225 4.060752E-15 -0.435 1 1 1
v -0.4525 4.060752E-15 -0.435 1 1 1
v -0.4225 4.060752E-15 -0.465 1 1 1
v -0.4525 4.060752E-15 -0.465 1 1 1
v -0.1709091 0.02131334 -0.435 1 1 1
v -0.2008593 0.01958641 -0.435 1 1 1
v -0.1709091 0.02131334 -0.465 1 1 1
v -0.2008593 0.01958641 -0.465 1 1 1
v -0.2516761 0.002697377 -0.435 1 1 1
v -0.2815226 -0.0003343115 -0.435 1 1 1
v -0.2516761 0.002697377 -0.465 1 1 1
v -0.2815226 -0.0003343115 -0.465 1 1 1
v 0.5 0.6239 -0.4575 1 1 1
v 0.5 0.5939 -0.4575 1 1 1
v 0.5 0.6239 -0.4425 1 1 1
v 0.5 0.5939 -0.4425 1 1 1
v -0.5 0.5939 -0.4575 1 1 1
v -0.5 0.6239 -0.4575 1 1 1
v -0.5 0.5939 -0.4425 1 1 1
v -0.5 0.6239 -0.4425 1 1 1
v -0.5 0.09 -0.4575 1 1 1
v -0.5 0.12 -0.4575 1 1 1
v -0.5 0.09 -0.4425 1 1 1
v -0.5 0.12 -0.4425 1 1 1
v 0.5 0.09 -0.4575 1 1 1
v 0.5 0.12 -0.4575 1 1 1
v 0.5 0.12 -0.4425 1 1 1
v 0.5 0.09 -0.4425 1 1 1
v 0.5 0.5039 -0.4575 1 1 1
v 0.5 0.5039 -0.4425 1 1 1
v 0.1613626 0.5039 -0.4575 1 1 1
v 0.1613626 0.5039 -0.4425 1 1 1
v 0.5 0.4739 -0.4425 1 1 1
v 0.1613626 0.4739 -0.4425 1 1 1
v 0.1613626 0.4739 -0.4575 1 1 1
v 0.5 0.4739 -0.4575 1 1 1
v -0.1462535 0.4739 -0.4425 1 1 1
v -0.5 0.4739 -0.4425 1 1 1
v -0.1462535 0.5039 -0.4425 1 1 1
v -0.5 0.5039 -0.4425 1 1 1
v -0.5 0.4739 -0.4575 1 1 1
v -0.1462535 0.4739 -0.4575 1 1 1
v -0.5 0.5039 -0.4575 1 1 1
v -0.1462535 0.5039 -0.4575 1 1 1
v 0.5 0.21 -0.4425 1 1 1
v 0.1360671 0.21 -0.4425 1 1 1
v 0.5 0.24 -0.4425 1 1 1
v 0.1360671 0.24 -0.4425 1 1 1
v 0.1360671 0.21 -0.4575 1 1 1
v 0.1360671 0.24 -0.4575 1 1 1
v 0.5 0.24 -0.4575 1 1 1
v 0.5 0.21 -0.4575 1 1 1
v -0.5 0.21 -0.4575 1 1 1
v -0.5 0.24 -0.4575 1 1 1
v -0.5 0.21 -0.4425 1 1 1
v -0.5 0.24 -0.4425 1 1 1
v -0.1648047 0.21 -0.4575 1 1 1
v -0.1648047 0.24 -0.4575 1 1 1
v -0.1648047 0.21 -0.4425 1 1 1
v -0.1648047 0.24 -0.4425 1 1 1

vn -0.9986531 0.05188394 0
vn -0.9520285 0.3060092 0
vn 0 0.05188394 -0.9986531
vn 0 0.3060092 -0.9520285
vn 0.9520285 0.3060092 0
vn 0.9986531 0.05188394 0
vn 0 0.05188394 0.9986531
vn 0 0.3060092 0.9520285
vn -0.9828722 -0.1842885 0
vn 0.9828722 -0.1842885 0
vn 0 -0.1842885 -0.9828722
vn 0 -0.1842885 0.9828722
vn -0.9860713 0.1663224 0
vn -0.9105473 0.4134046 0
vn 0.005963393 0.05154009 -0.9986531
vn 0.03517183 0.3039812 -0.9520285
vn 0.9808909 0.1945577 0
vn 0.9979981 -0.06324226 0
vn 0.005963393 0.05154009 0.9986531
vn 0.03517183 0.3039812 0.9520285
vn -0.99754 -0.07009865 0
vn 0.9551768 -0.2960358 0
vn -0.0211816 -0.1830672 -0.9828722
vn -0.0211816 -0.1830672 0.9828722
vn -0.9999991 0.001292702 0
vn -0.9662912 0.2574514 0
vn -0.002624961 0.0518175 -0.9986531
vn -0.0154819 0.3056173 -0.9520285
vn 0.9353274 0.3537832 0
vn 0.9947491 0.1023423 0
vn -0.002624961 0.0518175 0.9986531
vn -0.0154819 0.3056173 0.9520285
vn -0.9722898 -0.2337789 0
vn 0.9909372 -0.1343261 0
vn 0.009323699 -0.1840525 -0.9828722
vn 0.009323699 -0.1840525 0.9828722
vn -0.9999837 -0.005688585 0
vn -0.968065 0.2506991 0
vn -0.002986648 0.0517979 -0.9986531
vn -0.01761512 0.3055017 -0.9520285
vn 0.9328347 0.3603043 0
vn 0.9940103 0.1092844 0
vn -0.002986648 0.0517979 0.9986531
vn -0.01761512 0.3055017 0.9520285
vn -0.970634 -0.240561 0
vn 0.9918508 -0.1274049 0
vn 0.01060839 -0.183983 -0.9828722
vn 0.01060839 -0.183983 0.9828722
vn -0.9987839 -0.04930185 0
vn -0.978079 0.2082342 0
vn -0.005243199 0.05161833 -0.9986531
vn -0.03092415 0.3044426 -0.9520285
vn 0.9162307 0.4006511 0
vn 0.9882975 0.1525385 0
vn -0.005243199 0.05161833 0.9986531
vn -0.03092415 0.3044426 0.9520285
vn -0.9592171 -0.2826706 0
vn 0.9964642 -0.08401969 0
vn 0.01862352 -0.1833451 -0.9828722
vn 0.01862352 -0.1833451 0.9828722
vn 0 0 1
vn 0 -1 0
vn 0 0 -1
vn -1 0 0
vn 1 0 0
vn -0.1149372 -0.9933727 0
vn -0.9933727 0.1149372 0
vn 0.9933727 -0.1149372 0
vn 0.05059294 -0.9987193 0
vn -0.9987193 -0.05059294 0
vn 0.9987193 0.05059294 0
vn 0.05756402 -0.9983417 0
vn -0.9983417 -0.05756402 0
vn 0.9983417 0.05756402 0
vn 0.1010563 -0.9948807 0
vn -0.9948807 -0.1010563 0
vn 0.9948807 0.1010563 0
vn 0 1 0

vt 0.71875 0.2080076
vt 0.71875 0.225
vt 0.71875 0.1982977
vt 0.34375 0.275
vt 0.34375 0.4482977
vt 0.28125 0.375

usemtl colormap

f 3/1/1 2/2/2 1/1/1
f 2/2/4 4/1/3 1/1/3
f 5/1/6 4/1/6 2/2/5
f 2/2/8 3/1/7 5/1/7
f 6/3/9 3/1/1 1/1/1
f 3/1/1 6/3/9 7/3/9
f 5/1/6 8/3/10 4/1/6
f 8/3/10 5/1/6 9/3/10
f 1/1/3 8/3/11 6/3/11
f 8/3/11 1/1/3 4/1/3
f 5/1/7 7/3/12 9/3/12
f 7/3/12 5/1/7 3/1/7
f 12/1/13 11/2/14 10/1/13
f 11/2/16 13/1/15 10/1/15
f 14/1/18 13/1/18 11/2/17
f 11/2/20 12/1/19 14/1/19
f 15/3/21 12/1/13 10/1/13
f 12/1/13 15/3/21 16/3/21
f 14/1/18 17/3/22 13/1/18
f 17/3/22 14/1/18 18/3/22
f 10/1/15 17/3/23 15/3/23
f 17/3/23 10/1/15 13/1/15
f 14/1/19 16/3/24 18/3/24
f 16/3/24 14/1/19 12/1/19
f 21/1/25 20/2/26 19/1/25
f 20/2/28 22/1/27 19/1/27
f 23/1/30 22/1/30 20/2/29
f 20/2/32 21/1/31 23/1/31
f 24/3/33 21/1/25 19/1/25
f 21/1/25 24/3/33 25/3/33
f 23/1/30 26/3/34 22/1/30
f 26/3/34 23/1/30 27/3/34
f 19/1/27 26/3/35 24/3/35
f 26/3/35 19/1/27 22/1/27
f 23/1/31 25/3/36 27/3/36
f 25/3/36 23/1/31 21/1/31
f 30/1/1 29/2/2 28/1/1
f 29/2/4 31/1/3 28/1/3
f 32/1/6 31/1/6 29/2/5
f 29/2/8 30/1/7 32/1/7
f 33/3/9 30/1/1 28/1/1
f 30/1/1 33/3/9 34/3/9
f 32/1/6 35/3/10 31/1/6
f 35/3/10 32/1/6 36/3/10
f 28/1/3 35/3/11 33/3/11
f 35/3/11 28/1/3 31/1/3
f 32/1/7 34/3/12 36/3/12
f 34/3/12 32/1/7 30/1/7
f 39/1/37 38/2/38 37/1/37
f 38/2/40 40/1/39 37/1/39
f 41/1/42 40/1/42 38/2/41
f 38/2/44 39/1/43 41/1/43
f 42/3/45 39/1/37 37/1/37
f 39/1/37 42/3/45 43/3/45
f 41/1/42 44/3/46 40/1/42
f 44/3/46 41/1/42 45/3/46
f 37/1/39 44/3/47 42/3/47
f 44/3/47 37/1/39 40/1/39
f 41/1/43 43/3/48 45/3/48
f 43/3/48 41/1/43 39/1/43
f 48/1/49 47/2/50 46/1/49
f 47/2/52 49/1/51 46/1/51
f 50/1/54 49/1/54 47/2/53
f 47/2/56 48/1/55 50/1/55
f 51/3/57 48/1/49 46/1/49
f 48/1/49 51/3/57 52/3/57
f 50/1/54 53/3/58 49/1/54
f 53/3/58 50/1/54 54/3/58
f 46/1/51 53/3/59 51/3/59
f 53/3/59 46/1/51 49/1/51
f 50/1/55 52/3/60 54/3/60
f 52/3/60 50/1/55 48/1/55
f 9/5/61 56/4/61 55/4/61
f 56/4/61 9/5/61 7/5/61
f 56/4/62 57/4/62 55/4/62
f 57/4/62 56/4/62 58/4/62
f 6/5/63 57/4/63 58/4/63
f 57/4/63 6/5/63 8/5/63
f 56/4/64 6/5/64 58/4/64
f 6/5/64 56/4/64 7/5/64
f 9/5/65 57/4/65 8/5/65
f 57/4/65 9/5/65 55/4/65
f 18/5/61 60/4/61 59/4/61
f 60/4/61 18/5/61 16/5/61
f 60/4/66 61/4/66 59/4/66
f 61/4/66 60/4/66 62/4/66
f 15/5/63 61/4/63 62/4/63
f 61/4/63 15/5/63 17/5/63
f 60/4/67 15/5/67 62/4/67
f 15/5/67 60/4/67 16/5/67
f 18/5/68 61/4/68 17/5/68
f 61/4/68 18/5/68 59/4/68
f 27/5/61 64/4/61 63/4/61
f 64/4/61 27/5/61 25/5/61
f 64/4/69 65/4/69 63/4/69
f 65/4/69 64/4/69 66/4/69
f 24/5/63 65/4/63 66/4/63
f 65/4/63 24/5/63 26/5/63
f 64/4/70 24/5/70 66/4/70
f 24/5/70 64/4/70 25/5/70
f 27/5/71 65/4/71 26/5/71
f 65/4/71 27/5/71 63/4/71
f 36/5/61 68/4/61 67/4/61
f 68/4/61 36/5/61 34/5/61
f 68/4/62 69/4/62 67/4/62
f 69/4/62 68/4/62 70/4/62
f 33/5/63 69/4/63 70/4/63
f 69/4/63 33/5/63 35/5/63
f 68/4/64 33/5/64 70/4/64
f 33/5/64 68/4/64 34/5/64
f 36/5/65 69/4/65 35/5/65
f 69/4/65 36/5/65 67/4/65
f 45/5/61 72/4/61 71/4/61
f 72/4/61 45/5/61 43/5/61
f 72/4/72 73/4/72 71/4/72
f 73/4/72 72/4/72 74/4/72
f 42/5/63 73/4/63 74/4/63
f 73/4/63 42/5/63 44/5/63
f 72/4/73 42/5/73 74/4/73
f 42/5/73 72/4/73 43/5/73
f 45/5/74 73/4/74 44/5/74
f 73/4/74 45/5/74 71/4/74
f 54/5/61 76/4/61 75/4/61
f 76/4/61 54/5/61 52/5/61
f 76/4/75 77/4/75 75/4/75
f 77/4/75 76/4/75 78/4/75
f 51/5/63 77/4/63 78/4/63
f 77/4/63 51/5/63 53/5/63
f 76/4/76 51/5/76 78/4/76
f 51/5/76 76/4/76 52/5/76
f 54/5/77 77/4/77 53/5/77
f 77/4/77 54/5/77 75/4/77
f 81/6/65 80/6/65 79/6/65
f 80/6/65 81/6/65 82/6/65
f 85/6/64 84/6/64 83/6/64
f 84/6/64 85/6/64 86/6/64
f 81/6/61 85/6/61 82/6/61
f 85/6/61 81/6/61 86/6/61
f 85/6/62 80/6/62 82/6/62
f 80/6/62 85/6/62 83/6/62
f 84/6/78 81/6/78 79/6/78
f 81/6/78 84/6/78 86/6/78
f 84/6/63 80/6/63 83/6/63
f 80/6/63 84/6/63 79/6/63
f 89/6/64 88/6/64 87/6/64
f 88/6/64 89/6/64 90/6/64
f 88/6/63 91/6/63 87/6/63
f 91/6/63 88/6/63 92/6/63
f 88/6/78 93/6/78 92/6/78
f 93/6/78 88/6/78 90/6/78
f 89/6/62 91/6/62 94/6/62
f 91/6/62 89/6/62 87/6/62
f 93/6/61 89/6/61 94/6/61
f 89/6/61 93/6/61 90/6/61
f 93/6/65 91/6/65 92/6/65
f 91/6/65 93/6/65 94/6/65
f 97/6/78 96/6/78 95/6/78
f 96/6/78 97/6/78 98/6/78
f 96/6/61 100/6/61 99/6/61
f 100/6/61 96/6/61 98/6/61
f 100/6/64 97/6/64 101/6/64
f 97/6/64 100/6/64 98/6/64
f 97/6/63 102/6/63 101/6/63
f 102/6/63 97/6/63 95/6/63
f 96/6/65 102/6/65 95/6/65
f 102/6/65 96/6/65 99/6/65
f 100/6/62 102/6/62 99/6/62
f 102/6/62 100/6/62 101/6/62
f 105/6/61 104/6/61 103/6/61
f 104/6/61 105/6/61 106/6/61
f 109/6/63 108/6/63 107/6/63
f 108/6/63 109/6/63 110/6/63
f 105/6/65 108/6/65 110/6/65
f 108/6/65 105/6/65 103/6/65
f 109/6/78 105/6/78 110/6/78
f 105/6/78 109/6/78 106/6/78
f 104/6/62 108/6/62 103/6/62
f 108/6/62 104/6/62 107/6/62
f 104/6/64 109/6/64 107/6/64
f 109/6/64 104/6/64 106/6/64
f 113/6/61 112/6/61 111/6/61
f 112/6/61 113/6/61 114/6/61
f 112/6/64 116/6/64 115/6/64
f 116/6/64 112/6/64 114/6/64
f 116/6/78 113/6/78 117/6/78
f 113/6/78 116/6/78 114/6/78
f 116/6/63 118/6/63 115/6/63
f 118/6/63 116/6/63 117/6/63
f 112/6/62 118/6/62 111/6/62
f 118/6/62 112/6/62 115/6/62
f 113/6/65 118/6/65 117/6/65
f 118/6/65 113/6/65 111/6/65
f 121/6/64 120/6/64 119/6/64
f 120/6/64 121/6/64 122/6/64
f 120/6/63 123/6/63 119/6/63
f 123/6/63 120/6/63 124/6/63
f 121/6/62 123/6/62 125/6/62
f 123/6/62 121/6/62 119/6/62
f 126/6/65 123/6/65 124/6/65
f 123/6/65 126/6/65 125/6/65
f 126/6/61 121/6/61 125/6/61
f 121/6/61 126/6/61 122/6/61
f 120/6/78 126/6/78 124/6/78
f 126/6/78 120/6/78 122/6/78

g iron-fence-damaged




usemtl colormap

f 3/1/1 2/2/2 1/1/1
f 2/2/4 4/1/3 1/1/3
f 5/1/6 4/1/6 2/2/5
f 2/2/8 3/1/7 5/1/7
f 6/3/9 3/1/1 1/1/1
f 3/1/1 6/3/9 7/3/9
f 5/1/6 8/3/10 4/1/6
f 8/3/10 5/1/6 9/3/10
f 1/1/3 8/3/11 6/3/11
f 8/3/11 1/1/3 4/1/3
f 5/1/7 7/3/12 9/3/12
f 7/3/12 5/1/7 3/1/7
f 12/1/13 11/2/14 10/1/13
f 11/2/16 13/1/15 10/1/15
f 14/1/18 13/1/18 11/2/17
f 11/2/20 12/1/19 14/1/19
f 15/3/21 12/1/13 10/1/13
f 12/1/13 15/3/21 16/3/21
f 14/1/18 17/3/22 13/1/18
f 17/3/22 14/1/18 18/3/22
f 10/1/15 17/3/23 15/3/23
f 17/3/23 10/1/15 13/1/15
f 14/1/19 16/3/24 18/3/24
f 16/3/24 14/1/19 12/1/19
f 21/1/25 20/2/26 19/1/25
f 20/2/28 22/1/27 19/1/27
f 23/1/30 22/1/30 20/2/29
f 20/2/32 21/1/31 23/1/31
f 24/3/33 21/1/25 19/1/25
f 21/1/25 24/3/33 25/3/33
f 23/1/30 26/3/34 22/1/30
f 26/3/34 23/1/30 27/3/34
f 19/1/27 26/3/35 24/3/35
f 26/3/35 19/1/27 22/1/27
f 23/1/31 25/3/36 27/3/36
f 25/3/36 23/1/31 21/1/31
f 30/1/1 29/2/2 28/1/1
f 29/2/4 31/1/3 28/1/3
f 32/1/6 31/1/6 29/2/5
f 29/2/8 30/1/7 32/1/7
f 33/3/9 30/1/1 28/1/1
f 30/1/1 33/3/9 34/3/9
f 32/1/6 35/3/10 31/1/6
f 35/3/10 32/1/6 36/3/10
f 28/1/3 35/3/11 33/3/11
f 35/3/11 28/1/3 31/1/3
f 32/1/7 34/3/12 36/3/12
f 34/3/12 32/1/7 30/1/7
f 39/1/37 38/2/38 37/1/37
f 38/2/40 40/1/39 37/1/39
f 41/1/42 40/1/42 38/2/41
f 38/2/44 39/1/43 41/1/43
f 42/3/45 39/1/37 37/1/37
f 39/1/37 42/3/45 43/3/45
f 41/1/42 44/3/46 40/1/42
f 44/3/46 41/1/42 45/3/46
f 37/1/39 44/3/47 42/3/47
f 44/3/47 37/1/39 40/1/39
f 41/1/43 43/3/48 45/3/48
f 43/3/48 41/1/43 39/1/43
f 48/1/49 47/2/50 46/1/49
f 47/2/52 49/1/51 46/1/51
f 50/1/54 49/1/54 47/2/53
f 47/2/56 48/1/55 50/1/55
f 51/3/57 48/1/49 46/1/49
f 48/1/49 51/3/57 52/3/57
f 50/1/54 53/3/58 49/1/54
f 53/3/58 50/1/54 54/3/58
f 46/1/51 53/3/59 51/3/59
f 53/3/59 46/1/51 49/1/51
f 50/1/55 52/3/60 54/3/60
f 52/3/60 50/1/55 48/1/55
f 9/5/61 56/4/61 55/4/61
f 56/4/61 9/5/61 7/5/61
f 56/4/62 57/4/62 55/4/62
f 57/4/62 56/4/62 58/4/62
f 6/5/63 57/4/63 58/4/63
f 57/4/63 6/5/63 8/5/63
f 56/4/64 6/5/64 58/4/64
f 6/5/64 56/4/64 7/5/64
f 9/5/65 57/4/65 8/5/65
f 57/4/65 9/5/65 55/4/65
f 18/5/61 60/4/61 59/4/61
f 60/4/61 18/5/61 16/5/61
f 60/4/66 61/4/66 59/4/66
f 61/4/66 60/4/66 62/4/66
f 15/5/63 61/4/63 62/4/63
f 61/4/63 15/5/63 17/5/63
f 60/4/67 15/5/67 62/4/67
f 15/5/67 60/4/67 16/5/67
f 18/5/68 61/4/68 17/5/68
f 61/4/68 18/5/68 59/4/68
f 27/5/61 64/4/61 63/4/61
f 64/4/61 27/5/61 25/5/61
f 64/4/69 65/4/69 63/4/69
f 65/4/69 64/4/69 66/4/69
f 24/5/63 65/4/63 66/4/63
f 65/4/63 24/5/63 26/5/63
f 64/4/70 24/5/70 66/4/70
f 24/5/70 64/4/70 25/5/70
f 27/5/71 65/4/71 26/5/71
f 65/4/71 27/5/71 63/4/71
f 36/5/61 68/4/61 67/4/61
f 68/4/61 36/5/61 34/5/61
f 68/4/62 69/4/62 67/4/62
f 69/4/62 68/4/62 70/4/62
f 33/5/63 69/4/63 70/4/63
f 69/4/63 33/5/63 35/5/63
f 68/4/64 33/5/64 70/4/64
f 33/5/64 68/4/64 34/5/64
f 36/5/65 69/4/65 35/5/65
f 69/4/65 36/5/65 67/4/65
f 45/5/61 72/4/61 71/4/61
f 72/4/61 45/5/61 43/5/61
f 72/4/72 73/4/72 71/4/72
f 73/4/72 72/4/72 74/4/72
f 42/5/63 73/4/63 74/4/63
f 73/4/63 42/5/63 44/5/63
f 72/4/73 42/5/73 74/4/73
f 42/5/73 72/4/73 43/5/73
f 45/5/74 73/4/74 44/5/74
f 73/4/74 45/5/74 71/4/74
f 54/5/61 76/4/61 75/4/61
f 76/4/61 54/5/61 52/5/61
f 76/4/75 77/4/75 75/4/75
f 77/4/75 76/4/75 78/4/75
f 51/5/63 77/4/63 78/4/63
f 77/4/63 51/5/63 53/5/63
f 76/4/76 51/5/76 78/4/76
f 51/5/76 76/4/76 52/5/76
f 54/5/77 77/4/77 53/5/77
f 77/4/77 54/5/77 75/4/77
f 81/6/65 80/6/65 79/6/65
f 80/6/65 81/6/65 82/6/65
f 85/6/64 84/6/64 83/6/64
f 84/6/64 85/6/64 86/6/64
f 81/6/61 85/6/61 82/6/61
f 85/6/61 81/6/61 86/6/61
f 85/6/62 80/6/62 82/6/62
f 80/6/62 85/6/62 83/6/62
f 84/6/78 81/6/78 79/6/78
f 81/6/78 84/6/78 86/6/78
f 84/6/63 80/6/63 83/6/63
f 80/6/63 84/6/63 79/6/63
f 89/6/64 88/6/64 87/6/64
f 88/6/64 89/6/64 90/6/64
f 88/6/63 91/6/63 87/6/63
f 91/6/63 88/6/63 92/6/63
f 88/6/78 93/6/78 92/6/78
f 93/6/78 88/6/78 90/6/78
f 89/6/62 91/6/62 94/6/62
f 91/6/62 89/6/62 87/6/62
f 93/6/61 89/6/61 94/6/61
f 89/6/61 93/6/61 90/6/61
f 93/6/65 91/6/65 92/6/65
f 91/6/65 93/6/65 94/6/65
f 97/6/78 96/6/78 95/6/78
f 96/6/78 97/6/78 98/6/78
f 96/6/61 100/6/61 99/6/61
f 100/6/61 96/6/61 98/6/61
f 100/6/64 97/6/64 101/6/64
f 97/6/64 100/6/64 98/6/64
f 97/6/63 102/6/63 101/6/63
f 102/6/63 97/6/63 95/6/63
f 96/6/65 102/6/65 95/6/65
f 102/6/65 96/6/65 99/6/65
f 100/6/62 102/6/62 99/6/62
f 102/6/62 100/6/62 101/6/62
f 105/6/61 104/6/61 103/6/61
f 104/6/61 105/6/61 106/6/61
f 109/6/63 108/6/63 107/6/63
f 108/6/63 109/6/63 110/6/63
f 105/6/65 108/6/65 110/6/65
f 108/6/65 105/6/65 103/6/65
f 109/6/78 105/6/78 110/6/78
f 105/6/78 109/6/78 106/6/78
f 104/6/62 108/6/62 103/6/62
f 108/6/62 104/6/62 107/6/62
f 104/6/64 109/6/64 107/6/64
f 109/6/64 104/6/64 106/6/64
f 113/6/61 112/6/61 111/6/61
f 112/6/61 113/6/61 114/6/61
f 112/6/64 116/6/64 115/6/64
f 116/6/64 112/6/64 114/6/64
f 116/6/78 113/6/78 117/6/78
f 113/6/78 116/6/78 114/6/78
f 116/6/63 118/6/63 115/6/63
f 118/6/63 116/6/63 117/6/63
f 112/6/62 118/6/62 111/6/62
f 118/6/62 112/6/62 115/6/62
f 113/6/65 118/6/65 117/6/65
f 118/6/65 113/6/65 111/6/65
f 121/6/64 120/6/64 119/6/64
f 120/6/64 121/6/64 122/6/64
f 120/6/63 123/6/63 119/6/63
f 123/6/63 120/6/63 124/6/63
f 121/6/62 123/6/62 125/6/62
f 123/6/62 121/6/62 119/6/62
f 126/6/65 123/6/65 124/6/65
f 123/6/65 126/6/65 125/6/65
f 126/6/61 121/6/61 125/6/61
f 121/6/61 126/6/61 122/6/61
f 120/6/78 126/6/78 124/6/78
f 126/6/78 120/6/78 122/6/78

