# Created by Kenney (www.kenney.nl)

mtllib iron-fence-border-column.mtl

g iron-fence-border-column

v 0.4 0.7739 -0.5 1 1 1
v 0.4 0.8239 -0.5 1 1 1
v 0.4 0.7739 -0.4 1 1 1
v 0.4 0.8239 -0.4 1 1 1
v 0.5 0.8239 -0.5 1 1 1
v 0.5 0.7739 -0.5 1 1 1
v 0.5 0.8239 -0.4 1 1 1
v 0.5 0.7739 -0.4 1 1 1
v 0.4 -2.909195E-14 -0.4 1 1 1
v 0.4 0.11 -0.4 1 1 1
v 0.5 0 -0.4 1 1 1
v 0.5 0.11 -0.4 1 1 1
v 0.409 0.7539 -0.491 1 1 1
v 0.409 0.7539 -0.409 1 1 1
v 0.409 0.13 -0.491 1 1 1
v 0.409 0.13 -0.409 1 1 1
v 0.5 0 -0.5 1 1 1
v 0.5 0.11 -0.5 1 1 1
v 0.4 0.11 -0.5 1 1 1
v 0.491 0.13 -0.491 1 1 1
v 0.491 0.7539 -0.491 1 1 1
v 0.4 -2.909195E-14 -0.5 1 1 1
v 0.491 0.7539 -0.409 1 1 1
v 0.491 0.13 -0.409 1 1 1
v 0.29 0.7539 -0.4725 1 1 1
v 0.3125 0.8239 -0.45 1 1 1
v 0.29 0.7539 -0.4275 1 1 1
v 0.335 0.7539 -0.4725 1 1 1
v 0.335 0.7539 -0.4275 1 1 1
v 0.2975 0.7139 -0.465 1 1 1
v 0.2975 0.7139 -0.435 1 1 1
v 0.3275 0.7139 -0.465 1 1 1
v 0.3275 0.7139 -0.435 1 1 1
v 0.04 0.7539 -0.4725 1 1 1
v 0.0625 0.8239 -0.45 1 1 1
v 0.04 0.7539 -0.4275 1 1 1
v 0.085 0.7539 -0.4725 1 1 1
v 0.085 0.7539 -0.4275 1 1 1
v 0.0475 0.7139 -0.465 1 1 1
v 0.0475 0.7139 -0.435 1 1 1
v 0.0775 0.7139 -0.465 1 1 1
v 0.0775 0.7139 -0.435 1 1 1
v -0.46 0.7539 -0.4725 1 1 1
v -0.4375 0.8239 -0.45 1 1 1
v -0.46 0.7539 -0.4275 1 1 1
v -0.415 0.7539 -0.4725 1 1 1
v -0.415 0.7539 -0.4275 1 1 1
v -0.4525 0.7139 -0.465 1 1 1
v -0.4525 0.7139 -0.435 1 1 1
v -0.4225 0.7139 -0.465 1 1 1
v -0.4225 0.7139 -0.435 1 1 1
v 0.165 0.7539 -0.4725 1 1 1
v 0.1875 0.8239 -0.45 1 1 1
v 0.165 0.7539 -0.4275 1 1 1
v 0.21 0.7539 -0.4725 1 1 1
v 0.21 0.7539 -0.4275 1 1 1
v 0.1725 0.7139 -0.465 1 1 1
v 0.1725 0.7139 -0.435 1 1 1
v 0.2025 0.7139 -0.465 1 1 1
v 0.2025 0.7139 -0.435 1 1 1
v -0.21 0.7539 -0.4725 1 1 1
v -0.1875 0.8239 -0.45 1 1 1
v -0.21 0.7539 -0.4275 1 1 1
v -0.165 0.7539 -0.4725 1 1 1
v -0.165 0.7539 -0.4275 1 1 1
v -0.2025 0.7139 -0.465 1 1 1
v -0.2025 0.7139 -0.435 1 1 1
v -0.1725 0.7139 -0.465 1 1 1
v -0.1725 0.7139 -0.435 1 1 1
v -0.08499999 0.7539 -0.4725 1 1 1
v -0.0625 0.8239 -0.45 1 1 1
v -0.08499999 0.7539 -0.4275 1 1 1
v -0.04 0.7539 -0.4725 1 1 1
v -0.04 0.7539 -0.4275 1 1 1
v -0.0775 0.7139 -0.465 1 1 1
v -0.0775 0.7139 -0.435 1 1 1
v -0.0475 0.7139 -0.465 1 1 1
v -0.0475 0.7139 -0.435 1 1 1
v -0.335 0.7539 -0.4725 1 1 1
v -0.3125 0.8239 -0.45 1 1 1
v -0.335 0.7539 -0.4275 1 1 1
v -0.29 0.7539 -0.4725 1 1 1
v -0.29 0.7539 -0.4275 1 1 1
v -0.3275 0.7139 -0.465 1 1 1
v -0.3275 0.7139 -0.435 1 1 1
v -0.2975 0.7139 -0.465 1 1 1
v -0.2975 0.7139 -0.435 1 1 1
v 0.4 0.09 -0.493 1 1 1
v 0.4 0.09 -0.407 1 1 1
v -0.5 0.09 -0.493 1 1 1
v -0.5 0.09 -0.407 1 1 1
v 0.4 0.07 -0.4 1 1 1
v -0.5 0.07 -0.4 1 1 1
v -0.5 0 -0.5 1 1 1
v 0.4 0 -0.5 1 1 1
v -0.5 0.07 -0.5 1 1 1
v 0.4 0.07 -0.5 1 1 1
v 0.4 0 -0.4 1 1 1
v -0.5 0 -0.4 1 1 1
v 0.3275 0.09 -0.435 1 1 1
v 0.2975 0.09 -0.435 1 1 1
v 0.3275 0.09 -0.465 1 1 1
v 0.2975 0.09 -0.465 1 1 1
v 0.0775 0.09 -0.435 1 1 1
v 0.0475 0.09 -0.435 1 1 1
v 0.0775 0.09 -0.465 1 1 1
v 0.0475 0.09 -0.465 1 1 1
v -0.4225 0.09 -0.435 1 1 1
v -0.4525 0.09 -0.435 1 1 1
v -0.4225 0.09 -0.465 1 1 1
v -0.4525 0.09 -0.465 1 1 1
v 0.2025 0.09 -0.435 1 1 1
v 0.1725 0.09 -0.435 1 1 1
v 0.2025 0.09 -0.465 1 1 1
v 0.1725 0.09 -0.465 1 1 1
v -0.1725 0.09 -0.435 1 1 1
v -0.2025 0.09 -0.435 1 1 1
v -0.1725 0.09 -0.465 1 1 1
v -0.2025 0.09 -0.465 1 1 1
v -0.0475 0.09 -0.435 1 1 1
v -0.0775 0.09 -0.435 1 1 1
v -0.0475 0.09 -0.465 1 1 1
v -0.0775 0.09 -0.465 1 1 1
v -0.2975 0.09 -0.435 1 1 1
v -0.3275 0.09 -0.435 1 1 1
v -0.2975 0.09 -0.465 1 1 1
v -0.3275 0.09 -0.465 1 1 1
v 0.409 0.6239 -0.4575 1 1 1
v 0.409 0.5939 -0.4575 1 1 1
v 0.409 0.6239 -0.4425 1 1 1
v 0.409 0.5939 -0.4425 1 1 1
v -0.5 0.5939 -0.4575 1 1 1
v -0.5 0.6239 -0.4575 1 1 1
v -0.5 0.5939 -0.4425 1 1 1
v -0.5 0.6239 -0.4425 1 1 1
v -0.5 0.21 -0.4575 1 1 1
v -0.5 0.24 -0.4575 1 1 1
v -0.5 0.21 -0.4425 1 1 1
v -0.5 0.24 -0.4425 1 1 1
v 0.409 0.24 -0.4575 1 1 1
v 0.409 0.21 -0.4575 1 1 1
v 0.409 0.24 -0.4425 1 1 1
v 0.409 0.21 -0.4425 1 1 1

vn -0.983652 -0.1800796 0
vn -1 0 0
vn 1 0 0
vn 0.983652 -0.1800796 0
vn 0 0 1
vn 0 0.1800796 0.983652
vn -0.9119215 -0.4103647 0
vn 0.983652 0.1800796 0
vn -0.983652 0.1800796 0
vn -0.9119215 0.4103647 0
vn 0 0 -1
vn 0 0.1800796 -0.983652
vn 0 -0.4103647 0.9119215
vn 0 -0.1800796 0.983652
vn 0 0.4103647 -0.9119215
vn 0.9119215 -0.4103647 0
vn 0.9119215 0.4103647 0
vn 0 -0.4103647 -0.9119215
vn 0 -0.1800796 -0.983652
vn 0 0.4103647 0.9119215
vn 0 1 0
vn 0 -1 0
vn -0.9986531 0.05188394 0
vn -0.9520285 0.3060092 0
vn 0 0.05188394 -0.9986531
vn 0 0.3060092 -0.9520285
vn 0.9520285 0.3060092 0
vn 0.9986531 0.05188394 0
vn 0 0.05188394 0.9986531
vn 0 0.3060092 0.9520285
vn -0.9828722 -0.1842885 0
vn 0.9828722 -0.1842885 0
vn 0 -0.1842885 -0.9828722
vn 0 -0.1842885 0.9828722
vn 0 0.1675435 0.9858646
vn 0 0.3303504 0.9438583
vn 0 0.1675435 -0.9858646
vn 0 0.3303504 -0.9438583

vt 0.71875 0.2128626
vt 0.71875 0.225
vt 0.71875 0.025
vt 0.71875 0.05170227
vt 0.71875 0.2080076
vt 0.71875 0.05655723
vt 0.71875 0.1982977
vt 0.71875 0.1805556
vt 0.34375 0.2968473
vt 0.34375 0.4482977
vt 0.28125 0.375

usemtl colormap

f 3/1/1 2/2/2 1/1/1
f 2/2/2 3/1/1 4/2/2
f 7/2/3 6/1/4 5/2/3
f 6/1/4 7/2/3 8/1/4
f 11/3/5 10/4/6 9/3/5
f 10/4/6 11/3/5 12/4/6
f 13/5/7 3/1/1 1/1/1
f 3/1/1 13/5/7 14/5/7
f 16/6/2 13/5/2 15/6/2
f 13/5/2 16/6/2 14/5/2
f 18/4/8 11/3/3 17/3/3
f 11/3/3 18/4/8 12/4/8
f 10/4/9 15/6/10 19/4/9
f 15/6/10 10/4/9 16/6/10
f 13/5/11 20/6/11 15/6/11
f 20/6/11 13/5/11 21/5/11
f 19/4/12 17/3/11 22/3/11
f 17/3/11 19/4/12 18/4/12
f 8/1/14 14/5/13 23/5/13
f 14/5/13 8/1/14 3/1/14
f 15/6/15 18/4/12 19/4/12
f 18/4/12 15/6/15 20/6/15
f 8/1/4 21/5/16 6/1/4
f 21/5/16 8/1/4 23/5/16
f 20/6/17 12/4/8 18/4/8
f 12/4/8 20/6/17 24/6/17
f 23/5/5 16/6/5 24/6/5
f 16/6/5 23/5/5 14/5/5
f 23/5/3 20/6/3 21/5/3
f 20/6/3 23/5/3 24/6/3
f 1/1/19 21/5/18 13/5/18
f 21/5/18 1/1/19 6/1/19
f 7/2/5 3/1/14 8/1/14
f 3/1/14 7/2/5 4/2/5
f 2/2/11 6/1/19 1/1/19
f 6/1/19 2/2/11 5/2/11
f 24/6/20 10/4/6 12/4/6
f 10/4/6 24/6/20 16/6/20
f 2/2/21 7/2/21 5/2/21
f 7/2/21 2/2/21 4/2/21
f 9/3/22 17/3/22 11/3/22
f 17/3/22 9/3/22 22/3/22
f 9/3/2 19/4/9 22/3/2
f 19/4/9 9/3/2 10/4/9
f 27/5/23 26/2/24 25/5/23
f 26/2/26 28/5/25 25/5/25
f 29/5/28 28/5/28 26/2/27
f 26/2/30 27/5/29 29/5/29
f 30/7/31 27/5/23 25/5/23
f 27/5/23 30/7/31 31/7/31
f 29/5/28 32/7/32 28/5/28
f 32/7/32 29/5/28 33/7/32
f 25/5/25 32/7/33 30/7/33
f 32/7/33 25/5/25 28/5/25
f 29/5/29 31/7/34 33/7/34
f 31/7/34 29/5/29 27/5/29
f 36/5/23 35/2/24 34/5/23
f 35/2/26 37/5/25 34/5/25
f 38/5/28 37/5/28 35/2/27
f 35/2/30 36/5/29 38/5/29
f 39/7/31 36/5/23 34/5/23
f 36/5/23 39/7/31 40/7/31
f 38/5/28 41/7/32 37/5/28
f 41/7/32 38/5/28 42/7/32
f 34/5/25 41/7/33 39/7/33
f 41/7/33 34/5/25 37/5/25
f 38/5/29 40/7/34 42/7/34
f 40/7/34 38/5/29 36/5/29
f 45/5/23 44/2/24 43/5/23
f 44/2/26 46/5/25 43/5/25
f 47/5/28 46/5/28 44/2/27
f 44/2/30 45/5/29 47/5/29
f 48/7/31 45/5/23 43/5/23
f 45/5/23 48/7/31 49/7/31
f 47/5/28 50/7/32 46/5/28
f 50/7/32 47/5/28 51/7/32
f 43/5/25 50/7/33 48/7/33
f 50/7/33 43/5/25 46/5/25
f 47/5/29 49/7/34 51/7/34
f 49/7/34 47/5/29 45/5/29
f 54/5/23 53/2/24 52/5/23
f 53/2/26 55/5/25 52/5/25
f 56/5/28 55/5/28 53/2/27
f 53/2/30 54/5/29 56/5/29
f 57/7/31 54/5/23 52/5/23
f 54/5/23 57/7/31 58/7/31
f 56/5/28 59/7/32 55/5/28
f 59/7/32 56/5/28 60/7/32
f 52/5/25 59/7/33 57/7/33
f 59/7/33 52/5/25 55/5/25
f 56/5/29 58/7/34 60/7/34
f 58/7/34 56/5/29 54/5/29
f 63/5/23 62/2/24 61/5/23
f 62/2/26 64/5/25 61/5/25
f 65/5/28 64/5/28 62/2/27
f 62/2/30 63/5/29 65/5/29
f 66/7/31 63/5/23 61/5/23
f 63/5/23 66/7/31 67/7/31
f 65/5/28 68/7/32 64/5/28
f 68/7/32 65/5/28 69/7/32
f 61/5/25 68/7/33 66/7/33
f 68/7/33 61/5/25 64/5/25
f 65/5/29 67/7/34 69/7/34
f 67/7/34 65/5/29 63/5/29
f 72/5/23 71/2/24 70/5/23
f 71/2/26 73/5/25 70/5/25
f 74/5/28 73/5/28 71/2/27
f 71/2/30 72/5/29 74/5/29
f 75/7/31 72/5/23 70/5/23
f 72/5/23 75/7/31 76/7/31
f 74/5/28 77/7/32 73/5/28
f 77/7/32 74/5/28 78/7/32
f 70/5/25 77/7/33 75/7/33
f 77/7/33 70/5/25 73/5/25
f 74/5/29 76/7/34 78/7/34
f 76/7/34 74/5/29 72/5/29
f 81/5/23 80/2/24 79/5/23
f 80/2/26 82/5/25 79/5/25
f 83/5/28 82/5/28 80/2/27
f 80/2/30 81/5/29 83/5/29
f 84/7/31 81/5/23 79/5/23
f 81/5/23 84/7/31 85/7/31
f 83/5/28 86/7/32 82/5/28
f 86/7/32 83/5/28 87/7/32
f 79/5/25 86/7/33 84/7/33
f 86/7/33 79/5/25 82/5/25
f 83/5/29 85/7/34 87/7/34
f 85/7/34 83/5/29 81/5/29
f 90/2/21 89/2/21 88/2/21
f 89/2/21 90/2/21 91/2/21
f 89/2/36 93/8/35 92/8/35
f 93/8/35 89/2/36 91/2/36
f 96/8/37 95/3/11 94/3/11
f 95/3/11 96/8/37 97/8/37
f 99/3/22 95/3/22 98/3/22
f 95/3/22 99/3/22 94/3/22
f 88/2/3 95/3/3 97/8/3
f 95/3/3 88/2/3 98/3/3
f 98/3/3 88/2/3 89/2/3
f 98/3/3 89/2/3 92/8/3
f 92/8/35 99/3/5 98/3/5
f 99/3/5 92/8/35 93/8/35
f 90/2/38 97/8/37 96/8/37
f 97/8/37 90/2/38 88/2/38
f 99/3/2 96/8/2 94/3/2
f 96/8/2 99/3/2 90/2/2
f 90/2/2 99/3/2 91/2/2
f 91/2/2 99/3/2 93/8/2
f 33/10/5 101/9/5 100/9/5
f 101/9/5 33/10/5 31/10/5
f 101/9/22 102/9/22 100/9/22
f 102/9/22 101/9/22 103/9/22
f 30/10/11 102/9/11 103/9/11
f 102/9/11 30/10/11 32/10/11
f 101/9/2 30/10/2 103/9/2
f 30/10/2 101/9/2 31/10/2
f 33/10/3 102/9/3 32/10/3
f 102/9/3 33/10/3 100/9/3
f 42/10/5 105/9/5 104/9/5
f 105/9/5 42/10/5 40/10/5
f 105/9/22 106/9/22 104/9/22
f 106/9/22 105/9/22 107/9/22
f 39/10/11 106/9/11 107/9/11
f 106/9/11 39/10/11 41/10/11
f 105/9/2 39/10/2 107/9/2
f 39/10/2 105/9/2 40/10/2
f 42/10/3 106/9/3 41/10/3
f 106/9/3 42/10/3 104/9/3
f 51/10/5 109/9/5 108/9/5
f 109/9/5 51/10/5 49/10/5
f 109/9/22 110/9/22 108/9/22
f 110/9/22 109/9/22 111/9/22
f 48/10/11 110/9/11 111/9/11
f 110/9/11 48/10/11 50/10/11
f 109/9/2 48/10/2 111/9/2
f 48/10/2 109/9/2 49/10/2
f 51/10/3 110/9/3 50/10/3
f 110/9/3 51/10/3 108/9/3
f 60/10/5 113/9/5 112/9/5
f 113/9/5 60/10/5 58/10/5
f 113/9/22 114/9/22 112/9/22
f 114/9/22 113/9/22 115/9/22
f 57/10/11 114/9/11 115/9/11
f 114/9/11 57/10/11 59/10/11
f 113/9/2 57/10/2 115/9/2
f 57/10/2 113/9/2 58/10/2
f 60/10/3 114/9/3 59/10/3
f 114/9/3 60/10/3 112/9/3
f 69/10/5 117/9/5 116/9/5
f 117/9/5 69/10/5 67/10/5
f 117/9/22 118/9/22 116/9/22
f 118/9/22 117/9/22 119/9/22
f 66/10/11 118/9/11 119/9/11
f 118/9/11 66/10/11 68/10/11
f 117/9/2 66/10/2 119/9/2
f 66/10/2 117/9/2 67/10/2
f 69/10/3 118/9/3 68/10/3
f 118/9/3 69/10/3 116/9/3
f 78/10/5 121/9/5 120/9/5
f 121/9/5 78/10/5 76/10/5
f 121/9/22 122/9/22 120/9/22
f 122/9/22 121/9/22 123/9/22
f 75/10/11 122/9/11 123/9/11
f 122/9/11 75/10/11 77/10/11
f 121/9/2 75/10/2 123/9/2
f 75/10/2 121/9/2 76/10/2
f 78/10/3 122/9/3 77/10/3
f 122/9/3 78/10/3 120/9/3
f 87/10/5 125/9/5 124/9/5
f 125/9/5 87/10/5 85/10/5
f 125/9/22 126/9/22 124/9/22
f 126/9/22 125/9/22 127/9/22
f 84/10/11 126/9/11 127/9/11
f 126/9/11 84/10/11 86/10/11
f 125/9/2 84/10/2 127/9/2
f 84/10/2 125/9/2 85/10/2
f 87/10/3 126/9/3 86/10/3
f 126/9/3 87/10/3 124/9/3
f 130/11/3 129/11/3 128/11/3
f 129/11/3 130/11/3 131/11/3
f 134/11/2 133/11/2 132/11/2
f 133/11/2 134/11/2 135/11/2
f 130/11/5 134/11/5 131/11/5
f 134/11/5 130/11/5 135/11/5
f 134/11/22 129/11/22 131/11/22
f 129/11/22 134/11/22 132/11/22
f 133/11/21 130/11/21 128/11/21
f 130/11/21 133/11/21 135/11/21
f 133/11/11 129/11/11 132/11/11
f 129/11/11 133/11/11 128/11/11
f 138/11/2 137/11/2 136/11/2
f 137/11/2 138/11/2 139/11/2
f 142/11/3 141/11/3 140/11/3
f 141/11/3 142/11/3 143/11/3
f 137/11/21 142/11/21 140/11/21
f 142/11/21 137/11/21 139/11/21
f 137/11/11 141/11/11 136/11/11
f 141/11/11 137/11/11 140/11/11
f 138/11/22 141/11/22 143/11/22
f 141/11/22 138/11/22 136/11/22
f 142/11/5 138/11/5 143/11/5
f 138/11/5 142/11/5 139/11/5

g iron-fence-border-column




usemtl colormap

f 3/1/1 2/2/2 1/1/1
f 2/2/2 3/1/1 4/2/2
f 7/2/3 6/1/4 5/2/3
f 6/1/4 7/2/3 8/1/4
f 11/3/5 10/4/6 9/3/5
f 10/4/6 11/3/5 12/4/6
f 13/5/7 3/1/1 1/1/1
f 3/1/1 13/5/7 14/5/7
f 16/6/2 13/5/2 15/6/2
f 13/5/2 16/6/2 14/5/2
f 18/4/8 11/3/3 17/3/3
f 11/3/3 18/4/8 12/4/8
f 10/4/9 15/6/10 19/4/9
f 15/6/10 10/4/9 16/6/10
f 13/5/11 20/6/11 15/6/11
f 20/6/11 13/5/11 21/5/11
f 19/4/12 17/3/11 22/3/11
f 17/3/11 19/4/12 18/4/12
f 8/1/14 14/5/13 23/5/13
f 14/5/13 8/1/14 3/1/14
f 15/6/15 18/4/12 19/4/12
f 18/4/12 15/6/15 20/6/15
f 8/1/4 21/5/16 6/1/4
f 21/5/16 8/1/4 23/5/16
f 20/6/17 12/4/8 18/4/8
f 12/4/8 20/6/17 24/6/17
f 23/5/5 16/6/5 24/6/5
f 16/6/5 23/5/5 14/5/5
f 23/5/3 20/6/3 21/5/3
f 20/6/3 23/5/3 24/6/3
f 1/1/19 21/5/18 13/5/18
f 21/5/18 1/1/19 6/1/19
f 7/2/5 3/1/14 8/1/14
f 3/1/14 7/2/5 4/2/5
f 2/2/11 6/1/19 1/1/19
f 6/1/19 2/2/11 5/2/11
f 24/6/20 10/4/6 12/4/6
f 10/4/6 24/6/20 16/6/20
f 2/2/21 7/2/21 5/2/21
f 7/2/21 2/2/21 4/2/21
f 9/3/22 17/3/22 11/3/22
f 17/3/22 9/3/22 22/3/22
f 9/3/2 19/4/9 22/3/2
f 19/4/9 9/3/2 10/4/9
f 27/5/23 26/2/24 25/5/23
f 26/2/26 28/5/25 25/5/25
f 29/5/28 28/5/28 26/2/27
f 26/2/30 27/5/29 29/5/29
f 30/7/31 27/5/23 25/5/23
f 27/5/23 30/7/31 31/7/31
f 29/5/28 32/7/32 28/5/28
f 32/7/32 29/5/28 33/7/32
f 25/5/25 32/7/33 30/7/33
f 32/7/33 25/5/25 28/5/25
f 29/5/29 31/7/34 33/7/34
f 31/7/34 29/5/29 27/5/29
f 36/5/23 35/2/24 34/5/23
f 35/2/26 37/5/25 34/5/25
f 38/5/28 37/5/28 35/2/27
f 35/2/30 36/5/29 38/5/29
f 39/7/31 36/5/23 34/5/23
f 36/5/23 39/7/31 40/7/31
f 38/5/28 41/7/32 37/5/28
f 41/7/32 38/5/28 42/7/32
f 34/5/25 41/7/33 39/7/33
f 41/7/33 34/5/25 37/5/25
f 38/5/29 40/7/34 42/7/34
f 40/7/34 38/5/29 36/5/29
f 45/5/23 44/2/24 43/5/23
f 44/2/26 46/5/25 43/5/25
f 47/5/28 46/5/28 44/2/27
f 44/2/30 45/5/29 47/5/29
f 48/7/31 45/5/23 43/5/23
f 45/5/23 48/7/31 49/7/31
f 47/5/28 50/7/32 46/5/28
f 50/7/32 47/5/28 51/7/32
f 43/5/25 50/7/33 48/7/33
f 50/7/33 43/5/25 46/5/25
f 47/5/29 49/7/34 51/7/34
f 49/7/34 47/5/29 45/5/29
f 54/5/23 53/2/24 52/5/23
f 53/2/26 55/5/25 52/5/25
f 56/5/28 55/5/28 53/2/27
f 53/2/30 54/5/29 56/5/29
f 57/7/31 54/5/23 52/5/23
f 54/5/23 57/7/31 58/7/31
f 56/5/28 59/7/32 55/5/28
f 59/7/32 56/5/28 60/7/32
f 52/5/25 59/7/33 57/7/33
f 59/7/33 52/5/25 55/5/25
f 56/5/29 58/7/34 60/7/34
f 58/7/34 56/5/29 54/5/29
f 63/5/23 62/2/24 61/5/23
f 62/2/26 64/5/25 61/5/25
f 65/5/28 64/5/28 62/2/27
f 62/2/30 63/5/29 65/5/29
f 66/7/31 63/5/23 61/5/23
f 63/5/23 66/7/31 67/7/31
f 65/5/28 68/7/32 64/5/28
f 68/7/32 65/5/28 69/7/32
f 61/5/25 68/7/33 66/7/33
f 68/7/33 61/5/25 64/5/25
f 65/5/29 67/7/34 69/7/34
f 67/7/34 65/5/29 63/5/29
f 72/5/23 71/2/24 70/5/23
f 71/2/26 73/5/25 70/5/25
f 74/5/28 73/5/28 71/2/27
f 71/2/30 72/5/29 74/5/29
f 75/7/31 72/5/23 70/5/23
f 72/5/23 75/7/31 76/7/31
f 74/5/28 77/7/32 73/5/28
f 77/7/32 74/5/28 78/7/32
f 70/5/25 77/7/33 75/7/33
f 77/7/33 70/5/25 73/5/25
f 74/5/29 76/7/34 78/7/34
f 76/7/34 74/5/29 72/5/29
f 81/5/23 80/2/24 79/5/23
f 80/2/26 82/5/25 79/5/25
f 83/5/28 82/5/28 80/2/27
f 80/2/30 81/5/29 83/5/29
f 84/7/31 81/5/23 79/5/23
f 81/5/23 84/7/31 85/7/31
f 83/5/28 86/7/32 82/5/28
f 86/7/32 83/5/28 87/7/32
f 79/5/25 86/7/33 84/7/33
f 86/7/33 79/5/25 82/5/25
f 83/5/29 85/7/34 87/7/34
f 85/7/34 83/5/29 81/5/29
f 90/2/21 89/2/21 88/2/21
f 89/2/21 90/2/21 91/2/21
f 89/2/36 93/8/35 92/8/35
f 93/8/35 89/2/36 91/2/36
f 96/8/37 95/3/11 94/3/11
f 95/3/11 96/8/37 97/8/37
f 99/3/22 95/3/22 98/3/22
f 95/3/22 99/3/22 94/3/22
f 88/2/3 95/3/3 97/8/3
f 95/3/3 88/2/3 98/3/3
f 98/3/3 88/2/3 89/2/3
f 98/3/3 89/2/3 92/8/3
f 92/8/35 99/3/5 98/3/5
f 99/3/5 92/8/35 93/8/35
f 90/2/38 97/8/37 96/8/37
f 97/8/37 90/2/38 88/2/38
f 99/3/2 96/8/2 94/3/2
f 96/8/2 99/3/2 90/2/2
f 90/2/2 99/3/2 91/2/2
f 91/2/2 99/3/2 93/8/2
f 33/10/5 101/9/5 100/9/5
f 101/9/5 33/10/5 31/10/5
f 101/9/22 102/9/22 100/9/22
f 102/9/22 101/9/22 103/9/22
f 30/10/11 102/9/11 103/9/11
f 102/9/11 30/10/11 32/10/11
f 101/9/2 30/10/2 103/9/2
f 30/10/2 101/9/2 31/10/2
f 33/10/3 102/9/3 32/10/3
f 102/9/3 33/10/3 100/9/3
f 42/10/5 105/9/5 104/9/5
f 105/9/5 42/10/5 40/10/5
f 105/9/22 106/9/22 104/9/22
f 106/9/22 105/9/22 107/9/22
f 39/10/11 106/9/11 107/9/11
f 106/9/11 39/10/11 41/10/11
f 105/9/2 39/10/2 107/9/2
f 39/10/2 105/9/2 40/10/2
f 42/10/3 106/9/3 41/10/3
f 106/9/3 42/10/3 104/9/3
f 51/10/5 109/9/5 108/9/5
f 109/9/5 51/10/5 49/10/5
f 109/9/22 110/9/22 108/9/22
f 110/9/22 109/9/22 111/9/22
f 48/10/11 110/9/11 111/9/11
f 110/9/11 48/10/11 50/10/11
f 109/9/2 48/10/2 111/9/2
f 48/10/2 109/9/2 49/10/2
f 51/10/3 110/9/3 50/10/3
f 110/9/3 51/10/3 108/9/3
f 60/10/5 113/9/5 112/9/5
f 113/9/5 60/10/5 58/10/5
f 113/9/22 114/9/22 112/9/22
f 114/9/22 113/9/22 115/9/22
f 57/10/11 114/9/11 115/9/11
f 114/9/11 57/10/11 59/10/11
f 113/9/2 57/10/2 115/9/2
f 57/10/2 113/9/2 58/10/2
f 60/10/3 114/9/3 59/10/3
f 114/9/3 60/10/3 112/9/3
f 69/10/5 117/9/5 116/9/5
f 117/9/5 69/10/5 67/10/5
f 117/9/22 118/9/22 116/9/22
f 118/9/22 117/9/22 119/9/22
f 66/10/11 118/9/11 119/9/11
f 118/9/11 66/10/11 68/10/11
f 117/9/2 66/10/2 119/9/2
f 66/10/2 117/9/2 67/10/2
f 69/10/3 118/9/3 68/10/3
f 118/9/3 69/10/3 116/9/3
f 78/10/5 121/9/5 120/9/5
f 121/9/5 78/10/5 76/10/5
f 121/9/22 122/9/22 120/9/22
f 122/9/22 121/9/22 123/9/22
f 75/10/11 122/9/11 123/9/11
f 122/9/11 75/10/11 77/10/11
f 121/9/2 75/10/2 123/9/2
f 75/10/2 121/9/2 76/10/2
f 78/10/3 122/9/3 77/10/3
f 122/9/3 78/10/3 120/9/3
f 87/10/5 125/9/5 124/9/5
f 125/9/5 87/10/5 85/10/5
f 125/9/22 126/9/22 124/9/22
f 126/9/22 125/9/22 127/9/22
f 84/10/11 126/9/11 127/9/11
f 126/9/11 84/10/11 86/10/11
f 125/9/2 84/10/2 127/9/2
f 84/10/2 125/9/2 85/10/2
f 87/10/3 126/9/3 86/10/3
f 126/9/3 87/10/3 124/9/3
f 130/11/3 129/11/3 128/11/3
f 129/11/3 130/11/3 131/11/3
f 134/11/2 133/11/2 132/11/2
f 133/11/2 134/11/2 135/11/2
f 130/11/5 134/11/5 131/11/5
f 134/11/5 130/11/5 135/11/5
f 134/11/22 129/11/22 131/11/22
f 129/11/22 134/11/22 132/11/22
f 133/11/21 130/11/21 128/11/21
f 130/11/21 133/11/21 135/11/21
f 133/11/11 129/11/11 132/11/11
f 129/11/11 133/11/11 128/11/11
f 138/11/2 137/11/2 136/11/2
f 137/11/2 138/11/2 139/11/2
f 142/11/3 141/11/3 140/11/3
f 141/11/3 142/11/3 143/11/3
f 137/11/21 142/11/21 140/11/21
f 142/11/21 137/11/21 139/11/21
f 137/11/11 141/11/11 136/11/11
f 141/11/11 137/11/11 140/11/11
f 138/11/22 141/11/22 143/11/22
f 141/11/22 138/11/22 136/11/22
f 142/11/5 138/11/5 143/11/5
f 138/11/5 142/11/5 139/11/5

