# Created by Kenney (www.kenney.nl)

mtllib lantern-candle.mtl

g lantern-candle

v 0.068991 0.0549 -0.04764039 1 1 1
v 0.04764039 0.0549 -0.04764039 1 1 1
v 0.068991 0.2135 -0.04764039 1 1 1
v 0.04764039 0.2135 -0.04764039 1 1 1
v 0.04764039 0.0549 -0.068991 1 1 1
v 0.04764039 0.2135 -0.068991 1 1 1
v -0.04764039 0.0549 -0.04764039 1 1 1
v -0.068991 0.0549 -0.04764039 1 1 1
v -0.04764039 0.2135 -0.04764039 1 1 1
v -0.068991 0.2135 -0.04764039 1 1 1
v -0.02153727 0.2623 -0.01153693 1 1 1
v -0.01118679 0.2623 -0.01153693 1 1 1
v -0.02153727 0.2871251 -0.01153693 1 1 1
v 0.02153727 0.2623 -0.01153693 1 1 1
v 0.02153727 0.2871251 -0.01153693 1 1 1
v -0.01636203 0.2922998 -0.01153693 1 1 1
v 0.01636203 0.2922998 -0.01153693 1 1 1
v 0.02153727 0.2871251 0.01153693 1 1 1
v 0.02153727 0.2623 0.01153693 1 1 1
v 0.072956 0 0.072956 1 1 1
v 0.072956 0 -0.072956 1 1 1
v -0.072956 0 0.072956 1 1 1
v -0.072956 0 -0.072956 1 1 1
v 0.068991 0.0549 0.068991 1 1 1
v 0.068991 0.244 0.068991 1 1 1
v 0.068991 0.0549 0.04764039 1 1 1
v 0.068991 0.2135 0.04764039 1 1 1
v 0.068991 0.244 -0.068991 1 1 1
v 0.068991 0.0549 -0.068991 1 1 1
v -0.068991 0.0549 -0.068991 1 1 1
v -0.04764039 0.0549 -0.068991 1 1 1
v -0.068991 0.244 -0.068991 1 1 1
v -0.04764039 0.2135 -0.068991 1 1 1
v 0.072956 0.0366 0.072956 1 1 1
v -0.072956 0.0366 0.072956 1 1 1
v -0.068991 0.0549 0.068991 1 1 1
v 0.04764039 0.0549 0.068991 1 1 1
v -0.04764039 0.0549 0.068991 1 1 1
v -0.072956 0.0366 -0.072956 1 1 1
v 0.072956 0.0366 -0.072956 1 1 1
v -0.068991 0.2135 0.04764039 1 1 1
v -0.04764039 0.2135 0.04764039 1 1 1
v -0.04764039 0.2135 0.068991 1 1 1
v 0.04764039 0.2135 0.04764039 1 1 1
v 0.04764039 0.2135 0.068991 1 1 1
v 0.04764039 0.0549 0.04764039 1 1 1
v 0.05293214 0.244 0.05293214 1 1 1
v -0.05293214 0.244 0.05293214 1 1 1
v 0.04763917 0.2623 0.04763917 1 1 1
v -0.04763917 0.2623 0.04763917 1 1 1
v 0.01636203 0.2922998 0.01153693 1 1 1
v -0.01636203 0.2922998 0.01153693 1 1 1
v -0.04764039 0.0549 0.04764039 1 1 1
v -0.02153727 0.2623 0.01153693 1 1 1
v -0.02153727 0.2871251 0.01153693 1 1 1
v -0.068991 0.0549 0.04764039 1 1 1
v -0.05293214 0.244 -0.05293214 1 1 1
v -0.04763917 0.2623 -0.04763917 1 1 1
v -0.01118679 0.2623 0.01153693 1 1 1
v -0.068991 0.244 0.068991 1 1 1
v 0.05293214 0.244 -0.05293214 1 1 1
v 0.04763917 0.2623 -0.04763917 1 1 1
v 0.0299998 0.1248999 -7.219114E-16 1 1 1
v 0.0149999 0.1248999 0.02598059 1 1 1
v 0.0149999 0.1248999 -0.02598059 1 1 1
v -0.0149999 0.1248999 -0.02598059 1 1 1
v -0.0149999 0.1248999 0.02598059 1 1 1
v -0.0299998 0.1248999 -7.219114E-16 1 1 1
v -0.0149999 0.0549 -0.02598059 1 1 1
v -0.0299998 0.0549 -7.219114E-16 1 1 1
v 0.0299998 0.0549 -7.219114E-16 1 1 1
v 0.0149999 0.0549 0.02598059 1 1 1
v 0.0149999 0.0549 -0.02598059 1 1 1
v -0.0149999 0.0549 0.02598059 1 1 1

vn 0 0 1
vn -1 0 0
vn 0 0 -1
vn 0.9238682 0.3827107 0
vn 1 0 0
vn 0 -1 0
vn 0 0.09890323 0.995097
vn 0 0.2117534 0.9773232
vn -0.995097 0.09890323 0
vn 0.995097 0.09890323 0
vn 0.9773232 0.2117534 0
vn 0 0.09890323 -0.995097
vn 0 0.2117534 -0.9773232
vn 0.6544727 0.3785906 0.6544727
vn -0.6544727 0.3785906 0.6544727
vn 0.3826562 0.9238908 0
vn -0.3826562 0.9238908 0
vn -0.9238682 0.3827107 0
vn -0.6544727 0.3785906 -0.6544727
vn -0.9773232 0.2117534 0
vn 0.6544727 0.3785906 -0.6544727
vn 0 1 0
vn -0.5 0 -0.8660254
vn 0.5 0 0.8660254
vn 0.5 0 -0.8660254
vn -0.5 0 0.8660254

vt 0.34375 0.3125642
vt 0.34375 0.4210829
vt 0.34375 0.4544733
vt 0.34375 0.4714594
vt 0.34375 0.475
vt 0.34375 0.275
vt 0.34375 0.4419519
vt 0.34375 0.3000428
vt 0.09375 0.475
vt 0.09375 0.275
vt 0.84375 0.025

usemtl colormap

f 3/2/1 2/1/1 1/1/1
f 2/1/1 3/2/1 4/2/1
f 2/1/2 6/2/2 5/1/2
f 6/2/2 2/1/2 4/2/2
f 9/2/1 8/1/1 7/1/1
f 8/1/1 9/2/1 10/2/1
f 13/4/3 12/3/3 11/3/3
f 12/3/3 13/4/3 14/3/3
f 14/3/3 13/4/3 15/4/3
f 15/4/3 13/4/3 16/5/3
f 15/4/3 16/5/3 17/5/3
f 18/4/4 14/3/5 15/4/4
f 14/3/5 18/4/4 19/3/5
f 22/6/6 21/6/6 20/6/6
f 21/6/6 22/6/6 23/6/6
f 26/1/5 25/7/5 24/1/5
f 27/2/5 25/7/5 26/1/5
f 3/2/5 25/7/5 27/2/5
f 3/2/5 28/7/5 25/7/5
f 28/7/5 3/2/5 29/1/5
f 1/1/5 29/1/5 3/2/5
f 32/7/3 31/1/3 30/1/3
f 31/1/3 32/7/3 33/2/3
f 33/2/3 32/7/3 6/2/3
f 28/7/3 6/2/3 32/7/3
f 29/1/3 6/2/3 28/7/3
f 6/2/3 29/1/3 5/1/3
f 24/1/8 35/8/7 34/8/7
f 35/8/7 24/1/8 36/1/8
f 36/1/8 24/1/8 37/1/8
f 36/1/8 37/1/8 38/1/8
f 22/6/2 39/8/9 23/6/2
f 39/8/9 22/6/2 35/8/9
f 29/1/11 34/8/10 40/8/10
f 34/8/10 29/1/11 1/1/11
f 34/8/10 1/1/11 26/1/11
f 34/8/10 26/1/11 24/1/11
f 9/2/6 41/2/6 10/2/6
f 41/2/6 9/2/6 42/2/6
f 33/2/6 42/2/6 9/2/6
f 33/2/6 43/2/6 42/2/6
f 6/2/6 43/2/6 33/2/6
f 4/2/6 43/2/6 6/2/6
f 44/2/6 43/2/6 4/2/6
f 43/2/6 44/2/6 45/2/6
f 3/2/6 44/2/6 4/2/6
f 44/2/6 3/2/6 27/2/6
f 37/1/2 44/2/2 46/1/2
f 44/2/2 37/1/2 45/2/2
f 30/1/13 40/8/12 39/8/12
f 40/8/12 30/1/13 29/1/13
f 29/1/13 30/1/13 31/1/13
f 29/1/13 31/1/13 5/1/13
f 49/3/14 48/7/15 47/7/14
f 48/7/15 49/3/14 50/3/15
f 16/5/17 51/5/16 17/5/16
f 51/5/16 16/5/17 52/5/17
f 43/2/5 53/1/5 42/2/5
f 53/1/5 43/2/5 38/1/5
f 34/8/7 22/6/1 20/6/1
f 22/6/1 34/8/7 35/8/7
f 54/3/2 13/4/18 11/3/2
f 13/4/18 54/3/2 55/4/18
f 41/2/3 53/1/3 56/1/3
f 53/1/3 41/2/3 42/2/3
f 48/7/15 58/3/19 57/7/19
f 58/3/19 48/7/15 50/3/15
f 18/4/1 59/3/1 19/3/1
f 59/3/1 18/4/1 54/3/1
f 54/3/1 18/4/1 55/4/1
f 55/4/1 18/4/1 51/5/1
f 55/4/1 51/5/1 52/5/1
f 36/1/2 41/2/2 56/1/2
f 60/7/2 41/2/2 36/1/2
f 60/7/2 10/2/2 41/2/2
f 32/7/2 10/2/2 60/7/2
f 32/7/2 8/1/2 10/2/2
f 8/1/2 32/7/2 30/1/2
f 13/4/18 52/5/17 16/5/17
f 52/5/17 13/4/18 55/4/18
f 44/2/3 26/1/3 46/1/3
f 26/1/3 44/2/3 27/2/3
f 25/7/1 37/1/1 24/1/1
f 37/1/1 25/7/1 45/2/1
f 45/2/1 25/7/1 43/2/1
f 60/7/1 43/2/1 25/7/1
f 36/1/1 43/2/1 60/7/1
f 43/2/1 36/1/1 38/1/1
f 34/8/10 21/6/5 40/8/10
f 21/6/5 34/8/10 20/6/5
f 17/5/16 18/4/4 15/4/4
f 18/4/4 17/5/16 51/5/16
f 35/8/9 30/1/20 39/8/9
f 30/1/20 35/8/9 8/1/20
f 8/1/20 35/8/9 56/1/20
f 56/1/20 35/8/9 36/1/20
f 58/3/19 61/7/21 57/7/19
f 61/7/21 58/3/19 62/3/21
f 62/3/21 47/7/14 61/7/21
f 47/7/14 62/3/21 49/3/14
f 39/8/12 21/6/3 23/6/3
f 21/6/3 39/8/12 40/8/12
f 9/2/5 31/1/5 33/2/5
f 31/1/5 9/2/5 7/1/5
f 53/1/22 8/1/22 56/1/22
f 8/1/22 53/1/22 7/1/22
f 38/1/22 7/1/22 53/1/22
f 38/1/22 31/1/22 7/1/22
f 37/1/22 31/1/22 38/1/22
f 46/1/22 31/1/22 37/1/22
f 2/1/22 31/1/22 46/1/22
f 31/1/22 2/1/22 5/1/22
f 26/1/22 2/1/22 46/1/22
f 2/1/22 26/1/22 1/1/22
f 61/7/22 32/7/22 57/7/22
f 57/7/22 32/7/22 48/7/22
f 61/7/22 28/7/22 32/7/22
f 60/7/22 48/7/22 32/7/22
f 28/7/22 61/7/22 25/7/22
f 60/7/22 47/7/22 48/7/22
f 25/7/22 47/7/22 60/7/22
f 47/7/22 25/7/22 61/7/22
f 12/3/22 58/3/22 11/3/22
f 11/3/22 58/3/22 54/3/22
f 14/3/22 58/3/22 12/3/22
f 14/3/22 62/3/22 58/3/22
f 62/3/22 14/3/22 49/3/22
f 19/3/22 49/3/22 14/3/22
f 50/3/22 54/3/22 58/3/22
f 49/3/22 19/3/22 50/3/22
f 50/3/22 59/3/22 54/3/22
f 50/3/22 19/3/22 59/3/22
f 65/9/22 64/9/22 63/9/22
f 64/9/22 65/9/22 66/9/22
f 64/9/22 66/9/22 67/9/22
f 67/9/22 66/9/22 68/9/22
f 70/10/2 66/9/23 69/10/23
f 66/9/23 70/10/2 68/9/2
f 64/9/24 71/10/5 63/9/5
f 71/10/5 64/9/24 72/10/24
f 63/9/5 73/10/25 65/9/25
f 73/10/25 63/9/5 71/10/5
f 74/10/26 68/9/2 70/10/2
f 68/9/2 74/10/26 67/9/26
f 66/9/23 73/10/25 69/10/23
f 73/10/25 66/9/23 65/9/25
f 64/9/24 74/10/26 72/10/24
f 74/10/26 64/9/24 67/9/26
f 72/11/6 73/11/6 71/11/6
f 73/11/6 72/11/6 74/11/6
f 73/11/6 74/11/6 69/11/6
f 69/11/6 74/11/6 70/11/6

g lantern-candle




usemtl colormap

f 3/2/1 2/1/1 1/1/1
f 2/1/1 3/2/1 4/2/1
f 2/1/2 6/2/2 5/1/2
f 6/2/2 2/1/2 4/2/2
f 9/2/1 8/1/1 7/1/1
f 8/1/1 9/2/1 10/2/1
f 13/4/3 12/3/3 11/3/3
f 12/3/3 13/4/3 14/3/3
f 14/3/3 13/4/3 15/4/3
f 15/4/3 13/4/3 16/5/3
f 15/4/3 16/5/3 17/5/3
f 18/4/4 14/3/5 15/4/4
f 14/3/5 18/4/4 19/3/5
f 22/6/6 21/6/6 20/6/6
f 21/6/6 22/6/6 23/6/6
f 26/1/5 25/7/5 24/1/5
f 27/2/5 25/7/5 26/1/5
f 3/2/5 25/7/5 27/2/5
f 3/2/5 28/7/5 25/7/5
f 28/7/5 3/2/5 29/1/5
f 1/1/5 29/1/5 3/2/5
f 32/7/3 31/1/3 30/1/3
f 31/1/3 32/7/3 33/2/3
f 33/2/3 32/7/3 6/2/3
f 28/7/3 6/2/3 32/7/3
f 29/1/3 6/2/3 28/7/3
f 6/2/3 29/1/3 5/1/3
f 24/1/8 35/8/7 34/8/7
f 35/8/7 24/1/8 36/1/8
f 36/1/8 24/1/8 37/1/8
f 36/1/8 37/1/8 38/1/8
f 22/6/2 39/8/9 23/6/2
f 39/8/9 22/6/2 35/8/9
f 29/1/11 34/8/10 40/8/10
f 34/8/10 29/1/11 1/1/11
f 34/8/10 1/1/11 26/1/11
f 34/8/10 26/1/11 24/1/11
f 9/2/6 41/2/6 10/2/6
f 41/2/6 9/2/6 42/2/6
f 33/2/6 42/2/6 9/2/6
f 33/2/6 43/2/6 42/2/6
f 6/2/6 43/2/6 33/2/6
f 4/2/6 43/2/6 6/2/6
f 44/2/6 43/2/6 4/2/6
f 43/2/6 44/2/6 45/2/6
f 3/2/6 44/2/6 4/2/6
f 44/2/6 3/2/6 27/2/6
f 37/1/2 44/2/2 46/1/2
f 44/2/2 37/1/2 45/2/2
f 30/1/13 40/8/12 39/8/12
f 40/8/12 30/1/13 29/1/13
f 29/1/13 30/1/13 31/1/13
f 29/1/13 31/1/13 5/1/13
f 49/3/14 48/7/15 47/7/14
f 48/7/15 49/3/14 50/3/15
f 16/5/17 51/5/16 17/5/16
f 51/5/16 16/5/17 52/5/17
f 43/2/5 53/1/5 42/2/5
f 53/1/5 43/2/5 38/1/5
f 34/8/7 22/6/1 20/6/1
f 22/6/1 34/8/7 35/8/7
f 54/3/2 13/4/18 11/3/2
f 13/4/18 54/3/2 55/4/18
f 41/2/3 53/1/3 56/1/3
f 53/1/3 41/2/3 42/2/3
f 48/7/15 58/3/19 57/7/19
f 58/3/19 48/7/15 50/3/15
f 18/4/1 59/3/1 19/3/1
f 59/3/1 18/4/1 54/3/1
f 54/3/1 18/4/1 55/4/1
f 55/4/1 18/4/1 51/5/1
f 55/4/1 51/5/1 52/5/1
f 36/1/2 41/2/2 56/1/2
f 60/7/2 41/2/2 36/1/2
f 60/7/2 10/2/2 41/2/2
f 32/7/2 10/2/2 60/7/2
f 32/7/2 8/1/2 10/2/2
f 8/1/2 32/7/2 30/1/2
f 13/4/18 52/5/17 16/5/17
f 52/5/17 13/4/18 55/4/18
f 44/2/3 26/1/3 46/1/3
f 26/1/3 44/2/3 27/2/3
f 25/7/1 37/1/1 24/1/1
f 37/1/1 25/7/1 45/2/1
f 45/2/1 25/7/1 43/2/1
f 60/7/1 43/2/1 25/7/1
f 36/1/1 43/2/1 60/7/1
f 43/2/1 36/1/1 38/1/1
f 34/8/10 21/6/5 40/8/10
f 21/6/5 34/8/10 20/6/5
f 17/5/16 18/4/4 15/4/4
f 18/4/4 17/5/16 51/5/16
f 35/8/9 30/1/20 39/8/9
f 30/1/20 35/8/9 8/1/20
f 8/1/20 35/8/9 56/1/20
f 56/1/20 35/8/9 36/1/20
f 58/3/19 61/7/21 57/7/19
f 61/7/21 58/3/19 62/3/21
f 62/3/21 47/7/14 61/7/21
f 47/7/14 62/3/21 49/3/14
f 39/8/12 21/6/3 23/6/3
f 21/6/3 39/8/12 40/8/12
f 9/2/5 31/1/5 33/2/5
f 31/1/5 9/2/5 7/1/5
f 53/1/22 8/1/22 56/1/22
f 8/1/22 53/1/22 7/1/22
f 38/1/22 7/1/22 53/1/22
f 38/1/22 31/1/22 7/1/22
f 37/1/22 31/1/22 38/1/22
f 46/1/22 31/1/22 37/1/22
f 2/1/22 31/1/22 46/1/22
f 31/1/22 2/1/22 5/1/22
f 26/1/22 2/1/22 46/1/22
f 2/1/22 26/1/22 1/1/22
f 61/7/22 32/7/22 57/7/22
f 57/7/22 32/7/22 48/7/22
f 61/7/22 28/7/22 32/7/22
f 60/7/22 48/7/22 32/7/22
f 28/7/22 61/7/22 25/7/22
f 60/7/22 47/7/22 48/7/22
f 25/7/22 47/7/22 60/7/22
f 47/7/22 25/7/22 61/7/22
f 12/3/22 58/3/22 11/3/22
f 11/3/22 58/3/22 54/3/22
f 14/3/22 58/3/22 12/3/22
f 14/3/22 62/3/22 58/3/22
f 62/3/22 14/3/22 49/3/22
f 19/3/22 49/3/22 14/3/22
f 50/3/22 54/3/22 58/3/22
f 49/3/22 19/3/22 50/3/22
f 50/3/22 59/3/22 54/3/22
f 50/3/22 19/3/22 59/3/22
f 65/9/22 64/9/22 63/9/22
f 64/9/22 65/9/22 66/9/22
f 64/9/22 66/9/22 67/9/22
f 67/9/22 66/9/22 68/9/22
f 70/10/2 66/9/23 69/10/23
f 66/9/23 70/10/2 68/9/2
f 64/9/24 71/10/5 63/9/5
f 71/10/5 64/9/24 72/10/24
f 63/9/5 73/10/25 65/9/25
f 73/10/25 63/9/5 71/10/5
f 74/10/26 68/9/2 70/10/2
f 68/9/2 74/10/26 67/9/26
f 66/9/23 73/10/25 69/10/23
f 73/10/25 66/9/23 65/9/25
f 64/9/24 74/10/26 72/10/24
f 74/10/26 64/9/24 67/9/26
f 72/11/6 73/11/6 71/11/6
f 73/11/6 72/11/6 74/11/6
f 73/11/6 74/11/6 69/11/6
f 69/11/6 74/11/6 70/11/6

