# Created by Kenney (www.kenney.nl)

mtllib lantern-glass.mtl

g lantern-glass

v 0.072956 0.0366 -0.072956 1 1 1
v 0.072956 0.0366 0.072956 1 1 1
v 0.068991 0.0549 -0.068991 1 1 1
v 0.068991 0.0549 -0.04764039 1 1 1
v 0.068991 0.0549 0.04764039 1 1 1
v 0.068991 0.0549 0.068991 1 1 1
v -0.048316 0.0549 -0.04764039 1 1 1
v -0.048316 0.0549 0.04764039 1 1 1
v -0.068991 0.0549 -0.04764039 1 1 1
v -0.068991 0.0549 0.04764039 1 1 1
v 0.048316 0.0549 -0.04764039 1 1 1
v 0.048316 0.0549 0.04764039 1 1 1
v -0.072956 0 -0.072956 1 1 1
v 0.072956 0 -0.072956 1 1 1
v -0.072956 0.0366 -0.072956 1 1 1
v -0.01636203 0.2922998 -0.01153693 1 1 1
v -0.01636203 0.2922998 0.01153693 1 1 1
v -0.02153727 0.2871251 -0.01153693 1 1 1
v -0.02153727 0.2871251 0.01153693 1 1 1
v 0.068991 0.244 0.068991 1 1 1
v 0.068991 0.1235247 0.04764039 1 1 1
v 0.068991 0.1448753 0.04764039 1 1 1
v 0.068991 0.1235247 -0.04764039 1 1 1
v 0.068991 0.1448753 -0.04764039 1 1 1
v 0.068991 0.2135 0.04764039 1 1 1
v 0.068991 0.2135 -0.04764039 1 1 1
v 0.068991 0.244 -0.068991 1 1 1
v -0.05293214 0.244 -0.05293214 1 1 1
v 0.05293214 0.244 -0.05293214 1 1 1
v -0.04763917 0.2623 -0.04763917 1 1 1
v 0.04763917 0.2623 -0.04763917 1 1 1
v 0.072956 0 0.072956 1 1 1
v -0.072956 0 0.072956 1 1 1
v -0.068991 0.0549 -0.068991 1 1 1
v -0.072956 0.0366 0.072956 1 1 1
v -0.068991 0.0549 0.068991 1 1 1
v -0.02153727 0.2623 -0.01153693 1 1 1
v -0.02153727 0.2623 0.01153693 1 1 1
v 0.05293214 0.244 0.05293214 1 1 1
v -0.05293214 0.244 0.05293214 1 1 1
v 0.04763917 0.2623 0.04763917 1 1 1
v -0.04763917 0.2623 0.04763917 1 1 1
v 0.02153727 0.2623 0.01153693 1 1 1
v 0.01118679 0.2623 0.01153693 1 1 1
v 0.02153727 0.2871251 0.01153693 1 1 1
v 0.01636203 0.2922998 0.01153693 1 1 1
v -0.068991 0.1235247 0.04764039 1 1 1
v -0.048316 0.2135 0.04764039 1 1 1
v -0.068991 0.1448753 0.04764039 1 1 1
v -0.068991 0.2135 0.04764039 1 1 1
v 0.01118679 0.2623 -0.01153693 1 1 1
v 0.02153727 0.2623 -0.01153693 1 1 1
v 0.02153727 0.2871251 -0.01153693 1 1 1
v 0.01636203 0.2922998 -0.01153693 1 1 1
v -0.04764039 0.2135 -0.068991 1 1 1
v -0.04764039 0.1448753 -0.068991 1 1 1
v -0.04764039 0.2135 -0.048316 1 1 1
v -0.04764039 0.1235247 -0.068991 1 1 1
v -0.04764039 0.0549 -0.068991 1 1 1
v -0.04764039 0.0549 -0.048316 1 1 1
v 0.04764039 0.1235247 -0.068991 1 1 1
v 0.04764039 0.1448753 -0.068991 1 1 1
v 0.04764039 0.0549 -0.068991 1 1 1
v 0.04764039 0.2135 -0.068991 1 1 1
v 0.04764039 0.0549 -0.048316 1 1 1
v 0.04764039 0.2135 -0.048316 1 1 1
v 0.04764039 0.0549 0.068991 1 1 1
v -0.04764039 0.0549 0.068991 1 1 1
v 0.04764039 0.0549 0.048316 1 1 1
v -0.04764039 0.0549 0.048316 1 1 1
v -0.068991 0.244 -0.068991 1 1 1
v -0.068991 0.1235247 -0.04764039 1 1 1
v -0.068991 0.1448753 -0.04764039 1 1 1
v -0.068991 0.2135 -0.04764039 1 1 1
v -0.068991 0.244 0.068991 1 1 1
v 0.04764039 0.1235247 0.068991 1 1 1
v 0.04764039 0.1448753 0.068991 1 1 1
v -0.04764039 0.1235247 0.068991 1 1 1
v 0.04764039 0.2135 0.068991 1 1 1
v -0.04764039 0.2135 0.068991 1 1 1
v -0.04764039 0.1448753 0.068991 1 1 1
v 0.048316 0.2135 0.04764039 1 1 1
v 0.048316 0.2135 -0.04764039 1 1 1
v -0.048316 0.2135 -0.04764039 1 1 1
v 0.04764039 0.2135 0.048316 1 1 1
v -0.04764039 0.2135 0.048316 1 1 1

vn 0.995097 0.09890323 0
vn 0.9773232 0.2117534 0
vn 0 1 0
vn 0 0 -1
vn 0 0.09890323 -0.995097
vn -0.3826562 0.9238908 0
vn -0.9238682 0.3827107 0
vn 1 0 0
vn -0.6544727 0.3785906 -0.6544727
vn 0.6544727 0.3785906 -0.6544727
vn 0 -1 0
vn -0.995097 0.09890323 0
vn -0.9773232 0.2117534 0
vn -1 0 0
vn 0.6544727 0.3785906 0.6544727
vn -0.6544727 0.3785906 0.6544727
vn 0 0 1
vn 0 0.09890323 0.995097
vn 0 0.2117534 0.9773232
vn 0.9238682 0.3827107 0
vn 0.3826562 0.9238908 0
vn 0 0.2117534 -0.9773232

vt 0.34375 0.3000428
vt 0.34375 0.3125642
vt 0.34375 0.275
vt 0.34375 0.475
vt 0.34375 0.4714594
vt 0.34375 0.4419519
vt 0.34375 0.3595192
vt 0.34375 0.3741279
vt 0.34375 0.4210829
vt 0.34375 0.4544733
vt 0.46875 0.3125642
vt 0.46875 0.4210829

usemtl colormap

f 3/2/2 2/1/1 1/1/1
f 2/1/1 3/2/2 4/2/2
f 2/1/1 4/2/2 5/2/2
f 2/1/1 5/2/2 6/2/2
f 9/2/3 8/2/3 7/2/3
f 8/2/3 9/2/3 10/2/3
f 11/2/3 5/2/3 4/2/3
f 5/2/3 11/2/3 12/2/3
f 15/1/5 14/3/4 13/3/4
f 14/3/4 15/1/5 1/1/5
f 18/5/7 17/4/6 16/4/6
f 17/4/6 18/5/7 19/5/7
f 5/2/8 20/6/8 6/2/8
f 21/7/8 20/6/8 5/2/8
f 22/8/8 20/6/8 21/7/8
f 23/7/8 22/8/8 21/7/8
f 22/8/8 23/7/8 24/8/8
f 25/9/8 20/6/8 22/8/8
f 26/9/8 20/6/8 25/9/8
f 26/9/8 27/6/8 20/6/8
f 27/6/8 26/9/8 3/2/8
f 26/9/8 4/2/8 3/2/8
f 4/2/8 26/9/8 24/8/8
f 4/2/8 24/8/8 23/7/8
f 30/10/9 29/6/10 28/6/9
f 29/6/10 30/10/9 31/10/10
f 2/1/1 14/3/8 1/1/1
f 14/3/8 2/1/1 32/3/8
f 33/3/11 14/3/11 32/3/11
f 14/3/11 33/3/11 13/3/11
f 35/1/12 34/2/13 15/1/12
f 34/2/13 35/1/12 9/2/13
f 9/2/13 35/1/12 10/2/13
f 10/2/13 35/1/12 36/2/13
f 38/10/14 18/5/7 37/10/14
f 18/5/7 38/10/14 19/5/7
f 41/10/15 40/6/16 39/6/15
f 40/6/16 41/10/15 42/10/16
f 2/1/18 33/3/17 32/3/17
f 33/3/17 2/1/18 35/1/18
f 45/5/17 44/10/17 43/10/17
f 44/10/17 45/5/17 38/10/17
f 38/10/17 45/5/17 19/5/17
f 19/5/17 45/5/17 46/4/17
f 19/5/17 46/4/17 17/4/17
f 40/6/16 30/10/9 28/6/9
f 30/10/9 40/6/16 42/10/16
f 31/10/10 39/6/15 29/6/10
f 39/6/15 31/10/10 41/10/15
f 47/7/4 8/2/4 10/2/4
f 8/2/4 47/7/4 48/9/4
f 48/9/4 47/7/4 49/8/4
f 48/9/4 49/8/4 50/9/4
f 33/3/14 15/1/12 13/3/14
f 15/1/12 33/3/14 35/1/12
f 18/5/4 51/10/4 37/10/4
f 51/10/4 18/5/4 52/10/4
f 52/10/4 18/5/4 53/5/4
f 53/5/4 18/5/4 16/4/4
f 53/5/4 16/4/4 54/4/4
f 57/9/8 56/8/8 55/9/8
f 56/8/8 57/9/8 58/7/8
f 58/7/8 57/9/8 59/2/8
f 59/2/8 57/9/8 60/2/8
f 63/2/14 62/8/14 61/7/14
f 62/8/14 63/2/14 64/9/14
f 64/9/14 63/2/14 65/2/14
f 64/9/14 65/2/14 66/9/14
f 6/2/19 35/1/18 2/1/18
f 35/1/18 6/2/19 36/2/19
f 36/2/19 6/2/19 67/2/19
f 36/2/19 67/2/19 68/2/19
f 70/2/3 67/2/3 69/2/3
f 67/2/3 70/2/3 68/2/3
f 9/2/14 71/6/14 34/2/14
f 71/6/14 9/2/14 72/7/14
f 73/8/14 71/6/14 72/7/14
f 47/7/14 73/8/14 72/7/14
f 74/9/14 71/6/14 73/8/14
f 71/6/14 74/9/14 75/6/14
f 75/6/14 74/9/14 50/9/14
f 75/6/14 50/9/14 36/2/14
f 36/2/14 47/7/14 10/2/14
f 73/8/14 47/7/14 49/8/14
f 49/8/14 36/2/14 50/9/14
f 47/7/14 36/2/14 49/8/14
f 71/6/4 59/2/4 34/2/4
f 59/2/4 71/6/4 58/7/4
f 58/7/4 71/6/4 56/8/4
f 56/8/4 61/7/4 58/7/4
f 56/8/4 71/6/4 55/9/4
f 55/9/4 71/6/4 64/9/4
f 27/6/4 64/9/4 71/6/4
f 27/6/4 62/8/4 64/9/4
f 61/7/4 56/8/4 62/8/4
f 27/6/4 61/7/4 62/8/4
f 3/2/4 61/7/4 27/6/4
f 61/7/4 3/2/4 63/2/4
f 20/6/17 67/2/17 6/2/17
f 67/2/17 20/6/17 76/7/17
f 76/7/17 20/6/17 77/8/17
f 77/8/17 78/7/17 76/7/17
f 77/8/17 20/6/17 79/9/17
f 79/9/17 20/6/17 80/9/17
f 75/6/17 80/9/17 20/6/17
f 75/6/17 81/8/17 80/9/17
f 78/7/17 77/8/17 81/8/17
f 75/6/17 78/7/17 81/8/17
f 36/2/17 78/7/17 75/6/17
f 78/7/17 36/2/17 68/2/17
f 54/4/21 45/5/20 53/5/20
f 45/5/20 54/4/21 46/4/21
f 12/2/4 21/7/4 5/2/4
f 21/7/4 12/2/4 82/9/4
f 21/7/4 82/9/4 22/8/4
f 22/8/4 82/9/4 25/9/4
f 82/9/11 26/9/11 25/9/11
f 26/9/11 82/9/11 83/9/11
f 50/9/11 84/9/11 48/9/11
f 84/9/11 50/9/11 74/9/11
f 16/4/6 46/4/21 54/4/21
f 46/4/21 16/4/6 17/4/6
f 67/2/14 85/9/14 69/2/14
f 85/9/14 67/2/14 79/9/14
f 79/9/14 67/2/14 76/7/14
f 79/9/14 76/7/14 77/8/14
f 45/5/20 52/10/8 53/5/20
f 52/10/8 45/5/20 43/10/8
f 63/2/3 60/2/3 65/2/3
f 60/2/3 63/2/3 59/2/3
f 34/2/22 1/1/5 15/1/5
f 1/1/5 34/2/22 3/2/22
f 3/2/22 34/2/22 59/2/22
f 3/2/22 59/2/22 63/2/22
f 7/2/17 72/7/17 9/2/17
f 72/7/17 7/2/17 84/9/17
f 72/7/17 84/9/17 73/8/17
f 73/8/17 84/9/17 74/9/17
f 23/7/17 11/2/17 4/2/17
f 11/2/17 23/7/17 83/9/17
f 83/9/17 23/7/17 24/8/17
f 83/9/17 24/8/17 26/9/17
f 80/9/8 70/2/8 86/9/8
f 70/2/8 80/9/8 68/2/8
f 68/2/8 80/9/8 81/8/8
f 68/2/8 81/8/8 78/7/8
f 80/9/11 85/9/11 79/9/11
f 85/9/11 80/9/11 86/9/11
f 57/9/11 64/9/11 66/9/11
f 64/9/11 57/9/11 55/9/11
f 42/10/3 43/10/3 44/10/3
f 42/10/3 44/10/3 38/10/3
f 41/10/3 43/10/3 42/10/3
f 42/10/3 38/10/3 30/10/3
f 43/10/3 41/10/3 52/10/3
f 31/10/3 52/10/3 41/10/3
f 52/10/3 31/10/3 30/10/3
f 37/10/3 30/10/3 38/10/3
f 52/10/3 30/10/3 51/10/3
f 51/10/3 30/10/3 37/10/3
f 29/6/3 71/6/3 28/6/3
f 28/6/3 71/6/3 40/6/3
f 29/6/3 27/6/3 71/6/3
f 75/6/3 40/6/3 71/6/3
f 27/6/3 29/6/3 20/6/3
f 75/6/3 39/6/3 40/6/3
f 20/6/3 39/6/3 75/6/3
f 39/6/3 20/6/3 29/6/3
f 57/12/4 65/11/4 60/11/4
f 65/11/4 57/12/4 66/12/4
f 8/11/14 84/12/14 7/11/14
f 84/12/14 8/11/14 48/12/14
f 82/12/8 11/11/8 83/12/8
f 11/11/8 82/12/8 12/11/8
f 85/12/17 70/11/17 69/11/17
f 70/11/17 85/12/17 86/12/17

g lantern-glass




usemtl colormap

f 3/2/2 2/1/1 1/1/1
f 2/1/1 3/2/2 4/2/2
f 2/1/1 4/2/2 5/2/2
f 2/1/1 5/2/2 6/2/2
f 9/2/3 8/2/3 7/2/3
f 8/2/3 9/2/3 10/2/3
f 11/2/3 5/2/3 4/2/3
f 5/2/3 11/2/3 12/2/3
f 15/1/5 14/3/4 13/3/4
f 14/3/4 15/1/5 1/1/5
f 18/5/7 17/4/6 16/4/6
f 17/4/6 18/5/7 19/5/7
f 5/2/8 20/6/8 6/2/8
f 21/7/8 20/6/8 5/2/8
f 22/8/8 20/6/8 21/7/8
f 23/7/8 22/8/8 21/7/8
f 22/8/8 23/7/8 24/8/8
f 25/9/8 20/6/8 22/8/8
f 26/9/8 20/6/8 25/9/8
f 26/9/8 27/6/8 20/6/8
f 27/6/8 26/9/8 3/2/8
f 26/9/8 4/2/8 3/2/8
f 4/2/8 26/9/8 24/8/8
f 4/2/8 24/8/8 23/7/8
f 30/10/9 29/6/10 28/6/9
f 29/6/10 30/10/9 31/10/10
f 2/1/1 14/3/8 1/1/1
f 14/3/8 2/1/1 32/3/8
f 33/3/11 14/3/11 32/3/11
f 14/3/11 33/3/11 13/3/11
f 35/1/12 34/2/13 15/1/12
f 34/2/13 35/1/12 9/2/13
f 9/2/13 35/1/12 10/2/13
f 10/2/13 35/1/12 36/2/13
f 38/10/14 18/5/7 37/10/14
f 18/5/7 38/10/14 19/5/7
f 41/10/15 40/6/16 39/6/15
f 40/6/16 41/10/15 42/10/16
f 2/1/18 33/3/17 32/3/17
f 33/3/17 2/1/18 35/1/18
f 45/5/17 44/10/17 43/10/17
f 44/10/17 45/5/17 38/10/17
f 38/10/17 45/5/17 19/5/17
f 19/5/17 45/5/17 46/4/17
f 19/5/17 46/4/17 17/4/17
f 40/6/16 30/10/9 28/6/9
f 30/10/9 40/6/16 42/10/16
f 31/10/10 39/6/15 29/6/10
f 39/6/15 31/10/10 41/10/15
f 47/7/4 8/2/4 10/2/4
f 8/2/4 47/7/4 48/9/4
f 48/9/4 47/7/4 49/8/4
f 48/9/4 49/8/4 50/9/4
f 33/3/14 15/1/12 13/3/14
f 15/1/12 33/3/14 35/1/12
f 18/5/4 51/10/4 37/10/4
f 51/10/4 18/5/4 52/10/4
f 52/10/4 18/5/4 53/5/4
f 53/5/4 18/5/4 16/4/4
f 53/5/4 16/4/4 54/4/4
f 57/9/8 56/8/8 55/9/8
f 56/8/8 57/9/8 58/7/8
f 58/7/8 57/9/8 59/2/8
f 59/2/8 57/9/8 60/2/8
f 63/2/14 62/8/14 61/7/14
f 62/8/14 63/2/14 64/9/14
f 64/9/14 63/2/14 65/2/14
f 64/9/14 65/2/14 66/9/14
f 6/2/19 35/1/18 2/1/18
f 35/1/18 6/2/19 36/2/19
f 36/2/19 6/2/19 67/2/19
f 36/2/19 67/2/19 68/2/19
f 70/2/3 67/2/3 69/2/3
f 67/2/3 70/2/3 68/2/3
f 9/2/14 71/6/14 34/2/14
f 71/6/14 9/2/14 72/7/14
f 73/8/14 71/6/14 72/7/14
f 47/7/14 73/8/14 72/7/14
f 74/9/14 71/6/14 73/8/14
f 71/6/14 74/9/14 75/6/14
f 75/6/14 74/9/14 50/9/14
f 75/6/14 50/9/14 36/2/14
f 36/2/14 47/7/14 10/2/14
f 73/8/14 47/7/14 49/8/14
f 49/8/14 36/2/14 50/9/14
f 47/7/14 36/2/14 49/8/14
f 71/6/4 59/2/4 34/2/4
f 59/2/4 71/6/4 58/7/4
f 58/7/4 71/6/4 56/8/4
f 56/8/4 61/7/4 58/7/4
f 56/8/4 71/6/4 55/9/4
f 55/9/4 71/6/4 64/9/4
f 27/6/4 64/9/4 71/6/4
f 27/6/4 62/8/4 64/9/4
f 61/7/4 56/8/4 62/8/4
f 27/6/4 61/7/4 62/8/4
f 3/2/4 61/7/4 27/6/4
f 61/7/4 3/2/4 63/2/4
f 20/6/17 67/2/17 6/2/17
f 67/2/17 20/6/17 76/7/17
f 76/7/17 20/6/17 77/8/17
f 77/8/17 78/7/17 76/7/17
f 77/8/17 20/6/17 79/9/17
f 79/9/17 20/6/17 80/9/17
f 75/6/17 80/9/17 20/6/17
f 75/6/17 81/8/17 80/9/17
f 78/7/17 77/8/17 81/8/17
f 75/6/17 78/7/17 81/8/17
f 36/2/17 78/7/17 75/6/17
f 78/7/17 36/2/17 68/2/17
f 54/4/21 45/5/20 53/5/20
f 45/5/20 54/4/21 46/4/21
f 12/2/4 21/7/4 5/2/4
f 21/7/4 12/2/4 82/9/4
f 21/7/4 82/9/4 22/8/4
f 22/8/4 82/9/4 25/9/4
f 82/9/11 26/9/11 25/9/11
f 26/9/11 82/9/11 83/9/11
f 50/9/11 84/9/11 48/9/11
f 84/9/11 50/9/11 74/9/11
f 16/4/6 46/4/21 54/4/21
f 46/4/21 16/4/6 17/4/6
f 67/2/14 85/9/14 69/2/14
f 85/9/14 67/2/14 79/9/14
f 79/9/14 67/2/14 76/7/14
f 79/9/14 76/7/14 77/8/14
f 45/5/20 52/10/8 53/5/20
f 52/10/8 45/5/20 43/10/8
f 63/2/3 60/2/3 65/2/3
f 60/2/3 63/2/3 59/2/3
f 34/2/22 1/1/5 15/1/5
f 1/1/5 34/2/22 3/2/22
f 3/2/22 34/2/22 59/2/22
f 3/2/22 59/2/22 63/2/22
f 7/2/17 72/7/17 9/2/17
f 72/7/17 7/2/17 84/9/17
f 72/7/17 84/9/17 73/8/17
f 73/8/17 84/9/17 74/9/17
f 23/7/17 11/2/17 4/2/17
f 11/2/17 23/7/17 83/9/17
f 83/9/17 23/7/17 24/8/17
f 83/9/17 24/8/17 26/9/17
f 80/9/8 70/2/8 86/9/8
f 70/2/8 80/9/8 68/2/8
f 68/2/8 80/9/8 81/8/8
f 68/2/8 81/8/8 78/7/8
f 80/9/11 85/9/11 79/9/11
f 85/9/11 80/9/11 86/9/11
f 57/9/11 64/9/11 66/9/11
f 64/9/11 57/9/11 55/9/11
f 42/10/3 43/10/3 44/10/3
f 42/10/3 44/10/3 38/10/3
f 41/10/3 43/10/3 42/10/3
f 42/10/3 38/10/3 30/10/3
f 43/10/3 41/10/3 52/10/3
f 31/10/3 52/10/3 41/10/3
f 52/10/3 31/10/3 30/10/3
f 37/10/3 30/10/3 38/10/3
f 52/10/3 30/10/3 51/10/3
f 51/10/3 30/10/3 37/10/3
f 29/6/3 71/6/3 28/6/3
f 28/6/3 71/6/3 40/6/3
f 29/6/3 27/6/3 71/6/3
f 75/6/3 40/6/3 71/6/3
f 27/6/3 29/6/3 20/6/3
f 75/6/3 39/6/3 40/6/3
f 20/6/3 39/6/3 75/6/3
f 39/6/3 20/6/3 29/6/3
f 57/12/4 65/11/4 60/11/4
f 65/11/4 57/12/4 66/12/4
f 8/11/14 84/12/14 7/11/14
f 84/12/14 8/11/14 48/12/14
f 82/12/8 11/11/8 83/12/8
f 11/11/8 82/12/8 12/11/8
f 85/12/17 70/11/17 69/11/17
f 70/11/17 85/12/17 86/12/17

