# Created by Kenney (www.kenney.nl)

mtllib pillar-square.mtl

g pillar-square

v -0.1031002 0.7174217 -0.1031002 1 1 1
v -0.1031002 0.8178 -0.1031002 1 1 1
v -0.1031002 0.7174217 0.1031002 1 1 1
v -0.1031002 0.8178 0.1031002 1 1 1
v 0.08602212 0.174 -0.08602212 1 1 1
v 0.08602212 0.087 -0.08602212 1 1 1
v 0.08602212 0.174 0.08602212 1 1 1
v 0.08602212 0.087 0.08602212 1 1 1
v 0.1231002 0 0.08602212 1 1 1
v 0.1231002 0 -0.08602212 1 1 1
v 0.08602212 0 0.1231002 1 1 1
v 0.08602212 0 -0.1231002 1 1 1
v -0.08602212 0 0.1231002 1 1 1
v -0.08602212 0 -0.1231002 1 1 1
v -0.1231002 0 0.08602212 1 1 1
v -0.1231002 0 -0.08602212 1 1 1
v 0.1231002 0.087 -0.08602212 1 1 1
v 0.1231002 0.087 0.08602212 1 1 1
v -0.08602212 0.087 -0.08602212 1 1 1
v -0.08602212 0.174 -0.08602212 1 1 1
v 0.1031002 0.9048 0.1031002 1 1 1
v -0.1031002 0.9048 0.1031002 1 1 1
v 0.1031002 0.9918 0.1031002 1 1 1
v -0.1031002 0.9918 0.1031002 1 1 1
v 0.1031002 0.9918 -0.1031002 1 1 1
v 0.1031002 0.9048 -0.1031002 1 1 1
v -0.1031002 0.174 -0.1031002 1 1 1
v 0.1031002 0.174 -0.1031002 1 1 1
v -0.1031002 0.2743783 -0.1031002 1 1 1
v 0.1031002 0.2743783 -0.1031002 1 1 1
v 0.08602212 0.2743783 0.08602212 1 1 1
v 0.03784384 0.2743783 0.08602212 1 1 1
v 0.08602212 0.7174217 0.08602212 1 1 1
v 0.03784384 0.7174217 0.08602212 1 1 1
v -0.08602212 0.9918 -0.08602212 1 1 1
v -0.08602212 1.0266 -0.08602212 1 1 1
v -0.08602212 0.9918 0.08602212 1 1 1
v -0.08602212 1.0266 0.08602212 1 1 1
v -0.03784384 0.7174217 0.08602212 1 1 1
v 0.03784384 0.7174217 0.06602198 1 1 1
v -0.03784384 0.7174217 0.06602198 1 1 1
v -0.08602212 0.7174217 0.08602212 1 1 1
v -0.08602212 0.7174217 -0.08602212 1 1 1
v 0.1031002 0.7174217 0.1031002 1 1 1
v 0.08602212 0.7174217 -0.08602212 1 1 1
v 0.1031002 0.7174217 -0.1031002 1 1 1
v 0.1031002 0.8178 -0.1031002 1 1 1
v 0.1031002 0.8178 0.1031002 1 1 1
v -0.03784384 0.2743783 0.06602198 1 1 1
v -0.03784384 0.2743783 0.08602212 1 1 1
v -0.1031002 0.9048 -0.1031002 1 1 1
v -0.1031002 0.9918 -0.1031002 1 1 1
v 0.08602212 0.087 0.1231002 1 1 1
v -0.08602212 0.087 0.1231002 1 1 1
v -0.08602212 0.087 0.08602212 1 1 1
v -0.08602212 0.174 0.08602212 1 1 1
v 0.1031002 0.2743783 0.1031002 1 1 1
v 0.1031002 0.174 0.1031002 1 1 1
v -0.1031002 0.174 0.1031002 1 1 1
v -0.1031002 0.2743783 0.1031002 1 1 1
v -0.08602212 0.2743783 -0.08602212 1 1 1
v -0.08602212 0.2743783 0.08602212 1 1 1
v 0.08602212 0.2743783 -0.08602212 1 1 1
v 0.03784384 0.2743783 0.06602198 1 1 1
v 0.08602212 1.0266 -0.08602212 1 1 1
v 0.08602212 0.9918 -0.08602212 1 1 1
v 0.08602212 1.0266 0.08602212 1 1 1
v 0.08602212 0.9918 0.08602212 1 1 1
v 0.07655942 1.044 0.07655942 1 1 1
v -0.07655942 1.044 0.07655942 1 1 1
v 0.07655942 1.044 -0.07655942 1 1 1
v -0.1231002 0.087 -0.08602212 1 1 1
v -0.1231002 0.087 0.08602212 1 1 1
v -0.07655942 1.044 -0.07655942 1 1 1
v -0.08602212 0.087 -0.1231002 1 1 1
v 0.08602212 0.087 -0.1231002 1 1 1
v -0.08602212 0.8178 -0.08602212 1 1 1
v 0.08602212 0.8178 -0.08602212 1 1 1
v -0.08602212 0.8178 0.08602212 1 1 1
v 0.08602212 0.8178 0.08602212 1 1 1
v 0.08602212 0.9048 0.08602212 1 1 1
v 0.08602212 0.9048 -0.08602212 1 1 1
v -0.08602212 0.9048 0.08602212 1 1 1
v -0.08602212 0.9048 -0.08602212 1 1 1

vn -1 0 0
vn 1 0 0
vn 0 -1 0
vn 0.9238795 0 -0.3826834
vn 0.9238795 0 0.3826834
vn 0 0 -1
vn 0 0 1
vn -0.9786463 0.205551 0
vn 0.3826834 0 0.9238795
vn -0.3826834 0 0.9238795
vn 0.9786463 0.205551 0
vn 0 0.205551 0.9786463
vn 0 0.4777541 0.8784936
vn 0.8784936 0.4777541 0
vn 0 1 0
vn -0.9238795 0 -0.3826834
vn -0.9238795 0 0.3826834
vn 0 0.205551 -0.9786463
vn -0.3826834 0 -0.9238795
vn 0.3826834 0 -0.9238795
vn 0 0.4777541 -0.8784936
vn -0.8784936 0.4777541 0

vt 0.71875 0.1624371
vt 0.71875 0.1816667
vt 0.71875 0.05833333
vt 0.71875 0.04166666
vt 0.71875 0.025
vt 0.71875 0.1983333
vt 0.71875 0.215
vt 0.71875 0.07756288
vt 0.71875 0.2216666
vt 0.71875 0.225
vt 0.09375 0.07756288
vt 0.09375 0.1624371
vt 0.09375 0.1816667
vt 0.09375 0.1983333

usemtl colormap

f 3/1/1 2/2/1 1/1/1
f 2/2/1 3/1/1 4/2/1
f 7/3/2 6/4/2 5/3/2
f 6/4/2 7/3/2 8/4/2
f 11/5/3 10/5/3 9/5/3
f 10/5/3 11/5/3 12/5/3
f 12/5/3 11/5/3 13/5/3
f 12/5/3 13/5/3 14/5/3
f 14/5/3 13/5/3 15/5/3
f 14/5/3 15/5/3 16/5/3
f 18/4/5 10/5/4 17/4/4
f 10/5/4 18/4/5 9/5/5
f 20/3/6 6/4/6 19/4/6
f 6/4/6 20/3/6 5/3/6
f 23/7/7 22/6/7 21/6/7
f 22/6/7 23/7/7 24/7/7
f 23/7/2 26/6/2 25/7/2
f 26/6/2 23/7/2 21/6/2
f 29/8/6 28/3/6 27/3/6
f 28/3/6 29/8/6 30/8/6
f 33/1/7 32/8/7 31/8/7
f 32/8/7 33/1/7 34/1/7
f 37/7/1 36/9/8 35/7/1
f 36/9/8 37/7/1 38/9/8
f 41/1/3 40/1/3 39/1/3
f 34/1/3 39/1/3 40/1/3
f 34/1/3 3/1/3 39/1/3
f 39/1/3 3/1/3 42/1/3
f 42/1/3 3/1/3 43/1/3
f 33/1/3 3/1/3 34/1/3
f 1/1/3 43/1/3 3/1/3
f 33/1/3 44/1/3 3/1/3
f 1/1/3 45/1/3 43/1/3
f 44/1/3 33/1/3 46/1/3
f 46/1/3 45/1/3 1/1/3
f 45/1/3 46/1/3 33/1/3
f 48/2/2 46/1/2 47/2/2
f 46/1/2 48/2/2 44/1/2
f 39/1/2 49/8/2 41/1/2
f 49/8/2 39/1/2 50/8/2
f 22/6/1 52/7/1 51/6/1
f 52/7/1 22/6/1 24/7/1
f 53/4/9 13/5/10 11/5/9
f 13/5/10 53/4/9 54/4/10
f 55/4/1 20/3/1 19/4/1
f 20/3/1 55/4/1 56/3/1
f 57/8/2 28/3/2 30/8/2
f 28/3/2 57/8/2 58/3/2
f 59/3/1 29/8/1 27/3/1
f 29/8/1 59/3/1 60/8/1
f 62/8/1 43/1/1 61/8/1
f 43/1/1 62/8/1 42/1/1
f 43/1/6 63/8/6 61/8/6
f 63/8/6 43/1/6 45/1/6
f 57/8/7 59/3/7 58/3/7
f 59/3/7 57/8/7 60/8/7
f 32/8/1 40/1/1 64/8/1
f 40/1/1 32/8/1 34/1/1
f 67/9/11 66/7/2 65/9/11
f 66/7/2 67/9/11 68/7/2
f 67/9/12 37/7/7 68/7/7
f 37/7/7 67/9/12 38/9/12
f 69/10/13 38/9/12 67/9/12
f 38/9/12 69/10/13 70/10/13
f 71/10/14 67/9/11 65/9/11
f 67/9/11 71/10/14 69/10/14
f 49/8/15 32/8/15 64/8/15
f 50/8/15 32/8/15 49/8/15
f 60/8/15 32/8/15 50/8/15
f 60/8/15 50/8/15 62/8/15
f 60/8/15 31/8/15 32/8/15
f 57/8/15 31/8/15 60/8/15
f 60/8/15 62/8/15 29/8/15
f 61/8/15 29/8/15 62/8/15
f 31/8/15 57/8/15 63/8/15
f 63/8/15 29/8/15 61/8/15
f 30/8/15 63/8/15 57/8/15
f 63/8/15 30/8/15 29/8/15
f 15/5/17 72/4/16 16/5/16
f 72/4/16 15/5/17 73/4/17
f 52/7/6 26/6/6 51/6/6
f 26/6/6 52/7/6 25/7/6
f 36/9/18 66/7/6 35/7/6
f 66/7/6 36/9/18 65/9/18
f 74/10/15 69/10/15 71/10/15
f 69/10/15 74/10/15 70/10/15
f 75/4/19 12/5/20 14/5/19
f 12/5/20 75/4/19 76/4/20
f 33/1/2 63/8/2 45/1/2
f 63/8/2 33/1/2 31/8/2
f 48/2/7 3/1/7 44/1/7
f 3/1/7 48/2/7 4/2/7
f 74/10/21 65/9/18 36/9/18
f 65/9/18 74/10/21 71/10/21
f 2/2/6 46/1/6 1/1/6
f 46/1/6 2/2/6 47/2/6
f 7/3/7 55/4/7 8/4/7
f 55/4/7 7/3/7 56/3/7
f 38/9/8 74/10/22 36/9/8
f 74/10/22 38/9/8 70/10/22
f 39/1/7 62/8/7 50/8/7
f 62/8/7 39/1/7 42/1/7
f 53/4/9 9/5/5 18/4/5
f 9/5/5 53/4/9 11/5/9
f 17/4/4 12/5/20 76/4/20
f 12/5/20 17/4/4 10/5/4
f 13/5/10 73/4/17 15/5/17
f 73/4/17 13/5/10 54/4/10
f 16/5/16 75/4/19 14/5/19
f 75/4/19 16/5/16 72/4/16
f 54/4/15 72/4/15 73/4/15
f 55/4/15 72/4/15 54/4/15
f 53/4/15 55/4/15 54/4/15
f 19/4/15 72/4/15 55/4/15
f 19/4/15 75/4/15 72/4/15
f 53/4/15 8/4/15 55/4/15
f 6/4/15 75/4/15 19/4/15
f 53/4/15 6/4/15 8/4/15
f 75/4/15 6/4/15 76/4/15
f 53/4/15 76/4/15 6/4/15
f 18/4/15 76/4/15 53/4/15
f 76/4/15 18/4/15 17/4/15
f 7/3/3 59/3/3 56/3/3
f 56/3/3 59/3/3 20/3/3
f 7/3/3 58/3/3 59/3/3
f 27/3/3 20/3/3 59/3/3
f 58/3/3 7/3/3 28/3/3
f 27/3/3 5/3/3 20/3/3
f 28/3/3 5/3/3 27/3/3
f 5/3/3 28/3/3 7/3/3
f 78/2/15 2/2/15 77/2/15
f 77/2/15 2/2/15 79/2/15
f 78/2/15 47/2/15 2/2/15
f 4/2/15 79/2/15 2/2/15
f 47/2/15 78/2/15 48/2/15
f 4/2/15 80/2/15 79/2/15
f 48/2/15 80/2/15 4/2/15
f 80/2/15 48/2/15 78/2/15
f 21/6/3 81/6/3 26/6/3
f 81/6/3 21/6/3 22/6/3
f 82/6/3 26/6/3 81/6/3
f 81/6/3 22/6/3 83/6/3
f 26/6/3 82/6/3 51/6/3
f 83/6/3 22/6/3 84/6/3
f 51/6/3 82/6/3 84/6/3
f 51/6/3 84/6/3 22/6/3
f 66/7/15 52/7/15 35/7/15
f 35/7/15 52/7/15 37/7/15
f 66/7/15 25/7/15 52/7/15
f 24/7/15 37/7/15 52/7/15
f 25/7/15 66/7/15 23/7/15
f 24/7/15 68/7/15 37/7/15
f 23/7/15 68/7/15 24/7/15
f 68/7/15 23/7/15 66/7/15
f 40/12/7 49/11/7 64/11/7
f 49/11/7 40/12/7 41/12/7
f 84/14/6 78/13/6 77/13/6
f 78/13/6 84/14/6 82/14/6
f 81/14/2 78/13/2 82/14/2
f 78/13/2 81/14/2 80/13/2
f 79/13/1 84/14/1 77/13/1
f 84/14/1 79/13/1 83/14/1
f 81/14/7 79/13/7 80/13/7
f 79/13/7 81/14/7 83/14/7

g pillar-square




usemtl colormap

f 3/1/1 2/2/1 1/1/1
f 2/2/1 3/1/1 4/2/1
f 7/3/2 6/4/2 5/3/2
f 6/4/2 7/3/2 8/4/2
f 11/5/3 10/5/3 9/5/3
f 10/5/3 11/5/3 12/5/3
f 12/5/3 11/5/3 13/5/3
f 12/5/3 13/5/3 14/5/3
f 14/5/3 13/5/3 15/5/3
f 14/5/3 15/5/3 16/5/3
f 18/4/5 10/5/4 17/4/4
f 10/5/4 18/4/5 9/5/5
f 20/3/6 6/4/6 19/4/6
f 6/4/6 20/3/6 5/3/6
f 23/7/7 22/6/7 21/6/7
f 22/6/7 23/7/7 24/7/7
f 23/7/2 26/6/2 25/7/2
f 26/6/2 23/7/2 21/6/2
f 29/8/6 28/3/6 27/3/6
f 28/3/6 29/8/6 30/8/6
f 33/1/7 32/8/7 31/8/7
f 32/8/7 33/1/7 34/1/7
f 37/7/1 36/9/8 35/7/1
f 36/9/8 37/7/1 38/9/8
f 41/1/3 40/1/3 39/1/3
f 34/1/3 39/1/3 40/1/3
f 34/1/3 3/1/3 39/1/3
f 39/1/3 3/1/3 42/1/3
f 42/1/3 3/1/3 43/1/3
f 33/1/3 3/1/3 34/1/3
f 1/1/3 43/1/3 3/1/3
f 33/1/3 44/1/3 3/1/3
f 1/1/3 45/1/3 43/1/3
f 44/1/3 33/1/3 46/1/3
f 46/1/3 45/1/3 1/1/3
f 45/1/3 46/1/3 33/1/3
f 48/2/2 46/1/2 47/2/2
f 46/1/2 48/2/2 44/1/2
f 39/1/2 49/8/2 41/1/2
f 49/8/2 39/1/2 50/8/2
f 22/6/1 52/7/1 51/6/1
f 52/7/1 22/6/1 24/7/1
f 53/4/9 13/5/10 11/5/9
f 13/5/10 53/4/9 54/4/10
f 55/4/1 20/3/1 19/4/1
f 20/3/1 55/4/1 56/3/1
f 57/8/2 28/3/2 30/8/2
f 28/3/2 57/8/2 58/3/2
f 59/3/1 29/8/1 27/3/1
f 29/8/1 59/3/1 60/8/1
f 62/8/1 43/1/1 61/8/1
f 43/1/1 62/8/1 42/1/1
f 43/1/6 63/8/6 61/8/6
f 63/8/6 43/1/6 45/1/6
f 57/8/7 59/3/7 58/3/7
f 59/3/7 57/8/7 60/8/7
f 32/8/1 40/1/1 64/8/1
f 40/1/1 32/8/1 34/1/1
f 67/9/11 66/7/2 65/9/11
f 66/7/2 67/9/11 68/7/2
f 67/9/12 37/7/7 68/7/7
f 37/7/7 67/9/12 38/9/12
f 69/10/13 38/9/12 67/9/12
f 38/9/12 69/10/13 70/10/13
f 71/10/14 67/9/11 65/9/11
f 67/9/11 71/10/14 69/10/14
f 49/8/15 32/8/15 64/8/15
f 50/8/15 32/8/15 49/8/15
f 60/8/15 32/8/15 50/8/15
f 60/8/15 50/8/15 62/8/15
f 60/8/15 31/8/15 32/8/15
f 57/8/15 31/8/15 60/8/15
f 60/8/15 62/8/15 29/8/15
f 61/8/15 29/8/15 62/8/15
f 31/8/15 57/8/15 63/8/15
f 63/8/15 29/8/15 61/8/15
f 30/8/15 63/8/15 57/8/15
f 63/8/15 30/8/15 29/8/15
f 15/5/17 72/4/16 16/5/16
f 72/4/16 15/5/17 73/4/17
f 52/7/6 26/6/6 51/6/6
f 26/6/6 52/7/6 25/7/6
f 36/9/18 66/7/6 35/7/6
f 66/7/6 36/9/18 65/9/18
f 74/10/15 69/10/15 71/10/15
f 69/10/15 74/10/15 70/10/15
f 75/4/19 12/5/20 14/5/19
f 12/5/20 75/4/19 76/4/20
f 33/1/2 63/8/2 45/1/2
f 63/8/2 33/1/2 31/8/2
f 48/2/7 3/1/7 44/1/7
f 3/1/7 48/2/7 4/2/7
f 74/10/21 65/9/18 36/9/18
f 65/9/18 74/10/21 71/10/21
f 2/2/6 46/1/6 1/1/6
f 46/1/6 2/2/6 47/2/6
f 7/3/7 55/4/7 8/4/7
f 55/4/7 7/3/7 56/3/7
f 38/9/8 74/10/22 36/9/8
f 74/10/22 38/9/8 70/10/22
f 39/1/7 62/8/7 50/8/7
f 62/8/7 39/1/7 42/1/7
f 53/4/9 9/5/5 18/4/5
f 9/5/5 53/4/9 11/5/9
f 17/4/4 12/5/20 76/4/20
f 12/5/20 17/4/4 10/5/4
f 13/5/10 73/4/17 15/5/17
f 73/4/17 13/5/10 54/4/10
f 16/5/16 75/4/19 14/5/19
f 75/4/19 16/5/16 72/4/16
f 54/4/15 72/4/15 73/4/15
f 55/4/15 72/4/15 54/4/15
f 53/4/15 55/4/15 54/4/15
f 19/4/15 72/4/15 55/4/15
f 19/4/15 75/4/15 72/4/15
f 53/4/15 8/4/15 55/4/15
f 6/4/15 75/4/15 19/4/15
f 53/4/15 6/4/15 8/4/15
f 75/4/15 6/4/15 76/4/15
f 53/4/15 76/4/15 6/4/15
f 18/4/15 76/4/15 53/4/15
f 76/4/15 18/4/15 17/4/15
f 7/3/3 59/3/3 56/3/3
f 56/3/3 59/3/3 20/3/3
f 7/3/3 58/3/3 59/3/3
f 27/3/3 20/3/3 59/3/3
f 58/3/3 7/3/3 28/3/3
f 27/3/3 5/3/3 20/3/3
f 28/3/3 5/3/3 27/3/3
f 5/3/3 28/3/3 7/3/3
f 78/2/15 2/2/15 77/2/15
f 77/2/15 2/2/15 79/2/15
f 78/2/15 47/2/15 2/2/15
f 4/2/15 79/2/15 2/2/15
f 47/2/15 78/2/15 48/2/15
f 4/2/15 80/2/15 79/2/15
f 48/2/15 80/2/15 4/2/15
f 80/2/15 48/2/15 78/2/15
f 21/6/3 81/6/3 26/6/3
f 81/6/3 21/6/3 22/6/3
f 82/6/3 26/6/3 81/6/3
f 81/6/3 22/6/3 83/6/3
f 26/6/3 82/6/3 51/6/3
f 83/6/3 22/6/3 84/6/3
f 51/6/3 82/6/3 84/6/3
f 51/6/3 84/6/3 22/6/3
f 66/7/15 52/7/15 35/7/15
f 35/7/15 52/7/15 37/7/15
f 66/7/15 25/7/15 52/7/15
f 24/7/15 37/7/15 52/7/15
f 25/7/15 66/7/15 23/7/15
f 24/7/15 68/7/15 37/7/15
f 23/7/15 68/7/15 24/7/15
f 68/7/15 23/7/15 66/7/15
f 40/12/7 49/11/7 64/11/7
f 49/11/7 40/12/7 41/12/7
f 84/14/6 78/13/6 77/13/6
f 78/13/6 84/14/6 82/14/6
f 81/14/2 78/13/2 82/14/2
f 78/13/2 81/14/2 80/13/2
f 79/13/1 84/14/1 77/13/1
f 84/14/1 79/13/1 83/14/1
f 81/14/7 79/13/7 80/13/7
f 79/13/7 81/14/7 83/14/7

