# Created by Kenney (www.kenney.nl)

mtllib pillar-large.mtl

g pillar-large

v 0.084 0 0.084 1 1 1
v 0.084 0 -0.084 1 1 1
v -0.084 0 0.084 1 1 1
v -0.084 0 -0.084 1 1 1
v -0.084 0.7399999 -0.084 1 1 1
v -0.084 0.79 -0.084 1 1 1
v -0.084 0.7399999 0.084 1 1 1
v -0.084 0.79 0.084 1 1 1
v 0.084 0.7399999 0.084 1 1 1
v 0.084 0.79 0.084 1 1 1
v 0.084 0.11 0.084 1 1 1
v -0.084 0.11 0.084 1 1 1
v 0.06888 0.7064 0.06888 1 1 1
v -0.06888 0.7064 0.06888 1 1 1
v -0.06888 0.7064 -0.06888 1 1 1
v 0.06888 0.7064 -0.06888 1 1 1
v 0.084 0.7399999 -0.084 1 1 1
v 0.084 0.79 -0.084 1 1 1
v -0.084 0.11 -0.084 1 1 1
v 0.084 0.11 -0.084 1 1 1
v -0.06888 0.1436 -0.06888 1 1 1
v 0.06888 0.1436 -0.06888 1 1 1
v 0.06888 0.1436 0.06888 1 1 1
v -0.06888 0.1436 0.06888 1 1 1
v -0.045 0.85 -0.07794229 1 1 1
v -0.09 0.85 -7.219114E-16 1 1 1
v -0.025 0.79 -0.04330127 1 1 1
v -0.05 0.79 0 1 1 1
v 0.05 0.91 0 1 1 1
v 0.025 0.91 0.04330127 1 1 1
v 0.025 0.91 -0.04330127 1 1 1
v -0.025 0.91 0.04330127 1 1 1
v -0.025 0.91 -0.04330127 1 1 1
v -0.05 0.91 0 1 1 1
v 0.045 0.85 -0.07794229 1 1 1
v 0.025 0.79 -0.04330127 1 1 1
v 0.09 0.85 -7.219114E-16 1 1 1
v 0.05 0.79 0 1 1 1
v -0.045 0.85 0.07794229 1 1 1
v -0.025 0.79 0.04330127 1 1 1
v 0.045 0.85 0.07794229 1 1 1
v 0.025 0.79 0.04330127 1 1 1

vn 0 -1 0
vn -0.983652 -0.1800796 0
vn -1 0 0
vn 0 -0.1800796 0.983652
vn 0 0 1
vn 0 0.1800796 0.983652
vn 0 -0.4103647 0.9119215
vn 0 -0.4103647 -0.9119215
vn 0 -0.1800796 -0.983652
vn 0 0 -1
vn -0.983652 0.1800796 0
vn 0 0.1800796 -0.983652
vn 0 0.4103647 -0.9119215
vn 0.983652 0.1800796 0
vn 0.9119215 0.4103647 0
vn 0.983652 -0.1800796 0
vn 0.9119215 -0.4103647 0
vn -0.9119215 -0.4103647 0
vn 1 0 0
vn 0 0.4103647 0.9119215
vn -0.9119215 0.4103647 0
vn -0.4160252 -0.5547002 -0.7205767
vn -0.8320503 -0.5547002 0
vn 0 1 0
vn 0.4160252 -0.5547002 -0.7205767
vn 0.8320503 -0.5547002 0
vn -0.4160252 -0.5547002 0.7205767
vn 0.4160252 -0.5547002 0.7205767
vn -0.8320503 0.5547002 0
vn -0.4160252 0.5547002 0.7205767
vn 0.4160252 0.5547002 0.7205767
vn 0.4160252 0.5547002 -0.7205767
vn 0.8320503 0.5547002 0
vn -0.4160252 0.5547002 -0.7205767

vt 0.71875 0.025
vt 0.71875 0.1876374
vt 0.71875 0.1986264
vt 0.71875 0.04917582
vt 0.71875 0.1802527
vt 0.71875 0.05656044
vt 0.71875 0.2118132
vt 0.71875 0.225
vt 0.96875 0.05656044
vt 0.96875 0.1802527

usemtl colormap

f 3/1/1 2/1/1 1/1/1
f 2/1/1 3/1/1 4/1/1
f 7/2/2 6/3/3 5/2/2
f 6/3/3 7/2/2 8/3/3
f 10/3/5 7/2/4 9/2/4
f 7/2/4 10/3/5 8/3/5
f 11/4/6 3/1/5 1/1/5
f 3/1/5 11/4/6 12/4/6
f 9/2/4 14/5/7 13/5/7
f 14/5/7 9/2/4 7/2/4
f 5/2/9 16/5/8 15/5/8
f 16/5/8 5/2/9 17/2/9
f 6/3/10 17/2/9 5/2/9
f 17/2/9 6/3/10 18/3/10
f 3/1/3 19/4/11 4/1/3
f 19/4/11 3/1/3 12/4/11
f 21/6/13 20/4/12 19/4/12
f 20/4/12 21/6/13 22/6/13
f 22/6/15 11/4/14 20/4/14
f 11/4/14 22/6/15 23/6/15
f 9/2/16 16/5/17 17/2/16
f 16/5/17 9/2/16 13/5/17
f 15/5/18 7/2/2 5/2/2
f 7/2/2 15/5/18 14/5/18
f 10/3/19 17/2/16 18/3/19
f 17/2/16 10/3/19 9/2/16
f 11/4/14 2/1/19 20/4/14
f 2/1/19 11/4/14 1/1/19
f 23/6/20 12/4/6 11/4/6
f 12/4/6 23/6/20 24/6/20
f 19/4/12 2/1/10 4/1/10
f 2/1/10 19/4/12 20/4/12
f 12/4/11 21/6/21 19/4/11
f 21/6/21 12/4/11 24/6/21
f 27/3/22 26/7/23 25/7/22
f 26/7/23 27/3/22 28/3/23
f 31/8/24 30/8/24 29/8/24
f 30/8/24 31/8/24 32/8/24
f 32/8/24 31/8/24 33/8/24
f 32/8/24 33/8/24 34/8/24
f 37/7/26 36/3/25 35/7/25
f 36/3/25 37/7/26 38/3/26
f 28/3/23 39/7/27 26/7/23
f 39/7/27 28/3/23 40/3/27
f 41/7/28 38/3/26 37/7/26
f 38/3/26 41/7/28 42/3/28
f 39/7/30 34/8/29 26/7/29
f 34/8/29 39/7/30 32/8/30
f 30/8/31 39/7/30 41/7/31
f 39/7/30 30/8/31 32/8/30
f 31/8/32 37/7/33 35/7/32
f 37/7/33 31/8/32 29/8/33
f 29/8/33 41/7/31 37/7/33
f 41/7/31 29/8/33 30/8/31
f 33/8/34 35/7/32 25/7/34
f 35/7/32 33/8/34 31/8/32
f 25/7/22 36/3/25 27/3/22
f 36/3/25 25/7/22 35/7/25
f 41/7/28 40/3/27 42/3/28
f 40/3/27 41/7/28 39/7/27
f 26/7/29 33/8/34 25/7/34
f 33/8/34 26/7/29 34/8/29
f 8/3/24 42/3/24 40/3/24
f 8/3/24 40/3/24 28/3/24
f 10/3/24 42/3/24 8/3/24
f 42/3/24 10/3/24 38/3/24
f 18/3/24 38/3/24 10/3/24
f 38/3/24 18/3/24 36/3/24
f 8/3/24 28/3/24 6/3/24
f 36/3/24 18/3/24 6/3/24
f 27/3/24 6/3/24 28/3/24
f 36/3/24 6/3/24 27/3/24
f 13/10/5 24/9/5 23/9/5
f 24/9/5 13/10/5 14/10/5
f 24/9/3 15/10/3 21/9/3
f 15/10/3 24/9/3 14/10/3
f 13/10/19 22/9/19 16/10/19
f 22/9/19 13/10/19 23/9/19
f 15/10/10 22/9/10 21/9/10
f 22/9/10 15/10/10 16/10/10

g pillar-large




usemtl colormap

f 3/1/1 2/1/1 1/1/1
f 2/1/1 3/1/1 4/1/1
f 7/2/2 6/3/3 5/2/2
f 6/3/3 7/2/2 8/3/3
f 10/3/5 7/2/4 9/2/4
f 7/2/4 10/3/5 8/3/5
f 11/4/6 3/1/5 1/1/5
f 3/1/5 11/4/6 12/4/6
f 9/2/4 14/5/7 13/5/7
f 14/5/7 9/2/4 7/2/4
f 5/2/9 16/5/8 15/5/8
f 16/5/8 5/2/9 17/2/9
f 6/3/10 17/2/9 5/2/9
f 17/2/9 6/3/10 18/3/10
f 3/1/3 19/4/11 4/1/3
f 19/4/11 3/1/3 12/4/11
f 21/6/13 20/4/12 19/4/12
f 20/4/12 21/6/13 22/6/13
f 22/6/15 11/4/14 20/4/14
f 11/4/14 22/6/15 23/6/15
f 9/2/16 16/5/17 17/2/16
f 16/5/17 9/2/16 13/5/17
f 15/5/18 7/2/2 5/2/2
f 7/2/2 15/5/18 14/5/18
f 10/3/19 17/2/16 18/3/19
f 17/2/16 10/3/19 9/2/16
f 11/4/14 2/1/19 20/4/14
f 2/1/19 11/4/14 1/1/19
f 23/6/20 12/4/6 11/4/6
f 12/4/6 23/6/20 24/6/20
f 19/4/12 2/1/10 4/1/10
f 2/1/10 19/4/12 20/4/12
f 12/4/11 21/6/21 19/4/11
f 21/6/21 12/4/11 24/6/21
f 27/3/22 26/7/23 25/7/22
f 26/7/23 27/3/22 28/3/23
f 31/8/24 30/8/24 29/8/24
f 30/8/24 31/8/24 32/8/24
f 32/8/24 31/8/24 33/8/24
f 32/8/24 33/8/24 34/8/24
f 37/7/26 36/3/25 35/7/25
f 36/3/25 37/7/26 38/3/26
f 28/3/23 39/7/27 26/7/23
f 39/7/27 28/3/23 40/3/27
f 41/7/28 38/3/26 37/7/26
f 38/3/26 41/7/28 42/3/28
f 39/7/30 34/8/29 26/7/29
f 34/8/29 39/7/30 32/8/30
f 30/8/31 39/7/30 41/7/31
f 39/7/30 30/8/31 32/8/30
f 31/8/32 37/7/33 35/7/32
f 37/7/33 31/8/32 29/8/33
f 29/8/33 41/7/31 37/7/33
f 41/7/31 29/8/33 30/8/31
f 33/8/34 35/7/32 25/7/34
f 35/7/32 33/8/34 31/8/32
f 25/7/22 36/3/25 27/3/22
f 36/3/25 25/7/22 35/7/25
f 41/7/28 40/3/27 42/3/28
f 40/3/27 41/7/28 39/7/27
f 26/7/29 33/8/34 25/7/34
f 33/8/34 26/7/29 34/8/29
f 8/3/24 42/3/24 40/3/24
f 8/3/24 40/3/24 28/3/24
f 10/3/24 42/3/24 8/3/24
f 42/3/24 10/3/24 38/3/24
f 18/3/24 38/3/24 10/3/24
f 38/3/24 18/3/24 36/3/24
f 8/3/24 28/3/24 6/3/24
f 36/3/24 18/3/24 6/3/24
f 27/3/24 6/3/24 28/3/24
f 36/3/24 6/3/24 27/3/24
f 13/10/5 24/9/5 23/9/5
f 24/9/5 13/10/5 14/10/5
f 24/9/3 15/10/3 21/9/3
f 15/10/3 24/9/3 14/10/3
f 13/10/19 22/9/19 16/10/19
f 22/9/19 13/10/19 23/9/19
f 15/10/10 22/9/10 21/9/10
f 22/9/10 15/10/10 16/10/10

