# Created by Kenney (www.kenney.nl)

mtllib pine-crooked.mtl

g pine-crooked

v -0.1996161 1.542393 -5.414336E-16 1 1 1
v 0.03446849 2.038042 -1.263345E-15 1 1 1
v -0.1096154 1.532933 0.1567443 1 1 1
v -0.1096154 1.532933 -0.1567443 1 1 1
v 0.07038586 1.514014 -0.1567443 1 1 1
v 0.1603865 1.504555 -5.414336E-16 1 1 1
v 0.07038586 1.514014 0.1567443 1 1 1
v -0.1760769 1.397034 -0.246624 1 1 1
v -0.3176854 1.411917 -5.414336E-16 1 1 1
v 0.2487484 1.352383 -5.414336E-16 1 1 1
v 0.1071399 1.367266 0.246624 1 1 1
v -0.1760769 1.397034 0.246624 1 1 1
v 0.1071399 1.367266 -0.246624 1 1 1
v 0.1237519 1.256432 -0.2183424 1 1 1
v 0.2149676 1.047454 -0.3245053 1 1 1
v 0.4008022 1.07126 -1.082867E-15 1 1 1
v 0.2918619 1.258375 -9.926282E-16 1 1 1
v -0.1567016 0.999842 -0.3245053 1 1 1
v -0.1402442 1.203021 -0.2515153 1 1 1
v -0.1195347 1.447312 -0.1667262 1 1 1
v 0.0662073 1.471106 -0.1667262 1 1 1
v 0.1590783 1.483003 -0.004554372 1 1 1
v -0.3425362 0.9760361 -1.082867E-15 1 1 1
v -0.2842796 1.184569 -1.082867E-15 1 1 1
v -0.1567016 0.999842 0.3245053 1 1 1
v -0.1402442 1.203021 0.2515153 1 1 1
v 0.2149676 1.047454 0.3245053 1 1 1
v 0.1478265 1.239923 0.2515153 1 1 1
v -0.2124057 1.435415 -0.004554372 1 1 1
v -0.1195347 1.447312 0.1576174 1 1 1
v 0.0662073 1.471106 0.1576174 1 1 1
v 0.4536834 0.6751643 1.804779E-16 1 1 1
v 0.2164451 0.700099 0.4131721 1 1 1
v 0.3702419 0.8371346 5.414336E-16 1 1 1
v 0.1826874 0.8568473 0.3266433 1 1 1
v -0.2580313 0.7499685 -0.4131721 1 1 1
v 0.2164451 0.700099 -0.4131721 1 1 1
v -0.1924215 0.8962729 -0.3266433 1 1 1
v 0.1826874 0.8568473 -0.3266433 1 1 1
v -0.4952695 0.7749032 1.804779E-16 1 1 1
v -0.3799759 0.9159856 5.414336E-16 1 1 1
v -0.2580313 0.7499685 0.4131721 1 1 1
v -0.1924215 0.8962729 0.3266433 1 1 1
v -0.2147168 1.145453 3.609557E-16 1 1 1
v -0.09696186 1.133076 0.205081 1 1 1
v 0.256303 1.095947 -3.609557E-16 1 1 1
v 0.138548 1.108323 0.205081 1 1 1
v 0.138548 1.108323 -0.205081 1 1 1
v -0.09696186 1.133076 -0.205081 1 1 1
v -0.2765875 0.3465644 -0.510089 1 1 1
v 0.3103468 0.3958506 -0.510089 1 1 1
v -0.231297 0.5442775 -0.4032633 1 1 1
v 0.2327182 0.583242 -0.4032633 1 1 1
v 0.6038139 0.4204937 -1.804779E-16 1 1 1
v 0.3103468 0.3958506 0.510089 1 1 1
v 0.4647259 0.6027242 1.804779E-16 1 1 1
v 0.2327182 0.583242 0.4032633 1 1 1
v -0.2765875 0.3465644 0.510089 1 1 1
v -0.5700546 0.3219212 -1.804779E-16 1 1 1
v -0.231297 0.5442775 0.4032633 1 1 1
v -0.4633046 0.5247954 1.804779E-16 1 1 1
v 0.1532972 0.8401592 -0.3034206 1 1 1
v -0.195834 0.8108418 -0.3034206 1 1 1
v 0.1532972 0.8401592 0.3034206 1 1 1
v -0.195834 0.8108418 0.3034206 1 1 1
v 0.3278629 0.8548178 4.511947E-16 1 1 1
v -0.3703996 0.7961831 -2.707168E-16 1 1 1
v 0.1060299 0 0.1836492 1 1 1
v -0.1060299 0 0.1836492 1 1 1
v 0.08467136 0.19 0.1466551 1 1 1
v -0.08467136 0.19 0.1466551 1 1 1
v 0.1693427 0.19 -9.023893E-16 1 1 1
v 0.2120598 0 -5.414336E-16 1 1 1
v -0.1693427 0.19 -9.023893E-16 1 1 1
v -0.2120598 0 -1.804779E-16 1 1 1
v 0.1060299 0 -0.1836492 1 1 1
v -0.1060299 0 -0.1836492 1 1 1
v -0.08467136 0.19 -0.1466551 1 1 1
v 0.08467136 0.19 -0.1466551 1 1 1
v 0.152561 0.3705 -1.263345E-15 1 1 1
v 0.0762805 0.3705 0.1321217 1 1 1
v 0.0762805 0.3705 -0.1321217 1 1 1
v -0.152561 0.3705 -1.263345E-15 1 1 1
v -0.0762805 0.3705 0.1321217 1 1 1
v -0.0762805 0.3705 -0.1321217 1 1 1

vn -0.7308476 0.5126759 0.4505833
vn -0.7939805 0.3749801 0.4785235
vn 0.04531027 0.4310985 -0.9011666
vn 0.03030618 0.2883441 -0.9570471
vn 0.8545929 0.201708 -0.4785235
vn 0.8214681 0.349521 -0.4505833
vn 0.8545929 0.201708 0.4785235
vn 0.8214681 0.349521 0.4505833
vn 0.04531027 0.4310985 0.9011666
vn 0.03030618 0.2883441 0.9570471
vn -0.7308476 0.5126759 -0.4505833
vn -0.7939805 0.3749801 -0.4785235
vn -0.672025 0.6081268 -0.4225685
vn 0.7837763 0.455116 0.4225685
vn -0.672025 0.6081268 0.4225685
vn -0.1045285 -0.9945219 0
vn 0.05587566 0.5316214 0.8451371
vn 0.7837763 0.455116 -0.4225685
vn 0.05587566 0.5316214 -0.8451371
vn 0.7332159 0.4255608 -0.53037
vn 0.7133055 0.5389501 -0.4480269
vn 0.7181256 0.4774213 -0.5063243
vn 0.7330407 0.4048049 -0.5466115
vn -0.04366971 0.3408953 -0.9390864
vn -0.008238263 0.4092661 -0.9123778
vn 0.008840229 0.3605303 -0.9327056
vn 0.01915539 0.3779626 -0.9256226
vn 0.01598126 0.2799329 -0.9598866
vn -0.0289929 0.2263249 -0.9736202
vn 0.755742 0.3884484 -0.5272207
vn 0.7640014 0.4420923 -0.4699533
vn -0.8503503 0.2375571 0.4695432
vn -0.8492281 0.2436442 0.468454
vn -0.8492417 0.243571 0.4684672
vn -0.04366971 0.3408953 0.9390864
vn -0.04484438 0.350065 0.9356514
vn 0.1270646 -0.9918944 0
vn -0.8477502 0.2513824 0.46704
vn -0.8503503 0.2375571 -0.4695432
vn -0.850535 0.2365366 -0.4697239
vn -0.8505328 0.2365488 -0.4697217
vn 0.7630109 0.4442336 0.4695432
vn 0.7603905 0.4498412 0.468454
vn 0.7604222 0.4497738 0.4684672
vn 0.7570098 0.456957 0.46704
vn -0.8507691 0.2352353 -0.4699533
vn -0.04634939 0.3618135 0.9310976
vn 0.800551 0.412416 0.4347772
vn 0.8082265 0.3908202 0.4404877
vn 0.05162003 0.4911318 -0.8695545
vn 0.04945889 0.4705699 -0.8809755
vn -0.697311 0.5698476 0.4347772
vn -0.7093087 0.5503196 0.4404877
vn 0.800551 0.412416 -0.4347772
vn 0.8082265 0.3908202 -0.4404877
vn -0.697311 0.5698476 -0.4347772
vn -0.7093087 0.5503196 -0.4404877
vn 0.05162003 0.4911318 0.8695545
vn 0.04945889 0.4705699 0.8809755
vn -0.7254457 0.522456 0.4480718
vn 0.8182177 0.3602104 0.4480718
vn 0.8182177 0.3602104 -0.4480718
vn 0.04638599 0.4413332 0.8961437
vn -0.7254457 0.522456 -0.4480718
vn 0.04638599 0.4413332 -0.8961437
vn -0.04048562 0.4821304 -0.8751636
vn -0.03599197 0.428617 -0.9027691
vn 0.7147701 0.545551 0.4375818
vn 0.7430871 0.494038 0.4513846
vn 0.7147701 0.545551 -0.4375818
vn 0.7430871 0.494038 -0.4513846
vn 0.08367784 -0.9964929 0
vn -0.04048562 0.4821304 0.8751636
vn -0.03599197 0.428617 0.9027691
vn -0.7957413 0.4187098 -0.4375818
vn -0.815071 0.3631959 -0.4513846
vn -0.7957413 0.4187098 0.4375818
vn -0.815071 0.3631959 0.4513846
vn -0.02973195 0.3540684 -0.9347469
vn -0.02973195 0.3540684 0.9347469
vn 0.7769435 0.4218069 0.4673734
vn -0.8364074 0.28633 -0.4673734
vn -0.8364074 0.28633 0.4673734
vn 0.7769435 0.4218069 -0.4673734
vn 0.4878229 0.2193513 0.8449342
vn -0.4878229 0.2193513 0.8449342
vn 0.9756458 0.2193513 0
vn -0.9756458 0.2193513 0
vn 0 -1 0
vn -0.4878229 0.2193513 -0.8449342
vn 0.4878229 0.2193513 -0.8449342
vn 0.9957058 0.09257422 0
vn 0.4978529 0.09257422 0.8623065
vn 0.4978529 0.09257422 -0.8623065
vn -0.9957058 0.09257422 0
vn -0.4978529 0.09257422 0.8623065
vn -0.4978529 0.09257422 -0.8623065

vt 0.34375 0.3180936
vt 0.34375 0.475
vt 0.34375 0.275
vt 0.34375 0.3746875
vt 0.34375 0.3658364
vt 0.34375 0.351593
vt 0.34375 0.3597701
vt 0.96875 0.025
vt 0.96875 0.1275641
vt 0.96875 0.225

usemtl colormap

f 3/1/1 2/2/2 1/1/1
f 2/2/4 5/1/3 4/1/3
f 6/1/6 5/1/6 2/2/5
f 7/1/8 6/1/8 2/2/7
f 2/2/10 3/1/9 7/1/9
f 1/1/11 2/2/12 4/1/11
f 9/3/13 4/1/11 8/3/13
f 4/1/11 9/3/13 1/1/11
f 7/1/8 10/3/14 6/1/8
f 10/3/14 7/1/8 11/3/14
f 12/3/15 1/1/1 9/3/15
f 1/1/1 12/3/15 3/1/1
f 11/3/16 13/3/16 10/3/16
f 13/3/16 11/3/16 12/3/16
f 13/3/16 12/3/16 8/3/16
f 8/3/16 12/3/16 9/3/16
f 7/1/9 12/3/17 11/3/17
f 12/3/17 7/1/9 3/1/9
f 5/1/6 10/3/18 13/3/18
f 10/3/18 5/1/6 6/1/6
f 4/1/3 13/3/19 8/3/19
f 13/3/19 4/1/3 5/1/3
f 16/3/22 15/3/21 14/4/20
f 17/5/23 16/3/22 14/4/20
f 19/5/26 15/3/25 18/3/24
f 14/4/27 15/3/25 19/5/26
f 20/2/28 14/4/27 19/5/26
f 20/2/28 21/2/29 14/4/27
f 17/5/23 14/4/20 21/2/30
f 17/5/23 21/2/30 22/2/31
f 25/3/32 24/5/33 23/3/32
f 24/5/33 25/3/32 26/5/34
f 28/5/36 25/3/35 27/3/35
f 25/3/35 28/5/36 26/5/36
f 27/3/37 15/3/37 16/3/37
f 15/3/37 27/3/37 25/3/37
f 15/3/37 25/3/37 18/3/37
f 18/3/37 25/3/37 23/3/37
f 24/5/33 30/2/38 29/2/38
f 30/2/38 24/5/33 26/5/34
f 23/3/39 19/5/40 18/3/39
f 19/5/40 23/3/39 24/5/41
f 17/5/43 27/3/42 16/3/42
f 27/3/42 17/5/43 28/5/44
f 31/2/45 17/5/43 22/2/45
f 17/5/43 31/2/45 28/5/44
f 24/5/41 20/2/46 19/5/40
f 20/2/46 24/5/41 29/2/46
f 31/2/47 26/5/36 28/5/36
f 26/5/36 31/2/47 30/2/47
f 34/6/49 33/3/48 32/3/48
f 33/3/48 34/6/49 35/6/49
f 38/6/51 37/3/50 36/3/50
f 37/3/50 38/6/51 39/6/51
f 42/3/52 41/6/53 40/3/52
f 41/6/53 42/3/52 43/6/53
f 33/3/16 37/3/16 32/3/16
f 37/3/16 33/3/16 42/3/16
f 37/3/16 42/3/16 36/3/16
f 36/3/16 42/3/16 40/3/16
f 39/6/55 32/3/54 37/3/54
f 32/3/54 39/6/55 34/6/55
f 40/3/56 38/6/57 36/3/56
f 38/6/57 40/3/56 41/6/57
f 35/6/59 42/3/58 33/3/58
f 42/3/58 35/6/59 43/6/59
f 41/6/53 45/2/60 44/2/60
f 45/2/60 41/6/53 43/6/53
f 47/2/61 34/6/49 46/2/61
f 34/6/49 47/2/61 35/6/49
f 48/2/62 34/6/55 39/6/55
f 34/6/55 48/2/62 46/2/62
f 47/2/63 43/6/59 35/6/59
f 43/6/59 47/2/63 45/2/63
f 41/6/57 49/2/64 38/6/57
f 49/2/64 41/6/57 44/2/64
f 49/2/65 39/6/51 38/6/51
f 39/6/51 49/2/65 48/2/65
f 52/7/67 51/3/66 50/3/66
f 51/3/66 52/7/67 53/7/67
f 56/7/69 55/3/68 54/3/68
f 55/3/68 56/7/69 57/7/69
f 53/7/71 54/3/70 51/3/70
f 54/3/70 53/7/71 56/7/71
f 55/3/72 51/3/72 54/3/72
f 51/3/72 55/3/72 58/3/72
f 51/3/72 58/3/72 50/3/72
f 50/3/72 58/3/72 59/3/72
f 55/3/73 60/7/74 58/3/73
f 60/7/74 55/3/73 57/7/74
f 59/3/75 52/7/76 50/3/75
f 52/7/76 59/3/75 61/7/76
f 58/3/77 61/7/78 59/3/77
f 61/7/78 58/3/77 60/7/78
f 52/7/67 62/2/79 53/7/67
f 62/2/79 52/7/67 63/2/79
f 64/2/80 60/7/74 57/7/74
f 60/7/74 64/2/80 65/2/80
f 66/2/81 57/7/69 56/7/69
f 57/7/69 66/2/81 64/2/81
f 61/7/76 63/2/82 52/7/76
f 63/2/82 61/7/76 67/2/82
f 61/7/78 65/2/83 67/2/83
f 65/2/83 61/7/78 60/7/78
f 62/2/84 56/7/71 53/7/71
f 56/7/71 62/2/84 66/2/84
f 70/9/85 69/8/86 68/8/85
f 69/8/86 70/9/85 71/9/86
f 70/9/85 73/8/87 72/9/87
f 73/8/87 70/9/85 68/8/85
f 75/8/88 71/9/86 74/9/88
f 71/9/86 75/8/88 69/8/86
f 68/8/89 76/8/89 73/8/89
f 76/8/89 68/8/89 77/8/89
f 77/8/89 68/8/89 69/8/89
f 77/8/89 69/8/89 75/8/89
f 78/9/90 76/8/91 77/8/90
f 76/8/91 78/9/90 79/9/91
f 75/8/88 78/9/90 77/8/90
f 78/9/90 75/8/88 74/9/88
f 79/9/91 73/8/87 76/8/91
f 73/8/87 79/9/91 72/9/87
f 81/10/93 72/9/92 80/10/92
f 72/9/92 81/10/93 70/9/93
f 82/10/94 72/9/92 79/9/94
f 72/9/92 82/10/94 80/10/92
f 74/9/95 84/10/96 83/10/95
f 84/10/96 74/9/95 71/9/96
f 81/10/93 71/9/96 70/9/93
f 71/9/96 81/10/93 84/10/96
f 74/9/95 85/10/97 78/9/97
f 85/10/97 74/9/95 83/10/95
f 85/10/97 79/9/94 78/9/97
f 79/9/94 85/10/97 82/10/94

g pine-crooked




usemtl colormap

f 3/1/1 2/2/2 1/1/1
f 2/2/4 5/1/3 4/1/3
f 6/1/6 5/1/6 2/2/5
f 7/1/8 6/1/8 2/2/7
f 2/2/10 3/1/9 7/1/9
f 1/1/11 2/2/12 4/1/11
f 9/3/13 4/1/11 8/3/13
f 4/1/11 9/3/13 1/1/11
f 7/1/8 10/3/14 6/1/8
f 10/3/14 7/1/8 11/3/14
f 12/3/15 1/1/1 9/3/15
f 1/1/1 12/3/15 3/1/1
f 11/3/16 13/3/16 10/3/16
f 13/3/16 11/3/16 12/3/16
f 13/3/16 12/3/16 8/3/16
f 8/3/16 12/3/16 9/3/16
f 7/1/9 12/3/17 11/3/17
f 12/3/17 7/1/9 3/1/9
f 5/1/6 10/3/18 13/3/18
f 10/3/18 5/1/6 6/1/6
f 4/1/3 13/3/19 8/3/19
f 13/3/19 4/1/3 5/1/3
f 16/3/22 15/3/21 14/4/20
f 17/5/23 16/3/22 14/4/20
f 19/5/26 15/3/25 18/3/24
f 14/4/27 15/3/25 19/5/26
f 20/2/28 14/4/27 19/5/26
f 20/2/28 21/2/29 14/4/27
f 17/5/23 14/4/20 21/2/30
f 17/5/23 21/2/30 22/2/31
f 25/3/32 24/5/33 23/3/32
f 24/5/33 25/3/32 26/5/34
f 28/5/36 25/3/35 27/3/35
f 25/3/35 28/5/36 26/5/36
f 27/3/37 15/3/37 16/3/37
f 15/3/37 27/3/37 25/3/37
f 15/3/37 25/3/37 18/3/37
f 18/3/37 25/3/37 23/3/37
f 24/5/33 30/2/38 29/2/38
f 30/2/38 24/5/33 26/5/34
f 23/3/39 19/5/40 18/3/39
f 19/5/40 23/3/39 24/5/41
f 17/5/43 27/3/42 16/3/42
f 27/3/42 17/5/43 28/5/44
f 31/2/45 17/5/43 22/2/45
f 17/5/43 31/2/45 28/5/44
f 24/5/41 20/2/46 19/5/40
f 20/2/46 24/5/41 29/2/46
f 31/2/47 26/5/36 28/5/36
f 26/5/36 31/2/47 30/2/47
f 34/6/49 33/3/48 32/3/48
f 33/3/48 34/6/49 35/6/49
f 38/6/51 37/3/50 36/3/50
f 37/3/50 38/6/51 39/6/51
f 42/3/52 41/6/53 40/3/52
f 41/6/53 42/3/52 43/6/53
f 33/3/16 37/3/16 32/3/16
f 37/3/16 33/3/16 42/3/16
f 37/3/16 42/3/16 36/3/16
f 36/3/16 42/3/16 40/3/16
f 39/6/55 32/3/54 37/3/54
f 32/3/54 39/6/55 34/6/55
f 40/3/56 38/6/57 36/3/56
f 38/6/57 40/3/56 41/6/57
f 35/6/59 42/3/58 33/3/58
f 42/3/58 35/6/59 43/6/59
f 41/6/53 45/2/60 44/2/60
f 45/2/60 41/6/53 43/6/53
f 47/2/61 34/6/49 46/2/61
f 34/6/49 47/2/61 35/6/49
f 48/2/62 34/6/55 39/6/55
f 34/6/55 48/2/62 46/2/62
f 47/2/63 43/6/59 35/6/59
f 43/6/59 47/2/63 45/2/63
f 41/6/57 49/2/64 38/6/57
f 49/2/64 41/6/57 44/2/64
f 49/2/65 39/6/51 38/6/51
f 39/6/51 49/2/65 48/2/65
f 52/7/67 51/3/66 50/3/66
f 51/3/66 52/7/67 53/7/67
f 56/7/69 55/3/68 54/3/68
f 55/3/68 56/7/69 57/7/69
f 53/7/71 54/3/70 51/3/70
f 54/3/70 53/7/71 56/7/71
f 55/3/72 51/3/72 54/3/72
f 51/3/72 55/3/72 58/3/72
f 51/3/72 58/3/72 50/3/72
f 50/3/72 58/3/72 59/3/72
f 55/3/73 60/7/74 58/3/73
f 60/7/74 55/3/73 57/7/74
f 59/3/75 52/7/76 50/3/75
f 52/7/76 59/3/75 61/7/76
f 58/3/77 61/7/78 59/3/77
f 61/7/78 58/3/77 60/7/78
f 52/7/67 62/2/79 53/7/67
f 62/2/79 52/7/67 63/2/79
f 64/2/80 60/7/74 57/7/74
f 60/7/74 64/2/80 65/2/80
f 66/2/81 57/7/69 56/7/69
f 57/7/69 66/2/81 64/2/81
f 61/7/76 63/2/82 52/7/76
f 63/2/82 61/7/76 67/2/82
f 61/7/78 65/2/83 67/2/83
f 65/2/83 61/7/78 60/7/78
f 62/2/84 56/7/71 53/7/71
f 56/7/71 62/2/84 66/2/84
f 70/9/85 69/8/86 68/8/85
f 69/8/86 70/9/85 71/9/86
f 70/9/85 73/8/87 72/9/87
f 73/8/87 70/9/85 68/8/85
f 75/8/88 71/9/86 74/9/88
f 71/9/86 75/8/88 69/8/86
f 68/8/89 76/8/89 73/8/89
f 76/8/89 68/8/89 77/8/89
f 77/8/89 68/8/89 69/8/89
f 77/8/89 69/8/89 75/8/89
f 78/9/90 76/8/91 77/8/90
f 76/8/91 78/9/90 79/9/91
f 75/8/88 78/9/90 77/8/90
f 78/9/90 75/8/88 74/9/88
f 79/9/91 73/8/87 76/8/91
f 73/8/87 79/9/91 72/9/87
f 81/10/93 72/9/92 80/10/92
f 72/9/92 81/10/93 70/9/93
f 82/10/94 72/9/92 79/9/94
f 72/9/92 82/10/94 80/10/92
f 74/9/95 84/10/96 83/10/95
f 84/10/96 74/9/95 71/9/96
f 81/10/93 71/9/96 70/9/93
f 71/9/96 81/10/93 84/10/96
f 74/9/95 85/10/97 78/9/97
f 85/10/97 74/9/95 83/10/95
f 85/10/97 79/9/94 78/9/97
f 79/9/94 85/10/97 82/10/94

