# Created by Kenney (www.kenney.nl)

mtllib pine.mtl

g pine

v 0.1060299 0 0.1836492 1 1 1
v -0.1060299 0 0.1836492 1 1 1
v 0.08467136 0.19 0.1466551 1 1 1
v -0.08467136 0.19 0.1466551 1 1 1
v 0.1693427 0.19 -9.023893E-16 1 1 1
v 0.2120598 0 -5.414336E-16 1 1 1
v -0.1693427 0.19 -9.023893E-16 1 1 1
v -0.2120598 0 -1.804779E-16 1 1 1
v 0.1060299 0 -0.1836492 1 1 1
v -0.1060299 0 -0.1836492 1 1 1
v -0.08467136 0.19 -0.1466551 1 1 1
v 0.08467136 0.19 -0.1466551 1 1 1
v 0.152561 0.3705 -1.263345E-15 1 1 1
v 0.0762805 0.3705 0.1321217 1 1 1
v 0.0762805 0.3705 -0.1321217 1 1 1
v -0.152561 0.3705 -1.263345E-15 1 1 1
v -0.0762805 0.3705 0.1321217 1 1 1
v -0.0762805 0.3705 -0.1321217 1 1 1
v -0.1809928 1.772446 -5.414336E-16 1 1 1
v -2.165734E-15 2.289848 -1.263345E-15 1 1 1
v -0.09049638 1.772446 0.1567443 1 1 1
v -0.09049638 1.772446 -0.1567443 1 1 1
v 0.09049638 1.772446 -0.1567443 1 1 1
v 0.1809928 1.772446 -5.414336E-16 1 1 1
v 0.09049638 1.772446 0.1567443 1 1 1
v -0.1423885 1.630344 -0.246624 1 1 1
v -0.2847769 1.630344 -5.414336E-16 1 1 1
v 0.2847769 1.630344 -5.414336E-16 1 1 1
v 0.1423885 1.630344 0.246624 1 1 1
v -0.1423885 1.630344 0.246624 1 1 1
v 0.1423885 1.630344 -0.246624 1 1 1
v -0.2203057 1.630344 -1.624301E-15 1 1 1
v -0.1101529 1.630344 0.1907903 1 1 1
v -0.2904249 1.37123 -1.082867E-15 1 1 1
v -0.1452124 1.37123 0.2515153 1 1 1
v 0.1873532 1.17179 -0.3245053 1 1 1
v 0.3747065 1.17179 -1.082867E-15 1 1 1
v 0.1452124 1.37123 -0.2515153 1 1 1
v 0.2904249 1.37123 -1.082867E-15 1 1 1
v -0.3747065 1.17179 -1.082867E-15 1 1 1
v -0.1873532 1.17179 0.3245053 1 1 1
v -0.1873532 1.17179 -0.3245053 1 1 1
v -0.1452124 1.37123 -0.2515153 1 1 1
v 0.1452124 1.37123 0.2515153 1 1 1
v 0.1873532 1.17179 0.3245053 1 1 1
v 0.2203057 1.630344 -2.346212E-15 1 1 1
v 0.1101529 1.630344 0.1907903 1 1 1
v -0.1101529 1.630344 -0.1907903 1 1 1
v 0.1101529 1.630344 -0.1907903 1 1 1
v 0.47709 0.7739441 1.804779E-16 1 1 1
v 0.238545 0.7739441 0.4131721 1 1 1
v 0.3771751 0.9263051 5.414336E-16 1 1 1
v 0.1885876 0.9263051 0.3266433 1 1 1
v -0.238545 0.7739441 -0.4131721 1 1 1
v 0.238545 0.7739441 -0.4131721 1 1 1
v -0.1885876 0.9263051 -0.3266433 1 1 1
v 0.1885876 0.9263051 -0.3266433 1 1 1
v -0.47709 0.7739441 1.804779E-16 1 1 1
v -0.3771751 0.9263051 5.414336E-16 1 1 1
v -0.238545 0.7739441 0.4131721 1 1 1
v -0.1885876 0.9263051 0.3266433 1 1 1
v -0.2997558 1.17179 5.414336E-16 1 1 1
v -0.1498779 1.17179 0.2595962 1 1 1
v 0.2997558 1.17179 -5.414336E-16 1 1 1
v 0.1498779 1.17179 0.2595962 1 1 1
v 0.1498779 1.17179 -0.2595962 1 1 1
v -0.1498779 1.17179 -0.2595962 1 1 1
v -0.2328242 0.5415 -0.4032633 1 1 1
v 0.2328242 0.5415 -0.4032633 1 1 1
v -0.1925055 0.7739441 -0.3334293 1 1 1
v 0.1925055 0.7739441 -0.3334293 1 1 1
v -0.2945 0.3705 -0.510089 1 1 1
v 0.2945 0.3705 -0.510089 1 1 1
v 0.2328242 0.5415 0.4032633 1 1 1
v -0.2328242 0.5415 0.4032633 1 1 1
v 0.1925055 0.7739441 0.3334293 1 1 1
v -0.1925055 0.7739441 0.3334293 1 1 1
v 0.589 0.3705 -1.804779E-16 1 1 1
v 0.2945 0.3705 0.510089 1 1 1
v 0.4656483 0.5415 1.804779E-16 1 1 1
v 0.385011 0.7739441 5.414336E-16 1 1 1
v -0.2945 0.3705 0.510089 1 1 1
v -0.589 0.3705 -1.804779E-16 1 1 1
v -0.4656483 0.5415 1.804779E-16 1 1 1
v -0.385011 0.7739441 -1.804779E-16 1 1 1

vn 0.4878229 0.2193513 0.8449342
vn -0.4878229 0.2193513 0.8449342
vn 0.9756458 0.2193513 0
vn -0.9756458 0.2193513 0
vn 0 -1 0
vn -0.4878229 0.2193513 -0.8449342
vn 0.4878229 0.2193513 -0.8449342
vn 0.9957058 0.09257422 0
vn 0.4978529 0.09257422 0.8623065
vn 0.4978529 0.09257422 -0.8623065
vn -0.9957058 0.09257422 0
vn -0.4978529 0.09257422 0.8623065
vn -0.4978529 0.09257422 -0.8623065
vn -0.7804331 0.433473 0.4505833
vn -0.8288271 0.2899323 0.4785235
vn 0 0.4334731 -0.9011666
vn 0 0.2899324 -0.9570471
vn 0.8288271 0.2899323 -0.4785235
vn 0.7804331 0.433473 -0.4505833
vn 0.8288271 0.2899323 0.4785235
vn 0.7804331 0.433473 0.4505833
vn 0 0.4334731 0.9011666
vn 0 0.2899324 0.9570471
vn -0.7804331 0.433473 -0.4505833
vn -0.8288271 0.2899323 -0.4785235
vn -0.7319101 0.5345497 -0.4225685
vn 0.7319101 0.5345497 0.4225685
vn -0.7319101 0.5345497 0.4225685
vn 0 0.5345497 0.8451371
vn 0.7319101 0.5345497 -0.4225685
vn 0 0.5345497 -0.8451371
vn -0.8431799 0.2281744 0.4868101
vn -0.8281924 0.2923411 0.4781571
vn 0.8132727 0.3436811 -0.4695432
vn 0.8281924 0.2923411 -0.4781571
vn -0.8132727 0.3436811 0.4695432
vn -0.8132727 0.3436811 -0.4695432
vn -0.8281924 0.2923411 -0.4781571
vn 0.8281924 0.2923411 0.4781571
vn 0.8132727 0.3436811 0.4695432
vn 0 0.3436811 -0.9390864
vn 0 0.2923411 -0.9563141
vn 0 0.3436811 0.9390864
vn 0 0.2923411 0.9563141
vn 0.8431799 0.2281744 0.4868101
vn -0.8431799 0.2281744 -0.4868101
vn 0 0.2281744 -0.9736202
vn 0 0.2281744 0.9736202
vn 0.8431799 0.2281744 -0.4868101
vn 0.7530563 0.4938371 0.4347772
vn 0.7949284 0.3968019 0.4589521
vn 0 0.4938371 -0.8695545
vn 0 0.3968019 -0.9179043
vn -0.7530563 0.4938371 0.4347772
vn -0.7949284 0.3968019 0.4589521
vn -0.8354264 0.2634712 0.4823336
vn 0.7530563 0.4938371 -0.4347772
vn 0.7949284 0.3968019 -0.4589521
vn 0.8354264 0.2634712 0.4823336
vn 0.8354264 0.2634712 -0.4823336
vn 0 0.3968019 0.9179043
vn 0 0.2634712 0.9646673
vn -0.7949284 0.3968019 -0.4589521
vn -0.8354264 0.2634712 -0.4823336
vn -0.7530563 0.4938371 -0.4347772
vn 0 0.2634712 -0.9646673
vn 0 0.4938371 0.8695545
vn 0 0.4295715 -0.9030328
vn 0 0.2877287 -0.957712
vn 0 0.5298231 -0.8481082
vn 0 0.4295715 0.9030328
vn 0 0.2877287 0.957712
vn 0.7344832 0.5298231 0.4240541
vn 0.7820494 0.4295715 0.4515164
vn 0.8294029 0.2877287 0.478856
vn 0.7344832 0.5298231 -0.4240541
vn 0.7820494 0.4295715 -0.4515164
vn 0 0.5298231 0.8481082
vn -0.7344832 0.5298231 -0.4240541
vn -0.7820494 0.4295715 -0.4515164
vn -0.8294029 0.2877287 -0.478856
vn -0.8294029 0.2877287 0.478856
vn -0.7820494 0.4295715 0.4515164
vn 0.8294029 0.2877287 -0.478856
vn -0.7344832 0.5298231 0.4240541

vt 0.96875 0.025
vt 0.96875 0.1275641
vt 0.96875 0.225
vt 0.34375 0.3465468
vt 0.34375 0.425
vt 0.34375 0.325
vt 0.34375 0.3684934
vt 0.34375 0.3632965
vt 0.34375 0.3673851

usemtl colormap

f 3/2/1 2/1/2 1/1/1
f 2/1/2 3/2/1 4/2/2
f 3/2/1 6/1/3 5/2/3
f 6/1/3 3/2/1 1/1/1
f 8/1/4 4/2/2 7/2/4
f 4/2/2 8/1/4 2/1/2
f 1/1/5 9/1/5 6/1/5
f 9/1/5 1/1/5 10/1/5
f 10/1/5 1/1/5 2/1/5
f 10/1/5 2/1/5 8/1/5
f 11/2/6 9/1/7 10/1/6
f 9/1/7 11/2/6 12/2/7
f 8/1/4 11/2/6 10/1/6
f 11/2/6 8/1/4 7/2/4
f 12/2/7 6/1/3 9/1/7
f 6/1/3 12/2/7 5/2/3
f 14/3/9 5/2/8 13/3/8
f 5/2/8 14/3/9 3/2/9
f 15/3/10 5/2/8 12/2/10
f 5/2/8 15/3/10 13/3/8
f 7/2/11 17/3/12 16/3/11
f 17/3/12 7/2/11 4/2/12
f 14/3/9 4/2/12 3/2/9
f 4/2/12 14/3/9 17/3/12
f 7/2/11 18/3/13 11/2/13
f 18/3/13 7/2/11 16/3/11
f 18/3/13 12/2/10 11/2/13
f 12/2/10 18/3/13 15/3/10
f 21/4/14 20/5/15 19/4/14
f 20/5/17 23/4/16 22/4/16
f 24/4/19 23/4/19 20/5/18
f 25/4/21 24/4/21 20/5/20
f 20/5/23 21/4/22 25/4/22
f 19/4/24 20/5/25 22/4/24
f 27/6/26 22/4/24 26/6/26
f 22/4/24 27/6/26 19/4/24
f 25/4/21 28/6/27 24/4/21
f 28/6/27 25/4/21 29/6/27
f 30/6/28 19/4/14 27/6/28
f 19/4/14 30/6/28 21/4/14
f 29/6/5 31/6/5 28/6/5
f 31/6/5 29/6/5 30/6/5
f 31/6/5 30/6/5 26/6/5
f 26/6/5 30/6/5 27/6/5
f 25/4/22 30/6/29 29/6/29
f 30/6/29 25/4/22 21/4/22
f 23/4/19 28/6/30 31/6/30
f 28/6/30 23/4/19 24/4/19
f 22/4/16 31/6/31 26/6/31
f 31/6/31 22/4/16 23/4/16
f 34/7/33 33/5/32 32/5/32
f 33/5/32 34/7/33 35/7/33
f 38/7/35 37/6/34 36/6/34
f 37/6/34 38/7/35 39/7/35
f 41/6/36 34/7/33 40/6/36
f 34/7/33 41/6/36 35/7/33
f 40/6/37 43/7/38 42/6/37
f 43/7/38 40/6/37 34/7/38
f 44/7/39 37/6/40 39/7/39
f 37/6/40 44/7/39 45/6/40
f 43/7/42 36/6/41 42/6/41
f 36/6/41 43/7/42 38/7/42
f 44/7/44 41/6/43 45/6/43
f 41/6/43 44/7/44 35/7/44
f 47/5/45 39/7/39 46/5/45
f 39/7/39 47/5/45 44/7/39
f 34/7/38 48/5/46 43/7/38
f 48/5/46 34/7/38 32/5/46
f 45/6/5 36/6/5 37/6/5
f 36/6/5 45/6/5 41/6/5
f 36/6/5 41/6/5 42/6/5
f 42/6/5 41/6/5 40/6/5
f 48/5/47 38/7/42 43/7/42
f 38/7/42 48/5/47 49/5/47
f 47/5/48 35/7/44 44/7/44
f 35/7/44 47/5/48 33/5/48
f 49/5/49 39/7/35 38/7/35
f 39/7/35 49/5/49 46/5/49
f 52/8/51 51/6/50 50/6/50
f 51/6/50 52/8/51 53/8/51
f 56/8/53 55/6/52 54/6/52
f 55/6/52 56/8/53 57/8/53
f 60/6/54 59/8/55 58/6/54
f 59/8/55 60/6/54 61/8/55
f 51/6/5 55/6/5 50/6/5
f 55/6/5 51/6/5 60/6/5
f 55/6/5 60/6/5 54/6/5
f 54/6/5 60/6/5 58/6/5
f 61/8/55 62/5/56 59/8/55
f 62/5/56 61/8/55 63/5/56
f 57/8/58 50/6/57 55/6/57
f 50/6/57 57/8/58 52/8/58
f 65/5/59 52/8/51 64/5/59
f 52/8/51 65/5/59 53/8/51
f 66/5/60 52/8/58 57/8/58
f 52/8/58 66/5/60 64/5/60
f 65/5/62 61/8/61 53/8/61
f 61/8/61 65/5/62 63/5/62
f 59/8/63 67/5/64 56/8/63
f 67/5/64 59/8/63 62/5/64
f 58/6/65 56/8/63 54/6/65
f 56/8/63 58/6/65 59/8/63
f 67/5/66 57/8/53 56/8/53
f 57/8/53 67/5/66 66/5/66
f 53/8/61 60/6/67 51/6/67
f 60/6/67 53/8/61 61/8/61
f 70/5/69 69/9/68 68/9/68
f 69/9/68 70/5/69 71/5/69
f 68/9/68 73/6/70 72/6/70
f 73/6/70 68/9/68 69/9/68
f 76/5/72 75/9/71 74/9/71
f 75/9/71 76/5/72 77/5/72
f 80/9/74 79/6/73 78/6/73
f 79/6/73 80/9/74 74/9/74
f 81/5/75 74/9/74 80/9/74
f 74/9/74 81/5/75 76/5/75
f 69/9/77 78/6/76 73/6/76
f 78/6/76 69/9/77 80/9/77
f 79/6/5 73/6/5 78/6/5
f 73/6/5 79/6/5 82/6/5
f 73/6/5 82/6/5 72/6/5
f 72/6/5 82/6/5 83/6/5
f 74/9/71 82/6/78 79/6/78
f 82/6/78 74/9/71 75/9/71
f 83/6/79 68/9/80 72/6/79
f 68/9/80 83/6/79 84/9/80
f 84/9/80 70/5/81 68/9/80
f 70/5/81 84/9/80 85/5/81
f 84/9/83 77/5/82 85/5/82
f 77/5/82 84/9/83 75/9/83
f 71/5/84 80/9/77 69/9/77
f 80/9/77 71/5/84 81/5/84
f 82/6/85 84/9/83 83/6/85
f 84/9/83 82/6/85 75/9/83

g pine




usemtl colormap

f 3/2/1 2/1/2 1/1/1
f 2/1/2 3/2/1 4/2/2
f 3/2/1 6/1/3 5/2/3
f 6/1/3 3/2/1 1/1/1
f 8/1/4 4/2/2 7/2/4
f 4/2/2 8/1/4 2/1/2
f 1/1/5 9/1/5 6/1/5
f 9/1/5 1/1/5 10/1/5
f 10/1/5 1/1/5 2/1/5
f 10/1/5 2/1/5 8/1/5
f 11/2/6 9/1/7 10/1/6
f 9/1/7 11/2/6 12/2/7
f 8/1/4 11/2/6 10/1/6
f 11/2/6 8/1/4 7/2/4
f 12/2/7 6/1/3 9/1/7
f 6/1/3 12/2/7 5/2/3
f 14/3/9 5/2/8 13/3/8
f 5/2/8 14/3/9 3/2/9
f 15/3/10 5/2/8 12/2/10
f 5/2/8 15/3/10 13/3/8
f 7/2/11 17/3/12 16/3/11
f 17/3/12 7/2/11 4/2/12
f 14/3/9 4/2/12 3/2/9
f 4/2/12 14/3/9 17/3/12
f 7/2/11 18/3/13 11/2/13
f 18/3/13 7/2/11 16/3/11
f 18/3/13 12/2/10 11/2/13
f 12/2/10 18/3/13 15/3/10
f 21/4/14 20/5/15 19/4/14
f 20/5/17 23/4/16 22/4/16
f 24/4/19 23/4/19 20/5/18
f 25/4/21 24/4/21 20/5/20
f 20/5/23 21/4/22 25/4/22
f 19/4/24 20/5/25 22/4/24
f 27/6/26 22/4/24 26/6/26
f 22/4/24 27/6/26 19/4/24
f 25/4/21 28/6/27 24/4/21
f 28/6/27 25/4/21 29/6/27
f 30/6/28 19/4/14 27/6/28
f 19/4/14 30/6/28 21/4/14
f 29/6/5 31/6/5 28/6/5
f 31/6/5 29/6/5 30/6/5
f 31/6/5 30/6/5 26/6/5
f 26/6/5 30/6/5 27/6/5
f 25/4/22 30/6/29 29/6/29
f 30/6/29 25/4/22 21/4/22
f 23/4/19 28/6/30 31/6/30
f 28/6/30 23/4/19 24/4/19
f 22/4/16 31/6/31 26/6/31
f 31/6/31 22/4/16 23/4/16
f 34/7/33 33/5/32 32/5/32
f 33/5/32 34/7/33 35/7/33
f 38/7/35 37/6/34 36/6/34
f 37/6/34 38/7/35 39/7/35
f 41/6/36 34/7/33 40/6/36
f 34/7/33 41/6/36 35/7/33
f 40/6/37 43/7/38 42/6/37
f 43/7/38 40/6/37 34/7/38
f 44/7/39 37/6/40 39/7/39
f 37/6/40 44/7/39 45/6/40
f 43/7/42 36/6/41 42/6/41
f 36/6/41 43/7/42 38/7/42
f 44/7/44 41/6/43 45/6/43
f 41/6/43 44/7/44 35/7/44
f 47/5/45 39/7/39 46/5/45
f 39/7/39 47/5/45 44/7/39
f 34/7/38 48/5/46 43/7/38
f 48/5/46 34/7/38 32/5/46
f 45/6/5 36/6/5 37/6/5
f 36/6/5 45/6/5 41/6/5
f 36/6/5 41/6/5 42/6/5
f 42/6/5 41/6/5 40/6/5
f 48/5/47 38/7/42 43/7/42
f 38/7/42 48/5/47 49/5/47
f 47/5/48 35/7/44 44/7/44
f 35/7/44 47/5/48 33/5/48
f 49/5/49 39/7/35 38/7/35
f 39/7/35 49/5/49 46/5/49
f 52/8/51 51/6/50 50/6/50
f 51/6/50 52/8/51 53/8/51
f 56/8/53 55/6/52 54/6/52
f 55/6/52 56/8/53 57/8/53
f 60/6/54 59/8/55 58/6/54
f 59/8/55 60/6/54 61/8/55
f 51/6/5 55/6/5 50/6/5
f 55/6/5 51/6/5 60/6/5
f 55/6/5 60/6/5 54/6/5
f 54/6/5 60/6/5 58/6/5
f 61/8/55 62/5/56 59/8/55
f 62/5/56 61/8/55 63/5/56
f 57/8/58 50/6/57 55/6/57
f 50/6/57 57/8/58 52/8/58
f 65/5/59 52/8/51 64/5/59
f 52/8/51 65/5/59 53/8/51
f 66/5/60 52/8/58 57/8/58
f 52/8/58 66/5/60 64/5/60
f 65/5/62 61/8/61 53/8/61
f 61/8/61 65/5/62 63/5/62
f 59/8/63 67/5/64 56/8/63
f 67/5/64 59/8/63 62/5/64
f 58/6/65 56/8/63 54/6/65
f 56/8/63 58/6/65 59/8/63
f 67/5/66 57/8/53 56/8/53
f 57/8/53 67/5/66 66/5/66
f 53/8/61 60/6/67 51/6/67
f 60/6/67 53/8/61 61/8/61
f 70/5/69 69/9/68 68/9/68
f 69/9/68 70/5/69 71/5/69
f 68/9/68 73/6/70 72/6/70
f 73/6/70 68/9/68 69/9/68
f 76/5/72 75/9/71 74/9/71
f 75/9/71 76/5/72 77/5/72
f 80/9/74 79/6/73 78/6/73
f 79/6/73 80/9/74 74/9/74
f 81/5/75 74/9/74 80/9/74
f 74/9/74 81/5/75 76/5/75
f 69/9/77 78/6/76 73/6/76
f 78/6/76 69/9/77 80/9/77
f 79/6/5 73/6/5 78/6/5
f 73/6/5 79/6/5 82/6/5
f 73/6/5 82/6/5 72/6/5
f 72/6/5 82/6/5 83/6/5
f 74/9/71 82/6/78 79/6/78
f 82/6/78 74/9/71 75/9/71
f 83/6/79 68/9/80 72/6/79
f 68/9/80 83/6/79 84/9/80
f 84/9/80 70/5/81 68/9/80
f 70/5/81 84/9/80 85/5/81
f 84/9/83 77/5/82 85/5/82
f 77/5/82 84/9/83 75/9/83
f 71/5/84 80/9/77 69/9/77
f 80/9/77 71/5/84 81/5/84
f 82/6/85 84/9/83 83/6/85
f 84/9/83 82/6/85 75/9/83

