# Created by Kenney (www.kenney.nl)

mtllib pumpkin-tall-carved.mtl

g pumpkin-tall-carved

v -0.031039 0.083455 0.096734 1 1 1
v -0.038799 0.085178 0.116891 1 1 1
v -0.041385 0.083455 0.096734 1 1 1
v -0.051732 0.085178 0.116891 1 1 1
v -0.12 0 0 1 1 1
v -0.1392 0.07 0 1 1 1
v -0.06 0 0.103923 1 1 1
v -0.06959999 0.07 0.120551 1 1 1
v -0.06959999 0.07 -0.120551 1 1 1
v -0.06 0 -0.103923 1 1 1
v 0.1392 0.07 0 1 1 1
v 0.12 0 0 1 1 1
v 0.06959999 0.07 0.120551 1 1 1
v 0.06 0 0.103923 1 1 1
v -0.052896 0.19 -0.091619 1 1 1
v -0.105792 0.19 0 1 1 1
v 0.038084 0.10717 0.09101599 1 1 1
v 0.047605 0.114822 0.109744 1 1 1
v 0.041385 0.083455 0.096734 1 1 1
v 0.051732 0.085178 0.116891 1 1 1
v -0.010346 0.083455 0.096734 1 1 1
v -0.012933 0.085178 0.116891 1 1 1
v -0.020693 0.093513 0.094309 1 1 1
v -0.025866 0.097751 0.11386 1 1 1
v 0.06 0 -0.103923 1 1 1
v 0.06959999 0.07 -0.120551 1 1 1
v 0.02886 0.150662 0.08053 1 1 1
v 0.019015 0.129962 0.085521 1 1 1
v 0.028536 0.16 0.098852 1 1 1
v 0.014268 0.13 0.106085 1 1 1
v 0.019042 0.094315 0.094115 1 1 1
v 0.030214 0.083455 0.096734 1 1 1
v 0.023803 0.098754 0.113618 1 1 1
v 0.037767 0.085178 0.116891 1 1 1
v 0.052896 0.19 -0.091619 1 1 1
v 0.040145 0.129962 0.085521 1 1 1
v 0.044892 0.13 0.106085 1 1 1
v -0.030624 0.150662 0.08053 1 1 1
v -0.030624 0.16 0.098852 1 1 1
v -0.020059 0.129962 0.085521 1 1 1
v -0.015312 0.13 0.106085 1 1 1
v -0.045936 0.13 0.106085 1 1 1
v -0.041189 0.129962 0.085521 1 1 1
v -0.052896 0.19 0.091619 1 1 1
v 0.009838 0.085178 0.116891 1 1 1
v 0.007871 0.083455 0.096734 1 1 1
v 0.105792 0.19 0 1 1 1
v 0.052896 0.19 0.091619 1 1 1
v -0.047605 0.114822 0.109744 1 1 1
v 0.04867 0.19 0 1 1 1
v 0.024335 0.19 -0.042149 1 1 1
v 0.024335 0.19 0.042149 1 1 1
v -0.024335 0.19 -0.042149 1 1 1
v -0.024335 0.19 0.042149 1 1 1
v -0.04867 0.19 0 1 1 1
v -0.038084 0.10717 0.09101599 1 1 1
v 0.00275 0.23 -0.01275 1 1 1
v 0.00275 0.23 0.01275 1 1 1
v 0.008415 0.26 -0.008415 1 1 1
v 0.008415 0.26 0.008415 1 1 1
v -0.02275 0.23 -0.01275 1 1 1
v -0.008415 0.26 -0.008415 1 1 1
v -0.02275 0.23 0.01275 1 1 1
v -0.008415 0.26 0.008415 1 1 1
v -0.02 0.19 -0.02 1 1 1
v -0.02 0.19 0.02 1 1 1
v 0.02 0.19 -0.02 1 1 1
v 0.02 0.19 0.02 1 1 1

vn -0.4683259 0.8466589 -0.2526651
vn -0.2924233 0.9366843 -0.1926423
vn 0 0.9963665 -0.08516841
vn -0.8425804 -0.2311088 0.4864635
vn -0.8660249 0.001529575 0.4999987
vn -0.8660249 0.001529976 0.4999987
vn -0.8660249 0.001529976 -0.4999987
vn -0.8660249 0.001529575 -0.4999987
vn -0.8425804 -0.2311088 -0.4864635
vn 0.8660249 0.001529575 0.4999987
vn 0.8425804 -0.2311088 0.4864635
vn 0.8660249 0.001529976 0.4999987
vn -0.8419019 0.2343849 -0.4860707
vn -0.8890961 -0.01346103 0.4575225
vn 0 -0.2311119 0.9729272
vn 0 0.001527454 0.9999988
vn 0.3617304 0.9316905 -0.03322466
vn 0.3882738 0.9210903 -0.02891264
vn 0.6934671 0.7199656 0.02744006
vn 0 -0.2311119 -0.9729272
vn 0 0.001527454 -0.9999988
vn 0.9017273 -0.3785069 0.2088551
vn 0.6983145 0.6419843 -0.3165646
vn 0.4668446 0.8489941 -0.2475179
vn 0.2943905 0.9365318 -0.1903745
vn 0.8660249 0.001529976 -0.4999987
vn 0.8425804 -0.2311088 -0.4864635
vn 0.8660249 0.001529575 -0.4999987
vn 0 0.2343839 -0.9721441
vn -0.8793844 -0.4303006 0.2037755
vn -0.8907729 -0.404891 0.2063662
vn 0 0.9999983 -0.001847887
vn -0.8419019 0.2343849 0.4860707
vn 0.8907729 -0.404891 0.2063662
vn -0.3833764 0.9226613 -0.04145498
vn -0.3691729 0.9283502 -0.04332738
vn 0.8419019 0.2343849 0.4860707
vn 0 0.2343839 0.9721441
vn -0.6962422 0.7177767 0.006590469
vn 0 -1 0
vn 0 1 0
vn -0.6975037 0.6395597 -0.3231901
vn 0.8419019 0.2343849 -0.4860707
vn 0 -0.9257106 0.3782325
vn 0.8890961 -0.01346103 0.4575225
vn 0 0.2343941 0.9721416
vn 1.300361E-06 0.234398 0.9721407
vn 0.9902409 0.139366 0
vn 0.9826341 -0.1855541 0
vn -0.9867238 0.1624074 0
vn -0.9022843 0.4311415 0
vn -0.9976451 -0.0685881 0
vn 0 0.1783442 -0.9839681
vn 0 0.1632162 -0.9865903
vn 0 0.1617314 -0.9868348
vn 0.9182522 0.3959962 0
vn 0 0.1783442 0.9839681
vn 0 0.1617314 0.9868348
vn 0 0.1632162 0.9865903
vn 0 0.1430146 -0.9897205
vn 0 0.1430146 0.9897205

vt 0.59375 0.3628474
vt 0.59375 0.364661
vt 0.59375 0.275
vt 0.59375 0.3486842
vt 0.59375 0.475
vt 0.59375 0.3878105
vt 0.59375 0.3958653
vt 0.59375 0.3734347
vt 0.59375 0.3778958
vt 0.59375 0.4335916
vt 0.59375 0.4118021
vt 0.59375 0.4434211
vt 0.59375 0.4118421
vt 0.59375 0.3742789
vt 0.59375 0.3789516
vt 0.46875 0.4118021
vt 0.46875 0.4335916
vt 0.46875 0.3628474
vt 0.46875 0.3742789
vt 0.46875 0.3734347
vt 0.46875 0.3878105
vt 0.34375 0.3892857
vt 0.34375 0.475
vt 0.34375 0.275

usemtl colormap

f 3/1/3 2/2/2 1/1/1
f 2/2/2 3/1/3 4/2/3
f 7/3/4 6/4/5 5/3/4
f 6/4/5 7/3/4 8/4/6
f 10/3/9 6/4/8 9/4/7
f 6/4/8 10/3/9 5/3/9
f 13/4/12 12/3/11 11/4/10
f 12/3/11 13/4/12 14/3/11
f 6/4/8 15/5/13 9/4/7
f 15/5/13 6/4/8 16/5/13
f 19/1/14 18/7/14 17/6/14
f 18/7/14 19/1/14 20/2/14
f 13/4/16 7/3/15 14/3/15
f 7/3/15 13/4/16 8/4/16
f 23/8/19 22/2/18 21/1/17
f 22/2/18 23/8/19 24/9/19
f 9/4/21 25/3/20 10/3/20
f 25/3/20 9/4/21 26/4/21
f 29/12/22 28/11/22 27/10/22
f 28/11/22 29/12/22 30/13/22
f 33/15/23 32/1/24 31/14/23
f 32/1/24 33/15/23 34/2/25
f 11/4/28 25/3/27 26/4/26
f 25/3/27 11/4/28 12/3/27
f 15/5/29 26/4/21 9/4/21
f 26/4/21 15/5/29 35/5/29
f 36/11/30 29/12/30 27/10/30
f 29/12/30 36/11/30 37/13/30
f 40/11/31 39/12/31 38/10/31
f 39/12/31 40/11/31 41/13/31
f 40/11/32 42/13/32 41/13/32
f 42/13/32 40/11/32 43/11/32
f 8/4/6 16/5/33 6/4/5
f 16/5/33 8/4/6 44/5/33
f 39/12/34 43/11/34 38/10/34
f 43/11/34 39/12/34 42/13/34
f 46/1/36 22/2/18 45/2/35
f 22/2/18 46/1/36 21/1/17
f 19/1/3 34/2/25 20/2/3
f 34/2/25 19/1/3 32/1/24
f 48/5/37 11/4/10 47/5/37
f 11/4/10 48/5/37 13/4/12
f 33/15/38 45/2/38 34/2/38
f 4/2/38 34/2/38 45/2/38
f 4/2/38 45/2/38 22/2/38
f 4/2/38 20/2/38 34/2/38
f 4/2/38 22/2/38 2/2/38
f 24/9/38 2/2/38 22/2/38
f 4/2/38 8/4/16 20/2/38
f 13/4/16 20/2/38 8/4/16
f 8/4/16 4/2/38 44/5/38
f 20/2/38 13/4/16 48/5/38
f 20/2/38 48/5/38 18/7/38
f 44/5/38 4/2/38 49/7/38
f 18/7/38 37/13/38 49/7/38
f 18/7/38 48/5/38 37/13/38
f 44/5/38 49/7/38 42/13/38
f 42/13/38 49/7/38 37/13/38
f 42/13/38 37/13/38 30/13/38
f 37/13/38 48/5/38 29/12/38
f 42/13/38 30/13/38 41/13/38
f 29/12/38 41/13/38 30/13/38
f 44/5/38 42/13/38 39/12/38
f 44/5/38 39/12/38 48/5/38
f 41/13/38 29/12/38 39/12/38
f 29/12/38 48/5/38 39/12/38
f 31/14/39 45/2/35 33/15/39
f 45/2/35 31/14/39 46/1/36
f 14/3/40 25/3/40 12/3/40
f 25/3/40 14/3/40 7/3/40
f 25/3/40 7/3/40 10/3/40
f 10/3/40 7/3/40 5/3/40
f 35/5/41 48/5/41 47/5/41
f 48/5/41 35/5/41 50/5/41
f 50/5/41 35/5/41 51/5/41
f 52/5/41 48/5/41 50/5/41
f 51/5/41 35/5/41 15/5/41
f 48/5/41 52/5/41 44/5/41
f 51/5/41 15/5/41 53/5/41
f 44/5/41 52/5/41 54/5/41
f 53/5/41 15/5/41 55/5/41
f 44/5/41 54/5/41 55/5/41
f 44/5/41 55/5/41 15/5/41
f 44/5/41 15/5/41 16/5/41
f 1/1/1 24/9/42 23/8/42
f 24/9/42 1/1/1 2/2/2
f 35/5/43 11/4/28 26/4/26
f 11/4/28 35/5/43 47/5/43
f 36/11/32 30/13/32 37/13/32
f 30/13/32 36/11/32 28/11/32
f 49/7/44 17/6/44 18/7/44
f 17/6/44 49/7/44 56/6/44
f 49/7/45 3/1/45 56/6/45
f 3/1/45 49/7/45 4/2/45
f 27/17/46 28/16/46 36/16/46
f 38/17/46 43/16/46 40/16/46
f 31/19/47 21/18/47 46/18/47
f 21/18/47 31/19/47 23/20/47
f 56/21/47 23/20/47 31/19/47
f 3/18/47 23/20/47 56/21/47
f 23/20/47 3/18/47 1/18/47
f 56/21/47 31/19/47 17/21/47
f 32/18/47 17/21/47 31/19/47
f 17/21/47 32/18/47 19/18/47
f 59/23/49 58/22/48 57/22/48
f 58/22/48 59/23/49 60/23/49
f 63/22/50 62/23/51 61/22/50
f 62/23/51 63/22/50 64/23/51
f 66/24/52 61/22/50 65/24/52
f 61/22/50 66/24/52 63/22/50
f 61/22/54 67/24/53 65/24/53
f 67/24/53 61/22/54 57/22/55
f 62/23/41 60/23/41 59/23/41
f 60/23/41 62/23/41 64/23/41
f 57/22/48 68/24/56 67/24/56
f 68/24/56 57/22/48 58/22/48
f 58/22/58 66/24/57 68/24/57
f 66/24/57 58/22/58 63/22/59
f 62/23/60 57/22/55 61/22/54
f 57/22/55 62/23/60 59/23/60
f 60/23/61 63/22/59 58/22/58
f 63/22/59 60/23/61 64/23/61
f 51/24/41 52/24/41 50/24/41
f 52/24/41 51/24/41 67/24/41
f 67/24/41 51/24/41 53/24/41
f 68/24/41 52/24/41 67/24/41
f 67/24/41 53/24/41 65/24/41
f 52/24/41 68/24/41 54/24/41
f 65/24/41 53/24/41 66/24/41
f 54/24/41 68/24/41 66/24/41
f 54/24/41 66/24/41 53/24/41
f 54/24/41 53/24/41 55/24/41

g pumpkin-tall-carved




usemtl colormap

f 3/1/3 2/2/2 1/1/1
f 2/2/2 3/1/3 4/2/3
f 7/3/4 6/4/5 5/3/4
f 6/4/5 7/3/4 8/4/6
f 10/3/9 6/4/8 9/4/7
f 6/4/8 10/3/9 5/3/9
f 13/4/12 12/3/11 11/4/10
f 12/3/11 13/4/12 14/3/11
f 6/4/8 15/5/13 9/4/7
f 15/5/13 6/4/8 16/5/13
f 19/1/14 18/7/14 17/6/14
f 18/7/14 19/1/14 20/2/14
f 13/4/16 7/3/15 14/3/15
f 7/3/15 13/4/16 8/4/16
f 23/8/19 22/2/18 21/1/17
f 22/2/18 23/8/19 24/9/19
f 9/4/21 25/3/20 10/3/20
f 25/3/20 9/4/21 26/4/21
f 29/12/22 28/11/22 27/10/22
f 28/11/22 29/12/22 30/13/22
f 33/15/23 32/1/24 31/14/23
f 32/1/24 33/15/23 34/2/25
f 11/4/28 25/3/27 26/4/26
f 25/3/27 11/4/28 12/3/27
f 15/5/29 26/4/21 9/4/21
f 26/4/21 15/5/29 35/5/29
f 36/11/30 29/12/30 27/10/30
f 29/12/30 36/11/30 37/13/30
f 40/11/31 39/12/31 38/10/31
f 39/12/31 40/11/31 41/13/31
f 40/11/32 42/13/32 41/13/32
f 42/13/32 40/11/32 43/11/32
f 8/4/6 16/5/33 6/4/5
f 16/5/33 8/4/6 44/5/33
f 39/12/34 43/11/34 38/10/34
f 43/11/34 39/12/34 42/13/34
f 46/1/36 22/2/18 45/2/35
f 22/2/18 46/1/36 21/1/17
f 19/1/3 34/2/25 20/2/3
f 34/2/25 19/1/3 32/1/24
f 48/5/37 11/4/10 47/5/37
f 11/4/10 48/5/37 13/4/12
f 33/15/38 45/2/38 34/2/38
f 4/2/38 34/2/38 45/2/38
f 4/2/38 45/2/38 22/2/38
f 4/2/38 20/2/38 34/2/38
f 4/2/38 22/2/38 2/2/38
f 24/9/38 2/2/38 22/2/38
f 4/2/38 8/4/16 20/2/38
f 13/4/16 20/2/38 8/4/16
f 8/4/16 4/2/38 44/5/38
f 20/2/38 13/4/16 48/5/38
f 20/2/38 48/5/38 18/7/38
f 44/5/38 4/2/38 49/7/38
f 18/7/38 37/13/38 49/7/38
f 18/7/38 48/5/38 37/13/38
f 44/5/38 49/7/38 42/13/38
f 42/13/38 49/7/38 37/13/38
f 42/13/38 37/13/38 30/13/38
f 37/13/38 48/5/38 29/12/38
f 42/13/38 30/13/38 41/13/38
f 29/12/38 41/13/38 30/13/38
f 44/5/38 42/13/38 39/12/38
f 44/5/38 39/12/38 48/5/38
f 41/13/38 29/12/38 39/12/38
f 29/12/38 48/5/38 39/12/38
f 31/14/39 45/2/35 33/15/39
f 45/2/35 31/14/39 46/1/36
f 14/3/40 25/3/40 12/3/40
f 25/3/40 14/3/40 7/3/40
f 25/3/40 7/3/40 10/3/40
f 10/3/40 7/3/40 5/3/40
f 35/5/41 48/5/41 47/5/41
f 48/5/41 35/5/41 50/5/41
f 50/5/41 35/5/41 51/5/41
f 52/5/41 48/5/41 50/5/41
f 51/5/41 35/5/41 15/5/41
f 48/5/41 52/5/41 44/5/41
f 51/5/41 15/5/41 53/5/41
f 44/5/41 52/5/41 54/5/41
f 53/5/41 15/5/41 55/5/41
f 44/5/41 54/5/41 55/5/41
f 44/5/41 55/5/41 15/5/41
f 44/5/41 15/5/41 16/5/41
f 1/1/1 24/9/42 23/8/42
f 24/9/42 1/1/1 2/2/2
f 35/5/43 11/4/28 26/4/26
f 11/4/28 35/5/43 47/5/43
f 36/11/32 30/13/32 37/13/32
f 30/13/32 36/11/32 28/11/32
f 49/7/44 17/6/44 18/7/44
f 17/6/44 49/7/44 56/6/44
f 49/7/45 3/1/45 56/6/45
f 3/1/45 49/7/45 4/2/45
f 27/17/46 28/16/46 36/16/46
f 38/17/46 43/16/46 40/16/46
f 31/19/47 21/18/47 46/18/47
f 21/18/47 31/19/47 23/20/47
f 56/21/47 23/20/47 31/19/47
f 3/18/47 23/20/47 56/21/47
f 23/20/47 3/18/47 1/18/47
f 56/21/47 31/19/47 17/21/47
f 32/18/47 17/21/47 31/19/47
f 17/21/47 32/18/47 19/18/47
f 59/23/49 58/22/48 57/22/48
f 58/22/48 59/23/49 60/23/49
f 63/22/50 62/23/51 61/22/50
f 62/23/51 63/22/50 64/23/51
f 66/24/52 61/22/50 65/24/52
f 61/22/50 66/24/52 63/22/50
f 61/22/54 67/24/53 65/24/53
f 67/24/53 61/22/54 57/22/55
f 62/23/41 60/23/41 59/23/41
f 60/23/41 62/23/41 64/23/41
f 57/22/48 68/24/56 67/24/56
f 68/24/56 57/22/48 58/22/48
f 58/22/58 66/24/57 68/24/57
f 66/24/57 58/22/58 63/22/59
f 62/23/60 57/22/55 61/22/54
f 57/22/55 62/23/60 59/23/60
f 60/23/61 63/22/59 58/22/58
f 63/22/59 60/23/61 64/23/61
f 51/24/41 52/24/41 50/24/41
f 52/24/41 51/24/41 67/24/41
f 67/24/41 51/24/41 53/24/41
f 68/24/41 52/24/41 67/24/41
f 67/24/41 53/24/41 65/24/41
f 52/24/41 68/24/41 54/24/41
f 65/24/41 53/24/41 66/24/41
f 54/24/41 68/24/41 66/24/41
f 54/24/41 66/24/41 53/24/41
f 54/24/41 53/24/41 55/24/41

