# Created by Kenney (www.kenney.nl)

mtllib pumpkin-tall.mtl

g pumpkin-tall

v 0.105792 0.19 0 1 1 1
v 0.052896 0.19 0.091619 1 1 1
v 0.052896 0.19 -0.091619 1 1 1
v 0.04867 0.19 0 1 1 1
v 0.024335 0.19 -0.042149 1 1 1
v 0.024335 0.19 0.042149 1 1 1
v -0.052896 0.19 -0.091619 1 1 1
v -0.052896 0.19 0.091619 1 1 1
v -0.024335 0.19 -0.042149 1 1 1
v -0.024335 0.19 0.042149 1 1 1
v -0.04867 0.19 0 1 1 1
v -0.105792 0.19 0 1 1 1
v -0.06959999 0.07 -0.120551 1 1 1
v -0.1392 0.07 0 1 1 1
v -0.06 0 -0.103923 1 1 1
v -0.12 0 0 1 1 1
v -0.06 0 0.103923 1 1 1
v -0.06959999 0.07 0.120551 1 1 1
v 0.06959999 0.07 -0.120551 1 1 1
v 0.1392 0.07 0 1 1 1
v 0.06959999 0.07 0.120551 1 1 1
v 0.12 0 0 1 1 1
v 0.06 0 0.103923 1 1 1
v 0.06 0 -0.103923 1 1 1
v 0.02 0.19 0.02 1 1 1
v -0.02 0.19 0.02 1 1 1
v 0.00275 0.23 0.01275 1 1 1
v -0.02275 0.23 0.01275 1 1 1
v 0.008415 0.26 0.008415 1 1 1
v -0.008415 0.26 0.008415 1 1 1
v 0.02 0.19 -0.02 1 1 1
v -0.02 0.19 -0.02 1 1 1
v -0.02275 0.23 -0.01275 1 1 1
v 0.00275 0.23 -0.01275 1 1 1
v -0.008415 0.26 -0.008415 1 1 1
v 0.008415 0.26 -0.008415 1 1 1

vn 0 1 0
vn -0.4821899 -0.2645189 -0.8351781
vn -0.964381 -0.2645171 0
vn -0.4821911 -0.2645189 -0.8351775
vn -0.4821911 -0.2645189 0.8351775
vn -0.4821899 -0.2645189 0.8351781
vn 0.4816824 0.2681994 -0.8342968
vn 0.9633633 0.2681997 0
vn 0.4816821 0.2681994 -0.8342969
vn 0.4816824 0.2681994 0.8342968
vn -0.4816824 0.2681994 0.8342968
vn 0.4816821 0.2681994 0.8342969
vn -0.4816821 0.2681994 0.8342969
vn 0.964381 -0.2645171 0
vn 0.4821899 -0.2645189 0.8351781
vn 0.4821911 -0.2645189 0.8351775
vn 0 -1 0
vn -0.4816824 0.2681994 -0.8342968
vn -0.4816821 0.2681994 -0.8342969
vn -0.9633633 0.2681997 0
vn 0.4821911 -0.2645189 -0.8351775
vn 0.4821899 -0.2645189 -0.8351781
vn 0 0.1783442 0.9839681
vn 0 0.1617314 0.9868348
vn 0 0.1632162 0.9865903
vn 0 0.1430146 0.9897205
vn 0 0.1632162 -0.9865903
vn 0 0.1617314 -0.9868348
vn 0 0.1430146 -0.9897205
vn -0.9867238 0.1624074 0
vn -0.9022843 0.4311415 0
vn 0 0.1783442 -0.9839681
vn -0.9976451 -0.0685881 0
vn 0.9902409 0.139366 0
vn 0.9826341 -0.1855541 0
vn 0.9182522 0.3959962 0

vt 0.59375 0.475
vt 0.59375 0.3486842
vt 0.59375 0.275
vt 0.34375 0.275
vt 0.34375 0.3892857
vt 0.34375 0.475

usemtl colormap

f 3/1/1 2/1/1 1/1/1
f 2/1/1 3/1/1 4/1/1
f 4/1/1 3/1/1 5/1/1
f 6/1/1 2/1/1 4/1/1
f 5/1/1 3/1/1 7/1/1
f 2/1/1 6/1/1 8/1/1
f 5/1/1 7/1/1 9/1/1
f 8/1/1 6/1/1 10/1/1
f 9/1/1 7/1/1 11/1/1
f 8/1/1 10/1/1 11/1/1
f 8/1/1 11/1/1 7/1/1
f 8/1/1 7/1/1 12/1/1
f 15/3/4 14/2/3 13/2/2
f 14/2/3 15/3/4 16/3/3
f 17/3/5 14/2/3 16/3/3
f 14/2/3 17/3/5 18/2/6
f 3/1/9 20/2/8 19/2/7
f 20/2/8 3/1/9 1/1/8
f 2/1/12 18/2/11 21/2/10
f 18/2/11 2/1/12 8/1/13
f 21/2/15 22/3/14 20/2/14
f 22/3/14 21/2/15 23/3/16
f 21/2/15 17/3/5 23/3/16
f 17/3/5 21/2/15 18/2/6
f 23/3/17 24/3/17 22/3/17
f 24/3/17 23/3/17 17/3/17
f 24/3/17 17/3/17 15/3/17
f 15/3/17 17/3/17 16/3/17
f 14/2/20 7/1/19 13/2/18
f 7/1/19 14/2/20 12/1/20
f 7/1/19 19/2/7 13/2/18
f 19/2/7 7/1/19 3/1/9
f 13/2/2 24/3/21 15/3/4
f 24/3/21 13/2/2 19/2/22
f 2/1/12 20/2/8 1/1/8
f 20/2/8 2/1/12 21/2/10
f 18/2/11 12/1/20 14/2/20
f 12/1/20 18/2/11 8/1/13
f 20/2/14 24/3/21 19/2/22
f 24/3/21 20/2/14 22/3/14
f 27/5/24 26/4/23 25/4/23
f 26/4/23 27/5/24 28/5/25
f 29/6/26 28/5/25 27/5/24
f 28/5/25 29/6/26 30/6/26
f 5/4/1 6/4/1 4/4/1
f 6/4/1 5/4/1 31/4/1
f 31/4/1 5/4/1 9/4/1
f 25/4/1 6/4/1 31/4/1
f 31/4/1 9/4/1 32/4/1
f 6/4/1 25/4/1 10/4/1
f 32/4/1 9/4/1 26/4/1
f 10/4/1 25/4/1 26/4/1
f 10/4/1 26/4/1 9/4/1
f 10/4/1 9/4/1 11/4/1
f 35/6/29 34/5/28 33/5/27
f 34/5/28 35/6/29 36/6/29
f 28/5/30 35/6/31 33/5/30
f 35/6/31 28/5/30 30/6/31
f 33/5/27 31/4/32 32/4/32
f 31/4/32 33/5/27 34/5/28
f 26/4/33 33/5/30 32/4/33
f 33/5/30 26/4/33 28/5/30
f 35/6/1 29/6/1 36/6/1
f 29/6/1 35/6/1 30/6/1
f 36/6/35 27/5/34 34/5/34
f 27/5/34 36/6/35 29/6/35
f 34/5/34 25/4/36 31/4/36
f 25/4/36 34/5/34 27/5/34

g pumpkin-tall




usemtl colormap

f 3/1/1 2/1/1 1/1/1
f 2/1/1 3/1/1 4/1/1
f 4/1/1 3/1/1 5/1/1
f 6/1/1 2/1/1 4/1/1
f 5/1/1 3/1/1 7/1/1
f 2/1/1 6/1/1 8/1/1
f 5/1/1 7/1/1 9/1/1
f 8/1/1 6/1/1 10/1/1
f 9/1/1 7/1/1 11/1/1
f 8/1/1 10/1/1 11/1/1
f 8/1/1 11/1/1 7/1/1
f 8/1/1 7/1/1 12/1/1
f 15/3/4 14/2/3 13/2/2
f 14/2/3 15/3/4 16/3/3
f 17/3/5 14/2/3 16/3/3
f 14/2/3 17/3/5 18/2/6
f 3/1/9 20/2/8 19/2/7
f 20/2/8 3/1/9 1/1/8
f 2/1/12 18/2/11 21/2/10
f 18/2/11 2/1/12 8/1/13
f 21/2/15 22/3/14 20/2/14
f 22/3/14 21/2/15 23/3/16
f 21/2/15 17/3/5 23/3/16
f 17/3/5 21/2/15 18/2/6
f 23/3/17 24/3/17 22/3/17
f 24/3/17 23/3/17 17/3/17
f 24/3/17 17/3/17 15/3/17
f 15/3/17 17/3/17 16/3/17
f 14/2/20 7/1/19 13/2/18
f 7/1/19 14/2/20 12/1/20
f 7/1/19 19/2/7 13/2/18
f 19/2/7 7/1/19 3/1/9
f 13/2/2 24/3/21 15/3/4
f 24/3/21 13/2/2 19/2/22
f 2/1/12 20/2/8 1/1/8
f 20/2/8 2/1/12 21/2/10
f 18/2/11 12/1/20 14/2/20
f 12/1/20 18/2/11 8/1/13
f 20/2/14 24/3/21 19/2/22
f 24/3/21 20/2/14 22/3/14
f 27/5/24 26/4/23 25/4/23
f 26/4/23 27/5/24 28/5/25
f 29/6/26 28/5/25 27/5/24
f 28/5/25 29/6/26 30/6/26
f 5/4/1 6/4/1 4/4/1
f 6/4/1 5/4/1 31/4/1
f 31/4/1 5/4/1 9/4/1
f 25/4/1 6/4/1 31/4/1
f 31/4/1 9/4/1 32/4/1
f 6/4/1 25/4/1 10/4/1
f 32/4/1 9/4/1 26/4/1
f 10/4/1 25/4/1 26/4/1
f 10/4/1 26/4/1 9/4/1
f 10/4/1 9/4/1 11/4/1
f 35/6/29 34/5/28 33/5/27
f 34/5/28 35/6/29 36/6/29
f 28/5/30 35/6/31 33/5/30
f 35/6/31 28/5/30 30/6/31
f 33/5/27 31/4/32 32/4/32
f 31/4/32 33/5/27 34/5/28
f 26/4/33 33/5/30 32/4/33
f 33/5/30 26/4/33 28/5/30
f 35/6/1 29/6/1 36/6/1
f 29/6/1 35/6/1 30/6/1
f 36/6/35 27/5/34 34/5/34
f 27/5/34 36/6/35 29/6/35
f 34/5/34 25/4/36 31/4/36
f 25/4/36 34/5/34 27/5/34

