# Created by Kenney (www.kenney.nl)

mtllib rocks.mtl

g rocks

v 0.3077672 0 0.4210838 1 1 1
v 0.3621192 0 0.2182394 1 1 1
v 0.1049228 0 0.4754359 1 1 1
v 0.2136268 0 0.06974699 1 1 1
v -0.04356962 0 0.3269434 1 1 1
v 0.01078236 0 0.124099 1 1 1
v 0.2928681 0.2973559 0.2367952 1 1 1
v 0.2570719 0.2973559 0.3703885 1 1 1
v 0.195071 0.2973559 0.1389981 1 1 1
v 0.1234786 0.2973559 0.4061847 1 1 1
v 0.06147768 0.2973559 0.1747943 1 1 1
v 0.02568145 0.2973559 0.3083876 1 1 1
v 0.03305623 0.09149414 0.1463729 1 1 1
v -0.01314297 0.09149414 0.3187906 1 1 1
v 0.205474 0.09149414 0.1001737 1 1 1
v 0.1130756 0.09149414 0.4450092 1 1 1
v 0.3316925 0.09149414 0.2263922 1 1 1
v 0.2854933 0.09149414 0.39881 1 1 1
v 0.3403503 0 0.1410073 1 1 1
v 0.3403503 0 -0.1589928 1 1 1
v 0.08054271 0 0.2910073 1 1 1
v 0.08054271 0 -0.3089928 1 1 1
v -0.1792649 0 0.1410073 1 1 1
v -0.1792649 0 -0.1589928 1 1 1
v 0.251652 0.2123971 -0.1077828 1 1 1
v 0.251652 0.2123971 0.08979724 1 1 1
v 0.08054271 0.2123971 -0.2065727 1 1 1
v 0.08054271 0.2123971 0.1885872 1 1 1
v -0.0905666 0.2123971 -0.1077828 1 1 1
v -0.0905666 0.2123971 0.08979724 1 1 1
v -0.1402938 0.06535295 -0.1364927 1 1 1
v -0.1402938 0.06535295 0.1185072 1 1 1
v 0.08054271 0.06535295 -0.2639928 1 1 1
v 0.08054271 0.06535295 0.2460072 1 1 1
v 0.3013792 0.06535295 -0.1364927 1 1 1
v 0.3013792 0.06535295 0.1185072 1 1 1
v 0.4286876 0 -0.1919899 1 1 1
v 0.3846585 0 -0.412334 1 1 1
v 0.2598786 0 -0.04368749 1 1 1
v 0.1718204 0 -0.4843757 1 1 1
v 0.04704042 0 -0.1157292 1 1 1
v 0.003011331 0 -0.3360734 1 1 1
v 0.3270271 0.4519299 -0.3617036 1 1 1
v 0.3560247 0.4519299 -0.2165849 1 1 1
v 0.1868519 0.4519299 -0.4091502 1 1 1
v 0.244847 0.4519299 -0.118913 1 1 1
v 0.07567427 0.4519299 -0.3114783 1 1 1
v 0.1046718 0.4519299 -0.1663597 1 1 1
v 0.03493704 0.1390554 -0.3252671 1 1 1
v 0.07236178 0.1390554 -0.1379746 1 1 1
v 0.1784247 0.1390554 -0.4513241 1 1 1
v 0.2532742 0.1390554 -0.07673913 1 1 1
v 0.3593372 0.1390554 -0.3900886 1 1 1
v 0.3967619 0.1390554 -0.2027961 1 1 1
v 0.08157946 3.609557E-16 0.07399372 1 1 1
v 0.1124172 3.609557E-16 -0.2244172 1 1 1
v -0.1922708 3.609557E-16 0.1964929 1 1 1
v -0.1305953 3.609557E-16 -0.4003289 1 1 1
v -0.4352833 3.609557E-16 0.02058114 1 1 1
v -0.4044455 3.609557E-16 -0.2778297 1 1 1
v 0.01892476 0.09133076 -0.1825959 1 1 1
v -0.001384988 0.09133076 0.01393745 1 1 1
v -0.1411233 0.09133076 -0.2984514 1 1 1
v -0.1817428 0.09133076 0.09461538 1 1 1
v -0.321481 0.09133076 -0.2177735 1 1 1
v -0.3417908 0.09133076 -0.02124008 1 1 1
v -0.3679937 0.02810177 -0.2514429 1 1 1
v -0.3942057 0.02810177 0.002206258 1 1 1
v -0.1352209 0.02810177 -0.3555672 1 1 1
v -0.1876451 0.02810177 0.1517312 1 1 1
v 0.07133968 0.02810177 -0.2060423 1 1 1
v 0.04512759 0.02810177 0.04760694 1 1 1

vn 0 -1 0
vn 0 1 0
vn -0.9256569 0.2857289 -0.248029
vn -0.9392837 0.2332451 -0.2516803
vn -0.248029 0.2857289 -0.9256569
vn -0.2516803 0.2332451 -0.9392837
vn -0.6776279 0.2857289 0.6776279
vn -0.6876034 0.2332451 0.6876034
vn 0.9256569 0.2857289 0.248029
vn 0.9392837 0.2332451 0.2516803
vn 0.6776279 0.2857289 -0.6776279
vn 0.6876034 0.2332451 -0.6876034
vn 0.248029 0.2857289 0.9256569
vn 0.2516803 0.2332451 0.9392837
vn 0.9524066 0.1667227 0.2551966
vn 0.2551966 0.1667227 0.9524066
vn -0.69721 0.1667227 0.69721
vn -0.9524066 0.1667227 -0.2551966
vn 0.69721 0.1667227 -0.69721
vn -0.2551966 0.1667227 -0.9524066
vn -0.8588849 0.5121685 0
vn -0.9016208 0.4325272 0
vn -0.4294425 0.5121685 -0.7438162
vn -0.4508104 0.4325272 -0.7808266
vn -0.4294425 0.5121685 0.7438162
vn -0.4508104 0.4325272 0.7808266
vn 0.8588849 0.5121685 0
vn 0.9016208 0.4325272 0
vn 0.4294425 0.5121685 -0.7438162
vn 0.4508104 0.4325272 -0.7808266
vn 0.4294425 0.5121685 0.7438162
vn 0.4508104 0.4325272 0.7808266
vn 0.9472973 0.3203556 0
vn 0.4736487 0.3203556 0.8203835
vn -0.4736487 0.3203556 0.8203835
vn -0.9472973 0.3203556 0
vn 0.4736487 0.3203556 -0.8203835
vn -0.4736487 0.3203556 -0.8203835
vn -0.9596989 0.2054347 0.1917667
vn -0.966925 0.1665111 0.1932107
vn -0.6459243 0.2054347 -0.7352403
vn -0.6507878 0.1665111 -0.7407762
vn -0.3137745 0.2054347 0.927007
vn -0.3161371 0.1665111 0.9339868
vn 0.9596989 0.2054347 -0.1917667
vn 0.966925 0.1665111 -0.1932107
vn 0.3137745 0.2054347 -0.927007
vn 0.3161371 0.1665111 -0.9339868
vn 0.6459243 0.2054347 0.7352403
vn 0.6507878 0.1665111 0.7407762
vn 0.9737393 0.1182088 -0.1945723
vn 0.6553743 0.1182088 0.7459968
vn -0.3183651 0.1182088 0.9405692
vn -0.9737393 0.1182088 0.1945723
vn 0.3183651 0.1182088 -0.9405692
vn -0.6553743 0.1182088 -0.7459968
vn -0.5817896 0.8111142 -0.06012211
vn -0.6639273 0.7446431 -0.06861021
vn -0.2388275 0.8111142 -0.5339056
vn -0.2725455 0.7446431 -0.6092829
vn -0.3429621 0.8111142 0.4737835
vn -0.3913818 0.744643 0.5406727
vn 0.5817896 0.8111142 0.06012211
vn 0.6639273 0.7446431 0.06861021
vn 0.3429621 0.8111142 -0.4737835
vn 0.3913818 0.744643 -0.5406727
vn 0.2388275 0.8111142 0.5339056
vn 0.2725455 0.7446431 0.6092829
vn 0.7818691 0.6181847 0.08079831
vn 0.3209612 0.6181847 0.7175176
vn -0.460908 0.6181847 0.6367193
vn -0.7818691 0.6181847 -0.08079831
vn 0.460908 0.6181847 -0.6367193
vn -0.3209612 0.6181847 -0.7175176

vt 0.71875 0.025
vt 0.71875 0.225
vt 0.71875 0.08653846

usemtl colormap

f 3/1/1 2/1/1 1/1/1
f 2/1/1 3/1/1 4/1/1
f 4/1/1 3/1/1 5/1/1
f 4/1/1 5/1/1 6/1/1
f 9/2/2 8/2/2 7/2/2
f 8/2/2 9/2/2 10/2/2
f 10/2/2 9/2/2 11/2/2
f 10/2/2 11/2/2 12/2/2
f 5/1/3 13/3/4 6/1/3
f 13/3/4 5/1/3 14/3/4
f 13/3/6 4/1/5 6/1/5
f 4/1/5 13/3/6 15/3/6
f 16/3/8 5/1/7 3/1/7
f 5/1/7 16/3/8 14/3/8
f 17/3/10 1/1/9 2/1/9
f 1/1/9 17/3/10 18/3/10
f 15/3/12 2/1/11 4/1/11
f 2/1/11 15/3/12 17/3/12
f 18/3/14 3/1/13 1/1/13
f 3/1/13 18/3/14 16/3/14
f 7/2/15 18/3/10 17/3/10
f 18/3/10 7/2/15 8/2/15
f 8/2/16 16/3/14 18/3/14
f 16/3/14 8/2/16 10/2/16
f 10/2/17 14/3/8 16/3/8
f 14/3/8 10/2/17 12/2/17
f 14/3/4 11/2/18 13/3/4
f 11/2/18 14/3/4 12/2/18
f 9/2/19 17/3/12 15/3/12
f 17/3/12 9/2/19 7/2/19
f 11/2/20 15/3/6 13/3/6
f 15/3/6 11/2/20 9/2/20
f 21/1/1 20/1/1 19/1/1
f 20/1/1 21/1/1 22/1/1
f 22/1/1 21/1/1 23/1/1
f 22/1/1 23/1/1 24/1/1
f 27/2/2 26/2/2 25/2/2
f 26/2/2 27/2/2 28/2/2
f 28/2/2 27/2/2 29/2/2
f 28/2/2 29/2/2 30/2/2
f 23/1/21 31/3/22 24/1/21
f 31/3/22 23/1/21 32/3/22
f 31/3/24 22/1/23 24/1/23
f 22/1/23 31/3/24 33/3/24
f 34/3/26 23/1/25 21/1/25
f 23/1/25 34/3/26 32/3/26
f 35/3/28 19/1/27 20/1/27
f 19/1/27 35/3/28 36/3/28
f 33/3/30 20/1/29 22/1/29
f 20/1/29 33/3/30 35/3/30
f 36/3/32 21/1/31 19/1/31
f 21/1/31 36/3/32 34/3/32
f 25/2/33 36/3/28 35/3/28
f 36/3/28 25/2/33 26/2/33
f 26/2/34 34/3/32 36/3/32
f 34/3/32 26/2/34 28/2/34
f 28/2/35 32/3/26 34/3/26
f 32/3/26 28/2/35 30/2/35
f 32/3/22 29/2/36 31/3/22
f 29/2/36 32/3/22 30/2/36
f 27/2/37 35/3/30 33/3/30
f 35/3/30 27/2/37 25/2/37
f 29/2/38 33/3/24 31/3/24
f 33/3/24 29/2/38 27/2/38
f 39/1/1 38/1/1 37/1/1
f 38/1/1 39/1/1 40/1/1
f 40/1/1 39/1/1 41/1/1
f 40/1/1 41/1/1 42/1/1
f 45/2/2 44/2/2 43/2/2
f 44/2/2 45/2/2 46/2/2
f 46/2/2 45/2/2 47/2/2
f 46/2/2 47/2/2 48/2/2
f 41/1/39 49/3/40 42/1/39
f 49/3/40 41/1/39 50/3/40
f 49/3/42 40/1/41 42/1/41
f 40/1/41 49/3/42 51/3/42
f 52/3/44 41/1/43 39/1/43
f 41/1/43 52/3/44 50/3/44
f 53/3/46 37/1/45 38/1/45
f 37/1/45 53/3/46 54/3/46
f 51/3/48 38/1/47 40/1/47
f 38/1/47 51/3/48 53/3/48
f 54/3/50 39/1/49 37/1/49
f 39/1/49 54/3/50 52/3/50
f 43/2/51 54/3/46 53/3/46
f 54/3/46 43/2/51 44/2/51
f 44/2/52 52/3/50 54/3/50
f 52/3/50 44/2/52 46/2/52
f 46/2/53 50/3/44 52/3/44
f 50/3/44 46/2/53 48/2/53
f 50/3/40 47/2/54 49/3/40
f 47/2/54 50/3/40 48/2/54
f 45/2/55 53/3/48 51/3/48
f 53/3/48 45/2/55 43/2/55
f 47/2/56 51/3/42 49/3/42
f 51/3/42 47/2/56 45/2/56
f 57/1/1 56/1/1 55/1/1
f 56/1/1 57/1/1 58/1/1
f 58/1/1 57/1/1 59/1/1
f 58/1/1 59/1/1 60/1/1
f 63/2/2 62/2/2 61/2/2
f 62/2/2 63/2/2 64/2/2
f 64/2/2 63/2/2 65/2/2
f 64/2/2 65/2/2 66/2/2
f 59/1/57 67/3/58 60/1/57
f 67/3/58 59/1/57 68/3/58
f 67/3/60 58/1/59 60/1/59
f 58/1/59 67/3/60 69/3/60
f 70/3/62 59/1/61 57/1/61
f 59/1/61 70/3/62 68/3/62
f 71/3/64 55/1/63 56/1/63
f 55/1/63 71/3/64 72/3/64
f 69/3/66 56/1/65 58/1/65
f 56/1/65 69/3/66 71/3/66
f 72/3/68 57/1/67 55/1/67
f 57/1/67 72/3/68 70/3/68
f 61/2/69 72/3/64 71/3/64
f 72/3/64 61/2/69 62/2/69
f 62/2/70 70/3/68 72/3/68
f 70/3/68 62/2/70 64/2/70
f 64/2/71 68/3/62 70/3/62
f 68/3/62 64/2/71 66/2/71
f 68/3/58 65/2/72 67/3/58
f 65/2/72 68/3/58 66/2/72
f 63/2/73 71/3/66 69/3/66
f 71/3/66 63/2/73 61/2/73
f 65/2/74 69/3/60 67/3/60
f 69/3/60 65/2/74 63/2/74

g rocks




usemtl colormap

f 3/1/1 2/1/1 1/1/1
f 2/1/1 3/1/1 4/1/1
f 4/1/1 3/1/1 5/1/1
f 4/1/1 5/1/1 6/1/1
f 9/2/2 8/2/2 7/2/2
f 8/2/2 9/2/2 10/2/2
f 10/2/2 9/2/2 11/2/2
f 10/2/2 11/2/2 12/2/2
f 5/1/3 13/3/4 6/1/3
f 13/3/4 5/1/3 14/3/4
f 13/3/6 4/1/5 6/1/5
f 4/1/5 13/3/6 15/3/6
f 16/3/8 5/1/7 3/1/7
f 5/1/7 16/3/8 14/3/8
f 17/3/10 1/1/9 2/1/9
f 1/1/9 17/3/10 18/3/10
f 15/3/12 2/1/11 4/1/11
f 2/1/11 15/3/12 17/3/12
f 18/3/14 3/1/13 1/1/13
f 3/1/13 18/3/14 16/3/14
f 7/2/15 18/3/10 17/3/10
f 18/3/10 7/2/15 8/2/15
f 8/2/16 16/3/14 18/3/14
f 16/3/14 8/2/16 10/2/16
f 10/2/17 14/3/8 16/3/8
f 14/3/8 10/2/17 12/2/17
f 14/3/4 11/2/18 13/3/4
f 11/2/18 14/3/4 12/2/18
f 9/2/19 17/3/12 15/3/12
f 17/3/12 9/2/19 7/2/19
f 11/2/20 15/3/6 13/3/6
f 15/3/6 11/2/20 9/2/20
f 21/1/1 20/1/1 19/1/1
f 20/1/1 21/1/1 22/1/1
f 22/1/1 21/1/1 23/1/1
f 22/1/1 23/1/1 24/1/1
f 27/2/2 26/2/2 25/2/2
f 26/2/2 27/2/2 28/2/2
f 28/2/2 27/2/2 29/2/2
f 28/2/2 29/2/2 30/2/2
f 23/1/21 31/3/22 24/1/21
f 31/3/22 23/1/21 32/3/22
f 31/3/24 22/1/23 24/1/23
f 22/1/23 31/3/24 33/3/24
f 34/3/26 23/1/25 21/1/25
f 23/1/25 34/3/26 32/3/26
f 35/3/28 19/1/27 20/1/27
f 19/1/27 35/3/28 36/3/28
f 33/3/30 20/1/29 22/1/29
f 20/1/29 33/3/30 35/3/30
f 36/3/32 21/1/31 19/1/31
f 21/1/31 36/3/32 34/3/32
f 25/2/33 36/3/28 35/3/28
f 36/3/28 25/2/33 26/2/33
f 26/2/34 34/3/32 36/3/32
f 34/3/32 26/2/34 28/2/34
f 28/2/35 32/3/26 34/3/26
f 32/3/26 28/2/35 30/2/35
f 32/3/22 29/2/36 31/3/22
f 29/2/36 32/3/22 30/2/36
f 27/2/37 35/3/30 33/3/30
f 35/3/30 27/2/37 25/2/37
f 29/2/38 33/3/24 31/3/24
f 33/3/24 29/2/38 27/2/38
f 39/1/1 38/1/1 37/1/1
f 38/1/1 39/1/1 40/1/1
f 40/1/1 39/1/1 41/1/1
f 40/1/1 41/1/1 42/1/1
f 45/2/2 44/2/2 43/2/2
f 44/2/2 45/2/2 46/2/2
f 46/2/2 45/2/2 47/2/2
f 46/2/2 47/2/2 48/2/2
f 41/1/39 49/3/40 42/1/39
f 49/3/40 41/1/39 50/3/40
f 49/3/42 40/1/41 42/1/41
f 40/1/41 49/3/42 51/3/42
f 52/3/44 41/1/43 39/1/43
f 41/1/43 52/3/44 50/3/44
f 53/3/46 37/1/45 38/1/45
f 37/1/45 53/3/46 54/3/46
f 51/3/48 38/1/47 40/1/47
f 38/1/47 51/3/48 53/3/48
f 54/3/50 39/1/49 37/1/49
f 39/1/49 54/3/50 52/3/50
f 43/2/51 54/3/46 53/3/46
f 54/3/46 43/2/51 44/2/51
f 44/2/52 52/3/50 54/3/50
f 52/3/50 44/2/52 46/2/52
f 46/2/53 50/3/44 52/3/44
f 50/3/44 46/2/53 48/2/53
f 50/3/40 47/2/54 49/3/40
f 47/2/54 50/3/40 48/2/54
f 45/2/55 53/3/48 51/3/48
f 53/3/48 45/2/55 43/2/55
f 47/2/56 51/3/42 49/3/42
f 51/3/42 47/2/56 45/2/56
f 57/1/1 56/1/1 55/1/1
f 56/1/1 57/1/1 58/1/1
f 58/1/1 57/1/1 59/1/1
f 58/1/1 59/1/1 60/1/1
f 63/2/2 62/2/2 61/2/2
f 62/2/2 63/2/2 64/2/2
f 64/2/2 63/2/2 65/2/2
f 64/2/2 65/2/2 66/2/2
f 59/1/57 67/3/58 60/1/57
f 67/3/58 59/1/57 68/3/58
f 67/3/60 58/1/59 60/1/59
f 58/1/59 67/3/60 69/3/60
f 70/3/62 59/1/61 57/1/61
f 59/1/61 70/3/62 68/3/62
f 71/3/64 55/1/63 56/1/63
f 55/1/63 71/3/64 72/3/64
f 69/3/66 56/1/65 58/1/65
f 56/1/65 69/3/66 71/3/66
f 72/3/68 57/1/67 55/1/67
f 57/1/67 72/3/68 70/3/68
f 61/2/69 72/3/64 71/3/64
f 72/3/64 61/2/69 62/2/69
f 62/2/70 70/3/68 72/3/68
f 70/3/68 62/2/70 64/2/70
f 64/2/71 68/3/62 70/3/62
f 68/3/62 64/2/71 66/2/71
f 68/3/58 65/2/72 67/3/58
f 65/2/72 68/3/58 66/2/72
f 63/2/73 71/3/66 69/3/66
f 71/3/66 63/2/73 61/2/73
f 65/2/74 69/3/60 67/3/60
f 69/3/60 65/2/74 63/2/74

