# Created by Kenney (www.kenney.nl)

mtllib shovel.mtl

g shovel

v -0.0704 0 -0.16 1 1 1
v -0.0704 0.032 -0.16 1 1 1
v -0.048 0 -0.1376 1 1 1
v -0.048 0.032 -0.1376 1 1 1
v -0.033129 0 -0.174871 1 1 1
v 0.033129 0 -0.174871 1 1 1
v -0.033129 0.032 -0.174871 1 1 1
v 0.033129 0.032 -0.174871 1 1 1
v 0.048 0 -0.1376 1 1 1
v 0.0256 0 -0.1376 1 1 1
v 0.048 0.032 -0.1376 1 1 1
v 0.0256 0.032 -0.1376 1 1 1
v -0.0704 0 -0.24 1 1 1
v -0.0704 0.032 -0.24 1 1 1
v -0.033129 0.032 -0.202729 1 1 1
v -0.033129 0 -0.202729 1 1 1
v 0.0704 0 -0.24 1 1 1
v 0.0704 0.032 -0.24 1 1 1
v 0.0704 0.032 -0.16 1 1 1
v 0.0704 0 -0.16 1 1 1
v 0.033129 0 -0.202729 1 1 1
v 0.033129 0.032 -0.202729 1 1 1
v -0.0256 0 -0.1376 1 1 1
v -0.0256 0.032 -0.1376 1 1 1
v -0.0256 0 0.09350099 1 1 1
v -0.0256 0.032 0.09350099 1 1 1
v 0.0256 0.032 0.09350099 1 1 1
v 0.0256 0 0.09350099 1 1 1
v -0.096 0 0.294 1 1 1
v -0.09272899 0 0.318847 1 1 1
v -0.096 0 0.1628 1 1 1
v -0.083138 0 0.342 1 1 1
v -0.067882 0 0.361882 1 1 1
v -0.048 0 0.377138 1 1 1
v -0.0256 0 0.1628 1 1 1
v -0.024847 0 0.386729 1 1 1
v -0.0256 0 0.093501 1 1 1
v 0 0 0.39 1 1 1
v 0.024847 0 0.386729 1 1 1
v 0.0256 0 0.093501 1 1 1
v 0.0256 0 0.1628 1 1 1
v 0.048 0 0.377138 1 1 1
v 0.067882 0 0.361882 1 1 1
v 0.083138 0 0.342 1 1 1
v 0.09272899 0 0.318847 1 1 1
v 0.096 0 0.1628 1 1 1
v 0.096 0 0.294 1 1 1
v -0.083138 0.0192 0.342 1 1 1
v -0.067882 0.0192 0.361882 1 1 1
v 0.0256 0.0192 0.1628 1 1 1
v 0.096 0.0192 0.1628 1 1 1
v 0.0256 0.032 0.1628 1 1 1
v 0.0256 0.0192 0.204894 1 1 1
v 0.0256 0.032 0.093501 1 1 1
v -0.0256 0.0192 0.1628 1 1 1
v -0.0256 0.0192 0.204894 1 1 1
v -0.096 0.0192 0.1628 1 1 1
v -0.048 0.0192 0.377138 1 1 1
v -0.09272899 0.0192 0.318847 1 1 1
v -0.096 0.0192 0.294 1 1 1
v -0.024847 0.0192 0.386729 1 1 1
v 0 0.0192 0.39 1 1 1
v 0.024847 0.0192 0.386729 1 1 1
v 0.048 0.0192 0.377138 1 1 1
v 0.067882 0.0192 0.361882 1 1 1
v 0.083138 0.0192 0.342 1 1 1
v 0.09272899 0.0192 0.318847 1 1 1
v 0.096 0.0192 0.294 1 1 1
v -0.0256 0.032 0.093501 1 1 1
v -0.0256 0.032 0.1628 1 1 1

vn -0.9238795 0 0.3826834
vn -0.3826834 0 0.9238795
vn 0 0 -1
vn 0.3826834 0 0.9238795
vn 0 0 1
vn -1 0 0
vn 1 0 0
vn 0.9238795 0 0.3826834
vn 0 1 0
vn 0 -1 0
vn -0.8660188 0 0.5000115
vn -0.7071068 0 0.7071068
vn -0.9659232 0 0.2588285
vn 0.9659232 0 0.2588285
vn 0.8660188 0 0.5000115
vn 0.9978592 0 0.06539979
vn 0.7071068 0 0.7071068
vn 0.5000115 0 0.8660188
vn 0.2588285 0 0.9659232
vn -0.9978592 0 0.06539979
vn -0.2588285 0 0.9659232
vn -0.5000115 0 0.8660188
vn 0 0.9891271 0.1470632
vn 0 0.9567448 0.2909283

vt 0.96875 0.025
vt 0.96875 0.225
vt 0.71875 0.025
vt 0.71875 0.145
vt 0.71875 0.225

usemtl colormap

f 3/1/2 2/2/1 1/1/1
f 2/2/1 3/1/2 4/2/2
f 7/2/3 6/1/3 5/1/3
f 6/1/3 7/2/3 8/2/3
f 11/2/4 10/1/5 9/1/4
f 10/1/5 11/2/4 12/2/5
f 1/1/1 14/2/6 13/1/6
f 14/2/6 1/1/1 2/2/1
f 7/2/7 16/1/7 15/2/7
f 16/1/7 7/2/7 5/1/7
f 14/2/3 17/1/3 13/1/3
f 17/1/3 14/2/3 18/2/3
f 19/2/8 17/1/7 18/2/7
f 17/1/7 19/2/8 20/1/8
f 22/2/5 16/1/5 21/1/5
f 16/1/5 22/2/5 15/2/5
f 25/1/6 24/2/6 23/1/6
f 24/2/6 25/1/6 26/2/6
f 4/2/9 14/2/9 2/2/9
f 7/2/9 14/2/9 4/2/9
f 24/2/9 7/2/9 4/2/9
f 15/2/9 14/2/9 7/2/9
f 22/2/9 14/2/9 15/2/9
f 22/2/9 18/2/9 14/2/9
f 18/2/9 22/2/9 19/2/9
f 19/2/9 22/2/9 11/2/9
f 8/2/9 11/2/9 22/2/9
f 11/2/9 8/2/9 12/2/9
f 12/2/9 8/2/9 7/2/9
f 12/2/9 7/2/9 27/2/9
f 27/2/9 7/2/9 24/2/9
f 26/2/9 27/2/9 24/2/9
f 25/1/10 10/1/10 28/1/10
f 23/1/10 10/1/10 25/1/10
f 5/1/10 10/1/10 23/1/10
f 5/1/10 23/1/10 3/1/10
f 6/1/10 10/1/10 5/1/10
f 10/1/10 6/1/10 9/1/10
f 5/1/10 3/1/10 16/1/10
f 21/1/10 9/1/10 6/1/10
f 13/1/10 16/1/10 3/1/10
f 13/1/10 21/1/10 16/1/10
f 13/1/10 3/1/10 1/1/10
f 17/1/10 21/1/10 13/1/10
f 17/1/10 9/1/10 21/1/10
f 9/1/10 17/1/10 20/1/10
f 6/1/6 22/2/6 21/1/6
f 22/2/6 6/1/6 8/2/6
f 11/2/4 20/1/8 19/2/8
f 20/1/8 11/2/4 9/1/4
f 24/2/5 3/1/2 23/1/5
f 3/1/2 24/2/5 4/2/2
f 27/2/7 10/1/7 12/2/7
f 10/1/7 27/2/7 28/1/7
f 31/3/10 30/3/10 29/3/10
f 31/3/10 32/3/10 30/3/10
f 31/3/10 33/3/10 32/3/10
f 31/3/10 34/3/10 33/3/10
f 35/3/10 34/3/10 31/3/10
f 34/3/10 35/3/10 36/3/10
f 37/3/10 36/3/10 35/3/10
f 37/3/10 38/3/10 36/3/10
f 37/3/10 39/3/10 38/3/10
f 40/3/10 39/3/10 37/3/10
f 41/3/10 39/3/10 40/3/10
f 41/3/10 42/3/10 39/3/10
f 41/3/10 43/3/10 42/3/10
f 41/3/10 44/3/10 43/3/10
f 41/3/10 45/3/10 44/3/10
f 46/3/10 45/3/10 41/3/10
f 45/3/10 46/3/10 47/3/10
f 33/3/12 48/4/11 32/3/11
f 48/4/11 33/3/12 49/4/12
f 50/4/3 46/3/3 41/3/3
f 46/3/3 50/4/3 51/4/3
f 53/4/7 50/4/7 52/5/7
f 41/3/7 52/5/7 50/4/7
f 40/3/7 52/5/7 41/3/7
f 52/5/7 40/3/7 54/5/7
f 57/4/9 56/4/9 55/4/9
f 56/4/9 57/4/9 58/4/9
f 58/4/9 57/4/9 49/4/9
f 49/4/9 57/4/9 48/4/9
f 48/4/9 57/4/9 59/4/9
f 59/4/9 57/4/9 60/4/9
f 61/4/9 56/4/9 58/4/9
f 62/4/9 56/4/9 61/4/9
f 63/4/9 56/4/9 62/4/9
f 63/4/9 53/4/9 56/4/9
f 64/4/9 53/4/9 63/4/9
f 64/4/9 50/4/9 53/4/9
f 65/4/9 50/4/9 64/4/9
f 66/4/9 50/4/9 65/4/9
f 67/4/9 50/4/9 66/4/9
f 68/4/9 50/4/9 67/4/9
f 50/4/9 68/4/9 51/4/9
f 32/3/11 59/4/13 30/3/13
f 59/4/13 32/3/11 48/4/11
f 66/4/15 45/3/14 67/4/14
f 45/3/14 66/4/15 44/3/15
f 67/4/14 47/3/16 68/4/16
f 47/3/16 67/4/14 45/3/14
f 65/4/17 42/3/18 43/3/17
f 42/3/18 65/4/17 64/4/18
f 63/4/19 38/3/5 39/3/19
f 38/3/5 63/4/19 62/4/5
f 30/3/13 60/4/20 29/3/20
f 60/4/20 30/3/13 59/4/13
f 61/4/21 34/3/22 36/3/21
f 34/3/22 61/4/21 58/4/22
f 68/4/16 46/3/7 51/4/7
f 46/3/7 68/4/16 47/3/16
f 62/4/5 36/3/21 38/3/5
f 36/3/21 62/4/5 61/4/21
f 69/5/9 52/5/23 54/5/9
f 52/5/23 69/5/9 70/5/23
f 35/3/6 69/5/6 37/3/6
f 69/5/6 35/3/6 70/5/6
f 70/5/6 35/3/6 55/4/6
f 70/5/6 55/4/6 56/4/6
f 58/4/22 33/3/12 34/3/22
f 33/3/12 58/4/22 49/4/12
f 65/4/17 44/3/15 66/4/15
f 44/3/15 65/4/17 43/3/17
f 57/4/3 35/3/3 31/3/3
f 35/3/3 57/4/3 55/4/3
f 70/5/23 53/4/24 52/5/23
f 53/4/24 70/5/23 56/4/24
f 29/3/20 57/4/6 31/3/6
f 57/4/6 29/3/20 60/4/20
f 64/4/18 39/3/19 42/3/18
f 39/3/19 64/4/18 63/4/19

g shovel




usemtl colormap

f 3/1/2 2/2/1 1/1/1
f 2/2/1 3/1/2 4/2/2
f 7/2/3 6/1/3 5/1/3
f 6/1/3 7/2/3 8/2/3
f 11/2/4 10/1/5 9/1/4
f 10/1/5 11/2/4 12/2/5
f 1/1/1 14/2/6 13/1/6
f 14/2/6 1/1/1 2/2/1
f 7/2/7 16/1/7 15/2/7
f 16/1/7 7/2/7 5/1/7
f 14/2/3 17/1/3 13/1/3
f 17/1/3 14/2/3 18/2/3
f 19/2/8 17/1/7 18/2/7
f 17/1/7 19/2/8 20/1/8
f 22/2/5 16/1/5 21/1/5
f 16/1/5 22/2/5 15/2/5
f 25/1/6 24/2/6 23/1/6
f 24/2/6 25/1/6 26/2/6
f 4/2/9 14/2/9 2/2/9
f 7/2/9 14/2/9 4/2/9
f 24/2/9 7/2/9 4/2/9
f 15/2/9 14/2/9 7/2/9
f 22/2/9 14/2/9 15/2/9
f 22/2/9 18/2/9 14/2/9
f 18/2/9 22/2/9 19/2/9
f 19/2/9 22/2/9 11/2/9
f 8/2/9 11/2/9 22/2/9
f 11/2/9 8/2/9 12/2/9
f 12/2/9 8/2/9 7/2/9
f 12/2/9 7/2/9 27/2/9
f 27/2/9 7/2/9 24/2/9
f 26/2/9 27/2/9 24/2/9
f 25/1/10 10/1/10 28/1/10
f 23/1/10 10/1/10 25/1/10
f 5/1/10 10/1/10 23/1/10
f 5/1/10 23/1/10 3/1/10
f 6/1/10 10/1/10 5/1/10
f 10/1/10 6/1/10 9/1/10
f 5/1/10 3/1/10 16/1/10
f 21/1/10 9/1/10 6/1/10
f 13/1/10 16/1/10 3/1/10
f 13/1/10 21/1/10 16/1/10
f 13/1/10 3/1/10 1/1/10
f 17/1/10 21/1/10 13/1/10
f 17/1/10 9/1/10 21/1/10
f 9/1/10 17/1/10 20/1/10
f 6/1/6 22/2/6 21/1/6
f 22/2/6 6/1/6 8/2/6
f 11/2/4 20/1/8 19/2/8
f 20/1/8 11/2/4 9/1/4
f 24/2/5 3/1/2 23/1/5
f 3/1/2 24/2/5 4/2/2
f 27/2/7 10/1/7 12/2/7
f 10/1/7 27/2/7 28/1/7
f 31/3/10 30/3/10 29/3/10
f 31/3/10 32/3/10 30/3/10
f 31/3/10 33/3/10 32/3/10
f 31/3/10 34/3/10 33/3/10
f 35/3/10 34/3/10 31/3/10
f 34/3/10 35/3/10 36/3/10
f 37/3/10 36/3/10 35/3/10
f 37/3/10 38/3/10 36/3/10
f 37/3/10 39/3/10 38/3/10
f 40/3/10 39/3/10 37/3/10
f 41/3/10 39/3/10 40/3/10
f 41/3/10 42/3/10 39/3/10
f 41/3/10 43/3/10 42/3/10
f 41/3/10 44/3/10 43/3/10
f 41/3/10 45/3/10 44/3/10
f 46/3/10 45/3/10 41/3/10
f 45/3/10 46/3/10 47/3/10
f 33/3/12 48/4/11 32/3/11
f 48/4/11 33/3/12 49/4/12
f 50/4/3 46/3/3 41/3/3
f 46/3/3 50/4/3 51/4/3
f 53/4/7 50/4/7 52/5/7
f 41/3/7 52/5/7 50/4/7
f 40/3/7 52/5/7 41/3/7
f 52/5/7 40/3/7 54/5/7
f 57/4/9 56/4/9 55/4/9
f 56/4/9 57/4/9 58/4/9
f 58/4/9 57/4/9 49/4/9
f 49/4/9 57/4/9 48/4/9
f 48/4/9 57/4/9 59/4/9
f 59/4/9 57/4/9 60/4/9
f 61/4/9 56/4/9 58/4/9
f 62/4/9 56/4/9 61/4/9
f 63/4/9 56/4/9 62/4/9
f 63/4/9 53/4/9 56/4/9
f 64/4/9 53/4/9 63/4/9
f 64/4/9 50/4/9 53/4/9
f 65/4/9 50/4/9 64/4/9
f 66/4/9 50/4/9 65/4/9
f 67/4/9 50/4/9 66/4/9
f 68/4/9 50/4/9 67/4/9
f 50/4/9 68/4/9 51/4/9
f 32/3/11 59/4/13 30/3/13
f 59/4/13 32/3/11 48/4/11
f 66/4/15 45/3/14 67/4/14
f 45/3/14 66/4/15 44/3/15
f 67/4/14 47/3/16 68/4/16
f 47/3/16 67/4/14 45/3/14
f 65/4/17 42/3/18 43/3/17
f 42/3/18 65/4/17 64/4/18
f 63/4/19 38/3/5 39/3/19
f 38/3/5 63/4/19 62/4/5
f 30/3/13 60/4/20 29/3/20
f 60/4/20 30/3/13 59/4/13
f 61/4/21 34/3/22 36/3/21
f 34/3/22 61/4/21 58/4/22
f 68/4/16 46/3/7 51/4/7
f 46/3/7 68/4/16 47/3/16
f 62/4/5 36/3/21 38/3/5
f 36/3/21 62/4/5 61/4/21
f 69/5/9 52/5/23 54/5/9
f 52/5/23 69/5/9 70/5/23
f 35/3/6 69/5/6 37/3/6
f 69/5/6 35/3/6 70/5/6
f 70/5/6 35/3/6 55/4/6
f 70/5/6 55/4/6 56/4/6
f 58/4/22 33/3/12 34/3/22
f 33/3/12 58/4/22 49/4/12
f 65/4/17 44/3/15 66/4/15
f 44/3/15 65/4/17 43/3/17
f 57/4/3 35/3/3 31/3/3
f 35/3/3 57/4/3 55/4/3
f 70/5/23 53/4/24 52/5/23
f 53/4/24 70/5/23 56/4/24
f 29/3/20 57/4/6 31/3/6
f 57/4/6 29/3/20 60/4/20
f 64/4/18 39/3/19 42/3/18
f 39/3/19 64/4/18 63/4/19

