# Created by Kenney (www.kenney.nl)

mtllib trunk-long.mtl

g trunk-long

v 0 0 -0.2754 1 1 1
v 0.2385037 0 -0.1377 1 1 1
v 0 0.0648 -0.223074 1 1 1
v 0.1931874 0.0648 -0.111537 1 1 1
v -0.09885969 1.26295 -0.05707665 1 1 1
v -0.09885969 1.1122 -0.05707665 1 1 1
v -0.09885969 1.26295 0.05707665 1 1 1
v -0.09885969 0.8736247 -0.05707665 1 1 1
v -0.09885969 0.8736247 0.05707665 1 1 1
v -0.09885969 0.96685 0.05707665 1 1 1
v 0 0.96685 0.1141533 1 1 1
v 0 0.8736247 0.1141533 1 1 1
v 0 0.96685 0.1438827 1 1 1
v 0 0.8736247 0.1438827 1 1 1
v 0.1661415 0.2673 0.09592182 1 1 1
v 0 0.2673 0.1918436 1 1 1
v 0.1246063 0.8736247 0.07194096 1 1 1
v 0 0.2673 0.1522047 1 1 1
v 0.1318129 0.2673 0.07610193 1 1 1
v 0.09885969 0.8736247 0.05707665 1 1 1
v 0.1246063 1.294375 -0.07194096 1 1 1
v 0.1246063 1.294375 0.07194096 1 1 1
v 0.09885969 1.294375 -0.05707665 1 1 1
v 0.09885969 1.294375 0.05707665 1 1 1
v -0.1931874 0.0648 -0.111537 1 1 1
v -0.1661415 0.2673 -0.09592182 1 1 1
v -0.1931874 0.0648 0.111537 1 1 1
v -0.1661415 0.2673 0.09592182 1 1 1
v -0.1246063 1.1122 -0.07194096 1 1 1
v -0.1246063 1.26295 -0.07194096 1 1 1
v 0 1.1122 -0.1438827 1 1 1
v 0 1.1122 -0.1141533 1 1 1
v 0.2385037 0 0.1377 1 1 1
v 0 0 0.2754 1 1 1
v -0.2385037 0 0.1377 1 1 1
v -0.2385037 0 -0.1377 1 1 1
v 0.1931874 0.0648 0.111537 1 1 1
v 0 0.2673 -0.1522047 1 1 1
v -0.1318129 0.2673 -0.07610193 1 1 1
v 0 0.8736247 -0.1141533 1 1 1
v 0.1246063 1.2265 -0.07194096 1 1 1
v 0.09885969 1.2265 -0.05707665 1 1 1
v 0 1.2265 -0.1438827 1 1 1
v 0 1.2265 -0.1141533 1 1 1
v 0.1661415 0.2673 -0.09592182 1 1 1
v 0 0.0648 0.223074 1 1 1
v -0.1246063 0.96685 0.07194096 1 1 1
v -0.1246063 1.26295 0.07194096 1 1 1
v 0.1318129 0.2673 -0.07610193 1 1 1
v 0.09885969 0.8736247 -0.05707665 1 1 1
v -0.1246063 0.8736247 -0.07194096 1 1 1
v -0.1246063 0.8736247 0.07194096 1 1 1
v -0.1318129 0.2673 0.07610193 1 1 1
v 0 0.2673 -0.1918436 1 1 1
v 0 0.8736247 -0.1438827 1 1 1
v 0.1246063 0.8736247 -0.07194096 1 1 1
v 0.04007151 0.7301178 0.1320989 1 1 1
v 0.1127512 0.7303227 0.2405846 1 1 1
v 0.04212162 0.670258 0.1356507 1 1 1
v 0.1142068 0.687822 0.2431053 1 1 1
v 0.151099 0.687822 0.2218055 1 1 1
v 0.1496435 0.7303227 0.219284 1 1 1
v 0.09203301 0.7301178 0.1020989 1 1 1
v 0.09408312 0.670258 0.1056507 1 1 1
v 0.1851433 0.1250292 0.0459513 1 1 1
v 0.1741856 0.2070708 0.03962439 1 1 1
v 0.2472363 0.1496062 0.02803005 1 1 1
v 0.2405522 0.1996512 0.02417121 1 1 1
v 0.2405522 0.1996512 -0.02417121 1 1 1
v 0.1741856 0.2070708 -0.0396252 1 1 1
v 0.1851433 0.1250292 -0.0459513 1 1 1
v 0.2472363 0.1496062 -0.02803005 1 1 1
v 0.165172 0.5189962 -0.3196276 1 1 1
v 0.07289514 0.5196085 -0.1298001 1 1 1
v 0.1391912 0.5189962 -0.334628 1 1 1
v 0.02093364 0.5196085 -0.1598001 1 1 1
v 0.1402159 0.4890659 -0.3364035 1 1 1
v 0.02298374 0.4597487 -0.1633511 1 1 1
v 0.1661966 0.4890659 -0.3214031 1 1 1
v 0.07494525 0.4597487 -0.1333511 1 1 1
v -0.2077383 0.1298033 -0.2096069 1 1 1
v -0.2049583 0.1714333 -0.2047915 1 1 1
v -0.1665684 0.1076433 -0.120298 1 1 1
v -0.162597 0.167116 -0.1134194 1 1 1
v -0.1713652 0.1298033 -0.2306062 1 1 1
v -0.1685853 0.1714333 -0.2257916 1 1 1
v -0.1146069 0.1076433 -0.1502979 1 1 1
v -0.1106355 0.167116 -0.1434194 1 1 1
v -0.1579711 0.3865676 0.02190807 1 1 1
v -0.1545537 0.4364507 0.02190807 1 1 1
v -0.2970116 0.4053645 0.03115827 1 1 1
v -0.2948586 0.4367909 0.03115827 1 1 1
v -0.1579711 0.3865676 0.07190856 1 1 1
v -0.2970116 0.4053645 0.06265835 1 1 1
v -0.1545537 0.4364507 0.07190856 1 1 1
v -0.2948586 0.4367909 0.06265835 1 1 1

vn 0.4097472 0.5730872 -0.7097031
vn 1 0 0
vn 0.9996243 -0.02741249 0
vn 0.4974139 0.1015831 0.8615454
vn 0.4974139 0.1015831 0.8615454
vn 0.4988313 0.06834354 0.8640003
vn -0.4992647 -0.05426904 -0.8647482
vn 0 1 0
vn -0.9911985 0.1323845 0
vn -0.9948271 0.1015821 0
vn 0.4999866 0 -0.8660332
vn -0.4999866 0 0.8660332
vn 0 -1 0
vn 0.8194917 0.573091 0
vn 0.4992647 -0.05426904 0.8647482
vn 0.4998129 -0.02741249 0.8656996
vn 0.9911985 0.1323845 0
vn 0.9948271 0.1015821 0
vn 0.4097472 0.5730872 0.7097031
vn 0.4999999 0 0.8660255
vn 0.4999866 0 0.8660332
vn -0.4097472 0.5730872 -0.7097031
vn -0.4955994 0.1323859 0.8584028
vn -0.4974139 0.1015831 0.8615454
vn -0.4974139 0.1015831 0.8615454
vn -0.4999866 0 -0.8660332
vn -0.9985263 -0.05426906 0
vn -0.9996243 -0.02741249 0
vn -0.9994007 0.03461541 0
vn -0.4097472 0.5730872 0.7097031
vn -1 0 0
vn 0.4998129 -0.02741249 -0.8656996
vn 0.4999999 0 -0.8660255
vn -0.8194917 0.573091 0
vn -0.4955994 0.1323859 -0.8584028
vn -0.4974139 0.1015831 -0.8615454
vn -0.4974139 0.1015831 -0.8615454
vn -0.4997013 0.03461566 -0.8655059
vn -0.4997013 0.03461567 -0.8655059
vn -0.5000014 0 -0.8660246
vn 0.4955994 0.1323859 0.8584028
vn 0.9985263 -0.05426906 0
vn 0.4992647 -0.05426904 -0.8647482
vn -0.4998129 -0.02741249 0.8656996
vn -0.4999999 0 0.8660255
vn 0.9994007 0.03461541 0
vn -0.4997013 0.03461567 0.8655059
vn -0.4997013 0.03461566 0.8655059
vn -0.5000014 0 0.8660246
vn 0.4955994 0.1323859 -0.8584028
vn 0.4974139 0.1015831 -0.8615454
vn 0.4974139 0.1015831 -0.8615454
vn 0.4997013 0.03461567 -0.8655059
vn 0.4997013 0.03461566 -0.8655059
vn -0.4992647 -0.05426904 0.8647482
vn 0.5000014 0 -0.8660246
vn -0.5866997 0.7087582 0.391721
vn -0.5867026 0.7087546 0.391723
vn -0.5385956 -0.695872 0.4750548
vn -0.5385956 -0.695872 0.4750547
vn 0.4988384 0.06833624 0.8639968
vn 0.6325957 0.7087534 -0.312236
vn 0.6807051 -0.6958754 -0.2289064
vn 0.6325932 0.7087562 -0.3122347
vn 0.6807021 -0.6958789 -0.2289045
vn 0.4298741 -0.5838999 0.688672
vn 0.2314534 0.7293184 0.6438354
vn 0.4302971 -0.5872329 0.6855668
vn 0.2310174 0.7324026 0.6404821
vn 0.2310221 0.7324023 -0.6404808
vn 0.2314587 0.7293137 -0.6438388
vn 0.429877 -0.5839012 -0.6886691
vn 0.4303 -0.5872348 -0.6855633
vn 0.9911981 0.1323865 0
vn 0.6353615 0.708754 0.3065675
vn 0.635367 0.7087478 0.3065703
vn -0.5831775 0.7087522 -0.3969561
vn -0.5831797 0.7087498 -0.3969575
vn -0.5351025 -0.6950062 -0.4802414
vn -0.5350962 -0.6950131 -0.4802383
vn 0.4988413 0.06833137 -0.8639956
vn 0.6834458 -0.695014 0.2232877
vn 0.6834447 -0.6950153 0.2232871
vn -0.716481 -0.6785555 0.1619177
vn -0.6236193 0.7119873 0.3227587
vn -0.7164765 -0.6785612 0.1619142
vn -0.6236188 0.7119877 0.3227586
vn -0.4955935 0.1323801 -0.858407
vn 0.4984645 -0.6785576 -0.5395302
vn 0.4984602 -0.6785621 -0.5395284
vn 0.5913258 0.7119893 -0.3786887
vn 0.5913276 0.711987 -0.3786902
vn -0.1409357 -0.6960344 -0.7040406
vn -0.0446983 0.7087522 -0.70404
vn -0.1409358 -0.6960359 -0.7040392
vn -0.04469829 0.7087522 -0.7040399
vn -0.1409357 -0.6960344 0.7040406
vn -0.1409358 -0.6960359 0.7040392
vn -0.0446983 0.7087522 0.70404
vn -0.04469829 0.7087522 0.7040399
vn -0.9976616 0.06834848 0

vt 0.96875 0.025
vt 0.96875 0.03501255
vt 0.96875 0.2201444
vt 0.96875 0.1968512
vt 0.96875 0.1599879
vt 0.96875 0.1743925
vt 0.96875 0.06630178
vt 0.96875 0.225
vt 0.96875 0.2145122
vt 0.96875 0.1746588
vt 0.96875 0.175
vt 0.96875 0.075
vt 0.96875 0.1042418
vt 0.96875 0.1049568
vt 0.96875 0.1659563
vt 0.96875 0.173977
vt 0.96875 0.1239763
vt 0.96875 0.109739
vt 0.96875 0.168232
vt 0.96875 0.1743226
vt 0.96875 0.1124266

usemtl colormap

f 3/2/1 2/1/1 1/1/1
f 2/1/1 3/2/1 4/2/1
f 7/3/2 6/4/2 5/3/2
f 6/4/2 7/3/2 8/5/3
f 8/5/3 7/3/2 9/5/3
f 9/5/3 7/3/2 10/6/2
f 13/6/2 12/5/2 11/6/2
f 12/5/2 13/6/2 14/5/2
f 17/5/6 16/7/5 15/7/4
f 16/7/5 17/5/6 14/5/6
f 12/5/7 19/7/7 18/7/7
f 19/7/7 12/5/7 20/5/7
f 20/5/8 14/5/8 17/5/8
f 14/5/8 20/5/8 12/5/8
f 23/8/8 22/8/8 21/8/8
f 22/8/8 23/8/8 24/8/8
f 27/2/9 26/7/10 25/2/9
f 26/7/10 27/2/9 28/7/10
f 30/3/11 6/4/11 29/4/11
f 6/4/11 30/3/11 5/3/11
f 29/4/8 32/4/8 31/4/8
f 32/4/8 29/4/8 6/4/8
f 22/8/12 20/5/12 17/5/12
f 20/5/12 22/8/12 24/8/12
f 34/1/13 2/1/13 33/1/13
f 2/1/13 34/1/13 1/1/13
f 1/1/13 34/1/13 35/1/13
f 1/1/13 35/1/13 36/1/13
f 4/2/14 33/1/14 2/1/14
f 33/1/14 4/2/14 37/2/14
f 40/5/16 39/7/15 38/7/15
f 39/7/15 40/5/16 8/5/16
f 43/9/8 42/9/8 41/9/8
f 42/9/8 43/9/8 44/9/8
f 45/7/18 37/2/17 4/2/17
f 37/2/17 45/7/18 15/7/18
f 37/2/19 34/1/19 33/1/19
f 34/1/19 37/2/19 46/2/19
f 32/4/20 8/5/16 40/5/16
f 8/5/16 32/4/20 6/4/20
f 7/3/21 47/6/21 10/6/21
f 47/6/21 7/3/21 48/3/21
f 25/2/22 1/1/22 36/1/22
f 1/1/22 25/2/22 3/2/22
f 16/7/24 27/2/23 46/2/23
f 27/2/23 16/7/24 28/7/25
f 23/8/26 41/9/26 42/9/26
f 41/9/26 23/8/26 21/8/26
f 19/7/27 50/5/28 49/7/27
f 50/5/28 19/7/27 20/5/28
f 28/7/10 51/5/29 26/7/10
f 51/5/29 28/7/10 52/5/29
f 46/2/30 35/1/30 34/1/30
f 35/1/30 46/2/30 27/2/30
f 32/4/31 43/9/31 31/4/31
f 43/9/31 32/4/31 44/9/31
f 30/3/8 7/3/8 5/3/8
f 7/3/8 30/3/8 48/3/8
f 38/7/8 19/7/8 49/7/8
f 19/7/8 38/7/8 18/7/8
f 18/7/8 38/7/8 39/7/8
f 18/7/8 39/7/8 53/7/8
f 10/6/33 12/5/32 9/5/32
f 12/5/32 10/6/33 11/6/33
f 35/1/34 25/2/34 36/1/34
f 25/2/34 35/1/34 27/2/34
f 10/6/8 13/6/8 11/6/8
f 13/6/8 10/6/8 47/6/8
f 52/5/29 29/4/31 51/5/29
f 29/4/31 52/5/29 30/3/31
f 30/3/31 52/5/29 48/3/31
f 48/3/31 52/5/29 47/6/31
f 26/7/36 3/2/35 25/2/35
f 3/2/35 26/7/36 54/7/37
f 20/5/28 42/9/31 50/5/28
f 42/9/31 20/5/28 23/8/31
f 23/8/31 20/5/28 24/8/31
f 29/4/40 55/5/39 51/5/38
f 55/5/39 29/4/40 31/4/40
f 15/7/4 46/2/41 37/2/41
f 46/2/41 15/7/4 16/7/5
f 8/5/3 53/7/42 39/7/42
f 53/7/42 8/5/3 9/5/3
f 9/5/32 18/7/43 53/7/43
f 18/7/43 9/5/32 12/5/32
f 42/9/45 40/5/44 50/5/44
f 40/5/44 42/9/45 32/4/45
f 32/4/45 42/9/45 44/9/45
f 56/5/46 15/7/18 45/7/18
f 15/7/18 56/5/46 17/5/46
f 13/6/49 52/5/48 14/5/47
f 52/5/48 13/6/49 47/6/49
f 54/7/51 4/2/50 3/2/50
f 4/2/50 54/7/51 45/7/52
f 55/5/53 45/7/52 54/7/51
f 45/7/52 55/5/53 56/5/54
f 50/5/44 38/7/55 49/7/55
f 38/7/55 50/5/44 40/5/44
f 31/4/56 56/5/54 55/5/53
f 56/5/54 31/4/56 41/9/56
f 41/9/56 31/4/56 43/9/56
f 51/5/38 54/7/37 26/7/36
f 54/7/37 51/5/38 55/5/39
f 14/5/47 28/7/25 16/7/24
f 28/7/25 14/5/47 52/5/48
f 22/8/2 41/9/2 21/8/2
f 41/9/2 22/8/2 56/5/46
f 56/5/46 22/8/2 17/5/46
f 59/12/59 58/11/58 57/10/57
f 58/11/58 59/12/59 60/13/60
f 61/13/61 58/11/61 60/13/61
f 58/11/61 61/13/61 62/11/61
f 62/11/64 64/12/63 63/10/62
f 64/12/63 62/11/64 61/13/65
f 63/10/62 58/11/58 62/11/64
f 58/11/58 63/10/62 57/10/57
f 60/13/60 64/12/63 61/13/65
f 64/12/63 60/13/60 59/12/59
f 67/14/68 66/11/67 65/12/66
f 66/11/67 67/14/68 68/15/69
f 70/11/71 68/15/69 69/15/70
f 68/15/69 70/11/71 66/11/67
f 70/11/71 72/14/73 71/12/72
f 72/14/73 70/11/71 69/15/70
f 65/12/66 72/14/73 67/14/68
f 72/14/73 65/12/66 71/12/72
f 69/15/74 67/14/74 72/14/74
f 67/14/74 69/15/74 68/15/74
f 75/16/77 74/11/76 73/16/75
f 74/11/76 75/16/77 76/11/78
f 78/12/80 75/16/77 77/17/79
f 75/16/77 78/12/80 76/11/78
f 75/16/81 79/17/81 77/17/81
f 79/17/81 75/16/81 73/16/81
f 80/12/83 77/17/79 79/17/82
f 77/17/79 80/12/83 78/12/80
f 73/16/75 80/12/83 79/17/82
f 80/12/83 73/16/75 74/11/76
f 83/12/86 82/11/85 81/18/84
f 82/11/85 83/12/86 84/19/87
f 82/11/88 85/18/88 81/18/88
f 85/18/88 82/11/88 86/11/88
f 86/11/91 87/12/90 85/18/89
f 87/12/90 86/11/91 88/19/92
f 83/12/86 85/18/89 87/12/90
f 85/18/89 83/12/86 81/18/84
f 86/11/91 84/19/87 88/19/92
f 84/19/87 86/11/91 82/11/85
f 91/21/95 90/20/94 89/12/93
f 90/20/94 91/21/95 92/11/96
f 94/21/98 89/12/93 93/12/97
f 89/12/93 94/21/98 91/21/95
f 92/11/96 95/20/99 90/20/94
f 95/20/99 92/11/96 96/11/100
f 95/20/99 94/21/98 93/12/97
f 94/21/98 95/20/99 96/11/100
f 94/21/101 92/11/101 91/21/101
f 92/11/101 94/21/101 96/11/101

g trunk-long




usemtl colormap

f 3/2/1 2/1/1 1/1/1
f 2/1/1 3/2/1 4/2/1
f 7/3/2 6/4/2 5/3/2
f 6/4/2 7/3/2 8/5/3
f 8/5/3 7/3/2 9/5/3
f 9/5/3 7/3/2 10/6/2
f 13/6/2 12/5/2 11/6/2
f 12/5/2 13/6/2 14/5/2
f 17/5/6 16/7/5 15/7/4
f 16/7/5 17/5/6 14/5/6
f 12/5/7 19/7/7 18/7/7
f 19/7/7 12/5/7 20/5/7
f 20/5/8 14/5/8 17/5/8
f 14/5/8 20/5/8 12/5/8
f 23/8/8 22/8/8 21/8/8
f 22/8/8 23/8/8 24/8/8
f 27/2/9 26/7/10 25/2/9
f 26/7/10 27/2/9 28/7/10
f 30/3/11 6/4/11 29/4/11
f 6/4/11 30/3/11 5/3/11
f 29/4/8 32/4/8 31/4/8
f 32/4/8 29/4/8 6/4/8
f 22/8/12 20/5/12 17/5/12
f 20/5/12 22/8/12 24/8/12
f 34/1/13 2/1/13 33/1/13
f 2/1/13 34/1/13 1/1/13
f 1/1/13 34/1/13 35/1/13
f 1/1/13 35/1/13 36/1/13
f 4/2/14 33/1/14 2/1/14
f 33/1/14 4/2/14 37/2/14
f 40/5/16 39/7/15 38/7/15
f 39/7/15 40/5/16 8/5/16
f 43/9/8 42/9/8 41/9/8
f 42/9/8 43/9/8 44/9/8
f 45/7/18 37/2/17 4/2/17
f 37/2/17 45/7/18 15/7/18
f 37/2/19 34/1/19 33/1/19
f 34/1/19 37/2/19 46/2/19
f 32/4/20 8/5/16 40/5/16
f 8/5/16 32/4/20 6/4/20
f 7/3/21 47/6/21 10/6/21
f 47/6/21 7/3/21 48/3/21
f 25/2/22 1/1/22 36/1/22
f 1/1/22 25/2/22 3/2/22
f 16/7/24 27/2/23 46/2/23
f 27/2/23 16/7/24 28/7/25
f 23/8/26 41/9/26 42/9/26
f 41/9/26 23/8/26 21/8/26
f 19/7/27 50/5/28 49/7/27
f 50/5/28 19/7/27 20/5/28
f 28/7/10 51/5/29 26/7/10
f 51/5/29 28/7/10 52/5/29
f 46/2/30 35/1/30 34/1/30
f 35/1/30 46/2/30 27/2/30
f 32/4/31 43/9/31 31/4/31
f 43/9/31 32/4/31 44/9/31
f 30/3/8 7/3/8 5/3/8
f 7/3/8 30/3/8 48/3/8
f 38/7/8 19/7/8 49/7/8
f 19/7/8 38/7/8 18/7/8
f 18/7/8 38/7/8 39/7/8
f 18/7/8 39/7/8 53/7/8
f 10/6/33 12/5/32 9/5/32
f 12/5/32 10/6/33 11/6/33
f 35/1/34 25/2/34 36/1/34
f 25/2/34 35/1/34 27/2/34
f 10/6/8 13/6/8 11/6/8
f 13/6/8 10/6/8 47/6/8
f 52/5/29 29/4/31 51/5/29
f 29/4/31 52/5/29 30/3/31
f 30/3/31 52/5/29 48/3/31
f 48/3/31 52/5/29 47/6/31
f 26/7/36 3/2/35 25/2/35
f 3/2/35 26/7/36 54/7/37
f 20/5/28 42/9/31 50/5/28
f 42/9/31 20/5/28 23/8/31
f 23/8/31 20/5/28 24/8/31
f 29/4/40 55/5/39 51/5/38
f 55/5/39 29/4/40 31/4/40
f 15/7/4 46/2/41 37/2/41
f 46/2/41 15/7/4 16/7/5
f 8/5/3 53/7/42 39/7/42
f 53/7/42 8/5/3 9/5/3
f 9/5/32 18/7/43 53/7/43
f 18/7/43 9/5/32 12/5/32
f 42/9/45 40/5/44 50/5/44
f 40/5/44 42/9/45 32/4/45
f 32/4/45 42/9/45 44/9/45
f 56/5/46 15/7/18 45/7/18
f 15/7/18 56/5/46 17/5/46
f 13/6/49 52/5/48 14/5/47
f 52/5/48 13/6/49 47/6/49
f 54/7/51 4/2/50 3/2/50
f 4/2/50 54/7/51 45/7/52
f 55/5/53 45/7/52 54/7/51
f 45/7/52 55/5/53 56/5/54
f 50/5/44 38/7/55 49/7/55
f 38/7/55 50/5/44 40/5/44
f 31/4/56 56/5/54 55/5/53
f 56/5/54 31/4/56 41/9/56
f 41/9/56 31/4/56 43/9/56
f 51/5/38 54/7/37 26/7/36
f 54/7/37 51/5/38 55/5/39
f 14/5/47 28/7/25 16/7/24
f 28/7/25 14/5/47 52/5/48
f 22/8/2 41/9/2 21/8/2
f 41/9/2 22/8/2 56/5/46
f 56/5/46 22/8/2 17/5/46
f 59/12/59 58/11/58 57/10/57
f 58/11/58 59/12/59 60/13/60
f 61/13/61 58/11/61 60/13/61
f 58/11/61 61/13/61 62/11/61
f 62/11/64 64/12/63 63/10/62
f 64/12/63 62/11/64 61/13/65
f 63/10/62 58/11/58 62/11/64
f 58/11/58 63/10/62 57/10/57
f 60/13/60 64/12/63 61/13/65
f 64/12/63 60/13/60 59/12/59
f 67/14/68 66/11/67 65/12/66
f 66/11/67 67/14/68 68/15/69
f 70/11/71 68/15/69 69/15/70
f 68/15/69 70/11/71 66/11/67
f 70/11/71 72/14/73 71/12/72
f 72/14/73 70/11/71 69/15/70
f 65/12/66 72/14/73 67/14/68
f 72/14/73 65/12/66 71/12/72
f 69/15/74 67/14/74 72/14/74
f 67/14/74 69/15/74 68/15/74
f 75/16/77 74/11/76 73/16/75
f 74/11/76 75/16/77 76/11/78
f 78/12/80 75/16/77 77/17/79
f 75/16/77 78/12/80 76/11/78
f 75/16/81 79/17/81 77/17/81
f 79/17/81 75/16/81 73/16/81
f 80/12/83 77/17/79 79/17/82
f 77/17/79 80/12/83 78/12/80
f 73/16/75 80/12/83 79/17/82
f 80/12/83 73/16/75 74/11/76
f 83/12/86 82/11/85 81/18/84
f 82/11/85 83/12/86 84/19/87
f 82/11/88 85/18/88 81/18/88
f 85/18/88 82/11/88 86/11/88
f 86/11/91 87/12/90 85/18/89
f 87/12/90 86/11/91 88/19/92
f 83/12/86 85/18/89 87/12/90
f 85/18/89 83/12/86 81/18/84
f 86/11/91 84/19/87 88/19/92
f 84/19/87 86/11/91 82/11/85
f 91/21/95 90/20/94 89/12/93
f 90/20/94 91/21/95 92/11/96
f 94/21/98 89/12/93 93/12/97
f 89/12/93 94/21/98 91/21/95
f 92/11/96 95/20/99 90/20/94
f 95/20/99 92/11/96 96/11/100
f 95/20/99 94/21/98 93/12/97
f 94/21/98 95/20/99 96/11/100
f 94/21/101 92/11/101 91/21/101
f 92/11/101 94/21/101 96/11/101

