# Created by Kenney (www.kenney.nl)

mtllib urn.mtl

g urn

v -0.0714 0.14 -0.0714 1 1 1
v 0.0714 0.14 -0.0714 1 1 1
v -0.087108 0.27 -0.087108 1 1 1
v 0.087108 0.27 -0.087108 1 1 1
v -0.087108 0.27 0.087108 1 1 1
v -0.0714 0.14 0.0714 1 1 1
v 0.087108 0.27 0.087108 1 1 1
v 0.0714 0.14 0.0714 1 1 1
v 0.075 0 0.075 1 1 1
v 0.075 0 -0.075 1 1 1
v -0.075 0 0.075 1 1 1
v -0.075 0 -0.075 1 1 1
v -0.041954 0.11 -0.041954 1 1 1
v 0.041954 0.11 -0.041954 1 1 1
v 0.087108 0.31 -0.087108 1 1 1
v 0.087108 0.31 0.087108 1 1 1
v -0.041954 0.11 0.041954 1 1 1
v -0.087108 0.31 0.087108 1 1 1
v 0.075 0.04 -0.075 1 1 1
v 0.075 0.04 0.075 1 1 1
v 0.041954 0.11 0.041954 1 1 1
v -0.075 0.04 -0.075 1 1 1
v -0.0614 0.06 -0.0614 1 1 1
v -0.075 0.04 0.075 1 1 1
v -0.0614 0.06 0.0614 1 1 1
v 0.0614 0.06 -0.0614 1 1 1
v 0.0614 0.06 0.0614 1 1 1
v -0.087108 0.31 -0.087108 1 1 1
v 0.03608044 0.06 0.03608044 1 1 1
v -0.03608044 0.06 0.03608044 1 1 1
v -0.03608044 0.06 -0.03608044 1 1 1
v 0.03608044 0.06 -0.03608044 1 1 1
v -0.068247 0.31 -0.068247 1 1 1
v 0.068247 0.31 -0.068247 1 1 1
v -0.068247 0.31 0.068247 1 1 1
v 0.068247 0.31 0.068247 1 1 1
v 0.068247 0.17 -0.068247 1 1 1
v 0.068247 0.17 0.068247 1 1 1
v -0.068247 0.17 -0.068247 1 1 1
v -0.068247 0.17 0.068247 1 1 1

vn 0 -0.3472744 -0.9377636
vn 0 -0.05771386 -0.9983332
vn -0.9983332 -0.05771386 0
vn -0.9377636 -0.3472744 0
vn 0.9983332 -0.05771386 0
vn 0.9377636 -0.3472744 0
vn 0 -1 0
vn 0 -0.7004866 -0.7136657
vn 1 0 0
vn -0.7136657 -0.7004866 0
vn 0 -0.05771386 0.9983332
vn 0 0 1
vn 0.9716468 0.2364367 0
vn 0 -0.3472744 0.9377636
vn 0.7136657 -0.7004866 0
vn -0.9716468 0.2364367 0
vn -0.8269265 0.56231 0
vn 0.8269265 0.56231 0
vn 0 0.2364367 0.9716468
vn -1 0 0
vn 0 0.56231 0.8269265
vn 0 -0.7004866 0.7136657
vn 0 0.2364367 -0.9716468
vn 0 0.56231 -0.8269265
vn 0 0 -1
vn 0 -0.116669 0.9931709
vn 0 -0.116669 -0.9931709
vn -0.9931709 -0.116669 0
vn 0.9931709 -0.116669 0
vn 0 1 0

vt 0.34375 0.3653226
vt 0.34375 0.4491935
vt 0.34375 0.275
vt 0.34375 0.3459677
vt 0.34375 0.475
vt 0.34375 0.3008065
vt 0.34375 0.3137097
vt 0.71875 0.1346774
vt 0.71875 0.225

usemtl colormap

f 3/2/2 2/1/1 1/1/1
f 2/1/1 3/2/2 4/2/2
f 1/1/4 5/2/3 3/2/3
f 5/2/3 1/1/4 6/1/4
f 7/2/5 2/1/6 4/2/5
f 2/1/6 7/2/5 8/1/6
f 11/3/7 10/3/7 9/3/7
f 10/3/7 11/3/7 12/3/7
f 1/1/1 14/4/8 13/4/8
f 14/4/8 1/1/1 2/1/1
f 16/5/9 4/2/5 15/5/9
f 4/2/5 16/5/9 7/2/5
f 13/4/10 6/1/4 1/1/4
f 6/1/4 13/4/10 17/4/10
f 16/5/12 5/2/11 7/2/11
f 5/2/11 16/5/12 18/5/12
f 20/6/13 10/3/9 19/6/13
f 10/3/9 20/6/13 9/3/9
f 7/2/11 6/1/14 8/1/14
f 6/1/14 7/2/11 5/2/11
f 8/1/6 14/4/15 2/1/6
f 14/4/15 8/1/6 21/4/15
f 24/6/16 23/7/17 22/6/16
f 23/7/17 24/6/16 25/7/17
f 26/7/18 20/6/13 19/6/13
f 20/6/13 26/7/18 27/7/18
f 20/6/19 11/3/12 9/3/12
f 11/3/12 20/6/19 24/6/19
f 11/3/20 22/6/16 12/3/20
f 22/6/16 11/3/20 24/6/16
f 27/7/21 24/6/19 20/6/19
f 24/6/19 27/7/21 25/7/21
f 8/1/14 17/4/22 21/4/22
f 17/4/22 8/1/14 6/1/14
f 23/7/24 19/6/23 22/6/23
f 19/6/23 23/7/24 26/7/24
f 22/6/23 10/3/25 12/3/25
f 10/3/25 22/6/23 19/6/23
f 5/2/3 28/5/20 3/2/3
f 28/5/20 5/2/3 18/5/20
f 28/5/25 4/2/2 3/2/2
f 4/2/2 28/5/25 15/5/25
f 21/4/26 30/7/26 29/7/26
f 30/7/26 21/4/26 17/4/26
f 13/4/27 32/7/27 31/7/27
f 32/7/27 13/4/27 14/4/27
f 31/7/28 17/4/28 13/4/28
f 17/4/28 31/7/28 30/7/28
f 21/4/29 32/7/29 14/4/29
f 32/7/29 21/4/29 29/7/29
f 26/7/30 32/7/30 27/7/30
f 32/7/30 26/7/30 23/7/30
f 29/7/30 27/7/30 32/7/30
f 32/7/30 23/7/30 31/7/30
f 27/7/30 29/7/30 25/7/30
f 31/7/30 23/7/30 30/7/30
f 25/7/30 29/7/30 30/7/30
f 25/7/30 30/7/30 23/7/30
f 34/5/30 28/5/30 33/5/30
f 33/5/30 28/5/30 35/5/30
f 34/5/30 15/5/30 28/5/30
f 18/5/30 35/5/30 28/5/30
f 15/5/30 34/5/30 16/5/30
f 18/5/30 36/5/30 35/5/30
f 16/5/30 36/5/30 18/5/30
f 36/5/30 16/5/30 34/5/30
f 38/8/20 34/9/20 37/8/20
f 34/9/20 38/8/20 36/9/20
f 34/9/12 39/8/12 37/8/12
f 39/8/12 34/9/12 33/9/12
f 35/9/9 39/8/9 33/9/9
f 39/8/9 35/9/9 40/8/9
f 35/9/25 38/8/25 40/8/25
f 38/8/25 35/9/25 36/9/25
f 39/8/30 38/8/30 37/8/30
f 38/8/30 39/8/30 40/8/30

g urn




usemtl colormap

f 3/2/2 2/1/1 1/1/1
f 2/1/1 3/2/2 4/2/2
f 1/1/4 5/2/3 3/2/3
f 5/2/3 1/1/4 6/1/4
f 7/2/5 2/1/6 4/2/5
f 2/1/6 7/2/5 8/1/6
f 11/3/7 10/3/7 9/3/7
f 10/3/7 11/3/7 12/3/7
f 1/1/1 14/4/8 13/4/8
f 14/4/8 1/1/1 2/1/1
f 16/5/9 4/2/5 15/5/9
f 4/2/5 16/5/9 7/2/5
f 13/4/10 6/1/4 1/1/4
f 6/1/4 13/4/10 17/4/10
f 16/5/12 5/2/11 7/2/11
f 5/2/11 16/5/12 18/5/12
f 20/6/13 10/3/9 19/6/13
f 10/3/9 20/6/13 9/3/9
f 7/2/11 6/1/14 8/1/14
f 6/1/14 7/2/11 5/2/11
f 8/1/6 14/4/15 2/1/6
f 14/4/15 8/1/6 21/4/15
f 24/6/16 23/7/17 22/6/16
f 23/7/17 24/6/16 25/7/17
f 26/7/18 20/6/13 19/6/13
f 20/6/13 26/7/18 27/7/18
f 20/6/19 11/3/12 9/3/12
f 11/3/12 20/6/19 24/6/19
f 11/3/20 22/6/16 12/3/20
f 22/6/16 11/3/20 24/6/16
f 27/7/21 24/6/19 20/6/19
f 24/6/19 27/7/21 25/7/21
f 8/1/14 17/4/22 21/4/22
f 17/4/22 8/1/14 6/1/14
f 23/7/24 19/6/23 22/6/23
f 19/6/23 23/7/24 26/7/24
f 22/6/23 10/3/25 12/3/25
f 10/3/25 22/6/23 19/6/23
f 5/2/3 28/5/20 3/2/3
f 28/5/20 5/2/3 18/5/20
f 28/5/25 4/2/2 3/2/2
f 4/2/2 28/5/25 15/5/25
f 21/4/26 30/7/26 29/7/26
f 30/7/26 21/4/26 17/4/26
f 13/4/27 32/7/27 31/7/27
f 32/7/27 13/4/27 14/4/27
f 31/7/28 17/4/28 13/4/28
f 17/4/28 31/7/28 30/7/28
f 21/4/29 32/7/29 14/4/29
f 32/7/29 21/4/29 29/7/29
f 26/7/30 32/7/30 27/7/30
f 32/7/30 26/7/30 23/7/30
f 29/7/30 27/7/30 32/7/30
f 32/7/30 23/7/30 31/7/30
f 27/7/30 29/7/30 25/7/30
f 31/7/30 23/7/30 30/7/30
f 25/7/30 29/7/30 30/7/30
f 25/7/30 30/7/30 23/7/30
f 34/5/30 28/5/30 33/5/30
f 33/5/30 28/5/30 35/5/30
f 34/5/30 15/5/30 28/5/30
f 18/5/30 35/5/30 28/5/30
f 15/5/30 34/5/30 16/5/30
f 18/5/30 36/5/30 35/5/30
f 16/5/30 36/5/30 18/5/30
f 36/5/30 16/5/30 34/5/30
f 38/8/20 34/9/20 37/8/20
f 34/9/20 38/8/20 36/9/20
f 34/9/12 39/8/12 37/8/12
f 39/8/12 34/9/12 33/9/12
f 35/9/9 39/8/9 33/9/9
f 39/8/9 35/9/9 40/8/9
f 35/9/25 38/8/25 40/8/25
f 38/8/25 35/9/25 36/9/25
f 39/8/30 38/8/30 37/8/30
f 38/8/30 39/8/30 40/8/30

g lid

v 0.087108 0.33 -0.087108 1 1 1
v 0.087108 0.33 0.087108 1 1 1
v 0.071429 0.34 -0.071429 1 1 1
v 0.071429 0.34 0.071429 1 1 1
v -0.071429 0.34 -0.071429 1 1 1
v -0.071429 0.34 0.071429 1 1 1
v -0.087108 0.33 -0.087108 1 1 1
v -0.087108 0.33 0.087108 1 1 1
v -0.04017036 0.34 -0.04017036 1 1 1
v 0.04017036 0.34 -0.04017036 1 1 1
v -0.04017036 0.34 0.04017036 1 1 1
v 0.04017036 0.34 0.04017036 1 1 1
v 0.01366492 0.39 -0.01366492 1 1 1
v 0.01366492 0.39 0.01366492 1 1 1
v -0.01366492 0.39 -0.01366492 1 1 1
v -0.01366492 0.39 0.01366492 1 1 1
v 0.02039541 0.37 0.02039541 1 1 1
v -0.02039541 0.37 0.02039541 1 1 1
v 0.02039541 0.37 -0.02039541 1 1 1
v -0.02039541 0.37 -0.02039541 1 1 1
v -0.017139 0.34 -0.017139 1 1 1
v -0.017139 0.34 0.017139 1 1 1
v 0.017139 0.34 -0.017139 1 1 1
v 0.017139 0.34 0.017139 1 1 1

vn 0.9409157 0.3386409 0
vn 0.5377346 0.8431141 0
vn -0.5377346 0.8431141 0
vn -0.9409157 0.3386409 0
vn 0 0.3386409 -0.9409157
vn 0 0.8431141 -0.5377346
vn 0 0.3386409 0.9409157
vn 0 0.8431141 0.5377346
vn 0 0.09188768 0.9957694
vn 0 0.3189483 0.9477721
vn 0.9957694 0.09188768 0
vn 0.9477721 0.3189483 0
vn 0 0.09188768 -0.9957694
vn 0 0.3189483 -0.9477721
vn -0.9957694 0.09188768 0
vn -0.9477721 0.3189483 0
vn -0.9941604 -0.1079131 0
vn 0 -0.1079131 -0.9941604
vn 0 -0.1079131 0.9941604
vn 0.9941604 -0.1079131 0

vt 0.34375 0.325
vt 0.34375 0.3916667
vt 0.34375 0.425
vt 0.71875 0.145
vt 0.71875 0.025

usemtl colormap

f 18/10/7 15/10/7 16/10/7
f 15/10/7 18/10/7 28/10/7
f 43/12/32 42/11/31 41/11/31
f 42/11/31 43/12/32 44/12/32
f 47/11/34 46/12/33 45/12/33
f 46/12/33 47/11/34 48/11/34
f 47/11/35 43/12/36 41/11/35
f 43/12/36 47/11/35 45/12/36
f 44/12/38 48/11/37 42/11/37
f 48/11/37 44/12/38 46/12/38
f 47/11/35 15/10/25 28/10/25
f 15/10/25 47/11/35 41/11/35
f 18/10/20 47/11/34 28/10/20
f 47/11/34 18/10/20 48/11/34
f 42/11/37 18/10/12 16/10/12
f 18/10/12 42/11/37 48/11/37
f 42/11/31 15/10/9 41/11/31
f 15/10/9 42/11/31 16/10/9
f 50/12/30 45/12/30 49/12/30
f 49/12/30 45/12/30 51/12/30
f 50/12/30 43/12/30 45/12/30
f 46/12/30 51/12/30 45/12/30
f 43/12/30 50/12/30 44/12/30
f 46/12/30 52/12/30 51/12/30
f 44/12/30 52/12/30 46/12/30
f 52/12/30 44/12/30 50/12/30
f 55/9/30 54/9/30 53/9/30
f 54/9/30 55/9/30 56/9/30
f 54/9/40 58/13/39 57/13/39
f 58/13/39 54/9/40 56/9/40
f 53/9/42 57/13/41 59/13/41
f 57/13/41 53/9/42 54/9/42
f 55/9/44 59/13/43 60/13/43
f 59/13/43 55/9/44 53/9/44
f 58/13/45 55/9/46 60/13/45
f 55/9/46 58/13/45 56/9/46
f 61/14/47 58/13/45 60/13/45
f 58/13/45 61/14/47 62/14/47
f 60/13/43 63/14/48 61/14/48
f 63/14/48 60/13/43 59/13/43
f 57/13/39 62/14/49 64/14/49
f 62/14/49 57/13/39 58/13/39
f 57/13/41 63/14/50 59/13/41
f 63/14/50 57/13/41 64/14/50
f 63/14/30 49/14/30 61/14/30
f 61/14/30 49/14/30 62/14/30
f 63/14/30 50/14/30 49/14/30
f 51/14/30 62/14/30 49/14/30
f 50/14/30 63/14/30 52/14/30
f 51/14/30 64/14/30 62/14/30
f 52/14/30 64/14/30 51/14/30
f 64/14/30 52/14/30 63/14/30

