# Apple ModelIO OBJ File: extraFantasma
mtllib extraFantasma.mtl
g Gafas
v 0.109493 3.4076 1.08052
v 0.109493 3.4076 0.962871
v 0.098248 3.4055 0.962871
v 0.098248 3.4055 1.08052
v 0.109493 3.31314 0.962871
v 1.2377 3.4076 0.962871
v 1.2377 3.31314 0.962871
v 1.2377 3.4076 1.08052
v 1.2377 3.31314 1.08052
v 1.35898 3.31314 1.03518
v 1.35898 3.4076 1.03518
v 0.109493 3.31314 1.08052
v 0.120739 3.31524 1.08052
v 0.006063 3.37027 1.08052
v 0.028555 3.28 1.08052
v 0.120739 3.31524 0.962871
v 0.006063 3.37027 0.962871
v -0.004403 3.36396 0.962871
v -0.004403 3.36396 1.08052
v 0.028555 3.28 0.962871
v 0.039021 3.2863 0.962871
v -0.026329 3.23119 0.962871
v -0.080362 3.29786 0.962871
v 0.039021 3.2863 1.08052
v -0.080362 3.29786 1.08052
v -0.140218 3.1986 0.962871
v -0.140218 3.1986 1.08052
v -0.026329 3.23119 1.08052
v -0.131979 3.10371 0.962871
v -0.131979 3.10371 1.08052
v -0.064388 3.2087 1.08052
v -0.064388 3.2087 0.962871
v -0.05615 3.11381 1.08052
v -0.05615 3.11381 0.962871
v 1.26759 3.4076 0.961089
v 1.35898 3.4076 0.075013
v 1.26759 3.4076 0.000923
v 1.26759 3.31314 0.961089
v 1.38204 3.40728 -0.027111
v 1.38442 3.31592 0.046979
v 1.26759 3.31314 0.000923
v 1.35898 3.31314 0.075013
v 1.39551 2.90164 -0.64133
v 1.39789 2.78734 -0.613563
v 1.28761 3.40482 -0.027111
v 1.28999 3.31347 0.046979
v 1.30346 2.78512 -0.614618
v 1.39823 2.78092 -0.654675
v 1.3038 2.77921 -0.656448
v 1.30108 2.89942 -0.642385
v 1.30142 2.89595 -0.642029
v 1.30221 2.88738 -0.657366
v 1.30459 2.80095 -0.737152
v 1.39585 2.89766 -0.640257
v 1.39664 2.88773 -0.654931
v 1.39902 2.80131 -0.734717
v 1.39718 2.89173 -0.665835
v 1.39956 2.84068 -0.771804
v 1.35988 3.28872 -0.864045
v 1.36227 3.28948 -0.981667
v 1.30274 2.8923 -0.66823
v 1.30512 2.84125 -0.774199
v 1.26783 3.29104 -0.983568
v 1.26845 3.32838 -0.983314
v 1.36288 3.32682 -0.981413
v 1.26545 3.29028 -0.865946
v 1.26607 3.32762 -0.865692
v 1.3605 3.32606 -0.863791
v 0.109493 3.4076 -1.08052
v 0.098248 3.4055 -1.08052
v 0.098248 3.4055 -0.962871
v 0.109493 3.4076 -0.962871
v 0.109493 3.31314 -0.962871
v 1.2377 3.31314 -0.962871
v 1.2377 3.4076 -0.962871
v 1.2377 3.4076 -1.08052
v 1.35898 3.4076 -1.03518
v 1.35898 3.31314 -1.03518
v 1.2377 3.31314 -1.08052
v 0.109493 3.31314 -1.08052
v 0.120739 3.31524 -1.08052
v 0.028555 3.28 -1.08052
v 0.006063 3.37027 -1.08052
v 0.120739 3.31524 -0.962871
v -0.004403 3.36396 -1.08052
v -0.004403 3.36396 -0.962871
v 0.006063 3.37027 -0.962871
v 0.028555 3.28 -0.962871
v -0.080362 3.29786 -0.962871
v -0.026329 3.23119 -0.962871
v 0.039021 3.2863 -0.962871
v 0.039021 3.2863 -1.08052
v -0.080362 3.29786 -1.08052
v -0.140218 3.1986 -1.08052
v -0.140218 3.1986 -0.962871
v -0.026329 3.23119 -1.08052
v -0.131979 3.10371 -1.08052
v -0.131979 3.10371 -0.962871
v -0.064388 3.2087 -0.962871
v -0.064388 3.2087 -1.08052
v -0.056149 3.11381 -1.08052
v -0.056149 3.11381 -0.962871
v 1.26759 3.4076 -0.96109
v 1.26759 3.4076 -0.000923
v 1.35898 3.4076 -0.075014
v 1.26759 3.31314 -0.96109
v 1.38204 3.40728 0.027111
v 1.38442 3.31592 -0.04698
v 1.26759 3.31314 -0.000923
v 1.35898 3.31314 -0.075014
v 1.39551 2.90164 0.64133
v 1.39789 2.78734 0.613563
v 1.28761 3.40482 0.027111
v 1.28999 3.31347 -0.04698
v 1.39823 2.78092 0.654675
v 1.30346 2.78512 0.614618
v 1.3038 2.77921 0.656447
v 1.30108 2.89942 0.642385
v 1.30459 2.80095 0.737152
v 1.30221 2.88738 0.657366
v 1.30142 2.89595 0.642029
v 1.39585 2.89766 0.640256
v 1.39664 2.88773 0.654931
v 1.39718 2.89173 0.665835
v 1.39902 2.80131 0.734717
v 1.39956 2.84068 0.771804
v 1.35988 3.28872 0.864045
v 1.36227 3.28948 0.981667
v 1.30274 2.8923 0.668229
v 1.30512 2.84125 0.774198
v 1.36288 3.32682 0.981413
v 1.26783 3.29104 0.983567
v 1.26845 3.32838 0.983313
v 1.26545 3.29028 0.865946
v 1.26607 3.32762 0.865692
v 1.3605 3.32606 0.863791
vn -0.1836 0.983 -0
vn -0 -0 -1
vn 0.3502 -0 0.9367
vn -0 -0 1
vn -0 -1 -0
vn -0 1 -0
vn -1 -0 -0
vn -0.5159 0.8567 -0
vn -0.3571 0.9341 -0
vn 0.3571 -0.9341 -0
vn -0.1823 -0 -0.9832
vn -0.8563 0.5164 -0
vn -0.6565 0.7543 -0
vn 0.6447 -0.7644 -0
vn -0.9963 -0.0865 -0
vn 0.5087 -0.8609 -0
vn 0.132 -0.9912 -0
vn 0.9963 0.0865 -0
vn -0.0595 -0 -0.9982
vn 0.5804 0.8041 0.1285
vn 1 -0 -0
vn 0.9997 0.024 0.0017
vn -0.6194 0.6035 -0.5022
vn 0.6194 -0.6035 0.5022
vn 0.8793 0.2066 -0.429
vn 0.0184 -0.989 0.1471
vn -0.0156 0.7721 -0.6353
vn 0.0159 -0.7808 0.6245
vn -0.9997 -0.024 -0.0017
vn -0.9997 -0.0149 -0.0185
vn -0.9997 -0.0213 -0.0118
vn 0.9997 0.0213 0.0117
vn 0.0186 -0.1869 -0.9822
vn 0.9997 0.002 0.0241
vn 0.9997 0.0149 0.0183
vn 0.0024 0.8514 -0.5246
vn 0.0162 -0.9673 -0.2533
vn 0.9961 0.0885 0.0013
vn -0.0086 0.9255 0.3787
vn 0.0179 -0.6812 -0.7319
vn -0.9997 -0.0019 -0.0242
vn 0.0202 0.0065 -0.9998
vn -0.0154 0.4446 0.8956
vn 0.0159 -0.4217 -0.9066
vn -0.9961 -0.0883 -0.0014
vn 0.0164 0.9998 0.0068
vn -0.9997 0.0165 -0.0201
vn 0.9997 -0.0165 0.0201
vn -0.0202 -0.0065 0.9998
vn 0.3502 -0 -0.9367
vn -0 0.4287 0.9035
vn -0 -0.6713 -0.7412
vn -0 0.9056 0.4242
vn -0 -0.6826 0.7308
vn -0.0595 -0 0.9982
vn 0.5804 0.8041 -0.1285
vn 0.9997 0.024 -0.0017
vn -0.6194 0.6035 0.5022
vn 0.6194 -0.6035 -0.5022
vn 0.8793 0.2066 0.429
vn 0.0184 -0.989 -0.1471
vn -0.0156 0.7721 0.6353
vn 0.0159 -0.7808 -0.6245
vn -0.9997 -0.024 0.0017
vn -0.9997 -0.0149 0.0185
vn -0.9997 -0.0213 0.0118
vn 0.9997 0.0213 -0.0116
vn 0.0186 -0.1869 0.9822
vn 0.9997 0.002 -0.0241
vn 0.9997 0.0149 -0.0183
vn 0.0024 0.8514 0.5246
vn 0.0162 -0.9673 0.2533
vn 0.9961 0.0885 -0.0013
vn -0.0086 0.9255 -0.3787
vn 0.0179 -0.6812 0.7319
vn -0.9997 -0.0019 0.0242
vn 0.0202 0.0065 0.9998
vn -0.0154 0.4446 -0.8956
vn 0.0159 -0.4217 0.9066
vn -0.9961 -0.0883 0.0014
vn 0.0164 0.9998 -0.0068
vn -0.9997 0.0165 0.0201
vn 0.9997 -0.0165 -0.0201
vn -0.0202 -0.0065 -0.9998
vt 0.5 0.5
vt 0.5 0.333333
vt 0.166667 0.166667
vt 0.333333 0.166667
vt 0.333333 0.333333
vt 0.166667 0.333333
vt 0.333333 0.5
vt 0.166667 0.5
vt 0.333333 0.666667
vt 0.166667 0.666667
vt 0 0.333333
vt 0 0.5
vt 0.166667 0
vt 0.333333 0
vt 1 0.5
vt 1 0.333333
vt 0.666667 0.166667
vt 0.666667 0.333333
vt 0.833333 0.333333
vt 0.833333 0.166667
vt 0.833333 0.5
vt 0.666667 0.5
vt 0.666667 0.666667
vt 0.833333 0.666667
vt 0.666667 0
vt 0.833333 0
usemtl 
f 1/1/1 2/2/1 3/2/1
f 1/1/1 3/2/1 4/1/1
f 5/3/2 2/4/2 6/5/2
f 5/3/2 6/5/2 7/6/2
f 8/7/3 9/8/3 10/8/3
f 8/7/3 10/8/3 11/7/3
f 9/8/4 8/7/4 1/9/4
f 9/8/4 1/9/4 12/10/4
f 5/11/5 7/6/5 9/8/5
f 5/11/5 9/8/5 12/12/5
f 6/5/6 2/2/6 1/1/6
f 6/5/6 1/1/6 8/7/6
f 13/10/4 4/9/4 14/9/4
f 13/10/4 14/9/4 15/10/4
f 5/11/1 12/12/1 13/12/1
f 5/11/1 13/12/1 16/11/1
f 2/4/7 5/3/7 16/3/7
f 2/4/7 16/3/7 3/4/7
f 12/10/7 1/9/7 4/9/7
f 12/10/7 4/9/7 13/10/7
f 14/1/8 17/2/8 18/2/8
f 14/1/8 18/2/8 19/1/8
f 4/1/9 3/2/9 17/2/9
f 4/1/9 17/2/9 14/1/9
f 16/11/10 13/12/10 15/12/10
f 16/11/10 15/12/10 20/11/10
f 3/4/2 16/3/2 17/4/2
f 16/3/2 20/3/2 17/4/2
f 18/4/2 21/3/2 22/3/2
f 18/4/2 22/3/2 23/4/2
f 20/11/8 15/12/8 24/12/8
f 20/11/8 24/12/8 21/11/8
f 17/4/11 20/3/11 21/3/11
f 17/4/11 21/3/11 18/4/11
f 15/10/11 14/9/11 19/9/11
f 15/10/11 19/9/11 24/10/11
f 25/1/12 23/2/12 26/2/12
f 25/1/12 26/2/12 27/1/12
f 24/10/4 19/9/4 28/10/4
f 19/9/4 25/9/4 28/10/4
f 19/1/13 18/2/13 23/2/13
f 19/1/13 23/2/13 25/1/13
f 21/11/14 24/12/14 28/12/14
f 21/11/14 28/12/14 22/11/14
f 27/1/15 26/2/15 29/2/15
f 27/1/15 29/2/15 30/1/15
f 22/11/16 28/12/16 31/12/16
f 22/11/16 31/12/16 32/11/16
f 23/4/2 22/3/2 32/3/2
f 23/4/2 32/3/2 26/4/2
f 28/10/4 25/9/4 31/10/4
f 25/9/4 27/9/4 31/10/4
f 33/13/17 30/14/17 29/4/17
f 33/13/17 29/4/17 34/3/17
f 32/11/18 31/12/18 33/12/18
f 32/11/18 33/12/18 34/11/18
f 26/4/2 32/3/2 34/3/2
f 26/4/2 34/3/2 29/4/2
f 31/10/4 27/9/4 33/10/4
f 27/9/4 30/9/4 33/10/4
f 35/5/6 11/7/6 36/7/6
f 35/5/6 36/7/6 37/5/6
f 9/8/5 7/6/5 38/6/5
f 9/8/5 38/6/5 10/8/5
f 6/5/6 8/7/6 35/5/6
f 8/7/6 11/7/6 35/5/6
f 7/6/19 6/5/19 35/5/19
f 7/6/19 35/5/19 38/6/19
f 37/5/20 36/7/20 39/5/20
f 36/7/20 40/7/20 39/5/20
f 38/6/7 35/5/7 37/5/7
f 38/6/7 37/5/7 41/6/7
f 11/7/21 10/8/21 42/8/21
f 11/7/21 42/8/21 36/7/21
f 10/8/5 38/6/5 41/6/5
f 10/8/5 41/6/5 42/8/5
f 39/5/22 40/7/22 43/5/22
f 40/7/22 44/7/22 43/5/22
f 41/6/23 37/5/23 45/6/23
f 37/5/23 39/5/23 45/6/23
f 36/7/24 42/8/24 46/8/24
f 36/7/24 46/8/24 40/7/24
f 42/8/25 41/6/25 45/6/25
f 42/8/25 45/6/25 46/8/25
f 44/7/26 47/8/26 48/7/26
f 47/8/26 49/8/26 48/7/26
f 45/6/27 39/5/27 43/5/27
f 45/6/27 43/5/27 50/6/27
f 40/7/28 46/8/28 44/7/28
f 46/8/28 47/8/28 44/7/28
f 46/8/29 45/6/29 50/6/29
f 46/8/29 50/6/29 47/8/29
f 49/8/30 51/6/30 52/6/30
f 49/8/30 52/6/30 53/8/30
f 47/8/31 50/6/31 51/6/31
f 47/8/31 51/6/31 49/8/31
f 43/5/32 44/7/32 48/7/32
f 43/5/32 48/7/32 54/5/32
f 50/6/33 43/5/33 51/6/33
f 43/5/33 54/5/33 51/6/33
f 55/5/34 56/7/34 57/5/34
f 56/7/34 58/7/34 57/5/34
f 54/5/35 48/7/35 55/5/35
f 48/7/35 56/7/35 55/5/35
f 51/6/36 54/5/36 52/6/36
f 54/5/36 55/5/36 52/6/36
f 48/7/37 49/8/37 56/7/37
f 49/8/37 53/8/37 56/7/37
f 57/5/38 58/7/38 59/5/38
f 58/7/38 60/7/38 59/5/38
f 52/6/39 55/5/39 61/6/39
f 55/5/39 57/5/39 61/6/39
f 56/7/40 53/8/40 58/7/40
f 53/8/40 62/8/40 58/7/40
f 53/8/41 52/6/41 61/6/41
f 53/8/41 61/6/41 62/8/41
f 60/7/42 63/8/42 64/8/42
f 60/7/42 64/8/42 65/7/42
f 61/6/43 57/5/43 59/5/43
f 61/6/43 59/5/43 66/6/43
f 58/7/44 62/8/44 60/7/44
f 62/8/44 63/8/44 60/7/44
f 62/8/45 61/6/45 66/6/45
f 62/8/45 66/6/45 63/8/45
f 67/6/46 68/5/46 65/7/46
f 67/6/46 65/7/46 64/8/46
f 63/8/47 66/6/47 67/6/47
f 63/8/47 67/6/47 64/8/47
f 59/5/48 60/7/48 68/5/48
f 60/7/48 65/7/48 68/5/48
f 66/6/49 59/5/49 68/5/49
f 66/6/49 68/5/49 67/6/49
f 69/15/1 70/15/1 71/16/1
f 69/15/1 71/16/1 72/16/1
f 73/17/4 74/18/4 75/19/4
f 73/17/4 75/19/4 72/20/4
f 76/21/50 77/21/50 78/22/50
f 76/21/50 78/22/50 79/22/50
f 79/22/2 80/23/2 69/24/2
f 79/22/2 69/24/2 76/21/2
f 73/2/5 80/1/5 79/22/5
f 73/2/5 79/22/5 74/18/5
f 75/19/6 76/21/6 69/15/6
f 75/19/6 69/15/6 72/16/6
f 81/23/2 82/23/2 83/24/2
f 81/23/2 83/24/2 70/24/2
f 73/2/1 84/2/1 81/1/1
f 73/2/1 81/1/1 80/1/1
f 72/20/51 71/20/51 84/17/51
f 72/20/51 84/17/51 73/17/51
f 80/23/52 81/23/52 70/24/52
f 80/23/52 70/24/52 69/24/52
f 83/15/8 85/15/8 86/16/8
f 83/15/8 86/16/8 87/16/8
f 70/15/9 83/15/9 87/16/9
f 70/15/9 87/16/9 71/16/9
f 84/2/10 88/2/10 82/1/10
f 84/2/10 82/1/10 81/1/10
f 71/20/4 87/20/4 84/17/4
f 87/20/4 88/17/4 84/17/4
f 86/20/4 89/20/4 90/17/4
f 86/20/4 90/17/4 91/17/4
f 88/2/8 91/2/8 92/1/8
f 88/2/8 92/1/8 82/1/8
f 87/20/53 86/20/53 91/17/53
f 87/20/53 91/17/53 88/17/53
f 82/23/54 92/23/54 85/24/54
f 82/23/54 85/24/54 83/24/54
f 93/15/12 94/15/12 95/16/12
f 93/15/12 95/16/12 89/16/12
f 92/23/2 96/23/2 85/24/2
f 96/23/2 93/24/2 85/24/2
f 85/15/13 93/15/13 89/16/13
f 85/15/13 89/16/13 86/16/13
f 91/2/14 90/2/14 96/1/14
f 91/2/14 96/1/14 92/1/14
f 94/15/15 97/15/15 98/16/15
f 94/15/15 98/16/15 95/16/15
f 90/2/16 99/2/16 100/1/16
f 90/2/16 100/1/16 96/1/16
f 89/20/4 95/20/4 99/17/4
f 89/20/4 99/17/4 90/17/4
f 96/23/2 100/23/2 93/24/2
f 100/23/2 94/24/2 93/24/2
f 101/25/17 102/17/17 98/20/17
f 101/25/17 98/20/17 97/26/17
f 99/2/18 102/2/18 101/1/18
f 99/2/18 101/1/18 100/1/18
f 95/20/4 98/20/4 99/17/4
f 98/20/4 102/17/4 99/17/4
f 100/23/2 101/23/2 97/24/2
f 100/23/2 97/24/2 94/24/2
f 103/19/6 104/19/6 105/21/6
f 103/19/6 105/21/6 77/21/6
f 79/22/5 78/22/5 106/18/5
f 79/22/5 106/18/5 74/18/5
f 75/19/6 103/19/6 76/21/6
f 103/19/6 77/21/6 76/21/6
f 74/18/55 106/18/55 103/19/55
f 74/18/55 103/19/55 75/19/55
f 104/19/56 107/19/56 105/21/56
f 107/19/56 108/21/56 105/21/56
f 106/18/7 109/18/7 104/19/7
f 106/18/7 104/19/7 103/19/7
f 77/21/21 105/21/21 110/22/21
f 77/21/21 110/22/21 78/22/21
f 78/22/5 110/22/5 109/18/5
f 78/22/5 109/18/5 106/18/5
f 107/19/57 111/19/57 108/21/57
f 111/19/57 112/21/57 108/21/57
f 109/18/58 113/18/58 104/19/58
f 113/18/58 107/19/58 104/19/58
f 105/21/59 108/21/59 114/22/59
f 105/21/59 114/22/59 110/22/59
f 110/22/60 114/22/60 113/18/60
f 110/22/60 113/18/60 109/18/60
f 112/21/61 115/21/61 116/22/61
f 115/21/61 117/22/61 116/22/61
f 113/18/62 118/18/62 111/19/62
f 113/18/62 111/19/62 107/19/62
f 108/21/63 112/21/63 114/22/63
f 112/21/63 116/22/63 114/22/63
f 114/22/64 116/22/64 118/18/64
f 114/22/64 118/18/64 113/18/64
f 117/22/65 119/22/65 120/18/65
f 117/22/65 120/18/65 121/18/65
f 116/22/66 117/22/66 121/18/66
f 116/22/66 121/18/66 118/18/66
f 111/19/67 122/19/67 115/21/67
f 111/19/67 115/21/67 112/21/67
f 118/18/68 121/18/68 111/19/68
f 121/18/68 122/19/68 111/19/68
f 123/19/69 124/19/69 125/21/69
f 124/19/69 126/21/69 125/21/69
f 122/19/70 123/19/70 115/21/70
f 123/19/70 125/21/70 115/21/70
f 121/18/71 120/18/71 122/19/71
f 120/18/71 123/19/71 122/19/71
f 115/21/72 125/21/72 117/22/72
f 125/21/72 119/22/72 117/22/72
f 124/19/73 127/19/73 126/21/73
f 127/19/73 128/21/73 126/21/73
f 120/18/74 129/18/74 123/19/74
f 129/18/74 124/19/74 123/19/74
f 125/21/75 126/21/75 119/22/75
f 126/21/75 130/22/75 119/22/75
f 119/22/76 130/22/76 129/18/76
f 119/22/76 129/18/76 120/18/76
f 128/21/77 131/21/77 132/22/77
f 131/21/77 133/22/77 132/22/77
f 129/18/78 134/18/78 127/19/78
f 129/18/78 127/19/78 124/19/78
f 126/21/79 128/21/79 130/22/79
f 128/21/79 132/22/79 130/22/79
f 130/22/80 132/22/80 134/18/80
f 130/22/80 134/18/80 129/18/80
f 135/18/81 133/22/81 136/19/81
f 133/22/81 131/21/81 136/19/81
f 132/22/82 133/22/82 135/18/82
f 132/22/82 135/18/82 134/18/82
f 127/19/83 136/19/83 131/21/83
f 127/19/83 131/21/83 128/21/83
f 134/18/84 135/18/84 127/19/84
f 135/18/84 136/19/84 127/19/84
s off
