# Apple ModelIO OBJ File: upVampiro
mtllib upVampiro.mtl
g colmillos
v 0.828446 2.63215 0.25829
v 0.822138 2.63173 0.257156
v 0.828446 2.49195 0.243652
v 0.816073 2.63047 0.253798
v 0.810483 2.62842 0.248345
v 0.805584 2.62566 0.241006
v 0.801563 2.62229 0.232064
v 0.798575 2.61846 0.221862
v 0.796735 2.6143 0.210792
v 0.796114 2.60997 0.19928
v 0.796735 2.60564 0.187767
v 0.798575 2.60148 0.176697
v 0.801563 2.59764 0.166495
v 0.805584 2.59428 0.157553
v 0.810483 2.59152 0.150214
v 0.816073 2.58947 0.144761
v 0.822138 2.58821 0.141403
v 0.828446 2.58778 0.140269
v 0.834754 2.58821 0.141403
v 0.840819 2.58947 0.144761
v 0.846409 2.59152 0.150214
v 0.851308 2.59428 0.157553
v 0.855329 2.59764 0.166495
v 0.858317 2.60148 0.176697
v 0.860157 2.60564 0.187767
v 0.860778 2.60997 0.19928
v 0.860157 2.6143 0.210792
v 0.858317 2.61846 0.221862
v 0.855329 2.62229 0.232064
v 0.851308 2.62566 0.241006
v 0.846409 2.62842 0.248345
v 0.840819 2.63047 0.253798
v 0.834754 2.63173 0.257156
v 0.828446 2.63215 -0.25829
v 0.828446 2.49195 -0.243652
v 0.822138 2.63173 -0.257156
v 0.816073 2.63047 -0.253798
v 0.810483 2.62842 -0.248345
v 0.805584 2.62566 -0.241007
v 0.801563 2.62229 -0.232064
v 0.798575 2.61846 -0.221862
v 0.796735 2.6143 -0.210792
v 0.796114 2.60997 -0.19928
v 0.796735 2.60564 -0.187768
v 0.798575 2.60148 -0.176698
v 0.801563 2.59764 -0.166496
v 0.805584 2.59428 -0.157554
v 0.810483 2.59152 -0.150215
v 0.816073 2.58947 -0.144762
v 0.822138 2.58821 -0.141404
v 0.828446 2.58778 -0.14027
v 0.834754 2.58821 -0.141404
v 0.840819 2.58947 -0.144762
v 0.846409 2.59152 -0.150215
v 0.851308 2.59428 -0.157554
v 0.855329 2.59764 -0.166496
v 0.858317 2.60148 -0.176698
v 0.860157 2.60564 -0.187768
v 0.860778 2.60997 -0.19928
v 0.860157 2.6143 -0.210792
v 0.858317 2.61846 -0.221862
v 0.855329 2.62229 -0.232064
v 0.851308 2.62566 -0.241007
v 0.846409 2.62842 -0.248345
v 0.840819 2.63047 -0.253798
v 0.834754 2.63173 -0.257156
vn -0.1693 -0.1023 0.9802
vn -0.4647 -0.1059 0.8791
vn -0.6721 -0.1136 0.7317
vn -0.8026 -0.1257 0.5831
vn -0.8818 -0.1419 0.4498
vn -0.9289 -0.162 0.333
vn -0.9555 -0.1862 0.2288
vn -0.9675 -0.215 0.1331
vn -0.9675 -0.2494 0.0416
vn -0.9555 -0.2908 -0.0495
vn -0.9289 -0.3412 -0.1438
vn -0.8818 -0.4031 -0.2449
vn -0.8026 -0.4787 -0.3559
vn -0.6721 -0.5675 -0.4756
vn -0.4647 -0.6588 -0.5916
vn -0.1693 -0.7228 -0.67
vn 0.1693 -0.7228 -0.67
vn 0.4647 -0.6588 -0.5916
vn 0.6721 -0.5675 -0.4756
vn 0.8026 -0.4787 -0.3559
vn 0.8818 -0.4031 -0.2449
vn 0.9289 -0.3412 -0.1438
vn 0.9555 -0.2908 -0.0495
vn 0.9675 -0.2494 0.0416
vn 0.9675 -0.215 0.1331
vn 0.9555 -0.1862 0.2288
vn 0.9289 -0.162 0.333
vn 0.8818 -0.1419 0.4498
vn 0.8026 -0.1257 0.5831
vn 0.6721 -0.1136 0.7317
vn -0 0.936 -0.3519
vn 0.4647 -0.1059 0.8791
vn 0.1693 -0.1023 0.9802
vn -0.1693 -0.1023 -0.9802
vn -0.4647 -0.1059 -0.8791
vn -0.6721 -0.1136 -0.7317
vn -0.8026 -0.1257 -0.5831
vn -0.8818 -0.1419 -0.4498
vn -0.9289 -0.162 -0.333
vn -0.9555 -0.1862 -0.2288
vn -0.9675 -0.215 -0.1331
vn -0.9675 -0.2494 -0.0416
vn -0.9555 -0.2908 0.0495
vn -0.9289 -0.3412 0.1438
vn -0.8818 -0.4031 0.2449
vn -0.8026 -0.4787 0.3559
vn -0.6721 -0.5675 0.4756
vn -0.4647 -0.6588 0.5916
vn -0.1693 -0.7228 0.67
vn 0.1693 -0.7228 0.67
vn 0.4647 -0.6588 0.5916
vn 0.6721 -0.5675 0.4756
vn 0.8026 -0.4787 0.3559
vn 0.8818 -0.4031 0.2449
vn 0.9289 -0.3412 0.1438
vn 0.9555 -0.2908 0.0495
vn 0.9675 -0.2494 -0.0416
vn 0.9675 -0.215 -0.1331
vn 0.9555 -0.1862 -0.2288
vn 0.9289 -0.162 -0.333
vn 0.8818 -0.1419 -0.4498
vn 0.8026 -0.1257 -0.5831
vn 0.6721 -0.1136 -0.7317
vn -0 0.936 0.3519
vn 0.4647 -0.1059 -0.8791
vn 0.1693 -0.1023 -0.9802
vt 0.573174 0.57759
vt 0.58007 0.598548
vt 0.827535 0.362091
vt 0.592567 0.619712
vt 0.610186 0.640269
vt 0.632249 0.659429
vt 0.657908 0.676457
vt 0.686178 0.690696
vt 0.715971 0.701601
vt 0.746144 0.708752
vt 0.775536 0.711874
vt 0.803018 0.710847
vt 0.827535 0.705711
vt 0.58525 0.269094
vt 0.60256 0.286962
vt 0.820029 0
vt 0.624374 0.30408
vt 0.649854 0.319791
vt 0.67802 0.33349
vt 0.70779 0.344651
vt 0.738019 0.352846
vt 0.767547 0.357759
vt 0.795239 0.359201
vt 0.820029 0.357118
vt 0 0.671744
vt 0.023958 0.676084
vt -0 0.322804
vt 0.051009 0.676521
vt 0.080116 0.673039
vt 0.110159 0.665773
vt 0.139983 0.655001
vt 0.168443 0.641136
vt 0.194445 0.624713
vt 0.216989 0.606362
vt 0.23521 0.586788
vt 0.248406 0.566744
vt 0.243355 0.860972
vt 0.243355 0.829245
vt 0.238679 0.797864
vt 0.238679 0.891826
vt 0.229507 0.920622
vt 0.216191 0.946252
vt 0.199242 0.967733
vt 0.179313 0.984238
vt 0.15717 0.995133
vt 0.133662 1
vt 0.109693 0.998651
vt 0.086186 0.991139
vt 0.064042 0.977751
vt 0.044113 0.959003
vt 0.027164 0.935615
vt 0.013848 0.908485
vt 0.004676 0.878657
vt 0 0.847276
vt -0 0.815549
vt 0.004676 0.784695
vt 0.013848 0.755899
vt 0.027164 0.730269
vt 0.044113 0.708788
vt 0.064042 0.692283
vt 0.086185 0.681388
vt 0.109693 0.676521
vt 0.133662 0.67787
vt 0.15717 0.685382
vt 0.179313 0.69877
vt 0.199242 0.717518
vt 0.216191 0.740906
vt 0.229507 0.768036
vt 0.256072 0.547
vt 0.572145 0.557644
vt 0.745888 0.913136
vt 0.572145 0.711874
vt 0.721613 0.933601
vt 0.693979 0.949312
vt 0.664047 0.959666
vt 0.632969 0.964263
vt 0.601937 0.962928
vt 0.572145 0.955711
vt 0.572145 0.724704
vt 0.572145 0.362091
vt 0.553198 0.723686
vt 0.530229 0.719877
vt 0.504123 0.713423
vt 0.475882 0.704574
vt 0.446592 0.693667
vt 0.417378 0.681124
vt 0.389363 0.667425
vt 0.363624 0.653097
vt 0.34115 0.638691
vt 0.322804 0.624761
vt 0.58525 0.361943
vt 0.58525 -0
vt 0.565186 0.362091
vt 0.541279 0.359256
vt 0.514449 0.353548
vt 0.485725 0.345184
vt 0.456211 0.334487
vt 0.427043 0.321867
vt 0.399341 0.307811
vt 0.374168 0.292857
vt 0.352494 0.27758
vt 0.33515 0.262568
vt 0.322804 0.248398
vt 0.790561 0.771571
vt 0.79338 0.801527
vt 0.790082 0.831805
vt 0.780793 0.861241
vt 0.237854 0.304434
vt 0.26429 0.286771
vt 0.286771 0.264289
vt 0.208481 0.316601
vt 0.177299 0.322804
vt 0.145505 0.322804
vt 0.114323 0.316601
vt 0.08495 0.304434
vt 0.058514 0.286771
vt 0.036033 0.26429
vt 0.018369 0.237854
vt 0.006203 0.208481
vt -0 0.177299
vt -0 0.145505
vt 0.006203 0.114323
vt 0.018369 0.084949
vt 0.036033 0.058514
vt 0.058514 0.036033
vt 0.084949 0.018369
vt 0.114323 0.006203
vt 0.145505 -0
vt 0.177299 -0
vt 0.208481 0.006202
vt 0.237854 0.018369
vt 0.26429 0.036033
vt 0.286771 0.058514
vt 0.304434 0.084949
vt 0.316601 0.114323
vt 0.322804 0.145505
vt 0.322804 0.177298
vt 0.316601 0.208481
vt 0.304434 0.237854
vt 0.76587 0.888702
usemtl 
f 1/1/1 2/2/1 3/3/1
f 2/2/2 4/4/2 3/3/2
f 4/4/3 5/5/3 3/3/3
f 5/5/4 6/6/4 3/3/4
f 6/6/5 7/7/5 3/3/5
f 7/7/6 8/8/6 3/3/6
f 8/8/7 9/9/7 3/3/7
f 9/9/8 10/10/8 3/3/8
f 10/10/9 11/11/9 3/3/9
f 11/11/10 12/12/10 3/3/10
f 12/12/11 13/13/11 3/3/11
f 13/14/12 14/15/12 3/16/12
f 14/15/13 15/17/13 3/16/13
f 15/17/14 16/18/14 3/16/14
f 16/18/15 17/19/15 3/16/15
f 17/19/16 18/20/16 3/16/16
f 18/20/17 19/21/17 3/16/17
f 19/21/18 20/22/18 3/16/18
f 20/22/19 21/23/19 3/16/19
f 21/23/20 22/24/20 3/16/20
f 22/25/21 23/26/21 3/27/21
f 23/26/22 24/28/22 3/27/22
f 24/28/23 25/29/23 3/27/23
f 25/29/24 26/30/24 3/27/24
f 26/30/25 27/31/25 3/27/25
f 27/31/26 28/32/26 3/27/26
f 28/32/27 29/33/27 3/27/27
f 29/33/28 30/34/28 3/27/28
f 30/34/29 31/35/29 3/27/29
f 31/35/30 32/36/30 3/27/30
f 2/37/31 1/38/31 33/39/31
f 4/40/31 2/37/31 33/39/31
f 5/41/31 4/40/31 33/39/31
f 6/42/31 5/41/31 33/39/31
f 7/43/31 6/42/31 33/39/31
f 8/44/31 7/43/31 33/39/31
f 9/45/31 8/44/31 33/39/31
f 10/46/31 9/45/31 33/39/31
f 11/47/31 10/46/31 33/39/31
f 12/48/31 11/47/31 33/39/31
f 13/49/31 12/48/31 33/39/31
f 14/50/31 13/49/31 33/39/31
f 15/51/31 14/50/31 33/39/31
f 16/52/31 15/51/31 33/39/31
f 17/53/31 16/52/31 33/39/31
f 18/54/31 17/53/31 33/39/31
f 19/55/31 18/54/31 33/39/31
f 20/56/31 19/55/31 33/39/31
f 21/57/31 20/56/31 33/39/31
f 22/58/31 21/57/31 33/39/31
f 23/59/31 22/58/31 33/39/31
f 24/60/31 23/59/31 33/39/31
f 25/61/31 24/60/31 33/39/31
f 26/62/31 25/61/31 33/39/31
f 27/63/31 26/62/31 33/39/31
f 28/64/31 27/63/31 33/39/31
f 29/65/31 28/64/31 33/39/31
f 30/66/31 29/65/31 33/39/31
f 31/67/31 30/66/31 33/39/31
f 32/68/31 31/67/31 33/39/31
f 32/36/32 33/69/32 3/27/32
f 33/70/33 1/1/33 3/3/33
f 34/71/34 35/72/34 36/73/34
f 36/73/35 35/72/35 37/74/35
f 37/74/36 35/72/36 38/75/36
f 38/75/37 35/72/37 39/76/37
f 39/76/38 35/72/38 40/77/38
f 40/77/39 35/72/39 41/78/39
f 41/79/40 35/80/40 42/81/40
f 42/81/41 35/80/41 43/82/41
f 43/82/42 35/80/42 44/83/42
f 44/83/43 35/80/43 45/84/43
f 45/84/44 35/80/44 46/85/44
f 46/85/45 35/80/45 47/86/45
f 47/86/46 35/80/46 48/87/46
f 48/87/47 35/80/47 49/88/47
f 49/88/48 35/80/48 50/89/48
f 50/89/49 35/80/49 51/90/49
f 51/91/50 35/92/50 52/93/50
f 52/93/51 35/92/51 53/94/51
f 53/94/52 35/92/52 54/95/52
f 54/95/53 35/92/53 55/96/53
f 55/96/54 35/92/54 56/97/54
f 56/97/55 35/92/55 57/98/55
f 57/98/56 35/92/56 58/99/56
f 58/99/57 35/92/57 59/100/57
f 59/100/58 35/92/58 60/101/58
f 60/101/59 35/92/59 61/102/59
f 61/102/60 35/92/60 62/103/60
f 62/104/61 35/72/61 63/105/61
f 63/105/62 35/72/62 64/106/62
f 64/106/63 35/72/63 65/107/63
f 66/108/64 34/109/64 36/110/64
f 65/111/64 66/108/64 36/110/64
f 64/112/64 65/111/64 36/110/64
f 63/113/64 64/112/64 36/110/64
f 62/114/64 63/113/64 36/110/64
f 61/115/64 62/114/64 36/110/64
f 60/116/64 61/115/64 36/110/64
f 59/117/64 60/116/64 36/110/64
f 58/118/64 59/117/64 36/110/64
f 57/119/64 58/118/64 36/110/64
f 56/120/64 57/119/64 36/110/64
f 55/121/64 56/120/64 36/110/64
f 54/122/64 55/121/64 36/110/64
f 53/123/64 54/122/64 36/110/64
f 52/124/64 53/123/64 36/110/64
f 51/125/64 52/124/64 36/110/64
f 50/126/64 51/125/64 36/110/64
f 49/127/64 50/126/64 36/110/64
f 48/128/64 49/127/64 36/110/64
f 47/129/64 48/128/64 36/110/64
f 46/130/64 47/129/64 36/110/64
f 45/131/64 46/130/64 36/110/64
f 44/132/64 45/131/64 36/110/64
f 43/133/64 44/132/64 36/110/64
f 42/134/64 43/133/64 36/110/64
f 41/135/64 42/134/64 36/110/64
f 40/136/64 41/135/64 36/110/64
f 39/137/64 40/136/64 36/110/64
f 38/138/64 39/137/64 36/110/64
f 37/139/64 38/138/64 36/110/64
f 65/107/65 35/72/65 66/140/65
f 66/140/66 35/72/66 34/71/66
s off
