# Blender v2.80 (sub 75) OBJ File: 'KayKit Character Exporter.blend'
# www.blender.org
mtllib character_witchArmLeft.mtl
o character_witchArmLeft_Cube.040
v 0.091408 0.727740 -0.000000
v 0.234473 0.677212 -0.000000
v 0.331595 0.589901 -0.000000
v 0.406120 0.479888 -0.000000
v 0.452968 0.362842 -0.000000
v 0.233858 0.677212 -0.003489
v 0.177754 0.677212 -0.045293
v 0.188301 0.694110 -0.037657
v 0.214371 0.677212 -0.033049
v 0.196963 0.677212 -0.042111
v 0.327670 0.589901 -0.022251
v 0.272080 0.589901 -0.064054
v 0.308334 0.589901 -0.051810
v 0.291093 0.589901 -0.060872
v 0.399656 0.479888 -0.036646
v 0.344868 0.479888 -0.078450
v 0.380554 0.479888 -0.066206
v 0.363573 0.479888 -0.075268
v 0.444907 0.362842 -0.045696
v 0.390794 0.362842 -0.087500
v 0.426004 0.362842 -0.075256
v 0.409242 0.362842 -0.084318
v 0.401918 0.156901 -0.045053
v 0.398201 0.199326 -0.088876
v 0.451698 0.198781 -0.047054
v 0.397126 0.169439 -0.075341
v 0.419367 0.160005 -0.045301
v 0.414438 0.171468 -0.073400
v 0.424688 0.174717 -0.070273
v 0.415932 0.199201 -0.085788
v 0.432326 0.199053 -0.076756
v 0.396883 0.183174 -0.085022
v 0.415132 0.182638 -0.081258
v 0.428569 0.183357 -0.073969
v 0.446307 0.182671 -0.046384
v 0.434954 0.169054 -0.045768
v 0.459998 0.198781 -0.000000
v 0.409865 0.156901 -0.000000
v 0.454027 0.182754 -0.000000
v 0.442402 0.169167 -0.000000
v 0.426895 0.160089 -0.000000
v 0.177754 0.677212 0.045293
v 0.233858 0.677212 0.003489
v 0.188301 0.694110 0.037657
v 0.196963 0.677212 0.042111
v 0.214371 0.677212 0.033049
v 0.272080 0.589901 0.064054
v 0.327671 0.589901 0.022250
v 0.291093 0.589901 0.060872
v 0.308334 0.589901 0.051810
v 0.344868 0.479888 0.078450
v 0.399656 0.479888 0.036646
v 0.363574 0.479888 0.075268
v 0.380554 0.479888 0.066206
v 0.390794 0.362842 0.087500
v 0.444907 0.362842 0.045696
v 0.409242 0.362842 0.084318
v 0.426004 0.362842 0.075256
v 0.401918 0.156901 0.045052
v 0.451698 0.198781 0.047054
v 0.398201 0.199326 0.088876
v 0.419366 0.160005 0.045301
v 0.434954 0.169054 0.045768
v 0.424688 0.174717 0.070273
v 0.432326 0.199053 0.076756
v 0.446307 0.182671 0.046384
v 0.428569 0.183357 0.073969
v 0.396883 0.183174 0.085022
v 0.397126 0.169439 0.075341
v 0.415932 0.199201 0.085788
v 0.415132 0.182638 0.081258
v 0.414438 0.171468 0.073400
v 0.105597 0.719915 -0.025997
v 0.088711 0.726236 -0.016182
v 0.096711 0.722828 -0.023748
v 0.090530 0.725142 -0.020156
v 0.177422 0.677212 -0.045293
v 0.169037 0.677212 -0.037765
v 0.173230 0.677212 -0.044285
v 0.170160 0.677212 -0.041529
v 0.247220 0.589901 -0.064054
v 0.239054 0.589901 -0.056513
v 0.243137 0.589901 -0.063044
v 0.240148 0.589901 -0.060284
v 0.300750 0.479888 -0.078450
v 0.292781 0.479888 -0.070881
v 0.296765 0.479888 -0.077436
v 0.293848 0.479888 -0.074666
v 0.334365 0.362842 -0.087500
v 0.326554 0.362842 -0.079880
v 0.330460 0.362842 -0.086479
v 0.327601 0.362842 -0.083690
v 0.331857 0.163963 -0.000000
v 0.341015 0.156901 -0.000000
v 0.333703 0.160432 -0.000000
v 0.337055 0.157847 -0.000000
v 0.088711 0.726236 0.016182
v 0.105597 0.719915 0.025997
v 0.090530 0.725142 0.020155
v 0.096711 0.722828 0.023748
v 0.169037 0.677212 0.037765
v 0.177422 0.677212 0.045293
v 0.170160 0.677212 0.041529
v 0.173230 0.677212 0.044285
v 0.239054 0.589901 0.056513
v 0.247220 0.589901 0.064054
v 0.240148 0.589901 0.060284
v 0.243137 0.589901 0.063044
v 0.292781 0.479888 0.070881
v 0.300750 0.479888 0.078450
v 0.293848 0.479888 0.074666
v 0.296765 0.479888 0.077436
v 0.326554 0.362842 0.079880
v 0.334365 0.362842 0.087500
v 0.327601 0.362842 0.083690
v 0.330460 0.362842 0.086479
v 0.331688 0.199326 -0.081066
v 0.339293 0.199326 -0.088876
v 0.332707 0.199326 -0.084971
v 0.335490 0.199326 -0.087829
v 0.330994 0.164110 -0.054013
v 0.339617 0.156901 -0.045053
v 0.332569 0.160505 -0.049533
v 0.335726 0.157867 -0.046253
v 0.337690 0.183100 -0.085107
v 0.330149 0.183090 -0.077154
v 0.333920 0.183095 -0.084046
v 0.331159 0.183092 -0.081134
v 0.337194 0.169339 -0.075456
v 0.329695 0.169327 -0.067293
v 0.333444 0.169333 -0.074368
v 0.330700 0.169328 -0.071380
v 0.330994 0.164110 0.054013
v 0.339617 0.156901 0.045052
v 0.332569 0.160505 0.049533
v 0.335726 0.157867 0.046253
v 0.339292 0.199326 0.088876
v 0.331688 0.199326 0.081066
v 0.335490 0.199326 0.087829
v 0.332707 0.199326 0.084971
v 0.337194 0.169339 0.075456
v 0.329695 0.169327 0.067293
v 0.333444 0.169333 0.074368
v 0.330700 0.169328 0.071380
v 0.337690 0.183100 0.085107
v 0.330149 0.183090 0.077154
v 0.333920 0.183095 0.084046
v 0.331159 0.183092 0.081134
v 0.499663 0.255673 0.000000
v 0.468346 0.248513 -0.000000
v 0.488937 0.255674 -0.058984
v 0.459761 0.248512 -0.048667
v 0.406056 0.248508 -0.090470
v 0.421828 0.255681 -0.109633
v 0.440933 0.248515 -0.078236
v 0.465466 0.255676 -0.094799
v 0.424314 0.248511 -0.087295
v 0.444686 0.255678 -0.105778
v 0.421828 0.255681 0.109633
v 0.406056 0.248508 0.090470
v 0.459761 0.248512 0.048667
v 0.488937 0.255674 0.058984
v 0.424314 0.248511 0.087295
v 0.444686 0.255678 0.105778
v 0.440933 0.248515 0.078236
v 0.465466 0.255676 0.094799
v 0.345987 0.255682 -0.109633
v 0.345326 0.248506 -0.090470
v 0.337640 0.248506 -0.082766
v 0.336374 0.255681 -0.100311
v 0.341483 0.248505 -0.089438
v 0.341180 0.255682 -0.108384
v 0.338670 0.248505 -0.086618
v 0.337662 0.255682 -0.104972
v 0.336374 0.255681 0.100311
v 0.337640 0.248506 0.082766
v 0.345326 0.248506 0.090470
v 0.345987 0.255682 0.109633
v 0.338670 0.248505 0.086618
v 0.337662 0.255682 0.104972
v 0.341483 0.248505 0.089438
v 0.341180 0.255682 0.108384
vt 0.522416 0.502696
vt 0.541667 0.502514
vt 0.541667 0.584998
vt 0.521760 0.583333
vt 0.500000 0.583333
vt 0.500000 0.666667
vt 0.480537 0.666667
vt 0.478240 0.583333
vt 0.500000 0.750000
vt 0.485527 0.750000
vt 0.458333 0.666667
vt 0.458333 0.583333
vt 0.458333 0.583333
vt 0.458333 0.666667
vt 0.458334 0.906935
vt 0.458333 0.833333
vt 0.458333 0.833333
vt 0.458333 0.862459
vt 0.500000 0.833333
vt 0.496791 0.833333
vt 0.519464 0.666667
vt 0.514474 0.750000
vt 0.537646 0.666667
vt 0.462354 0.666667
vt 0.463239 0.750000
vt 0.536761 0.750000
vt 0.465259 0.833333
vt 0.534741 0.833333
vt 0.500000 0.502696
vt 0.477584 0.502696
vt 0.541667 0.583372
vt 0.541667 0.502699
vt 0.539894 0.502710
vt 0.539850 0.583194
vt 0.538123 0.502701
vt 0.461877 0.502701
vt 0.461962 0.583333
vt 0.538038 0.583333
vt 0.458333 0.750000
vt 0.458333 0.750000
vt 0.500000 0.916667
vt 0.471242 0.916667
vt 0.464598 0.914721
vt 0.458864 0.912298
vt 0.458333 0.502701
vt 0.458333 0.502701
vt 0.541667 0.833333
vt 0.541667 0.906935
vt 0.541667 0.862459
vt 0.541667 0.833333
vt 0.503210 0.833333
vt 0.532059 0.840013
vt 0.541552 0.847412
vt 0.545932 0.856140
vt 0.458333 0.835734
vt 0.458333 0.841529
vt 0.458333 0.833957
vt 0.541667 0.753358
vt 0.541667 0.833333
vt 0.541667 0.669098
vt 0.541667 0.750467
vt 0.541667 0.833957
vt 0.541667 0.750000
vt 0.541667 0.666909
vt 0.541667 0.666667
vt 0.541667 0.583454
vt 0.541667 0.583333
vt 0.458333 0.753358
vt 0.458333 0.833333
vt 0.458333 0.502692
vt 0.458333 0.583454
vt 0.541667 0.502692
vt 0.541667 0.502701
vt 0.458333 0.750467
vt 0.458333 0.669098
vt 0.458333 0.666909
vt 0.458333 0.584998
vt 0.458333 0.502514
vt 0.541667 0.583333
vt 0.541667 0.502701
vt 0.541667 0.666667
vt 0.541667 0.750000
vt 0.541137 0.912298
vt 0.535402 0.914721
vt 0.528758 0.916667
vt 0.541667 0.833758
vt 0.538153 0.832650
vt 0.541667 0.750148
vt 0.539192 0.749582
vt 0.541667 0.666744
vt 0.539647 0.666406
vt 0.461847 0.832650
vt 0.458333 0.833758
vt 0.460809 0.749582
vt 0.458333 0.750148
vt 0.460353 0.666406
vt 0.458333 0.666744
vt 0.460151 0.583194
vt 0.458333 0.583372
vt 0.460106 0.502710
vt 0.458333 0.502699
vt 0.522413 0.496867
vt 0.541667 0.496505
vt 0.541667 0.496848
vt 0.541667 0.496863
vt 0.458333 0.496863
vt 0.458333 0.496848
vt 0.458333 0.496505
vt 0.477587 0.496867
vt 0.500000 0.496868
vt 0.541667 0.496861
vt 0.541667 0.496849
vt 0.539891 0.496880
vt 0.538118 0.496861
vt 0.461882 0.496861
vt 0.460109 0.496880
vt 0.458333 0.496849
vt 0.458333 0.496861
vt 0.478547 0.416667
vt 0.500000 0.416667
vt 0.500000 0.416667
vt 0.478546 0.416667
vt 0.522063 0.453330
vt 0.500000 0.453330
vt 0.477937 0.453330
vt 0.458333 0.451570
vt 0.538006 0.453807
vt 0.537768 0.439503
vt 0.462232 0.439503
vt 0.461995 0.453807
vt 0.521454 0.416667
vt 0.541667 0.416667
vt 0.541667 0.416667
vt 0.521572 0.416667
vt 0.539364 0.420977
vt 0.522604 0.416667
vt 0.522103 0.438838
vt 0.541667 0.437599
vt 0.541667 0.451570
vt 0.541667 0.453807
vt 0.541667 0.453610
vt 0.541667 0.438997
vt 0.541667 0.439573
vt 0.478428 0.416667
vt 0.458333 0.416667
vt 0.458333 0.416667
vt 0.477396 0.416667
vt 0.460636 0.420977
vt 0.458333 0.437599
vt 0.477897 0.438838
vt 0.458333 0.453807
vt 0.458333 0.453807
vt 0.458333 0.439510
vt 0.458333 0.439573
vt 0.458333 0.438997
vt 0.458333 0.453610
vt 0.458333 0.416667
vt 0.537152 0.416667
vt 0.462848 0.416667
vt 0.541667 0.416667
vt 0.521454 0.416667
vt 0.541667 0.453807
vt 0.500000 0.416667
vt 0.500000 0.416667
vt 0.500000 0.438845
vt 0.528394 0.416667
vt 0.500000 0.416667
vt 0.471606 0.416667
vt 0.541667 0.439510
vt 0.541667 0.453690
vt 0.539831 0.453902
vt 0.460169 0.453902
vt 0.458333 0.453690
vt 0.541667 0.438985
vt 0.539706 0.439574
vt 0.541355 0.416239
vt 0.539372 0.416696
vt 0.522194 0.416667
vt 0.524864 0.416667
vt 0.458645 0.416238
vt 0.477806 0.416667
vt 0.460628 0.416696
vt 0.475136 0.416667
vt 0.458333 0.438985
vt 0.460294 0.439574
vt 0.500000 0.416667
vt 0.500000 0.416667
vn 0.8565 0.3931 -0.3346
vn 0.6447 0.3609 -0.6738
vn 0.6407 0.3347 -0.6910
vn 0.8618 0.3785 -0.3376
vn 0.9227 0.3856 -0.0000
vn 0.8858 0.4641 0.0000
vn 0.8299 0.4530 0.3256
vn 0.8618 0.3785 0.3376
vn 0.7595 0.6505 0.0000
vn 0.7152 0.6384 0.2845
vn -0.1179 0.0606 0.9912
vn -0.1197 0.1177 0.9858
vn 0.0859 0.1696 0.9818
vn 0.0876 0.1511 0.9846
vn -0.2141 0.0795 0.9736
vn -0.1075 0.2155 0.9706
vn 0.0444 0.3172 0.9473
vn 0.2901 0.7561 0.5866
vn 0.5203 0.8540 0.0000
vn 0.5178 0.8347 0.1874
vn 0.8299 0.4530 -0.3256
vn 0.7152 0.6384 -0.2845
vn -0.9287 -0.3465 -0.1320
vn -0.9287 -0.3465 0.1320
vn -0.8449 -0.5203 0.1242
vn -0.8449 -0.5203 -0.1242
vn -0.6604 -0.7474 0.0728
vn -0.6604 -0.7474 -0.0728
vn 0.9172 0.3984 0.0000
vn 0.8565 0.3931 0.3346
vn -0.4824 0.0320 -0.8753
vn -0.4613 0.1332 -0.8772
vn -0.7399 -0.4480 -0.5019
vn -0.8557 -0.0942 -0.5088
vn -0.9292 -0.3270 -0.1720
vn -0.9292 -0.3270 0.1720
vn -0.9771 -0.1687 0.1293
vn -0.9771 -0.1687 -0.1293
vn -0.1136 0.1046 0.9880
vn 0.0841 0.2451 0.9658
vn 0.3187 0.9479 -0.0000
vn 0.3185 0.9474 0.0311
vn -0.1147 0.1890 0.9753
vn 0.0953 0.2279 0.9690
vn -0.1075 0.2155 -0.9706
vn -0.2141 0.0795 -0.9736
vn 0.2901 0.7561 -0.5866
vn 0.0444 0.3172 -0.9473
vn 0.5178 0.8347 -0.1874
vn 0.4999 0.6653 -0.5545
vn 0.2698 0.4112 -0.8707
vn 0.4999 0.6653 0.5545
vn 0.2698 0.4112 0.8707
vn 0.5503 0.5634 -0.6162
vn 0.6243 0.3887 -0.6776
vn 0.2927 0.4041 -0.8666
vn 0.0841 0.2451 -0.9658
vn 0.3168 0.2621 -0.9116
vn 0.0876 0.1511 -0.9846
vn 0.3177 0.2438 -0.9163
vn 0.0859 0.1696 -0.9818
vn 0.5503 0.5634 0.6162
vn 0.3304 0.2896 0.8983
vn 0.3177 0.2438 0.9163
vn 0.3304 0.2895 -0.8983
vn 0.0953 0.2279 -0.9690
vn 0.2927 0.4041 0.8666
vn 0.6243 0.3887 0.6776
vn 0.3168 0.2621 0.9116
vn 0.6407 0.3347 0.6910
vn 0.6447 0.3609 0.6738
vn -0.1197 0.1177 -0.9858
vn -0.1147 0.1890 -0.9753
vn -0.1179 0.0606 -0.9912
vn -0.1136 0.1046 -0.9880
vn 0.3185 0.9474 -0.0311
vn -0.4280 -0.1797 -0.8857
vn -0.2307 0.0507 -0.9717
vn -0.5342 -0.6489 -0.5418
vn -0.6479 -0.6424 -0.4094
vn -0.5403 -0.8294 -0.1420
vn -0.5302 -0.8474 -0.0280
vn -0.4517 -0.1242 -0.8835
vn -0.7663 -0.4034 -0.5000
vn -0.4679 -0.0838 -0.8798
vn -0.8181 -0.2627 -0.5115
vn -0.5302 -0.8474 0.0280
vn -0.6479 -0.6424 0.4094
vn -0.5403 -0.8294 0.1420
vn -0.4280 -0.1797 0.8857
vn -0.5342 -0.6489 0.5419
vn -0.2307 0.0507 0.9717
vn -0.7663 -0.4034 0.5000
vn -0.4517 -0.1242 0.8835
vn -0.8181 -0.2627 0.5115
vn -0.4679 -0.0838 0.8798
vn -0.8557 -0.0942 0.5088
vn -0.4824 0.0320 0.8753
vn -0.7399 -0.4480 0.5019
vn -0.4613 0.1332 0.8772
vn -0.5283 -0.8491 0.0000
vn 0.2098 -0.9741 -0.0843
vn 0.1566 -0.9698 -0.1871
vn 0.1671 -0.9710 -0.1713
vn 0.2104 -0.9741 -0.0823
vn 0.0793 -0.9558 -0.2832
vn 0.1018 -0.9604 -0.2592
vn 0.0173 -0.9411 -0.3377
vn 0.0369 -0.9457 -0.3230
vn 0.0173 -0.9411 0.3377
vn 0.0793 -0.9558 0.2832
vn 0.1018 -0.9604 0.2592
vn 0.0369 -0.9457 0.3230
vn 0.1566 -0.9698 0.1871
vn 0.1671 -0.9710 0.1713
vn 0.2098 -0.9741 0.0843
vn 0.2104 -0.9741 0.0823
vn 0.2239 -0.9746 0.0000
vn -0.0507 -0.9348 -0.3516
vn -0.2403 -0.9092 -0.3401
vn -0.1699 -0.9225 -0.3467
vn -0.0416 -0.9353 -0.3515
vn -0.6589 -0.7123 -0.2420
vn -0.9941 -0.0699 -0.0833
vn -0.9941 -0.0699 0.0833
vn -0.6589 -0.7123 0.2420
vn -0.2403 -0.9092 0.3401
vn -0.1699 -0.9225 0.3467
vn -0.0507 -0.9348 0.3516
vn -0.0416 -0.9353 0.3515
vn -0.0946 -0.9809 0.1701
vn -0.1173 -0.9931 0.0000
vn 0.0999 -0.9950 0.0000
vn 0.0830 -0.9757 0.2030
vn 0.9049 -0.2384 -0.3526
vn 0.9198 -0.1628 -0.3571
vn 0.9862 -0.1655 0.0000
vn 0.9684 -0.2495 0.0000
vn 0.9198 -0.1628 0.3571
vn 0.9049 -0.2384 0.3526
vn 0.6861 -0.1381 0.7142
vn 0.6623 -0.2062 0.7203
vn -0.9871 0.0870 -0.1346
vn -0.9904 -0.0094 -0.1379
vn -0.9904 -0.0094 0.1379
vn -0.9871 0.0870 0.1346
vn 0.0830 -0.9757 -0.2030
vn 0.0762 -0.7755 -0.6267
vn 0.2831 -0.7389 -0.6115
vn 0.3184 -0.9210 -0.2245
vn 0.5235 -0.6580 -0.5413
vn 0.6170 -0.7419 -0.2625
vn 0.8264 -0.4646 -0.3181
vn 0.6195 -0.4124 -0.6679
vn 0.6623 -0.2062 -0.7203
vn 0.0852 -0.1438 -0.9859
vn 0.3193 -0.1703 -0.9322
vn 0.3064 -0.4113 -0.8585
vn 0.0818 -0.4099 -0.9084
vn 0.3184 -0.9210 0.2245
vn 0.2831 -0.7389 0.6115
vn 0.0762 -0.7755 0.6267
vn 0.6170 -0.7419 0.2625
vn 0.5235 -0.6580 0.5413
vn 0.6195 -0.4124 0.6679
vn 0.8264 -0.4646 0.3181
vn 0.0852 -0.1438 0.9859
vn -0.1329 -0.1145 0.9845
vn -0.1271 -0.3923 0.9110
vn 0.0818 -0.4099 0.9084
vn 0.3064 -0.4113 0.8585
vn 0.3193 -0.1703 0.9322
vn -0.0931 -0.7665 0.6355
vn -0.9492 -0.2940 -0.1124
vn -0.9492 -0.2940 0.1124
vn -0.0931 -0.7665 -0.6355
vn -0.0946 -0.9809 -0.1701
vn 0.6861 -0.1381 -0.7142
vn 0.3433 -0.0873 -0.9352
vn 0.0942 -0.0473 -0.9944
vn -0.1329 -0.1145 -0.9845
vn -0.1219 -0.0173 -0.9924
vn 0.3620 -0.9322 0.0000
vn 0.6521 -0.7582 0.0000
vn 0.8708 -0.4916 0.0000
vn 0.0942 -0.0473 0.9944
vn 0.3433 -0.0873 0.9352
vn -0.1219 -0.0173 0.9924
vn -0.8901 -0.4501 -0.0718
vn -0.9310 -0.3650 0.0000
vn -0.8901 -0.4501 0.0718
vn -0.1271 -0.3923 -0.9110
vn -0.5029 -0.0593 -0.8623
vn -0.4869 0.0307 -0.8729
vn -0.8644 0.0240 -0.5022
vn -0.8580 0.0872 -0.5062
vn -0.8644 0.0240 0.5022
vn -0.8580 0.0872 0.5062
vn -0.5029 -0.0593 0.8623
vn -0.4869 0.0307 0.8729
vn -0.4865 -0.3256 -0.8107
vn -0.8536 -0.1780 -0.4896
vn -0.3887 -0.7111 -0.5858
vn -0.7459 -0.5535 -0.3706
vn -0.3719 -0.9156 -0.1529
vn -0.6880 -0.7119 -0.1411
vn -0.3887 -0.7111 0.5858
vn -0.3719 -0.9156 0.1529
vn -0.7458 -0.5535 0.3706
vn -0.6880 -0.7119 0.1411
vn -0.4865 -0.3256 0.8107
vn -0.8536 -0.1780 0.4896
vn -0.4417 -0.8972 -0.0000
vn -0.7867 -0.6173 -0.0000
usemtl Purple
s 2
f 151/1/1 156/2/2 21/3/3 19/4/4
s 3
f 5/5/5 4/6/6 52/7/7 56/8/8
s 4
f 4/6/6 3/9/9 48/10/10 52/7/7
s 5
f 110/11/11 114/12/12 55/13/13 51/14/14
s 6
f 98/15/15 102/16/16 42/17/17 44/18/18
s 7
f 3/9/9 2/19/19 43/20/20 48/10/10
s 9
f 19/4/4 15/21/21 4/6/6 5/5/5
s 10
f 15/21/21 11/22/22 3/9/9 4/6/6
s 11
f 86/23/23 109/24/24 105/25/25 82/26/26
s 12
f 82/26/26 105/25/25 101/27/27 78/28/28
s 13
f 149/29/29 5/5/5 56/8/8 162/30/30
s 14
f 91/31/31 172/32/32 174/33/33 92/34/34
s 15
f 170/35/35 175/36/36 113/37/37 90/38/38
s 16
f 90/38/38 113/37/37 109/24/24 86/23/23
s 18
f 106/39/39 110/11/11 51/14/14 47/40/40
s 19
f 102/16/16 106/39/39 47/40/40 42/17/17
s 20
f 2/19/19 1/41/41 97/42/42 99/43/42 100/44/42 98/15/42 44/18/18 43/20/20
s 22
f 114/12/12 178/45/43 159/46/44 55/13/13
s 24
f 77/47/45 73/48/46 8/49/47 7/50/48
s 25
f 11/22/22 6/51/49 2/19/19 3/9/9
s 27
f 9/52/50 10/53/51 8/49/47
s 28
f 10/53/51 7/54/48 8/49/47
s 36
f 46/55/52 43/56/20 44/18/18
s 37
f 42/17/17 45/57/53 44/18/18
s 38
f 45/57/53 46/55/52 44/18/18
s 50
f 11/22/22 13/58/54 9/59/50 6/51/49
s 53
f 15/21/21 17/60/55 13/58/54 11/22/22
s 54
f 9/59/50 13/58/54 14/61/56 10/62/51
s 55
f 10/62/51 14/61/56 12/63/57 7/50/48
s 56
f 19/4/4 21/3/3 17/60/55 15/21/21
s 57
f 13/58/54 17/60/55 18/64/58 14/61/56
s 58
f 14/61/56 18/64/58 16/65/59 12/63/57
s 60
f 17/60/55 21/3/3 22/66/60 18/64/58
s 61
f 18/64/58 22/66/60 20/67/61 16/65/59
s 65
f 50/68/62 48/10/10 43/20/20 46/69/52
s 66
f 55/13/13 159/46/44 164/70/63 57/71/64
s 67
f 22/66/60 158/72/65 154/73/66 20/67/61
s 72
f 42/17/17 47/40/40 49/74/67 45/57/53
s 73
f 45/57/53 49/74/67 50/68/62 46/69/52
s 74
f 54/75/68 52/7/7 48/10/10 50/68/62
s 75
f 47/40/40 51/14/14 53/76/69 49/74/67
s 76
f 49/74/67 53/76/69 54/75/68 50/68/62
s 77
f 58/77/70 56/8/8 52/7/7 54/75/68
s 78
f 51/14/14 55/13/13 57/71/64 53/76/69
s 79
f 53/76/69 57/71/64 58/77/70 54/75/68
s 80
f 57/71/64 164/70/63 166/78/71 58/77/70
s 83
f 166/78/71 162/30/30 56/8/8 58/77/70
s 85
f 89/79/72 167/80/73 172/32/32 91/31/31
s 91
f 6/51/49 9/52/50 8/49/47
s 92
f 89/79/72 85/81/74 16/65/59 20/67/61
s 93
f 21/3/3 156/2/2 158/72/65 22/66/60
s 94
f 167/80/73 89/79/72 20/67/61 154/73/66
s 98
f 85/81/74 81/82/75 12/63/57 16/65/59
s 99
f 81/82/75 77/47/45 7/50/48 12/63/57
s 100
f 6/51/49 8/49/47 73/48/76 75/83/76 76/84/76 74/85/76 1/41/41 2/19/19
s 101
f 73/48/46 77/47/45 79/86/77 75/83/78
s 102
f 75/83/79 79/86/77 80/87/80 76/84/81
s 103
f 76/84/81 80/87/80 78/28/28 74/85/82
s 104
f 77/47/45 81/82/75 83/88/83 79/86/77
s 105
f 79/86/77 83/88/83 84/89/84 80/87/80
s 106
f 80/87/80 84/89/84 82/26/26 78/28/28
s 107
f 81/82/75 85/81/74 87/90/85 83/88/83
s 108
f 83/88/83 87/90/85 88/91/86 84/89/84
s 109
f 84/89/84 88/91/86 86/23/23 82/26/26
s 110
f 85/81/74 89/79/72 91/31/31 87/90/85
s 111
f 87/90/85 91/31/31 92/34/34 88/91/86
s 112
f 88/91/86 92/34/34 90/38/38 86/23/23
s 116
f 97/42/87 101/27/27 103/92/88 99/43/89
s 117
f 99/43/89 103/92/88 104/93/90 100/44/91
s 118
f 100/44/92 104/93/90 102/16/16 98/15/15
s 119
f 101/27/27 105/25/25 107/94/93 103/92/88
s 120
f 103/92/88 107/94/93 108/95/94 104/93/90
s 121
f 104/93/90 108/95/94 106/39/39 102/16/16
s 122
f 105/25/25 109/24/24 111/96/95 107/94/93
s 123
f 107/94/93 111/96/95 112/97/96 108/95/94
s 124
f 108/95/94 112/97/96 110/11/11 106/39/39
s 125
f 109/24/24 113/37/37 115/98/97 111/96/95
s 126
f 111/96/95 115/98/97 116/99/98 112/97/96
s 127
f 112/97/96 116/99/98 114/12/12 110/11/11
s 130
f 115/98/97 180/100/99 182/101/100 116/99/98
s 149
f 92/34/34 174/33/33 170/35/35 90/38/38
s 150
f 113/37/37 175/36/36 180/100/99 115/98/97
s 155
f 116/99/98 182/101/100 178/45/43 114/12/12
s 160
f 78/28/28 101/27/27 97/42/87 1/41/101 74/85/82
s 161
f 152/102/102 155/103/103 156/2/104 151/1/105
s 162
f 155/103/103 157/104/106 158/72/107 156/2/104
s 163
f 157/104/106 153/105/108 154/73/109 158/72/107
s 164
f 160/106/110 163/107/111 164/70/112 159/46/113
s 165
f 163/107/111 165/108/114 166/78/115 164/70/112
s 166
f 165/108/114 161/109/116 162/30/117 166/78/115
s 167
f 150/110/118 152/102/102 151/1/105 149/29/118
s 168
f 149/29/118 162/30/117 161/109/116 150/110/118
s 169
f 168/111/119 171/112/120 172/32/121 167/80/122
s 170
f 171/112/120 173/113/123 174/33/33 172/32/121
s 171
f 173/113/123 169/114/124 170/35/35 174/33/33
s 172
f 176/115/125 179/116/126 180/100/99 175/36/36
s 173
f 179/116/126 181/117/127 182/101/128 180/100/99
s 174
f 181/117/127 177/118/129 178/45/130 182/101/128
s 175
f 169/114/124 176/115/125 175/36/36 170/35/35
s 176
f 153/105/108 168/111/119 167/80/122 154/73/109
s 177
f 177/118/129 160/106/110 159/46/113 178/45/130
s 178
f 151/1/1 19/4/4 5/5/5 149/29/29
usemtl GreenLight
s 1
f 134/119/131 94/120/132 38/121/133 59/122/134
s 8
f 25/123/135 152/102/136 150/110/137 37/124/138
s 17
f 37/124/138 150/110/137 161/109/139 60/125/140
s 21
f 60/125/140 161/109/139 165/108/141 65/126/142
s 23
f 117/127/143 126/128/144 146/129/145 138/130/146
s 26
f 23/131/147 26/132/148 28/133/149 27/134/150
s 29
f 27/134/150 28/133/149 29/135/151 36/136/152
s 30
f 35/137/153 34/138/154 31/139/155 25/123/135
s 31
f 24/140/156 30/141/157 33/142/158 32/143/159
s 32
f 30/141/157 31/139/155 34/138/154 33/142/158
s 33
f 32/143/159 33/142/158 28/133/149 26/132/148
s 34
f 33/142/158 34/138/154 29/135/151 28/133/149
s 35
f 36/136/152 29/135/151 34/138/154 35/137/153
s 39
f 62/144/160 72/145/161 69/146/162 59/122/134
s 40
f 63/147/163 64/148/164 72/145/161 62/144/160
s 41
f 60/125/140 65/126/142 67/149/165 66/150/166
s 42
f 66/150/166 67/149/165 64/148/164 63/147/163
s 43
f 61/151/167 137/152/168 145/153/169 68/154/170
s 44
f 61/151/167 68/154/170 71/155/171 70/156/172
s 45
f 68/154/170 69/146/162 72/145/161 71/155/171
s 46
f 70/156/172 71/155/171 67/149/165 65/126/142
s 47
f 71/155/171 72/145/161 64/148/164 67/149/165
s 48
f 68/154/170 145/153/169 141/157/173 69/146/162
s 49
f 126/128/144 130/158/174 142/159/175 146/129/145
s 51
f 134/119/131 59/122/134 69/146/162 141/157/173
s 52
f 129/160/176 26/132/148 23/131/147 122/161/177
s 59
f 25/123/135 31/139/155 155/103/178 152/102/136
s 62
f 157/104/179 30/141/157 24/140/156 153/105/180
s 63
f 155/103/178 31/139/155 30/141/157 157/104/179
s 64
f 118/162/181 168/111/182 153/105/180 24/140/156
s 68
f 38/121/133 23/131/147 27/134/150 41/163/183
s 69
f 41/163/183 27/134/150 36/136/152 40/164/184
s 70
f 40/164/184 36/136/152 35/137/153 39/165/185
s 71
f 39/165/185 35/137/153 25/123/135 37/124/138
s 81
f 160/106/186 61/151/167 70/156/172 163/107/187
s 82
f 163/107/187 70/156/172 65/126/142 165/108/141
s 84
f 177/118/188 137/152/168 61/151/167 160/106/186
s 86
f 59/122/134 38/121/133 41/163/183 62/144/160
s 87
f 62/144/160 41/163/183 40/164/184 63/147/163
s 88
f 63/147/163 40/164/184 39/165/185 66/150/166
s 89
f 66/150/166 39/165/185 37/124/138 60/125/140
s 90
f 130/158/174 121/166/189 93/167/190 133/168/191 142/159/175
s 95
f 32/143/159 125/169/192 118/162/181 24/140/156
s 96
f 26/132/148 129/160/176 125/169/192 32/143/159
s 97
f 94/120/132 122/161/177 23/131/147 38/121/133
s 113
f 120/170/193 171/112/194 168/111/182 118/162/181
s 114
f 119/171/195 173/113/196 171/112/194 120/170/193
s 115
f 169/114/124 117/127/143 138/130/146 176/115/125
s 128
f 140/172/197 179/116/198 176/115/125 138/130/146
s 129
f 139/173/199 181/117/200 179/116/198 140/172/197
s 131
f 118/162/181 125/169/192 127/174/201 120/170/193
s 132
f 120/170/193 127/174/201 128/175/202 119/171/195
s 133
f 119/171/195 128/175/202 126/128/144 117/127/143
s 134
f 125/169/192 129/160/176 131/176/203 127/174/201
s 135
f 127/174/201 131/176/203 132/177/204 128/175/202
s 136
f 128/175/202 132/177/204 130/158/174 126/128/144
s 137
f 129/160/176 122/161/177 124/178/205 131/176/203
s 138
f 131/176/203 124/178/205 123/179/206 132/177/204
s 139
f 132/177/204 123/179/206 121/166/189 130/158/174
s 140
f 134/119/131 141/157/173 143/180/207 136/181/208
s 141
f 136/181/208 143/180/207 144/182/209 135/183/210
s 142
f 135/183/210 144/182/209 142/159/175 133/168/191
s 143
f 141/157/173 145/153/169 147/184/211 143/180/207
s 144
f 143/180/207 147/184/211 148/185/212 144/182/209
s 145
f 144/182/209 148/185/212 146/129/145 142/159/175
s 146
f 145/153/169 137/152/168 139/173/199 147/184/211
s 147
f 147/184/211 139/173/199 140/172/197 148/185/212
s 148
f 148/185/212 140/172/197 138/130/146 146/129/145
s 151
f 117/127/143 169/114/124 173/113/196 119/171/195
s 152
f 122/161/177 94/120/132 96/186/213 124/178/205
s 153
f 124/178/205 96/186/213 95/187/214 123/179/206
s 154
f 123/179/206 95/187/214 93/167/190 121/166/189
s 156
f 137/152/168 177/118/188 181/117/200 139/173/199
s 157
f 94/120/132 134/119/131 136/181/208 96/186/213
s 158
f 96/186/213 136/181/208 135/183/210 95/187/214
s 159
f 95/187/214 135/183/210 133/168/191 93/167/190
