# Blender 4.2.1 LTS
# www.blender.org
mtllib estraCalabazo.mtl
o calabazoCalabesta
v -0.000000 1.560863 -1.366164
v -0.000000 1.547321 -1.368637
v -0.000000 1.533863 -1.365740
v -0.000000 1.522538 -1.357913
v 0.000000 1.515070 -1.346348
v 0.000000 1.512597 -1.332806
v 0.000000 1.515494 -1.319348
v 0.000000 1.523321 -1.308023
v 0.000000 1.534886 -1.300555
v 0.000000 1.548428 -1.298082
v 0.000000 1.561886 -1.300979
v 0.000000 1.573211 -1.308806
v -0.000000 1.580678 -1.320371
v -0.000000 1.583152 -1.333913
v -0.000000 1.580255 -1.347371
v -0.000000 1.572428 -1.358696
v -0.353995 1.231285 -1.504855
v -0.365470 1.218503 -1.499089
v -0.373138 1.206893 -1.487483
v -0.375830 1.198221 -1.471803
v -0.373138 1.193808 -1.454437
v -0.365470 1.194326 -1.438028
v -0.353995 1.199697 -1.425075
v -0.340459 1.209101 -1.417550
v -0.326923 1.221109 -1.416597
v -0.315448 1.233891 -1.422363
v -0.307781 1.245501 -1.433969
v -0.305088 1.254173 -1.449649
v -0.307781 1.258586 -1.467015
v -0.315448 1.258068 -1.483424
v -0.326923 1.252697 -1.496377
v -0.340459 1.243293 -1.503903
v -0.306516 1.406824 -1.427155
v -0.295790 1.398211 -1.427676
v -0.286696 1.388932 -1.423125
v -0.280620 1.380399 -1.414192
v -0.278487 1.373912 -1.402239
v -0.280620 1.370458 -1.389085
v -0.286696 1.370563 -1.376733
v -0.295790 1.374211 -1.367062
v -0.306516 1.380846 -1.361547
v -0.317242 1.389459 -1.361025
v -0.326336 1.398739 -1.365577
v -0.332412 1.407271 -1.374509
v -0.334545 1.413758 -1.386462
v -0.332412 1.417212 -1.399616
v -0.326336 1.417107 -1.411969
v -0.317242 1.413459 -1.421639
v -0.167136 1.530489 -1.375301
v -0.172375 1.537136 -1.364444
v -0.175875 1.539245 -1.351298
v -0.177104 1.536495 -1.337865
v -0.175875 1.529304 -1.326191
v -0.172375 1.518767 -1.318052
v -0.167136 1.506489 -1.314687
v -0.160957 1.494339 -1.316610
v -0.154778 1.484165 -1.323526
v -0.149540 1.477518 -1.334384
v -0.146040 1.475409 -1.347530
v -0.144811 1.478160 -1.360963
v -0.146040 1.485350 -1.372637
v -0.149540 1.495887 -1.380776
v -0.154778 1.508165 -1.384140
v -0.160957 1.520316 -1.382218
v 0.353995 1.231285 -1.504855
v 0.365470 1.218503 -1.499089
v 0.373138 1.206893 -1.487483
v 0.375830 1.198221 -1.471803
v 0.373138 1.193808 -1.454437
v 0.365470 1.194326 -1.438028
v 0.353995 1.199697 -1.425075
v 0.340459 1.209101 -1.417550
v 0.326923 1.221109 -1.416597
v 0.315448 1.233891 -1.422363
v 0.307781 1.245501 -1.433969
v 0.305088 1.254173 -1.449649
v 0.307781 1.258586 -1.467015
v 0.315448 1.258068 -1.483424
v 0.326923 1.252697 -1.496377
v 0.340459 1.243293 -1.503903
v 0.306516 1.406824 -1.427155
v 0.295790 1.398211 -1.427677
v 0.286696 1.388932 -1.423125
v 0.280620 1.380399 -1.414192
v 0.278487 1.373912 -1.402239
v 0.280620 1.370458 -1.389085
v 0.286696 1.370563 -1.376733
v 0.295790 1.374211 -1.367062
v 0.306516 1.380846 -1.361547
v 0.317242 1.389459 -1.361025
v 0.326336 1.398739 -1.365577
v 0.332412 1.407271 -1.374509
v 0.334545 1.413758 -1.386462
v 0.332412 1.417212 -1.399616
v 0.326336 1.417107 -1.411969
v 0.317242 1.413459 -1.421639
v 0.167136 1.530489 -1.375301
v 0.172375 1.537136 -1.364444
v 0.175875 1.539245 -1.351298
v 0.177104 1.536495 -1.337865
v 0.175875 1.529304 -1.326191
v 0.172375 1.518767 -1.318052
v 0.167136 1.506489 -1.314687
v 0.160957 1.494339 -1.316610
v 0.154778 1.484165 -1.323526
v 0.149540 1.477518 -1.334384
v 0.146040 1.475409 -1.347530
v 0.144811 1.478160 -1.360963
v 0.146040 1.485350 -1.372637
v 0.149540 1.495887 -1.380776
v 0.154778 1.508165 -1.384140
v 0.160957 1.520316 -1.382218
v 0.232700 0.718027 -1.878205
v 0.180873 1.337169 -1.520433
v -0.000000 0.756146 -1.973193
v -0.000000 1.363308 -1.586450
v 0.309241 0.634185 -1.675855
v 0.241289 1.300249 -1.427187
v 0.000000 0.545656 -1.682724
v 0.316946 1.250738 -1.713577
v 0.388134 1.088093 -1.842940
v 0.353618 0.881456 -1.892297
v -0.000000 1.290778 -1.814702
v -0.000000 1.127130 -1.944461
v -0.000000 0.908959 -1.994394
v 0.410630 1.159421 -1.482947
v 0.481818 0.974540 -1.556150
v 0.447303 0.778161 -1.632620
v 0.111287 1.348832 -1.549890
v 0.145263 0.740183 -1.936748
v 0.145263 0.572147 -1.680669
v 0.214294 0.899588 -1.957438
v 0.226158 1.113155 -1.907702
v 0.195957 1.276302 -1.778141
v 0.298524 0.681495 -1.784212
v 0.230572 1.315885 -1.466679
v -0.000000 0.650137 -1.846860
v 0.436586 0.835539 -1.772757
v 0.471101 1.035443 -1.709968
v 0.399913 1.209206 -1.608685
v 0.185470 0.655777 -1.808738
v 0.232700 0.557566 -1.472944
v 0.180873 1.263328 -1.333941
v 0.000000 0.520434 -1.377879
v 0.000000 1.237189 -1.267924
v 0.316946 1.068104 -1.252317
v 0.388134 0.860987 -1.269360
v 0.353618 0.675792 -1.372872
v 0.000000 1.028064 -1.151193
v 0.000000 0.819944 -1.168633
v 0.000000 0.623216 -1.272720
v 0.111287 1.251665 -1.304484
v 0.145263 0.533422 -1.414555
v 0.214294 0.642796 -1.308885
v 0.226158 0.834922 -1.204995
v 0.195957 1.042540 -1.187753
v 0.298524 0.595425 -1.566834
v 0.230572 1.284612 -1.387695
v 0.000000 0.517805 -1.512642
v 0.436586 0.724453 -1.492199
v 0.471101 0.913637 -1.402332
v 0.399913 1.109636 -1.357210
v 0.185470 0.552397 -1.547642
v -0.232700 0.718027 -1.878205
v -0.180873 1.337169 -1.520433
v -0.309241 0.634185 -1.675854
v -0.241289 1.300249 -1.427187
v -0.316946 1.250738 -1.713577
v -0.388134 1.088093 -1.842940
v -0.353618 0.881456 -1.892297
v -0.410630 1.159421 -1.482947
v -0.481818 0.974540 -1.556150
v -0.447303 0.778161 -1.632620
v -0.111287 1.348832 -1.549890
v -0.145263 0.740183 -1.936748
v -0.145263 0.572147 -1.680669
v -0.214294 0.899588 -1.957438
v -0.226158 1.113155 -1.907702
v -0.195957 1.276302 -1.778141
v -0.298524 0.681495 -1.784212
v -0.230572 1.315885 -1.466679
v -0.436586 0.835539 -1.772757
v -0.471101 1.035443 -1.709968
v -0.399913 1.209206 -1.608685
v -0.185470 0.655777 -1.808738
v -0.232700 0.557566 -1.472944
v -0.180873 1.263328 -1.333941
v -0.316946 1.068104 -1.252317
v -0.388134 0.860987 -1.269360
v -0.353618 0.675792 -1.372872
v -0.111287 1.251665 -1.304484
v -0.145263 0.533423 -1.414555
v -0.214293 0.642796 -1.308885
v -0.226158 0.834922 -1.204995
v -0.195957 1.042540 -1.187753
v -0.298524 0.595425 -1.566834
v -0.230572 1.284612 -1.387695
v -0.436586 0.724453 -1.492199
v -0.471101 0.913637 -1.402332
v -0.399913 1.109636 -1.357210
v -0.185470 0.552397 -1.547642
vn 0.8811 0.0166 -0.4726
vn -0.1474 0.8120 -0.5647
vn 0.1490 -0.8117 0.5648
vn -0.2177 0.9536 -0.2081
vn 0.2213 -0.9527 0.2084
vn -0.2545 0.9515 0.1727
vn 0.2595 -0.9503 -0.1722
vn -0.2545 0.8118 0.5255
vn 0.2595 -0.8106 -0.5250
vn -0.2177 0.5527 0.8045
vn 0.2213 -0.5518 -0.8041
vn -0.1474 0.2054 0.9675
vn 0.1490 -0.2050 -0.9673
vn -0.0524 -0.1806 0.9822
vn -0.0524 0.5407 -0.8396
vn 0.0526 0.1807 -0.9821
vn 0.0526 -0.5406 0.8396
vn 0.5383 -0.7978 0.2714
vn 0.6568 -0.3543 0.6656
vn -0.6568 0.4131 -0.6308
vn 0.2465 0.3697 -0.8958
vn 0.9696 -0.2367 0.0627
vn -0.8797 -0.0052 0.4755
vn -0.2602 -0.2581 0.9304
vn -0.8797 0.3217 -0.3502
vn 0.1284 -0.5030 0.8547
vn 0.3631 -0.7063 0.6077
vn -0.5382 0.3958 0.7441
vn 0.5383 -0.3957 -0.7440
vn 0.6309 -0.7695 -0.0998
vn -0.1284 0.5030 -0.8547
vn -0.3631 0.7063 -0.6077
vn -0.6307 0.6293 0.4541
vn -0.6307 0.7696 0.0998
vn -0.3631 0.0989 0.9265
vn -0.5382 0.7979 -0.2714
vn 0.6309 -0.6292 -0.4540
vn -0.6568 -0.1307 0.7426
vn -0.1284 -0.2184 0.9674
vn 0.3631 -0.0988 -0.9265
vn 0.1284 0.2184 -0.9674
vn 0.2465 -0.3438 0.9061
vn 0.8811 -0.3114 0.3559
vn 0.9696 -0.1296 -0.2078
vn 0.6569 0.1973 -0.7277
vn -0.2602 0.4488 -0.8549
vn -0.9736 0.2167 -0.0718
vn -0.9736 0.1088 0.2007
vn -0.8811 0.0166 -0.4726
vn 0.1474 0.8120 -0.5647
vn -0.1490 -0.8117 0.5648
vn 0.2177 0.9536 -0.2081
vn -0.2213 -0.9527 0.2084
vn 0.2545 0.9515 0.1727
vn -0.2595 -0.9503 -0.1722
vn 0.2545 0.8118 0.5255
vn -0.2595 -0.8106 -0.5250
vn 0.2177 0.5527 0.8045
vn -0.2213 -0.5518 -0.8041
vn 0.1474 0.2054 0.9675
vn -0.1490 -0.2050 -0.9673
vn 0.0524 -0.1806 0.9822
vn 0.0524 0.5407 -0.8396
vn -0.0526 0.1807 -0.9821
vn -0.0526 -0.5406 0.8396
vn -0.5383 -0.7978 0.2714
vn -0.6568 -0.3543 0.6656
vn 0.6568 0.4131 -0.6308
vn -0.2465 0.3697 -0.8958
vn -0.9696 -0.2367 0.0627
vn 0.8797 -0.0052 0.4755
vn 0.2602 -0.2581 0.9304
vn 0.8797 0.3217 -0.3502
vn -0.1284 -0.5030 0.8547
vn -0.3631 -0.7063 0.6077
vn 0.5382 0.3958 0.7441
vn -0.5383 -0.3957 -0.7440
vn -0.6309 -0.7695 -0.0998
vn 0.1284 0.5030 -0.8547
vn 0.3631 0.7063 -0.6077
vn 0.6307 0.6293 0.4541
vn 0.6307 0.7696 0.0998
vn 0.3631 0.0989 0.9265
vn 0.5382 0.7979 -0.2714
vn -0.6309 -0.6292 -0.4540
vn 0.6568 -0.1307 0.7426
vn 0.1284 -0.2184 0.9674
vn -0.3631 -0.0988 -0.9265
vn -0.1284 0.2184 -0.9674
vn -0.2465 -0.3438 0.9061
vn -0.8811 -0.3114 0.3559
vn -0.9696 -0.1296 -0.2078
vn -0.6569 0.1973 -0.7277
vn 0.2602 0.4488 -0.8549
vn 0.9736 0.2167 -0.0718
vn 0.9736 0.1088 0.2007
vn 0.2839 0.9368 -0.2046
vn 0.2424 -0.7986 -0.5508
vn 0.6525 0.7297 0.2043
vn 0.7235 -0.6116 -0.3201
vn 0.9841 -0.1281 -0.1233
vn 0.9378 0.3415 0.0633
vn 0.4060 -0.3306 -0.8520
vn 0.4104 0.1661 -0.8966
vn 0.4107 0.6422 -0.6472
vn 0.1745 0.6219 -0.7634
vn 0.1723 0.2171 -0.9608
vn 0.1855 -0.1708 -0.9677
vn 0.1123 -0.7869 -0.6068
vn 0.1545 0.9495 -0.2731
vn 0.1450 -0.8409 -0.5214
vn 0.7723 0.5476 -0.3220
vn 0.8372 0.0087 -0.5468
vn 0.6075 -0.5007 -0.6166
vn 0.4853 0.8723 -0.0604
vn 0.3137 -0.8467 -0.4298
vn 0.2839 0.5428 0.7904
vn 0.2775 -0.9545 -0.1094
vn 0.6525 0.6718 0.3506
vn 0.7295 -0.6594 -0.1817
vn 0.9841 -0.1773 0.0026
vn 0.9378 0.2923 0.1876
vn 0.4397 -0.7759 0.4524
vn 0.4220 -0.4760 0.7716
vn 0.4107 0.0251 0.9114
vn 0.1745 -0.0693 0.9822
vn 0.1792 -0.4682 0.8652
vn 0.1995 -0.7226 0.6618
vn 0.1337 -0.9902 -0.0404
vn 0.1545 0.5052 0.8491
vn 0.1621 -0.9713 -0.1740
vn 0.7723 0.1788 0.6096
vn 0.8386 -0.3640 0.4054
vn 0.6352 -0.7605 0.1347
vn 0.4853 0.5945 0.6412
vn 0.3306 -0.9073 -0.2596
vn -0.2839 0.9368 -0.2046
vn -0.2424 -0.7986 -0.5508
vn -0.6525 0.7297 0.2043
vn -0.7235 -0.6116 -0.3201
vn -0.9841 -0.1281 -0.1233
vn -0.9378 0.3415 0.0633
vn -0.4060 -0.3306 -0.8520
vn -0.4104 0.1661 -0.8966
vn -0.4107 0.6422 -0.6472
vn -0.1745 0.6219 -0.7634
vn -0.1723 0.2171 -0.9608
vn -0.1855 -0.1708 -0.9677
vn -0.1123 -0.7869 -0.6068
vn -0.1545 0.9495 -0.2731
vn -0.1450 -0.8409 -0.5214
vn -0.7723 0.5476 -0.3220
vn -0.8372 0.0087 -0.5468
vn -0.6075 -0.5007 -0.6166
vn -0.4852 0.8723 -0.0604
vn -0.3137 -0.8467 -0.4298
vn -0.2839 0.5428 0.7904
vn -0.2775 -0.9545 -0.1094
vn -0.6525 0.6718 0.3506
vn -0.7295 -0.6594 -0.1817
vn -0.9841 -0.1773 0.0026
vn -0.9378 0.2923 0.1876
vn -0.4397 -0.7759 0.4524
vn -0.4220 -0.4760 0.7716
vn -0.4107 0.0251 0.9114
vn -0.1745 -0.0693 0.9822
vn -0.1792 -0.4682 0.8652
vn -0.1995 -0.7226 0.6618
vn -0.1337 -0.9902 -0.0404
vn -0.1545 0.5052 0.8491
vn -0.1621 -0.9713 -0.1740
vn -0.7723 0.1788 0.6096
vn -0.8386 -0.3640 0.4054
vn -0.6352 -0.7605 0.1347
vn -0.4852 0.5945 0.6412
vn -0.3306 -0.9073 -0.2596
vt 0.673318 0.850672
vt 0.680718 0.853653
vt 0.677960 0.939545
vt 0.668218 0.943790
vt 0.943657 0.750891
vt 0.947854 0.756696
vt 0.948716 0.780175
vt 0.944544 0.775031
vt 0.181370 0.566811
vt 0.167565 0.560047
vt 0.086987 0.587230
vt 0.103551 0.593173
vt 0.937559 0.747134
vt 0.938461 0.771715
vt 0.698094 0.753801
vt 0.705498 0.748856
vt 0.705548 0.775804
vt 0.698143 0.780188
vt 0.930487 0.745997
vt 0.931395 0.770733
vt 0.689361 0.755537
vt 0.689410 0.781727
vt 0.923518 0.747652
vt 0.924421 0.772233
vt 0.680629 0.753801
vt 0.680678 0.780188
vt 0.917713 0.751849
vt 0.918600 0.775989
vt 0.673226 0.748856
vt 0.673276 0.775804
vt 0.913956 0.757947
vt 0.914818 0.781426
vt 0.543522 0.484427
vt 0.551848 0.491210
vt 0.504674 0.517618
vt 0.494677 0.511656
vt 0.160808 0.551583
vt 0.162127 0.542706
vt 0.075042 0.571822
vt 0.076976 0.579732
vt 0.540235 0.467079
vt 0.539445 0.475953
vt 0.488627 0.504151
vt 0.487445 0.496245
vt 0.705589 0.850672
vt 0.698184 0.853653
vt 0.710539 0.846210
vt 0.717208 0.950142
vt 0.710694 0.943790
vt 0.947019 0.842178
vt 0.951129 0.845645
vt 0.960327 0.949452
vt 0.955280 0.954723
vt 0.452728 0.582733
vt 0.459901 0.587789
vt 0.459251 0.691758
vt 0.452728 0.699435
vt 0.689450 0.854700
vt 0.700947 0.939545
vt 0.689453 0.938054
vt 0.921075 0.843136
vt 0.926937 0.840502
vt 0.929091 0.959087
vt 0.921133 0.955984
vt 0.915993 0.851210
vt 0.917231 0.846896
vt 0.915711 0.951099
vt 0.913652 0.945178
vt 0.940978 0.839984
vt 0.947571 0.958405
vt 0.017803 0.658250
vt 0.029664 0.663300
vt 0.710497 0.769244
vt 0.950343 0.786364
vt 0.952683 0.849855
vt 0.933926 0.839395
vt 0.913652 0.787719
vt 0.668332 0.769244
vt 0.668375 0.846210
vt 0.017803 0.774923
vt 0.028588 0.767245
vt 0.661711 0.950142
vt 0.961944 0.943395
vt 0.938375 0.959937
vt 0.819879 0.847831
vt 0.823984 0.922685
vt 0.816145 0.919292
vt 0.813923 0.850249
vt 0.545774 0.459155
vt 0.611527 0.488754
vt 0.604007 0.495868
vt 0.793909 0.766769
vt 0.793913 0.787998
vt 0.789934 0.782702
vt 0.789930 0.760813
vt 0.579411 0.691813
vt 0.580307 0.721692
vt 0.573050 0.726337
vt 0.572170 0.696993
vt 0.799865 0.770748
vt 0.799869 0.791537
vt 0.588083 0.689797
vt 0.588985 0.719864
vt 0.806890 0.772146
vt 0.806894 0.792779
vt 0.596867 0.691252
vt 0.597763 0.721131
vt 0.813915 0.770748
vt 0.813919 0.791537
vt 0.604425 0.695957
vt 0.605305 0.725300
vt 0.819871 0.766769
vt 0.819875 0.787998
vt 0.267378 0.571524
vt 0.279843 0.564396
vt 0.171323 0.534768
vt 0.823850 0.760813
vt 0.823854 0.782702
vt 0.262202 0.579445
vt 0.600880 0.503788
vt 0.602621 0.511307
vt 0.265102 0.586954
vt 0.799872 0.850249
vt 0.793917 0.847831
vt 0.789813 0.922685
vt 0.784576 0.927762
vt 0.789938 0.844212
vt 0.575653 0.809198
vt 0.575024 0.949264
vt 0.568319 0.943207
vt 0.570857 0.813881
vt 0.825256 0.839944
vt 0.831061 0.933752
vt 0.829222 0.927762
vt 0.823858 0.844212
vt 0.806897 0.851098
vt 0.806898 0.918101
vt 0.797652 0.919292
vt 0.607908 0.808161
vt 0.617477 0.947899
vt 0.607870 0.952399
vt 0.600409 0.805375
vt 0.370534 0.657703
vt 0.409595 0.774316
vt 0.425017 0.781427
vt 0.379092 0.652221
vt 0.582953 0.805936
vt 0.584894 0.953138
vt 0.788541 0.839944
vt 0.788537 0.776454
vt 0.671672 0.576562
vt 0.666495 0.582042
vt 0.568319 0.733091
vt 0.591646 0.804594
vt 0.610463 0.731736
vt 0.613000 0.812527
vt 0.623788 0.941424
vt 0.825252 0.776454
vt 0.782737 0.933752
vt 0.699493 0.705786
vt 0.690168 0.698667
vt 0.596428 0.954239
vt 0.541820 0.129245
vt 0.631966 0.036138
vt 0.648965 0.033897
vt 0.579098 0.124427
vt 0.687132 0.432747
vt 0.604403 0.425642
vt 0.637956 0.420851
vt 0.692121 0.413840
vt 0.639735 0.116937
vt 0.680035 0.030038
vt 0.702878 0.027279
vt 0.712480 0.108224
vt 0.657799 0.337098
vt 0.739363 0.328292
vt 0.755946 0.408426
vt 0.636192 0.225593
vt 0.725185 0.214941
vt 0.553424 0.354834
vt 0.589051 0.346272
vt 0.522091 0.240251
vt 0.559308 0.235021
vt 0.280464 0.968867
vt 0.147374 0.961435
vt 0.143655 0.928333
vt 0.276308 0.932434
vt 0.419729 0.948105
vt 0.412935 0.913643
vt 0.499850 0.919562
vt 0.497165 0.891899
vt 0.670538 0.445809
vt 0.583015 0.427861
vt 0.035431 0.915587
vt 0.031968 0.891899
vt 0.775683 0.453289
vt 0.769743 0.439707
vt 0.883420 0.088483
vt 0.845985 0.092580
vt 0.756870 0.021021
vt 0.773959 0.019195
vt 0.838204 0.414721
vt 0.817897 0.398832
vt 0.872441 0.392871
vt 0.906546 0.389589
vt 0.785240 0.099575
vt 0.725735 0.024584
vt 0.820131 0.317728
vt 0.814191 0.204353
vt 0.889593 0.310410
vt 0.928680 0.310057
vt 0.891183 0.195420
vt 0.928680 0.191735
vt 0.274853 0.794160
vt 0.270057 0.830540
vt 0.137262 0.832499
vt 0.141572 0.799440
vt 0.414446 0.814543
vt 0.406787 0.849776
vt 0.495265 0.839899
vt 0.492141 0.867291
vt 0.863918 0.422734
vt 0.927466 0.386760
vt 0.024586 0.867291
vt 0.028504 0.843630
vt 0.126344 0.080612
vt 0.126363 0.118238
vt 0.044280 0.198289
vt 0.044269 0.181122
vt 0.445027 0.188964
vt 0.427198 0.196193
vt 0.427532 0.141557
vt 0.428034 0.107645
vt 0.126376 0.179362
vt 0.126378 0.252631
vt 0.044290 0.252626
vt 0.044288 0.229613
vt 0.429419 0.260213
vt 0.348292 0.253279
vt 0.347337 0.171243
vt 0.234121 0.252633
vt 0.234120 0.163001
vt 0.348036 0.101865
vt 0.351873 0.065431
vt 0.234107 0.085515
vt 0.234373 0.047888
vt 0.234630 0.026577
vt 0.126313 0.059302
vt 0.354490 0.044939
vt 0.427239 0.086098
vt 0.455442 0.170881
vt 0.044252 0.159815
vt 0.475336 0.274401
vt 0.461605 0.270157
vt 0.126344 0.424637
vt 0.044269 0.324123
vt 0.044280 0.306960
vt 0.126363 0.387019
vt 0.445027 0.341108
vt 0.428034 0.411932
vt 0.427532 0.377707
vt 0.427198 0.322861
vt 0.126376 0.325899
vt 0.044288 0.275638
vt 0.347337 0.334727
vt 0.234120 0.342264
vt 0.351873 0.443350
vt 0.348036 0.404540
vt 0.234373 0.457363
vt 0.234107 0.419746
vt 0.234630 0.478661
vt 0.126313 0.445936
vt 0.354490 0.465466
vt 0.427239 0.432994
vt 0.455442 0.365633
vt 0.044252 0.345424
s 0
f 35/1/1 36/2/1 29/3/1 30/4/1
f 15/5/2 16/6/2 49/7/2 50/8/2
f 7/9/3 8/10/3 57/11/3 58/12/3
f 14/13/4 15/5/4 50/8/4 51/14/4
f 6/15/5 7/16/5 58/17/5 59/18/5
f 13/19/6 14/13/6 51/14/6 52/20/6
f 5/21/7 6/15/7 59/18/7 60/22/7
f 12/23/8 13/19/8 52/20/8 53/24/8
f 4/25/9 5/21/9 60/22/9 61/26/9
f 11/27/10 12/23/10 53/24/10 54/28/10
f 3/29/11 4/25/11 61/26/11 62/30/11
f 10/31/12 11/27/12 54/28/12 55/32/12
f 2/33/13 3/34/13 62/35/13 63/36/13
f 9/37/14 10/38/14 55/39/14 56/40/14
f 16/41/15 1/42/15 64/43/15 49/44/15
f 1/42/16 2/33/16 63/36/16 64/43/16
f 8/10/17 9/37/17 56/40/17 57/11/17
f 59/18/18 58/17/18 39/45/18 38/46/18
f 39/45/19 40/47/19 25/48/19 26/49/19
f 47/50/20 48/51/20 17/52/20 18/53/20
f 33/54/21 34/55/21 31/56/21 32/57/21
f 37/58/22 38/46/22 27/59/22 28/60/22
f 43/61/23 44/62/23 21/63/23 22/64/23
f 41/65/24 42/66/24 23/67/24 24/68/24
f 46/69/25 47/50/25 18/53/25 19/70/25
f 57/11/26 56/40/26 41/71/26 40/72/26
f 58/17/27 57/73/27 40/47/27 39/45/27
f 54/28/28 53/24/28 44/62/28 43/61/28
f 62/30/29 61/26/29 36/2/29 35/1/29
f 60/22/30 59/18/30 38/46/30 37/58/30
f 49/7/31 64/74/31 33/75/31 48/51/31
f 50/8/32 49/7/32 48/51/32 47/50/32
f 53/24/33 52/20/33 45/76/33 44/62/33
f 52/20/34 51/14/34 46/69/34 45/76/34
f 55/32/35 54/28/35 43/61/35 42/66/35
f 51/14/36 50/8/36 47/50/36 46/69/36
f 61/26/37 60/22/37 37/58/37 36/2/37
f 42/66/38 43/61/38 22/64/38 23/67/38
f 56/77/39 55/32/39 42/66/39 41/65/39
f 63/78/40 62/30/40 35/1/40 34/79/40
f 64/43/41 63/36/41 34/55/41 33/54/41
f 40/72/42 41/71/42 24/80/42 25/81/42
f 38/46/43 39/45/43 26/49/43 27/59/43
f 36/2/44 37/58/44 28/60/44 29/3/44
f 34/79/45 35/1/45 30/4/45 31/82/45
f 48/51/46 33/75/46 32/83/46 17/52/46
f 45/76/47 46/69/47 19/70/47 20/84/47
f 44/62/48 45/76/48 20/84/48 21/63/48
f 83/85/49 78/86/49 77/87/49 84/88/49
f 15/89/50 98/90/50 97/91/50 16/41/50
f 7/92/51 106/93/51 105/94/51 8/95/51
f 14/96/52 99/97/52 98/98/52 15/99/52
f 6/100/53 107/101/53 106/93/53 7/92/53
f 13/102/54 100/103/54 99/97/54 14/96/54
f 5/104/55 108/105/55 107/101/55 6/100/55
f 12/106/56 101/107/56 100/103/56 13/102/56
f 4/108/57 109/109/57 108/105/57 5/104/57
f 11/110/58 102/111/58 101/107/58 12/106/58
f 3/112/59 110/113/59 109/109/59 4/108/59
f 10/38/60 103/114/60 102/115/60 11/116/60
f 2/117/61 111/118/61 110/113/61 3/112/61
f 9/37/62 104/119/62 103/114/62 10/38/62
f 16/41/63 97/91/63 112/120/63 1/42/63
f 1/42/64 112/120/64 111/121/64 2/33/64
f 8/10/65 105/122/65 104/119/65 9/37/65
f 107/101/66 86/123/66 87/124/66 106/93/66
f 87/124/67 74/125/67 73/126/67 88/127/67
f 95/128/68 66/129/68 65/130/68 96/131/68
f 81/132/69 80/133/69 79/134/69 82/135/69
f 85/136/70 76/137/70 75/138/70 86/123/70
f 91/139/71 70/140/71 69/141/71 92/142/71
f 89/143/72 72/144/72 71/145/72 90/146/72
f 94/147/73 67/148/73 66/129/73 95/128/73
f 105/94/74 88/127/74 89/149/74 104/150/74
f 106/93/75 87/124/75 88/127/75 105/94/75
f 102/111/76 91/139/76 92/142/76 101/107/76
f 110/113/77 83/85/77 84/88/77 109/109/77
f 108/105/78 85/136/78 86/123/78 107/101/78
f 97/91/79 96/151/79 81/152/79 112/120/79
f 98/98/80 95/128/80 96/131/80 97/153/80
f 101/107/81 92/142/81 93/154/81 100/103/81
f 100/103/82 93/154/82 94/147/82 99/97/82
f 103/155/83 90/156/83 91/139/83 102/111/83
f 99/97/84 94/147/84 95/128/84 98/98/84
f 109/109/85 84/88/85 85/136/85 108/105/85
f 90/156/86 71/157/86 70/140/86 91/139/86
f 104/119/87 89/143/87 90/146/87 103/114/87
f 111/118/88 82/135/88 83/85/88 110/113/88
f 112/158/89 81/132/89 82/135/89 111/118/89
f 88/127/90 73/126/90 72/159/90 89/149/90
f 86/123/91 75/138/91 74/125/91 87/124/91
f 84/88/92 77/87/92 76/137/92 85/136/92
f 82/135/93 79/134/93 78/86/93 83/85/93
f 96/151/94 65/160/94 80/161/94 81/152/94
f 93/154/95 68/162/95 67/148/95 94/147/95
f 92/142/96 69/141/96 68/162/96 93/154/96
f 134/163/97 129/164/97 114/165/97 120/166/97
f 141/167/98 130/168/98 113/169/98 135/170/98
f 140/171/99 136/172/99 118/173/99 126/174/99
f 135/170/100 138/175/100 128/176/100 117/177/100
f 138/175/101 139/178/101 127/179/101 128/176/101
f 139/178/102 140/171/102 126/174/102 127/179/102
f 130/168/103 132/180/103 122/181/103 113/169/103
f 132/180/104 133/182/104 121/183/104 122/181/104
f 133/182/105 134/163/105 120/166/105 121/183/105
f 124/184/106 123/185/106 134/186/106 133/187/106
f 125/188/107 124/184/107 133/187/107 132/189/107
f 115/190/108 125/188/108 132/189/108 130/191/108
f 137/192/109 115/193/109 130/168/109 141/167/109
f 123/185/110 116/194/110 129/195/110 134/186/110
f 119/196/111 137/192/111 141/167/111 131/197/111
f 121/183/112 120/166/112 140/171/112 139/178/112
f 122/181/113 121/183/113 139/178/113 138/175/113
f 113/169/114 122/181/114 138/175/114 135/170/114
f 120/166/115 114/165/115 136/172/115 140/171/115
f 131/197/116 141/167/116 135/170/116 117/177/116
f 156/198/117 146/199/117 143/200/117 152/201/117
f 163/202/118 157/203/118 142/204/118 153/205/118
f 162/206/119 126/174/119 118/173/119 158/207/119
f 157/203/120 117/177/120 128/176/120 160/208/120
f 160/208/121 128/176/121 127/179/121 161/209/121
f 161/209/122 127/179/122 126/174/122 162/206/122
f 153/205/123 142/204/123 148/210/123 154/211/123
f 154/211/124 148/210/124 147/212/124 155/213/124
f 155/213/125 147/212/125 146/199/125 156/198/125
f 150/214/126 155/215/126 156/216/126 149/217/126
f 151/218/127 154/219/127 155/215/127 150/214/127
f 144/220/128 153/221/128 154/219/128 151/218/128
f 159/222/129 163/202/129 153/205/129 144/223/129
f 149/217/130 156/216/130 152/224/130 145/225/130
f 119/196/131 131/197/131 163/202/131 159/222/131
f 147/212/132 161/209/132 162/206/132 146/199/132
f 148/210/133 160/208/133 161/209/133 147/212/133
f 142/204/134 157/203/134 160/208/134 148/210/134
f 146/199/135 162/206/135 158/207/135 143/200/135
f 131/197/136 117/177/136 157/203/136 163/202/136
f 179/226/137 168/227/137 165/228/137 174/229/137
f 185/230/138 180/231/138 164/232/138 175/233/138
f 184/234/139 171/235/139 167/236/139 181/237/139
f 180/231/140 166/238/140 173/239/140 182/240/140
f 182/240/141 173/239/141 172/241/141 183/242/141
f 183/242/142 172/241/142 171/235/142 184/234/142
f 175/233/143 164/232/143 170/243/143 177/244/143
f 177/244/144 170/243/144 169/245/144 178/246/144
f 178/246/145 169/245/145 168/227/145 179/226/145
f 124/247/146 178/246/146 179/226/146 123/248/146
f 125/249/147 177/244/147 178/246/147 124/247/147
f 115/250/148 175/233/148 177/244/148 125/249/148
f 137/251/149 185/230/149 175/233/149 115/250/149
f 123/248/150 179/226/150 174/229/150 116/252/150
f 119/253/151 176/254/151 185/230/151 137/251/151
f 169/245/152 183/242/152 184/234/152 168/227/152
f 170/243/153 182/240/153 183/242/153 169/245/153
f 164/232/154 180/231/154 182/240/154 170/243/154
f 168/227/155 184/234/155 181/237/155 165/228/155
f 176/254/156 166/238/156 180/231/156 185/230/156
f 195/255/157 191/256/157 187/257/157 188/258/157
f 201/259/158 192/260/158 186/261/158 196/262/158
f 200/263/159 197/264/159 167/236/159 171/235/159
f 196/262/160 198/265/160 173/239/160 166/238/160
f 198/265/161 199/266/161 172/241/161 173/239/161
f 199/266/162 200/263/162 171/235/162 172/241/162
f 192/260/163 193/267/163 190/268/163 186/261/163
f 193/267/164 194/269/164 189/270/164 190/268/164
f 194/269/165 195/255/165 188/258/165 189/270/165
f 150/271/166 149/272/166 195/255/166 194/269/166
f 151/273/167 150/271/167 194/269/167 193/267/167
f 144/274/168 151/273/168 193/267/168 192/260/168
f 159/275/169 144/274/169 192/260/169 201/259/169
f 149/272/170 145/276/170 191/256/170 195/255/170
f 119/253/171 159/275/171 201/259/171 176/254/171
f 189/270/172 188/258/172 200/263/172 199/266/172
f 190/268/173 189/270/173 199/266/173 198/265/173
f 186/261/174 190/268/174 198/265/174 196/262/174
f 188/258/175 187/257/175 197/264/175 200/263/175
f 176/254/176 201/259/176 196/262/176 166/238/176
