# Blender 4.2.1 LTS
# www.blender.org
mtllib extraMuerte.mtl
o Cube.002
v -0.006313 5.160346 2.320233
v -0.006313 5.629289 2.444235
v -0.011157 5.644748 1.929421
v -0.015469 5.624568 1.264227
v -0.016532 5.510073 0.673108
v -0.017121 5.275688 0.173252
v -0.023943 5.010969 -0.244918
v -0.011157 5.242257 1.789501
v -0.015469 5.262385 1.155333
v -0.016532 5.208215 0.624636
v -0.017121 5.032423 0.111913
v -0.023943 4.853962 -0.265603
v -0.031582 4.832301 -0.442254
v -0.040679 4.475681 -0.725709
v -0.075044 5.160346 2.320233
v -0.075044 5.629289 2.444235
v -0.070200 5.644748 1.929421
v -0.065889 5.624568 1.264227
v -0.064826 5.510073 0.673108
v -0.064236 5.275688 0.173252
v -0.057414 5.010969 -0.244918
v -0.070200 5.242257 1.789501
v -0.065889 5.262385 1.155333
v -0.064826 5.208215 0.624636
v -0.064236 5.032423 0.111913
v -0.057414 4.853962 -0.265603
v -0.049775 4.832301 -0.442254
v 0.000000 0.044603 0.979006
v 0.000000 5.677576 2.437836
v 0.029708 0.043122 0.984727
v 0.029708 5.676094 2.443557
v 0.054894 0.038903 1.001018
v 0.054894 5.671875 2.459848
v 0.071723 0.032589 1.025399
v 0.071723 5.665561 2.484229
v 0.077632 0.025141 1.054159
v 0.077632 5.658113 2.512989
v 0.071723 0.017693 1.082918
v 0.071723 5.650664 2.541748
v 0.054894 0.011378 1.107300
v 0.054894 5.644350 2.566129
v 0.029708 0.007159 1.123591
v 0.029708 5.640131 2.582421
v 0.000000 0.005678 1.129311
v 0.000000 5.638649 2.588141
v -0.029708 0.007159 1.123591
v -0.029708 5.640131 2.582421
v -0.054894 0.011378 1.107300
v -0.054894 5.644350 2.566129
v -0.071723 0.017693 1.082918
v -0.071723 5.650664 2.541748
v -0.077632 0.025141 1.054159
v -0.077632 5.658113 2.512989
v -0.071723 0.032589 1.025399
v -0.071723 5.665561 2.484229
v -0.054894 0.038903 1.001018
v -0.054894 5.671875 2.459848
v -0.029708 0.043122 0.984727
v -0.029708 5.676094 2.443557
vn 1.0000 0.0025 -0.0093
vn 1.0000 0.0030 -0.0087
vn 1.0000 0.0023 -0.0066
vn 1.0000 0.0020 -0.0067
vn 1.0000 0.0006 -0.0019
vn 1.0000 0.0003 -0.0020
vn 1.0000 0.0002 -0.0013
vn 1.0000 0.0003 -0.0013
vn 0.9998 0.0049 -0.0194
vn 0.9998 0.0025 -0.0193
vn 0.9990 0.0058 -0.0439
vn 0.9990 0.0098 -0.0444
vn -1.0000 0.0025 -0.0093
vn -1.0000 0.0030 -0.0087
vn -1.0000 0.0023 -0.0066
vn -1.0000 0.0020 -0.0067
vn -1.0000 0.0006 -0.0019
vn -1.0000 0.0003 -0.0020
vn -1.0000 0.0002 -0.0013
vn -1.0000 0.0003 -0.0013
vn -0.9998 0.0049 -0.0194
vn -0.9998 0.0025 -0.0193
vn -0.9990 0.0058 -0.0439
vn -0.9990 0.0098 -0.0444
vn -0.0000 -0.9948 0.1015
vn -0.0000 0.9995 0.0300
vn -0.0000 -0.9459 0.3243
vn -0.0000 0.9995 -0.0303
vn -0.0000 -0.9041 0.4274
vn -0.0000 0.9818 -0.1902
vn -0.0000 0.7413 -0.6712
vn -0.0000 0.9054 -0.4245
vn -0.0000 0.6222 -0.7828
vn -0.0000 0.8449 -0.5349
vn -0.0000 -0.7724 0.6351
vn -0.0000 -0.9883 -0.1525
vn -0.0000 -0.9995 -0.0317
vn -0.0000 -0.2556 0.9668
vn 0.1951 0.2459 -0.9495
vn 0.5556 0.2085 -0.8049
vn 0.8315 0.1393 -0.5378
vn 0.9808 0.0489 -0.1889
vn 0.9808 -0.0489 0.1889
vn 0.8315 -0.1393 0.5378
vn 0.5556 -0.2085 0.8049
vn 0.1951 -0.2459 0.9495
vn -0.1951 -0.2459 0.9495
vn -0.5556 -0.2085 0.8049
vn -0.8315 -0.1393 0.5378
vn -0.9808 -0.0489 0.1889
vn -0.9808 0.0489 -0.1889
vn -0.8315 0.1393 -0.5378
vn -0.0000 0.9681 0.2507
vn -0.5556 0.2085 -0.8049
vn -0.1951 0.2459 -0.9495
vn -0.0000 -0.9681 -0.2507
vt 0.189047 0.033097
vt 0.258107 0.069035
vt 0.168513 0.113110
vt 0.226609 0.149195
vt 0.148275 0.217899
vt 0.201150 0.247708
vt 0.145417 0.314405
vt 0.190973 0.332636
vt 0.164540 0.400863
vt 0.200469 0.419039
vt 0.191261 0.475657
vt 0.215115 0.484431
vt 0.212270 0.512880
vt 0.258107 0.569861
vt 0.086988 0.033097
vt 0.107528 0.113171
vt 0.017919 0.069018
vt 0.049426 0.149246
vt 0.127779 0.218046
vt 0.074897 0.247844
vt 0.130653 0.314635
vt 0.085090 0.332849
vt 0.111540 0.401154
vt 0.075606 0.419320
vt 0.084808 0.475960
vt 0.060950 0.484725
vt 0.063781 0.513161
vt 0.017919 0.570112
vt 0.727206 0.602176
vt 0.727377 0.686319
vt 0.719285 0.686319
vt 0.719455 0.602176
vt 0.570145 0.470374
vt 0.570923 0.387719
vt 0.580399 0.387719
vt 0.581177 0.470374
vt 0.727112 0.522549
vt 0.719550 0.522549
vt 0.571615 0.281019
vt 0.579707 0.281019
vt 0.726017 0.464583
vt 0.720645 0.464583
vt 0.571786 0.186437
vt 0.579537 0.186437
vt 0.680323 0.062385
vt 0.678872 0.100438
vt 0.675994 0.100203
vt 0.675027 0.061953
vt 0.571880 0.106795
vt 0.579442 0.106795
vt 0.675027 0.170006
vt 0.572975 0.040336
vt 0.578347 0.040336
vt 0.663698 0.284874
vt 0.663698 0.207443
vt 0.669067 0.207630
vt 0.728069 0.788012
vt 0.728846 0.873997
vt 0.717815 0.873997
vt 0.718593 0.788012
vt 0.435506 0.946056
vt 0.435506 0.868206
vt 0.446537 0.868206
vt 0.446537 0.946056
vt 0.396931 0.962097
vt 0.396931 0.033626
vt 0.401506 0.033449
vt 0.401506 0.961919
vt 0.405103 0.033097
vt 0.405103 0.961567
vt 0.345466 0.968450
vt 0.345466 0.034547
vt 0.349635 0.034545
vt 0.349635 0.968449
vt 0.354444 0.034545
vt 0.354444 0.968448
vt 0.359160 0.034546
vt 0.359160 0.968449
vt 0.363065 0.034547
vt 0.363065 0.968451
vt 0.272584 0.968453
vt 0.272584 0.034551
vt 0.276626 0.034546
vt 0.276626 0.968448
vt 0.281395 0.034545
vt 0.281395 0.968447
vt 0.286163 0.034546
vt 0.286163 0.968448
vt 0.290205 0.034551
vt 0.290205 0.968453
vt 0.290205 0.968450
vt 0.290205 0.034547
vt 0.294214 0.034545
vt 0.294214 0.968449
vt 0.298971 0.034545
vt 0.298971 0.968448
vt 0.303750 0.034545
vt 0.303750 0.968449
vt 0.307824 0.034547
vt 0.307824 0.968450
vt 0.953988 0.049186
vt 0.956372 0.055122
vt 0.956372 0.061518
vt 0.953988 0.067402
vt 0.949584 0.071876
vt 0.943829 0.074261
vt 0.937600 0.074193
vt 0.931845 0.071682
vt 0.927440 0.067111
vt 0.925057 0.061175
vt 0.925057 0.054779
vt 0.927440 0.048896
vt 0.931845 0.044421
vt 0.937600 0.042036
vt 0.943829 0.042105
vt 0.949584 0.044615
vt 0.387677 0.961848
vt 0.387677 0.033378
vt 0.392075 0.033601
vt 0.392075 0.962072
vt 0.946463 0.099808
vt 0.946463 0.106207
vt 0.944046 0.112107
vt 0.939581 0.116607
vt 0.933747 0.119024
vt 0.927432 0.118989
vt 0.921597 0.116508
vt 0.917132 0.111958
vt 0.914715 0.106033
vt 0.914715 0.099633
vt 0.917132 0.093734
vt 0.921597 0.089233
vt 0.927431 0.086816
vt 0.933747 0.086851
vt 0.939581 0.089332
vt 0.944046 0.093882
s 0
f 2/1/1 1/2/1 3/3/1
f 1/2/2 8/4/2 3/3/2
f 3/3/3 8/4/3 4/5/3
f 8/4/4 9/6/4 4/5/4
f 4/5/5 9/6/5 5/7/5
f 9/6/6 10/8/6 5/7/6
f 5/7/7 10/8/7 6/9/7
f 10/8/8 11/10/8 6/9/8
f 6/9/9 11/10/9 7/11/9
f 11/10/10 12/12/10 7/11/10
f 7/11/11 12/12/11 13/13/11
f 14/14/12 13/13/12 12/12/12
f 16/15/13 17/16/13 15/17/13
f 15/17/14 17/16/14 22/18/14
f 17/16/15 18/19/15 22/18/15
f 22/18/16 18/19/16 23/20/16
f 18/19/17 19/21/17 23/20/17
f 23/20/18 19/21/18 24/22/18
f 19/21/19 20/23/19 24/22/19
f 24/22/20 20/23/20 25/24/20
f 20/23/21 21/25/21 25/24/21
f 25/24/22 21/25/22 26/26/22
f 21/25/23 27/27/23 26/26/23
f 14/28/24 26/26/24 27/27/24
f 10/29/25 9/30/25 23/31/25 24/32/25
f 2/33/26 3/34/26 17/35/26 16/36/26
f 11/37/27 10/29/27 24/32/27 25/38/27
f 3/34/28 4/39/28 18/40/28 17/35/28
f 12/41/29 11/37/29 25/38/29 26/42/29
f 4/39/30 5/43/30 19/44/30 18/40/30
f 7/45/31 13/46/31 27/47/31 21/48/31
f 5/43/32 6/49/32 20/50/32 19/44/32
f 13/46/33 14/51/33 27/47/33
f 6/49/34 7/52/34 21/53/34 20/50/34
f 14/54/35 12/55/35 26/56/35
f 8/57/36 1/58/36 15/59/36 22/60/36
f 9/30/37 8/57/37 22/60/37 23/31/37
f 1/61/38 2/62/38 16/63/38 15/64/38
f 28/65/39 29/66/39 31/67/39 30/68/39
f 30/68/40 31/67/40 33/69/40 32/70/40
f 32/71/41 33/72/41 35/73/41 34/74/41
f 34/74/42 35/73/42 37/75/42 36/76/42
f 36/76/43 37/75/43 39/77/43 38/78/43
f 38/78/44 39/77/44 41/79/44 40/80/44
f 40/81/45 41/82/45 43/83/45 42/84/45
f 42/84/46 43/83/46 45/85/46 44/86/46
f 44/86/47 45/85/47 47/87/47 46/88/47
f 46/88/48 47/87/48 49/89/48 48/90/48
f 48/91/49 49/92/49 51/93/49 50/94/49
f 50/94/50 51/93/50 53/95/50 52/96/50
f 52/96/51 53/95/51 55/97/51 54/98/51
f 54/98/52 55/97/52 57/99/52 56/100/52
f 31/101/53 29/102/53 59/103/53 57/104/53 55/105/53 53/106/53 51/107/53 49/108/53 47/109/53 45/110/53 43/111/53 41/112/53 39/113/53 37/114/53 35/115/53 33/116/53
f 56/117/54 57/118/54 59/119/54 58/120/54
f 58/120/55 59/119/55 29/66/55 28/65/55
f 28/121/56 30/122/56 32/123/56 34/124/56 36/125/56 38/126/56 40/127/56 42/128/56 44/129/56 46/130/56 48/131/56 50/132/56 52/133/56 54/134/56 56/135/56 58/136/56
