# Blender 4.2.1 LTS
# www.blender.org
mtllib ropaMuerte.mtl
o diabloTraje.002
v 0.743528 1.623374 0.000000
v 0.568761 1.571444 0.695004
v 0.000000 1.501894 1.010740
v 0.266717 1.824856 0.776198
v 0.213355 2.108837 0.614959
v 0.175181 2.143527 0.283157
v 0.175181 2.143527 0.109935
v 0.608539 1.899149 0.303597
v 0.778791 1.178196 0.315629
v 0.700107 0.769584 0.393173
v 0.213355 1.953942 0.986236
v 0.360538 2.143527 0.000000
v 0.479756 1.899149 0.456578
v 0.350362 2.143527 0.283157
v 0.649373 1.899149 0.071229
v 0.350929 2.143527 0.109935
v 0.810998 1.178196 0.000000
v 0.627961 1.178197 0.545256
v 0.716679 0.769584 0.000000
v 0.536074 0.769584 0.598823
v 0.000000 2.143527 0.283157
v 0.000000 2.143527 0.109935
v 0.000000 1.178196 0.833930
v 0.405499 1.178196 0.833930
v 0.000000 0.769584 0.824469
v 0.350053 0.769584 0.807722
v 0.350053 0.183472 0.773312
v 0.000000 0.140192 0.840351
v 0.536074 0.163296 0.598823
v 0.716679 0.021869 0.033924
v 0.702659 1.571444 0.390985
v 0.350362 2.143527 0.196546
v 0.700107 0.096592 0.375339
v 0.175181 2.143527 0.196546
v 0.000000 2.143527 0.196546
v 0.000000 2.242428 0.535965
v 0.000000 1.656129 0.776198
v 0.213479 1.688868 1.078794
v 0.657958 1.899149 0.000000
v 0.000000 2.065109 0.970144
v 0.172955 1.736465 1.247185
v 0.000000 1.842865 1.271610
v 0.167152 1.641495 1.227339
v 0.000000 1.326405 1.139166
v -0.743528 1.623374 0.000000
v -0.568761 1.571444 0.695004
v -0.266717 1.824856 0.776198
v -0.213355 2.108837 0.614959
v -0.175181 2.143527 0.283157
v -0.175181 2.143527 0.109935
v -0.608539 1.899149 0.303597
v -0.778791 1.178196 0.315629
v -0.700107 0.769584 0.393173
v -0.213355 1.953942 0.986236
v -0.360538 2.143527 0.000000
v -0.479756 1.899149 0.456578
v -0.350362 2.143527 0.283157
v -0.649373 1.899149 0.071229
v -0.350929 2.143527 0.109935
v -0.810998 1.178196 0.000000
v -0.627961 1.178197 0.545256
v -0.716679 0.769584 0.000000
v -0.536074 0.769584 0.598823
v -0.405499 1.178196 0.833930
v -0.350053 0.769584 0.807722
v -0.350053 0.208950 0.773312
v -0.536074 0.163296 0.598823
v -0.716679 0.172187 0.044115
v -0.702659 1.571444 0.390985
v -0.350362 2.143527 0.196546
v -0.700107 0.073662 0.393173
v -0.175181 2.143527 0.196546
v -0.213479 1.688868 1.078794
v -0.657958 1.899149 0.000000
v -0.172955 1.736465 1.247185
v -0.167152 1.641495 1.227339
v 0.568761 1.571444 -0.695004
v 0.000000 1.501894 -1.010740
v 0.266717 1.824856 -0.776198
v 0.213355 2.108837 -0.614959
v 0.175181 2.143527 -0.283157
v 0.175181 2.143527 -0.109935
v 0.608539 1.899149 -0.303597
v 0.778791 1.178196 -0.315629
v 0.700107 0.769584 -0.393173
v 0.213355 1.953942 -0.986236
v 0.479756 1.899149 -0.456578
v 0.350362 2.143527 -0.283157
v 0.649373 1.899149 -0.071229
v 0.350929 2.143527 -0.109935
v 0.627961 1.178197 -0.545256
v 0.536074 0.769584 -0.598823
v 0.000000 2.143527 -0.283157
v 0.000000 2.143527 -0.109935
v 0.000000 1.178196 -0.833930
v 0.405499 1.178196 -0.833930
v 0.000000 0.769584 -0.824469
v 0.350053 0.769584 -0.807722
v 0.350053 0.127421 -0.770764
v -0.000000 0.101976 -0.847994
v 0.536074 0.135270 -0.619205
v 0.716679 0.060086 -0.041568
v 0.702659 1.571444 -0.390985
v 0.350362 2.143527 -0.196546
v 0.700107 0.114426 -0.403364
v 0.175181 2.143527 -0.196546
v 0.000000 2.143527 -0.196546
v 0.000000 2.242428 -0.535965
v 0.000000 1.656129 -0.776198
v 0.213479 1.688868 -1.078794
v 0.000000 2.065109 -0.970144
v 0.172955 1.736465 -1.247185
v 0.000000 1.842865 -1.271610
v 0.167152 1.641495 -1.227339
v 0.000000 1.326405 -1.139166
v -0.568761 1.571444 -0.695004
v -0.266717 1.824856 -0.776198
v -0.213355 2.108837 -0.614959
v -0.175181 2.143527 -0.283157
v -0.175181 2.143527 -0.109935
v -0.608539 1.899149 -0.303597
v -0.778791 1.178196 -0.315629
v -0.700107 0.769584 -0.393173
v -0.213355 1.953942 -0.986236
v -0.479756 1.899149 -0.456578
v -0.350362 2.143527 -0.283157
v -0.649373 1.899149 -0.071229
v -0.350929 2.143527 -0.109935
v -0.627961 1.178197 -0.545256
v -0.536074 0.769584 -0.598823
v -0.405499 1.178196 -0.833930
v -0.350053 0.769584 -0.807722
v -0.351376 0.138918 -0.746032
v -0.540189 0.178031 -0.601944
v -0.716679 0.100780 -0.044115
v -0.702659 1.571444 -0.390985
v -0.350362 2.143527 -0.196546
v -0.716993 0.127673 -0.412227
v -0.175181 2.143527 -0.196546
v -0.213479 1.688868 -1.078794
v -0.172955 1.736465 -1.247185
v -0.167152 1.641495 -1.227339
vn -0.6322 -0.6963 -0.3398
vn -0.7786 -0.4400 -0.4475
vn -0.8821 -0.0171 -0.4707
vn -0.8080 0.0749 -0.5845
vn -0.9990 -0.0005 -0.0450
vn 0.7170 -0.0201 0.6968
vn -0.5889 -0.0407 -0.8072
vn 0.0249 -0.0991 -0.9948
vn -0.6533 -0.5148 -0.5551
vn -0.0000 -1.0000 -0.0000
vn -0.4933 -0.8203 -0.2895
vn -0.3452 -0.9302 0.1247
vn 0.1197 -0.0151 0.9927
vn -0.7938 0.0085 -0.6081
vn -0.9774 0.2005 -0.0673
vn -0.9810 -0.1579 -0.1130
vn -0.9429 -0.2981 -0.1484
vn -0.6516 -0.7539 -0.0846
vn 0.1772 -0.4033 -0.8977
vn 0.2175 -0.1549 -0.9637
vn -0.6354 -0.7696 -0.0638
vn -0.9488 -0.2944 -0.1144
vn 0.4068 0.8445 0.3483
vn 0.9755 0.1632 0.1475
vn 0.5907 -0.7329 -0.3375
vn 0.7676 -0.1173 0.6301
vn 0.0221 -0.0451 0.9987
vn 0.4092 0.7043 0.5801
vn 0.8045 -0.5212 -0.2849
vn 0.9737 0.0302 0.2258
vn -0.0338 -0.2413 0.9699
vn 0.6322 -0.6963 -0.3398
vn 0.7786 -0.4400 -0.4475
vn 0.8821 -0.0171 -0.4707
vn 0.8080 0.0749 -0.5845
vn 0.9990 -0.0015 -0.0448
vn -0.7163 -0.0206 0.6975
vn 0.5889 -0.0407 -0.8072
vn -0.0249 -0.0991 -0.9948
vn 0.6533 -0.5148 -0.5551
vn 0.4933 -0.8203 -0.2895
vn 0.3452 -0.9302 0.1247
vn -0.1203 -0.0155 0.9926
vn 0.7818 -0.0000 -0.6236
vn 0.9774 0.2005 -0.0673
vn 0.9810 -0.1579 -0.1130
vn 0.9429 -0.2981 -0.1484
vn 0.6516 -0.7539 -0.0846
vn -0.1772 -0.4033 -0.8977
vn -0.2175 -0.1549 -0.9637
vn 0.6354 -0.7696 -0.0638
vn 0.9488 -0.2944 -0.1144
vn -0.4068 0.8445 0.3483
vn -0.9755 0.1632 0.1475
vn -0.5907 -0.7329 -0.3375
vn -0.7676 -0.1173 0.6301
vn -0.0221 -0.0451 0.9987
vn -0.4092 0.7043 0.5801
vn -0.8045 -0.5212 -0.2849
vn -0.9737 0.0302 0.2258
vn 0.0338 -0.2413 0.9699
vn -0.6322 -0.6963 0.3398
vn -0.7786 -0.4400 0.4475
vn -0.8821 -0.0171 0.4707
vn -0.8080 0.0749 0.5845
vn -0.9990 -0.0017 0.0437
vn 0.6959 -0.0093 -0.7181
vn -0.5889 -0.0407 0.8072
vn 0.0249 -0.0991 0.9948
vn -0.6533 -0.5148 0.5551
vn -0.4933 -0.8203 0.2895
vn -0.3452 -0.9302 -0.1247
vn 0.1334 -0.0102 -0.9910
vn -0.7894 -0.0146 0.6137
vn -0.9774 0.2005 0.0673
vn -0.9810 -0.1579 0.1130
vn -0.9429 -0.2981 0.1484
vn -0.6516 -0.7539 0.0846
vn 0.1772 -0.4033 0.8977
vn 0.2175 -0.1549 0.9637
vn -0.6354 -0.7696 0.0638
vn -0.9488 -0.2944 0.1144
vn 0.4068 0.8445 -0.3483
vn 0.9755 0.1632 -0.1475
vn 0.5907 -0.7329 0.3375
vn 0.7676 -0.1173 -0.6301
vn 0.0221 -0.0451 -0.9987
vn 0.4092 0.7043 -0.5801
vn 0.8045 -0.5212 0.2849
vn 0.9737 0.0302 -0.2258
vn -0.0338 -0.2413 -0.9699
vn 0.6322 -0.6963 0.3398
vn 0.7786 -0.4400 0.4475
vn 0.8821 -0.0171 0.4707
vn 0.8080 0.0749 0.5845
vn 0.9997 -0.0139 0.0209
vn -0.6870 -0.0317 -0.7260
vn 0.5889 -0.0407 0.8072
vn -0.0249 -0.0991 0.9948
vn 0.6533 -0.5148 0.5551
vn 0.4933 -0.8203 0.2895
vn 0.3452 -0.9302 -0.1247
vn -0.1683 -0.0288 -0.9853
vn 0.7587 -0.0246 0.6509
vn 0.9774 0.2005 0.0673
vn 0.9810 -0.1579 0.1130
vn 0.9429 -0.2981 0.1484
vn 0.6516 -0.7539 0.0846
vn -0.1772 -0.4033 0.8977
vn -0.2175 -0.1549 0.9637
vn 0.6354 -0.7696 0.0638
vn 0.9488 -0.2944 0.1144
vn -0.4068 0.8445 -0.3483
vn -0.9755 0.1632 -0.1475
vn -0.5907 -0.7329 0.3375
vn -0.7676 -0.1173 -0.6301
vn -0.0221 -0.0451 -0.9987
vn -0.4092 0.7043 -0.5801
vn -0.8045 -0.5212 0.2849
vn -0.9737 0.0302 -0.2258
vn 0.0338 -0.2413 -0.9699
vt 0.430578 0.734926
vt 0.398862 0.708226
vt 0.434816 0.681399
vt 0.452773 0.681399
vt 0.142163 0.093335
vt 0.124046 0.162147
vt 0.061013 0.160794
vt 0.110444 0.092034
vt 0.139670 0.244349
vt 0.092060 0.242825
vt 0.123592 0.328169
vt 0.080952 0.326512
vt 0.205107 0.328337
vt 0.198073 0.483173
vt 0.127289 0.467532
vt 0.058519 0.828626
vt 0.101810 0.828883
vt 0.099330 0.950433
vt 0.063327 0.954078
vt 0.129316 0.731152
vt 0.053957 0.743556
vt 0.044175 0.697259
vt 0.178397 0.668457
vt 0.044175 0.613190
vt 0.143886 0.613177
vt 0.044175 0.105267
vt 0.077603 0.045922
vt 0.434816 0.645080
vt 0.452773 0.645080
vt 0.434816 0.608760
vt 0.452773 0.608760
vt 0.366025 0.652994
vt 0.382403 0.608760
vt 0.470729 0.645080
vt 0.470729 0.608760
vt 0.470729 0.681517
vt 0.632513 0.817205
vt 0.705088 0.816640
vt 0.705087 0.944856
vt 0.632512 0.938263
vt 0.080952 0.452062
vt 0.205109 0.244674
vt 0.205108 0.151805
vt 0.190339 0.093747
vt 0.478754 0.743392
vt 0.241945 0.657462
vt 0.271946 0.613263
vt 0.454493 0.768412
vt 0.454544 0.825766
vt 0.410379 0.861745
vt 0.410235 0.745172
vt 0.493522 0.683509
vt 0.493522 0.745172
vt 0.205107 0.093834
vt 0.735941 0.269121
vt 0.736885 0.365417
vt 0.688426 0.377563
vt 0.687876 0.294884
vt 0.774814 0.269121
vt 0.819609 0.339460
vt 0.803958 0.395461
vt 0.768930 0.336039
vt 0.589181 0.855766
vt 0.526445 0.844728
vt 0.540555 0.800469
vt 0.589181 0.800469
vt 0.044175 0.743556
vt 0.103996 0.743556
vt 0.621018 0.732733
vt 0.705088 0.732733
vt 0.729729 0.442443
vt 0.687876 0.447218
vt 0.769988 0.465949
vt 0.768930 0.420911
vt 0.823325 0.421506
vt 0.837983 0.407680
vt 0.504879 0.745171
vt 0.454544 0.843109
vt 0.454544 0.767296
vt 0.462661 0.748872
vt 0.430578 0.482595
vt 0.452773 0.536121
vt 0.434816 0.536121
vt 0.398862 0.509295
vt 0.589782 0.093403
vt 0.621541 0.092080
vt 0.670949 0.160853
vt 0.607875 0.162229
vt 0.639890 0.242891
vt 0.592233 0.244441
vt 0.651032 0.326558
vt 0.608342 0.328244
vt 0.608353 0.472349
vt 0.535978 0.452118
vt 0.526822 0.328414
vt 0.894351 0.754246
vt 0.889640 0.879708
vt 0.853777 0.870781
vt 0.851004 0.754499
vt 0.129316 0.495316
vt 0.178397 0.557863
vt 0.044175 0.529120
vt 0.053957 0.483173
vt 0.654459 0.045922
vt 0.687876 0.105274
vt 0.452773 0.572441
vt 0.434816 0.572441
vt 0.366025 0.564526
vt 0.470729 0.572441
vt 0.470729 0.536004
vt 0.777663 0.817205
vt 0.777662 0.933051
vt 0.651041 0.452103
vt 0.526785 0.244772
vt 0.526800 0.151895
vt 0.541593 0.093823
vt 0.478754 0.474129
vt 0.241945 0.568995
vt 0.366025 0.768497
vt 0.366025 0.825851
vt 0.493522 0.472349
vt 0.493522 0.534012
vt 0.526823 0.093911
vt 0.836567 0.897389
vt 0.789536 0.871764
vt 0.789159 0.815061
vt 0.836567 0.830858
vt 0.334979 0.664751
vt 0.340956 0.731661
vt 0.305973 0.791121
vt 0.290259 0.735137
vt 0.589181 0.745172
vt 0.526445 0.756209
vt 0.908657 0.669180
vt 0.848769 0.669180
vt 0.789158 0.732733
vt 0.768930 0.381858
vt 0.753136 0.450699
vt 0.339948 0.861579
vt 0.286618 0.817187
vt 0.340956 0.816540
vt 0.271946 0.803376
vt 0.526445 0.781654
vt 0.516189 0.798978
vt 0.556465 0.734926
vt 0.534271 0.681399
vt 0.552227 0.681399
vt 0.588182 0.708226
vt 0.268049 0.093335
vt 0.299764 0.092034
vt 0.349197 0.160794
vt 0.286168 0.162146
vt 0.318151 0.242825
vt 0.270546 0.244349
vt 0.329255 0.326512
vt 0.286621 0.328169
vt 0.288734 0.463839
vt 0.213724 0.475259
vt 0.816923 0.268199
vt 0.687876 0.269121
vt 0.691154 0.230624
vt 0.823749 0.229714
vt 0.763641 0.720457
vt 0.714539 0.657835
vt 0.848770 0.686608
vt 0.839036 0.732733
vt 0.749055 0.602538
vt 0.848770 0.602538
vt 0.332596 0.045922
vt 0.366025 0.105267
vt 0.534271 0.645080
vt 0.552227 0.645080
vt 0.534271 0.608760
vt 0.552227 0.608760
vt 0.621018 0.652994
vt 0.604641 0.608760
vt 0.516314 0.645080
vt 0.516314 0.608760
vt 0.516314 0.681517
vt 0.688091 0.158118
vt 0.823841 0.157147
vt 0.333480 0.457866
vt 0.219874 0.093747
vt 0.508289 0.743392
vt 0.651010 0.646773
vt 0.621018 0.602539
vt 0.104047 0.766819
vt 0.148292 0.743556
vt 0.148238 0.860139
vt 0.103996 0.824165
vt 0.836567 0.815061
vt 0.789536 0.789436
vt 0.789159 0.732733
vt 0.836567 0.748530
vt 0.900947 0.269121
vt 0.906971 0.336005
vt 0.872011 0.395499
vt 0.856265 0.339527
vt 0.192515 0.952098
vt 0.192515 0.896800
vt 0.241142 0.896800
vt 0.255251 0.941060
vt 0.514509 0.843110
vt 0.500126 0.928179
vt 0.456715 0.928436
vt 0.454544 0.843110
vt 0.908287 0.240630
vt 0.907736 0.156562
vt 0.353001 0.595910
vt 0.337207 0.664751
vt 0.313800 0.656495
vt 0.320956 0.579469
vt 0.905988 0.466006
vt 0.852662 0.421590
vt 0.906971 0.420969
vt 0.837983 0.407786
vt 0.214077 0.743556
vt 0.256293 0.747250
vt 0.264411 0.765674
vt 0.264411 0.841503
vt 0.556465 0.482595
vt 0.588182 0.509295
vt 0.552227 0.536121
vt 0.534271 0.536121
vt 0.463896 0.093403
vt 0.445753 0.162229
vt 0.382765 0.160853
vt 0.432221 0.092080
vt 0.461358 0.244441
vt 0.413799 0.242891
vt 0.445313 0.328244
vt 0.402729 0.326558
vt 0.517687 0.466904
vt 0.441368 0.461338
vt 0.815466 0.045922
vt 0.822798 0.084568
vt 0.691715 0.085178
vt 0.694575 0.045922
vt 0.763641 0.484620
vt 0.839036 0.472349
vt 0.848770 0.518468
vt 0.714539 0.547240
vt 0.366025 0.105274
vt 0.399467 0.045922
vt 0.552227 0.572441
vt 0.534271 0.572441
vt 0.621018 0.564526
vt 0.516314 0.572441
vt 0.516314 0.536004
vt 0.402090 0.449094
vt 0.512058 0.093823
vt 0.508289 0.474129
vt 0.651010 0.558305
vt 0.192515 0.766860
vt 0.192515 0.824205
vt 0.320012 0.483173
vt 0.272496 0.591615
vt 0.271946 0.508935
vt 0.854754 0.472349
vt 0.899467 0.542738
vt 0.883748 0.598721
vt 0.848770 0.539257
vt 0.192515 0.841503
vt 0.255251 0.852541
vt 0.526445 0.855766
vt 0.586341 0.855766
vt 0.584107 0.941085
vt 0.540753 0.940832
vt 0.907186 0.072494
vt 0.271946 0.661269
vt 0.849773 0.669180
vt 0.848770 0.624141
vt 0.903102 0.624789
vt 0.917775 0.610979
vt 0.202773 0.797369
vt 0.192515 0.780046
s 0
f 8/1/1 13/2/1 14/3/1 32/4/1
f 8/5/2 31/6/2 2/7/2 13/8/2
f 31/6/3 9/9/3 18/10/3 2/7/3
f 9/9/4 10/11/4 20/12/4 18/10/4
f 10/11/5 19/13/5 30/14/5 33/15/5
f 20/16/6 26/17/6 27/18/6 29/19/6
f 2/20/7 18/21/7 24/22/7 4/23/7
f 4/23/8 24/22/8 23/24/8 37/25/8
f 13/8/9 2/7/9 4/26/9 5/27/9
f 32/4/10 14/3/10 6/28/10 34/29/10
f 34/29/10 6/28/10 21/30/10 35/31/10
f 13/2/11 5/32/11 6/28/11 14/3/11
f 5/32/12 36/33/12 21/30/12 6/28/12
f 7/34/10 34/29/10 35/31/10 22/35/10
f 16/36/10 32/4/10 34/29/10 7/34/10
f 26/37/13 25/38/13 28/39/13 27/40/13
f 20/12/14 10/11/14 33/15/14 29/41/14
f 17/42/15 19/13/15 10/11/15 9/9/15
f 1/43/16 17/42/16 9/9/16 31/6/16
f 15/44/17 1/43/17 31/6/17 8/5/17
f 15/45/18 8/1/18 32/4/18 16/36/18
f 5/46/19 4/23/19 37/25/19 36/47/19
f 11/48/20 38/49/20 3/50/20 40/51/20
f 16/36/21 12/52/21 39/53/21 15/45/21
f 15/44/22 39/54/22 1/43/22
f 36/55/23 40/56/23 11/57/23 5/58/23
f 5/59/24 11/60/24 38/61/24 4/62/24
f 4/63/25 38/64/25 3/65/25 37/66/25
f 18/67/26 24/68/26 26/17/26 20/16/26
f 24/69/27 23/70/27 25/38/27 26/37/27
f 11/57/28 40/56/28 42/71/28 41/72/28
f 44/73/29 3/74/29 38/61/29 43/75/29
f 43/75/30 38/61/30 11/60/30 41/76/30
f 42/77/31 44/78/31 43/79/31 41/80/31
f 51/81/32 70/82/32 57/83/32 56/84/32
f 51/85/33 56/86/33 46/87/33 69/88/33
f 69/88/34 46/87/34 61/89/34 52/90/34
f 52/90/35 61/89/35 63/91/35 53/92/35
f 53/92/36 71/93/36 68/94/36 62/95/36
f 63/96/37 67/97/37 66/98/37 65/99/37
f 46/100/38 47/101/38 64/102/38 61/103/38
f 47/101/39 37/25/39 23/24/39 64/102/39
f 56/86/40 48/104/40 47/105/40 46/87/40
f 70/82/10 72/106/10 49/107/10 57/83/10
f 72/106/10 35/31/10 21/30/10 49/107/10
f 56/84/41 57/83/41 49/107/41 48/108/41
f 48/108/42 49/107/42 21/30/42 36/33/42
f 50/109/10 22/35/10 35/31/10 72/106/10
f 59/110/10 50/109/10 72/106/10 70/82/10
f 65/111/43 66/112/43 28/39/43 25/38/43
f 63/91/44 67/113/44 71/93/44 53/92/44
f 60/114/45 52/90/45 53/92/45 62/95/45
f 45/115/46 69/88/46 52/90/46 60/114/46
f 58/116/47 51/85/47 69/88/47 45/115/47
f 58/117/48 59/110/48 70/82/48 51/81/48
f 48/118/49 36/47/49 37/25/49 47/101/49
f 54/119/50 40/51/50 3/50/50 73/120/50
f 59/110/51 58/117/51 74/121/51 55/122/51
f 58/116/52 45/115/52 74/123/52
f 36/124/53 48/125/53 54/126/53 40/127/53
f 48/128/54 47/129/54 73/130/54 54/131/54
f 47/132/55 37/66/55 3/65/55 73/133/55
f 61/134/56 63/96/56 65/99/56 64/135/56
f 64/136/57 65/111/57 25/38/57 23/70/57
f 54/137/58 75/138/58 42/71/58 40/56/58
f 44/139/59 76/140/59 73/130/59 3/141/59
f 76/140/60 75/142/60 54/131/60 73/130/60
f 42/77/61 75/143/61 76/144/61 44/78/61
f 83/145/62 104/146/62 88/147/62 87/148/62
f 83/149/63 87/150/63 77/151/63 103/152/63
f 103/152/64 77/151/64 91/153/64 84/154/64
f 84/154/65 91/153/65 92/155/65 85/156/65
f 85/156/66 105/157/66 102/158/66 19/13/66
f 92/159/67 101/160/67 99/161/67 98/162/67
f 77/163/68 79/164/68 96/165/68 91/166/68
f 79/164/69 109/167/69 95/168/69 96/165/69
f 87/150/70 80/169/70 79/170/70 77/151/70
f 104/146/10 106/171/10 81/172/10 88/147/10
f 106/171/10 107/173/10 93/174/10 81/172/10
f 87/148/71 88/147/71 81/172/71 80/175/71
f 80/175/72 81/172/72 93/174/72 108/176/72
f 82/177/10 94/178/10 107/173/10 106/171/10
f 90/179/10 82/177/10 106/171/10 104/146/10
f 98/162/73 99/161/73 100/180/73 97/181/73
f 92/155/74 101/182/74 105/157/74 85/156/74
f 17/42/75 84/154/75 85/156/75 19/13/75
f 1/43/76 103/152/76 84/154/76 17/42/76
f 89/183/77 83/149/77 103/152/77 1/43/77
f 89/184/78 90/179/78 104/146/78 83/145/78
f 80/185/79 108/186/79 109/167/79 79/164/79
f 86/187/80 111/188/80 78/189/80 110/190/80
f 90/179/81 89/184/81 39/53/81 12/52/81
f 89/183/82 1/43/82 39/54/82
f 108/191/83 80/192/83 86/193/83 111/194/83
f 80/195/84 79/196/84 110/197/84 86/198/84
f 79/199/85 109/200/85 78/201/85 110/202/85
f 91/203/86 92/204/86 98/205/86 96/206/86
f 96/207/87 98/162/87 97/181/87 95/208/87
f 86/209/88 112/210/88 113/211/88 111/212/88
f 115/213/89 114/214/89 110/197/89 78/215/89
f 114/214/90 112/216/90 86/198/90 110/197/90
f 113/217/91 112/218/91 114/219/91 115/220/91
f 121/221/92 125/222/92 126/223/92 137/224/92
f 121/225/93 136/226/93 116/227/93 125/228/93
f 136/226/94 122/229/94 129/230/94 116/227/94
f 122/229/95 123/231/95 130/232/95 129/230/95
f 123/231/96 62/95/96 135/233/96 138/234/96
f 130/235/97 132/236/97 133/237/97 134/238/97
f 116/239/98 129/240/98 131/241/98 117/242/98
f 117/242/99 131/241/99 95/168/99 109/167/99
f 125/228/100 116/227/100 117/243/100 118/244/100
f 137/224/10 126/223/10 119/245/10 139/246/10
f 139/246/10 119/245/10 93/174/10 107/173/10
f 125/222/101 118/247/101 119/245/101 126/223/101
f 118/247/102 108/176/102 93/174/102 119/245/102
f 120/248/10 139/246/10 107/173/10 94/178/10
f 128/249/10 137/224/10 139/246/10 120/248/10
f 132/236/103 97/181/103 100/180/103 133/237/103
f 130/232/104 123/231/104 138/234/104 134/250/104
f 60/114/105 62/95/105 123/231/105 122/229/105
f 45/115/106 60/114/106 122/229/106 136/226/106
f 127/251/107 45/115/107 136/226/107 121/225/107
f 127/252/108 121/221/108 137/224/108 128/249/108
f 118/253/109 117/242/109 109/167/109 108/186/109
f 124/254/110 140/255/110 78/189/110 111/188/110
f 128/249/111 55/122/111 74/121/111 127/252/111
f 127/251/112 74/123/112 45/115/112
f 108/256/113 111/212/113 124/257/113 118/258/113
f 118/259/114 124/260/114 140/261/114 117/262/114
f 117/263/115 140/264/115 78/201/115 109/200/115
f 129/265/116 131/266/116 132/267/116 130/268/116
f 131/269/117 95/208/117 97/181/117 132/236/117
f 124/257/118 111/212/118 113/211/118 141/270/118
f 115/271/119 78/272/119 140/261/119 142/273/119
f 142/273/120 140/261/120 124/260/120 141/274/120
f 113/217/121 115/220/121 142/275/121 141/276/121
