# Blender 4.2.1 LTS
# www.blender.org
mtllib ropaAlien.mtl
o alienCinturon
v 0.806579 1.037083 0.000000
v 0.655188 1.037083 -0.625945
v 0.233552 1.037083 -0.807226
v -0.274803 1.037083 -0.854604
v -0.619521 1.037083 -0.720265
v -0.833565 1.037083 0.000000
v 0.813374 1.135244 0.000000
v 0.660759 1.135244 -0.627305
v 0.235547 1.135244 -0.809725
v -0.277067 1.135244 -0.857500
v -0.628826 1.135244 -0.722036
v -0.849144 1.135244 0.000000
v 0.655188 1.037083 0.625945
v 0.233552 1.037083 0.807226
v -0.274803 1.037083 0.854604
v -0.619521 1.037083 0.720265
v 0.660759 1.135244 0.627305
v 0.235547 1.135244 0.809725
v -0.277067 1.135244 0.857500
v -0.628826 1.135244 0.722036
vn -0.3609 -0.0434 -0.9316
vn 0.3944 -0.0332 -0.9183
vn -0.9502 -0.1230 -0.2862
vn 0.0928 -0.0272 -0.9953
vn 0.9699 -0.0627 -0.2353
vn -0.3609 -0.0434 0.9316
vn 0.3944 -0.0332 0.9183
vn -0.9502 -0.1230 0.2862
vn 0.0928 -0.0272 0.9953
vn 0.9699 -0.0627 0.2353
vt 0.251380 0.288849
vt 0.191480 0.238574
vt 0.288245 0.136862
vt 0.349265 0.188095
vt 0.405776 0.423600
vt 0.332998 0.359454
vt 0.431566 0.259291
vt 0.504938 0.323956
vt 0.062810 0.145465
vt 0.159058 0.043202
vt 0.503580 0.518278
vt 0.602995 0.418863
vt 0.733008 0.770477
vt 0.833763 0.672593
vt 0.884996 0.733613
vt 0.783283 0.830377
vt 0.598258 0.616082
vt 0.697901 0.516920
vt 0.762566 0.590292
vt 0.662403 0.688860
vt 0.978656 0.862800
vt 0.876393 0.959048
s 0
f 4/1/1 5/2/1 11/3/1 10/4/1
f 2/5/2 3/6/2 9/7/2 8/8/2
f 5/2/3 6/9/3 12/10/3 11/3/3
f 3/6/4 4/1/4 10/4/4 9/7/4
f 1/11/5 2/5/5 8/8/5 7/12/5
f 15/13/6 19/14/6 20/15/6 16/16/6
f 13/17/7 17/18/7 18/19/7 14/20/7
f 16/16/8 20/15/8 12/21/8 6/22/8
f 14/20/9 18/19/9 19/14/9 15/13/9
f 1/11/10 7/12/10 17/18/10 13/17/10
o alienTrajeEspacial
v -0.570926 1.780884 0.534718
v -0.283661 2.188192 0.271445
v 0.558073 1.780884 0.561853
v 0.262667 2.188192 0.319686
v -0.640731 1.877774 0.000000
v -0.320887 2.188192 0.000000
v 0.636272 1.877774 0.000000
v 0.289675 2.188192 0.000000
v -0.626484 1.544336 0.573678
v 0.602288 1.544336 0.624864
v -0.799768 1.544336 0.000000
v 0.792490 1.544336 0.000000
v -0.640016 1.212775 0.726264
v 0.662559 1.212775 0.626993
v -0.860950 1.212775 0.000000
v 0.816454 1.212775 0.000000
v -0.560115 0.787111 0.700008
v -0.627269 0.644950 0.228568
v -0.755272 0.770054 0.000000
v 0.767985 0.770054 0.000000
v -0.416592 0.644950 0.649723
v 0.645148 0.787111 0.593014
v 0.649594 0.644950 0.219948
v 0.507534 0.644950 0.559069
v -0.510544 0.478648 0.219948
v -0.386195 0.478648 0.580315
v 0.543916 0.478648 0.219948
v 0.386625 0.478648 0.495225
v -0.338122 0.293570 0.219948
v -0.258355 0.293570 0.370258
v 0.338122 0.293570 0.219948
v 0.268774 0.293570 0.296763
v -0.240633 1.777174 0.681711
v 0.207261 1.777174 0.681711
v 0.073773 2.188192 0.603477
v -0.173889 2.188192 0.603477
v -0.173889 2.188192 0.000000
v 0.073773 2.188192 0.000000
v -0.255465 1.544336 0.787885
v 0.288837 1.544336 0.787885
v -0.301815 1.212775 0.838177
v 0.283901 1.212775 0.804948
v 0.262881 0.770054 0.000000
v -0.246195 0.770054 0.000000
v -0.220239 0.644950 0.717474
v 0.214677 0.644950 0.717474
v 0.214677 0.644950 0.219948
v -0.220239 0.644950 0.219948
v -0.246195 0.787111 0.838177
v 0.172408 0.787111 0.739062
v -0.159057 0.478648 0.618230
v 0.192429 0.478648 0.618230
v 0.192429 0.478648 0.219948
v -0.159057 0.478648 0.219948
v -0.112707 0.293570 0.459975
v 0.135393 0.293570 0.441163
v 0.112707 0.293570 0.219948
v -0.112707 0.293570 0.219948
v -0.570926 1.780884 -0.534718
v -0.283661 2.188192 -0.271445
v 0.558073 1.780884 -0.561853
v 0.262667 2.188192 -0.319686
v -0.626484 1.544336 -0.573678
v 0.602288 1.544336 -0.624864
v -0.640016 1.212775 -0.726264
v 0.662559 1.212775 -0.626993
v -0.560115 0.787111 -0.700008
v -0.627269 0.644950 -0.228568
v -0.416592 0.644950 -0.649723
v 0.645148 0.787111 -0.593014
v 0.649594 0.644950 -0.219948
v 0.507534 0.644950 -0.559069
v -0.550025 0.478648 -0.217552
v -0.386195 0.478648 -0.580315
v 0.543916 0.478648 -0.219948
v 0.443216 0.478648 -0.506709
v -0.338122 0.293570 -0.219948
v -0.258355 0.293570 -0.370258
v 0.338122 0.293570 -0.219948
v 0.292196 0.293570 -0.317667
v -0.240633 1.777174 -0.681711
v 0.207261 1.777174 -0.681711
v 0.073773 2.188192 -0.603477
v -0.173889 2.188192 -0.603477
v -0.255465 1.544336 -0.787885
v 0.288837 1.544336 -0.787885
v -0.301815 1.212775 -0.838177
v 0.283901 1.212775 -0.804948
v -0.220239 0.644950 -0.717474
v 0.214677 0.644950 -0.717474
v 0.214677 0.644950 -0.219948
v -0.220239 0.644950 -0.219948
v -0.246195 0.787111 -0.838177
v 0.172408 0.787111 -0.739062
v -0.194744 0.478648 -0.720808
v 0.156743 0.478648 -0.720808
v 0.192429 0.478648 -0.219948
v -0.159057 0.478648 -0.219948
v -0.125484 0.293570 -0.518185
v 0.167843 0.293570 -0.465073
v 0.112707 0.293570 -0.219948
v -0.112707 0.293570 -0.219948
vn 0.7083 0.6876 0.1601
vn -0.6292 0.5151 0.5820
vn -0.9055 0.3566 0.2298
vn -0.0000 1.0000 -0.0000
vn -0.7187 0.6726 0.1763
vn -0.3984 0.3010 0.8664
vn 0.9089 0.3454 0.2338
vn -0.4317 0.3249 0.8415
vn 0.9717 -0.0824 0.2216
vn 0.9570 0.1224 0.2630
vn -0.9427 0.1720 0.2859
vn -0.0000 -0.8692 -0.4944
vn -0.9381 -0.2088 0.2762
vn -0.3568 -0.0855 0.9303
vn -0.8224 -0.4465 0.3526
vn 0.7780 -0.5839 0.2318
vn -0.7609 -0.5833 0.2843
vn -0.2950 -0.6154 0.7309
vn -0.0000 -0.0000 -1.0000
vn -0.2113 -0.4877 0.8470
vn 0.7377 -0.5715 0.3594
vn -0.0000 -1.0000 -0.0000
vn 0.5871 -0.7159 0.3779
vn -0.6686 -0.6940 0.2672
vn -0.2186 -0.7380 0.6384
vn 0.4286 -0.7352 0.5251
vn 0.0232 -0.6716 0.7406
vn -0.0114 0.0198 -0.9997
vn 0.4214 -0.5390 0.7293
vn -0.0000 -0.5125 0.8587
vn 0.3534 -0.2921 0.8887
vn 0.1044 -0.4249 0.8992
vn 0.3510 -0.1613 0.9224
vn 0.1302 -0.0850 0.9878
vn -0.0046 -0.8740 -0.4860
vn 0.3572 0.4000 0.8441
vn -0.0000 0.4149 0.9099
vn 0.4411 0.0627 0.8953
vn 0.0292 0.0988 0.9947
vn 0.5051 0.5311 0.6803
vn -0.0000 0.1870 0.9824
vn 0.7083 0.6876 -0.1601
vn -0.6292 0.5151 -0.5820
vn -0.9055 0.3566 -0.2298
vn -0.7187 0.6726 -0.1763
vn -0.3984 0.3010 -0.8664
vn 0.9089 0.3454 -0.2338
vn -0.4317 0.3249 -0.8415
vn 0.9717 -0.0824 -0.2216
vn 0.9570 0.1224 -0.2630
vn -0.9427 0.1720 -0.2859
vn -0.0000 -0.8692 0.4944
vn -0.9381 -0.2088 -0.2762
vn -0.3568 -0.0855 -0.9303
vn -0.8389 -0.3684 -0.4008
vn 0.7780 -0.5839 -0.2318
vn -0.7609 -0.5833 -0.2843
vn -0.2950 -0.6154 -0.7309
vn -0.0000 -0.0000 1.0000
vn -0.4585 -0.2467 -0.8538
vn 0.8226 -0.4707 -0.3191
vn 0.6340 -0.7346 -0.2418
vn -0.6169 -0.7305 -0.2929
vn -0.4282 -0.7648 -0.4815
vn 0.4331 -0.7551 -0.4922
vn 0.0521 -0.7724 -0.6329
vn -0.0078 0.0299 0.9995
vn 0.5147 -0.3072 -0.8005
vn -0.0000 0.0200 -0.9998
vn 0.0039 -0.0038 1.0000
vn 0.3534 -0.2921 -0.8887
vn 0.1044 -0.4249 -0.8992
vn 0.3510 -0.1613 -0.9224
vn 0.1302 -0.0850 -0.9878
vn -0.0046 -0.8740 0.4860
vn 0.3572 0.4000 -0.8441
vn -0.0000 0.4149 -0.9099
vn 0.4411 0.0627 -0.8953
vn 0.0292 0.0988 -0.9947
vn 0.5051 0.5311 -0.6803
vn -0.0000 0.1870 -0.9824
vt 0.468475 0.405670
vt 0.421041 0.495161
vt 0.357405 0.466388
vt 0.370355 0.361860
vt 0.227554 0.369439
vt 0.235300 0.451315
vt 0.166456 0.475258
vt 0.164394 0.369673
vt 0.072753 0.412407
vt 0.052183 0.339999
vt 0.160172 0.328555
vt 0.842656 0.900054
vt 0.842656 0.931503
vt 0.784583 0.923539
vt 0.713547 0.900055
vt 0.113393 0.495161
vt 0.228995 0.327043
vt 0.174051 0.275166
vt 0.224898 0.275432
vt 0.368560 0.321190
vt 0.488610 0.328547
vt 0.487857 0.259074
vt 0.372621 0.269640
vt 0.366339 0.207539
vt 0.464125 0.168411
vt 0.044267 0.272831
vt 0.564067 0.755972
vt 0.644189 0.828293
vt 0.589230 0.851472
vt 0.520168 0.789272
vt 0.061169 0.178313
vt 0.184780 0.216197
vt 0.230902 0.215996
vt 0.198697 0.188480
vt 0.117396 0.165424
vt 0.138741 0.129452
vt 0.200584 0.159421
vt 0.350284 0.182548
vt 0.410787 0.158321
vt 0.231605 0.189371
vt 0.492866 0.812548
vt 0.548695 0.862761
vt 0.489597 0.862761
vt 0.453789 0.830605
vt 0.238523 0.156552
vt 0.335065 0.149581
vt 0.389125 0.126802
vt 0.276461 0.824370
vt 0.276461 0.776145
vt 0.292895 0.790981
vt 0.323788 0.819517
vt 0.329160 0.095112
vt 0.348173 0.088632
vt 0.173876 0.089142
vt 0.207125 0.102874
vt 0.241720 0.109712
vt 0.297132 0.156702
vt 0.292245 0.109077
vt 0.276461 0.920822
vt 0.276461 0.872596
vt 0.327812 0.872596
vt 0.308618 0.903756
vt 0.385207 0.669467
vt 0.450790 0.726941
vt 0.436869 0.762345
vt 0.380533 0.712552
vt 0.298540 0.187000
vt 0.417908 0.798509
vt 0.381924 0.766540
vt 0.292930 0.208967
vt 0.310184 0.274234
vt 0.402209 0.609910
vt 0.483081 0.682873
vt 0.307101 0.369652
vt 0.314001 0.324707
vt 0.842656 0.800879
vt 0.842656 0.847069
vt 0.713547 0.847069
vt 0.774262 0.806657
vt 0.286426 0.453419
vt 0.579413 0.410110
vt 0.673039 0.366375
vt 0.686643 0.466810
vt 0.626053 0.495226
vt 0.811446 0.372823
vt 0.872754 0.373366
vt 0.870046 0.475485
vt 0.803824 0.451921
vt 0.877185 0.333423
vt 0.981943 0.345965
vt 0.961123 0.415747
vt 0.971765 0.900054
vt 0.900729 0.923539
vt 0.921070 0.495226
vt 0.810080 0.331565
vt 0.814161 0.281047
vt 0.864129 0.281100
vt 0.558769 0.336579
vt 0.674128 0.327005
vt 0.557830 0.270003
vt 0.577401 0.182420
vt 0.673599 0.215846
vt 0.669133 0.276959
vt 0.990671 0.281046
vt 0.592711 0.708903
vt 0.661636 0.771255
vt 0.854288 0.222735
vt 0.976411 0.189007
vt 0.808286 0.222253
vt 0.840803 0.194654
vt 0.839611 0.164775
vt 0.907802 0.141803
vt 0.922082 0.174860
vt 0.628264 0.170405
vt 0.688531 0.190420
vt 0.807551 0.195752
vt 0.613079 0.679368
vt 0.627054 0.638654
vt 0.662695 0.670991
vt 0.668728 0.729779
vt 0.802499 0.169729
vt 0.646686 0.139354
vt 0.695952 0.160930
vt 0.212655 0.872596
vt 0.265098 0.884392
vt 0.233562 0.910996
vt 0.212655 0.920822
vt 0.681442 0.098245
vt 0.700944 0.106036
vt 0.839073 0.107836
vt 0.871975 0.097326
vt 0.799236 0.118919
vt 0.737823 0.116173
vt 0.750891 0.169320
vt 0.212655 0.776145
vt 0.244813 0.793210
vt 0.276461 0.821637
vt 0.212655 0.824371
vt 0.459708 0.586887
vt 0.495941 0.572074
vt 0.557419 0.628784
vt 0.523620 0.646241
vt 0.740790 0.193770
vt 0.555998 0.573689
vt 0.591467 0.606233
vt 0.746674 0.215237
vt 0.730411 0.280215
vt 0.727221 0.329666
vt 0.734292 0.373239
vt 0.911050 0.806657
vt 0.971765 0.847069
vt 0.754643 0.453891
s 0
f 27/23/11 28/24/11 24/25/11 23/26/11
f 53/27/12 56/28/12 22/29/12 21/30/12
f 21/30/13 25/31/13 31/32/13 29/33/13
f 57/34/14 26/35/14 22/36/14 56/37/14
f 21/30/15 22/29/15 26/38/15 25/31/15
f 59/39/16 29/33/16 33/40/16 61/41/16
f 27/23/17 23/26/17 30/42/17 32/43/17
f 53/27/18 21/30/18 29/33/18 59/39/18
f 36/44/19 34/45/19 42/46/19 40/47/19
f 32/43/20 30/42/20 34/45/20 36/44/20
f 29/33/21 31/32/21 35/48/21 33/40/21
f 63/49/22 40/50/22 43/51/22 67/52/22
f 33/40/23 35/48/23 39/53/23 37/54/23
f 61/41/24 33/40/24 37/54/24 69/55/24
f 41/56/25 38/57/25 45/58/25 46/59/25
f 40/47/26 42/46/26 44/60/26 43/61/26
f 37/54/27 39/53/27 38/57/27 41/56/27
f 69/55/28 37/54/28 41/56/28 65/62/28
f 73/63/29 47/64/29 51/65/29 77/66/29
f 65/62/30 41/56/30 46/59/30 71/67/30
f 43/61/31 44/60/31 48/68/31 47/69/31
f 67/52/29 43/51/29 47/64/29 73/63/29
f 77/70/32 51/71/32 52/72/32 76/73/32
f 47/69/33 48/68/33 52/74/33 51/75/33
f 46/59/34 45/58/34 49/76/34 50/77/34
f 71/67/35 46/59/35 50/77/35 75/78/35
f 48/68/36 72/79/36 76/80/36 52/74/36
f 72/79/37 71/67/37 75/78/37 76/80/37
f 49/81/32 78/82/32 75/83/32 50/84/32
f 78/82/32 77/70/32 76/73/32 75/83/32
f 38/85/38 68/86/38 74/87/38 45/88/38
f 68/86/29 67/52/29 73/63/29 74/87/29
f 44/60/39 66/89/39 72/79/39 48/68/39
f 66/89/40 65/62/40 71/67/40 72/79/40
f 45/88/29 74/87/29 78/90/29 49/91/29
f 74/87/29 73/63/29 77/66/29 78/90/29
f 42/46/41 70/92/41 66/89/41 44/60/41
f 70/92/42 69/55/42 65/62/42 66/89/42
f 34/45/43 62/93/43 70/92/43 42/46/43
f 62/93/44 61/41/44 69/55/44 70/92/44
f 39/94/45 64/95/45 68/86/45 38/85/45
f 64/95/22 63/49/22 67/52/22 68/86/22
f 23/26/46 54/96/46 60/97/46 30/42/46
f 54/96/47 53/27/47 59/39/47 60/97/47
f 30/42/48 60/97/48 62/93/48 34/45/48
f 60/97/49 59/39/49 61/41/49 62/93/49
f 28/98/14 58/99/14 55/100/14 24/101/14
f 58/99/14 57/34/14 56/37/14 55/100/14
f 23/26/50 24/25/50 55/102/50 54/96/50
f 54/96/51 55/102/51 56/28/51 53/27/51
f 27/103/52 81/104/52 82/105/52 28/106/52
f 101/107/53 79/108/53 80/109/53 104/110/53
f 79/108/54 83/111/54 31/112/54 25/113/54
f 57/34/14 104/114/14 80/115/14 26/35/14
f 79/108/55 25/113/55 26/116/55 80/109/55
f 105/117/56 107/118/56 85/119/56 83/111/56
f 27/103/57 32/120/57 84/121/57 81/104/57
f 101/107/58 105/117/58 83/111/58 79/108/58
f 36/122/59 40/123/59 90/124/59 86/125/59
f 32/120/60 36/122/60 86/125/60 84/121/60
f 83/111/61 85/119/61 35/126/61 31/112/61
f 63/49/62 111/127/62 91/128/62 40/50/62
f 85/119/63 87/129/63 39/130/63 35/126/63
f 107/118/64 113/131/64 87/129/64 85/119/64
f 89/132/65 94/133/65 93/134/65 88/135/65
f 40/123/66 91/136/66 92/137/66 90/124/66
f 87/129/67 89/132/67 88/135/67 39/130/67
f 113/131/68 109/138/68 89/132/68 87/129/68
f 117/139/69 121/140/69 99/141/69 95/142/69
f 109/138/70 115/143/70 94/133/70 89/132/70
f 91/136/71 95/144/71 96/145/71 92/137/71
f 111/127/69 117/139/69 95/142/69 91/128/69
f 121/146/32 120/147/32 100/148/32 99/149/32
f 95/144/72 99/150/72 100/151/72 96/145/72
f 94/133/73 98/152/73 97/153/73 93/134/73
f 115/143/74 119/154/74 98/152/74 94/133/74
f 96/145/75 100/151/75 120/155/75 116/156/75
f 116/156/76 120/155/76 119/154/76 115/143/76
f 97/157/32 98/158/32 119/159/32 122/160/32
f 122/160/32 119/159/32 120/147/32 121/146/32
f 88/161/77 93/162/77 118/163/77 112/164/77
f 112/164/69 118/163/69 117/139/69 111/127/69
f 92/137/78 96/145/78 116/156/78 110/165/78
f 110/165/79 116/156/79 115/143/79 109/138/79
f 93/162/80 97/166/80 122/167/80 118/163/80
f 118/163/69 122/167/69 121/140/69 117/139/69
f 90/124/81 92/137/81 110/165/81 114/168/81
f 114/168/82 110/165/82 109/138/82 113/131/82
f 86/125/83 90/124/83 114/168/83 108/169/83
f 108/169/84 114/168/84 113/131/84 107/118/84
f 39/94/85 88/161/85 112/164/85 64/95/85
f 64/95/62 112/164/62 111/127/62 63/49/62
f 81/104/86 84/121/86 106/170/86 102/171/86
f 102/171/87 106/170/87 105/117/87 101/107/87
f 84/121/88 86/125/88 108/169/88 106/170/88
f 106/170/89 108/169/89 107/118/89 105/117/89
f 28/98/14 82/172/14 103/173/14 58/99/14
f 58/99/14 103/173/14 104/114/14 57/34/14
f 81/104/90 102/171/90 103/174/90 82/105/90
f 102/171/91 101/107/91 104/110/91 103/174/91
