# Blender 4.2.1 LTS
# www.blender.org
mtllib sombreroCalabazo.mtl
o calabazoTallo
v 0.170649 4.124220 0.406927
v 0.423094 4.124220 0.000000
v 0.000000 4.124220 0.595985
v 0.000000 4.124220 0.000000
v 0.612686 3.666466 0.782857
v 0.881329 3.666466 0.000000
v 0.000000 3.666466 1.014258
v 0.325969 4.124220 0.274879
v 0.000000 4.163288 0.274879
v 0.784203 3.666466 0.484015
v 0.162984 4.163288 0.000000
v 0.104914 4.124220 0.569514
v 0.334031 3.666466 0.987787
v 0.112003 4.163288 0.090572
v -0.000000 4.698249 -0.101723
v 0.162984 4.163288 0.274879
v 0.000000 4.163288 0.144940
v 0.117450 4.163288 0.000000
v 0.000000 4.190639 0.000000
v 0.000000 4.190639 0.089184
v 0.076173 4.229706 0.000000
v 0.053001 4.229706 0.057619
v -0.000000 4.457142 0.046037
v -0.000000 4.477409 0.091829
v 0.042772 4.457142 0.046037
v 0.029760 4.470236 0.075622
v 0.248309 4.124220 0.340903
v 0.052457 4.124220 0.582750
v 0.167016 3.771108 1.001022
v 0.698444 3.771108 0.633436
v 0.374532 4.124220 0.137439
v 0.832766 3.771108 0.242008
v 0.137781 4.124220 0.488221
v 0.473358 3.771108 0.885322
v -0.170649 4.124220 0.406927
v -0.423094 4.124220 0.000000
v -0.612686 3.666466 0.782857
v -0.881329 3.666466 0.000000
v -0.325969 4.124220 0.274879
v -0.784203 3.666466 0.484015
v -0.162984 4.163288 0.000000
v -0.104914 4.124220 0.569514
v -0.334031 3.666466 0.987787
v -0.112003 4.163288 0.090572
v -0.162984 4.163288 0.274879
v -0.117450 4.163288 0.000000
v -0.076173 4.229706 0.000000
v -0.053001 4.229706 0.057619
v -0.042772 4.457142 0.046037
v -0.029760 4.470236 0.075622
v -0.248309 4.124220 0.340903
v -0.052457 4.124220 0.582750
v -0.167016 3.771108 1.001022
v -0.698444 3.771108 0.633436
v -0.374532 4.124220 0.137439
v -0.832766 3.771108 0.242008
v -0.137781 4.124220 0.488221
v -0.473358 3.771108 0.885322
v 0.170649 4.124220 -0.406927
v 0.000000 4.124220 -0.595985
v 0.612686 3.666466 -0.782857
v 0.000000 3.666466 -1.014258
v 0.325969 4.124220 -0.274879
v 0.000000 4.163288 -0.274879
v 0.784203 3.666466 -0.484015
v 0.104914 4.124220 -0.569514
v 0.334031 3.666466 -0.987787
v 0.112003 4.163288 -0.090572
v 0.162984 4.163288 -0.274879
v 0.000000 4.163288 -0.144940
v 0.000000 4.190639 -0.089184
v 0.053001 4.229706 -0.057619
v -0.000000 4.436875 0.000244
v 0.029760 4.444048 0.016451
v 0.248309 4.124220 -0.340903
v 0.052457 4.124220 -0.582750
v 0.167016 3.771108 -1.001022
v 0.698444 3.771108 -0.633436
v 0.374532 4.124220 -0.137439
v 0.832766 3.771108 -0.242008
v 0.137781 4.124220 -0.488221
v 0.473358 3.771108 -0.885322
v -0.170649 4.124220 -0.406927
v -0.612686 3.666466 -0.782857
v -0.325969 4.124220 -0.274879
v -0.784203 3.666466 -0.484015
v -0.104914 4.124220 -0.569514
v -0.334031 3.666466 -0.987787
v -0.112003 4.163288 -0.090572
v -0.162984 4.163288 -0.274879
v -0.053001 4.229706 -0.057619
v -0.029760 4.444048 0.016451
v -0.248309 4.124220 -0.340903
v -0.052457 4.124220 -0.582750
v -0.167016 3.771108 -1.001022
v -0.698444 3.771108 -0.633436
v -0.374532 4.124220 -0.137439
v -0.832766 3.771108 -0.242008
v -0.137781 4.124220 -0.488221
v -0.473358 3.771108 -0.885322
v -0.000000 4.711486 -0.084179
v 0.018772 4.698249 -0.101723
v 0.013062 4.706801 -0.090388
v -0.018772 4.698249 -0.101723
v -0.013062 4.706801 -0.090388
v -0.000000 4.685011 -0.119268
v 0.013062 4.689696 -0.113059
v -0.013062 4.689696 -0.113059
vn 0.2679 0.7710 0.5777
vn 0.0126 0.9918 0.1270
vn -0.2408 0.6802 0.6923
vn -0.0000 -0.0000 -1.0000
vn 0.5507 0.7578 0.3499
vn 0.1815 0.9829 0.0321
vn 0.1983 0.7602 0.6187
vn -0.0000 -1.0000 -0.0000
vn -1.0000 -0.0000 -0.0000
vn -0.0000 1.0000 -0.0000
vn 0.1705 0.7317 0.6600
vn 0.7711 0.6191 0.1489
vn 0.9256 -0.1259 -0.3569
vn 0.9251 0.0607 0.3747
vn -0.0588 0.1791 -0.9821
vn 0.5032 -0.0117 0.8641
vn 0.2998 0.9271 0.2250
vn 0.6318 0.7585 0.1601
vn 0.6645 0.7464 -0.0358
vn 0.4144 0.7326 0.5399
vn 0.6298 0.7698 0.1038
vn -0.2679 0.7710 0.5777
vn -0.0126 0.9918 0.1270
vn 0.2408 0.6802 0.6923
vn -0.5507 0.7578 0.3499
vn -0.1815 0.9829 0.0321
vn -0.1983 0.7602 0.6187
vn -0.1705 0.7317 0.6600
vn -0.7711 0.6191 0.1489
vn 0.5048 0.5191 0.6897
vn -0.9251 0.0607 0.3747
vn 0.0588 0.1791 -0.9821
vn -0.5032 -0.0117 0.8641
vn -0.2998 0.9271 0.2250
vn -0.6318 0.7585 0.1601
vn -0.6645 0.7464 -0.0358
vn -0.4144 0.7326 0.5399
vn -0.6298 0.7698 0.1038
vn 0.2679 0.7710 -0.5777
vn 0.0126 0.9918 -0.1270
vn -0.2408 0.6802 -0.6923
vn 0.5507 0.7578 -0.3499
vn 0.1815 0.9829 -0.0321
vn 0.1983 0.7602 -0.6187
vn 0.1705 0.7317 -0.6600
vn 0.7711 0.6191 -0.1489
vn -0.5093 -0.3737 -0.7752
vn 0.8880 0.2231 -0.4020
vn 0.3263 0.3308 -0.8855
vn 0.2998 0.9271 -0.2250
vn 0.6318 0.7585 -0.1601
vn 0.6645 0.7464 0.0358
vn 0.4144 0.7326 -0.5399
vn 0.6298 0.7698 -0.1038
vn -0.2679 0.7710 -0.5777
vn -0.0126 0.9918 -0.1270
vn 0.2408 0.6802 -0.6923
vn -0.5507 0.7578 -0.3499
vn -0.1815 0.9829 -0.0321
vn -0.1983 0.7602 -0.6187
vn -0.1705 0.7317 -0.6600
vn -0.7711 0.6191 -0.1489
vn -0.5048 0.5191 0.6897
vn -0.8880 0.2231 -0.4020
vn -0.3263 0.3308 -0.8855
vn -0.2998 0.9271 -0.2250
vn -0.6318 0.7585 -0.1601
vn -0.6645 0.7464 0.0358
vn -0.4144 0.7326 -0.5399
vn -0.6298 0.7698 -0.1038
vn -0.0000 0.7983 -0.6023
vn -0.9223 0.2640 0.2823
vn -0.9256 -0.1259 -0.3569
vn 0.9223 0.2640 0.2823
vn 0.5093 -0.3737 -0.7752
vt 0.604468 0.273309
vt 0.449811 0.423016
vt 0.425861 0.404400
vt 0.573931 0.210835
vt 0.427085 0.450318
vt 0.378875 0.460656
vt 0.359897 0.364283
vt 0.375501 0.364860
vt 0.391107 0.365574
vt 0.387556 0.174004
vt 0.318683 0.154987
vt 0.842368 0.765758
vt 0.893125 0.761389
vt 0.886753 0.787973
vt 0.852517 0.796302
vt 0.678957 0.400679
vt 0.499859 0.477986
vt 0.477040 0.439019
vt 0.663517 0.310124
vt 0.521795 0.516781
vt 0.443297 0.532212
vt 0.505611 0.198490
vt 0.407347 0.386875
vt 0.452840 0.149915
vt 0.801801 0.064124
vt 0.740476 0.056598
vt 0.854750 0.056598
vt 0.824142 0.761389
vt 0.422172 0.509855
vt 0.386728 0.500346
vt 0.430150 0.534436
vt 0.744322 0.083663
vt 0.780664 0.078498
vt 0.798351 0.195202
vt 0.778517 0.189596
vt 0.403144 0.527501
vt 0.391506 0.518825
vt 0.409190 0.537616
vt 0.394157 0.538219
vt 0.394310 0.538061
vt 0.394159 0.538256
vt 0.394167 0.538260
vt 0.394290 0.538789
vt 0.861615 0.896412
vt 0.844461 0.892458
vt 0.394391 0.539457
vt 0.731344 0.475500
vt 0.099094 0.372826
vt 0.103665 0.303438
vt 0.314067 0.426414
vt 0.298963 0.452721
vt 0.330344 0.469368
vt 0.331506 0.377310
vt 0.345676 0.370733
vt 0.262162 0.198697
vt 0.791233 0.337901
vt 0.781084 0.368445
vt 0.746848 0.360117
vt 0.740476 0.333533
vt 0.078456 0.518928
vt 0.058411 0.429280
vt 0.279834 0.477853
vt 0.273493 0.522561
vt 0.267902 0.566777
vt 0.346390 0.551294
vt 0.162204 0.266113
vt 0.192619 0.201157
vt 0.324555 0.403178
vt 0.809459 0.333533
vt 0.357462 0.522598
vt 0.386655 0.500361
vt 0.359399 0.548367
vt 0.389238 0.519276
vt 0.381757 0.531715
vt 0.379996 0.543368
vt 0.394171 0.538254
vt 0.394156 0.538257
vt 0.394233 0.538800
vt 0.394140 0.538223
vt 0.789140 0.464602
vt 0.771985 0.468556
vt 0.058348 0.608025
vt 0.690673 0.710744
vt 0.686115 0.780156
vt 0.475659 0.657199
vt 0.490761 0.630882
vt 0.459370 0.614250
vt 0.458227 0.706317
vt 0.444047 0.712898
vt 0.429816 0.719349
vt 0.410851 0.623042
vt 0.527583 0.884963
vt 0.471038 0.928688
vt 0.711266 0.564604
vt 0.731344 0.654263
vt 0.509888 0.605733
vt 0.516223 0.560999
vt 0.627569 0.817510
vt 0.597148 0.882490
vt 0.465175 0.680443
vt 0.877092 0.495561
vt 0.824142 0.488036
vt 0.938417 0.488036
vt 0.432201 0.560940
vt 0.403083 0.583491
vt 0.430324 0.534986
vt 0.934570 0.515101
vt 0.937895 0.626366
vt 0.920408 0.615455
vt 0.898228 0.509935
vt 0.400243 0.564905
vt 0.407730 0.551414
vt 0.409655 0.539462
vt 0.394133 0.538139
vt 0.393939 0.538135
vt 0.394153 0.538258
vt 0.394154 0.538250
vt 0.185171 0.810286
vt 0.339880 0.660594
vt 0.363832 0.679219
vt 0.215705 0.872788
vt 0.362621 0.633302
vt 0.414201 0.718775
vt 0.398584 0.718062
vt 0.402137 0.909665
vt 0.110709 0.682864
vt 0.289823 0.605581
vt 0.312645 0.644574
vt 0.126123 0.773442
vt 0.284042 0.885156
vt 0.382345 0.696754
vt 0.336828 0.933751
vt 0.367551 0.573671
vt 0.403044 0.583500
vt 0.359447 0.548942
vt 0.386586 0.555580
vt 0.398628 0.565227
vt 0.380275 0.545249
vt 0.394141 0.538260
vt 0.394156 0.538257
vt 0.394147 0.538263
s 0
f 30/1/1 27/2/1 1/3/1 5/4/1
f 16/5/2 9/6/2 3/7/2 28/8/2 12/9/2
f 29/10/3 28/8/3 3/7/3 7/11/3
f 18/12/4 4/13/4 19/14/4 21/15/4
f 32/16/5 31/17/5 8/18/5 10/19/5
f 2/20/6 11/21/6 16/5/6 8/18/6 31/17/6
f 34/22/7 33/23/7 12/9/7 13/24/7
f 27/2/8 33/23/8 1/3/8
f 17/25/9 4/26/9 9/27/9
f 4/13/4 18/12/4 11/28/4
f 14/29/10 17/30/10 9/6/10 16/5/10
f 18/31/10 14/29/10 16/5/10 11/21/10
f 19/32/9 20/33/9 24/34/9 23/35/9
f 17/30/11 14/29/11 22/36/11 20/37/11
f 4/26/9 17/25/9 20/33/9 19/32/9
f 14/29/12 18/31/12 21/38/12 22/36/12
f 25/39/13 74/40/13 107/41/13 102/42/13
f 22/36/14 21/38/14 25/39/14 26/43/14
f 21/15/15 19/14/15 23/44/15 25/45/15
f 20/37/16 22/36/16 26/43/16 24/46/16
f 8/18/17 16/5/17 12/9/17 33/23/17 27/2/17
f 5/4/18 1/3/18 33/23/18 34/22/18
f 6/47/19 2/20/19 31/17/19 32/16/19
f 13/24/20 12/9/20 28/8/20 29/10/20
f 10/19/21 8/18/21 27/2/21 30/1/21
f 54/48/22 37/49/22 35/50/22 51/51/22
f 45/52/23 42/53/23 52/54/23 3/7/23 9/6/23
f 53/55/24 7/11/24 3/7/24 52/54/24
f 46/56/4 47/57/4 19/58/4 4/59/4
f 56/60/25 40/61/25 39/62/25 55/63/25
f 36/64/26 55/63/26 39/62/26 45/52/26 41/65/26
f 58/66/27 43/67/27 42/53/27 57/68/27
f 51/51/8 35/50/8 57/68/8
f 4/59/4 41/69/4 46/56/4
f 44/70/10 45/52/10 9/6/10 17/71/10
f 46/72/10 41/65/10 45/52/10 44/70/10
f 17/71/28 20/73/28 48/74/28 44/70/28
f 44/70/29 48/74/29 47/75/29 46/72/29
f 24/46/30 26/43/30 103/76/30 101/77/30
f 48/74/31 50/78/31 49/79/31 47/75/31
f 47/57/32 49/80/32 23/81/32 19/58/32
f 20/73/33 24/46/33 50/78/33 48/74/33
f 39/62/34 51/51/34 57/68/34 42/53/34 45/52/34
f 37/49/35 58/66/35 57/68/35 35/50/35
f 38/82/36 56/60/36 55/63/36 36/64/36
f 43/67/37 53/55/37 52/54/37 42/53/37
f 40/61/38 54/48/38 51/51/38 39/62/38
f 78/83/39 61/84/39 59/85/39 75/86/39
f 69/87/40 66/88/40 76/89/40 60/90/40 64/91/40
f 77/92/41 62/93/41 60/90/41 76/89/41
f 80/94/42 65/95/42 63/96/42 79/97/42
f 2/20/43 79/97/43 63/96/43 69/87/43 11/21/43
f 82/98/44 67/99/44 66/88/44 81/100/44
f 75/86/8 59/85/8 81/100/8
f 70/101/9 64/102/9 4/103/9
f 68/104/10 69/87/10 64/91/10 70/105/10
f 18/106/10 11/21/10 69/87/10 68/104/10
f 19/107/9 23/108/9 73/109/9 71/110/9
f 70/105/45 71/111/45 72/112/45 68/104/45
f 4/103/9 19/107/9 71/110/9 70/101/9
f 68/104/46 72/112/46 21/113/46 18/106/46
f 73/114/47 92/115/47 108/116/47 106/117/47
f 72/112/48 74/40/48 25/39/48 21/113/48
f 71/111/49 73/114/49 74/40/49 72/112/49
f 63/96/50 75/86/50 81/100/50 66/88/50 69/87/50
f 61/84/51 82/98/51 81/100/51 59/85/51
f 6/47/52 80/94/52 79/97/52 2/20/52
f 67/99/53 77/92/53 76/89/53 66/88/53
f 65/95/54 78/83/54 75/86/54 63/96/54
f 96/118/55 93/119/55 83/120/55 84/121/55
f 90/122/56 64/91/56 60/90/56 94/123/56 87/124/56
f 95/125/57 94/123/57 60/90/57 62/93/57
f 98/126/58 97/127/58 85/128/58 86/129/58
f 36/64/59 41/65/59 90/122/59 85/128/59 97/127/59
f 100/130/60 99/131/60 87/124/60 88/132/60
f 93/119/8 99/131/8 83/120/8
f 89/133/10 70/134/10 64/91/10 90/122/10
f 46/135/10 89/133/10 90/122/10 41/65/10
f 70/134/61 89/133/61 91/136/61 71/137/61
f 89/133/62 46/135/62 47/138/62 91/136/62
f 50/78/63 24/46/63 101/77/63 105/139/63
f 91/136/64 47/138/64 49/79/64 92/115/64
f 71/137/65 91/136/65 92/115/65 73/114/65
f 85/128/66 90/122/66 87/124/66 99/131/66 93/119/66
f 84/121/67 83/120/67 99/131/67 100/130/67
f 38/82/68 36/64/68 97/127/68 98/126/68
f 88/132/69 87/124/69 94/123/69 95/125/69
f 86/129/70 85/128/70 93/119/70 96/118/70
f 102/42/71 15/140/71 101/77/71 103/76/71
f 104/141/71 105/139/71 101/77/71 15/140/71
f 102/42/71 107/41/71 106/117/71 15/140/71
f 104/141/71 15/140/71 106/117/71 108/116/71
f 49/79/72 50/78/72 105/139/72 104/141/72
f 92/115/73 49/79/73 104/141/73 108/116/73
f 26/43/74 25/39/74 102/42/74 103/76/74
f 74/40/75 73/114/75 106/117/75 107/41/75
