# Blender 4.2.1 LTS
# www.blender.org
mtllib sombreroPirata.mtl
o Cube
v -0.245325 3.655259 1.099447
v -0.499394 3.909962 1.004631
v 0.302797 3.655259 1.099447
v 0.556866 3.909962 1.004631
v -0.860924 3.813285 0.000000
v -1.011451 4.143051 0.000000
v 0.918397 3.813285 0.000000
v 1.068923 4.143051 0.000000
v -0.236809 3.868594 1.437758
v -0.165509 4.143051 1.587883
v 0.294281 3.868594 1.437758
v 0.222981 4.143051 1.587883
v -0.245325 3.655259 -1.099447
v -0.499394 3.909962 -1.004631
v 0.302797 3.655259 -1.099447
v 0.556866 3.909962 -1.004631
v -0.236809 3.868594 -1.437758
v -0.165509 4.143051 -1.587883
v 0.294281 3.868594 -1.437758
v 0.222981 4.143051 -1.587883
vn 0.7991 -0.4988 0.3356
vn 0.8203 -0.3320 0.4656
vn -0.0000 -0.9898 -0.1423
vn -0.0000 0.9741 0.2260
vn -0.7991 -0.4988 0.3356
vn -0.0000 -0.4799 0.8773
vn -0.8203 -0.3320 0.4656
vn -0.0000 -0.8459 0.5334
vn -0.0000 0.9286 -0.3711
vn 0.7991 -0.4988 -0.3356
vn 0.8203 -0.3320 -0.4656
vn -0.0000 -0.9898 0.1423
vn -0.0000 0.9741 -0.2260
vn -0.7991 -0.4988 -0.3356
vn -0.0000 -0.4799 -0.8773
vn -0.8203 -0.3320 -0.4656
vn -0.0000 -0.8459 -0.5334
vn -0.0000 0.9286 0.3711
vt 0.325101 0.366220
vt 0.253619 0.366220
vt 0.337362 0.155172
vt 0.405982 0.129222
vt 0.323153 0.015625
vt 0.368371 0.059879
vt 0.269336 0.733565
vt 0.050689 0.739138
vt 0.122856 0.600719
vt 0.190211 0.599002
vt 0.979719 0.577130
vt 0.559095 0.574361
vt 0.663999 0.366524
vt 0.877561 0.367930
vt 0.452857 0.117503
vt 0.521478 0.143454
vt 0.605220 0.354502
vt 0.533739 0.354502
vt 0.122650 0.551545
vt 0.130432 0.512880
vt 0.178170 0.511663
vt 0.187912 0.549881
vt 0.490469 0.048160
vt 0.535687 0.003906
vt 0.732342 0.239974
vt 0.810889 0.240491
vt 0.405982 0.603219
vt 0.337362 0.577268
vt 0.368371 0.672562
vt 0.323152 0.716816
vt 0.197169 0.871984
vt 0.129815 0.873701
vt 0.874816 0.784967
vt 0.661254 0.783562
vt 0.452857 0.591500
vt 0.521478 0.565550
vt 0.132114 0.922822
vt 0.197375 0.921158
vt 0.189594 0.959823
vt 0.141855 0.961040
vt 0.535687 0.705097
vt 0.490469 0.660843
vt 0.806473 0.911517
vt 0.727925 0.911000
s 0
f 7/1/1 8/2/1 4/3/1 3/4/1
f 3/4/2 4/3/2 12/5/2 11/6/2
f 5/7/3 7/8/3 3/9/3 1/10/3
f 8/11/4 6/12/4 2/13/4 4/14/4
f 1/15/5 2/16/5 6/17/5 5/18/5
f 11/19/6 12/20/6 10/21/6 9/22/6
f 2/16/7 1/15/7 9/23/7 10/24/7
f 1/10/8 3/9/8 11/19/8 9/22/8
f 4/14/9 2/13/9 10/25/9 12/26/9
f 7/1/10 15/27/10 16/28/10 8/2/10
f 15/27/11 19/29/11 20/30/11 16/28/11
f 5/7/12 13/31/12 15/32/12 7/8/12
f 8/11/13 16/33/13 14/34/13 6/12/13
f 13/35/14 5/18/14 6/17/14 14/36/14
f 19/37/15 17/38/15 18/39/15 20/40/15
f 14/36/16 18/41/16 17/42/16 13/35/16
f 13/31/17 17/38/17 19/37/17 15/32/17
f 16/33/18 20/43/18 18/44/18 14/34/18
o Cube.001
v -0.108514 3.831079 1.062540
v -0.186550 4.707797 0.759525
v 0.165987 3.831079 1.062540
v 0.244022 4.707797 0.759525
v -0.791063 3.943014 0.000000
v -0.117298 4.969533 0.000000
v 0.848535 3.943014 0.000000
v 0.174770 4.969533 0.000000
v 0.197854 5.037192 0.145833
v 0.220938 4.913808 0.426519
v -0.163466 4.913808 0.426519
v -0.140382 5.037192 0.145833
v -0.108514 3.831079 -1.062540
v -0.186550 4.707797 -0.759525
v 0.165987 3.831079 -1.062540
v 0.244022 4.707797 -0.759525
v 0.197854 5.037192 -0.145833
v 0.220938 4.913808 -0.426519
v -0.163466 4.913808 -0.426519
v -0.140382 5.037192 -0.145833
vn 0.8874 0.3120 0.3395
vn -0.0000 0.3267 0.9451
vn -0.0000 -0.9945 -0.1048
vn -0.0000 0.8504 0.5261
vn -0.8874 0.3120 0.3395
vn -0.0000 0.9071 -0.4209
vn -0.0000 0.9155 0.4024
vn 0.8874 0.3120 -0.3395
vn -0.0000 0.3267 -0.9451
vn -0.0000 -0.9945 0.1048
vn -0.0000 0.8504 -0.5261
vn -0.8874 0.3120 -0.3395
vn -0.0000 0.9071 0.4209
vn -0.0000 0.9155 -0.4024
vt 0.607186 0.059892
vt 0.653745 0.398790
vt 0.614715 0.421681
vt 0.533278 0.395116
vt 0.431292 0.355857
vt 0.267063 0.155146
vt 0.082069 0.203125
vt 0.309268 0.303782
vt 0.238400 0.388393
vt 0.046875 0.267398
vt 0.765059 0.939178
vt 0.869395 0.775856
vt 0.932387 0.911835
vt 0.914919 0.939178
vt 0.386952 0.394409
vt 0.296344 0.455744
vt 0.340048 0.503480
vt 0.341178 0.544424
vt 0.046875 0.612851
vt 0.422998 0.529326
vt 0.421372 0.485255
vt 0.960396 0.059892
vt 0.856378 0.297457
vt 0.768759 0.362765
vt 0.697502 0.410307
vt 0.262357 0.952562
vt 0.204202 0.913311
vt 0.316772 0.725775
vt 0.411529 0.767199
vt 0.702066 0.803200
vt 0.719534 0.775856
vt 0.437330 0.659776
vt 0.339692 0.643363
vt 0.357106 0.582214
vt 0.438396 0.571780
s 0
f 27/45/19 28/46/19 29/47/19 30/48/19 24/49/19 23/50/19
f 23/51/20 24/52/20 22/53/20 21/54/20
f 25/55/21 27/56/21 23/57/21 21/58/21
f 30/59/22 31/60/22 22/53/22 24/52/22
f 21/54/23 22/53/23 31/60/23 32/61/23 26/62/23 25/63/23
f 28/64/24 26/62/24 32/61/24 29/65/24
f 29/65/25 32/61/25 31/60/25 30/59/25
f 27/45/26 35/66/26 36/67/26 38/68/26 37/69/26 28/46/26
f 35/70/27 33/71/27 34/72/27 36/73/27
f 25/55/28 33/74/28 35/75/28 27/56/28
f 38/76/29 36/73/29 34/72/29 39/77/29
f 33/71/30 25/63/30 26/62/30 40/78/30 39/77/30 34/72/30
f 28/64/31 37/79/31 40/78/31 26/62/31
f 37/79/32 38/76/32 39/77/32 40/78/32
