# Blender 4.2.1 LTS
# www.blender.org
mtllib sombreroMuerte.mtl
o Cube.001
v -0.896028 1.774172 0.909997
v -0.906429 2.803796 0.889325
v 0.641076 2.174388 1.146365
v 0.770890 3.473576 0.979317
v -1.238022 1.847355 0.000000
v -1.004578 3.978637 0.000000
v 0.557530 2.142491 0.000000
v 1.000000 3.978637 0.000000
v -1.091049 1.934679 0.646365
v 1.000000 3.862040 0.434394
v -1.000000 3.630593 0.422244
v 0.623273 2.334894 0.924189
v -0.483612 1.905488 1.181202
v 0.000000 2.079189 1.146365
v 0.500000 2.079099 1.146365
v 0.286973 3.403017 1.182472
v -0.016933 3.338250 1.282364
v -0.338471 3.290783 1.175599
v -0.370078 4.187091 0.000000
v 0.000000 4.286686 0.000000
v 0.500000 4.187091 0.000000
v 0.081348 2.155578 0.000000
v 0.000000 2.160213 0.000000
v -0.500000 2.034878 0.000000
v -0.500000 4.052858 0.422244
v 0.000000 4.170633 0.422244
v 0.500000 3.992071 0.422244
v 0.081348 2.252473 0.646365
v 0.000000 2.260953 0.646365
v -0.500000 2.131773 0.646365
v 0.212191 3.424439 0.754960
v 0.606095 3.643239 0.594677
v 0.437781 3.687448 0.000000
v -0.896028 1.774172 -0.909997
v -0.906429 2.803796 -0.889325
v 0.641076 2.174388 -1.146365
v 0.770890 3.473576 -0.979317
v -1.091049 1.934679 -0.646365
v 1.000000 3.862040 -0.434394
v -1.000000 3.630593 -0.422244
v 0.623273 2.334894 -0.924189
v -0.483612 1.905488 -1.181202
v 0.000000 2.079189 -1.146365
v 0.500000 2.079099 -1.146365
v 0.286973 3.403017 -1.182472
v -0.016933 3.338250 -1.282364
v -0.338471 3.290783 -1.175599
v -0.500000 4.052858 -0.422244
v 0.000000 4.170633 -0.422244
v 0.500000 3.992071 -0.422244
v 0.081348 2.252473 -0.646365
v 0.000000 2.260953 -0.646365
v -0.500000 2.131773 -0.646365
v 0.212191 3.424439 -0.754960
v 0.606095 3.643239 -0.594677
vn 0.2671 -0.8342 -0.4824
vn -0.5119 0.0379 0.8582
vn 0.4173 -0.7022 -0.5769
vn -0.5645 0.4439 0.6959
vn -0.9824 0.0928 0.1620
vn -0.8942 0.0662 0.4426
vn -0.4469 0.8038 0.3927
vn 0.0177 -0.9834 0.1804
vn 0.4474 -0.8638 -0.2318
vn 0.2765 -0.9553 0.1047
vn 0.2440 -0.9586 0.1466
vn -0.0794 -0.9854 0.1506
vn 0.2995 0.8966 0.3262
vn 0.2526 0.9079 0.3344
vn -0.2351 0.9412 0.2428
vn 0.1677 0.7610 0.6267
vn 0.1851 0.7256 0.6628
vn -0.2275 0.6824 0.6947
vn 0.3875 -0.7852 -0.4830
vn 0.2633 -0.8960 -0.3575
vn -0.0139 -0.9441 -0.3294
vn 0.2949 0.0570 0.9538
vn 0.1275 -0.0546 0.9903
vn -0.0765 -0.0454 0.9960
vn 0.4188 -0.8891 -0.1846
vn 0.9482 0.0735 0.3089
vn 0.9338 0.3313 -0.1354
vn 0.3729 -0.0034 -0.9279
vn 0.9792 -0.1190 -0.1644
vn 0.2671 -0.8342 0.4824
vn -0.5119 0.0379 -0.8582
vn 0.4173 -0.7022 0.5769
vn -0.5645 0.4439 -0.6959
vn -0.9824 0.0928 -0.1620
vn -0.8942 0.0662 -0.4426
vn -0.4469 0.8038 -0.3927
vn 0.0177 -0.9834 -0.1804
vn 0.4474 -0.8638 0.2318
vn 0.2765 -0.9553 -0.1047
vn 0.2440 -0.9586 -0.1466
vn -0.0794 -0.9854 -0.1506
vn 0.2995 0.8966 -0.3262
vn 0.2526 0.9079 -0.3344
vn -0.2351 0.9412 -0.2428
vn 0.1677 0.7610 -0.6267
vn 0.1851 0.7256 -0.6628
vn -0.2275 0.6824 -0.6947
vn 0.3875 -0.7852 0.4830
vn 0.2633 -0.8960 0.3575
vn -0.0139 -0.9441 0.3294
vn 0.2949 0.0570 -0.9538
vn 0.1275 -0.0546 -0.9903
vn -0.0765 -0.0454 -0.9960
vn 0.4188 -0.8891 0.1846
vn 0.9482 0.0735 -0.3089
vn 0.9338 0.3313 0.1354
vn 0.3729 -0.0034 0.9279
vn 0.9792 -0.1190 0.1644
vt 0.795956 0.379270
vt 0.775928 0.309159
vt 0.848811 0.278803
vt 0.201382 0.899878
vt 0.242391 0.670016
vt 0.301164 0.772641
vt 0.252456 0.938168
vt 0.604520 0.785330
vt 0.696034 0.832614
vt 0.692502 0.874557
vt 0.665721 0.876573
vt 0.527000 0.067950
vt 0.522557 0.146575
vt 0.414637 0.263614
vt 0.373531 0.163379
vt 0.426399 0.417136
vt 0.603809 0.104292
vt 0.531243 0.456216
vt 0.373531 0.430510
vt 0.597514 0.057874
vt 0.600639 0.682491
vt 0.677625 0.686825
vt 0.750302 0.208728
vt 0.853482 0.203643
vt 0.373531 0.681943
vt 0.501175 0.681746
vt 0.505056 0.784585
vt 0.400953 0.786304
vt 0.587583 0.681670
vt 0.591619 0.784382
vt 0.363251 0.122554
vt 0.285497 0.106451
vt 0.269318 0.070898
vt 0.348292 0.077320
vt 0.205559 0.101563
vt 0.190964 0.057874
vt 0.142916 0.115804
vt 0.106665 0.075384
vt 0.034757 0.511694
vt 0.119562 0.513608
vt 0.148790 0.623285
vt 0.069367 0.588377
vt 0.206979 0.507783
vt 0.196892 0.648321
vt 0.280673 0.549696
vt 0.498659 0.880012
vt 0.426268 0.836501
vt 0.584338 0.872476
vt 0.034757 0.804727
vt 0.052676 0.826551
vt 0.131828 0.849477
vt 0.703046 0.339515
vt 0.754525 0.492360
vt 0.952842 0.650171
vt 0.696034 0.611541
vt 0.945234 0.492360
vt 0.797730 0.474408
vt 0.703046 0.474408
vt 0.703210 0.379270
vt 0.334591 0.507783
vt 0.334591 0.724146
vt 0.301164 0.692484
vt 0.795956 0.057874
vt 0.848811 0.136242
vt 0.775928 0.113996
vt 0.112854 0.507783
vt 0.034757 0.490004
vt 0.053108 0.381303
vt 0.164266 0.362747
vt 0.342270 0.828812
vt 0.301164 0.749366
vt 0.313866 0.724146
vt 0.342270 0.730065
vt 0.131199 0.186678
vt 0.040792 0.235562
vt 0.636016 0.461067
vt 0.659491 0.175274
vt 0.668644 0.492360
vt 0.703046 0.324059
vt 0.034757 0.144103
vt 0.604520 0.573203
vt 0.696034 0.529310
vt 0.400953 0.574177
vt 0.505056 0.572459
vt 0.591619 0.572255
vt 0.373531 0.191816
vt 0.293851 0.182192
vt 0.215497 0.169168
vt 0.344024 0.306120
vt 0.269210 0.345365
vt 0.221011 0.368470
vt 0.426268 0.537855
vt 0.498659 0.492360
vt 0.584337 0.496257
vt 0.665721 0.500355
vt 0.301541 0.463395
vt 0.276511 0.474730
vt 0.194577 0.480095
vt 0.703046 0.091749
vt 0.716874 0.742655
vt 0.899143 0.798760
vt 0.894794 0.245968
vt 0.853482 0.057874
vt 0.952755 0.057874
vt 0.334591 0.507783
vt 0.368019 0.692484
vt 0.334591 0.724146
s 0
f 4/1/1 32/2/1 10/3/1
f 13/4/2 18/5/2 2/6/2 1/7/2
f 28/8/3 12/9/3 3/10/3 15/11/3
f 25/12/4 11/13/4 2/14/4 18/15/4
f 9/16/5 11/13/5 6/17/5 5/18/5
f 1/19/6 2/14/6 11/13/6 9/16/6
f 19/20/7 6/17/7 11/13/7 25/12/7
f 22/21/8 7/22/8 12/9/8 28/8/8
f 33/23/9 8/24/9 10/3/9
f 5/25/10 24/26/10 30/27/10 9/28/10
f 24/26/11 23/29/11 29/30/11 30/27/11
f 23/29/12 22/21/12 28/8/12 29/30/12
f 8/31/13 21/32/13 27/33/13 10/34/13
f 21/32/14 20/35/14 26/36/14 27/33/14
f 20/35/15 19/37/15 25/38/15 26/36/15
f 10/39/16 27/40/16 16/41/16 4/42/16
f 27/40/17 26/43/17 17/44/17 16/41/17
f 26/43/18 25/45/18 18/5/18 17/44/18
f 9/28/19 30/27/19 13/46/19 1/47/19
f 30/27/20 29/30/20 14/48/20 13/46/20
f 29/30/21 28/8/21 15/11/21 14/48/21
f 3/49/22 4/42/22 16/41/22 15/50/22
f 15/50/23 16/41/23 17/44/23 14/51/23
f 14/51/24 17/44/24 18/5/24 13/4/24
f 33/23/25 10/3/25 32/2/25
f 31/52/25 33/23/25 32/2/25
f 31/53/26 7/54/26 33/55/26
f 12/56/27 7/54/27 31/53/27
f 32/2/1 4/1/1 31/52/1
f 12/57/28 31/58/28 4/59/28
f 4/60/29 3/61/29 12/62/29
f 37/63/30 39/64/30 55/65/30
f 42/66/31 34/67/31 35/68/31 47/69/31
f 51/70/32 44/71/32 36/72/32 41/73/32
f 48/74/33 47/69/33 35/68/33 40/75/33
f 38/76/34 5/18/34 6/17/34 40/77/34
f 34/78/35 38/76/35 40/77/35 35/79/35
f 19/37/36 48/74/36 40/75/36 6/80/36
f 22/21/37 51/81/37 41/82/37 7/22/37
f 33/23/38 39/64/38 8/24/38
f 5/25/39 38/83/39 53/84/39 24/26/39
f 24/26/40 53/84/40 52/85/40 23/29/40
f 23/29/41 52/85/41 51/81/41 22/21/41
f 8/31/42 39/86/42 50/87/42 21/32/42
f 21/32/43 50/87/43 49/88/43 20/35/43
f 20/35/44 49/88/44 48/74/44 19/37/44
f 39/86/45 37/89/45 45/90/45 50/87/45
f 50/87/46 45/90/46 46/91/46 49/88/46
f 49/88/47 46/91/47 47/69/47 48/74/47
f 38/83/48 34/92/48 42/93/48 53/84/48
f 53/84/49 42/93/49 43/94/49 52/85/49
f 52/85/50 43/94/50 44/95/50 51/81/50
f 36/96/51 44/97/51 45/90/51 37/89/51
f 44/97/52 43/98/52 46/91/52 45/90/52
f 43/98/53 42/66/53 47/69/53 46/91/53
f 33/23/54 55/65/54 39/64/54
f 54/99/54 55/65/54 33/23/54
f 54/100/55 33/55/55 7/54/55
f 41/101/56 54/100/56 7/54/56
f 55/65/30 54/99/30 37/63/30
f 41/102/57 37/103/57 54/104/57
f 37/105/58 41/106/58 36/107/58
