# Blender 4.2.1 LTS
# www.blender.org
mtllib sombreroDiablo.mtl
o diabloCuernos
v -0.021485 3.841136 -0.666967
v -0.021485 4.120434 -0.763921
v 0.079922 3.864123 -0.631812
v 0.029218 4.131927 -0.746343
v 0.121926 3.919620 -0.546939
v 0.050220 4.159676 -0.703907
v 0.079922 3.975116 -0.462066
v 0.029218 4.187424 -0.661470
v -0.021485 3.998103 -0.426911
v -0.021485 4.198918 -0.643893
v -0.122891 3.975116 -0.462066
v -0.072188 4.187424 -0.661470
v -0.164895 3.919620 -0.546939
v -0.093190 4.159676 -0.703907
v -0.122891 3.864123 -0.631812
v -0.072188 4.131927 -0.746343
v -0.079209 4.404886 -0.748174
v -0.056649 4.410000 -0.740353
v -0.047304 4.422346 -0.721471
v -0.056649 4.434692 -0.702590
v -0.079209 4.439806 -0.694769
v -0.101768 4.434692 -0.702590
v -0.111113 4.422346 -0.721471
v -0.101768 4.410000 -0.740353
v -0.021485 3.841136 0.666967
v -0.021485 4.120434 0.763921
v 0.079922 3.864123 0.631812
v 0.029218 4.131927 0.746343
v 0.121926 3.919620 0.546939
v 0.050220 4.159676 0.703907
v 0.079922 3.975116 0.462066
v 0.029218 4.187424 0.661470
v -0.021485 3.998103 0.426911
v -0.021485 4.198918 0.643893
v -0.122891 3.975116 0.462066
v -0.072188 4.187424 0.661470
v -0.164895 3.919620 0.546939
v -0.093190 4.159676 0.703907
v -0.122891 3.864123 0.631812
v -0.072188 4.131927 0.746343
v -0.079209 4.404886 0.748174
v -0.056649 4.410000 0.740353
v -0.047304 4.422346 0.721471
v -0.056649 4.434692 0.702590
v -0.079209 4.439806 0.694769
v -0.101768 4.434692 0.702590
v -0.111113 4.422346 0.721471
v -0.101768 4.410000 0.740353
vn 0.3729 -0.3043 -0.8766
vn 0.9002 -0.0157 -0.4352
vn 0.9002 0.3924 0.1889
vn 0.3729 0.6810 0.6303
vn -0.3729 0.6810 0.6303
vn -0.9002 0.3924 0.1889
vn -0.3305 -0.0148 -0.9437
vn -0.9002 -0.0157 -0.4352
vn -0.3729 -0.3043 -0.8766
vn -0.0000 -0.8370 0.5473
vn -0.0000 0.8370 -0.5473
vn 0.3023 0.1137 -0.9464
vn 0.9097 0.3524 0.2197
vn -0.8879 -0.0299 0.4590
vn 0.3701 0.2760 0.8870
vn -0.9146 -0.0888 -0.3946
vn 0.7895 0.2558 -0.5580
vn -0.3482 0.1131 0.9306
vn 0.3729 -0.3043 0.8766
vn 0.9002 -0.0157 0.4352
vn 0.9002 0.3924 -0.1889
vn 0.3729 0.6810 -0.6303
vn -0.3729 0.6810 -0.6303
vn -0.9002 0.3924 -0.1889
vn -0.3305 -0.0148 0.9437
vn -0.9002 -0.0157 0.4352
vn -0.3729 -0.3043 0.8766
vn -0.0000 -0.8370 -0.5473
vn -0.0000 0.8370 0.5473
vn 0.3023 0.1137 0.9464
vn 0.9097 0.3524 -0.2197
vn -0.8879 -0.0299 -0.4590
vn 0.3701 0.2760 -0.8870
vn -0.9146 -0.0888 0.3946
vn 0.7895 0.2558 0.5580
vn -0.3482 0.1131 -0.9306
vt 0.505175 0.279504
vt 0.331576 0.372337
vt 0.310622 0.341358
vt 0.463127 0.217020
vt 0.279935 0.318039
vt 0.412993 0.165592
vt 0.243244 0.303196
vt 0.355123 0.123323
vt 0.200954 0.289478
vt 0.301716 0.092686
vt 0.160119 0.268881
vt 0.245686 0.066490
vt 0.122277 0.245063
vt 0.189040 0.045190
vt 0.051548 0.216169
vt 0.087669 0.225777
vt 0.064653 0.425501
vt 0.048741 0.418115
vt 0.120667 0.027512
vt 0.048741 0.021854
vt 0.499778 0.562587
vt 0.559075 0.503290
vt 0.642934 0.503290
vt 0.702232 0.562587
vt 0.702232 0.646447
vt 0.642934 0.705744
vt 0.559075 0.705744
vt 0.499778 0.646447
vt 0.215646 0.549023
vt 0.202454 0.535831
vt 0.202454 0.517175
vt 0.215645 0.503984
vt 0.234301 0.503983
vt 0.247493 0.517175
vt 0.247493 0.535831
vt 0.234302 0.549023
vt 0.162594 0.482129
vt 0.152827 0.468302
vt 0.137339 0.460032
vt 0.120662 0.457026
vt 0.089798 0.447344
vt 0.077307 0.436779
vt 0.104640 0.454086
vt 0.525872 0.277775
vt 0.565849 0.217831
vt 0.717225 0.339641
vt 0.696632 0.370003
vt 0.618150 0.165313
vt 0.746651 0.317390
vt 0.670227 0.126523
vt 0.783961 0.302703
vt 0.726843 0.093967
vt 0.823767 0.287955
vt 0.781534 0.068926
vt 0.863988 0.267743
vt 0.836799 0.048494
vt 0.901167 0.244374
vt 0.970428 0.216081
vt 0.973906 0.413806
vt 0.958345 0.421099
vt 0.935083 0.225482
vt 0.903616 0.031510
vt 0.973906 0.026254
vt 0.387012 0.834159
vt 0.327715 0.893456
vt 0.243856 0.893456
vt 0.184559 0.834159
vt 0.184559 0.750300
vt 0.243856 0.691003
vt 0.327715 0.691003
vt 0.387012 0.750300
vt 0.349130 0.565360
vt 0.335939 0.578552
vt 0.317283 0.578552
vt 0.304091 0.565361
vt 0.304091 0.546704
vt 0.317282 0.533513
vt 0.335938 0.533512
vt 0.349130 0.546704
vt 0.872197 0.463448
vt 0.862671 0.477036
vt 0.903571 0.452258
vt 0.887345 0.455246
vt 0.945988 0.432200
vt 0.933790 0.442612
vt 0.919273 0.449288
s 0
f 1/1/1 2/2/1 4/3/1 3/4/1
f 3/4/2 4/3/2 6/5/2 5/6/2
f 5/6/3 6/5/3 8/7/3 7/8/3
f 7/8/4 8/7/4 10/9/4 9/10/4
f 9/10/5 10/9/5 12/11/5 11/12/5
f 11/12/6 12/11/6 14/13/6 13/14/6
f 2/15/7 16/16/7 24/17/7 17/18/7
f 13/14/8 14/13/8 16/16/8 15/19/8
f 15/19/9 16/16/9 2/15/9 1/20/9
f 1/21/10 3/22/10 5/23/10 7/24/10 9/25/10 11/26/10 13/27/10 15/28/10
f 18/29/11 17/30/11 24/31/11 23/32/11 22/33/11 21/34/11 20/35/11 19/36/11
f 4/3/12 2/2/12 17/37/12 18/38/12
f 8/7/13 6/5/13 19/39/13 20/40/13
f 14/13/14 12/11/14 22/41/14 23/42/14
f 10/9/15 8/7/15 20/40/15 21/43/15
f 16/16/16 14/13/16 23/42/16 24/17/16
f 6/5/17 4/3/17 18/38/17 19/39/17
f 12/11/18 10/9/18 21/43/18 22/41/18
f 25/44/19 27/45/19 28/46/19 26/47/19
f 27/45/20 29/48/20 30/49/20 28/46/20
f 29/48/21 31/50/21 32/51/21 30/49/21
f 31/50/22 33/52/22 34/53/22 32/51/22
f 33/52/23 35/54/23 36/55/23 34/53/23
f 35/54/24 37/56/24 38/57/24 36/55/24
f 26/58/25 41/59/25 48/60/25 40/61/25
f 37/56/26 39/62/26 40/61/26 38/57/26
f 39/62/27 25/63/27 26/58/27 40/61/27
f 25/64/28 39/65/28 37/66/28 35/67/28 33/68/28 31/69/28 29/70/28 27/71/28
f 42/72/29 43/73/29 44/74/29 45/75/29 46/76/29 47/77/29 48/78/29 41/79/29
f 28/46/30 42/80/30 41/81/30 26/47/30
f 32/51/31 44/82/31 43/83/31 30/49/31
f 38/57/32 47/84/32 46/85/32 36/55/32
f 34/53/33 45/86/33 44/82/33 32/51/33
f 40/61/34 48/60/34 47/84/34 38/57/34
f 30/49/35 43/83/35 42/80/35 28/46/35
f 36/55/36 46/85/36 45/86/36 34/53/36
