<?xml version="1.0" encoding="UTF-8"?>
<svg id="Layer_2" data-name="Layer 2" xmlns="http://www.w3.org/2000/svg" width="567.6" height="158.2" viewBox="0 0 567.6 158.2">
  <defs>
    <style>
      .cls-1 {
        fill: #7d89a2;
      }

      .cls-2 {
        fill: #0058c1;
      }

      .cls-3 {
        fill: #78b8ef;
      }

      .cls-4 {
        fill: #007ee0;
      }
    </style>
  </defs>
  <g id="Top">
    <g>
      <path d="m268.1.2c89.1,0,162.8,0,236.4,0,9.4,0,18.7,1.2,27.6,4.9,14.3,6,21.8,17.9,27.2,31.2,5.7,14.1,8.8,29.2,8.2,44.3-.7,19.8-4.9,39.1-16,56.2-7.1,10.9-17.5,16.7-30,19.3-9.3,1.9-18.7,2.1-28.1,2.1-143.7,0-287.4,0-431.1-.2-15.8,0-31-3.3-42.2-16-6.2-7.2-10.4-15.6-13.4-24.6C2.4,104.2-.6,90.6.1,76.8c1.1-20.7,5.3-40.8,17.9-58C26.1,7.8,37.7,1.8,51.1,1.3c77.4-2.7,154.9-.2,217-1.1Zm261.8,18.8c-4.2-2.8-36-5.8-37.5-5.8-133.9,0-267.8,0-401.7,0-7,0-14,0-20.9-.1-1.7-1.4-3.3-1.6-5,0-2.6,0-5.3.2-7.9.2-18.8.2-30.7,12.6-36.1,29.7-8.5,22-9.5,44.2-1.8,66.6-.1,3.6,1.8,6.6,3.1,9.7,7.1,16.7,17.8,25.9,37.3,26,9,0,17.9,0,26.9,0,109.9,0,219.8,0,329.8,0,31.2,0,62.3,0,93.5,0,10.2,0,19.7-2.8,26.6-10.7,12.9-14.8,16.4-33,17.5-51.9,1-10.9-1.1-21.4-3.9-31.8.2-.9-5.2-.9-.8-2.2.1-.3,0-.5-.1-.7-2-7.6-5.1-14.7-10.1-20.8-2.3-3.4-4.7-6.6-8.7-8.2Z"/>
      <path class="cls-4" d="m18.9,109.5c-7.7-22.4-6.6-44.6,1.8-66.6,4.8-2.1,7.4-7.1,12.5-8.9,10.2-3.7,20.4-6.2,31.5-6.2,146.1.2,292.3.1,438.4.1,16.1,0,29.7,6,41.3,17,1.3,1.2,2.2,3,4.4,3,.2.2.2.5.1.7.3.7.5,1.5.8,2.2,2.8,10.4,4.8,20.9,3.9,31.8-1.7.6-1.9,2.2-2.4,3.6-4.5,12.8-11.2,24.4-19.7,34.9-5.2,6.4-10.7,11.6-20.2,11.6-144.3-.2-288.6-.3-433,0-19.5,0-36.4-6.4-51.9-17.4-2.5-1.8-4-5-7.4-5.6Z"/>
      <path class="cls-3" d="m548.7,47.9c-2.2,0-3.1-1.8-4.4-3-11.5-11-25.2-17-41.3-17-146.1,0-292.3,0-438.4-.1-11.1,0-21.3,2.5-31.5,6.2-5,1.8-7.7,6.8-12.5,8.9,5.4-17.1,17.3-29.5,36.1-29.7,2.6,0,5.3-.1,7.9-.2,1.7,1.2,3.3,1.2,5,0,7,0,14,.1,20.9.1,133.9,0,267.8,1.4,401.7,0,20.4-.2,33.3,2.9,37.5,5.8,10.3,4.9,16.8,21.3,18.8,28.9Z"/>
      <path class="cls-2" d="m18.9,109.5c3.4.6,4.9,3.8,7.4,5.6,15.5,11,32.4,17.5,51.9,17.4,144.3-.2,288.6-.1,433,0,9.5,0,15-5.2,20.2-11.6,8.6-10.5,15.2-22.1,19.7-34.9.5-1.4.7-3,2.4-3.6-1,18.9-4.6,37.1-17.5,51.9-6.9,7.9-16.4,10.7-26.6,10.7-31.2,0-62.3,0-93.5,0-109.9,0-219.8,0-329.8,0s-17.9,0-26.9,0c-19.5-.1-30.1-9.3-37.3-26-1.3-3.1-3.2-6.1-3.1-9.7Z"/>
      <path class="cls-1" d="m69.8,13c-1.7,1.1-3.4,1.2-5,0,1.7-1.5,3.4-1.3,5,0Z"/>
    </g>
  </g>
</svg>