<?xml version="1.0" encoding="UTF-8"?>
<svg id="Layer_2" data-name="Layer 2" xmlns="http://www.w3.org/2000/svg" width="104.8" height="131" viewBox="0 0 104.8 131">
  <defs>
    <style>
      .cls-1 {
        fill: #5e697e;
      }

      .cls-2 {
        fill: #a5abb7;
      }
    </style>
  </defs>
  <g id="Top">
    <g>
      <path d="m104.6,67.9c.7,12.5-.2,26.6-1,40.7-.3,5-1.6,9.9-3.6,14.5-2.8,6.5-8.6,9.2-15.4,7.4-10.7-2.8-19.7-8.9-29.1-14.3-14.5-8.4-27.8-18.5-40.8-28.9-4-3.2-8.1-6.8-10.7-11.1-5.9-9.5-5.7-14.7,2.8-24.8,5.6-6.7,12.9-11.5,19.8-16.8,15.1-11.5,31.2-21.7,48.2-30.4,4.2-2.2,8.8-3.4,13.4-4.2,5.4-1,11.7,4.7,13.4,11.9,1.3,5.6,1.9,11.2,2.2,17,.8,12.4,1,24.8.8,38.8Zm-14.2,27.9c.4-3.9,1.1-7.9,1.1-11.8.2-18.2.3-36.5-1.2-54.7-.3-4.2-.2-8.5-1.4-12.8-.8-3-1.5-2.9-3.9-1.7-3.6,1.9-7.4,3.4-11,5.3-18.3,9.8-35.2,21.6-51.3,34.5-3.8,3.1-8.2,6.1-9.9,11.3,1.4,3,3.5,5.6,6.1,7.6,5.5,4.4,11.2,8.6,16.8,12.9,15.4,11.9,32.1,21.7,49.5,30.4,2.2,1.1,3.3,1.4,3.7-1.9.7-6.4,2.1-12.7,1.5-19.1Z"/>
      <path class="cls-2" d="m12.9,65.9c1.7-5.2,6.1-8.2,9.9-11.3,16.1-12.9,33-24.7,51.3-34.5,3.6-1.9,7.4-3.4,11-5.3,2.3-1.3,3-1.3,3.9,1.7,1.2,4.2,1,8.5,1.4,12.8,1.5,18.2,1.4,36.4,1.2,54.7,0,3.9-.7,7.9-1.1,11.8-2.1.1-3,1.9-4.3,3.2-5.6,5.7-8.6,6.3-15.9,3.1-18.1-8-34.4-18.7-47.3-33.8-3.3-3.9-5.9-5-10-2.3Z"/>
      <path class="cls-1" d="m12.9,65.9c4.1-2.7,6.7-1.6,10,2.3,12.9,15.1,29.2,25.8,47.3,33.8,7.3,3.2,10.3,2.6,15.9-3.1,1.2-1.3,2.2-3,4.3-3.2.7,6.5-.8,12.8-1.5,19.1-.4,3.3-1.5,2.9-3.7,1.9-17.4-8.6-34.1-18.4-49.5-30.4-5.6-4.3-11.2-8.5-16.8-12.9-2.6-2-4.6-4.6-6.1-7.6Z"/>
    </g>
  </g>
</svg>