<?xml version="1.0" encoding="UTF-8"?>
<svg id="Layer_2" data-name="Layer 2" xmlns="http://www.w3.org/2000/svg" width="1149.9" height="131.4" viewBox="0 0 1149.9 131.4">
  <defs>
    <style>
      .cls-1 {
        fill: #00437f;
      }

      .cls-2 {
        fill: #a5abb7;
      }

      .cls-3 {
        fill: #003a66;
      }

      .cls-4 {
        fill: #005c9b;
      }
    </style>
  </defs>
  <g id="Top">
    <g>
      <path d="m573.4,131.1c-171.3,0-342.7,0-514,0-16,0-31-3.7-42.3-16.2C8.3,105,2.7,93.6.9,80.4-.7,69.3,0,58.4,1.6,47.3c1.5-10.5,6.7-18.7,12.6-26.5,6.8-9.1,15.9-15.8,27.6-18,3-.6,6.1-1.6,9.1-1.4,7,.4,13.8-1.2,20.7-1.2,110.1.1,220.1,0,330.2.2,36,0,71.9,1.4,107.9.6,40.5-.9,81.1-.9,121.6-.5,108.2.9,216.3-1,324.5-.3,41.3.3,82.6-.2,123.9.2,9.4,0,18.9.5,28.3,2.7,13.7,3.2,24.2,11.1,30.7,22.8,14.8,26.7,15.3,54.1-.7,80.7-9,15.1-22.9,22.8-40.7,23.6-41.2,2.1-82.5.8-123.7.9-133.4.2-266.8,0-400.1,0Zm556.6-94h0c-.1-1.7-1.1-3-2-4.4-9.1-14-22.6-19.5-38.6-19.5-339.9,0-679.8,0-1019.7,0-6.4,0-12.8-.1-19.3.8-14.8,2.1-25.1,9.9-31.7,23.1-7.2,12.4-6.3,26-5.7,39.5.2,4.5.9,9.5,3.9,13.5,3.9,11.9,11.4,20.6,23.3,25,9.6,3.5,19.5,3.1,29.6,3.2,117.8.3,235.7-1,353.5.6,31.9.4,63.9.2,95.8-.3,41.4-.7,82.8-.4,124.2.4,32.9.6,65.9-.3,98.8-.4,112.7-.5,225.4-.4,338.1-.2,6.7,0,13.4-.1,20.1-1,21.4-2.8,34.5-23.9,35.1-43.1,1.6-12.1.9-23.9-4.9-35,.2-.8.3-1.6-.8-2Z"/>
      <path class="cls-1" d="m17.1,90.1c-3-4-3.7-9-3.9-13.5-.7-13.4-1.6-27.1,5.7-39.5,2.8,1.1,4.2-1.4,5.9-2.6,11.2-7.6,23-11.6,37.2-11.6,304.9.4,609.8.3,914.7.3,34,0,67.9-.1,101.9-.1,4.9,0,9.8-1.6,14.8-.3,11.5,3,22.4,7.1,32.7,13.1,1.3.8,2.5,1.7,4.1,1.3,0,0,0,0,0,0-.4.9,0,1.6.8,2,5.8,11.1,6.5,22.9,4.9,35-4,4.4-5.8,10.2-9.6,14.8-4.9,5.9-8.7,13.1-17.3,14.9-5.8,1.2-11.6,2.5-17.6,2.5-22.8-.2-45.6,0-68.4,0-322.8,0-645.6,0-968.4,0-9.7,0-18.6-2.7-26.8-7.9-3.8-2.4-6.3-6.3-10.6-8.1Z"/>
      <path class="cls-3" d="m17.1,90.1c4.2,1.7,6.8,5.7,10.6,8.1,8.2,5.3,17.1,7.9,26.8,7.9,322.8,0,645.6,0,968.4,0,22.8,0,45.6,0,68.4,0,6.1,0,11.8-1.3,17.6-2.5,8.5-1.8,12.3-8.9,17.3-14.9,3.8-4.6,5.6-10.4,9.6-14.8-.6,19.2-13.8,40.3-35.1,43.1-6.7.9-13.3,1-20.1,1-112.7-.1-225.4-.3-338.1.2-32.9.2-65.9,1.1-98.8.4-41.4-.8-82.8-1-124.2-.4-31.9.5-63.9.7-95.8.3-117.8-1.5-235.7-.3-353.5-.6-10.1,0-20,.4-29.6-3.2-11.9-4.4-19.4-13.1-23.3-25Z"/>
      <path class="cls-4" d="m1130.1,37.2c-1.6.5-2.8-.5-4.1-1.3-10.3-5.9-21.2-10.1-32.7-13.1-5.1-1.3-9.9.3-14.8.3-34,0-67.9.1-101.9.1-304.9,0-609.8,0-914.7-.3-14.2,0-25.9,4-37.2,11.6-1.7,1.1-3.1,3.7-5.9,2.6,6.6-13.2,16.9-20.9,31.7-23.1,6.5-.9,12.9-.8,19.3-.8,339.9,0,679.8,0,1019.7,0,15.9,0,29.5,5.5,38.6,19.5.9,1.4,1.9,2.7,2,4.4Z"/>
      <path class="cls-2" d="m1130.9,39.1c-.9-.4-1.2-1.1-.8-2,1.1.3,1,1.1.8,2Z"/>
    </g>
  </g>
</svg>