<?xml version="1.0" encoding="UTF-8"?>
<svg id="Layer_2" data-name="Layer 2" xmlns="http://www.w3.org/2000/svg" width="160.8" height="164.1" viewBox="0 0 160.8 164.1">
  <defs>
    <style>
      .cls-1 {
        fill: #fff;
      }

      .cls-2 {
        fill: #dbdcdd;
      }

      .cls-3 {
        fill: #b6bccb;
      }
    </style>
  </defs>
  <g id="Top">
    <g>
      <path d="m160.8,81.7c1,45.6-36.1,81.8-78.4,82.4C36.7,164.7.2,128.3,0,83.2-.2,36.3,36.1-.2,81,0c43.7.2,80.3,37.1,79.8,81.7ZM20.5,53.5c-1,.4-.9,1.3-.8,2.1-3.1,4.9-4.4,10.6-4.8,16-.4,4.8-3,9.9,0,14.8,0,2.1-.4,4.3,0,6.4,3.2,16.9,10.4,31.6,24.1,42.5,19.5,15.5,41.2,18.8,64.5,10.6,15.3-5.4,26.7-15.8,34.7-29.7,4.9-8.5,8.4-17.7,8.3-27.8.3-9.1,1.3-18.2-2.9-26.8-2.9-14.8-12-25.9-23.5-34.5-14-10.4-30-15-47.9-12.3-24.4,3.6-41.4,16.7-51.9,38.8h.1Z"/>
      <path class="cls-2" d="m14.9,86.4c4,4,4.8,9.6,7.6,14.3,11.3,18.7,27.7,30.5,48.9,34,19.2,3.2,37.1-1.9,52-15.3,8.5-7.6,15.1-16.6,19.9-26.9.7-1.6,1.2-3.5,3.3-4.1.1,10.1-3.3,19.3-8.3,27.8-8,13.9-19.5,24.3-34.7,29.7-23.3,8.2-45,4.9-64.5-10.6-13.7-10.9-21-25.6-24.1-42.5-.4-2.1,0-4.3,0-6.4Z"/>
      <path class="cls-1" d="m143.7,61.6c-2.9-14.8-12-25.9-23.5-34.5-14-10.4-30-15-47.9-12.3-24.4,3.6-41.4,16.7-51.9,38.8,0,0,0,0,.1,0,.2.8,0,1.5-.8,2-3.1,4.9-4.4,10.6-4.8,16-.4,4.8-3,9.9,0,14.8,4,4,4.8,9.6,7.6,14.3,11.3,18.7,27.7,30.5,48.9,34,19.2,3.2,37.1-1.9,52-15.3,8.5-7.6,15.1-16.6,19.9-26.9.7-1.6,1.2-3.5,3.3-4.1.3-9.1,1.3-18.2-2.9-26.8Z"/>
      <path class="cls-3" d="m20.5,53.5c.2.9,0,1.6-.8,2.1-.2-.9-.2-1.7.8-2.1Z"/>
    </g>
  </g>
</svg>