<?xml version="1.0" encoding="UTF-8"?>
<svg id="Layer_2" data-name="Layer 2" xmlns="http://www.w3.org/2000/svg" width="138.9" height="115.7" viewBox="0 0 138.9 115.7">
  <defs>
    <style>
      .cls-1 {
        fill: #4abc1b;
      }

      .cls-2 {
        fill: #279100;
      }

      .cls-3 {
        fill: #2da500;
      }
    </style>
  </defs>
  <g id="Top">
    <g>
      <path d="m70.2,0c17.3-.3,35.3.6,53.2,4,1.3.2,2.5.7,3.8,1,12.3,3.6,12.8,10,10.7,19.6-2.6,12.1-9.1,22.9-14.8,33.8-6.3,12.1-13.7,23.6-22.5,34.1-5.8,6.9-12,13.7-19.5,19-8.4,5.9-16.3,5.5-24.5-.9-9.5-7.3-17.1-16.3-24.1-26C19.6,66.6,9.2,47.3,1.6,26.5-2.6,14.9,1.5,8,13.3,4.9,22.4,2.5,31.6,1.2,41.1,1c4.8-.1,9.5-1.2,14.3-1,4.6.2,9.3,0,14.8,0Zm52.3,24.8c0-.5,0-1.1.2-1.5,3.9-5.4,3.8-5.2-2.7-6.5-8.1-1.7-16.5-2.5-24.6-2.7-24.1-.4-48.4-1.3-72.4,1.7-9.1,1.1-9.9,2.1-7.6,8.8,6,15.6,13.9,30.3,22.8,44.4,7.2,11.4,15.7,21.9,25.3,31.3,3.7,3.6,7.5,4.2,10.4,1.4,6.1-5.8,12.3-11.6,17.3-18.4,12.3-16.6,22.4-34.5,30.8-53.4.8-1.8.7-3.5.5-5.3Z"/>
      <path class="cls-2" d="m122.4,24.9c.2,1.8.3,3.5-.5,5.3-8.4,18.9-18.5,36.8-30.8,53.4-5,6.8-11.2,12.5-17.3,18.4-2.9,2.8-6.7,2.2-10.4-1.4-9.6-9.5-18.1-19.9-25.3-31.3-8.9-14.1-16.8-28.8-22.8-44.4,1.6-.2,3.2-.3,4.9-.5,10.2,22.1,25.7,39.9,44.4,55.2,3.6,3,6.2,2.9,9.8,0,18.9-14.8,31.7-34.5,44.3-54.3,1.2-.1,2.5-.3,3.7-.4Z"/>
      <path class="cls-1" d="m122.4,24.9c-1.2.1-2.5.3-3.7.4-7.4-2.6-15.3-2.8-22.9-3-19.5-.6-39-.5-58.5-.2-5.7.1-11.6.2-17.1,2.3-1.6.2-3.2.3-4.9.5-2.3-6.8-1.5-7.7,7.6-8.8,24.1-3,48.3-2.2,72.4-1.7,8.1.1,16.5.9,24.6,2.7,6.4,1.4,6.5,1.1,2.7,6.5-.3.4-.2,1-.2,1.5Z"/>
      <path class="cls-3" d="m20.2,24.4c5.5-2.1,11.4-2.2,17.1-2.3,19.5-.3,39-.4,58.5.2,7.7.2,15.5.4,22.9,3-12.6,19.9-25.4,39.5-44.3,54.3-3.6,2.8-6.2,3-9.8,0-18.7-15.3-34.2-33.1-44.4-55.2Z"/>
    </g>
  </g>
</svg>