<?xml version="1.0" encoding="UTF-8"?>
<svg id="Layer_2" data-name="Layer 2" xmlns="http://www.w3.org/2000/svg" width="168.1" height="168.1" viewBox="0 0 168.1 168.1">
  <defs>
    <style>
      .cls-1 {
        fill: #e86e00;
      }

      .cls-2 {
        fill: #c94300;
      }

      .cls-3 {
        fill: #b6bdcb;
      }

      .cls-4 {
        fill: #f9923e;
      }
    </style>
  </defs>
  <g id="Top">
    <g>
      <path d="m0,83.9C-.8,38.7,38.5-1.7,86.3,0c44.4,1.6,82.2,36.8,81.7,85.2-.5,46.2-36.6,82.9-84.4,82.9C37.4,168.1-.1,131.1,0,83.9Zm22.8-34.2c-1.1.4-.8,1.4-1,2.2-5.7,9.1-8.1,19.2-7.9,29.9-1.5.9-1,2.4-.9,3.6,1.2,11.2,3.5,22.1,8.8,32.4,14,26.8,44.8,42.1,73.8,36.5,25.3-4.8,43.9-18.9,53.9-43.2,2.7-6.5,5.1-13.1,4.6-20.4.3-9.4,1.4-18.9-2.9-27.8.2-.9.2-1.7-.8-2.2.1-.3,0-.5-.1-.7-.9-4.1-2.8-7.8-4.9-11.3-16-26.8-44.8-39.2-75.5-33.3-20.8,4-36.9,15.6-47.2,34.6h.1Z"/>
      <path class="cls-1" d="m150.3,59.9c.2.2.2.5.1.7.3.7.5,1.5.8,2.2,4.3,8.9,3.1,18.4,2.9,27.8-3.5,3.1-3.9,7.9-6.1,11.7-15.4,25.8-37.6,39-68.1,38.3-26.6-.6-50.4-16.4-60.5-40.9-2.4-5.9-3-12.2-5.4-18-.2-10.7,2.2-20.7,7.9-29.9.6-.6,1.2-1.2,1-2.2,0,0-.1.1-.1.1,2.3.2,3.6-1.6,5-2.9,5.4-5.3,11.9-8.7,18.7-11.8,16.8-7.6,34.3-9.9,52.2-6.7,19.4,3.4,35.6,12.9,48,28.4,1,1.2,1.6,3,3.7,3Z"/>
      <path class="cls-2" d="m13.9,81.8c2.4,5.8,3,12.1,5.4,18,10.1,24.5,33.9,40.3,60.5,40.9,30.5.7,52.7-12.5,68.1-38.3,2.3-3.8,2.6-8.6,6.1-11.7.6,7.3-1.9,13.9-4.6,20.4-10,24.3-28.6,38.4-53.9,43.2-29,5.5-59.8-9.7-73.8-36.5-5.3-10.2-7.6-21.1-8.8-32.4-.1-1.2-.6-2.7.9-3.6Z"/>
      <path class="cls-4" d="m150.3,59.9c-2.1,0-2.7-1.7-3.7-3-12.4-15.6-28.6-25-48-28.4-18-3.2-35.5-.9-52.2,6.7-6.8,3.1-13.3,6.5-18.7,11.8-1.3,1.3-2.7,3.1-5,2.9,10.2-19,26.3-30.6,47.2-34.6,30.6-5.9,59.5,6.5,75.5,33.3,2.1,3.6,4,7.2,4.9,11.3Z"/>
      <path class="cls-3" d="m22.8,49.8c.2,1-.4,1.6-1,2.2.2-.8,0-1.8,1-2.2Z"/>
      <path class="cls-3" d="m151.2,62.8c-.3-.7-.5-1.5-.8-2.2,1,.5,1,1.3.8,2.2Z"/>
    </g>
  </g>
</svg>