<?xml version="1.0" encoding="UTF-8"?>
<svg id="Layer_2" data-name="Layer 2" xmlns="http://www.w3.org/2000/svg" width="1364.5" height="116.2" viewBox="0 0 1364.5 116.2">
  <defs>
    <style>
      .cls-1 {
        fill: #003a66;
      }
    </style>
  </defs>
  <g id="Back">
    <path class="cls-1" d="m1363.3,44c1.4,6.6,1.2,13.2,1.1,19.8-.1,8.2-2.8,15.7-7.5,22.3-13.5,18.8-31.7,29.5-55.2,29.9-9.3.2-18.6,0-27.9-.1-3.7-2.1-7.8-1.4-11.7-1.5-19.3-.2-38.6-.3-58-.3-272.5,0-545,0-817.5,0-92.9,0-185.9.2-278.8.3-6.6,0-13.3-.9-19.8,1.6-15.3.4-30.6.5-45.7-2.1-5-.9-9.8-2.9-13.3-6.1-9.7-8.8-20.1-17.1-25.9-29.7-1.3-2.8-1.9-5.2-2.3-8C-1.4,52.9.4,36.9,12.9,23.5,26.7,8.6,43.4.1,63.9.2c20.3,0,40.6.4,60.9.7,3.7,2.1,7.8,1.1,11.7,1.1,260.7.1,521.4.2,782.1.2,107.9,0,215.8,0,323.6-.3,12.3,0,24.6.6,36.8-1.5,12.5.2,25.2-1.6,37.5,1.7,21.8,5.9,37.7,18.6,46.1,39.9-.6,1-.1,1.5.7,2Z"/>
  </g>
</svg>