<?xml version="1.0" encoding="UTF-8"?>
<svg id="Layer_2" data-name="Layer 2" xmlns="http://www.w3.org/2000/svg" width="133.6" height="236.7" viewBox="0 0 133.6 236.7">
  <defs>
    <style>
      .cls-1 {
        fill: #0058c1;
      }

      .cls-2 {
        fill: #78b8ef;
      }

      .cls-3 {
        fill: #007ee0;
      }

      .cls-4 {
        fill: #b6bccb;
      }
    </style>
  </defs>
  <g id="Top">
    <g>
      <path d="m.1,118.1c0-7.5-.2-14.9,0-22.4.8-20.4,2.1-40.8,3.8-61.1.5-5.9.6-11.9,2.4-17.6,2-6.1,5.5-10.3,12.3-12.1C29.1,2.1,39.6.9,50.3.3c11.7-.7,23.4.3,35,.2,10.3,0,20.2,1.9,30.1,4.5,7.5,2,11.3,7.6,12.6,14.5,1.4,7.2,2,14.7,2.2,22.1.2,7.6-.2,15.5.9,22.6,4.2,28.9,1.8,57.9,2,86.7.1,17.4-2.4,34.8-3.6,52.3-.3,3.6-.5,7.2-1,10.8-1.4,10.2-6.2,15.9-16.2,18.5-10.9,2.9-22,3.8-33.2,4-14.4.2-28.8.6-43.1-1-7.5-.8-15.3-2-21.8-5.7-8.5-4.9-9.4-14.1-10.1-23-1.3-17.9-2.9-35.9-3.8-53.8-.6-11.6-.1-23.2-.1-34.9,0,0,0,0,0,0ZM118.3,50.2c.2-.9.2-1.7-.8-2.2.1-.3,0-.5-.1-.7.5-5.8-.5-11.5-.8-17.2-.4-8.5-4.2-13.5-12.6-14.6-8.6-1.1-17.2-2.5-25.9-2.1-12.7.6-25.3-.6-38,.8-6.2.7-12.1,1.8-18.1,3.3-2,.5-3.6,1.9-3.8,3.9-.8,5.9-1.3,11.9-2,17.9-.1,2.8.1,5.7-.4,8.4-1.9,10.2-1.3,20.7-3,31-1.2,7.2,0,15.4.2,23.1.3,22.2-1,44.4,1.3,66.5.8,7.5-.5,15.2,2,22.5-.9,7,1.3,13.7,1.3,20.6,0,6.8,4.2,8,9.2,9.3,10.3,2.6,20.8,2.2,31.3,3,9.3.7,18.8-.3,28.1-.7,8.1-.4,16-1.5,23.8-3.2,2.4-.5,5-1.5,5.4-4.4.8-7.5,2.9-14.9,1.8-22.5,2.3-12.7,2.7-25.5,3-38.3.7-34.7,1-69.5-1.9-104.2Z"/>
      <path class="cls-3" d="m117.4,47.3c.2.2.2.5.1.7.3.7.5,1.5.8,2.2,2.8,34.7,2.6,69.5,1.9,104.2-.3,12.7-.7,25.6-3,38.3-2.5.6-3.2,2.8-3.9,4.7-3.1,7.8-8.7,11.6-16.9,12.4-18.7,2-37.5,2.9-56.3.5-9.3-1.2-17-5.3-20.4-15-.6-1.8-1.2-3.9-3.4-4.6-2.5-7.3-1.3-15-2-22.5-2.2-22.1-1-44.3-1.3-66.5-.1-7.7-1.4-15.9-.2-23.1,1.7-10.3,1.1-20.8,3-31,.5-2.7.3-5.6.4-8.4,2.5-1,4.4-2.9,6.2-4.8,5.1-5.2,11.5-8.2,18.4-8.9,15.4-1.5,30.7-3.3,46.3-1.4,12.7,1.5,21.7,6.9,26.5,19,.7,1.8,1.1,4,3.7,4.1Z"/>
      <path class="cls-1" d="m16.3,190.6c2.2.7,2.8,2.9,3.4,4.6,3.4,9.7,11.1,13.9,20.4,15,18.7,2.4,37.5,1.5,56.3-.5,8.2-.9,13.9-4.7,16.9-12.4.8-1.9,1.4-4.2,3.9-4.7,1,7.6-1.1,15-1.8,22.5-.3,2.9-2.9,3.8-5.4,4.4-7.8,1.8-15.7,2.9-23.8,3.2-9.4.4-18.8,1.4-28.1.7-10.4-.8-21-.4-31.3-3-5-1.2-9.2-2.5-9.2-9.3,0-6.8-2.2-13.6-1.3-20.6Z"/>
      <path class="cls-2" d="m117.4,47.3c-2.6-.2-3-2.3-3.7-4.1-4.7-12.1-13.7-17.5-26.5-19-15.6-1.9-31-.1-46.3,1.4-7,.7-13.3,3.7-18.4,8.9-1.8,1.9-3.7,3.8-6.2,4.8.6-6,1.2-12,2-17.9.3-2,1.8-3.4,3.8-3.9,6-1.4,11.9-2.5,18.1-3.3,12.7-1.4,25.4-.3,38-.8,8.7-.4,17.3,1,25.9,2.1,8.4,1.1,12.1,6.1,12.6,14.6.3,5.7,1.3,11.4.8,17.2Z"/>
      <path class="cls-4" d="m118.3,50.2c-.3-.7-.5-1.5-.8-2.2,1,.5,1,1.3.8,2.2Z"/>
    </g>
  </g>
</svg>