<?xml version="1.0" encoding="UTF-8"?>
<svg id="Layer_2" data-name="Layer 2" xmlns="http://www.w3.org/2000/svg" width="1431.1" height="200.3" viewBox="0 0 1431.1 200.3">
  <defs>
    <style>
      .cls-1 {
        fill: #333840;
      }
    </style>
  </defs>
  <g id="Back">
    <path class="cls-1" d="m6.3,60.1C19.9,24.5,45.5,4.3,83.5,0c27,0,53.9,0,80.9,0,357.2,0,714.3,0,1071.5,0,37.3,0,74.6,0,111.9,0,41,4.2,72.4,32.6,80.4,73.1,4.6,23.3,3.8,46.3-4.2,68.9-1,.6-1.4,1.3-1.1,2.5-.4,1.1-.8,2.3-1.2,3.4-1.1.4-1.5,1.2-1.3,2.3-.2.6-.4,1.1-.7,1.7-1.1.4-1.5,1.2-1.4,2.3-.2.6-.4,1.1-.7,1.6-1.1.3-1.6,1.1-1.4,2.3,0,0,0,0,0,0-1.1.4-1.7,1.1-1.6,2.3-.2.5-.5,1-.8,1.4-1.1.3-1.7,1-1.6,2.2-15.5,20.7-36,32.9-61.8,36.1-12.6,0-25.3.2-37.9.2-81.6,0-163.2-.2-244.8-.2-294.4,0-588.8,0-883.2,0-34.6,0-69.2,0-103.9.1-33.9-4.7-57.9-22.6-72.1-53.8.3-1.2,0-2-1.2-2.4-.4-1.1-.7-2.3-1.1-3.4.4-1.1,0-1.9-1-2.5-.3-1.2-.6-2.4-.8-3.6.4-1.1.1-1.9-1-2.5-4.7-20.6-4.8-41.3-.3-61.9.8-.5,1.3-1.1.6-2.1.6-2,1.1-3.9,1.7-5.9,1-.3,1.4-1,.8-2Z"/>
  </g>
</svg>