<?xml version="1.0" encoding="UTF-8"?>
<svg id="Layer_2" data-name="Layer 2" xmlns="http://www.w3.org/2000/svg" width="153.8" height="333.8" viewBox="0 0 153.8 333.8">
  <defs>
    <style>
      .cls-1 {
        fill: #7d89a2;
      }

      .cls-2 {
        fill: #0058c1;
      }

      .cls-3 {
        fill: #78b8ef;
      }

      .cls-4 {
        fill: #007ee0;
      }
    </style>
  </defs>
  <g id="Top">
    <g>
      <path d="m.2,169.1c0-21.4-.4-38.8.1-56.2.5-17.1,1.5-34.3,2.9-51.4,1.1-13.4,2.6-26.9,5.1-40.1,1.7-9.1,8.8-14.5,17.5-17,7.9-2.3,16.1-2.8,24.3-3.4C63.8-.1,77.4-.2,90.9.3c11.3.4,22.7.4,33.8,3.4,14,3.8,19.6,10.2,21.6,24.5,2.4,17.5,4,35,5.2,52.6,1.5,23,.9,46,2.1,69,1.1,20.3-.9,40.4-.3,60.6.5,17.7-1.1,35.4-2.2,53-1,15.7-2.7,31.5-5.6,47.1-1.8,10.1-8.3,15.3-17.1,18.5-6.2,2.3-12.8,3.3-19.3,3.4-14.1,0-28.2,2.7-42.4.8-4.6-.6-9.3-.3-13.9-.2-8.4,0-16.8-1.1-24.9-3.3-11.1-2.9-19.5-10.6-20.8-25-1.2-14.4-3.3-28.8-4.7-43.2-.6-5.7-.9-11.6-1-17.3-.8-26.4-1.8-52.7-1.1-75.1ZM24,21c-.4.3-.7.6-1.1,1-4.8,5.5-3.7,12.5-4.7,18.9-.7,6-1.6,12-2.1,18-.7,9.7-1.2,19.3-1.9,29-1.1,16.6-2.3,33.2-1.9,49.8.5,22.8-1.4,45.6.7,68.3.8,9,.3,18.1.8,27.2.7,13.3,1.7,26.6,2.5,39.9.5,10.8,1.6,21.5,3.6,32.2,1.2,6.6,5.6,10,11.2,11.5,9,2.4,18.5,2.9,27.8,3.1,18.9.4,37.9.9,56.8-1.9,7.6-1.1,15.7-2,17.9-11.6,1.7-7.3,2.7-14.8,2.5-22.4.4-1.7,1.2-3.5,1.2-5.2.2-9.9,1.6-19.7,1.9-29.5.6-21.9,2.7-43.8,2.1-65.8-.5-20.5.6-41-.8-61.5-1-14.3-1.2-28.6-2-42.9-.8-13.4-1.5-26.8-3.3-40.2.5-4-1.1-7.6-1.7-11.4-.9-5.9-4.9-8.9-9.8-10.2-7.9-2.1-16-3.5-24.2-3.2-20.8.6-41.8-1.7-62.5,2.1-4.9.2-9.5.9-13,4.8h0Z"/>
      <path class="cls-4" d="m16.3,273.1c-.8-13.3-1.8-26.6-2.5-39.9-.5-9.1,0-18.2-.8-27.2-2.1-22.8-.2-45.5-.7-68.3-.4-16.6.8-33.2,1.9-49.8.7-9.7,1.2-19.3,1.9-29,.4-6,1.4-12,2.1-18,7.1-4.9,14.6-9.5,23.2-10.7,19.2-2.8,38.6-5,58-4.1,13.1.7,26.1,2.2,35.8,12.8,1.8,13.3,2.5,26.7,3.3,40.2.9,14.3,1.1,28.6,2,42.9,1.4,20.5.3,41,.8,61.5.5,22-1.6,43.9-2.1,65.8-.2,9.8-1.7,19.6-1.9,29.5,0,1.8-.8,3.5-1.2,5.2-3.9,1.7-4.6,5.8-6.5,9-2.3,3.7-4.2,7.6-8.4,9.5-6.7,2.9-13.6,5.4-20.9,5.5-17.5.2-35,.2-52.5,0-13.4-.2-20.6-5.8-24.9-18.5-1.4-4.1-2.5-8.2-3.9-12.3-.5-1.5-.6-3.3-2.5-4.1Z"/>
      <path class="cls-2" d="m16.3,273.1c1.9.7,2,2.5,2.5,4.1,1.3,4.1,2.5,8.2,3.9,12.3,4.3,12.7,11.6,18.3,24.9,18.5,17.5.2,35,.2,52.5,0,7.4,0,14.3-2.6,20.9-5.5,4.2-1.8,6.1-5.8,8.4-9.5,1.9-3.1,2.6-7.3,6.5-9,.2,7.6-.8,15-2.5,22.4-2.2,9.5-10.3,10.4-17.9,11.6-18.8,2.8-37.8,2.3-56.8,1.9-9.3-.2-18.7-.6-27.8-3.1-5.6-1.5-10-5-11.2-11.5-2-10.6-3-21.4-3.6-32.2Z"/>
      <path class="cls-3" d="m135.2,38.9c-9.7-10.6-22.7-12.2-35.8-12.8-19.5-1-38.8,1.3-58,4.1-8.6,1.2-16,5.9-23.2,10.7,1-6.5-.1-13.5,4.7-18.9.4-.3.7-.6,1.1-1,0,0,0,0,0,0,4.7-.7,8.9-2.6,13-4.8,20.7-3.8,41.7-1.6,62.5-2.1,8.2-.2,16.3,1.1,24.2,3.2,4.9,1.3,8.9,4.3,9.8,10.2.6,3.8,2.2,7.4,1.7,11.4Z"/>
      <path class="cls-1" d="m37,16.2c-4.1,2.2-8.3,4.1-13,4.8,3.5-3.9,8.1-4.7,13-4.8Z"/>
      <path class="cls-1" d="m24,21c-.4.3-.7.6-1.1,1,.4-.3.7-.6,1.1-1Z"/>
    </g>
  </g>
</svg>