<?xml version="1.0" encoding="UTF-8"?>
<svg id="Layer_2" data-name="Layer 2" xmlns="http://www.w3.org/2000/svg" width="1535.3" height="308.8" viewBox="0 0 1535.3 308.8">
  <defs>
    <style>
      .cls-1 {
        fill: #0058c1;
      }

      .cls-2 {
        fill: #78b8ef;
      }

      .cls-3 {
        fill: #007ee0;
      }

      .cls-4 {
        fill: #524e66;
      }
    </style>
  </defs>
  <g id="Top">
    <g>
      <path d="m1383.3,308.8c-202.6,0-405.1,0-607.7,0-200.8,0-401.6,0-602.4-.3-15,0-30.2.7-45.1-1.8-28-4.6-54.2-13.4-76.6-31.9-24.6-20.3-39-46.4-46.2-76.9C1.1,180.5-.9,162.8.4,145.1c2.2-29.9,9-58.6,26.7-83.7,15.4-21.8,35.2-37.8,60.3-47.6C108.5,5.6,130,2.2,152.6,1.8,259.4-.4,366.2.2,472.9,0c95,0,190.1.5,285.1.5,95.9,0,191.9-.3,287.8-.5,107-.3,214.1.2,321.1,1.2,13.6.1,27.4-.4,41,1.7,27.2,4.3,52.4,13.2,74.5,30,5.7,4,8.1,6.8,11.8,10.7,18.1,18.7,29.6,41,35.7,66.2,4.6,18.7,6.2,37.7,4.9,56.9-1.4,20.5-5.4,40.5-13.8,59.6-6.8,15.3-16,29-27.8,40.6-16.9,16.5-37,27.7-59.9,34-16.4,4.6-33,7.2-50.1,7.9Zm-17.1-295.4c-.4,0-.8,0-1.2,0-3.6,0-7.2,0-10.8,0-2.1-.5-26.1.7-36.1.7-378.7-.6-757.5,1.3-1136.2-1-11.2,0-22.4,1.5-33.5,1.8-10.2.3-20.4,1.3-30.3,3.4-30.6,6.4-56.9,20.6-76.4,45.8-6.4,8.3-11.8,17.1-15.4,27-.2.2-.2.4,0,.7-.9.5-10.8,32.8-11.7,48.8-.9,14.6-1,29.4,1.7,44,3.3,17.5,7.9,34.4,18,49.4,7.1,13.8,17.7,24.6,29.9,33.9,23.7,17.9,51.4,24.9,80.4,26.9,15,1,30,1.4,45.1,1.3,384.8-.2,769.5-.2,1154.3-.3,4.2,0,8.2,1.4,12.3,1,8.9-.8,17.8-1.3,26.7-1.8,16.2-.8,32.2-2.6,47.8-7.2,24.6-7.2,45.4-20.1,61.6-40.1,2.9-3.6,6.7-6.9,7.7-11.9,2.7-2.5,4.3-5.8,5.9-8.9,10.8-21.1,15-43.9,16-67.3.7-14.6-1.3-29-4.2-43.3-1.9-9.5-4.1-19.2-9.8-27.4.3-1.9-.7-3.5-1.5-5.1-7.7-14.8-17.4-27.9-30.5-38.6-15.3-12.6-32.8-20.4-51.8-25.4-6.9-1.8-14-2.8-21.1-3.9-2.1-.3-26.5-2.6-36.9-2.7Z"/>
      <path class="cls-3" d="m34.2,233.8c-10.1-15-14.7-32-18-49.4-2.8-14.6-2.6-29.4-1.7-44,.8-17.4,11.6-49.3,11.8-49.5,5.5-2.5,8.4-7.8,11.7-12.1,10.9-14.1,23.4-26.4,38.1-36.1,20.1-13.2,43.6-18.5,67.1-18.5,135-.1,270-.5,405,.5,147,1.1,294-.5,440.9,1,48.6.5,97.2-.2,145.8.2,90,.9,180-2.3,270,2,6.5.3,13.2.9,19.5,3.1,17.8,6.4,34.6,15,50.1,25.8,12.8,8.9,23.5,20.1,33.6,32,5.7,8.3,7.9,17.9,9.8,27.4,2.8,14.2,4.8,28.7,4.2,43.3-1,23.4-5.3,46.2-16,67.3-1.6,3.2-3.2,6.5-5.9,8.9-2.5.2-4.1,1.9-5.9,3.4-12.4,10.2-25.1,20.3-39.4,27.7-22.1,11.3-45.9,17.2-70.6,18.8-14.6.9-29.2,1-43.8,1-396.2-.4-792.4,1.5-1188.6-.9-10.4,0-20.8-1.3-31-3.7-29.9-6.9-56.2-20.7-78.1-42.3-2.5-2.4-4.9-4.9-8.4-5.9Zm1375.8,24.9c1.1.2,4.1-1.8,4.7-1.9,28-6.5,48.1-23.1,61-48.4,7.8-15.2,12-31.5,12.4-48.7.3-14.1-1-27.9-5.3-41.4-2.4-7.4-5.9-14.2-8.8-21.3-.2-.4-.5-.7-.7-1.1,0-.3-.2-.6-.2-1,.2-1.9-.3-3.6-1.1-5.3-5.1-10.8-12.8-19.4-22-26.7-23.4-18.5-51-25.5-80-25.7-49.2-.3-98.5-.4-147.8.5-78.4,1.5-156.8-.3-235.2,1-88.4,1.5-176.8-.4-265.1,1-87,1.4-174.1-.5-261.2,1-84.5,1.4-169.1-1-253.7,1.2-23.1.6-46.2-.9-69.3.9-18.9,1.5-35.3,8.5-49.6,20.6-1.9,1.6-4.5,3.2-4,6.5-1.7,1.8-3.3,3.7-5,5.5-23.7,23.7-33.1,52.8-32,85.7.5,12.6,3.6,24.6,8,36.3,10,26.4,27.6,45.4,53.9,56,4.5,5.2,10.6,7.7,16.7,10.4,9.7,4.3,20.1,3.8,30.4,3.8,405.4-.4,810.8,1.2,1216.2-.8,11.6,0,22.7-2.1,33.7-5.6,1.5-.5,3.4-.5,4-2.5h0Z"/>
      <path class="cls-2" d="m1508,88.9c-10.1-11.8-20.8-23.1-33.6-32-15.5-10.8-32.3-19.4-50.1-25.8-6.3-2.3-12.9-2.8-19.5-3.1-90-4.3-180-1.1-270-2-48.6-.5-97.2.3-145.8-.2-147-1.5-294,0-440.9-1-135-1-270-.6-405-.5-23.5,0-47,5.3-67.1,18.5-14.6,9.6-27.2,22-38.1,36.1-3.3,4.3-6.2,9.6-11.7,12.1,3.6-9.9,9-18.7,15.4-27,19.5-25.2,45.7-39.4,76.4-45.8,9.9-2.1,20-3,30.3-3.4,11.2-.4,22.3-1.9,33.5-1.8,378.7,2.3,757.5.3,1136.2,1,10,0,20-.4,30-.6,2.1.9,13.4,0,17,0,.4.6.8.7,1.2,0,10.4,0,34.7,2.4,36.9,2.7,7.1,1.1,14.1,2,21.1,3.9,19,4.9,36.5,12.8,51.8,25.4,13,10.7,22.8,23.7,30.5,38.6.8,1.6,1.8,3.1,1.5,5.1Z"/>
      <path class="cls-1" d="m34.2,233.8c3.5,1,5.9,3.5,8.4,5.9,22,21.6,48.2,35.4,78.1,42.3,10.2,2.3,20.6,3.6,31,3.7,396.2,2.4,792.4.5,1188.6.9,14.6,0,29.3,0,43.8-1,24.7-1.6,48.5-7.5,70.6-18.8,14.4-7.4,27-17.4,39.4-27.7,1.8-1.5,3.4-3.2,5.9-3.4-1,5-4.8,8.3-7.7,11.9-16.2,20-37.1,32.9-61.6,40.1-15.6,4.6-31.6,6.3-47.8,7.2-8.9.4-17.8,1-26.7,1.8-4.2.4-8.1-1-12.3-1-384.8,0-769.5,0-1154.3.3-15.1,0-30.1-.3-45.1-1.3-29-2-56.7-9-80.4-26.9-12.2-9.2-22.8-20.1-29.9-33.9Z"/>
      <path d="m1473,94.9c0,.3.2.6.2,1,.2.4.5.7.7,1.1,2.9,7.1,6.4,14,8.8,21.3,4.3,13.5,5.7,27.3,5.3,41.4-.4,17.2-4.6,33.5-12.4,48.7-12.9,25.3-33,42.6-61,49.1-.6.1-4.6,1.1-4.6,1.1-55.5,6-111.2,2.9-166.8,2.9-347.5.3-695,.2-1042.5.1-16.2,0-32.5.3-48.8-.6-14.7-.8-29-2.5-42.8-7.6-26.4-10.6-44-29.7-53.9-56-4.4-11.7-7.6-23.7-8-36.3-1.2-33,8.2-62,32-85.7,1.8-1.8,3.4-3.7,5-5.5,6.2-3.5,11.8-7.9,18.2-11,17-8.4,35.4-10.3,53.9-10.9,12.3-.4,24.6-.6,36.9-.8,41.6-.6,83.2.5,124.8.5,74.9.1,149.8.2,224.7-.5,77.4-.7,154.8-.8,232.1.5,14.6.2,29.3-.1,43.9-.5,21.5-.5,43.1-.3,64.7-.2,39.9.2,79.9.3,119.8.5,83.7.3,167.5,1.2,251.2-.2,39.6-.7,79.2-.5,118.8.7,11.9.3,23.8.5,35.5,2.9,18.5,3.8,34.8,11.8,48.7,24.8,6.1,5.7,10.1,13,15.5,19.2Zm-705.3-34c-202.1,0-404.3,0-606.4,0-11.4,0-22.7.4-34,2.9-24.5,5.6-43.1,19.1-55,41-13.1,24.1-15.4,49.9-9,76.4,5.5,22.8,17.4,41.2,37.6,53.7,17,10.5,35.8,13.7,55.3,13.7,404.6,0,809.2,0,1213.9,0,12.7,0,25.3-.5,37.8-3,16.5-3.4,30.8-11.1,42.5-23,7.9-8,13.9-17.5,17.9-28.2,5.9-15.8,9.1-32.2,7.5-48.9-1.6-17.2-6.9-33.6-16.6-48.2-6.9-10.4-15.9-18.4-26.8-24.5-10.2-5.7-21.2-9-32.6-10.9-2.2-.4-13.4-1.2-17.1-1.2-205,0-409.9,0-614.9,0Z"/>
      <path class="cls-1" d="m1473,94.9c-5.4-6.2-9.5-13.5-15.5-19.2-13.8-13-30.1-21.1-48.7-24.8-11.7-2.4-23.6-2.6-35.5-2.9-39.6-1.2-79.2-1.4-118.8-.7-83.7,1.4-167.5.5-251.2.2-39.9-.2-79.9-.3-119.8-.5-21.6,0-43.1-.3-64.7.2-14.6.4-29.3.7-43.9.5-77.4-1.2-154.8-1.2-232.1-.5-74.9.7-149.8.6-224.7.5-41.6,0-83.2-1.1-124.8-.5-12.3.2-24.6.4-36.9.8-18.5.6-36.8,2.5-53.9,10.9-6.4,3.1-12,7.5-18.2,11-.4-3.2,2.1-4.8,4-6.5,14.3-12.1,30.8-19.1,49.6-20.6,23.1-1.9,46.2-.3,69.3-.9,84.5-2.2,169.1.3,253.7-1.2,87.1-1.5,174.1.4,261.2-1,88.4-1.4,176.8.4,265.1-1,78.4-1.3,156.8.5,235.2-1,49.3-.9,98.5-.8,147.8-.5,29,.2,56.6,7.2,80,25.7,9.2,7.3,16.9,15.9,22,26.7.8,1.7,1.3,3.4,1.1,5.3Z"/>
      <path class="cls-2" d="m109.2,253.5c13.8,5.1,28.1,6.8,42.8,7.6,16.3.9,32.5.6,48.8.6,347.5,0,695,.2,1042.5-.1,55.6,0,111.3,3.1,166.8-2.9-.6,2-2.5,2-4,2.5-10.9,3.5-22.1,5.6-33.7,5.6-405.4,2-810.8.4-1216.2.8-10.3,0-20.7.4-30.4-3.8-6-2.6-12.2-5.2-16.7-10.4Z"/>
      <path class="cls-4" d="m1474,97c-.2-.4-.5-.7-.7-1.1.2.4.5.7.7,1.1Z"/>
    </g>
  </g>
</svg>