<?xml version="1.0" encoding="UTF-8"?>
<svg id="Layer_2" data-name="Layer 2" xmlns="http://www.w3.org/2000/svg" width="1466" height="211.8" viewBox="0 0 1466 211.8">
  <defs>
    <style>
      .cls-1 {
        fill: #fff;
      }

      .cls-2 {
        fill: #524e66;
      }

      .cls-3 {
        fill: #dbdcdd;
      }
    </style>
  </defs>
  <g id="Top">
    <g>
      <path d="m1224.9,211.2c-45.1,0-90.3-.1-135.4.1-7.8,0-15.6-.1-23.5-.1-214.8,0-429.6,0-644.4,0s-17.4-.8-26,.2c-13.2,1.4-26.2-.9-39.3-.3-13.6.6-27.3.1-41,.1h-121.4c-13.7,0-27.3,0-41,0-13.5,0-27-.3-40.5,0-23.6.7-44.6-6.9-63.8-19.7-18.6-12.4-33.1-28.8-41.9-49.6-3.5-8.3-5.4-17-6.3-26.2-1-9.6,0-18.9,1.2-28.3,1.9-13.4,7.9-25.2,15.5-36C35.3,25.9,60.1,9.5,90.7,2.5c9.7-2.2,19.7-1.9,29.7-1.6,23.4.9,46.9.5,70.4.1C270.1-.4,349.4-.2,428.7.5c93.8.8,187.6.2,281.4.6,9.5,0,19.2-1,28.8-.8,79.8,1.9,159.7,1.2,239.6.6,86.1-.7,172.1-.4,258.2-.4,33,0,66,.8,99.1.8,6.1,0,12.3-.7,18.4-.8,13.6,0,26.8,2.6,39.5,7.7,31.6,12.8,54.5,34.2,67.4,65.9,5.2,12.7,5.2,26,4.8,39.4-.6,21.4-10,39-23.2,55.3-17.1,20.9-39.2,33.6-64.9,40.2-6.6,1.7-13.5,2.3-20.4,2.3-44.1-.2-88.3,0-132.4,0ZM22.5,69.3c-12.8,22.5-13.3,45.5-2.6,69-.1.6.2.9.8,1.1.2.7.1,1.6,1,2,.3.9.5,1.9,1,2.8,10.6,19.1,26,33,45.1,43.3,17.4,9.4,36.4,11.2,55.6,11.8,15.1.5,30.3-.5,45.4-.7,39.4-.7,78.9.2,118.3-.9,12.5-.4,25,.4,37.4.4,137,0,273.9,1.4,410.9-.6,7.7-.1,15.2,1,22.9,1,132.3-.3,264.7.6,397-.7,14.8-.2,29.6.4,44.4.5,42.4.5,84.9-.4,127.3,1.1,8.8.3,17.5-.3,26.3-.7,10.3-.5,20.3-2,30.1-5.1,21-6.6,38-19,51.6-36.1,7.1-8.9,12.9-18.7,15.4-30,7.5-25.4-16.4-73-17.2-73.9-4.8-6.4-10.6-11.8-16.8-16.7-12.4-9.9-26.3-16.8-41.8-20.1-12.2-2.6-24.8-3.1-37.3-3.1-20.6.1-41.2.7-61.7.7-367.3-.3-734.6,1.5-1101.9-.7-23.4-.1-46.8-.4-70.2,1-3.1.2-6.2.6-9.3,1.3-24,5.1-43.8,17.5-59.8,35.8-3.3,3.8-7.2,7.5-8.6,12.8h0c-1,1.8-2.8,4.3-3.2,5.1Z"/>
      <path class="cls-3" d="m21.7,141.2c2.5,0,3.6,2.2,5.1,3.7,11.1,11.1,22.6,21.6,36.4,29.2,11.8,6.5,24,11.3,38.1,11.3,411.7-.2,823.3-.1,1235-.2,5.6,0,11.2.9,16.6.8,12.6-.1,24.6-3.5,36.5-7.6,24.7-8.6,42.1-25.8,56.6-46.7,1.2-1.7,1.7-4.2,4.4-4.4-2.5,11.4-8.4,21.1-15.4,30-13.5,17.1-30.6,29.5-51.6,36.1-9.8,3.1-19.8,4.6-30.1,5.1-8.8.4-17.5,1-26.3.7-42.4-1.5-84.9-.6-127.3-1.1-14.8-.2-29.6-.7-44.4-.5-132.3,1.4-264.7.4-397,.7-7.6,0-15.2-1.1-22.9-1-137,2.1-273.9.5-410.9.6-12.5,0-25-.8-37.4-.4-39.4,1.1-78.9.2-118.3.9-15.1.3-30.3,1.2-45.4.7-19.2-.6-38.2-2.4-55.6-11.8-19.1-10.3-34.5-24.2-45.1-43.3-.5-.8-.6-1.8-1-2.8Z"/>
      <path class="cls-2" d="m19.9,138.2c.3.4.5.7.8,1.1-.5-.2-.9-.4-.8-1.1Z"/>
      <path d="m86.7,164.3c-9-4.5-17.5-9.8-24.5-17.1-10.9-11.4-17.6-25-17.5-41.1.2-19.4,9.2-34.7,23.8-46.9,2-1.7,4-3.3,6.1-4.9.5,0,1.1,0,1.5-.2,14.4-9.6,30.4-13.3,47.4-12.6,8.1.4,16.2.8,24.4.8,36.8,0,73.5,0,110.3,0,12.5,0,24.9.5,37.4.8,2.3,0,556.4.4,601.5.2,1,0,2,.1,3,.1,133.6-.1,267.2,0,400.9-1.1,10,0,20,0,30,0,2,0,4,0,6-.3,13.2-2,26,.3,38.5,4.5,6.9,2.3,12.8,6.7,19.3,9.8,7.4,6,13.8,12.9,18.6,21.1,9.5,16.3,11.2,33,3.4,50.5-8.7,19.8-24.6,31.3-44.1,38.9-10.3,2.6-20.6,3.7-31.3,3.5-34.3-.7-68.6-.4-102.9-.8-85.7-1.1-171.5.4-257.2-1.2-14.4-.3-28.8,0-43.1,0-169.5.3-339.1-.7-508.6.6-103.4.8-206.7.9-310.1,1.3-.7,0-1.3,0-2,0-9.6.4-18.8-1.8-27.8-5h0s-1.3,0-2.9-.9Zm44-108c-28.5-1-35.9.6-53.5,13.9-22.9,17.2-26,47.3-4.3,68.5,13,12.8,29.4,18.3,47.7,18.6,9.2.2,18.2-1.1,27.3-1.1,209.1,0,418.3,0,627.4,0s363.3,0,545,0c10.8,0,21.6,1.2,32.5.2,17.8-1.6,32.3-8.8,44-22.1,9-10.3,12.7-22.5,10.3-35.9-2.7-14.9-12.5-25.1-24.5-33.1-11.1-7.4-23.8-10.2-37.1-10.2-15,0-29.9.9-44.9.9-390,.2-779.9.1-1169.9.1Z"/>
      <path class="cls-3" d="m709.1,43.3c-11.3.1-403.6-.1-413.6-.1-12.5-.3-24.9-.8-37.4-.8-36.8-.1-73.5,0-110.3,0-8.1,0-16.3-.4-24.4-.8-17-.8-33.1,2.9-47.4,12.6-.4.2-1,.2-1.5.2.3-3.1,3.3-3.9,5-5.8,8.7-9.5,20.5-11.5,32.1-14.3,4.8-1.1,9.6-1,14.4-1,197.3,0,394.6.1,591.8-.2,19.6,0,39.2-.8,58.8-.7,5.5,0,10.9.9,16.4.9,183.1-2.1,366.2-.3,549.3-.9,10.9,0,21.7,1.8,31.5,6.2,8.3,3.7,15.9,9.4,20.7,17.7-6.5-3.1-12.4-7.5-19.3-9.8-12.5-4.2-25.2-6.5-38.5-4.5-2,.3-4,.3-6,.3-10,0-20,0-30,0-133.6,1.2-267.2,1-400.9,1.1-1,0-2,0-3-.1-1.5-1.6-3.4-1-5.2-1-43.2,0-166.7.9-182.7.9Z"/>
      <path class="cls-1" d="m1436.9,58.2q-.5-1.1-1.3-2.3c-.7-1-1.6-1.8-2.5-2.7-4.8-6.4-10.6-11.8-16.8-16.7-12.4-9.9-26.3-16.8-41.8-20.1-12.2-2.6-24.8-3.1-37.3-3.1-20.6.1-41.2.7-61.7.7-367.3-.3-734.6,1.5-1101.9-.7-23.4-.1-46.8-.4-70.2,1-3.1.2-6.2.6-9.3,1.3-24,5.1-43.8,17.5-59.8,35.8-3.3,3.8-7.3,7.6-8.6,12.8,0,0,0,0,0,0-1.8,2.2-1.8,2.2-3.1,5-12.8,22.5-13.3,45.5-2.6,69,.3.4.5.7.8,1.1.2.7.1,1.6,1,2,2.5,0,3.6,2.2,5.1,3.7,11.1,11.1,22.6,21.6,36.4,29.2,11.8,6.5,24,11.3,38.1,11.3,411.7-.2,823.3-.1,1235-.2,5.6,0,11.2.9,16.6.8,12.6-.1,24.6-3.5,36.5-7.6,24.7-8.6,42.1-25.8,56.6-46.7,1.2-1.7,1.7-4.2,4.4-4.4,7.5-25.4,2.6-48.3-13.4-69Zm-124.5-37.1c.6,0,1.2,0,1.7,0-.6,0-1.2,0-1.7,0-99.7,0-199.3,0-299,0,99.7,0,199.3,0,299,0ZM72.3,28.5c1.3-.5,2.6-1,3.9-1.4-1.3.4-2.6.9-3.9,1.4-.9.3-1.8.7-2.7,1.1.9-.4,1.8-.7,2.7-1.1Zm1344.4,99.4c-8.7,19.8-24.6,31.3-44.1,38.9,0,0,0,0,0,0-10.3,2.6-20.6,3.7-31.3,3.5-34.3-.7-68.6-.4-102.9-.8-85.7-1.1-171.5.4-257.2-1.2-14.4-.3-28.8,0-43.1,0-169.5.3-339.1-.7-508.6.6-103.4.8-206.7.9-310.1,1.3-.7,0-1.3,0-2,0-9.6.4-18.8-1.8-27.8-5l-.3-.2s-1.2,0-2.6-.8c-9-4.5-17.5-9.8-24.5-17.1-10.9-11.4-17.6-25-17.5-41.1.2-19.4,9.2-34.7,23.8-46.9,2-1.7,4-3.3,6.1-4.9.3-3.1,3.3-3.9,5-5.8,8.7-9.5,20.5-11.5,32.1-14.3,4.8-1.1,9.6-1,14.4-1,197.3,0,394.6.1,591.8-.2,19.6,0,39.2-.8,58.8-.7,5.5,0,10.9.9,16.4.9,183.1-2.1,366.2-.3,549.3-.9,10.9,0,21.7,1.8,31.5,6.2,8.3,3.7,15.9,9.4,20.7,17.7,7.4,6,13.8,12.9,18.6,21.1,9.5,16.3,11.2,33,3.4,50.5Z"/>
    </g>
  </g>
</svg>