<?xml version="1.0" encoding="UTF-8"?>
<svg id="Layer_2" data-name="Layer 2" xmlns="http://www.w3.org/2000/svg" width="260.6" height="260.6" viewBox="0 0 260.6 260.6">
  <defs>
    <style>
      .cls-1 {
        fill: #fff;
      }

      .cls-2 {
        fill: #dbdcdd;
      }
    </style>
  </defs>
  <g id="Top">
    <g>
      <path d="m129.2,260.6C58.7,260.4-1.3,202.5,0,128,1.2,57.9,57.7,0,130.1,0c72.4,0,132,57.6,130.5,133.2-1.4,69.9-56.9,127.5-131.4,127.4Zm8.2-246c-14.2-.2-46.1,6.3-49.9,7.6-11.6,4.2-22.2,10.6-31.5,18.6-14.9,12.9-26.8,28.1-33.9,46.7-3,8-5.9,16-6.3,24.7-1.5,6.9-2.6,13.8-1.8,20.9-.8,4.3.4,8.6,1,12.7,3.3,24.2,13.3,45.5,29.8,63.5,13.3,14.6,29.5,24.9,48.2,31.3,20.1,6.9,40.6,8,61.3,3.8,19.1-3.9,36.4-12.2,51.2-24.8,14.5-12.3,25.8-27.3,33-45,4.9-12,8.3-24.5,8.1-37.6,0-2.3,0-4.7,0-7,.9-9.2-.8-18.2-2.8-27.1-7.3-31.8-26.5-55-53.3-72.5-16.1-10.5-34.3-14.4-53.1-15.9Z"/>
      <path class="cls-1" d="m243.9,103c-7.3-31.8-26.5-55-53.3-72.5-16.1-10.5-34.3-14.4-53.1-15.9-12.9-1.4-42,4.7-49.9,7.6-11.6,4.3-22.2,10.6-31.5,18.6-14.9,12.9-26.8,28.1-33.9,46.7-3,8-5.9,16-6.3,24.7-1.5,6.9-2.6,13.8-1.8,20.9,2.4,1.2,2.1,3.6,2.6,5.6,6.2,25.2,18.1,47.3,36.8,65.4,22.7,21.8,49.9,32.4,81.4,30.4,14.1-.9,27.5-5,40.3-11.5,35-17.6,56.2-46.4,69.2-82.3.5-1.3.4-3.1,2.2-3.6v-7q0,0,0,0c.9-9.2-.8-18.2-2.8-27.1Z"/>
      <path class="cls-2" d="m14.1,133.1c2.4,1.2,2.1,3.6,2.6,5.6,6.2,25.2,18.1,47.3,36.8,65.4,22.7,21.8,49.9,32.4,81.4,30.4,14.1-.9,27.5-5,40.3-11.5,35-17.6,56.2-46.4,69.2-82.3.5-1.3.4-3.1,2.2-3.6.2,13.2-3.2,25.6-8.1,37.6-7.2,17.7-18.5,32.7-33,45-14.9,12.6-32.1,20.9-51.2,24.8-20.6,4.2-41.2,3.2-61.3-3.8-18.7-6.4-34.9-16.8-48.2-31.3-16.4-18.1-26.4-39.4-29.8-63.5-.6-4.1-1.7-8.4-1-12.7Z"/>
    </g>
  </g>
</svg>