<?xml version="1.0" encoding="UTF-8"?>
<svg id="Layer_2" data-name="Layer 2" xmlns="http://www.w3.org/2000/svg" width="370" height="370" viewBox="0 0 370 370">
  <defs>
    <style>
      .cls-1 {
        fill: #5e697e;
      }

      .cls-2 {
        fill: #333840;
        opacity: .5;
      }

      .cls-3 {
        fill: #a5abb7;
      }

      .cls-4 {
        fill: #524e66;
      }
    </style>
  </defs>
  <g id="Middle">
    <g>
      <path class="cls-2" d="m366.8,99.1c1.2,22.1,1.8,38.5,2.6,54.9.8,18.2.6,36.4.5,54.6,0,15.1-.6,30.3-2,45.3-.6,7-2.8,31.3-3.6,36.4-1.4,8.2-3.3,16.2-5.4,24.2-2.3,8.9-6.4,17.1-11.9,24.1-6.3,8.2-14.8,14.2-24.9,17.7-12.5,4.4-25.3,7-38.3,8.9-21.6,3.2-43.4,4-65.2,4.4-30.9.5-61.8.4-92.7-.5-24.4-.8-48.7-3.5-72.3-10.8-11.8-3.7-22.5-9.2-30.5-19-1.2-1.5-7.8-13.3-9.2-16.7-6.3-15.8-8.7-32.5-10.6-49.3C-1.5,230.9.3,188.3.5,145.8c.2-29.5,2.2-58.9,9.9-87.5,3.2-11.8,7.6-23,16.7-31.9,6.9-6.7,15.1-11,24.1-14,13-4.3,26.3-6.6,39.9-8.2,14.5-1.6,29-2.2,43.5-3.1,31-1.9,62-1,93.1-.7,14.9.1,29.8,1.2,44.5,2.9,17.8,2.1,35.7,4,52.5,11.2,12.4,5.4,21.7,13.5,28,26,10.3,20.3,11.7,42.3,14.1,58.4ZM8.3,238.8c.8,12,1.5,24,3,36,1.7,13.4,4.3,26.5,8.2,39.4,4.8,16,14.1,27.9,30.1,34.1,18.4,7.1,37.6,9.8,57,11.9,7.7.9,15.5.3,23,1.2,17.4,2.1,34.8-.3,52.2,1.6,4.9.5,10.3-.5,15.4-.5,26.8-.3,53.5-.4,80.1-4.2,14.1-2,28.1-4.5,41.5-9.4,12.8-4.7,22.6-12.6,28.2-25.6,6.8-16.2,9.7-33.2,11.9-50.4,1.5-12,2.4-24.1,3-36.2.5-10.5.5-21.1.9-31.7.7-18.1.6-36.3-.7-54.5-.6-8.4.1-16.9-.6-25.2-1-11.2-1.8-22.4-3.4-33.6-2-13.8-4.5-27.4-9.3-40.5-4.5-12.3-11.9-21.9-24.2-27.5-13.4-6.1-27.6-8.9-42-11.2-21.3-3.4-42.7-4.9-64.2-4.8-28,.1-55.9-1.1-83.9.8-10.6.7-21.3.9-32,2-16.9,1.8-33.5,4.5-49.7,10.2-13.2,4.6-23.4,12.1-29.2,25.2-9.3,21-12.3,43.4-14.1,66-.9,10.8-1.8,21.7-1.8,32.5-.2,31.5-1.1,63,.7,94.6Z"/>
      <path d="m8.3,238.8c-1.8-31.5-.8-63-.7-94.6,0-10.8,1-21.7,1.8-32.5,1.9-22.6,4.8-45,14.1-66,5.8-13.1,16.1-20.6,29.2-25.2,16.1-5.6,32.8-8.4,49.7-10.2,10.7-1.1,21.3-1.3,32-2,28-1.8,55.9-.6,83.9-.8,21.5,0,42.9,1.5,64.2,4.8,14.4,2.3,28.6,5.1,42,11.2,12.3,5.6,19.7,15.2,24.2,27.5,4.8,13.1,7.3,26.7,9.3,40.5,1.6,11.2,2.4,22.4,3.4,33.6.7,8.4,0,16.9.6,25.2,1.3,18.2,1.4,36.4.7,54.5-.4,10.6-.3,21.1-.9,31.7-.6,12.1-1.5,24.2-3,36.2-2.2,17.2-5.1,34.2-11.9,50.4-5.5,13-15.4,21-28.2,25.6-13.4,4.9-27.4,7.4-41.5,9.4-26.6,3.8-53.3,3.9-80.1,4.2-5.1,0-10.4,1.1-15.4.5-17.4-1.9-34.9.5-52.2-1.6-7.6-.9-15.4-.3-23-1.2-19.4-2.2-38.7-4.8-57-11.9-16-6.2-25.3-18.1-30.1-34.1-3.9-12.9-6.5-26-8.2-39.4-1.5-12-2.2-24-3-36ZM340.8,70.2h0c0-4-1.9-7.6-3.1-11.3-2.6-8.2-6.8-15.3-14-20.4-6.2-4.4-13.2-6.7-20.3-8.7-23.2-6.7-47.3-8.6-71.2-8.8-40.2-.4-80.5-1.8-120.7,1.6-16.8,1.4-33.3,3.7-49.4,8.4-15.5,4.5-26.4,14-30.4,30.3-1.3,1.8-1.5,4-2.1,6-7.1,25.9-8.2,52.5-9,79.1-.7,25.8-.6,51.6,0,77.4.3,11-.1,22.2,2.1,33.1-.8,3.7.4,7.3.7,11,1.4,15.4,4.2,30.5,9.3,45,3.7,10.6,10.6,18.7,21,22.9,11.7,4.7,23.8,8,36.5,9.5,13.3,1.6,26.6,3.2,40,3.7,18.7.7,37.4-.2,56.1,1.1,5.1.4,10-.7,15-.9,15-.6,30,.2,45-.8,19.7-1.3,39.3-3.3,58.4-8.4,11-2.9,21.1-7.5,27.7-17.5,4.2-6.4,6.3-13.7,8.2-20.9,2.1-8.2,2.7-16.9,5.4-24.9,1.5-4.3,1.7-7.7.5-11.7,1.1-8.7,4-73.6,3-95.3-1.2-24.8-.2-49.8-3.8-74.5-1-7-3.3-17-5-24.9Z"/>
      <path class="cls-1" d="m22.8,256.8c-2.2-10.9-1.8-22.1-2.1-33.1-.6-25.8-.8-51.6,0-77.4.7-26.6,1.9-53.2,9-79.1.6-2.1.8-4.2,2.1-6,2.2,0,2.9-2,4.2-3.3,9.4-9.4,20.2-17.2,33.3-19.9,25.8-5.4,52.1-6.4,78.3-7.1,49.3-1.2,98.6,0,147.7,5.8,15.2,1.8,27.7,7.2,37.2,19.5,3.4,4.4,5.2,9.7,8.4,14.2,0,0,0,0,0,0,0,0,4,18,5,24.9,3.7,24.7,2.7,49.6,3.8,74.5,1,21.6-1.9,86.6-3,95.3-1.5.2-1.6,1.4-1.9,2.6-3.2,14.7-10.4,27.7-17.1,40.9-1.9,3.8-5,6.6-8.4,9.2-7.4,5.8-16.2,6.9-24.9,8.6-20.7,4.2-41.4,7.7-62.4,10-4.9.5-9.6-.8-14.4,0-4.4.8-9,1.7-13.4,1.6-13.5-.2-26.9,0-40.4-.6-16.4-.7-32.7-2.7-49-3.2-15.9-.4-31.3-3.2-46.6-7-7.6-1.8-13.2-6.1-17.6-11.8-12.3-15.7-20.1-33.7-25-53-.5-1.8.2-4.6-2.6-5.5Z"/>
      <path class="cls-4" d="m22.8,256.8c2.8.9,2.1,3.7,2.6,5.5,4.9,19.3,12.7,37.3,25,53,4.5,5.7,10.1,9.9,17.6,11.8,15.4,3.7,30.7,6.5,46.6,7,16.4.5,32.6,2.5,49,3.2,13.5.6,26.9.4,40.4.6,4.5,0,9-.8,13.4-1.6,4.8-.8,9.5.5,14.4,0,21-2.3,41.8-5.8,62.4-10,8.7-1.8,17.5-2.8,24.9-8.6,3.4-2.7,6.4-5.5,8.4-9.2,6.8-13.2,13.9-26.2,17.1-40.9.3-1.2.4-2.3,1.9-2.6,1.2,4,1,7.4-.5,11.7-2.8,7.9-3.4,16.6-5.4,24.9-1.8,7.3-3.9,14.5-8.2,20.9-6.6,10-16.7,14.6-27.7,17.5-19.1,5.1-38.7,7.1-58.4,8.4-15,1-30,.3-45,.8-5,.2-10,1.3-15,.9-18.7-1.4-37.4-.4-56.1-1.1-13.3-.5-26.7-2.1-40-3.7-12.7-1.5-24.8-4.8-36.5-9.5-10.5-4.2-17.3-12.3-21-22.9-5.1-14.6-7.9-29.7-9.3-45-.3-3.7-1.6-7.3-.7-11Z"/>
      <path class="cls-3" d="m340.8,70.3c-3.2-4.5-5-9.7-8.4-14.2-9.5-12.3-21.9-17.6-37.2-19.5-49.1-5.9-98.4-7-147.7-5.8-26.2.6-52.5,1.7-78.3,7.1-13.1,2.8-23.9,10.5-33.3,19.9-1.3,1.3-1.9,3.2-4.2,3.3,4-16.3,14.9-25.8,30.4-30.3,16.1-4.6,32.7-6.9,49.4-8.4,40.2-3.4,80.5-2,120.7-1.6,23.9.2,47.9,2.1,71.2,8.8,7.1,2.1,14.1,4.3,20.3,8.7,7.2,5.1,11.4,12.2,14,20.4,1.2,3.8,3.1,7.3,3.1,11.4Z"/>
    </g>
  </g>
</svg>