<?xml version="1.0" encoding="UTF-8"?>
<svg id="Layer_2" data-name="Layer 2" xmlns="http://www.w3.org/2000/svg" width="370" height="370" viewBox="0 0 370 370">
  <defs>
    <style>
      .cls-1 {
        fill: #5e697e;
      }

      .cls-2 {
        fill: #333840;
        opacity: .5;
      }

      .cls-3 {
        fill: #a5abb7;
      }

      .cls-4 {
        fill: #524e66;
      }
    </style>
  </defs>
  <g id="Middle">
    <g>
      <path class="cls-2" d="m349,1.3c12.8,3.5,19.7,12.5,20,25.5,1.9,85.7.5,171.4.9,257,0,20.6-.4,41.2-1,61.8-.4,12.3-11.7,23.2-23.9,23.5-56.7,1.4-113.5.7-170.2.8-46,0-141.3-2-143-1-9.3.6-17.8-.7-24.4-8.3-4-4.6-6.3-9.6-6.4-15.7C.5,321.8,0,298.7,0,275.6.2,200.9.3,126.2,0,51.5c0-9.3.9-18.4,1.1-27.7C1.3,11.7,12.4,1.3,24.6,1.1,123.1-.8,221.6.4,320.1.4c9,0,17.9.5,26.9.8.6.7,1.3.9,2,.2Zm-17.8,361.7c0-.3,0-.7,0-1,3.5,0,7,.1,10.5,0,11.6-.5,19.5-9,20.2-18.6.7-9.3.9-18.8.9-28.1-.1-95.9,1.3-191.9-.8-287.8-.2-9.6-8.9-19-18.3-19.2-10.6-.2-21.1-.7-31.7-1-20.8-.4-41.6-.2-62.3-.1-73.9.4-147.8-1.1-221.7,1-11.9.3-19.6,8.3-19.9,18.9-.3,13.4-1.4,26.7-1.3,40.1.5,91.5-1,183,1,274.4.2,10,8.1,19.7,19.6,20.3,14,.7,28.1,1,42.1,1,87.2,0,174.4,0,261.6,0Z"/>
      <path d="m331.1,363c-87.2,0-174.4,0-261.6,0-14,0-28.1-.3-42.1-1-11.5-.6-19.4-10.3-19.6-20.3-2-91.5-.4-183-1-274.4,0-13.4,1-26.8,1.3-40.1.3-10.6,8-18.5,19.9-18.9,73.9-2.2,147.8-.6,221.7-1,20.8-.1,41.6-.3,62.3.1,10.6.2,21.1.7,31.7,1,9.4.2,18.1,9.7,18.3,19.2,2.1,95.9.6,191.9.8,287.8,0,9.3-.2,18.8-.9,28.1-.7,9.5-8.6,18.1-20.2,18.6-3.5.2-10.5.7-10.5,1ZM20,46.8c.3,4.3.7,8.6.7,12.9,0,83.5,0,167,.1,250.6,0,6-1.8,11.8-.9,17.8-.9,4.8.6,9.5,1.1,14.2.4,3.5,3.4,6.1,7.2,6.7,4.4.7,8.9,1.1,13.3,1,5.3,0,10.6-.9,15.9-.9,85.1,0,170.1,0,255.2,0,8.9,0,17.7,1.8,26.7.2,5.1-.9,8.1-3.1,9.5-7.8,1.4-4.7,1.2-9.5.8-14.3,1-8.5-.8-16.9-.7-25.3.4-83.3-1-166.6.8-249.9.2-6.8.6-13.6-.2-20.3-1-8-4.9-11.1-13-11.5-14.3-.6-28.4,1.1-42.7,1-71.6-.1-143.1,0-214.7,0-6.5,0-13,.7-19.4-.2-9.8-1.3-19.5-.7-29.2-.5-4.9,0-9.3,3.8-9.6,8-.5,6.1-1.9,12.3-.9,18.5Z"/>
      <path class="cls-1" d="m20,328.1c-.9-6,.9-11.9.9-17.8-.1-83.5,0-167-.1-250.6,0-4.3-.5-8.6-.7-12.9,4.7-13.1,13.6-18.1,27.8-18,88.2.4,176.5.2,264.7.1,4.5,0,9-.2,13.5,0,6.3.4,11.8,2.2,15.7,8,3.1,4.7,5.6,9.8,8.1,14.8-1.8,83.3-.4,166.6-.8,249.9,0,8.5,1.7,16.9.7,25.4-1.3,0-2.2.8-2.9,1.7-4.8,5.9-11.1,7.4-18.6,7.4-92.9-.2-185.8-.2-278.7,0-10.5,0-21,.7-29-8,0,0-.3,0-.5,0Z"/>
      <path class="cls-4" d="m20,328.1c.2,0,.4,0,.5,0,8,8.7,18.5,8,29,8,92.9-.1,185.8-.1,278.7,0,7.5,0,13.7-1.6,18.6-7.4.7-.9,1.6-1.7,2.9-1.7.4,4.8.6,9.6-.8,14.3-1.4,4.8-4.4,6.9-9.5,7.8-9,1.6-17.8-.1-26.7-.2-85.1,0-170.1,0-255.2,0-5.3,0-10.6.9-15.9.9-4.4,0-8.9-.4-13.3-1-3.7-.6-6.8-3.2-7.2-6.7-.5-4.7-2-9.4-1.1-14.2Z"/>
      <path class="cls-3" d="m349.8,51.8c-2.5-5-4.9-10.1-8.1-14.8-3.8-5.8-9.3-7.7-15.7-8-4.5-.3-9,0-13.5,0-88.2,0-176.5.3-264.7-.1-14.2,0-23.1,4.9-27.8,18-1-6.2.4-12.4.9-18.5.4-4.2,4.8-7.9,9.6-8,9.7-.1,19.5-.8,29.2.5,6.4.9,12.9.2,19.4.2,71.6,0,143.1,0,214.7,0,14.2,0,28.4-1.6,42.7-1,8.1.3,12.1,3.5,13,11.5.8,6.8.5,13.6.2,20.3Z"/>
    </g>
  </g>
</svg>