<?xml version="1.0" encoding="UTF-8"?>
<svg id="Layer_2" data-name="Layer 2" xmlns="http://www.w3.org/2000/svg" width="280" height="280" viewBox="0 0 280 280">
  <defs>
    <style>
      .cls-1 {
        fill: #5e697e;
      }

      .cls-2 {
        fill: #333840;
        opacity: .5;
      }

      .cls-3 {
        fill: #a5abb7;
      }

      .cls-4 {
        fill: #524e66;
      }
    </style>
  </defs>
  <g id="Middle">
    <g>
      <path class="cls-2" d="m139.5,279.6c-14.4,0-28.8.8-43.1-.2-15.7-1-31.5-2.7-46.7-7.2-23.5-6.9-37.5-22.9-43-46.7-2.7-11.6-3.8-23.3-4.9-35C-.7,163.3-.1,136.1.6,108.8c.5-17.4,2.4-34.5,5.8-51.5C12.3,27.9,30.3,11.2,59.4,6.1c12.7-2.2,25.6-3.1,38.5-4.3,25.3-2.4,50.6-2.1,75.9-.7,15.7.8,31.3,2.5,46.8,5,28.9,4.6,48.5,24.2,53.2,52.9,2,12.3,2.9,24.7,4.1,37,2.8,26.5,2.5,53.1.8,79.6-1.1,16.8-2,33.6-5.9,50.1-6.1,26-22,41.9-48,47.9-11.3,2.6-22.8,3.8-34.4,5-17,1.8-34,1.6-51,1Zm133.3-135.6c-.4-12.3-.5-20.8-.9-29.4-.8-18.9-2.5-37.7-6.4-56.2-4-19-14.2-33.2-32.5-40.5-9.9-4-20.5-5.5-31.2-6.8-20.5-2.4-40.9-3.9-61.5-4-14.5,0-28.9.7-43.3,1.9-12.9,1.1-25.8,2.5-38.5,5.2-20.2,4.4-35,15.3-41.8,35.4-3.3,9.5-4.6,19.5-6,29.5-2.7,19.7-3.5,39.5-3.9,59.4-.3,14.5.7,28.9,1.9,43.3,1.3,15.6,2.8,31.1,7.1,46.2,5,17.4,15.8,29.2,32.8,35.3,9.7,3.5,19.8,4.8,30,6.3,14.4,2.1,28.9,3.1,43.4,3.6,23.5.9,47.1,0,70.5-2.7,12.2-1.4,24.3-2.7,36.1-6.3,16.2-4.9,27.9-15.5,33.7-31.3,6.6-17.7,7.9-36.7,9.1-55.4.8-12.4,2.3-24.9,1.4-33.7Z"/>
      <path d="m272.9,143.9c.9,8.8-.6,21.3-1.4,33.7-1.2,18.7-2.5,37.6-9.1,55.4-5.9,15.8-17.5,26.4-33.7,31.3-11.7,3.6-23.9,4.9-36.1,6.3-23.5,2.7-47,3.5-70.5,2.7-14.5-.5-29-1.5-43.4-3.6-10.2-1.5-20.3-2.8-30-6.3-17-6.1-27.8-17.9-32.8-35.3-4.3-15.1-5.8-30.6-7.1-46.2-1.2-14.4-2.2-28.8-1.9-43.3.4-19.8,1.2-39.6,3.9-59.4,1.4-10,2.7-20,6-29.5,6.9-20.1,21.6-31,41.8-35.4,12.7-2.7,25.6-4.1,38.5-5.2,14.4-1.2,28.8-2,43.3-1.9,20.6,0,41.1,1.5,61.5,4,10.7,1.3,21.3,2.8,31.2,6.8,18.3,7.3,28.5,21.6,32.5,40.5,3.9,18.5,5.6,37.3,6.4,56.2.4,8.6.5,17.1.9,29.4ZM26.1,68c-.6,0-7.9,91.1-1.8,136.3.9,5.6,1.8,11.2,2.9,16.8,3.4,17,13.6,27.9,30.3,31.8,21,4.9,42.5,6.5,63.9,7.2,15.2.5,30.3.4,45.6-.6,16.4-1,32.7-2.8,49-5.3,12.9-2,23.8-7.2,30.9-18.4,7.4-11.8,7.5-25.4,9.4-38.6,2.1-15.2,3.1-30.5,3.3-45.8.3-23.3-.3-46.5-3.2-69.7-.6-5.2-.8-10.6-2.8-15.5.5-2.7-.6-5.3-1.2-7.9-3.2-14.9-12.1-25.6-26.6-29.6-22.1-6.1-45.1-7.6-67.9-8.3-29.8-.9-59.5,0-88.9,5-8.2,1.4-16.7,2.4-24,7.1-12.7,8.4-18.1,20.7-18.9,35.5h0Z"/>
      <path class="cls-1" d="m24.3,204.3c-6.1-45.2,1.5-135.9,1.8-136.3,0,0,0,0,0,0,3.1-3,4-7.3,6.4-10.7,5.1-7.1,8.8-15.4,18.7-18.1,22.4-6.1,45.4-8.1,68.4-8.8,16.8-.6,33.7.1,50.5,1.7,17.3,1.6,34.4,4.2,51.2,8.3,13.4,3.3,24.4,9.5,30.1,22.9.5,1.1,1,2.2,2.2,2.6,2.1,5,2.2,10.4,2.8,15.5,2.9,23.1,3.6,46.4,3.2,69.7-.2,15.3-1.2,30.6-3.3,45.8-4,3.4-4,8.6-5.8,13-5.6,14-13.9,24.9-29,29.4-22.1,6.6-44.8,8.6-67.6,9.4-15.8.5-31.5-1-47.2-2.9-17.4-2.1-34.5-5.5-51-11.5-5.9-2.2-12.5-3.7-16.7-9-4.7-5.9-9.9-11.5-12.2-19-.3-1.1-1-2.2-2.4-2.3Z"/>
      <path class="cls-4" d="m24.3,204.3c1.4.1,2,1.2,2.4,2.3,2.3,7.5,7.6,13.1,12.2,19,4.2,5.3,10.7,6.9,16.7,9,16.5,6,33.6,9.4,51,11.5,15.7,1.9,31.4,3.4,47.2,2.9,22.8-.8,45.6-2.8,67.6-9.4,15-4.5,23.4-15.4,29-29.4,1.8-4.4,1.8-9.6,5.8-13-1.9,13.2-2,26.9-9.4,38.6-7.1,11.3-18,16.5-30.9,18.4-16.3,2.5-32.5,4.2-49,5.3-15.2,1-30.4,1-45.6.6-21.4-.7-42.9-2.3-63.9-7.2-16.7-3.9-27-14.8-30.3-31.8-1.1-5.6-1.9-11.2-2.9-16.8Z"/>
      <path class="cls-3" d="m253.5,66.1c-1.2-.4-1.8-1.5-2.2-2.6-5.6-13.4-16.7-19.6-30.1-22.9-16.9-4.1-33.9-6.7-51.2-8.3-16.8-1.6-33.6-2.3-50.5-1.7-23.1.8-46,2.7-68.4,8.8-9.9,2.7-13.5,10.9-18.7,18.1-2.4,3.4-3.3,7.7-6.4,10.7.8-14.8,6.1-27.1,18.9-35.5,7.3-4.8,15.8-5.7,24-7.1,29.4-5.1,59.2-5.9,88.9-5,22.9.7,45.8,2.2,67.9,8.3,14.5,4,23.4,14.7,26.6,29.6.6,2.6,1.6,5.1,1.2,7.9Z"/>
    </g>
  </g>
</svg>