<?xml version="1.0" encoding="UTF-8"?>
<svg id="Layer_2" data-name="Layer 2" xmlns="http://www.w3.org/2000/svg" width="356" height="355.9" viewBox="0 0 356 355.9">
  <defs>
    <style>
      .cls-1 {
        fill: #fff;
      }

      .cls-2 {
        fill: #dbdcdd;
      }
    </style>
  </defs>
  <g id="Middle">
    <g>
      <path d="m1.1,231.6c-1.8-31.5-.8-63-.7-94.6,0-10.8,1-21.7,1.8-32.5,1.9-22.6,4.8-45,14.1-66,5.8-13.1,16.1-20.6,29.2-25.2,16.1-5.6,32.8-8.4,49.7-10.2,10.7-1.1,21.3-1.3,32-2,28-1.8,55.9-.6,83.9-.8,21.5,0,42.9,1.5,64.2,4.8,14.4,2.3,28.6,5.1,42,11.2,12.3,5.6,19.7,15.2,24.2,27.5,4.8,13.1,7.3,26.7,9.3,40.5,1.6,11.2,2.4,22.4,3.4,33.6.7,8.4,0,16.9.6,25.2,1.3,18.2,1.4,36.4.7,54.5-.4,10.6-.3,21.1-.9,31.7-.6,12.1-1.5,24.2-3,36.2-2.2,17.2-5.1,34.2-11.9,50.4-5.5,13-15.4,21-28.2,25.6-13.4,4.9-27.4,7.4-41.5,9.4-26.6,3.8-53.3,3.9-80.1,4.2-5.1,0-10.4,1.1-15.4.5-17.4-1.9-34.9.5-52.2-1.6-7.6-.9-15.4-.3-23-1.2-19.4-2.2-38.7-4.8-57-11.9-16-6.2-25.3-18.1-30.1-34.1-3.9-12.9-6.5-26-8.2-39.4-1.5-12-2.2-24-3-36ZM333.6,62.9h0c0-4-1.9-7.6-3.1-11.3-2.6-8.2-6.8-15.3-14-20.4-6.2-4.4-13.2-6.7-20.3-8.7-23.2-6.7-47.3-8.6-71.2-8.8-40.2-.4-80.5-1.8-120.7,1.6-16.8,1.4-33.3,3.7-49.4,8.4-15.5,4.5-26.4,14-30.4,30.3-1.3,1.8-1.5,4-2.1,6-7.1,25.9-8.2,52.5-9,79.1-.7,25.8-.6,51.6,0,77.4.3,11-.1,22.2,2.1,33.1-.8,3.7.4,7.3.7,11,1.4,15.4,4.2,30.5,9.3,45,3.7,10.6,10.6,18.7,21,22.9,11.7,4.7,23.8,8,36.5,9.5,13.3,1.6,26.6,3.2,40,3.7,18.7.7,37.4-.2,56.1,1.1,5.1.4,10-.7,15-.9,15-.6,30,.2,45-.8,19.7-1.3,39.3-3.3,58.4-8.4,11-2.9,21.1-7.5,27.7-17.5,4.2-6.4,6.3-13.7,8.2-20.9,2.1-8.2,2.7-16.9,5.4-24.9,1.5-4.3,1.7-7.7.5-11.7,1.1-8.7,4-73.6,3-95.3-1.2-24.8-.2-49.8-3.8-74.5-1-7-3.3-17-5-24.9Z"/>
      <path class="cls-2" d="m15.6,249.5c2.8.9,2.1,3.7,2.6,5.5,4.9,19.3,12.7,37.3,25,53,4.5,5.7,10.1,9.9,17.6,11.8,15.4,3.7,30.7,6.5,46.6,7,16.4.5,32.6,2.5,49,3.2,13.5.6,26.9.4,40.4.6,4.5,0,9-.8,13.4-1.6,4.8-.8,9.5.5,14.4,0,21-2.3,41.8-5.8,62.4-10,8.7-1.8,17.5-2.8,24.9-8.6,3.4-2.7,6.4-5.5,8.4-9.2,6.8-13.2,13.9-26.2,17.1-40.9.3-1.2.4-2.3,1.9-2.6,1.2,4,1,7.4-.5,11.7-2.8,7.9-3.4,16.6-5.4,24.9-1.8,7.3-3.9,14.5-8.2,20.9-6.6,10-16.7,14.6-27.7,17.5-19.1,5.1-38.7,7.1-58.4,8.4-15,1-30,.3-45,.8-5,.2-10,1.3-15,.9-18.7-1.4-37.4-.4-56.1-1.1-13.3-.5-26.7-2.1-40-3.7-12.7-1.5-24.8-4.8-36.5-9.5-10.5-4.2-17.3-12.3-21-22.9-5.1-14.6-7.9-29.7-9.3-45-.3-3.7-1.6-7.3-.7-11Z"/>
      <path class="cls-1" d="m342.4,162.3c-1.2-24.8-.2-49.8-3.8-74.5-1-6.8-4.8-23.9-5-24.9,0,0,0,0,0,0,0-4.1-1.9-7.7-3.1-11.4-2.6-8.2-6.8-15.3-14-20.4-6.2-4.4-13.2-6.7-20.3-8.7-23.2-6.7-47.3-8.6-71.2-8.8-40.2-.4-80.5-1.8-120.7,1.6-16.8,1.4-33.3,3.7-49.4,8.4-15.5,4.5-26.4,14-30.4,30.3-1.3,1.8-1.5,4-2.1,6-7.1,25.9-8.2,52.5-9,79.1-.7,25.8-.6,51.6,0,77.4.3,11-.1,22.2,2.1,33.1,2.8.9,2.1,3.7,2.6,5.5,4.9,19.3,12.7,37.3,25,53,4.5,5.7,10.1,9.9,17.6,11.8,15.4,3.7,30.7,6.5,46.6,7,16.4.5,32.6,2.5,49,3.2,13.5.6,26.9.4,40.4.6,4.5,0,9-.8,13.4-1.6,4.8-.8,9.5.5,14.4,0,21-2.3,41.8-5.8,62.4-10,8.7-1.8,17.5-2.8,24.9-8.6,3.4-2.7,6.4-5.5,8.4-9.2,6.8-13.2,13.9-26.2,17.1-40.9.3-1.2.4-2.3,1.9-2.6,1.1-8.7,4-73.6,3-95.3Z"/>
    </g>
  </g>
</svg>