<?xml version="1.0" encoding="UTF-8"?>
<svg id="Layer_2" data-name="Layer 2" xmlns="http://www.w3.org/2000/svg" width="266.5" height="266.7" viewBox="0 0 266.5 266.7">
  <defs>
    <style>
      .cls-1 {
        fill: #fff;
      }

      .cls-2 {
        fill: #dbdcdd;
      }
    </style>
  </defs>
  <g id="Middle">
    <g>
      <path d="m.2,144.1C.2,99.2,0,65.2.3,31.3c0-7.4,0-15.3,5.7-21.4C10.4,5,15.4,1.4,22.2,1.1,87.7-1.1,153.3.8,218.9,0c9.1-.1,18.1.7,27,1.3,9.4.6,19,10.6,19.5,21,1.7,33.6.8,67.2,1,100.8.1,29.4-.2,58.7.1,88.1.1,11.4-1.1,22.6-1.2,34,0,9.4-11.6,20-20.8,20.3-68.9,2.2-137.9.5-206.8.8-7.4,0-15.1.6-22.1-2.6-9.2-4.1-14-10.9-14.6-21.4-2.1-36.4,0-72.8-.8-98.3ZM233.8,13.3c-3-.6-142.3,0-208.9-.1-.6-.3-9.4,4.4-10.9,9-2.2,6.7-.8,13.6-.9,20.4,0,1-.2,2-.2,3,0,60.5,0,120.9,0,181.4,0,1.3.1,2.6.2,3.9,0,1.8-.2,3.6-.2,5.4,0,12.3,5,17.4,17.2,17.4,21.3,0,42.5,0,63.8,0,48,0,95.9,0,143.9,0,8.2,0,12.9-3.3,15-10.6,1.4-4.7.6-9.4.5-14.2,0-3.1.2-6.3.2-9.4,0-59.3,0-118.5,0-177.8,0-4.9.2-9.9,0-14.8-.2-6.8-4.3-11.6-10.8-12.9-.2-.1-.8-.4-2-.6-2.6,0-4.3,0-6.9,0Z"/>
      <path class="cls-1" d="m253.5,26.9c-.2-6.8-4.3-11.6-10.8-12.9-.4-.2-1-.5-2-.6-2.6-.3-146.2-.4-212.8-.1-.2,0-3.4-.1-4.2.2-5.2,2-8.2,4.2-9.7,8.8-2.2,6.7-.8,13.6-.9,20.4,0,1-.2,2-.2,3,0,60.5,0,120.9,0,181.4,0,1.3.1,2.6.2,3.9,5.8,4.3,11.8,8.1,19.2,9.4,2.1.4,4.2.5,6.3.5,59.8,0,119.7,0,179.5,0,13.1,0,26-.2,35.1-11.9,0-3.1.2-6.3.2-9.4,0-59.3,0-118.5,0-177.8,0-4.9.2-9.9,0-14.8Z"/>
      <path class="cls-2" d="m13.2,230.8c5.8,4.3,11.8,8.1,19.2,9.4,2.1.4,4.2.5,6.3.5,59.8,0,119.7,0,179.5,0,13.1,0,26-.2,35.1-11.9.2,4.7.9,9.5-.5,14.2-2.2,7.3-6.9,10.6-15,10.6-48,0-95.9,0-143.9,0s-42.5,0-63.8,0c-12.2,0-17.2-5.1-17.2-17.4,0-1.8.1-3.6.2-5.4Z"/>
    </g>
  </g>
</svg>