<?xml version="1.0" encoding="UTF-8"?>
<svg id="Layer_2" data-name="Layer 2" xmlns="http://www.w3.org/2000/svg" width="265.2" height="266" viewBox="0 0 265.2 266">
  <defs>
    <style>
      .cls-1 {
        fill: #0058c1;
      }

      .cls-2 {
        fill: #78b8ef;
      }

      .cls-3 {
        fill: #007ee0;
      }
    </style>
  </defs>
  <g id="Middle">
    <g>
      <path d="m265.1,133.5c1.6,70.8-60.3,134.9-136.4,132.4C62.1,263.8-4.4,207.7.2,125.5,3.9,60.7,56.8-3.8,141.1.2c64.6,3,124.6,57.9,124.1,133.3Zm-21.2-42.3h0c-8.1-22.5-21.8-40.9-41.3-54.8-27.3-19.4-57.4-27.1-90.7-21.2-32.2,5.7-57.5,22.3-76.8,48.5-6,8.1-10.9,16.8-13.9,26.5h0c-1.3.4-2.4,4.5-2.6,5.4-4.9,17.2-7.4,34.6-4.2,52.4,0,1-.3,2.1,0,3,3.1,14.2,7.1,28.1,14.5,40.8,11.5,19.9,27.1,35.7,47.3,46.5,21.3,11.4,43.9,16,68.2,13.3,15-1.7,29.2-5.6,42.4-12.4,18.2-9.3,33.1-22.6,44.4-39.7,6.1-9.4,11.6-19.2,14.2-30.2,6.6-16.9,5.9-34.5,4.9-52-.4-8.2-5.5-25.7-6.7-26.1Z"/>
      <path class="cls-3" d="m250.6,117.2c1,17.5,1.7,35.2-4.9,52-2.1.1-2.6,1.9-3.4,3.3-6,10-12.8,19.3-20.8,27.8-11.9,12.7-26,22.4-41.8,29.5-21.2,9.6-43.5,13.2-66.3,9-45.4-8.4-75.5-35.7-93.2-77.9-1.8-4.4-2-9.5-5.5-13.1-3.2-17.8-.7-35.2,4.2-52.4.2-.9,1-4.4,2.6-5.4h0c2.5-1.7,3.3-2.6,4.5-4.2,13.5-18,29.4-33.4,48.9-44.5,35.5-20.3,72.1-23.2,109.3-4.9,21.8,10.7,38.7,27.1,52.8,46.6,2.1,2.8,3.2,6.7,7,8.1,0,0,0,0,0,0,1.8,1.9,6.2,17.9,6.7,26.1Z"/>
      <path class="cls-1" d="m14.6,148c3.6,3.6,3.7,8.7,5.5,13.1,17.7,42.1,47.8,69.5,93.2,77.9,22.8,4.2,45.1.5,66.3-9,15.8-7.1,29.9-16.8,41.8-29.5,8-8.5,14.8-17.8,20.8-27.8.9-1.4,1.4-3.2,3.4-3.3-2.7,11-8.1,20.8-14.3,30.2-11.3,17.2-26.2,30.4-44.4,39.7-13.3,6.8-27.4,10.8-42.4,12.4-24.3,2.7-46.9-1.9-68.2-13.3-20.3-10.8-35.8-26.6-47.3-46.5-7.4-12.8-11.5-26.6-14.5-40.8-.2-1,0-2,0-3Z"/>
      <path class="cls-2" d="m244,91.2c-3.9-1.4-4.9-5.3-7-8.1-14.2-19.5-31.1-35.9-52.8-46.6-37.3-18.3-73.8-15.4-109.3,4.9-19.6,11.2-35.5,26.5-48.9,44.5-1.2,1.6-1.9,4.1-4.5,4.3,3-9.7,7.9-18.4,13.9-26.5,19.3-26.2,44.7-42.8,76.8-48.5,33.2-5.9,63.4,1.9,90.7,21.2,19.5,13.8,33.2,32.2,41.3,54.8Z"/>
    </g>
  </g>
</svg>