<?xml version="1.0" encoding="UTF-8"?>
<svg id="Layer_2" data-name="Layer 2" xmlns="http://www.w3.org/2000/svg" width="354.9" height="355.8" viewBox="0 0 354.9 355.8">
  <defs>
    <style>
      .cls-1 {
        fill: #5e697e;
      }

      .cls-2 {
        fill: #a5abb7;
      }

      .cls-3 {
        fill: #524e66;
      }
    </style>
  </defs>
  <g id="Middle">
    <g>
      <path d="m354.9,177.7c.2,97.6-78.8,181-183.1,178C77.2,353,.4,277.9,0,178.4-.4,80,78.2-2.4,182.6,0c93.2,2.2,171.9,78.1,172.2,177.6ZM30,107h0c-1.1.1-.8,1.3-1.3,2-2.5,4.1-4,8.7-5.5,13.3-7.3,21.9-11.2,44.2-9.1,67.5,1.1,11.7,2.6,23.2,6.3,34.3,0,.6,0,1.3.2,1.9,10.1,32,27.9,58.8,54.1,80,29.1,23.6,62.5,35.5,99.6,37.1,10.1.4,20-1.1,29.9-2.7,34.6-5.5,64.2-21.1,89.1-45.4,14.5-14.2,25.9-30.9,34.1-49.6,3.6-8.1,7.2-16.3,8.5-25.2.3-.4.7-.8.8-1.2,4.7-19.3,6.2-38.9,4.1-58.6-.7-6.3-.8-13-3.8-18.9,0-.8.3-1.7,0-2.4-6.6-26.1-18.4-49.6-36.3-69.7-15.2-17-33-30.7-53.7-40.3-17.8-8.3-36.4-13.7-55.8-15.2-14.7-1.1-29.4-.2-44.1,2.6-21.2,4-40.5,12.1-58.7,23.5-15.9,10-29.5,22.5-40.8,37.3-6.6,8.6-13,17.6-16.8,27.9h0c-1.1.2-.9,1.2-1,2Z"/>
      <path class="cls-1" d="m20.5,224.1c-3.7-11.2-5.2-22.6-6.3-34.3-2.1-23.3,1.8-45.6,9.1-67.5,1.5-4.5,2.9-9.1,5.5-13.3,1-.3,1.5-1,1.3-2,0,0,0,0,0,0,1.1-.3,1.2-1.1,1-2h0c2.3,0,2.7-2.1,3.7-3.4,9.3-13.3,19.8-25.6,32.3-36.1,34.1-28.6,72.8-43.1,117.7-40.3,14.3.9,28.2,3.4,41.6,8,43.5,15,75.4,43.9,98.3,83.5,4.7,8.1,8.1,16.8,12.7,24.8,3,5.9,3.1,12.6,3.8,18.9,2.1,19.7.5,39.3-4.1,58.6-.1.4-.5.8-.8,1.2-2,.3-2.3,2.2-2.9,3.6-6.4,15.2-14.3,29.4-24.6,42.2-11.8,14.7-25.2,27.8-41.2,38-21.3,13.6-44.5,22.3-69.8,24.7-17.4,1.7-34.8,1.5-52-2.2-35-7.5-64.8-24.3-89.4-50.2-13.8-14.5-25-30.9-33.1-49.4-.5-1.2-.9-2.5-2.5-2.7Z"/>
      <path class="cls-3" d="m20.5,224.1c1.6.2,2,1.5,2.5,2.7,8,18.5,19.3,34.8,33.1,49.4,24.6,25.9,54.5,42.7,89.4,50.2,17.2,3.7,34.5,3.8,52,2.2,25.3-2.4,48.5-11.1,69.8-24.7,16-10.2,29.4-23.3,41.2-38,10.3-12.8,18.3-27,24.6-42.2.6-1.4.9-3.3,2.9-3.6-1.3,8.9-5,17.1-8.5,25.2-8.2,18.7-19.5,35.4-34.1,49.6-24.9,24.3-54.5,39.9-89.1,45.4-9.9,1.6-19.9,3.1-29.9,2.7-37.2-1.6-70.5-13.4-99.6-37.1-26.2-21.2-43.9-48-54.1-80-.2-.6-.1-1.3-.2-1.9Z"/>
      <path class="cls-2" d="m337.1,141.4c-4.6-8.1-8-16.8-12.7-24.8-22.8-39.6-54.7-68.4-98.3-83.5-13.4-4.6-27.3-7.1-41.6-8-44.8-2.8-83.6,11.7-117.7,40.3-12.5,10.5-23,22.7-32.3,36.1-.9,1.4-1.3,3.5-3.7,3.5,3.9-10.4,10.2-19.3,16.8-27.9,11.4-14.8,24.9-27.3,40.8-37.3,18.2-11.4,37.5-19.5,58.7-23.5,14.7-2.8,29.4-3.7,44.1-2.6,19.4,1.5,38,6.9,55.8,15.2,20.8,9.7,38.6,23.3,53.7,40.3,17.9,20.1,29.7,43.6,36.3,69.7.2.8,0,1.6,0,2.4Z"/>
      <path class="cls-2" d="m30,107c.2,1.1-.3,1.7-1.3,2,.5-.6.2-1.8,1.3-2Z"/>
      <path class="cls-2" d="m31,105c.2,1,0,1.7-1,2,.2-.8-.1-1.8,1-2Z"/>
    </g>
  </g>
</svg>