<?xml version="1.0" encoding="UTF-8"?>
<svg id="Layer_2" data-name="Layer 2" xmlns="http://www.w3.org/2000/svg" width="280" height="280" viewBox="0 0 280 280">
  <defs>
    <style>
      .cls-1 {
        fill: #5e697e;
      }

      .cls-2 {
        fill: #333840;
        opacity: .5;
      }

      .cls-3 {
        fill: #a5abb7;
      }

      .cls-4 {
        fill: #524e66;
      }
    </style>
  </defs>
  <g id="Middle">
    <g>
      <path class="cls-2" d="m140.1,280c-37.8-.6-75.6.9-113.3-.7-13.4-.6-25.2-12.5-26-25.8C-.5,230.3.2,207.2.1,184.1,0,134.5.6,84.8,0,35.1,0,23,3.2,13.7,12.3,6.1c3.8-3.2,8-5.2,13-5.4C33,.5,40.8,0,48.5,0c61,0,122.1,0,183.1,0,7.6,0,15.2.9,22.7.5,9.9-.5,24.8,15.1,25.1,25,.5,22.6.5,45.2.5,67.8,0,48.8,0,97.7-.2,146.5,0,3.3-.6,6.6-.3,9.9.9,11.5-5.4,18.9-13.6,25.4-3.5,2.7-7.5,3.8-12,4-29.7,1.3-59.4.4-89.1.7-8.2,0-16.5,0-24.7,0ZM7,150.8c.8,25.5-1.3,61.9.8,98.3.6,10.5,5.4,17.3,14.6,21.4,7.1,3.2,14.8,2.6,22.1,2.6,68.9-.3,137.9,1.4,206.8-.8,9.2-.3,20.7-11,20.8-20.3.1-11.3,1.3-22.6,1.2-34-.3-29.4,0-58.7-.1-88.1-.1-33.6.7-67.2-1-100.8-.5-10.4-10.1-20.4-19.5-21-9-.6-18-1.4-27-1.3-65.6.7-131.2-1.2-196.7,1.1-6.8.2-11.8,3.9-16.1,8.7-5.6,6.2-5.6,14-5.7,21.4-.3,34-.1,68-.1,112.9Z"/>
      <path d="m7,150.8c0-44.9-.2-78.9.1-112.9,0-7.4,0-15.3,5.7-21.4,4.4-4.8,9.4-8.4,16.1-8.7,65.6-2.3,131.2-.3,196.7-1.1,9.1-.1,18.1.7,27,1.3,9.4.6,19,10.6,19.5,21,1.7,33.6.8,67.2,1,100.8.1,29.4-.2,58.7.1,88.1.1,11.4-1.1,22.6-1.2,34,0,9.4-11.6,20-20.8,20.3-68.9,2.2-137.9.5-206.8.8-7.4,0-15.1.6-22.1-2.6-9.2-4.1-14-10.9-14.6-21.4-2.1-36.4,0-72.8-.8-98.3ZM240.6,20c-3-.6-142.3,0-208.9-.1-.6-.3-9.4,4.4-10.9,9-2.2,6.7-.8,13.6-.9,20.4,0,1-.2,2-.2,3,0,60.5,0,120.9,0,181.4,0,1.3.1,2.6.2,3.9,0,1.8-.2,3.6-.2,5.4,0,12.3,5,17.4,17.2,17.4,21.3,0,42.5,0,63.8,0,48,0,95.9,0,143.9,0,8.2,0,12.9-3.3,15-10.6,1.4-4.7.6-9.4.5-14.2,0-3.1.2-6.3.2-9.4,0-59.3,0-118.5,0-177.8,0-4.9.2-9.9,0-14.8-.2-6.8-4.3-11.6-10.8-12.9-.2-.1-.8-.4-2-.6-2.6,0-4.3,0-6.9,0Z"/>
      <path class="cls-1" d="m20,237.4c0-1.3-.2-2.6-.2-3.9,0-60.5,0-120.9,0-181.4,0-1,.1-2,.2-3,2.1-3.3,4.2-6.6,6.3-10,.8-1.3,1.5-2.5,3.2-2.7,5.5-.9,10.9-2.1,16.6-2.1,62.9.1,125.7.4,188.6-.2,12.2-.1,21.2,1.9,25.6,14.2,0,59.3,0,118.5,0,177.8,0,3.1-.1,6.3-.2,9.4-9.1,11.7-22.1,11.9-35.1,11.9-59.8,0-119.7,0-179.5,0-2.1,0-4.2-.2-6.3-.5-7.4-1.3-13.3-5.1-19.2-9.4Z"/>
      <path class="cls-3" d="m260.3,48.3c-4.4-12.3-13.3-14.3-25.6-14.2-62.9.6-125.7.4-188.6.2-5.7,0-11.1,1.2-16.6,2.1-1.7.3-2.4,1.5-3.2,2.7-2.1,3.3-4.2,6.7-6.3,10,0-6.8-1.3-13.7.9-20.4,1.5-4.5,4.5-6.7,9.7-8.8.8-.3,4.1-.2,4.2-.2,66.6-.3,210.2-.2,212.8.1,1,.1,1.6.4,2,.6,6.5,1.3,10.6,6.1,10.8,12.9.1,4.9,0,9.9,0,14.8Z"/>
      <path class="cls-4" d="m20,237.4c5.8,4.3,11.8,8.1,19.2,9.4,2.1.4,4.2.5,6.3.5,59.8,0,119.7,0,179.5,0,13.1,0,26-.2,35.1-11.9.2,4.7.9,9.5-.5,14.2-2.2,7.3-6.9,10.6-15,10.6-48,0-95.9,0-143.9,0s-42.5,0-63.8,0c-12.2,0-17.2-5.1-17.2-17.4,0-1.8.1-3.6.2-5.4Z"/>
    </g>
  </g>
</svg>