<?xml version="1.0" encoding="UTF-8"?>
<svg id="Layer_2" data-name="Layer 2" xmlns="http://www.w3.org/2000/svg" width="266.3" height="266.5" viewBox="0 0 266.3 266.5">
  <defs>
    <style>
      .cls-1 {
        fill: #0058c1;
      }

      .cls-2 {
        fill: #78b8ef;
      }

      .cls-3 {
        fill: #007ee0;
      }
    </style>
  </defs>
  <g id="Middle">
    <g>
      <path d="m266,136.9c.9,8.8-.6,21.3-1.4,33.7-1.2,18.7-2.5,37.6-9.1,55.4-5.9,15.8-17.5,26.4-33.7,31.3-11.7,3.6-23.9,4.9-36.1,6.3-23.5,2.7-47,3.5-70.5,2.7-14.5-.5-29-1.5-43.4-3.6-10.2-1.5-20.3-2.8-30-6.3-17-6.1-27.8-17.9-32.8-35.3-4.3-15.1-5.8-30.6-7.1-46.2C.7,160.3-.2,145.9,0,131.4c.4-19.8,1.2-39.6,3.9-59.4,1.4-10,2.7-20,6-29.5C16.8,22.4,31.5,11.5,51.7,7.1c12.7-2.7,25.6-4.1,38.5-5.2C104.7.7,119.1,0,133.5,0c20.6,0,41.1,1.5,61.5,4,10.7,1.3,21.3,2.8,31.2,6.8,18.3,7.3,28.5,21.6,32.5,40.5,3.9,18.5,5.6,37.3,6.4,56.2.4,8.6.5,17.1.9,29.4ZM19.3,61c-.6,0-7.9,91.1-1.8,136.3.9,5.6,1.8,11.2,2.9,16.8,3.4,17,13.6,27.9,30.3,31.8,21,4.9,42.5,6.5,63.9,7.2,15.2.5,30.3.4,45.6-.6,16.4-1,32.7-2.8,49-5.3,12.9-2,23.8-7.2,30.9-18.4,7.4-11.8,7.5-25.4,9.4-38.6,2.1-15.2,3.1-30.5,3.3-45.8.3-23.3-.3-46.5-3.2-69.7-.6-5.2-.8-10.6-2.8-15.5.5-2.7-.6-5.3-1.2-7.9-3.2-14.9-12.1-25.6-26.6-29.6-22.1-6.1-45.1-7.6-67.9-8.3-29.8-.9-59.5,0-88.9,5-8.2,1.4-16.7,2.4-24,7.1-12.7,8.4-18.1,20.7-18.9,35.5h0Z"/>
      <path class="cls-3" d="m17.5,197.2c-6.1-45.2,1.5-135.9,1.8-136.3,0,0,0,0,0,0,3.1-3,4-7.3,6.4-10.7,5.1-7.1,8.8-15.4,18.7-18.1,22.4-6.1,45.4-8.1,68.4-8.8,16.8-.6,33.7.1,50.5,1.7,17.3,1.6,34.4,4.2,51.2,8.3,13.4,3.3,24.4,9.5,30.1,22.9.5,1.1,1,2.2,2.2,2.6,2.1,5,2.2,10.4,2.8,15.5,2.9,23.1,3.6,46.4,3.2,69.7-.2,15.3-1.2,30.6-3.3,45.8-4,3.4-4,8.6-5.8,13-5.6,14-13.9,24.9-29,29.4-22.1,6.6-44.8,8.6-67.6,9.4-15.8.5-31.5-1-47.2-2.9-17.4-2.1-34.5-5.5-51-11.5-5.9-2.2-12.5-3.7-16.7-9-4.7-5.9-9.9-11.5-12.2-19-.3-1.1-1-2.2-2.4-2.3Z"/>
      <path class="cls-1" d="m17.5,197.2c1.4.1,2,1.2,2.4,2.3,2.3,7.5,7.6,13.1,12.2,19,4.2,5.3,10.7,6.9,16.7,9,16.5,6,33.6,9.4,51,11.5,15.7,1.9,31.4,3.4,47.2,2.9,22.8-.8,45.6-2.8,67.6-9.4,15-4.5,23.4-15.4,29-29.4,1.8-4.4,1.8-9.6,5.8-13-1.9,13.2-2,26.9-9.4,38.6-7.1,11.3-18,16.5-30.9,18.4-16.3,2.5-32.5,4.2-49,5.3-15.2,1-30.4,1-45.6.6-21.4-.7-42.9-2.3-63.9-7.2-16.7-3.9-27-14.8-30.3-31.8-1.1-5.6-1.9-11.2-2.9-16.8Z"/>
      <path class="cls-2" d="m246.7,59.1c-1.2-.4-1.8-1.5-2.2-2.6-5.6-13.4-16.7-19.6-30.1-22.9-16.9-4.1-33.9-6.7-51.2-8.3-16.8-1.6-33.6-2.3-50.5-1.7-23.1.8-46,2.7-68.4,8.8-9.9,2.7-13.5,10.9-18.7,18.1-2.4,3.4-3.3,7.7-6.4,10.7.8-14.8,6.1-27.1,18.9-35.5,7.3-4.8,15.8-5.7,24-7.1,29.4-5.1,59.2-5.9,88.9-5,22.9.7,45.8,2.2,67.9,8.3,14.5,4,23.4,14.7,26.6,29.6.6,2.6,1.6,5.1,1.2,7.9Z"/>
    </g>
  </g>
</svg>