<?xml version="1.0" encoding="UTF-8"?>
<svg id="Layer_2" data-name="Layer 2" xmlns="http://www.w3.org/2000/svg" width="1138" height="455.4" viewBox="0 0 1138 455.4">
  <defs>
    <style>
      .cls-1 {
        fill: #fff;
      }

      .cls-2 {
        fill: #dbdcdd;
      }
    </style>
  </defs>
  <g id="Middle">
    <g>
      <path d="m.1,346.7c0-27.1,0-54.2,0-81.3,0-34.4-.4-68.8.2-103.1.2-14.2.5-28.4.9-42.7.2-9.5,7.7-17.1,15.4-18.9,24-5.4,48.3-9.8,72.1-15.8,17.5-4.4,34.2-10.7,51-17,5.5-2.1,11.1-4.2,16.7-5.9,25.5-7.9,51.3-15,77.3-21,22.9-5.3,45.9-10.3,68.9-14.9,14.3-2.9,28.7-4.8,43.1-7.1,12-2,23.9-4.5,35.9-5.8,9.1-1,18.1-2.5,27.2-3.3,10-.9,20-2.7,30-3.8,8.3-.9,16.6-1.4,25-2.1,16.3-1.3,32.7-2.8,49-3.5,3.6-.1,7.2-.6,10.8-.6,26.6.1,53.3-.2,79.9.2,15.8.2,31.7,1,47.5,2,15.3,1,30.7,2.2,46,4,15.2,1.8,30.4,3.7,45.5,5.6,12.9,1.7,25.8,3.5,38.6,5.3,14.6,2,29,4.9,43.5,7.6,16,3,32,6,48,9.3,11.2,2.3,22.2,5.3,33.4,7.7,29.4,6.4,58.1,14.9,86.6,24.2,13.1,4.3,25.8,9.7,38.9,13.9,18.5,6,37.6,9.8,56.6,14,11.9,2.7,24.1,4.1,35.8,7.7,5.8,1.8,13.2,11.1,13,17.3-.7,20.4,1.1,40.7,1,61.1,0,83.3,0,166.6,0,249.9,0,8.1-1.4,15.8-8.6,21.5-5.5,4.3-12,4.7-17.7,3.3-8.2-2-16.5-2.9-24.7-4.6-32.1-6.6-64-14.3-95-25-22.1-7.6-44.1-15.5-66.2-22.9-24.4-8.1-49.1-14.9-74.1-20.8-23.1-5.4-46.2-10.3-69.6-14.3-19.3-3.3-38.7-6.4-58.1-9-13.4-1.8-26.8-3.5-40.2-4.9-15-1.6-29.9-3-45-4.1-12.3-.9-24.7-1.1-37-2-19.6-1.5-39.1-.6-58.7-.7-13.5,0-27,1-40.5,1.9-11.4.7-22.8,1.8-34.2,3-13.3,1.4-26.4,3.6-39.7,4.8-10.9.9-21.6,3-32.4,4.2-10.6,1.2-21.2,3.1-31.7,5-13.2,2.4-26.2,5.4-39.4,7.8-19.8,3.6-39.4,8.3-58.8,13.4-23.1,6-46,12.7-68.6,20.6-20.4,7.1-40.8,14.1-61.3,21.1-13.8,4.8-28.1,7.9-42.1,11.9-15.6,4.5-31.5,7.1-47.3,10.6-7.8,1.8-15.9,2.8-23.9,4.1-10.7,1.8-19.2-4.5-22-16-.8-3.2-1-6.6-1-9.9,0-27.4,0-54.9,0-82.3Zm13.2,68.3c0,6.5-.3,13-.2,19.4.1,5.6,4.4,8.5,9.8,7.1,1.9-.5,3.8-1.2,5.7-1.5,22.6-3.2,44.8-8.1,66.9-13.8,10.1-2.6,20.2-5.4,30.2-8.6,7.9-2.5,16.1-4.4,23.9-7.1,16.1-5.5,31.9-11.8,48-17.5,29.4-10.3,59.3-18.6,89.7-25.7,20.6-4.8,41.2-9.4,62-13,19.5-3.4,39-7.3,58.7-9.3,14.5-1.5,28.9-4.1,43.5-5.8,14.4-1.6,28.8-3,43.3-4,18-1.3,36-2.4,54-3,26.7-1,53.5.6,80.1,2.1,5.3.3,10.6.4,15.8.9,15.7,1.5,31.4,3.2,47.1,4.9,11.9,1.3,23.9,2.4,35.8,4.2,15.9,2.3,31.7,5.2,47.6,7.7,19.9,3.1,39.6,7.2,59.3,11.7,15.2,3.4,30.3,7.1,45.3,11,22.2,5.7,44.2,12.1,65.7,20.1,28.5,10.5,56.9,21.5,86.5,28.8,20,5,40,10.1,60.4,13.6,7,1.2,14.2,1.7,21,4.5,4.5,1.9,11.5-3,11.6-7.4,0-6.8-.1-13.6-.2-20.4,0-2.3.2-4.6.2-7,0-78,0-156,0-234,0-2.8-.1-5.6-.2-8.4.6-13.3-.2-26.6,1-40,.8-9-4.3-11.7-11.5-12.8-11.7-1.8-23.2-4.4-34.8-6.8-27.3-5.7-53.7-14.1-80.2-22.6-31.5-10.1-63.2-19.6-95.5-27.2-20.8-4.9-41.7-9.3-62.7-13.3-15.3-2.9-30.7-5.5-46.1-8.2-13.8-2.4-27.6-4.7-41.5-6.6-11.3-1.6-22.7-3.3-34.1-4.3-13.7-1.2-27.2-3.4-40.9-4.8-11.4-1.1-22.9-2-34.3-2.9-13.3-1.2-26.7-1.8-40.1-2-17-.3-34-.2-50.9,0-8.9.1-17.8.2-26.8.7-16.4.9-32.9,1.5-49.3,3.2-9.6,1-19.4,1.1-29,2.1-15.6,1.7-31.1,3.9-46.6,5.9-15.2,2-30.4,3.7-45.5,6.1-19.1,3-38.1,6.2-57,10-23.2,4.6-46.3,9.4-69.3,15-27.7,6.8-55.2,14.7-82.3,23.6-14.4,4.7-29,8.9-43.3,13.9-9.3,3.2-19.3,4.3-28.6,7.4-9.4,3.1-19.2,3.5-28.6,6.6-7.6,2.5-15.9,3-23.9,4.2-6.8,1-10.8,5.1-10.8,12.1,0,4.6.9,9.2.9,13.7.1,30.9.2,61.8.2,92.8,0,.8-.2,1.6-.2,2.5,0,36.7,0,73.3,0,110,0,24,.2,48.1.2,72.1Z"/>
      <path class="cls-2" d="m13.4,415c3.3,2,4.6,5.5,6.8,8.3,2,2.6,4.1,4,7.5,3.8,12.1-.9,23.8-3.9,35.6-6.2,35.3-7.1,69.3-19.2,103.9-29,19-5.4,38-10.7,56.6-17.3,28.2-10,56.6-18.9,85.7-25.7,24.2-5.6,48.6-10,73.1-13.8,16.5-2.6,33.1-4.5,49.6-6.6,12.5-1.6,25.1-2.2,37.6-3.2,19.8-1.6,39.7-2.2,59.6-3.2,25.3-1.3,50.6-.7,75.8-.5,12.4,0,24.8,1.1,37.2,1.9,15.8,1,31.7,2.1,47.5,3.6,16.1,1.6,32.3,3.3,48.3,5.4,20.5,2.7,40.8,6.2,61.1,10.3,21.1,4.2,41.7,10.6,62.8,14.7,17.9,3.5,35.5,8.1,52.8,13.7,17.1,5.5,33.8,11.9,50.9,17.4,26.1,8.3,51.7,18.2,78,25.7,15.5,4.4,31.3,6.9,47.2,9.2,6.4.9,12.9,0,19.3,1.6,4.6,1.1,6.5-3.4,9-6,1.7-1.7,2.6-4.3,5.3-4.9,0,6.8.3,13.6.2,20.4,0,4.4-7.1,9.2-11.6,7.4-6.8-2.8-14-3.3-21-4.5-20.4-3.5-40.4-8.6-60.4-13.6-29.6-7.4-58-18.3-86.5-28.8-21.5-7.9-43.5-14.4-65.7-20.1-15.1-3.8-30.2-7.6-45.3-11-19.6-4.4-39.4-8.5-59.3-11.7-15.9-2.5-31.7-5.4-47.6-7.7-11.9-1.7-23.8-2.9-35.8-4.2-15.7-1.7-31.4-3.4-47.1-4.9-5.2-.5-10.6-.6-15.8-.9-26.7-1.5-53.4-3.1-80.1-2.1-18,.6-36,1.7-54,3-14.4,1-28.9,2.4-43.3,4-14.5,1.7-28.9,4.3-43.5,5.8-19.8,2.1-39.2,5.9-58.7,9.3-20.8,3.7-41.4,8.3-62,13-30.3,7-60.3,15.4-89.7,25.7-16.1,5.6-31.9,12-48,17.5-7.8,2.7-16.1,4.6-23.9,7.1-10,3.2-20.1,6-30.2,8.6-22.1,5.8-44.3,10.6-66.9,13.8-1.9.3-3.8,1-5.7,1.5-5.4,1.4-9.6-1.6-9.8-7.1-.2-6.5.1-12.9.2-19.4Z"/>
      <path class="cls-1" d="m1114.3,111.8c-11.7-1.8-23.2-4.4-34.8-6.8-27.3-5.7-53.7-14.1-80.2-22.6-31.5-10.1-63.2-19.6-95.5-27.2-20.8-4.9-41.7-9.3-62.7-13.3-15.3-2.9-30.7-5.5-46.1-8.2-13.8-2.4-27.6-4.7-41.5-6.6-11.3-1.6-22.7-3.3-34.1-4.3-13.7-1.2-27.2-3.4-40.9-4.8-11.4-1.1-22.9-2-34.3-2.9-13.3-1.2-26.7-1.8-40.1-2-17-.3-34-.2-50.9,0-8.9.1-17.8.2-26.8.7-16.4.9-32.9,1.5-49.3,3.2-9.6,1-19.4,1.1-29,2.1-15.6,1.7-31.1,3.9-46.6,5.9-15.2,2-30.4,3.7-45.5,6.1-19.1,3-38.1,6.2-57,10-23.2,4.6-46.3,9.4-69.3,15-27.7,6.8-55.2,14.7-82.3,23.6-14.4,4.7-29,8.9-43.3,13.9-9.3,3.2-19.3,4.3-28.6,7.4-9.4,3.1-19.2,3.5-28.6,6.6-7.6,2.5-15.9,3-23.9,4.2-6.8,1-10.8,5.1-10.8,12.1,0,4.6.9,9.2.9,13.7.1,30.9.2,61.8.2,92.8,0,.8-.2,1.6-.2,2.5,0,36.7,0,73.3,0,110,0,24,.2,48.1.2,72.1,3.3,2,4.6,5.5,6.8,8.3,2,2.6,4.1,4,7.5,3.8,12.1-.9,23.8-3.9,35.6-6.2,35.3-7.1,69.3-19.2,103.9-29,19-5.4,38-10.7,56.6-17.3,28.2-10,56.6-18.9,85.7-25.7,24.2-5.6,48.6-10,73.1-13.8,16.5-2.6,33.1-4.5,49.6-6.6,12.5-1.6,25.1-2.2,37.6-3.2,19.8-1.6,39.7-2.2,59.6-3.2,25.3-1.3,50.6-.7,75.8-.5,12.4,0,24.8,1.1,37.2,1.9,15.8,1,31.7,2.1,47.5,3.6,16.1,1.6,32.3,3.3,48.3,5.4,20.5,2.7,40.8,6.2,61.1,10.3,21.1,4.2,41.7,10.6,62.8,14.7,17.9,3.5,35.5,8.1,52.8,13.7,17.1,5.5,33.8,11.9,50.9,17.4,26.1,8.3,51.7,18.2,78,25.7,15.5,4.4,31.3,6.9,47.2,9.2,6.4.9,12.9,0,19.3,1.6,4.6,1.1,6.5-3.4,9-6,1.7-1.7,2.6-4.3,5.3-4.9,0-2.3.2-4.6.2-7,0-78,0-156,0-234,0-2.8-.1-5.6-.2-8.4,0,0,0,0,0,0,.6-13.3-.2-26.6,1-40,.8-9-4.3-11.7-11.5-12.8Z"/>
    </g>
  </g>
</svg>