<?xml version="1.0" encoding="UTF-8"?>
<svg id="Layer_2" data-name="Layer 2" xmlns="http://www.w3.org/2000/svg" width="1522.7" height="1522.4" viewBox="0 0 1522.7 1522.4">
  <defs>
    <style>
      .cls-1 {
        fill: #5e697e;
      }

      .cls-2 {
        fill: #4a515e;
      }

      .cls-3 {
        fill: #26282e;
      }

      .cls-4 {
        fill: #505a6d;
      }

      .cls-5 {
        fill: #fefefe;
      }
    </style>
  </defs>
  <g id="Middle">
    <g>
      <path class="cls-5" d="m.5,761.4c0-175.2,0-350.4,0-525.6,0-7-.1-14-.3-21-.8-31,6.1-60.5,17.5-89.1C43.1,61.7,91.4,24.1,157.1,7.2,175.9,2.3,195.1,0,214.6,0c71.9,0,143.9,0,215.8,0,100.4,0,200.8,0,301.2,0,180.5,0,361,.1,541.5.2,15.7,0,31.3-.8,46.9,0,16.7.8,33.4,3,49.4,8,20.6,6.5,40.4,14.9,59.3,25.7,17.6,10.1,31.4,24.1,44.7,38.9,14.2,15.7,23.9,34,31.7,53.4,2.9,7.3,4.2,15.3,7.1,22.6,2.6,6.7,4.7,13.4,5.7,20.4,2.4,15.5,4.7,30.9,4.5,46.7-.9,76.6,0,153.2-.2,229.8-.2,95.3,0,190.5,0,285.8,0,12.5.5,25,.4,37.5-1.2,173,.3,345.9-.7,518.9,0,8,.4,16,.4,24,0,17.8-3.8,35.1-7.7,52.3-3.7,15.9-8.7,31.6-16,46.2-14.1,28.5-33.8,52.6-59.8,71.2-13.5,9.6-27.9,17.6-43.3,23.5-8.6,3.3-17.5,5.8-26.3,8.4-7.6,2.3-15.3,4.1-23,5.3-12.9,2-25.8,3.5-39,3.4-54.4-.2-108.9-.2-163.4-.2-117.4,0-234.8,0-352.2,0-182.3,0-364.7-.1-547-.2-19.1,0-38.3,1.5-57.4-1-19.8-2.6-39.1-7.4-57.8-14.6-66.1-25.4-104.9-74.2-122.4-141.7-5.5-21.3-7.5-42.8-7.1-64.8.4-21.1.3-42.3.3-63.4,0-148.9,0-297.8,0-446.7,0-9.5,0-19,0-28.5,0,0,0,0,.1,0Zm760.4,753.7c176.5,0,353,0,529.5,0,19.1,0,38.1.2,56.9-3.9,19.2-4.2,38-9.3,55.8-17.7,16.1-7.6,31-17,44.8-28.6,16.4-13.7,28.6-30.6,39-48.9,9.3-16.3,15.6-33.8,20.4-51.8,4.2-15.9,7.5-32,7.5-48.5,0-174.8,0-349.6,0-524.4,0-7,.9-13.9,1-20.8,0-10.4-.7-20.9-.7-31.3-.4-61.1-.2-122.2-.1-183.3,0-114.7,0-229.4.1-344.1,0-9.9-.6-19.8-2.4-29.4-3.5-19.3-8.5-38.2-16.4-56.3-11.5-26.5-26.7-50.3-49.1-69.1-10.6-8.9-22-16.4-34.1-23-14.6-7.9-30-13.7-46-18.1-17.7-4.8-35.7-8.5-54.2-8.5-349.7,0-699.4,0-1049.1,0-23.1,0-46.1-1.1-69.2.8-8.1.7-16.3,1.5-24.1,3.5-22.5,5.7-44.8,12.3-65.1,24.4-16.8,10-32.7,20.9-45.7,35.8-17,19.5-29.7,41.3-38.2,65.5-9.7,27.5-15.5,55.6-14.5,85,.2,6.6,0,13.3,0,20,0,345.5,0,691.1,0,1036.6,0,4.8.2,9.7,0,14.5-.6,18.5.2,36.8,4.1,54.9,5.5,26.1,14.2,51.1,27.9,74.1,11.1,18.6,24.7,35.3,42.1,48.3,20.5,15.3,43.1,26.9,67.8,34.1,23.1,6.8,46.6,10.4,70.8,10.4,180.3-.2,360.7-.1,541-.1Z"/>
      <path d="m760.9,1515.1c-180.3,0-360.7-.1-541,.1-24.2,0-47.7-3.6-70.8-10.4-24.7-7.2-47.2-18.8-67.8-34.1-17.5-13-31-29.7-42.1-48.3-13.8-23-22.4-48-27.9-74.1-3.8-18.1-4.6-36.5-4.1-54.9.1-4.8,0-9.7,0-14.5,0-345.5,0-691.1,0-1036.6s.2-13.3,0-20c-1-29.3,4.8-57.5,14.5-85,8.6-24.2,21.3-46.1,38.2-65.5,13-14.9,28.9-25.8,45.7-35.8,20.3-12.1,42.5-18.7,65.1-24.4,7.8-2,16-2.8,24.1-3.5,23.1-1.9,46.1-.8,69.2-.8,349.7-.1,699.4,0,1049.1,0,18.5,0,36.4,3.7,54.2,8.5,16,4.4,31.4,10.1,46,18.1,12.1,6.6,23.5,14.1,34.1,23,22.4,18.8,37.6,42.6,49.1,69.1,7.8,18.1,12.9,37,16.4,56.3,1.7,9.6,2.4,19.5,2.4,29.4,0,114.7,0,229.4-.1,344.1,0,61.1-.2,122.2.1,183.3,0,10.4.8,20.9.7,31.3,0,6.9-1,13.8-1,20.8,0,174.8,0,349.6,0,524.4,0,16.5-3.3,32.6-7.5,48.5-4.8,18-11.2,35.5-20.4,51.8-10.5,18.3-22.6,35.2-39,48.9-13.7,11.5-28.7,20.9-44.8,28.6-17.8,8.4-36.6,13.5-55.8,17.7-18.8,4.1-37.9,3.9-56.9,3.9-176.5,0-353,0-529.5,0Zm740.1-753.5h0c0-143.2,0-286.4,0-429.6,0-21.3.1-42.6.4-63.9.3-25.3,2-50.7-1-76-1.7-14.5-4.4-28.7-9.1-42.5-9.7-28.9-23.7-55.2-45.8-76.5-14.5-14-31.4-24.5-49.8-32.9-29.7-13.6-60.9-20.2-93.4-19.7-21.4.3-42.8.7-64.3.7-327.9,0-655.8,0-983.6.2-17.4,0-34.7-2.5-52.1-.3-11.2,1.4-22.5,2.4-33.5,4.8-19.4,4.2-37.5,12-55.2,21-22.5,11.5-40.6,28.1-55.4,48.1-11.2,15.1-18.9,32.3-25.4,50.1-5.4,14.8-8.9,30.1-10.6,45.6-1,9.3-2.8,18.5-1.8,28,.9,8.6.7,17.4.7,26.1,0,349.2,0,698.4,0,1047.7,0,8.6-1.5,17-.3,25.7,1.5,11.2,2,22.7,4.7,33.7,7.1,29.3,18.1,56.8,37.1,80.8,13.1,16.5,28.4,30.3,46.7,40.6,36.1,20.4,75,30,116.4,28.7,17.8-.6,35.6-.7,53.4-.7,224.3,0,448.6,0,672.9,0s245.6,0,368.5-.1c11,0,21.9-2.3,32.6-4.5,12.7-2.7,24.8-7.2,36.8-12.1,20.3-8.3,38.8-19.5,54.7-34.5,12.4-11.7,22.5-25.4,30.6-40.5,17.6-32.7,26.6-67.6,26.5-104.7,0-27.3-.8-54.6-.8-81.9,0-153.7,0-307.4,0-461.1Z"/>
      <path class="cls-1" d="m1501,761.6c0,153.7,0,307.4,0,461.1,0,27.3.8,54.6.8,81.9,0,37.1-9,72-26.5,104.7-8.1,15.1-18.2,28.7-30.6,40.5-16,15-34.4,26.2-54.7,34.5-12,4.9-24.1,9.5-36.8,12.1-10.7,2.3-21.6,4.5-32.6,4.5-122.8.2-245.6.1-368.5.1-224.3,0-448.6,0-672.9,0-17.8,0-35.6.1-53.4.7-41.4,1.3-80.3-8.3-116.4-28.7-18.3-10.3-33.6-24.1-46.7-40.6-19-24-30-51.6-37.1-80.8-2.7-11-3.2-22.4-4.7-33.7-1.2-8.7.3-17.1.3-25.7,0-349.2,0-698.4,0-1047.7,0-8.7.2-17.5-.7-26.1-1-9.5.8-18.8,1.8-28,1.6-15.5,5.2-30.8,10.6-45.6,6.5-17.7,14.2-35,25.4-50.1,14.8-20,32.9-36.6,55.4-48.1,17.7-9,35.7-16.8,55.2-21,11-2.4,22.3-3.3,33.5-4.8,17.4-2.3,34.7.3,52.1.3,327.9-.2,655.8-.2,983.6-.2,21.4,0,42.8-.4,64.3-.7,32.4-.5,63.7,6.1,93.4,19.7,18.4,8.4,35.3,18.9,49.8,32.9,22.1,21.3,36.1,47.6,45.8,76.5,4.6,13.9,7.3,28,9.1,42.5,3,25.3,1.3,50.7,1,76-.2,21.3-.3,42.6-.4,63.9,0,143.2,0,286.4,0,429.6h0ZM450.1,1483.9c31.5.4,69.8.3,108.1.7,74.6.8,149.2.1,223.8.1,75.5,0,150.9.2,226.4-.7,64.5-.7,129.1-.2,193.7,0,31.4,0,62.9.5,94.3.9,15.5.2,30.6-1.7,45.7-5.1,26.6-5.9,52.1-14.8,75.1-29.9,10.8-7.1,19.7-16.3,27.8-26.2,11.5-14,18.9-30.3,25.1-47.1,8.5-23.4,14.8-47.4,14.8-72.4-.1-73.6.9-147.2-.7-220.8-.4-19.8.5-39.6.5-59.4.1-177.2,1.4-354.3-.5-531.5-.3-31.9.1-63.9.5-95.9.8-59.6.2-119.2.4-178.9,0-8.3-.8-16.6-2.3-24.7-5-27.8-13.1-54.5-27.2-79.3-9.2-16.2-21.6-29.4-36.4-40.2-18-13.1-38.5-21.3-59.7-27.3-21.7-6.1-43.7-10.1-66.5-9.4-16.1.4-32.2.1-48.3.2-12.5,0-25,.6-37.4.6-74.6,0-149.2.6-223.7-.4-70.6-1-141.2-.5-211.8-.3-91.9.3-183.8-.3-275.7.7-64.6.7-129.2,1-193.8-.5-28-.7-55.9-.2-83.9-.2-10.3,0-20.4,1.8-30.4,3.6-18.8,3.4-36.9,8.7-54.4,16.4-16.1,7.2-31.3,15.8-44.1,28.1-14.4,13.8-24.4,30.4-32.1,48.5-12.7,29.7-19.6,60.5-20.1,92.8-.2,16.6,1,33.2,1,49.8-.5,158,1.3,316-.9,474-.1,10.6.8,21.3.7,31.8-.4,165.6,1.5,331.2-.8,496.7-.3,17.8-.1,35.5,3.2,53,5.3,27.9,13.8,54.8,28.5,79.3,7.1,11.9,16.2,22,26.8,31,12.1,10.3,26,17.4,40.6,23.5,27.4,11.5,55.9,18.5,85.8,18.8,15.8.2,31.5,0,47.3-.5,26.3-.8,52.7-.4,79.1-.4,31.6,0,63.3,0,101.7,0Z"/>
      <path class="cls-3" d="m450.1,1483.9c-38.4,0-70.1,0-101.7,0-26.4,0-52.8-.4-79.1.4-15.8.5-31.6.7-47.3.5-29.8-.4-58.3-7.3-85.8-18.8-14.5-6.1-28.4-13.1-40.6-23.5-10.6-9-19.7-19.2-26.8-31-14.7-24.5-23.3-51.4-28.5-79.3-3.3-17.5-3.4-35.3-3.2-53,2.3-165.6.4-331.2.8-496.7,0-10.6-.9-21.2-.7-31.8,2.2-158,.4-316,.9-474,0-16.6-1.2-33.2-1-49.8.4-32.3,7.4-63.2,20.1-92.8,7.7-18.2,17.7-34.7,32.1-48.5,12.9-12.4,28-21,44.1-28.1,17.4-7.8,35.6-13,54.4-16.4,10.1-1.8,20.2-3.6,30.4-3.6,28,0,56-.4,83.9.2,64.6,1.5,129.2,1.2,193.8.5,91.9-1,183.8-.5,275.7-.7,70.6-.2,141.2-.7,211.8.3,74.6,1,149.2.4,223.7.4,12.5,0,24.9-.6,37.4-.6,16.1,0,32.2.2,48.3-.2,22.7-.6,44.8,3.3,66.5,9.4,21.2,6,41.7,14.1,59.7,27.3,14.8,10.8,27.2,24,36.4,40.2,14.1,24.7,22.2,51.5,27.2,79.3,1.5,8.1,2.3,16.3,2.3,24.7-.1,59.6.4,119.2-.4,178.9-.4,32-.8,63.9-.5,95.9,1.8,177.2.6,354.3.5,531.5,0,19.8-.9,39.6-.5,59.4,1.7,73.6.6,147.2.7,220.8,0,25-6.2,49.1-14.8,72.4-6.2,16.8-13.6,33.1-25.1,47.1-8.1,9.9-17,19.1-27.8,26.2-23,15-48.5,23.9-75.1,29.9-15,3.3-30.2,5.3-45.7,5.1-31.4-.4-62.9-.8-94.3-.9-64.6-.2-129.1-.7-193.7,0-75.5.9-150.9.7-226.4.7-74.6,0-149.2.6-223.8-.1-38.3-.4-76.6-.3-108.1-.7Zm863.9-13c1.4,0,6-1,7-1,.7,0,1.3.2,2,.1,26.1-4.2,51.3-11.6,74.7-24.3,15.8-8.6,29.5-19.7,39.7-34.6,13.1-19.1,21.6-40.3,27.5-62.5,3.8-14.2,6-28.7,6.9-43.4.2-15.3-.1-30.6-.6-45.9-.6-20.8.4-41.6.4-62.3.2-69.7,0-139.5-.3-209.2-.5-156.1-1.5-312.3.5-468.4.4-29,0-57.9,0-86.9,0-12.7,0-25.3,0-38,.1-12.3-.3-24.7,0-37,.2-10.2,0-20.3-.2-30.5-.2-3.3-.7-6.6-.7-9.9,0-19.2,0-38.3,0-57.5,0-2.5-.2-5,0-7.5,1.8-16.1,1.6-32.2-.3-48.2-2.4-20.1-7.4-39.7-15.2-58.4-7-16.7-15.2-32.8-27.8-46.2-13.4-14.2-29.8-23.6-47.5-31.1-26.7-11.2-54.5-17.3-83.4-18.1-8.8-.2-17.5,1.2-26.4,1.1-62.2-.7-124.5.8-186.7-.9-19.3-.5-38.6.6-57.8.6-181.3-.1-362.6,1.4-543.9-.6-27.4-.3-54.9-.3-82.3.7-21.5.8-43,.2-64.4.2-41.9,0-83.8-.4-125.6.2-15.2.2-30,3.8-44.5,8.6-8.9,3-17.8,6.1-26.4,9.8-23.2,9.9-42.8,24.2-56.5,45.8-7.7,12.1-13.7,25-18.5,38.5-5.4,15.2-9.1,30.8-11.5,46.7-.9,5.9-2.2,11.9-2.2,17.8,0,7.2.6,14.4.9,21.5.8,19,.3,38,.4,56.9,0,7.3-.2,14.5-.2,21.8,0,319.3,0,638.5,0,957.8,0,6.3.4,12.6-.8,18.9-.7,3.8-.8,8,1,11.8-1.1,6.1.8,11.9,1.7,17.9,4.1,26.2,11.7,51.1,24.7,74.3,5.1,9.1,11.2,17.7,18.4,25.2,9.5,9.9,21,17.2,33.1,23.6,14.5,7.6,29.9,12.7,45.6,16.9,8.9,2.4,17.9,4.6,27.2,4.9,7.7,1.4,15.4,2.3,23.2,2.2,7.8,0,15.5-1.2,23.4-1.1,58.8.7,117.5-.7,176.3.8,26.4.7,52.9-.5,79.3-.5,181.5,0,363-1.4,544.4.6,19.9.2,39.9-.2,59.9-.6,35.8-.8,71.6.1,107.4-.4,32.7-.5,65.5,1.8,98.2,0Z"/>
      <path class="cls-4" d="m1471.7,327c0,10.2.3,20.3.2,30.5-.2,12.3.2,24.7,0,37-.1,12.7,0,25.3,0,38,0,29,.3,57.9,0,86.9-2,156.1-1.1,312.3-.5,468.4.2,69.7.5,139.5.3,209.2,0,20.8-1,41.6-.4,62.3.4,15.3.7,30.6.6,45.9-1.8.2-1.7,1.7-2,3-2,7.4-3.7,14.8-6,22-11.7,37.4-30.6,70.2-60,96.8-23,20.9-49.5,34.7-79.8,41.1-1.3.3-2.7,0-3,1.9-1,0-4.5,3.4-105.2,1.1-35.8.5-71.6-.4-107.4.4-20,.4-39.9.8-59.9.6-181.5-2-363-.6-544.4-.6-26.4,0-52.9,1.1-79.3.5-58.8-1.5-117.5-.1-176.3-.8-7.8,0-15.6,1-23.4,1.1-7.8,0-15.5-.8-23.2-2.2-.2-1.5-1.3-1.6-2.5-1.9-11.7-3.2-23.1-7-34.3-11.6-28.3-11.8-52.4-29.3-71.4-53.3-21.2-26.8-34-57.5-39.8-91.1-.3-1.8-.2-4.1-2.7-4.8-1.8-3.8-1.7-8-1-11.8,1.2-6.3.8-12.6.8-18.9,0-319.3,0-638.5,0-957.8,0-7.3.1-14.5.2-21.8,1.4-.3,1.8-1.2,1.8-2.5,0-9.6,1.6-19.1,1.9-28.7.4-13.8,3.4-27.2,4.5-40.9,1-12.3,3.8-24.4,5.6-36.6,1.6-11.2,3.7-22.1,9.4-32.2,7.5-13.3,15.6-26.2,24-38.9,10.4-15.7,25.3-25.6,41.3-34.1,9.6-5.1,20.6-7.3,31.1-10.3,24.2-7.1,48.8-9.7,74.1-9.7,354.3.3,708.6.2,1062.9.2,4.5,0,9,.4,13.3,1.4,29.8,6.7,58.4,16.5,82.9,35.7,11.4,8.9,22.9,17.6,31.2,29.7,8.6,12.5,12.6,27,16.5,41.4,4.8,17.6,7.3,35.6,9.2,53.7,1.4,13.1,2.9,26.3,4,39.4.5,5.5.4,10.9,1,16.4,1.3,12.2,2.2,24.4,1.7,36.7-.1,3.4-.8,7.8,3.9,9.6Z"/>
      <path class="cls-2" d="m1471.7,327c-4.7-1.8-4-6.2-3.9-9.6.5-12.3-.5-24.5-1.7-36.7-.6-5.4-.5-10.9-1-16.4-1.1-13.2-2.7-26.3-4-39.4-1.9-18.1-4.4-36.1-9.2-53.7-4-14.4-7.9-28.8-16.5-41.4-8.3-12.1-19.8-20.8-31.2-29.7-24.6-19.2-53.1-29-82.9-35.7-4.3-1-8.8-1.4-13.3-1.4-354.3,0-708.6.2-1062.9-.2-25.3,0-49.9,2.6-74.1,9.7-10.5,3.1-21.5,5.2-31.1,10.3-16,8.5-30.9,18.4-41.3,34.1-8.4,12.8-16.5,25.6-24,38.9-5.7,10.1-7.8,21-9.4,32.2-1.8,12.2-4.5,24.4-5.6,36.6-1.1,13.7-4.2,27.1-4.5,40.9-.2,9.6-1.8,19.1-1.9,28.7,0,1.3-.4,2.3-1.8,2.5,0-19,.4-38-.4-56.9-.3-7.1-.8-14.4-.9-21.5,0-5.9,1.3-11.9,2.2-17.8,2.4-15.9,6.1-31.5,11.5-46.7,4.8-13.5,10.7-26.4,18.5-38.5,13.8-21.5,33.3-35.9,56.5-45.8,8.7-3.7,17.5-6.8,26.4-9.8,14.5-4.8,29.3-8.4,44.5-8.6,41.9-.6,83.8-.2,125.6-.2,21.5,0,43,.6,64.4-.2,27.4-1,54.9-1,82.3-.7,181.3,2,362.6.5,543.9.6,19.3,0,38.6-1.1,57.8-.6,62.2,1.7,124.5.3,186.7.9,8.8,0,17.6-1.3,26.4-1.1,28.9.8,56.7,6.8,83.4,18.1,17.7,7.5,34.1,16.9,47.5,31.1,12.6,13.4,20.9,29.5,27.8,46.2,7.8,18.7,12.7,38.3,15.2,58.4,1.9,16,2.1,32.1.3,48.2-.3,2.5,0,5,0,7.5,0,19.2,0,38.3,0,57.5,0,3.3.5,6.6.7,9.9Z"/>
      <path class="cls-2" d="m1321.1,1469.9c.3-1.8,1.7-1.6,3-1.9,30.3-6.4,56.8-20.2,79.8-41.1,29.3-26.6,48.3-59.4,60-96.8,2.3-7.3,4-14.7,6-22,.3-1.3.2-2.8,2-3-.9,14.7-3.2,29.2-6.9,43.4-5.9,22.2-14.4,43.4-27.5,62.5-10.2,15-23.9,26-39.7,34.6-23.4,12.7-48.5,20.1-74.7,24.3-.6.1-1.3,0-2-.1Z"/>
      <path class="cls-2" d="m51.3,1307.2c2.5.7,2.4,3,2.7,4.8,5.8,33.6,18.6,64.3,39.8,91.1,19,24,43.1,41.5,71.4,53.3,11.2,4.7,22.6,8.5,34.3,11.6,1.2.3,2.3.4,2.5,1.9-9.3-.3-18.3-2.6-27.2-4.9-15.7-4.2-31.2-9.3-45.6-16.9-12.1-6.3-23.5-13.7-33.1-23.6-7.3-7.5-13.3-16.1-18.4-25.2-13-23.2-20.7-48.1-24.7-74.3-.9-6-2.8-11.8-1.7-17.9Z"/>
    </g>
  </g>
</svg>