<?xml version="1.0" encoding="UTF-8"?>
<svg id="Layer_2" data-name="Layer 2" xmlns="http://www.w3.org/2000/svg" width="1522.1" height="1520.9" viewBox="0 0 1522.1 1520.9">
  <defs>
    <style>
      .cls-1 {
        fill: #e86e00;
      }

      .cls-2 {
        fill: #ea813b;
      }

      .cls-3 {
        fill: #6d3100;
      }

      .cls-4 {
        fill: #ff9e55;
      }
    </style>
  </defs>
  <g id="Middle">
    <g>
      <path d="m760.5,0c238.5,0,477,0,715.5,0,12.1,0,23.6,2.9,32.6,11.3,5.2,4.8,8.1,11.3,9.9,18.8,5.7,23.1,1.6,46.4,2.5,69.6.9,23.4.4,46.9.5,70.4,0,23.5,0,46.9,0,70.4,0,23.5-.1,46.9-.2,70.4,0,23.5-.2,46.9-.2,70.4,0,110.7-.4,221.5.3,332.2.2,25.6.9,51.2.6,76.8-1.9,152.6-.5,305.2-.6,457.8,0,76.5.1,153.1-.5,229.6-.2,22.3-11.3,36.4-32.9,41.1-3.1.7-6.1.9-9.2.9-108.1,1.9-216.2.8-324.4.9-114.8.2-229.7,0-344.5-.1-89.9,0-179.8.1-269.7.1-137,0-274,0-411.1,0-17.5,0-35-.8-52.4-.3-12.3.4-24.5,0-36.6-1-20.2-1.6-32.4-10.3-37.9-32.5-.8-3.3-.9-6.5-.9-9.7,0-21.5,0-43,0-64.4-.5-82.9-.3-165.8,0-248.8.1-49.1,0-98.1,0-147.2,0-40.7,0-81.4,0-122,0-20.9.4-41.9,0-62.8-.9-36.2-1.7-72.5-.7-108.7,1.7-67,.3-134.1.7-201.1.3-42,0-84,.1-126.1,0-9.4,0-18.7,0-28.1,0-80.9,0-161.8,0-242.8,0-28.5-.3-57,.3-85.4.1-7.7,2.8-15.4,7-22,4.4-6.8,10.6-11.6,18.6-14.2C33.9,1.3,40.7,0,48,0c237.5,0,475,0,712.5,0Zm381.1,1506.7c111.4,0,222.8,0,334.2,0,11.5,0,21.7-3.6,27.8-14.7,3.2-5.8,4.5-12,4.5-18.5,0-17.3-.6-34.6-.7-51.9-.2-107.7-.8-215.4.4-323.2.3-25.1-.2-50.3-.3-75.4-.3-103.4-.3-206.8-.1-310.2.1-76.1-.6-152.2.3-228.3.5-40.6-.4-81.2-.4-121.8,0-106.1-.6-212.1.8-318.2.3-22.1-15.1-31.4-32.7-31.3-10.4,0-20.9.5-31.3.5-423.5.1-847,0-1270.5,0-36.5,0-72.9-.3-109.4,0-7.5,0-15-.8-22.6-.2-17.6,1.5-27.8,16.1-27.6,32.5.4,37,1,74,1.1,111,.1,75.2,0,150.4-.1,225.5,0,13.5-.5,27-.5,40.4,0,25.5.2,50.9.3,76.4.3,102.1.3,204.1.1,306.2-.1,75.6.8,151.2-.4,226.7-.4,27,.1,53.9.2,80.9.4,90.5.3,181,.3,271.4,0,30-1.1,59.9-.7,89.9.2,19.8,11.3,31.9,31.7,32,92.3.2,184.5.3,276.8,0,135.7-.3,271.4.9,407.1-.6,26.9-.3,53.9.3,80.8.5,110.2.5,220.5.2,330.7.2Z"/>
      <path class="cls-1" d="m1141.5,1506.8c-110.2,0-220.5.3-330.7-.2-26.9-.1-53.9-.8-80.8-.5-135.7,1.6-271.4.3-407.1.6-92.3.2-184.5.2-276.8,0-20.5,0-31.5-12.2-31.7-32-.4-30,.7-59.9.7-89.9,0-90.5.2-181-.3-271.4-.1-27-.6-53.9-.2-80.9,1.1-75.6.2-151.2.4-226.7.2-102.1.2-204.1-.1-306.2,0-25.5-.3-50.9-.3-76.4,0-13.5.5-27,.5-40.4.1-75.2.3-150.4.1-225.5,0-37-.7-74-1.1-111-.2-16.4,10-30.9,27.6-32.5,7.6-.7,15.1.2,22.6.2,36.5-.3,72.9,0,109.4,0,423.5,0,847,0,1270.5,0,10.4,0,20.9-.4,31.3-.5,17.6,0,33,9.2,32.7,31.3-1.4,106.1-.9,212.1-.8,318.2,0,40.6,1,81.2.4,121.8-1,76.1-.2,152.2-.3,228.3-.2,103.4-.2,206.8.1,310.2,0,25.1.6,50.3.3,75.4-1.2,107.7-.6,215.4-.4,323.2,0,17.3.6,34.6.7,51.9,0,6.4-1.3,12.6-4.5,18.5-6.1,11.1-16.3,14.7-27.8,14.7-111.4.1-222.8,0-334.2,0Zm-828-20.7c105.6-.8,211.3-.5,316.9-.4,42.3,0,84.5-.9,126.8.8,9,.4,17.9-.7,26.9-.7,101.7.1,203.5-.2,305.2.3,113.2.5,226.5,1.4,339.7,0,15-.2,30-.3,45-.4,5.9,0,13.3-6.7,13.3-12,0-46.3,0-92.6,0-138.9,0-362.7,0-725.4,0-1088,0-65.8,0-131.5,0-197.3,0-3.6-.8-6.6-3.2-9.5-4-5-9.1-5.9-15-5.9-472,0-943.9,0-1415.9,0-.8,0-1.7,0-2.5,0-9.6.2-15.4,6-15.5,15.5,0,28.8,0,57.5-.2,86.3,0,5-1.1,10-.5,14.9,1.1,9.3.4,18.6.5,27.8.1,393.3,0,786.5.1,1179.8,0,37.6.2,75.3,0,112.9,0,8.4,6,13.8,12.1,14.2,8.3.5,190.6,1.1,266.2.6Z"/>
      <path class="cls-3" d="m47.3,1485.5c-6.1-.4-12.2-5.8-12.1-14.2.2-37.6,0-75.3,0-112.9,0-393.3,0-786.5-.1-1179.8,0-9.2.7-18.5-.5-27.8-.6-4.9.5-9.9.5-14.9.1-28.8.1-57.5.2-86.3,0-9.5,5.8-15.4,15.5-15.5.8,0,1.7,0,2.5,0,472,0,943.9,0,1415.9,0,5.9,0,11,.8,15,5.9,2.4,3,3.2,6,3.2,9.5,0,65.8,0,131.5,0,197.3,0,362.7,0,725.4,0,1088,0,46.3,0,92.6,0,138.9,0,5.3-7.4,11.9-13.3,12-15,.2-30,.2-45,.4-113.2,1.5-226.5.6-339.7,0-101.7-.5-203.5-.2-305.2-.3-8.9,0-17.9,1.1-26.9.7-42.3-1.7-84.5-.8-126.8-.8-105.6,0-211.3-.4-316.9.4-75.6.6-257.9,0-266.2-.6Zm1397.9-12.9c4.7,0,9.3.1,14,.2,4.9,0,11.9,1.8,14.2-.6,2.5-2.7.8-9.4.8-14.4,0-37.3-.1-74.6-.2-111.9,0-1.8.1-3.7.1-5.5,0-346.4,0-692.7,0-1039.1,0-11.5,0-23-.1-34.5,0-.7.1-1.3.1-2,0-71.1,0-142.2,0-213.3,0-4-1.5-4.7-5-4.6-12.8.2-25.6.9-38.4.9-124.9-.2-249.7.5-374.6-.5-96.5-.8-193.1-1.5-289.6.7-10,.2-19.9-.9-29.9-.9-94.7.4-189.4,0-284.2.5-132.7.7-265.4,1.6-398.1-.6-6.4-.1-6.4,0-6.4,6.5,0,49.6,0,99.2,0,148.9,0,15.8,0,31.6.1,47.4,0,11.5-.2,23.1-.2,34.6,0,368.5,0,736.9,0,1105.4,0,16,0,32,.1,47.9,0,10.8-.1,21.6-.1,32.4,0,1.3-.7,2.8,2.1,2.7,23-.3,45.9-.3,68.9-.3,4.2,0,8.3.2,12.5.2,435.7,0,871.3,0,1307,0,2.2,0,4.3-.1,6.5-.2Z"/>
      <path class="cls-4" d="m1474,266.9c0,11.5.1,23,.1,34.5,0,346.4,0,692.7,0,1039.1,0,1.8,0,3.7-.1,5.5-1.4.4-2-2.3-3.4-1.1-.9.8-.1,2.2,0,3.3.3,1.6.4,3.3.5,4.9.2,12.8-.5,25.4-1.8,38.1-1.6,15.6-1.7,31.4-3.3,46.9-1.1,10.6-4.3,20.8-12.8,28.3-2.6,2.3-6.3,2.9-8,6.3-2.2,0-4.3.2-6.5.2-435.7,0-871.3,0-1307,0-4.2,0-8.3-.1-12.5-.2-.3-1.8-1.6-1.8-3-1.8-6.1,0-12.2-.1-18.4-.9-10.4-1.2-20.6-2.8-30.5-6.2-10.9-3.7-18.2-10.1-17.1-22.9.1-1.4,0-2.7-1.8-3,0-16-.1-32-.1-47.9,0-368.5,0-736.9,0-1105.4,0-11.5.1-23.1.2-34.6,2.4-.5,1.8-2.5,1.8-4,.5-15.1-.6-30.2.9-45.3,1.1-11.5.4-23.2.8-34.8.5-16.3,2-32.5,1.3-48.8-.4-8.8,1.3-17.5,1.2-26.3,0-6.6,1.1-13.2,1.9-19.7,1.1-8.8,1.4-9,9.6-8.8,18.4.5,36.9.7,55.3.7,139.5.5,278.9.3,418.4.3,65.8,0,131.6,0,197.3,0,3.4,0,6.5,1.9,9.8.9,6.3-1.9,12.8-.3,19.1-.3,6.1,0,12.6.3,18.6,0,8.9-.5,17.8-.2,26.6-.2,203.7-.3,407.3-.2,611-.2,11.8,0,23.6.1,35.5,0,3.8,0,4.7,1.2,4.8,4.9.3,8.1.6,16.2,1.1,24.3.9,17.7,2.9,35.3,3.7,53,.6,12.9,1.4,25.8,2,38.7.6,14.2,1.4,28.5,2,42.7.5,12.1,1.9,24.2,1.2,36.3,0,1.5-.6,3.5,1.8,4Z"/>
      <path class="cls-2" d="m1474,266.9c-2.4-.5-1.9-2.5-1.8-4,.7-12.1-.7-24.2-1.2-36.3-.6-14.2-1.3-28.5-2-42.7-.6-12.9-1.4-25.8-2-38.7-.8-17.7-2.8-35.3-3.7-53-.4-8.1-.8-16.2-1.1-24.3-.1-3.6-1-4.9-4.8-4.9-11.8.2-23.6,0-35.5,0-203.7,0-407.3,0-611,.2-8.8,0-17.7-.3-26.6.2-5.9.4-12.5,0-18.6,0-6.3,0-12.8-1.6-19.1.3-3.3,1-6.5-.9-9.8-.9-65.8,0-131.6,0-197.3,0-139.5,0-278.9.2-418.4-.3-18.4,0-36.9-.3-55.3-.7-8.2-.2-8.5,0-9.6,8.8-.8,6.6-2,13.1-1.9,19.7,0,8.8-1.5,17.5-1.2,26.3.7,16.3-.8,32.6-1.3,48.8-.4,11.6.3,23.3-.8,34.8-1.4,15.1-.4,30.2-.9,45.3,0,1.6.6,3.5-1.8,4,0-15.8,0-31.6-.1-47.4,0-49.6,0-99.2,0-148.9,0-6.5,0-6.6,6.4-6.5,132.7,2.2,265.4,1.3,398.1.6,94.7-.5,189.4-.1,284.2-.5,9.9,0,19.9,1.1,29.9.9,96.5-2.2,193.1-1.5,289.6-.7,124.9,1,249.7.3,374.6.5,12.8,0,25.6-.7,38.4-.9,3.5,0,5,.6,5,4.6-.1,71.1,0,142.2,0,213.3,0,.7,0,1.3-.1,2Z"/>
      <path class="cls-2" d="m1445.2,1472.6c1.7-3.3,5.5-4,8-6.3,8.6-7.5,11.7-17.7,12.8-28.3,1.6-15.6,1.8-31.3,3.3-46.9,1.3-12.7,2-25.4,1.8-38.1,0-1.6-.2-3.3-.5-4.9-.2-1.1-1-2.5,0-3.3,1.4-1.2,2,1.4,3.4,1.1,0,37.3.1,74.6.2,111.9,0,5,1.7,11.7-.8,14.4-2.3,2.5-9.3.6-14.2.6-4.7,0-9.3,0-14-.2Z"/>
      <path class="cls-2" d="m48.4,1437.8c1.8.3,1.9,1.6,1.8,3-1.2,12.7,6.2,19.1,17.1,22.9,9.9,3.4,20.2,5,30.5,6.2,6.1.7,12.2.8,18.4.9,1.4,0,2.7,0,3,1.8-23,0-45.9,0-68.9.3-2.8,0-2.1-1.5-2.1-2.7,0-10.8,0-21.6.1-32.4Z"/>
    </g>
  </g>
</svg>