<?xml version="1.0" encoding="UTF-8"?>
<svg id="Layer_2" data-name="Layer 2" xmlns="http://www.w3.org/2000/svg" width="1131.4" height="658.4" viewBox="0 0 1131.4 658.4">
  <defs>
    <style>
      .cls-1 {
        fill: #494d61;
      }

      .cls-2 {
        fill: #7d89a2;
      }

      .cls-3 {
        fill: #010001;
      }

      .cls-4 {
        fill: #5d687d;
      }

      .cls-5 {
        fill: #5e697e;
      }

      .cls-6 {
        fill: #4a515e;
      }

      .cls-7 {
        fill: none;
      }
    </style>
  </defs>
  <g id="Middle">
    <g>
      <path class="cls-2" d="m1111.1,106c-4.8-1.9-6-6.8-8.5-10.6-23.1-35.4-55.3-57.6-96.4-66.9-3.8-.9-8-.5-11.9-.5-286.2,0-572.4,0-858.6,0-25.5,0-48.1,8.2-69,22.3-8.5,5.7-17,11.6-25.4,17.5-2.8,1.9-3.3.2-3.6-2,3.8-9.3,11.8-15.1,19-21.1,18.7-15.5,40.3-25.2,64.4-29.5,7.3-1.3,14.4-1.2,21.7-1.4,7.6-.2,15.3.3,23,.3,267.7,0,535.3,0,803,0,4,0,8,.1,12,0,32.3-1.7,61.4,7.8,87,26.9,19.7,14.7,34.4,33.7,42.5,57.3.9,2.7.8,5.2,1.1,7.8Z"/>
      <path class="cls-6" d="m14.6,423.8c.3.8.7,1.6,1,2.3-.8-.6-1.3-1.3-1-2.3Z"/>
      <path class="cls-7" d="m519.4,572.8c1.7,0,2.8.5,3.4,1.6-.6-1-1.7-1.6-3.4-1.6-.9-.5-1.5-1.2-1.8-2.1.3.9.9,1.6,1.8,2.1Z"/>
      <path class="cls-7" d="m517.3,569.8c.8-2.2-.9-1.7-2-2-3-3.9-6-7.8-9.1-11.7,3,3.9,6,7.8,9.1,11.7.7.7,1.3,1.3,2,2Z"/>
      <path class="cls-7" d="m631.9,553.8c-.3.5-.5,1-.8,1.4.3-.5.5-1,.8-1.4,1.9-1.9,3.9-3.8,4.9-6.4-.4,0-5,3.3-4.9,6.4Z"/>
      <path class="cls-7" d="m41.2,67.8c8.4-5.9,16.9-11.8,25.4-17.5,20.8-14,43.5-22.3,69-22.3,286.2,0,572.4,0,858.6,0,4,0,8.1-.4,11.9.5,41.2,9.2,73.3,31.5,96.4,66.9,2.4,3.7,3.7,8.6,8.4,10.6,0,0,0,0,0,0,0,0,0,0,0,0h0s0,0,0,0h0c0,0,0,0,0,0-.3-2.6-.1-5.1-1.1-7.8-8.1-23.7-22.8-42.7-42.5-57.3-25.6-19.1-54.7-28.6-87-26.9-4,.2-8,0-12,0-267.7,0-535.3,0-803,0-7.7,0-15.3-.5-23-.3-7.2.2-14.4.1-21.7,1.4-24.1,4.3-45.6,14.1-64.4,29.5-7.2,6-15.2,11.8-19,21.1h0c.3,2.2.8,4,3.6,2Z"/>
      <path class="cls-7" d="m1111.2,106.2c.8,1.4,2,6.9,3.1,13.9-.8-6.8-1.9-12.2-3.1-13.9Z"/>
      <path class="cls-7" d="m526,580.1c-.3-.6-.9-1.1-1.7-1.3-.4-.7-.7-1.3-1.1-2,.4.7.7,1.3,1.1,2,.8.2,1.3.6,1.7,1.3Z"/>
      <path class="cls-7" d="m14.6,423.8c-.3,1.1.2,1.8,1,2.3-.1,9.6,2.5,18.2,6.3,26.6-3.8-8.3-6.4-17-6.3-26.6-.3-.8-.7-1.6-1-2.3Z"/>
      <path class="cls-7" d="m562.2,615.6c2.1,1.4,3.3,5.6,6.9,2-2.3-.7-4.6-1.3-6.9-2-1.8-1.2-3.4-2.6-4.7-4.2,1.4,1.6,3,3,4.7,4.2Z"/>
      <path class="cls-3" d="m1111,106s0,0,0,0c0,0,0,0,0,0,0,0,0,0,0,0Z"/>
      <path class="cls-3" d="m1111,105.9s0,0,0,0c0,0,0,0,0,0h0Z"/>
      <path class="cls-3" d="m636.9,547.4c0-.1.1-.3.2-.4-.5.1-.6.4-.2.4Z"/>
      <polygon class="cls-5" points="1111 105.9 1111 105.9 1111 105.9 1111 105.9"/>
      <path class="cls-5" d="m1111.1,106s0,0,0,0h0Z"/>
      <path class="cls-5" d="m1114.3,431.7s0,0,0,0c1.5-5.1,2-10.2,2.2-15.4-.2,5.2-.7,10.3-2.2,15.4h0Z"/>
      <path class="cls-5" d="m1116.6,282.5c0-42.9,0-85.7,0-128.6.9-7.2-.5-22.4-2.3-33.8,1.5,11.9,2.3,27.6,2.3,33.8,0,42.9,0,85.7,0,128.6Z"/>
      <path class="cls-5" d="m14.3,417.4c0,2.2.2,4.3.3,6.5h0c0-2.2-.2-4.3-.3-6.5Z"/>
      <path class="cls-5" d="m37.6,65.8c-.3.2-.5.4-.8.6.3-.2.5-.4.8-.6h0Z"/>
      <path class="cls-5" d="m1111,105.9s0,0,0,0c0,0,0,0,0,0,0,0,0,0,0,0h0c0,0,0,0,0,0Z"/>
      <path class="cls-5" d="m1111.2,106.2c0-.1-.1-.2-.2-.2,0,0,0,0,0,0,0,0,.1.1.2.2Z"/>
      <path class="cls-5" d="m27.7,463.9c-2.1-3.7-4-7.4-5.7-11.2,1.7,3.8,3.7,7.5,5.7,11.2h0Z"/>
      <path class="cls-6" d="m1105.6,460.9c4.6-9.1,7.9-18.7,8.8-29.2,0,0,0,0,0,0-.9,10.4-4.2,20.1-8.8,29.2Z"/>
      <path class="cls-6" d="m27.7,463.9c.1.4.2.8.4,1.2-.1-.4-.2-.8-.4-1.2h0Z"/>
      <path d="m1127.3,112.4c-1-4.8-1.5-9.8-3-14.6-7.8-25.9-23.3-46.9-43.6-64-25.8-21.7-56.1-32.7-89.8-33.5-20-.5-39.9,0-59.9,0-121.5,0-243.1,0-364.6,0-123.9,0-247.7,0-371.6,0-15.3,0-30.6.7-45.9.3C104.4-.8,66.6,14.3,36.4,46.8,12.7,72.3,0,102.9,0,138.2c0,91.9,0,183.9,0,275.8,0,3.3-.2,6.7.3,10,5.6,31.8,18.1,59.8,42.2,82.7,27.7,26.3,60.7,40.3,98,40.5,112.3.5,226.2.5,338,.4,9.8,13,23.7,31.4,30.2,40.1,16.3,21.7,32.6,43.3,49,64.9,5.9,7.8,11.2,7.9,17.2.3,5.8-7.3,11.4-14.9,17-22.4,20.4-27.2,40.9-54.3,61.3-81.6.4-.5.7-1,1.1-1.5,112,0,223.1,0,335.1,0,3.3,0,6.7.3,10-.2,38.8-5.6,72.7-20.4,98.5-51.1,20.4-24.2,32.1-52.1,32.4-83.8.5-66.3.7-132.6,0-198.8-.4-33.7,4-67.6-3.1-101.1Zm-10.7,170.2c0,42.9,0,85.7,0,128.6,0,1.8,0,3.5,0,5.2-.2,5.2-.7,10.3-2.2,15.4-.9,10.4-4.2,20.1-8.8,29.2-1.5,3-3.2,6-4.9,8.9-20.1,33.6-50.1,53.3-87.9,61.9-8.2,1.8-16.4,2.2-24.7,2.2-108.1,0-215.1-.1-323.2-.2-5.6,0-11.3,0-16.9,0-3.3,4.5-6.6,8.9-10.5,12.8-.1,0-.3,0-.4,0-2.5,3.1-3.3,4.8-5.1,7.3-.3.5-.5,1-.8,1.4-.8,1.4-1.6,2.8-3.2,3.6-3.7,7.2-9.4,13-14.1,19.4-14.7,19.8-29.8,39.3-44.5,59-2.5,3.3-3.2,2.8-5.4-.2-22.5-29.9-45.2-59.7-67.8-89.6-1.5-2-3-3.9-4.4-5.9-1.8-2.4-4.6-4.3-5.3-7.6-.1-.1-.2-.2-.3-.3-5.6,0-11.7,0-17.4,0,0,0,0,0,0,0-88.2,0-177.4,0-265.6,0-21.3,0-42.6.9-63.9.1-48.2-1.8-84.6-24.3-109.9-65.2-.6-1-.9-2.2-1.3-3.4-.1-.4-.2-.8-.4-1.2-2.1-3.7-4-7.4-5.7-11.2-3.8-8.3-6.4-17-6.3-26.6-.8-.6-1.3-1.3-1-2.3h0c0-2.2-.2-4.3-.3-6.5s-.2-4.3-.2-6.5c0-92.7.2-185.4-.2-278.2-.1-24.8,8.7-45.8,22.2-65.6.2-.3.4-.5.7-.7.3-.2.5-.4.8-.6,3.8-9.3,11.8-15.1,19-21.1,18.7-15.5,40.3-25.2,64.4-29.5,7.3-1.3,14.4-1.2,21.7-1.4,7.6-.2,15.3.3,23,.3,267.7,0,535.3,0,803,0,4,0,8,.1,12,0,32.3-1.7,61.4,7.8,87,26.9,19.7,14.7,34.4,33.7,42.5,57.3.9,2.7.8,5.2,1.1,7.8,0,0,0,0,0,0,0,0,.1.1.2.2,1.2,1.7,2.2,7.2,3.1,13.9,1.8,11.4,3.3,26.7,2.3,33.8,0,42.9,0,85.7,0,128.6Z"/>
      <path class="cls-6" d="m473.2,517.8c-5.2,0-10.5,0-15.7,0,0,0,0,0-.1,0-110.8-.6-222.6,2.6-333.4-1.8-7.1-.3-13.7-1.7-20.3-4.1-26.2-9.8-48.9-25.1-69.1-44.3-1.9-1.8-3.8-3.8-6.8-3.6.1.4.2.8.4,1.2.3,1.2.6,2.4,1.3,3.4,25.3,40.9,61.7,63.4,109.9,65.2,21.3.8,42.6-.1,63.9-.1,88.2,0,177.4,0,265.6,0,5.8,0,11.6,0,17.4,0-4.6-5.1-9-10.3-12.9-15.9Z"/>
      <path class="cls-6" d="m1107.5,440.8c-9.8,20-23.3,36.9-41,50.5-9.8,7.6-20.2,14.5-31.9,18-19.1,5.7-39,8.1-58.8,8.3-62.6.5-125.2.2-187.8.2-37.7,0-74.4,0-112.2.1-5.2,0-10.4,0-15.5,0-2.2,3.3-5,6.1-7.4,9.2-1.7,2.2-3.3,4.4-4.9,6.6,5.6,0,11.3,0,16.9,0,108.1,0,215.1,0,323.2.2,8.3,0,16.6-.4,24.7-2.2,37.8-8.6,67.8-28.3,87.9-61.9,1.7-2.9,3.4-5.9,4.9-8.9,4.6-9.1,7.9-18.7,8.8-29.2-4.8,1.1-5.2,5.8-6.9,9.1Z"/>
      <path class="cls-1" d="m497.1,544.6c-3.2-3.8-5.4-8.8-10.6-10.6.7,3.3,3.4,5.2,5.3,7.6,1.5,2,3,3.9,4.4,5.9,1.1,0,2.2,0,3.3,0-.8-1-1.5-1.9-2.3-2.9Z"/>
      <path class="cls-1" d="m530.2,583.8s0,0,0,0c-1.3-1-2.6-2-3.9-3.1,1.3,1,3.9,3.1,3.9,3.1Z"/>
      <path class="cls-6" d="m624.3,561.2c-9.9,12.9-22,23.8-33.4,35.2-7.2,7.1-13.9,14.6-21.7,21.1-3.5,3.7-4.8-.5-6.9-2-1.8-1.2-31.8-30.5-32-31.8,0,0-6.5-6.3-6.9-7-1.7-1-3-2.3-3.9-4-.9-.5-1.5-1.2-1.8-2.1-.1-.3-.2-.6-.2-.9-.7-.7-1.3-1.3-2-2-3-3.9-6-7.8-9.1-11.7-2.3-2.9-4.6-5.8-6.9-8.7-1.1,0-2.2,0-3.3,0,22.6,29.9,45.3,59.7,67.8,89.6,2.2,3,2.9,3.5,5.4.2,14.7-19.8,29.8-39.2,44.5-59,4.8-6.4,10.4-12.2,14.1-19.4-1.6.2-2.8,1.1-3.7,2.3Z"/>
      <path class="cls-4" d="m1116.6,282.5c0-42.9,0-85.7,0-128.6,0-6.2-.8-22-2.3-33.8-1.1-7-2.3-12.6-3.1-13.9,0,0-.1-.2-.2-.2-4.8-1.9-6-6.8-8.4-10.6-23.1-35.4-55.3-57.6-96.4-66.9-3.8-.9-8-.5-11.9-.5-286.2,0-572.4,0-858.6,0-25.5,0-48.1,8.2-69,22.3-8.5,5.7-17,11.6-25.4,17.5-2.8,1.9-3.3.2-3.6-2-.3.2-.5.4-.8.6-.3.2-.5.4-.7.7-13.5,19.8-22.3,40.9-22.2,65.6.4,92.7.2,185.4.2,278.2,0,2.2,0,4.3.2,6.5s.2,4.3.3,6.5c.3.8.7,1.6,1,2.3-.1,9.6,2.5,18.2,6.3,26.6,1.7,3.8,3.7,7.5,5.7,11.2,3-.2,4.8,1.8,6.8,3.6,20.2,19.2,42.9,34.5,69.1,44.3,6.6,2.5,13.2,3.8,20.3,4.1,110.8,4.4,222.6,1.1,333.4,1.8,0,0,0,0,.1,0,5.2,0,10.5,0,15.7,0,4,5.6,8.4,10.8,12.9,15.9.1.1.2.2.3.3,5.2,1.8,7.4,6.8,10.6,10.6.8.9,1.6,1.9,2.3,2.9,2.3,2.9,4.6,5.8,6.9,8.7,3,3.9,11.2,14.3,11.3,14.6.3.9,6.5,7.4,6.8,8,.8.2,7.3,8.2,7.3,8.2,1.2.2,28.5,31.1,30.3,32.3,2.3.7,4.7,2.8,7.1-1.7,7.8-6.5,14.6-14,21.7-21.1,11.5-11.4,23.5-22.3,33.4-35.2.9-1.2,2.1-2.2,3.7-2.3,1.5-.8,2.4-2.2,3.2-3.6.3-.5,5.4-8.2,5.9-8.3,4.1-4.1,7.5-8.6,10.9-13.3,1.6-2.2,3.2-4.4,4.9-6.6,2.4-3.1,5.2-6,7.4-9.2,5.2,0,10.4,0,15.5,0,37.7,0,74.4-.1,112.1-.1,62.6,0,125.2.3,187.8-.2,19.8-.1,39.7-2.5,58.8-8.3,11.8-3.5,22.1-10.5,31.9-18,17.7-13.6,31.2-30.5,41-50.5,1.7-3.4,2.1-8,6.9-9.1h0c1.5-5.1,2-10.2,2.2-15.4,0-1.7,0-3.5,0-5.2,0-42.9,0-85.7,0-128.6Z"/>
    </g>
  </g>
</svg>